<svg width="61" height="61" viewBox="0 0 61 61" fill="none" xmlns="http://www.w3.org/2000/svg">
<g clip-path="url(#clip0)">
<path d="M17.2585 59.0161L14.343 58.0442V39.2997C15.4297 38.1892 16.1012 36.6712 16.1012 34.9981V31.3104C17.0529 30.4589 17.6833 29.2806 17.8522 28.014C17.8572 27.9756 17.86 27.9366 17.86 27.8977V23.2794C17.86 21.5019 16.4134 20.0558 14.6359 20.0558H5.25819C3.48069 20.0558 2.03462 21.5019 2.03462 23.2794V27.8977C2.03462 27.9366 2.0369 27.9756 2.04194 28.014C2.21085 29.2802 2.8412 30.4589 3.79289 31.3104V34.9981C3.79289 36.6708 4.46443 38.1892 5.55116 39.2993V58.0438L2.63566 59.0161C2.17469 59.1694 1.92613 59.6674 2.07948 60.128C2.20216 60.4965 2.54548 60.7295 2.91352 60.7295C3.00553 60.7295 3.09937 60.7148 3.19184 60.6841L6.70838 59.5118C7.06727 59.3919 7.30943 59.0559 7.30943 58.6778V40.5576C8.1096 40.9385 9.00361 41.1527 9.94706 41.1527C10.8905 41.1527 11.7845 40.9385 12.5847 40.5576V58.6778C12.5847 59.0563 12.8269 59.3923 13.1857 59.5118L16.7027 60.6841C16.7947 60.7148 16.8886 60.7295 16.9806 60.7295C17.3491 60.7295 17.692 60.4965 17.8146 60.128C17.968 59.6674 17.7194 59.1694 17.2585 59.0161ZM12.5385 21.8141C12.3247 23.8452 11.3817 25.6904 9.94706 26.871C8.51243 25.6904 7.56944 23.8452 7.35566 21.8141H12.5385ZM3.79289 23.2794C3.79289 22.4714 4.45023 21.8141 5.25819 21.8141H5.58961C5.83817 24.6526 7.27326 27.2349 9.45863 28.6956C9.60648 28.7945 9.77677 28.8439 9.94706 28.8439C10.1173 28.8439 10.2876 28.7945 10.4355 28.6956C12.6213 27.2349 14.0559 24.6526 14.3045 21.8141H14.6359C15.4443 21.8141 16.1012 22.4714 16.1012 23.2794V27.8364C15.9625 28.767 15.4517 29.6235 14.6941 30.1925C14.473 30.3587 14.343 30.6191 14.343 30.8956V34.1192H5.55116V30.8956C5.55116 30.6191 5.42115 30.3587 5.20005 30.1925C4.44245 29.6235 3.93159 28.767 3.79289 27.8364V23.2794ZM5.6395 35.8775H14.2546C13.8463 37.8816 12.0702 39.3945 9.94706 39.3945C7.82441 39.3945 6.04829 37.8816 5.6395 35.8775Z" fill="#C6D9FF"/>
<path d="M9.94714 18.2939C13.3405 18.2939 16.1013 15.5331 16.1013 12.1392C16.1013 8.74582 13.3405 5.98505 9.94714 5.98505C6.55374 5.98505 3.79297 8.74582 3.79297 12.1392C3.79297 15.5331 6.55374 18.2939 9.94714 18.2939ZM9.94714 7.74332C12.371 7.74332 14.343 9.71536 14.343 12.1392C14.343 14.5635 12.371 16.5356 9.94714 16.5356C7.52328 16.5356 5.55124 14.5635 5.55124 12.1392C5.55124 9.71536 7.52328 7.74332 9.94714 7.74332Z" fill="#C6D9FF"/>
<path d="M34.8424 59.0161L31.9264 58.0443V39.2997C32.8195 38.3874 33.4311 37.2 33.621 35.8775H34.564C35.0497 35.8775 35.4434 35.4838 35.4434 34.9981V23.2757C35.4434 21.4982 33.9973 20.0522 32.2198 20.0522H31.8321C32.9742 18.9343 33.6851 17.377 33.6851 15.6562V6.00476C33.6851 3.09613 31.3185 0.729492 28.4099 0.729492C26.7505 0.729492 25.1895 1.52005 24.1998 2.82834C24.138 2.82376 24.0758 2.82147 24.014 2.82147C22.5597 2.82147 21.3763 4.00479 21.3763 5.45911V15.6562C21.3763 17.377 22.0872 18.9343 23.2294 20.0522H22.8416C21.0641 20.0522 19.6181 21.4982 19.6181 23.2757V34.9981C19.6181 35.4838 20.0113 35.8775 20.497 35.8775H21.44C21.6299 37.2 22.242 38.3874 23.1346 39.2997V58.0443L20.2191 59.0161C19.7586 59.1694 19.5096 59.6675 19.6629 60.128C19.7861 60.4965 20.1289 60.7295 20.497 60.7295C20.589 60.7295 20.6828 60.7148 20.7753 60.6842L24.2918 59.5118C24.6512 59.3924 24.8933 59.0564 24.8933 58.6778V40.5577C25.693 40.9385 26.5871 41.1528 27.5305 41.1528C28.474 41.1528 29.3684 40.9385 30.1681 40.5577V58.6778C30.1681 59.0564 30.4103 59.3924 30.7692 59.5118L34.2862 60.6842C34.3782 60.7148 34.472 60.7295 34.5645 60.7295C34.9325 60.7295 35.2754 60.4965 35.3981 60.128C35.5519 59.6675 35.3029 59.1694 34.8424 59.0161ZM21.3763 34.1192V27.0857H33.6851V34.1192H21.3763ZM23.1346 12.1393C23.1346 9.71539 25.1066 7.74335 27.5305 7.74335C29.9548 7.74335 31.9264 9.71539 31.9264 12.1393V12.4327H30.1521C29.4893 11.6911 28.5403 11.2603 27.5305 11.2603C26.5207 11.2603 25.5722 11.6911 24.9094 12.4327H23.1346V12.1393ZM23.1346 5.45911C23.1346 4.97433 23.5292 4.57974 24.014 4.57974C24.1119 4.57974 24.2113 4.5976 24.3088 4.63239C24.7084 4.77521 25.1529 4.61224 25.3657 4.24512C25.9938 3.16113 27.1602 2.48776 28.4099 2.48776C30.349 2.48776 31.9264 4.06567 31.9264 6.00476V7.8381C30.8086 6.69598 29.2512 5.98508 27.5305 5.98508C25.8098 5.98508 24.2529 6.69598 23.1346 7.8381V5.45911ZM23.1346 15.6562V14.1909H25.3374C25.6308 14.1909 25.905 14.0445 26.068 13.8009C26.3957 13.3111 26.9427 13.0186 27.5305 13.0186C28.1187 13.0186 28.6653 13.3111 28.9935 13.8009C29.1565 14.0445 29.4307 14.1909 29.7237 14.1909H31.9264V15.6562C31.9264 18.0801 29.9548 20.0522 27.5305 20.0522C25.1066 20.0522 23.1346 18.0801 23.1346 15.6562ZM22.8416 21.8104H32.2198C33.0278 21.8104 33.6851 22.4678 33.6851 23.2757V25.3274H21.3763V23.2757C21.3763 22.4678 22.0337 21.8104 22.8416 21.8104ZM23.2234 35.8775H31.8381C31.4297 37.8816 29.6536 39.3945 27.531 39.3945C25.4079 39.3945 23.6317 37.8816 23.2234 35.8775Z" fill="#C6D9FF"/>
<path d="M59.1818 20.0521C58.6961 20.0521 58.3024 20.4458 58.3024 20.9315C58.3024 25.0427 55.1503 28.4306 51.1357 28.8078C50.7402 27.4748 49.5047 26.4997 48.0453 26.4997H42.1841C40.4066 26.4997 38.9601 27.9458 38.9601 29.7233V36.4355C37.8239 37.8408 37.2018 39.5927 37.2018 41.4064V45.5487C37.2018 46.0344 37.5955 46.4276 38.0812 46.4276C39.0178 46.4276 39.9269 46.1639 40.7188 45.6865V58.0442L37.8029 59.0161C37.3424 59.1694 37.0933 59.6675 37.2471 60.128C37.3698 60.4965 37.7127 60.7295 38.0807 60.7295C38.1732 60.7295 38.267 60.7148 38.359 60.6842L41.876 59.5118C42.2349 59.3924 42.4771 59.0564 42.4771 58.6778V45.6865C43.269 46.1639 44.1781 46.4276 45.1147 46.4276C46.0513 46.4276 46.9604 46.1639 47.7524 45.6865V58.6778C47.7524 59.0564 47.9941 59.3924 48.3534 59.5118L51.8699 60.6842C51.9624 60.7148 52.0562 60.7295 52.1483 60.7295C52.5163 60.7295 52.8592 60.4965 52.9823 60.128C53.1356 59.6675 52.8866 59.1694 52.4261 59.0161L49.5106 58.0442V45.6865C50.3026 46.1639 51.2112 46.4276 52.1483 46.4276C52.3813 46.4276 52.6051 46.3351 52.7699 46.1703C52.9347 46.0055 53.0272 45.7817 53.0272 45.5487V41.4064C53.0272 39.5927 52.4051 37.8408 51.2689 36.4355V30.5606C56.1908 30.1147 60.0607 25.9674 60.0607 20.9315C60.0607 20.4458 59.667 20.0521 59.1818 20.0521ZM51.2689 44.5494C50.5095 44.3393 49.8265 43.8609 49.3504 43.1848C49.1861 42.9509 48.9178 42.8112 48.6313 42.8112C48.3452 42.8112 48.0769 42.9509 47.9126 43.1848C47.2584 44.1145 46.2124 44.6698 45.1147 44.6698C44.017 44.6698 42.971 44.1145 42.3169 43.1848C42.1525 42.9509 41.8843 42.8112 41.5977 42.8112C41.3116 42.8112 41.0434 42.9509 40.879 43.1848C40.403 43.8609 39.72 44.3393 38.9605 44.5494L38.9601 41.4064C38.9601 39.9076 39.5067 38.4629 40.4986 37.3382C40.6405 37.1775 40.7188 36.9711 40.7188 36.7569V29.7233C40.7188 28.9154 41.3757 28.258 42.1841 28.258H48.0453C48.8533 28.258 49.5106 28.9154 49.5106 29.7233V36.7569C49.5106 36.9711 49.5889 37.1775 49.7303 37.3382C50.7223 38.4629 51.2689 39.9076 51.2689 41.4064V44.5494Z" fill="url(#paint0_linear)"/>
<path d="M45.1141 24.741C48.5075 24.741 51.2683 21.9803 51.2683 18.5869C51.2683 15.1935 48.5075 12.4327 45.1141 12.4327C41.7207 12.4327 38.96 15.1935 38.96 18.5869C38.96 21.9803 41.7207 24.741 45.1141 24.741ZM49.4107 17.6585C47.0477 17.4241 44.888 16.3443 43.2799 14.5933C43.8388 14.3356 44.4595 14.1909 45.1141 14.1909C47.2194 14.1909 48.9832 15.6791 49.4107 17.6585ZM41.8553 15.6398C43.8118 17.8444 46.4943 19.1852 49.429 19.4264C49.0358 21.4502 47.251 22.9828 45.1141 22.9828C42.6903 22.9828 40.7182 21.0107 40.7182 18.5869C40.7182 17.4539 41.149 16.4203 41.8553 15.6398Z" fill="url(#paint1_linear)"/>
</g>
<defs>
<linearGradient id="paint0_linear" x1="36.8641" y1="43.7055" x2="60.439" y2="43.5461" gradientUnits="userSpaceOnUse">
<stop stop-color="#5529CF"/>
<stop offset="1" stop-color="#9745FF"/>
</linearGradient>
<linearGradient id="paint1_linear" x1="36.8641" y1="43.7055" x2="60.439" y2="43.5461" gradientUnits="userSpaceOnUse">
<stop stop-color="#5529CF"/>
<stop offset="1" stop-color="#9745FF"/>
</linearGradient>
<clipPath id="clip0">
<rect width="60" height="60" fill="white" transform="translate(0.979492 0.729492)"/>
</clipPath>
</defs>
</svg>
