<svg id="Слой_1" data-name="Слой 1" xmlns="http://www.w3.org/2000/svg" xmlns:xlink="http://www.w3.org/1999/xlink" viewBox="0 0 600 150"><defs><style>.cls-1,.cls-3{fill:none;}.cls-2{clip-path:url(#clip-path);}.cls-3{stroke:#fff;stroke-linecap:round;stroke-linejoin:round;stroke-width:10px;}.cls-4{fill:#fff;}.cls-5{fill:#c8535a;}.cls-6{clip-path:url(#clip-path-2);}.cls-7{clip-path:url(#clip-path-3);}.cls-8{clip-path:url(#clip-path-4);}.cls-9{fill:#df5c64;}</style><clipPath id="clip-path"><path class="cls-1" d="M4,145V5H146V145Zm6-70A65,65,0,1,0,75,10,65,65,0,0,0,10,75Z"/></clipPath><clipPath id="clip-path-2"><path class="cls-1" d="M154,145V5H295V145Zm6-70a65,65,0,1,0,65-65A65,65,0,0,0,160,75Z"/></clipPath><clipPath id="clip-path-3"><path class="cls-1" d="M305,145V5H445V145Zm5-70a65,65,0,1,0,65-65A65,65,0,0,0,310,75Z"/></clipPath><clipPath id="clip-path-4"><path class="cls-1" d="M455,145V5H597V145Zm6-70a65,65,0,1,0,65-65A65,65,0,0,0,461,75Z"/></clipPath></defs><title>Монтажная область 1</title><path class="cls-1" d="M75,10A65,65,0,1,1,10,75,65,65,0,0,1,75,10Z"/><g class="cls-2"><path class="cls-3" d="M75,10A65,65,0,1,1,10,75,65,65,0,0,1,75,10Z"/></g><path class="cls-4" d="M75,15A60,60,0,1,1,15,75,60,60,0,0,1,75,15Z"/><path class="cls-5" d="M88.38,65.54l-4.17-4.18L95.65,49.91l4.18,4.18Zm17.47-11.45a2.5,2.5,0,0,0-.7-1.76L97.4,44.6a2.56,2.56,0,0,0-3.52,0L43.66,94.83a2.56,2.56,0,0,0,0,3.52l7.73,7.73a2.54,2.54,0,0,0,3.52,0l50.23-50.23a2.44,2.44,0,0,0,.7-1.76ZM53.07,46.67,51.9,42.84l-1.17,3.83L46.9,47.84,50.73,49l1.17,3.83L53.07,49l3.83-1.17ZM66.74,53,64.4,45.34,62.06,53,54.4,55.34l7.66,2.35,2.34,7.65,2.34-7.65,7.66-2.35Zm36.33,18.67-1.17-3.83-1.17,3.83L96.9,72.84,100.73,74l1.17,3.83L103.07,74l3.83-1.17ZM81.9,47.84,78.07,49,76.9,52.84,75.73,49,71.9,47.84l3.83-1.17,1.17-3.83,1.17,3.83Z"/><path class="cls-1" d="M225,10a65,65,0,1,1-65,65A65,65,0,0,1,225,10Z"/><g class="cls-6"><path class="cls-3" d="M225,10a65,65,0,1,1-65,65A65,65,0,0,1,225,10Z"/></g><path class="cls-4" d="M225,15a60,60,0,1,1-60,60A60,60,0,0,1,225,15Z"/><path class="cls-5" d="M222.75,75.06a10,10,0,1,1-10-10A10,10,0,0,1,222.75,75.06Zm30,20a5,5,0,1,1-5-5A5,5,0,0,1,252.75,95.06Zm-5-45a4.84,4.84,0,1,0,5,5A5,5,0,0,0,247.75,50.06Zm-10,21.45a1.21,1.21,0,0,0-.94-1.17l-5.94-.9a24.7,24.7,0,0,0-1.33-3.21c1.1-1.52,2.27-2.93,3.4-4.45a1.3,1.3,0,0,0,.28-.74c0-1.1-4.61-5.31-5.63-6.25a1.21,1.21,0,0,0-.82-.31,1.16,1.16,0,0,0-.78.27l-4.61,3.48A19.87,19.87,0,0,0,218.45,57l-.9-6a1.21,1.21,0,0,0-1.17-1h-7.27a1.25,1.25,0,0,0-1.17.94,40.74,40.74,0,0,0-.9,6,22,22,0,0,0-3,1.25l-4.5-3.51a1.41,1.41,0,0,0-.82-.27c-1.13,0-5.5,4.72-6.29,5.78a1.14,1.14,0,0,0-.27.78,1.53,1.53,0,0,0,.27.78q1.86,2.16,3.52,4.49a18.19,18.19,0,0,0-1.25,3l-6.06.94a1.23,1.23,0,0,0-.9,1.17v7.23a1.15,1.15,0,0,0,.94,1.13l5.94.94a20.27,20.27,0,0,0,1.37,3.2c-1.13,1.52-2.3,3-3.44,4.45a1.32,1.32,0,0,0-.27.75c0,1.13,4.6,5.31,5.62,6.24a1.26,1.26,0,0,0,.82.32,1.09,1.09,0,0,0,.78-.28l4.61-3.47A19.22,19.22,0,0,0,207,93.11l.9,6a1.22,1.22,0,0,0,1.17,1h7.27a1.24,1.24,0,0,0,1.17-.94,39.23,39.23,0,0,0,.9-6.05,16.23,16.23,0,0,0,3-1.21l4.5,3.51a1.42,1.42,0,0,0,.82.28c1.13,0,5.5-4.77,6.29-5.82a1,1,0,0,0,.27-.74,1.34,1.34,0,0,0-.27-.79q-1.86-2.16-3.52-4.49a17,17,0,0,0,1.25-3l6.06-.93a1.24,1.24,0,0,0,.9-1.18Zm25,20.82c0-.59-5-1.14-5.82-1.21a10.2,10.2,0,0,0-1.18-2,35.71,35.71,0,0,0,2-5.4.35.35,0,0,0-.16-.27c-.47-.27-4.65-2.73-4.84-2.73l-.24.07a35.56,35.56,0,0,0-3.6,4.38,11.11,11.11,0,0,0-1.16-.08,11.69,11.69,0,0,0-1.18.08c-.39-.59-3.32-4.45-3.82-4.45-.2,0-4.38,2.5-4.85,2.73a.35.35,0,0,0-.15.27,38.5,38.5,0,0,0,2,5.4,10.2,10.2,0,0,0-1.17,2c-.78.07-5.82.62-5.82,1.21V97.8c0,.58,5,1.13,5.82,1.21a9.49,9.49,0,0,0,1.17,2,38,38,0,0,0-2,5.39.36.36,0,0,0,.16.27c.47.28,4.65,2.78,4.85,2.78.5,0,3.43-3.91,3.82-4.5.4,0,.79.08,1.18.08a11.49,11.49,0,0,0,1.17-.08c.39.59,3.32,4.5,3.83,4.5.2,0,4.37-2.5,4.84-2.78a.29.29,0,0,0,.16-.27,35.61,35.61,0,0,0-2-5.39,10,10,0,0,0,1.18-2c.78-.08,5.82-.63,5.82-1.21Zm0-34.53c0,.58-5,1.13-5.82,1.21a9.53,9.53,0,0,1-1.18,2,35.61,35.61,0,0,1,2,5.39.29.29,0,0,1-.16.27c-.47.28-4.65,2.78-4.84,2.78-.51,0-3.44-3.91-3.83-4.5a8.67,8.67,0,0,1-2.35,0c-.39.59-3.32,4.5-3.82,4.5-.2,0-4.38-2.5-4.85-2.78a.33.33,0,0,1-.15-.27,37.94,37.94,0,0,1,2-5.39,9.67,9.67,0,0,1-1.17-2c-.78-.08-5.82-.63-5.82-1.21V52.33c0-.59,5-1.14,5.82-1.21a10,10,0,0,1,1.17-2,38.59,38.59,0,0,1-2-5.4.38.38,0,0,1,.16-.27c.47-.23,4.65-2.73,4.85-2.73.5,0,3.43,3.86,3.82,4.45.4,0,.79-.08,1.18-.08a11.49,11.49,0,0,1,1.17.08,35.56,35.56,0,0,1,3.6-4.38l.23-.07c.2,0,4.37,2.46,4.84,2.73a.34.34,0,0,1,.16.27,35.71,35.71,0,0,1-2,5.4,10.54,10.54,0,0,1,1.18,2c.78.07,5.82.62,5.82,1.21Z"/><path class="cls-1" d="M375,10a65,65,0,1,1-65,65A65,65,0,0,1,375,10Z"/><g class="cls-7"><path class="cls-3" d="M375,10a65,65,0,1,1-65,65A65,65,0,0,1,375,10Z"/></g><path class="cls-4" d="M375,15a60,60,0,1,1-60,60A60,60,0,0,1,375,15Z"/><path class="cls-5" d="M397.75,55.5A3.75,3.75,0,1,1,394,51.75,3.75,3.75,0,0,1,397.75,55.5Zm8.75-11.25A1.31,1.31,0,0,0,405.17,43c-13.59,0-21.05,3.12-30.82,12.85q-3.57,3.68-6.87,7.62l-14.81.78a1.41,1.41,0,0,0-1,.62l-8.75,15a1.31,1.31,0,0,0,.19,1.53l2.5,2.5a1.34,1.34,0,0,0,.9.35,1,1,0,0,0,.35,0l10.78-3.32,11,11-3.32,10.78a1.35,1.35,0,0,0,.31,1.25l2.5,2.5a1.4,1.4,0,0,0,.9.35,1.11,1.11,0,0,0,.62-.16l15-8.75a1.39,1.39,0,0,0,.63-1L386,82q3.93-3.3,7.62-6.87c9.26-9.3,12.85-17.93,12.85-30.9Z"/><path class="cls-1" d="M526,10a65,65,0,1,1-65,65A65,65,0,0,1,526,10Z"/><g class="cls-8"><path class="cls-3" d="M526,10a65,65,0,1,1-65,65A65,65,0,0,1,526,10Z"/></g><path class="cls-4" d="M526,15a60,60,0,1,1-60,60A60,60,0,0,1,526,15Z"/><path class="cls-9" d="M535.86,61.14c0-5-5.85-7.15-10-7.15a1.43,1.43,0,0,0,0,2.86c2.37,0,7.14,1.21,7.14,4.29a1.43,1.43,0,0,0,2.86,0Zm7.14,0a12.7,12.7,0,0,1-3,8c-.85,1-1.83,1.92-2.73,2.95-3.17,3.8-5.84,8.26-6.3,13.31H520.78c-.45-5.05-3.13-9.51-6.3-13.31-.89-1-1.87-2-2.72-2.95a12.7,12.7,0,0,1-3-8c0-8.93,9.06-14.29,17.14-14.29S543,52.21,543,61.14Zm5.72,0c0-12.15-11.57-20-22.86-20S503,49,503,61.14a17.16,17.16,0,0,0,4.6,12c3.08,3.4,7.14,8.17,7.5,12.95a4.3,4.3,0,0,0-2.1,3.66,4.16,4.16,0,0,0,1.12,2.86A4.18,4.18,0,0,0,513,95.43,4.28,4.28,0,0,0,515,99a4.4,4.4,0,0,0-.58,2.1c0,2.9,2.28,4.29,4.87,4.29a7.17,7.17,0,0,0,13.12,0c2.6,0,4.87-1.39,4.87-4.29a4.4,4.4,0,0,0-.58-2.1,4.26,4.26,0,0,0,.9-6.47,4.18,4.18,0,0,0,1.1-2.86,4.29,4.29,0,0,0-2.1-3.66c.37-4.78,4.43-9.55,7.51-12.95A17.16,17.16,0,0,0,548.72,61.14Z"/></svg>