<svg width="58" height="58" viewBox="0 0 58 58" fill="none" xmlns="http://www.w3.org/2000/svg">
<g clip-path="url(#clip0)">
<path d="M12.6889 45.4705C11.7823 44.5639 10.577 44.0647 9.29511 44.0647C8.53782 44.0647 7.80784 44.2403 7.14978 44.5697C0.683338 35.4082 0.660908 22.8538 7.2045 13.67C7.56745 13.1605 7.44873 12.4532 6.93919 12.0901C6.42965 11.727 5.72232 11.8458 5.35926 12.3553C1.74977 17.4211 -0.101929 23.4033 0.00432896 29.655C0.105489 35.6044 1.9735 41.2481 5.4151 46.0391C4.04757 47.915 4.20945 50.566 5.90131 52.2581C6.83701 53.1937 8.066 53.6616 9.29511 53.6616C10.5242 53.6616 11.7532 53.1937 12.6889 52.2581C14.5602 50.3867 14.5602 47.3419 12.6889 45.4705ZM11.0868 50.656C10.0986 51.6439 8.49126 51.6439 7.50334 50.656C6.5153 49.668 6.5153 48.0604 7.50334 47.0724C7.98195 46.5938 8.61825 46.3302 9.295 46.3302C9.97174 46.3302 10.6082 46.5938 11.0867 47.0724C12.0748 48.0605 12.0748 49.6681 11.0868 50.656Z" fill="#C6D9FF"/>
<path d="M46.2145 51.1064C45.8485 50.5993 45.1405 50.4851 44.6331 50.8516C41.3946 53.1917 37.7541 54.7419 33.8126 55.4593C32.8993 55.6256 31.9679 55.3808 31.2573 54.7879C30.5518 54.1993 30.1472 53.3345 30.1472 52.4155V44.1121H30.2461C31.5578 44.1121 32.625 43.045 32.625 41.7332V39.8207C36.4622 38.356 39.1954 34.6374 39.1954 30.2919V24.9286C41.021 24.4299 42.3672 22.7578 42.3672 20.7763C42.3672 18.5948 40.7356 16.7883 38.629 16.51V9.44813C38.629 7.57422 37.1044 6.04968 35.2305 6.04968C33.3566 6.04968 31.8321 7.57422 31.8321 9.44813V16.4716H26.168V9.44813C26.168 7.57422 24.6434 6.04968 22.7695 6.04968C20.8956 6.04968 19.3711 7.57422 19.3711 9.44813V16.51C17.2644 16.7883 15.6328 18.5947 15.6328 20.7763C15.6328 22.7578 16.979 24.4299 18.8047 24.9286V30.2919C18.8047 34.6374 21.5378 38.356 25.375 39.8207V41.7333C25.375 43.0451 26.4422 44.1123 27.7539 44.1123H27.8816V52.4156C27.8816 54.0085 28.5829 55.5072 29.8057 56.5276C30.7816 57.3418 31.9978 57.7763 33.2471 57.7763C33.5698 57.7763 33.8947 57.7473 34.2182 57.6884C38.4948 56.9099 42.4453 55.2276 45.9597 52.688C46.4669 52.3215 46.5809 51.6134 46.2145 51.1064ZM34.0978 9.44813C34.0978 8.82349 34.606 8.31531 35.2306 8.31531C35.8553 8.31531 36.3634 8.82349 36.3634 9.44813V16.4716H34.0978V9.44813ZM21.6368 9.44813C21.6368 8.82349 22.145 8.31531 22.7697 8.31531C23.3943 8.31531 23.9025 8.82349 23.9025 9.44813V16.4716H21.6368V9.44813ZM17.8986 20.7763C17.8986 19.652 18.8133 18.7372 19.9376 18.7372H38.0627C39.187 18.7372 40.1017 19.652 40.1017 20.7763C40.1017 21.9006 39.187 22.8153 38.0627 22.8153H19.9376C18.8133 22.8153 17.8986 21.9006 17.8986 20.7763ZM21.0704 30.2919V25.081H36.9298V30.2919C36.9298 34.6644 33.3726 38.2216 29.0001 38.2216C24.6277 38.2216 21.0704 34.6644 21.0704 30.2919ZM29.0431 41.8466C29.0336 41.8464 29.0242 41.8452 29.0146 41.8452C29.0051 41.8452 28.9957 41.8464 28.9862 41.8466H27.7543C27.6915 41.8466 27.6408 41.7958 27.6408 41.7333V40.3964C28.0856 40.456 28.5393 40.4873 29.0001 40.4873C29.461 40.4873 29.9147 40.456 30.3595 40.3964V41.7333C30.3595 41.7958 30.3088 41.8466 30.2462 41.8466H29.0431Z" fill="url(#paint0_linear)"/>
<path d="M49.4775 48.036C49.0286 47.6168 48.3291 47.633 47.8997 48.067C47.891 48.0758 47.8823 48.0849 47.874 48.0936C47.4471 48.5511 47.4719 49.2678 47.9292 49.6947C48.1476 49.8985 48.425 49.9994 48.7019 49.9994C48.9945 49.9994 49.2864 49.8866 49.507 49.6637C49.5157 49.6549 49.5244 49.6458 49.5327 49.6371C49.9597 49.1797 49.9348 48.4629 49.4775 48.036Z" fill="#C6D9FF"/>
<path d="M57.9229 27.0417C57.4182 20.1068 54.4291 13.5764 49.5064 8.65352C44.6679 3.8147 38.2046 0.852845 31.307 0.313739C24.4934 -0.219024 17.7123 1.62996 12.2104 5.51959C11.6995 5.88073 11.5782 6.58772 11.9393 7.09851C12.3004 7.60929 13.0075 7.73084 13.5183 7.36959C24.0391 -0.0681328 38.8218 1.17241 47.9044 10.2555C57.2906 19.6422 58.4255 34.2187 50.6029 44.9151C50.2336 45.4202 50.3436 46.1288 50.8486 46.4983C51.0502 46.6457 51.2844 46.7168 51.5165 46.7168C51.8655 46.7168 52.2099 46.556 52.4318 46.2525C56.4723 40.7274 58.4226 33.9049 57.9229 27.0417Z" fill="#C6D9FF"/>
<path d="M9.95858 8.78443C9.51418 8.34411 8.79688 8.34706 8.35645 8.79157L8.33798 8.81038C7.89754 9.25467 7.90083 9.97196 8.34512 10.4124C8.56602 10.6313 8.85432 10.7406 9.14262 10.7406C9.43409 10.7406 9.72568 10.6287 9.94726 10.4053L9.96572 10.3865C10.4062 9.94217 10.4029 9.22487 9.95858 8.78443Z" fill="#C6D9FF"/>
<path d="M31.5547 29.8724C31.3517 29.5242 30.979 29.3101 30.576 29.3101H29.7665L31.2575 27.4267C31.6458 26.9362 31.5629 26.2236 31.0724 25.8354C30.5819 25.447 29.8693 25.53 29.481 26.0204L26.5366 29.7398C26.267 30.0804 26.2159 30.5452 26.4051 30.9362C26.5943 31.3273 26.9904 31.5757 27.4248 31.5757H28.6324L27.2452 34.0251C26.9368 34.5695 27.1283 35.2608 27.6725 35.569C27.849 35.6689 28.0405 35.7164 28.2298 35.7164C28.6248 35.7163 29.0083 35.5095 29.2167 35.1416L31.5618 31.0011C31.7605 30.6504 31.7577 30.2206 31.5547 29.8724Z" fill="url(#paint1_linear)"/>
</g>
<defs>
<linearGradient id="paint0_linear" x1="15.1781" y1="39.5433" x2="46.9381" y2="39.2733" gradientUnits="userSpaceOnUse">
<stop stop-color="#5529CF"/>
<stop offset="1" stop-color="#9745FF"/>
</linearGradient>
<linearGradient id="paint1_linear" x1="26.212" y1="32.1472" x2="31.7985" y2="32.1045" gradientUnits="userSpaceOnUse">
<stop stop-color="#5529CF"/>
<stop offset="1" stop-color="#9745FF"/>
</linearGradient>
<clipPath id="clip0">
<rect width="58" height="58" fill="white"/>
</clipPath>
</defs>
</svg>
