<svg width="61" height="61" viewBox="0 0 61 61" fill="none" xmlns="http://www.w3.org/2000/svg">
<g clip-path="url(#clip0)">
<path d="M58.862 41.1346C58.988 40.8126 59.109 40.4896 59.224 40.1626C59.288 39.9796 59.351 39.7956 59.411 39.6106C59.556 39.1716 59.69 38.7266 59.815 38.2786C59.835 38.2076 59.86 38.1386 59.879 38.0676C59.881 38.0596 59.88 38.0516 59.882 38.0436C60.552 35.5566 60.915 32.9446 60.915 30.2476C60.915 13.7056 47.457 0.247559 30.915 0.247559C14.373 0.247559 0.915039 13.7056 0.915039 30.2476C0.915039 33.0926 1.32204 35.8426 2.06504 38.4526C2.06804 38.4636 2.06604 38.4746 2.06904 38.4846C2.08304 38.5326 2.10104 38.5796 2.11504 38.6276C2.25704 39.1136 2.41004 39.5936 2.57504 40.0696C2.61004 40.1696 2.64204 40.2716 2.67704 40.3706C2.86604 40.8956 3.06604 41.4156 3.28304 41.9276C3.39704 42.1976 3.52304 42.4596 3.64404 42.7256C3.73804 42.9306 3.82904 43.1366 3.92804 43.3396C4.10804 43.7116 4.29804 44.0766 4.49204 44.4396C4.52204 44.4956 4.55204 44.5526 4.58304 44.6086C7.57504 50.1146 12.217 54.5476 17.905 57.2766C17.912 57.2796 17.92 57.2836 17.927 57.2876C18.289 57.4606 18.655 57.6256 19.025 57.7846C19.195 57.8586 19.366 57.9296 19.538 58.0006C19.841 58.1246 20.145 58.2476 20.454 58.3626C20.751 58.4736 21.052 58.5746 21.353 58.6766C21.541 58.7396 21.723 58.8116 21.912 58.8716C21.922 58.8746 21.932 58.8736 21.942 58.8756C24.776 59.7656 27.79 60.2476 30.915 60.2476C34.177 60.2476 37.317 59.7166 40.259 58.7496C40.269 58.7466 40.28 58.7486 40.291 58.7446C40.369 58.7186 40.443 58.6876 40.521 58.6616C40.941 58.5186 41.357 58.3676 41.769 58.2076C41.946 58.1386 42.123 58.0706 42.299 57.9986C42.624 57.8646 42.945 57.7226 43.264 57.5776C50.059 54.5176 55.425 49.0736 58.389 42.2776C58.451 42.1376 58.516 41.9996 58.576 41.8586C58.676 41.6196 58.768 41.3766 58.862 41.1346ZM5.57904 42.1526C5.45804 41.8956 5.34004 41.6356 5.22704 41.3746C5.10304 41.0866 4.98404 40.7956 4.86904 40.5026C4.80904 40.3506 4.74704 40.2006 4.68904 40.0476C4.50804 39.5606 4.33704 39.0686 4.18204 38.5686C4.34804 38.4416 4.51204 38.3266 4.67804 38.2116L7.83004 43.6716C7.48204 43.9516 7.17804 44.2756 6.89604 44.6196C6.49904 43.9586 6.13004 43.2796 5.78704 42.5846C5.71704 42.4406 5.64704 42.2966 5.57904 42.1526ZM19.703 38.6036L15.476 43.2976C13.751 42.1746 11.55 41.9076 9.56504 42.6766L6.41004 37.2116C10.833 35.0986 15.972 35.7466 19.703 38.6036ZM22.994 42.3516C24.146 44.3466 24.709 46.5516 24.709 48.7436L24.708 48.7476C24.708 48.7476 24.709 48.7516 24.709 48.7536C24.708 50.2026 24.453 51.6446 23.964 53.0186L18.201 50.4526C18.64 48.8356 18.461 47.0516 17.559 45.4896C17.382 45.1836 17.179 44.9026 16.962 44.6366L21.184 39.9486C21.864 40.6646 22.479 41.4596 22.994 42.3516ZM21.502 56.6156C21.323 56.5516 21.147 56.4836 20.969 56.4166C19.193 55.7396 17.505 54.8856 15.922 53.8776C16.507 53.4206 16.998 52.8786 17.384 52.2776L23.148 54.8436C22.788 55.5056 22.373 56.1446 21.889 56.7466C21.761 56.7026 21.631 56.6616 21.502 56.6156ZM9.65604 44.8356C11.812 43.5876 14.581 44.3316 15.827 46.4886C17.072 48.6456 16.33 51.4136 14.173 52.6606C14.169 52.6626 14.165 52.6656 14.16 52.6676C14.073 52.6026 13.989 52.5316 13.903 52.4656C13.52 52.1726 13.148 51.8686 12.782 51.5576C12.589 51.3936 12.396 51.2296 12.208 51.0606C11.826 50.7176 11.453 50.3646 11.091 50.0016C10.873 49.7826 10.662 49.5566 10.451 49.3306C10.25 49.1156 10.055 48.8976 9.86104 48.6766C9.54104 48.3116 9.23204 47.9386 8.93104 47.5586C8.73804 47.3136 8.54604 47.0686 8.36104 46.8166C8.25904 46.6786 8.16204 46.5376 8.06304 46.3976C8.45404 45.7506 8.99704 45.2156 9.65604 44.8356ZM23.921 57.3636C24.504 56.5526 25.001 55.6976 25.402 54.8076C25.41 54.7926 25.422 54.7816 25.429 54.7656C25.433 54.7576 25.431 54.7486 25.434 54.7406C26.14 53.1526 26.549 51.4616 26.666 49.7476H27.915C28.467 49.7476 28.915 49.3006 28.915 48.7476C28.915 48.1946 28.467 47.7476 27.915 47.7476H26.671C26.544 45.8646 26.055 43.9936 25.192 42.2376L26.271 41.6146C26.75 41.3386 26.913 40.7266 26.637 40.2486C26.36 39.7696 25.747 39.6056 25.271 39.8826L24.182 40.5116C23.497 39.4906 22.71 38.5726 21.83 37.7786C21.823 37.7716 21.82 37.7626 21.813 37.7556C21.802 37.7456 21.788 37.7436 21.777 37.7346C21.263 37.2746 20.717 36.8616 20.151 36.4836L20.781 35.3926C21.057 34.9136 20.893 34.3026 20.415 34.0266C19.935 33.7506 19.325 33.9136 19.049 34.3926L18.425 35.4726C16.702 34.6306 14.828 34.1286 12.915 33.9966V32.7476C12.915 32.1946 12.467 31.7476 11.915 31.7476C11.363 31.7476 10.915 32.1946 10.915 32.7476V34.0076C8.72804 34.1526 6.54104 34.7686 4.51904 35.9366C4.21904 36.1096 3.92404 36.3056 3.63004 36.5076C3.16704 34.4926 2.91504 32.3996 2.91504 30.2476C2.91504 14.8086 15.476 2.24756 30.915 2.24756C46.354 2.24756 58.915 14.8086 58.915 30.2476C58.915 32.2496 58.7 34.2016 58.298 36.0856C56.079 34.5556 53.524 33.6876 50.915 33.5076V32.2476C50.915 31.6946 50.467 31.2476 49.915 31.2476C49.363 31.2476 48.915 31.6946 48.915 32.2476V33.4986C47.029 33.6236 45.157 34.1116 43.404 34.9696L42.781 33.8906C42.505 33.4116 41.893 33.2476 41.415 33.5246C40.936 33.8006 40.773 34.4126 41.049 34.8906L41.678 35.9796C40.042 37.0766 38.692 38.4526 37.649 40.0106L36.559 39.3806C36.078 39.1036 35.47 39.2676 35.193 39.7466C34.917 40.2256 35.081 40.8366 35.559 41.1126L36.638 41.7356C35.796 43.4586 35.294 45.3326 35.162 47.2456H33.915C33.363 47.2456 32.915 47.6926 32.915 48.2456C32.915 48.7986 33.363 49.2456 33.915 49.2456H35.174C35.219 49.9256 35.304 50.6056 35.445 51.2816C35.447 51.2956 35.442 51.3086 35.445 51.3226C35.447 51.3326 35.454 51.3416 35.457 51.3516C35.772 52.8226 36.312 54.2706 37.103 55.6426C37.426 56.2026 37.807 56.7446 38.219 57.2736C35.889 57.9056 33.442 58.2476 30.915 58.2476C28.501 58.2476 26.158 57.9406 23.921 57.3636ZM57.727 38.3096C57.615 38.6836 57.491 39.0526 57.365 39.4196C57.316 39.5606 57.273 39.7026 57.222 39.8426C57.1 40.1786 56.964 40.5076 56.83 40.8376C56.628 41.3286 56.417 41.8156 56.188 42.2926C56.172 42.3266 56.157 42.3616 56.14 42.3956C55.822 43.0526 55.474 43.6916 55.108 44.3186C53.356 42.0016 50.261 41.1336 47.565 42.1776L44.418 36.7266C46.159 35.8966 48.026 35.4616 49.895 35.4616C52.693 35.4616 55.475 36.3776 57.768 38.1636C57.754 38.2116 57.741 38.2606 57.727 38.3096ZM44.097 54.9416C43.771 55.1166 43.442 55.2866 43.109 55.4486C42.85 55.5736 42.586 55.6916 42.322 55.8086C42.148 55.8866 41.978 55.9696 41.802 56.0436C41.323 56.2456 40.837 56.4336 40.344 56.6086C40.32 56.6176 40.296 56.6246 40.272 56.6336C39.716 55.9996 39.235 55.3326 38.837 54.6436C38.322 53.7516 37.942 52.8216 37.662 51.8746L43.833 50.5626C43.955 50.8826 44.096 51.1986 44.273 51.5046C44.774 52.3716 45.478 53.0796 46.296 53.6276C45.654 54.0516 44.995 54.4536 44.317 54.8246C44.243 54.8656 44.17 54.9036 44.097 54.9416ZM42.678 37.7126L45.833 43.1776C44.174 44.5126 43.306 46.5526 43.415 48.6076L37.236 49.9206C36.627 45.2606 38.635 40.4866 42.678 37.7126ZM49.907 43.7306C51.47 43.7306 52.991 44.5406 53.826 45.9866C53.861 46.0466 53.894 46.1086 53.926 46.1736C53.821 46.3256 53.713 46.4746 53.605 46.6246C53.418 46.8846 53.225 47.1386 53.029 47.3916C52.737 47.7666 52.436 48.1346 52.126 48.4946C51.939 48.7126 51.751 48.9306 51.558 49.1426C51.319 49.4036 51.075 49.6586 50.826 49.9096C50.676 50.0616 50.521 50.2096 50.367 50.3586C49.942 50.7696 49.504 51.1676 49.054 51.5516C48.886 51.6946 48.719 51.8376 48.547 51.9776C48.387 52.1076 48.224 52.2326 48.062 52.3586C47.198 51.9716 46.478 51.3286 46.003 50.5056C44.758 48.3486 45.5 45.5806 47.656 44.3346C48.366 43.9256 49.142 43.7306 49.907 43.7306Z" fill="#C6D9FF"/>
<path d="M39.6068 31.5766C40.2298 29.2556 39.9098 26.8296 38.7088 24.7486C38.4808 24.3536 38.2178 23.9876 37.9398 23.6366L45.5238 16.0526C46.4358 17.0626 47.2608 18.1776 47.9678 19.4026C49.6998 22.4026 50.6058 25.8346 50.5878 29.3266C50.5848 29.8786 51.0308 30.3286 51.5828 30.3316C51.5838 30.3316 51.5858 30.3316 51.5878 30.3316C52.1378 30.3316 52.5848 29.8876 52.5878 29.3366C52.5958 27.7396 52.4188 26.1566 52.0838 24.6116L54.3568 24.0016C54.8908 23.8586 55.2068 23.3106 55.0638 22.7766C54.9208 22.2426 54.3718 21.9236 53.8388 22.0696L51.5698 22.6776C51.2008 21.5096 50.7328 20.3756 50.1698 19.2846L52.1998 18.1126C52.6788 17.8366 52.8418 17.2246 52.5658 16.7466C52.2898 16.2676 51.6768 16.1026 51.1998 16.3806L49.1548 17.5616C48.4848 16.5146 47.7488 15.5326 46.9358 14.6406L48.5928 12.9836C48.9838 12.5926 48.9838 11.9606 48.5928 11.5696C48.2018 11.1786 47.5698 11.1786 47.1788 11.5696L45.5258 13.2226C44.6128 12.3906 43.6318 11.6546 42.6048 10.9996L43.7808 8.96356C44.0568 8.48456 43.8938 7.87356 43.4148 7.59756C42.9358 7.32056 42.3238 7.48456 42.0488 7.96356L40.8698 10.0056C39.7788 9.44356 38.6448 8.98256 37.4788 8.61256L38.0918 6.32456C38.2348 5.79156 37.9178 5.24256 37.3848 5.09956C36.8478 4.95256 36.3028 5.27356 36.1598 5.80656L35.5468 8.09456C34.3538 7.83156 33.1408 7.66456 31.9148 7.60556V5.24756C31.9148 4.69456 31.4668 4.24756 30.9148 4.24756C30.3628 4.24756 29.9148 4.69456 29.9148 5.24756V7.59956C28.6978 7.65356 27.4808 7.80056 26.2738 8.06456L25.6688 5.80656C25.5258 5.27356 24.9808 4.95256 24.4438 5.09956C23.9108 5.24256 23.5938 5.79056 23.7368 6.32456L24.3428 8.58756C23.1918 8.95356 22.0648 9.43656 20.9598 10.0076L19.7798 7.96356C19.5038 7.48356 18.8928 7.31956 18.4148 7.59756C17.9358 7.87356 17.7728 8.48556 18.0488 8.96356L19.2208 10.9926C18.1808 11.6596 17.2088 12.4076 16.3108 13.2296L14.6508 11.5696C14.2598 11.1786 13.6278 11.1786 13.2368 11.5696C12.8458 11.9606 12.8458 12.5926 13.2368 12.9836L14.9008 14.6476C14.0758 15.5566 13.3308 16.5306 12.6728 17.5606L10.6298 16.3816C10.1498 16.1046 9.53983 16.2686 9.26383 16.7476C8.98783 17.2266 9.15183 17.8376 9.62983 18.1136L11.6748 19.2946C11.1148 20.3796 10.6448 21.5126 10.2718 22.6816L7.99083 22.0696C7.45983 21.9246 6.90883 22.2436 6.76583 22.7766C6.62283 23.3096 6.93883 23.8586 7.47283 24.0016L9.75383 24.6136C9.41583 26.1486 9.23283 27.7286 9.23783 29.3346C9.23883 29.8866 9.68683 30.3316 10.2378 30.3316C10.2388 30.3316 10.2398 30.3316 10.2408 30.3316C10.7928 30.3296 11.2398 29.8806 11.2378 29.3286C11.2228 24.3646 13.0898 19.6486 16.3138 16.0616L23.8838 23.6316C23.1188 24.5886 22.5478 25.6986 22.2208 26.9186C21.5978 29.2396 21.9178 31.6656 23.1188 33.7466C24.3208 35.8286 26.2618 37.3176 28.5828 37.9396C29.3578 38.1466 30.1448 38.2506 30.9268 38.2506C32.4858 38.2496 34.0248 37.8416 35.4118 37.0406C37.4958 35.8396 38.9848 33.8986 39.6068 31.5766ZM26.4148 21.4546C26.0198 21.6826 25.6548 21.9446 25.3038 22.2226L17.7248 14.6436C18.7418 13.7216 19.8568 12.8956 21.0698 12.1956C28.6428 7.82256 37.9378 9.07756 44.1068 14.6406L36.5298 22.2176C35.5728 21.4526 34.4628 20.8816 33.2438 20.5546C30.9208 19.9356 28.4978 20.2526 26.4148 21.4546ZM29.1028 36.0076C27.2968 35.5246 25.7878 34.3656 24.8528 32.7466C23.9178 31.1276 23.6698 29.2416 24.1538 27.4356C24.6378 25.6296 25.7958 24.1216 27.4148 23.1866C28.4938 22.5636 29.6898 22.2456 30.9028 22.2456C31.5108 22.2456 32.1228 22.3256 32.7258 22.4876C34.5318 22.9706 36.0408 24.1296 36.9758 25.7486C37.9108 27.3676 38.1588 29.2536 37.6748 31.0596C37.1908 32.8656 36.0328 34.3736 34.4138 35.3086C32.7948 36.2436 30.9108 36.4946 29.1028 36.0076Z" fill="url(#paint0_linear)"/>
</g>
<defs>
<linearGradient id="paint0_linear" x1="6.01728" y1="26.265" x2="55.8804" y2="25.2519" gradientUnits="userSpaceOnUse">
<stop stop-color="#5529CF"/>
<stop offset="1" stop-color="#9745FF"/>
</linearGradient>
<clipPath id="clip0">
<rect width="60" height="60" fill="white" transform="translate(0.915039 0.247559)"/>
</clipPath>
</defs>
</svg>
