<svg xmlns="http://www.w3.org/2000/svg" viewBox="0 0 345.84 390.5"><defs><style>.cls-1{fill:#f2f2f2;}.cls-2{fill:#ccc;stroke:#000;stroke-width:0.25px;}.cls-2,.cls-4{stroke-miterlimit:10;}.cls-3{fill:gray;}.cls-4{fill:#e6e7e8;stroke:#231f20;stroke-linecap:round;stroke-width:1.47px;}</style></defs><title>Ресурс 8</title><g id="Слой_2" data-name="Слой 2"><g id="Layer_1" data-name="Layer 1"><polygon class="cls-1" points="0.22 352 114.69 88.83 233.44 88.83 345.22 352 0.22 352"/><ellipse class="cls-2" cx="172.92" cy="352.44" rx="172.8" ry="37.94"/><path class="cls-3" d="M218,90.92c46.52-5.16,79.59-18.28,79.59-33.67S265,29,219.09,23.73C212.41,9.89,194.78,0,174.06,0S135.7,9.89,129,23.73C83.08,29,50.54,42,50.54,57.25s31.9,28,77.1,33.38l-.42.37,10,1-.14-.37c11.67,1.07,24.08,1.64,37,1.64,12,0,23.48-.51,34.43-1.43l-.25.16Z"/><path d="M84,354.21l-2.51,1.73h2l-2.44,1.71-2.46,1.72-2.44,1.71-2.43,1.71-2.46,1.73-2.44,1.71-2.43,1.71L64,369.65H59.07l2.54-1.71,2.54-1.71,2.54-1.71,2.56-1.73,2.54-1.71,2.54-1.71,2.56-1.72H70.65l-2.71,1.72-2.69,1.71-2.69,1.71-2.72,1.73-2.69,1.71-2.69,1.71-2.69,1.71H44.44l2.84-1.71,2.85-1.71L53,364.52l2.87-1.73,2.85-1.71,2.84-1.71,2.87-1.72,2.85-1.71h2l2.82-1.73H84Z"/><path d="M100.88,355.91l-2,1.72H101l-2,1.71-2,1.71-2,1.73-2,1.71-2,1.71H88.84l-2,1.71H84.47l-2.07,1.73H72.66l2.28-1.73H72.56l2.31-1.71H72.52l2.36-1.71,2.35-1.71,2.38-1.73L82,359.34l2.36-1.71h2.09l2.32-1.72h2L93,354.2h7.89l-2,1.71Zm-6.14,3.43,2.05-1.71H90.56l-2.21,1.71-2.2,1.71-2.22,1.73-2.21,1.71-2.2,1.71h7l2-1.71,2.05-1.71,2.07-1.73Z"/><path d="M120.92,349l-1.69,1.73h1.89l-1.63,1.73-1.63,1.72h-2l-1.69,1.74-1.68,1.73-1.68,1.72-1.7,1.74-1.68,1.73-1.68,1.73-1.68,1.72L102.4,368l-1.7,1.74H93.32L95.18,368,97,366.29l1.84-1.72,1.83-1.73,1.84-1.73,1.85-1.74,1.84-1.72,1.83-1.73,1.86-1.74h-2l1.89-1.72,1.89-1.73h1.88l1.84-1.73,1.85-1.74H119l1.78-1.72h3.47l-1.68,1.72Z"/><path d="M124.25,369.73h-4.93l1.3-1.74,1.29-1.73,1.29-1.72,1.3-1.75,1.29-1.72,1.3-1.74,1.29-1.73,1.3-1.74,1.29-1.72,1.28-1.73,1.3-1.74,1.29-1.73h1.85l1.25-1.74h1.77l1.19-1.72h5.19l-1,1.72h1.78l-1,1.74-1,1.73H143l1-1.73h-3.67l-1.14,1.73-1.14,1.74H142l-1,1.73-1,1.72h-4.09l-1.15,1.74-1.13,1.73-1.14,1.74-1.14,1.72-1.14,1.75L129,366.26,127.84,368l-1.14,1.74Z"/><path d="M159.11,355.91l-.54,1.72h2.09l-.48,1.71-.49,1.71-.49,1.73-.48,1.71-.49,1.71h-2.34l-.54,1.71H153l-.59,1.73h-9.73l.8-1.73h-2.38l.84-1.71h-2.35l.9-1.71.89-1.71.9-1.73.89-1.71.9-1.71h2.09l.85-1.72h2l.79-1.71h7.89l-.59,1.71Zm-3.2,3.43.59-1.71h-6.23l-.74,1.71-.74,1.71-.75,1.73-.74,1.71-.74,1.71h7l.59-1.71.58-1.71.6-1.73Z"/><path d="M176.57,354.2h3.94v15.44H165.91l.3-1.71h-2.37l.35-1.73h-2.32l.4-1.71.41-1.71.41-1.71.41-1.73.4-1.71.41-1.72.41-1.71h5.92l-.25,1.71-.26,1.72-.25,1.71-.26,1.73-.25,1.71-.25,1.71-.25,1.71h7l.1-1.71.1-1.71.1-1.71.11-1.73.1-1.71.1-1.72Z"/><path d="M197.39,354.21l.44,1.73h2l.49,1.71.49,1.72.49,1.71.49,1.71.49,1.73.49,1.71.48,1.71.49,1.71H198.9l-.38-1.71-.39-1.71-.39-1.71-.38-1.73-.39-1.71-.39-1.71-.38-1.72H190l.24,1.72.23,1.71.23,1.71.24,1.73.23,1.71.23,1.71.24,1.71h-7.33l-.08-1.71-.08-1.71-.08-1.71-.08-1.73-.08-1.71-.08-1.71-.08-1.72-.08-1.71h2l-.13-1.73h11.85Z"/><path d="M210.06,345.49h3.47l1,1.73,1,1.74,1,1.73,1,1.72,1,1.74,1,1.73,1,1.72,1,1.74,1,1.73,1,1.72,1,1.75,1,1.72,1,1.73,1,1.72H212.67L212,368h-2.4l-.63-1.73H206.6l-.58-1.72-.58-1.75-.57-1.72-.58-1.73-.58-1.74h2.11l-.63-1.72h2l-.68-1.73h8l-.9-1.74-.89-1.72-.88-1.73-.9-1.74Zm7.11,13.85-.89-1.74H210l.74,1.74.73,1.73.73,1.72.74,1.75.73,1.72h7.06l-.88-1.72-.9-1.75-.88-1.72Z"/><path d="M236.43,348h3.22l1.53,1.54,1.52,1.55,1.52,1.54,1.52,1.55,1.53,1.56,1.52,1.54,1.53,1.54,1.52,1.55,1.52,1.54,1.53,1.56,1.52,1.54,1.53,1.55,1.52,1.54,1.53,1.56h-4.38l-1.45-1.56-1.44-1.54L252.28,365l-1.44-1.54-1.45-1.56L248,360.33h-7.78l-1.28-1.55H237l-1.23-1.54H233.9l-1.19-1.54-1.2-1.56-1.19-1.55-1.19-1.54-1.19-1.55L226.75,348h4.84l1.31,1.54,1.31,1.55,1.32,1.54,1.31,1.55,1.33,1.56h5.47l-1.45-1.56-1.44-1.55-1.44-1.54-1.44-1.55Z"/><path d="M255.48,349.49l1.88,1.54h1.7l1.92,1.55,1.92,1.54,1.94,1.56,1.92,1.54,1.94,1.56,1.92,1.55,1.92,1.54,1.94,1.56L276.4,365l1.94,1.56h-2.1l1.87,1.55H276l1.83,1.54H269l-1.68-1.54h-2.14l-1.63-1.55h-2.13L259.81,365l-1.59-1.54-1.6-1.56L255,360.33l-1.59-1.55-1.6-1.56-1.59-1.54-1.61-1.56-1.59-1.54L245.47,351h1.71l-1.64-1.54h1.65l-1.68-1.56H252l1.85,1.56Zm3.87,4.63-1.84-1.54h-5.24l1.72,1.54,1.73,1.56,1.71,1.54,1.73,1.56,1.71,1.55,1.72,1.54,1.73,1.56L266,365h6.24l-1.84-1.54-1.85-1.56-1.84-1.54-1.84-1.55L263,357.22l-1.84-1.54Z"/><path d="M267.51,348h3.22l2.32,1.54,2.32,1.55,2.32,1.54,2.32,1.55,2.34,1.56,2.32,1.54,2.32,1.54,2.32,1.55,2.32,1.54,2.34,1.56,2.32,1.54,2.32,1.55,2.32,1.54,2.34,1.56h-4.38l-2.26-1.56-2.24-1.54L292.16,365l-2.24-1.54-2.26-1.56-2.23-1.54h-7.79l-2.07-1.55h-1.9l-2-1.54h-1.86l-2-1.54-2-1.56-2-1.55-2-1.54-2-1.55-2-1.54h4.84l2.11,1.54,2.11,1.55,2.11,1.54,2.11,1.55,2.14,1.56h5.47l-2.26-1.56-2.24-1.55L272,351.05l-2.23-1.55Z"/><ellipse class="cls-4" cx="172.72" cy="28" rx="40" ry="18.5"/></g></g></svg>