<svg width="62" height="63" viewBox="0 0 62 63" fill="none" xmlns="http://www.w3.org/2000/svg">
<path d="M62 38.85H59.9333V32.55C59.9298 29.6517 57.6189 27.3036 54.7667 27.3H52.7V0H25.8333V27.3H23.7667C20.9144 27.3036 18.6035 29.6517 18.6 32.55V37.8H3.1C1.38804 37.8 0 39.2104 0 40.95V59.85C0 61.5896 1.38804 63 3.1 63H54.7667C57.6189 62.9964 59.9298 60.6483 59.9333 57.75V49.35H62V38.85ZM27.9 2.1H50.6333V31.5H49.6V7.28489L48.9057 7.04033C47.441 6.51584 46.2901 5.34434 45.7765 3.85547L45.5307 3.15H33.0026L32.7619 3.85547C32.2473 5.34536 31.0938 6.51738 29.6276 7.04033L28.9333 7.28489V31.5H27.9V2.1ZM38.2333 29.4V31.5H31V8.73582C32.5046 8.00984 33.716 6.77886 34.4305 5.25H44.1028C44.8173 6.77886 46.0287 8.00984 47.5333 8.73582V31.5H40.3V29.4H38.2333ZM2.06667 40.95C2.06667 40.3701 2.52935 39.9 3.1 39.9H34.1C34.6707 39.9 35.1333 40.3701 35.1333 40.95V52.5H2.06667V40.95ZM35.1333 56.7H2.06667V54.6H35.1333V56.7ZM3.1 60.9C2.52935 60.9 2.06667 60.4299 2.06667 59.85V58.8H35.1333V59.85C35.1333 60.4299 34.6707 60.9 34.1 60.9H3.1ZM57.8667 57.75C57.8667 59.4896 56.4786 60.9 54.7667 60.9H37.0098C37.1324 60.5637 37.1965 60.2084 37.2 59.85V40.95C37.2 39.2104 35.812 37.8 34.1 37.8H20.6667V32.55C20.6667 30.8104 22.0547 29.4 23.7667 29.4H25.8333V31.5H23.7667V33.6H54.7667V31.5H52.7V29.4H54.7667C56.4786 29.4 57.8667 30.8104 57.8667 32.55V38.85H52.7C49.8467 38.85 47.5333 41.2007 47.5333 44.1C47.5333 46.9993 49.8467 49.35 52.7 49.35H57.8667V57.75ZM59.9333 47.25H52.7C50.988 47.25 49.6 45.8396 49.6 44.1C49.6 42.3604 50.988 40.95 52.7 40.95H59.9333V47.25Z" fill="#C6D9FF"/>
<path d="M45.4664 21.0001C45.4664 17.5209 42.6903 14.7001 39.2664 14.7001C35.8425 14.7001 33.0664 17.5209 33.0664 21.0001C33.0664 24.4792 35.8425 27.3001 39.2664 27.3001C42.6893 27.2965 45.4629 24.4782 45.4664 21.0001ZM39.2664 25.2001C36.9838 25.2001 35.1331 23.3195 35.1331 21.0001C35.1331 18.6806 36.9838 16.8001 39.2664 16.8001C41.549 16.8001 43.3997 18.6806 43.3997 21.0001C43.3997 23.3195 41.549 25.2001 39.2664 25.2001Z" fill="#C6D9FF"/>
<path d="M54.7671 44.1C54.7671 45.2597 53.8418 46.2 52.7005 46.2C51.5591 46.2 50.6338 45.2597 50.6338 44.1C50.6338 42.9403 51.5591 42 52.7005 42C53.8418 42 54.7671 42.9403 54.7671 44.1Z" fill="#C6D9FF"/>
<path d="M9.29972 33.6C12.101 33.5995 14.7535 32.3162 16.5189 30.106C18.2849 27.8958 18.9756 24.9944 18.4004 22.2084C22.8895 20.1459 25.0409 14.9041 23.3244 10.2114C21.6074 5.51867 16.6087 2.97775 11.8836 4.39535C7.15838 5.81347 4.32024 10.7061 5.38738 15.5936C1.43417 17.4599 -0.711707 21.8675 0.228283 26.1931C1.16777 30.5187 4.94034 33.5985 9.29972 33.6ZM7.23305 13.65C7.22851 10.0314 9.81639 6.94755 13.3342 6.38102C16.8514 5.81449 20.2511 7.93398 21.348 11.3767C22.445 14.8195 20.9126 18.5611 17.7359 20.1966C17.4024 19.4578 16.9766 18.7662 16.469 18.1376C17.4619 17.2866 17.8252 15.8951 17.3772 14.6559C16.9291 13.4167 15.7656 12.5949 14.4664 12.6C13.8957 12.6 13.4331 12.1299 13.4331 11.55C13.4331 10.9702 13.8957 10.5 14.4664 10.5C15.037 10.5 15.4997 10.9702 15.4997 11.55H17.5664C17.5608 10.2201 16.7339 9.03679 15.4997 8.5933V7.35002H13.4331V8.5933C12.0107 9.10241 11.157 10.5795 11.4123 12.0899C11.6681 13.6003 12.9583 14.7031 14.4664 14.7C14.9361 14.7036 15.3448 15.0287 15.4604 15.4911C15.5764 15.9536 15.3706 16.4375 14.9593 16.6688C12.8029 14.9666 10.0152 14.3227 7.34658 14.9102C7.27342 14.4939 7.23558 14.0725 7.23305 13.65ZM9.29972 16.8C13.2948 16.8 16.5331 20.0905 16.5331 24.15C16.5331 28.2095 13.2948 31.5 9.29972 31.5C5.30464 31.5 2.06639 28.2095 2.06639 24.15C2.07093 20.0926 5.30665 16.8046 9.29972 16.8Z" fill="url(#paint0_linear)"/>
<path d="M9.29983 27.3C8.72917 27.3 8.26649 26.8299 8.26649 26.25H6.19983C6.20538 27.5799 7.03235 28.7632 8.26649 29.2067V30.45H10.3332V29.2067C11.7555 28.6976 12.6092 27.2205 12.3539 25.7101C12.0981 24.1997 10.8079 23.0969 9.29983 23.1C8.72917 23.1 8.26649 22.6299 8.26649 22.05C8.26649 21.4702 8.72917 21 9.29983 21C9.87048 21 10.3332 21.4702 10.3332 22.05H12.3998C12.3943 20.7201 11.5673 19.5368 10.3332 19.0933V17.85H8.26649V19.0933C6.84415 19.6024 5.99044 21.0795 6.24574 22.5899C6.50155 24.1003 7.79171 25.2031 9.29983 25.2C9.87048 25.2 10.3332 25.6702 10.3332 26.25C10.3332 26.8299 9.87048 27.3 9.29983 27.3Z" fill="url(#paint1_linear)"/>
<path d="M38.2334 8.40002H40.3001V12.6H38.2334V8.40002Z" fill="#C6D9FF"/>
<defs>
<linearGradient id="paint0_linear" x1="-0.344183" y1="23.1677" x2="24.3071" y2="22.8833" gradientUnits="userSpaceOnUse">
<stop stop-color="#5529CF"/>
<stop offset="1" stop-color="#9745FF"/>
</linearGradient>
<linearGradient id="paint1_linear" x1="-0.344183" y1="23.1677" x2="24.3071" y2="22.8833" gradientUnits="userSpaceOnUse">
<stop stop-color="#5529CF"/>
<stop offset="1" stop-color="#9745FF"/>
</linearGradient>
</defs>
</svg>
