<svg width="112" height="103" viewBox="0 0 112 103" fill="none" xmlns="http://www.w3.org/2000/svg">
<path fill-rule="evenodd" clip-rule="evenodd" d="M89.0448 78.0833C92.3833 78.0833 95.0896 75.3784 95.0896 72.0417C95.0896 68.7049 92.3833 66 89.0448 66C85.7064 66 83 68.7049 83 72.0417C83 75.3784 85.7064 78.0833 89.0448 78.0833Z" fill="#E20D3F"/>
<path d="M28.392 39H23.616L21.408 33.312C21.152 32.672 20.552 32.352 19.608 32.352H17.976V39H13.536V21.912H21.48C23.544 21.912 25.096 22.36 26.136 23.256C27.176 24.136 27.696 25.4 27.696 27.048C27.696 28.2 27.384 29.2 26.76 30.048C26.152 30.88 25.288 31.472 24.168 31.824C24.648 31.92 25.08 32.144 25.464 32.496C25.848 32.848 26.152 33.32 26.376 33.912L28.392 39ZM20.76 28.992C21.72 28.992 22.416 28.848 22.848 28.56C23.28 28.256 23.496 27.792 23.496 27.168C23.496 26.512 23.28 26.04 22.848 25.752C22.432 25.464 21.736 25.32 20.76 25.32H17.928V28.992H20.76ZM55.8556 39.216C54.0796 39.216 52.5276 38.856 51.1996 38.136C49.8876 37.4 48.8716 36.368 48.1516 35.04C47.4476 33.712 47.0956 32.176 47.0956 30.432C47.0956 28.704 47.4476 27.184 48.1516 25.872C48.8716 24.544 49.8876 23.52 51.1996 22.8C52.5276 22.064 54.0796 21.696 55.8556 21.696C56.9756 21.696 58.0556 21.864 59.0956 22.2C60.1516 22.536 60.9996 22.992 61.6396 23.568L60.2716 26.76C58.8796 25.752 57.4396 25.248 55.9516 25.248C54.5756 25.248 53.5196 25.688 52.7836 26.568C52.0476 27.432 51.6796 28.72 51.6796 30.432C51.6796 32.16 52.0476 33.464 52.7836 34.344C53.5196 35.224 54.5756 35.664 55.9516 35.664C57.4396 35.664 58.8796 35.16 60.2716 34.152L61.6396 37.344C60.9996 37.92 60.1516 38.376 59.0956 38.712C58.0556 39.048 56.9756 39.216 55.8556 39.216ZM25.056 69.472H17.472L15.96 73H11.448L19.44 55.912H22.992L31.008 73H26.568L25.056 69.472ZM23.592 66.088L21.264 60.688L18.936 66.088H23.592ZM60.5013 69.472H52.9173L51.4053 73H46.8933L54.8853 55.912H58.4373L66.4533 73H62.0133L60.5013 69.472ZM59.0373 66.088L56.7093 60.688L54.3813 66.088H59.0373Z" fill="white"/>
</svg>
