<svg width="212" height="61" viewBox="0 0 212 61" fill="none" xmlns="http://www.w3.org/2000/svg">
<rect width="61" height="61" rx="10" fill="#E20D3F"/>
<path d="M24.294 25H20.712L19.056 20.734C18.864 20.254 18.414 20.014 17.706 20.014H16.482V25H13.152V12.184H19.11C20.658 12.184 21.822 12.52 22.602 13.192C23.382 13.852 23.772 14.8 23.772 16.036C23.772 16.9 23.538 17.65 23.07 18.286C22.614 18.91 21.966 19.354 21.126 19.618C21.486 19.69 21.81 19.858 22.098 20.122C22.386 20.386 22.614 20.74 22.782 21.184L24.294 25ZM18.57 17.494C19.29 17.494 19.812 17.386 20.136 17.17C20.46 16.942 20.622 16.594 20.622 16.126C20.622 15.634 20.46 15.28 20.136 15.064C19.824 14.848 19.302 14.74 18.57 14.74H16.446V17.494H18.57ZM42.1417 25.162C40.8097 25.162 39.6457 24.892 38.6497 24.352C37.6657 23.8 36.9037 23.026 36.3637 22.03C35.8357 21.034 35.5717 19.882 35.5717 18.574C35.5717 17.278 35.8357 16.138 36.3637 15.154C36.9037 14.158 37.6657 13.39 38.6497 12.85C39.6457 12.298 40.8097 12.022 42.1417 12.022C42.9817 12.022 43.7917 12.148 44.5717 12.4C45.3637 12.652 45.9997 12.994 46.4797 13.426L45.4537 15.82C44.4097 15.064 43.3297 14.686 42.2137 14.686C41.1817 14.686 40.3897 15.016 39.8377 15.676C39.2857 16.324 39.0097 17.29 39.0097 18.574C39.0097 19.87 39.2857 20.848 39.8377 21.508C40.3897 22.168 41.1817 22.498 42.2137 22.498C43.3297 22.498 44.4097 22.12 45.4537 21.364L46.4797 23.758C45.9997 24.19 45.3637 24.532 44.5717 24.784C43.7917 25.036 42.9817 25.162 42.1417 25.162ZM21.792 46.354H16.104L14.97 49H11.586L17.58 36.184H20.244L26.256 49H22.926L21.792 46.354ZM20.694 43.816L18.948 39.766L17.202 43.816H20.694ZM45.626 46.354H39.938L38.804 49H35.42L41.414 36.184H44.078L50.09 49H46.76L45.626 46.354ZM44.528 43.816L42.782 39.766L41.036 43.816H44.528Z" fill="white"/>
<path d="M90.566 31H88.136L85.472 26.518H83.384V31H81.278V18.994H86.552C87.728 18.994 88.676 19.342 89.396 20.038C90.116 20.734 90.476 21.64 90.476 22.756C90.476 23.764 90.2 24.574 89.648 25.186C89.096 25.786 88.424 26.152 87.632 26.284L90.566 31ZM86.264 24.664C86.864 24.664 87.356 24.49 87.74 24.142C88.124 23.794 88.316 23.332 88.316 22.756C88.316 22.18 88.124 21.718 87.74 21.37C87.356 21.022 86.864 20.848 86.264 20.848H83.384V24.664H86.264ZM95.9958 31.216C94.6758 31.216 93.5838 30.796 92.7198 29.956C91.8678 29.104 91.4418 28 91.4418 26.644C91.4418 25.372 91.8558 24.298 92.6838 23.422C93.5238 22.534 94.5798 22.09 95.8518 22.09C97.1358 22.09 98.1678 22.534 98.9478 23.422C99.7398 24.31 100.136 25.444 100.136 26.824V27.274H93.4218C93.4938 27.958 93.7758 28.528 94.2678 28.984C94.7598 29.44 95.4018 29.668 96.1938 29.668C96.6378 29.668 97.0818 29.584 97.5258 29.416C97.9818 29.248 98.3598 29.014 98.6598 28.714L99.5238 29.956C98.6478 30.796 97.4718 31.216 95.9958 31.216ZM98.2998 25.942C98.2758 25.342 98.0538 24.808 97.6338 24.34C97.2258 23.872 96.6318 23.638 95.8518 23.638C95.1078 23.638 94.5258 23.872 94.1058 24.34C93.6858 24.796 93.4518 25.33 93.4038 25.942H98.2998ZM110.011 31H108.121V29.812C107.401 30.748 106.471 31.216 105.331 31.216C104.191 31.216 103.261 30.808 102.541 29.992C101.821 29.176 101.461 28.066 101.461 26.662C101.461 25.27 101.821 24.16 102.541 23.332C103.261 22.504 104.191 22.09 105.331 22.09C106.471 22.09 107.401 22.564 108.121 23.512V18.994H110.011V31ZM105.871 29.542C106.315 29.542 106.747 29.434 107.167 29.218C107.587 29.002 107.905 28.726 108.121 28.39V24.934C107.905 24.598 107.587 24.322 107.167 24.106C106.747 23.878 106.315 23.764 105.871 23.764C105.127 23.764 104.533 24.034 104.089 24.574C103.645 25.114 103.423 25.81 103.423 26.662C103.423 27.514 103.645 28.21 104.089 28.75C104.533 29.278 105.127 29.542 105.871 29.542ZM122.897 31.216C121.097 31.216 119.597 30.64 118.397 29.488C117.197 28.324 116.597 26.83 116.597 25.006C116.597 23.182 117.197 21.694 118.397 20.542C119.597 19.378 121.097 18.796 122.897 18.796C124.985 18.796 126.593 19.696 127.721 21.496L125.921 22.414C125.621 21.898 125.195 21.478 124.643 21.154C124.103 20.83 123.521 20.668 122.897 20.668C121.709 20.668 120.719 21.076 119.927 21.892C119.147 22.708 118.757 23.746 118.757 25.006C118.757 26.266 119.147 27.304 119.927 28.12C120.719 28.936 121.709 29.344 122.897 29.344C123.533 29.344 124.121 29.182 124.661 28.858C125.201 28.534 125.621 28.114 125.921 27.598L127.721 28.516C126.569 30.316 124.961 31.216 122.897 31.216ZM136.553 31H134.663V30.064C133.991 30.832 133.055 31.216 131.855 31.216C131.063 31.216 130.361 30.964 129.749 30.46C129.137 29.944 128.831 29.236 128.831 28.336C128.831 27.412 129.131 26.71 129.731 26.23C130.343 25.75 131.051 25.51 131.855 25.51C133.091 25.51 134.027 25.882 134.663 26.626V25.33C134.663 24.826 134.477 24.43 134.105 24.142C133.733 23.854 133.241 23.71 132.629 23.71C131.657 23.71 130.799 24.076 130.055 24.808L129.281 23.494C130.265 22.558 131.483 22.09 132.935 22.09C134.003 22.09 134.873 22.342 135.545 22.846C136.217 23.35 136.553 24.148 136.553 25.24V31ZM132.593 29.92C133.541 29.92 134.231 29.62 134.663 29.02V27.706C134.231 27.106 133.541 26.806 132.593 26.806C132.053 26.806 131.609 26.95 131.261 27.238C130.913 27.526 130.739 27.904 130.739 28.372C130.739 28.84 130.913 29.218 131.261 29.506C131.609 29.782 132.053 29.92 132.593 29.92ZM140.893 31H139.003V22.306H140.893V23.584C141.229 23.152 141.649 22.798 142.153 22.522C142.657 22.246 143.179 22.108 143.719 22.108V23.98C143.551 23.944 143.353 23.926 143.125 23.926C142.729 23.926 142.303 24.046 141.847 24.286C141.403 24.514 141.085 24.778 140.893 25.078V31ZM149.924 31.216C148.772 31.216 147.842 30.742 147.134 29.794V34.312H145.244V22.306H147.134V23.494C147.83 22.558 148.76 22.09 149.924 22.09C151.064 22.09 151.988 22.498 152.696 23.314C153.416 24.13 153.776 25.24 153.776 26.644C153.776 28.048 153.416 29.164 152.696 29.992C151.988 30.808 151.064 31.216 149.924 31.216ZM149.366 29.542C150.11 29.542 150.704 29.272 151.148 28.732C151.592 28.192 151.814 27.496 151.814 26.644C151.814 25.792 151.592 25.102 151.148 24.574C150.704 24.034 150.11 23.764 149.366 23.764C148.934 23.764 148.508 23.878 148.088 24.106C147.668 24.334 147.35 24.61 147.134 24.934V28.372C147.35 28.696 147.668 28.972 148.088 29.2C148.508 29.428 148.934 29.542 149.366 29.542ZM159.664 31.216C158.344 31.216 157.252 30.796 156.388 29.956C155.536 29.104 155.11 28 155.11 26.644C155.11 25.372 155.524 24.298 156.352 23.422C157.192 22.534 158.248 22.09 159.52 22.09C160.804 22.09 161.836 22.534 162.616 23.422C163.408 24.31 163.804 25.444 163.804 26.824V27.274H157.09C157.162 27.958 157.444 28.528 157.936 28.984C158.428 29.44 159.07 29.668 159.862 29.668C160.306 29.668 160.75 29.584 161.194 29.416C161.65 29.248 162.028 29.014 162.328 28.714L163.192 29.956C162.316 30.796 161.14 31.216 159.664 31.216ZM161.968 25.942C161.944 25.342 161.722 24.808 161.302 24.34C160.894 23.872 160.3 23.638 159.52 23.638C158.776 23.638 158.194 23.872 157.774 24.34C157.354 24.796 157.12 25.33 157.072 25.942H161.968ZM168.279 31.216C167.547 31.216 166.989 31.024 166.605 30.64C166.233 30.256 166.047 29.704 166.047 28.984V23.962H164.607V22.306H166.047V19.93H167.937V22.306H169.701V23.962H167.937V28.516C167.937 28.828 168.009 29.08 168.153 29.272C168.297 29.452 168.501 29.542 168.765 29.542C169.149 29.542 169.431 29.44 169.611 29.236L170.061 30.658C169.665 31.03 169.071 31.216 168.279 31.216ZM92.078 52H89.684L88.802 49.696H83.294L82.412 52H80.018L84.734 39.994H87.362L92.078 52ZM88.208 47.842L86.048 42.118L83.888 47.842H88.208ZM97.2953 52.216C95.9753 52.216 94.8953 51.79 94.0553 50.938C93.2153 50.074 92.7953 48.976 92.7953 47.644C92.7953 46.324 93.2153 45.238 94.0553 44.386C94.8953 43.522 95.9753 43.09 97.2953 43.09C98.7473 43.09 99.8573 43.606 100.625 44.638L99.3833 45.79C98.9033 45.106 98.2373 44.764 97.3853 44.764C96.5933 44.764 95.9573 45.034 95.4773 45.574C94.9973 46.102 94.7573 46.792 94.7573 47.644C94.7573 48.496 94.9973 49.192 95.4773 49.732C95.9573 50.272 96.5933 50.542 97.3853 50.542C98.2133 50.542 98.8793 50.2 99.3833 49.516L100.625 50.668C99.8573 51.7 98.7473 52.216 97.2953 52.216ZM106.243 52.216C104.923 52.216 103.843 51.79 103.003 50.938C102.163 50.074 101.743 48.976 101.743 47.644C101.743 46.324 102.163 45.238 103.003 44.386C103.843 43.522 104.923 43.09 106.243 43.09C107.695 43.09 108.805 43.606 109.573 44.638L108.331 45.79C107.851 45.106 107.185 44.764 106.333 44.764C105.541 44.764 104.905 45.034 104.425 45.574C103.945 46.102 103.705 46.792 103.705 47.644C103.705 48.496 103.945 49.192 104.425 49.732C104.905 50.272 105.541 50.542 106.333 50.542C107.161 50.542 107.827 50.2 108.331 49.516L109.573 50.668C108.805 51.7 107.695 52.216 106.243 52.216ZM115.154 52.216C113.81 52.216 112.73 51.778 111.914 50.902C111.098 50.014 110.69 48.928 110.69 47.644C110.69 46.36 111.098 45.28 111.914 44.404C112.73 43.528 113.81 43.09 115.154 43.09C116.51 43.09 117.596 43.528 118.412 44.404C119.228 45.28 119.636 46.36 119.636 47.644C119.636 48.94 119.228 50.026 118.412 50.902C117.596 51.778 116.51 52.216 115.154 52.216ZM115.154 50.542C115.934 50.542 116.546 50.266 116.99 49.714C117.446 49.15 117.674 48.46 117.674 47.644C117.674 46.84 117.446 46.162 116.99 45.61C116.546 45.046 115.934 44.764 115.154 44.764C114.386 44.764 113.774 45.046 113.318 45.61C112.874 46.162 112.652 46.84 112.652 47.644C112.652 48.46 112.874 49.15 113.318 49.714C113.774 50.266 114.386 50.542 115.154 50.542ZM129.306 52H127.416V50.848C126.6 51.76 125.574 52.216 124.338 52.216C122.478 52.216 121.548 51.298 121.548 49.462V43.306H123.438V48.778C123.438 49.414 123.588 49.87 123.888 50.146C124.188 50.41 124.62 50.542 125.184 50.542C125.64 50.542 126.066 50.434 126.462 50.218C126.858 50.002 127.176 49.732 127.416 49.408V43.306H129.306V52ZM139.519 52H137.629V46.564C137.629 45.364 137.047 44.764 135.883 44.764C135.427 44.764 135.001 44.878 134.605 45.106C134.209 45.334 133.891 45.61 133.651 45.934V52H131.761V43.306H133.651V44.494C133.975 44.11 134.407 43.78 134.947 43.504C135.487 43.228 136.075 43.09 136.711 43.09C137.635 43.09 138.331 43.33 138.799 43.81C139.279 44.29 139.519 44.98 139.519 45.88V52ZM144.584 52.216C143.852 52.216 143.294 52.024 142.91 51.64C142.538 51.256 142.352 50.704 142.352 49.984V44.962H140.912V43.306H142.352V40.93H144.242V43.306H146.006V44.962H144.242V49.516C144.242 49.828 144.314 50.08 144.458 50.272C144.602 50.452 144.806 50.542 145.07 50.542C145.454 50.542 145.736 50.44 145.916 50.236L146.366 51.658C145.97 52.03 145.376 52.216 144.584 52.216ZM163.199 52H160.805L159.923 49.696H154.415L153.533 52H151.139L155.855 39.994H158.483L163.199 52ZM159.329 47.842L157.169 42.118L155.009 47.842H159.329ZM167.984 55.528C166.508 55.528 165.296 55.096 164.348 54.232L165.23 52.864C165.878 53.608 166.796 53.98 167.984 53.98C168.704 53.98 169.31 53.788 169.802 53.404C170.306 53.032 170.558 52.438 170.558 51.622V50.578C169.814 51.538 168.884 52.018 167.768 52.018C166.628 52.018 165.698 51.622 164.978 50.83C164.27 50.038 163.916 48.946 163.916 47.554C163.916 46.174 164.27 45.088 164.978 44.296C165.698 43.492 166.628 43.09 167.768 43.09C168.908 43.09 169.838 43.564 170.558 44.512V43.306H172.448V51.55C172.448 52.294 172.316 52.936 172.052 53.476C171.8 54.028 171.452 54.442 171.008 54.718C170.564 55.006 170.09 55.21 169.586 55.33C169.094 55.462 168.56 55.528 167.984 55.528ZM168.326 50.344C168.758 50.344 169.184 50.23 169.604 50.002C170.024 49.774 170.342 49.498 170.558 49.174V45.934C170.342 45.61 170.024 45.334 169.604 45.106C169.184 44.878 168.758 44.764 168.326 44.764C167.582 44.764 166.988 45.022 166.544 45.538C166.1 46.042 165.878 46.714 165.878 47.554C165.878 48.394 166.1 49.072 166.544 49.588C166.988 50.092 167.582 50.344 168.326 50.344ZM178.912 52.216C177.592 52.216 176.5 51.796 175.636 50.956C174.784 50.104 174.358 49 174.358 47.644C174.358 46.372 174.772 45.298 175.6 44.422C176.44 43.534 177.496 43.09 178.768 43.09C180.052 43.09 181.084 43.534 181.864 44.422C182.656 45.31 183.052 46.444 183.052 47.824V48.274H176.338C176.41 48.958 176.692 49.528 177.184 49.984C177.676 50.44 178.318 50.668 179.11 50.668C179.554 50.668 179.998 50.584 180.442 50.416C180.898 50.248 181.276 50.014 181.576 49.714L182.44 50.956C181.564 51.796 180.388 52.216 178.912 52.216ZM181.216 46.942C181.192 46.342 180.97 45.808 180.55 45.34C180.142 44.872 179.548 44.638 178.768 44.638C178.024 44.638 177.442 44.872 177.022 45.34C176.602 45.796 176.368 46.33 176.32 46.942H181.216ZM192.675 52H190.785V46.564C190.785 45.364 190.203 44.764 189.039 44.764C188.583 44.764 188.157 44.878 187.761 45.106C187.365 45.334 187.047 45.61 186.807 45.934V52H184.917V43.306H186.807V44.494C187.131 44.11 187.563 43.78 188.103 43.504C188.643 43.228 189.231 43.09 189.867 43.09C190.791 43.09 191.487 43.33 191.955 43.81C192.435 44.29 192.675 44.98 192.675 45.88V52ZM199.09 52.216C197.77 52.216 196.69 51.79 195.85 50.938C195.01 50.074 194.59 48.976 194.59 47.644C194.59 46.324 195.01 45.238 195.85 44.386C196.69 43.522 197.77 43.09 199.09 43.09C200.542 43.09 201.652 43.606 202.42 44.638L201.178 45.79C200.698 45.106 200.032 44.764 199.18 44.764C198.388 44.764 197.752 45.034 197.272 45.574C196.792 46.102 196.552 46.792 196.552 47.644C196.552 48.496 196.792 49.192 197.272 49.732C197.752 50.272 198.388 50.542 199.18 50.542C200.008 50.542 200.674 50.2 201.178 49.516L202.42 50.668C201.652 51.7 200.542 52.216 199.09 52.216ZM203.7 55.402L203.988 53.71C204.204 53.806 204.444 53.854 204.708 53.854C205.32 53.854 205.734 53.602 205.95 53.098L206.382 52.108L202.818 43.306H204.834L207.372 49.822L209.91 43.306H211.944L207.75 53.566C207.234 54.85 206.238 55.504 204.762 55.528C204.366 55.528 204.012 55.486 203.7 55.402Z" fill="white"/>
</svg>
