<svg width="118" height="257" viewBox="0 0 118 257" fill="none" xmlns="http://www.w3.org/2000/svg"><path fill-rule="evenodd" clip-rule="evenodd" d="M106.375 20.542a6.044 6.044 0 0 0 6.045-6.042 6.044 6.044 0 0 0-6.045-6.041 6.043 6.043 0 0 0-6.045 6.041 6.043 6.043 0 0 0 6.045 6.042z" fill="#E20D3F"/><path d="M2.827 157h1.728v-5.256c0-1.632.288-2.304.576-2.688.264-.336.696-.624 1.392-.624.264 0 .624.072 1.008.336l.816-1.56c-.432-.216-1.008-.408-1.536-.408-1.344 0-2.088 1.056-2.256 1.32v-1.08H2.827V157zm13.907-3.336c-.216.48-.576.984-1.032 1.368-.576.48-1.224.72-2.04.72-1.728 0-3.144-1.32-3.168-3.384h7.752c.048-1.32-.312-2.856-.936-3.744-.6-.864-1.824-1.824-3.768-1.824-3 0-4.824 2.304-4.824 5.28 0 3.696 2.52 5.208 4.92 5.208 1.272 0 2.4-.408 3.312-1.224a5.959 5.959 0 0 0 1.224-1.608l-1.44-.792zm-6.12-2.736c.264-1.488 1.464-2.592 2.928-2.592s2.64 1.032 2.928 2.592h-5.856zm17.915-2.472c-.456-.6-1.488-1.656-3.408-1.656-2.544 0-4.848 1.776-4.848 5.208 0 3.504 2.328 5.28 4.848 5.28 1.752 0 2.832-.936 3.408-1.68V157h1.728v-17.496H28.53v8.952zm-3.216-.12c1.536 0 3.312 1.128 3.312 3.696 0 1.968-1.2 3.72-3.312 3.72-2.064 0-3.264-1.608-3.264-3.744 0-2.424 1.56-3.672 3.264-3.672zM10.627 177.76c-.48-.336-1.512-.96-3.096-.96-3.072 0-5.328 2.232-5.328 5.28 0 3 2.232 5.208 5.328 5.208a5.32 5.32 0 0 0 3.168-1.032v-2.064c-.912 1.104-2.184 1.56-3.216 1.56-1.776 0-3.504-1.272-3.504-3.696 0-2.424 1.68-3.72 3.528-3.72.888 0 2.208.336 3.12 1.488v-2.064zm10.355.696c-.456-.6-1.488-1.656-3.408-1.656-2.544 0-4.848 1.776-4.848 5.208 0 3.504 2.328 5.28 4.848 5.28 1.752 0 2.832-.936 3.408-1.68V187h1.728v-9.96h-1.728v1.416zm-3.216-.12c1.536 0 3.312 1.128 3.312 3.696 0 1.968-1.2 3.72-3.312 3.72-2.064 0-3.264-1.608-3.264-3.744 0-2.424 1.56-3.672 3.264-3.672zM25.983 187h1.728v-5.256c0-1.632.288-2.304.576-2.688.264-.336.696-.624 1.392-.624.264 0 .624.072 1.008.336l.816-1.56c-.432-.216-1.008-.408-1.536-.408-1.344 0-2.088 1.056-2.256 1.32v-1.08h-1.728V187zm8.83-1.392c.744.96 1.872 1.68 3.48 1.68 3.024 0 4.776-2.472 4.776-5.208 0-2.688-1.728-5.28-4.848-5.28-.72 0-2.232.168-3.408 1.632v-1.392h-1.728v15.48h1.728v-6.912zm3.24.144c-2.04 0-3.336-1.656-3.336-3.696 0-2.4 1.704-3.72 3.312-3.72 1.608 0 3.264 1.296 3.264 3.744 0 1.992-1.224 3.672-3.24 3.672zm15.056-2.088c-.216.48-.576.984-1.032 1.368-.576.48-1.224.72-2.04.72-1.728 0-3.144-1.32-3.168-3.384h7.752c.048-1.32-.312-2.856-.936-3.744-.6-.864-1.824-1.824-3.768-1.824-3 0-4.824 2.304-4.824 5.28 0 3.696 2.52 5.208 4.92 5.208 1.272 0 2.4-.408 3.312-1.224a5.959 5.959 0 0 0 1.224-1.608l-1.44-.792zm-6.12-2.736c.264-1.488 1.464-2.592 2.928-2.592s2.64 1.032 2.928 2.592H46.99zm13.787-2.304v-1.584h-1.728v-3.6H57.32v3.6h-1.056v1.584h1.056V187h1.728v-8.376h1.728zM10.46 209.456c-.456-.6-1.488-1.656-3.408-1.656-2.544 0-4.848 1.776-4.848 5.208 0 3.504 2.328 5.28 4.848 5.28 1.752 0 2.832-.936 3.408-1.68V218h1.728v-9.96h-1.728v1.416zm-3.216-.12c1.536 0 3.312 1.128 3.312 3.696 0 1.968-1.2 3.72-3.312 3.72-2.064 0-3.264-1.608-3.264-3.744 0-2.424 1.56-3.672 3.264-3.672zm16.017-.576c-.48-.336-1.512-.96-3.096-.96-3.072 0-5.328 2.232-5.328 5.28 0 3 2.232 5.208 5.328 5.208a5.32 5.32 0 0 0 3.168-1.032v-2.064c-.912 1.104-2.184 1.56-3.216 1.56-1.776 0-3.504-1.272-3.504-3.696 0-2.424 1.68-3.72 3.528-3.72.888 0 2.208.336 3.12 1.488v-2.064zm10.523 0c-.48-.336-1.512-.96-3.096-.96-3.072 0-5.328 2.232-5.328 5.28 0 3 2.232 5.208 5.328 5.208a5.32 5.32 0 0 0 3.168-1.032v-2.064c-.912 1.104-2.184 1.56-3.216 1.56-1.776 0-3.504-1.272-3.504-3.696 0-2.424 1.68-3.72 3.528-3.72.888 0 2.208.336 3.12 1.488v-2.064zm7.38 9.528c3.024 0 5.28-2.208 5.28-5.232s-2.232-5.256-5.28-5.256-5.28 2.232-5.28 5.256 2.255 5.232 5.28 5.232zm0-8.952c1.824 0 3.504 1.272 3.504 3.72 0 2.424-1.705 3.696-3.505 3.696-1.776 0-3.504-1.248-3.504-3.696 0-2.424 1.68-3.72 3.505-3.72zm9.657-1.296h-1.728v6c0 1.224.12 2.136.912 3 .888.936 2.064 1.248 3.048 1.248s2.16-.312 3.048-1.248c.792-.864.912-1.776.912-3v-6h-1.728v5.808c0 .696 0 1.512-.48 2.136-.264.336-.792.768-1.752.768s-1.488-.432-1.752-.768c-.48-.624-.48-1.44-.48-2.136v-5.808zm9.452 9.96H62v-5.208c0-.72.048-1.896.72-2.688.504-.6 1.152-.768 1.752-.768.768 0 1.296.288 1.632.72.408.528.456 1.224.456 1.824V218h1.728v-6.168c0-1.104-.072-1.92-.576-2.664-.6-.888-1.68-1.368-2.856-1.368A3.514 3.514 0 0 0 62 209.192v-1.152h-1.728V218zm14.778-8.376v-1.584h-1.728v-3.6h-1.728v3.6h-1.056v1.584h1.056V218h1.728v-8.376h1.728zm-64.591 30.832c-.456-.6-1.488-1.656-3.408-1.656-2.544 0-4.848 1.776-4.848 5.208 0 3.504 2.328 5.28 4.848 5.28 1.752 0 2.832-.936 3.408-1.68V249h1.728v-9.96h-1.728v1.416zm-3.216-.12c1.536 0 3.312 1.128 3.312 3.696 0 1.968-1.2 3.72-3.312 3.72-2.064 0-3.264-1.608-3.264-3.744 0-2.424 1.56-3.672 3.264-3.672zm15.849.12c-.792-1.032-1.944-1.656-3.408-1.656-1.344 0-2.568.528-3.408 1.344-.72.72-1.44 1.92-1.44 3.864 0 2.016.768 3.264 1.44 3.936.768.768 1.944 1.344 3.408 1.344 1.752 0 2.832-.936 3.408-1.68v1.44c0 .84-.048 1.728-.552 2.544-.576.96-1.416 1.392-2.64 1.392-.768 0-1.68-.168-2.4-.96a3.136 3.136 0 0 1-.768-2.064h-1.704c0 1.464.624 2.544 1.296 3.216.672.672 1.848 1.344 3.552 1.344 1.872 0 3.24-.84 3.984-1.848.96-1.296.96-2.832.96-3.912v-9.72h-1.728v1.416zm-3.216-.12c.888 0 1.704.336 2.256.888.624.6 1.056 1.632 1.056 2.808s-.456 2.232-1.128 2.88c-.552.552-1.272.84-2.184.84-.912 0-1.584-.312-2.136-.816-.96-.888-1.128-2.064-1.128-2.928 0-.816.168-1.872 1.008-2.736.48-.48 1.2-.936 2.256-.936zm15.608 5.328c-.216.48-.576.984-1.032 1.368-.576.48-1.224.72-2.04.72-1.728 0-3.144-1.32-3.168-3.384h7.752c.048-1.32-.312-2.856-.936-3.744-.6-.864-1.824-1.824-3.768-1.824-3 0-4.824 2.304-4.824 5.28 0 3.696 2.52 5.208 4.92 5.208 1.272 0 2.4-.408 3.312-1.224a5.959 5.959 0 0 0 1.224-1.608l-1.44-.792zm-6.12-2.736c.264-1.488 1.464-2.592 2.928-2.592s2.64 1.032 2.928 2.592h-5.856zM39.647 249h1.728v-5.208c0-.72.048-1.896.72-2.688.504-.6 1.152-.768 1.752-.768.768 0 1.296.288 1.632.72.408.528.456 1.224.456 1.824V249h1.728v-6.168c0-1.104-.072-1.92-.576-2.664-.6-.888-1.68-1.368-2.856-1.368a3.514 3.514 0 0 0-2.856 1.392v-1.152h-1.728V249zm19.074-9.24c-.48-.336-1.512-.96-3.096-.96-3.072 0-5.328 2.232-5.328 5.28 0 3 2.232 5.208 5.328 5.208a5.32 5.32 0 0 0 3.168-1.032v-2.064c-.912 1.104-2.184 1.56-3.216 1.56-1.776 0-3.504-1.272-3.504-3.696 0-2.424 1.68-3.72 3.528-3.72.888 0 2.208.336 3.12 1.488v-2.064zm2.699 14.76h1.92l7.32-15.48h-1.92l-3.24 7.128-3.528-7.128h-1.968l4.584 9.024-3.168 6.456zM28.515 40h-7.96l-3.68-9.48c-.427-1.067-1.427-1.6-3-1.6h-2.72V40h-7.4V11.52h13.24c3.44 0 6.026.747 7.76 2.24 1.733 1.467 2.6 3.573 2.6 6.32 0 1.92-.52 3.587-1.56 5-1.014 1.387-2.454 2.373-4.32 2.96.8.16 1.52.533 2.16 1.12.64.587 1.146 1.373 1.52 2.36l3.36 8.48zm-12.72-16.68c1.6 0 2.76-.24 3.48-.72.72-.507 1.08-1.28 1.08-2.32 0-1.093-.36-1.88-1.08-2.36-.694-.48-1.853-.72-3.48-.72h-4.72v6.12h4.72zm47.16 17.04c-2.96 0-5.547-.6-7.76-1.8a12.788 12.788 0 0 1-5.08-5.16c-1.174-2.213-1.76-4.773-1.76-7.68 0-2.88.586-5.413 1.76-7.6 1.2-2.213 2.892-3.92 5.08-5.12 2.212-1.227 4.8-1.84 7.76-1.84 1.866 0 3.666.28 5.4.84 1.76.56 3.172 1.32 4.24 2.28l-2.28 5.32c-2.32-1.68-4.72-2.52-7.2-2.52-2.294 0-4.054.733-5.28 2.2-1.227 1.44-1.84 3.587-1.84 6.44 0 2.88.613 5.053 1.84 6.52 1.226 1.467 2.986 2.2 5.28 2.2 2.48 0 4.88-.84 7.2-2.52l2.28 5.32c-1.067.96-2.48 1.72-4.24 2.28-1.734.56-3.534.84-5.4.84zm-40 43.76h-12.64L7.795 90H.275l13.32-28.48h5.92L32.875 90h-7.4l-2.52-5.88zm-2.44-5.64l-3.88-9-3.88 9h7.76zm50.182 5.64h-12.64L55.537 90h-7.52l13.32-28.48h5.92L80.617 90h-7.4l-2.52-5.88zm-2.44-5.64l-3.88-9-3.88 9h7.76z" fill="#fff"/></svg>