<svg width="1496" height="1393" viewBox="0 0 1496 1393" fill="none" xmlns="http://www.w3.org/2000/svg"><circle cx="186" cy="966" r="9" fill="#E20D3F"/><circle cx="265" cy="59" r="10" fill="#E20D3F"/><circle cx="899" cy="270" r="7" fill="#E20D3F"/><circle cx="767" cy="849" r="30.5" stroke="#E20D3F" stroke-width="5"/><circle cx="58" cy="523" r="15.5" stroke="#E20D3F" stroke-width="5"/><path d="M303.5 46.5s242.574-101.359 406.5 7C798.5 111.998 880.5 222 880.5 222M1528 1385.5c-138.63 8.99-239.04 5.04-374.94-16.42-101.96-16.09-194.139-68.84-265.071-143.82l-71.687-75.78a499.993 499.993 0 0 0-329.285-155.251L226.5 976.499m-145.5-485l37.436-53.468C228.829 280.36 437.353 232.57 619.25 295.499c115.283 39.884 200.103 15.172 233.25 0m-749.5 222s252.708-36.051 370 48.001c98.77 70.78 261 244 261 244M704 827c-158.512-80.747-351.024-49.929-476.408 76.265L205.5 925.499" stroke="#E20D3F" stroke-width="5" stroke-linecap="round"/></svg>