<svg width="65" height="67" viewBox="0 0 65 67" fill="none" xmlns="http://www.w3.org/2000/svg">
<path d="M61.1914 23.1472H59.9219V19.28C59.9219 18.5681 59.3534 17.991 58.6523 17.991H53.5742C52.8732 17.991 52.3047 18.5681 52.3047 19.28V23.1472H42.6587C41.4395 22.4861 40.1626 21.9462 38.8477 21.5355V17.991H42.6562C44.7563 17.991 46.4648 16.2561 46.4648 14.1238V6.3894C46.4648 4.25704 44.7563 2.52222 42.6562 2.52222H22.3438C20.2437 2.52222 18.5352 4.25704 18.5352 6.3894V14.1238C18.5352 16.2561 20.2437 17.991 22.3438 17.991H26.1523V21.5355C24.8374 21.9462 23.5606 22.4861 22.3412 23.1472C19.3234 23.1472 15.5416 23.1472 12.6953 23.1472V19.28C12.6953 18.5681 12.1268 17.991 11.4258 17.991H6.34766C5.64662 17.991 5.07812 18.5681 5.07812 19.28V23.1472H3.80859C1.70854 23.1472 0 24.882 0 27.0144C0 28.2857 0 56.58 0 57.9519C0 60.0843 1.70854 61.8191 3.80859 61.8191H22.3413C25.4511 63.5051 28.9551 64.3972 32.5 64.3972C36.0449 64.3972 39.5488 63.5052 42.6587 61.8191H61.1914C63.2915 61.8191 65 60.0843 65 57.9519C65 56.6806 65 28.3864 65 27.0144C65 24.882 63.2915 23.1472 61.1914 23.1472ZM54.8438 20.5691H57.3828V23.1472H54.8438V20.5691ZM22.3438 15.4128C21.6437 15.4128 21.0742 14.8346 21.0742 14.1238V6.3894C21.0742 5.67862 21.6437 5.10034 22.3438 5.10034H42.6562C43.3563 5.10034 43.9258 5.67862 43.9258 6.3894V14.1238C43.9258 14.8346 43.3563 15.4128 42.6562 15.4128H22.3438ZM36.3086 17.991V20.9122C35.0565 20.6859 33.7815 20.5691 32.5 20.5691C31.2185 20.5691 29.9435 20.6859 28.6914 20.9121V17.991H36.3086ZM7.61719 20.5691H10.1562V23.1472H7.61719V20.5691ZM2.53906 27.0144C2.53906 26.3036 3.10857 25.7125 3.80859 25.7125H18.5949C16.876 27.184 15.3862 28.9343 14.1879 30.8816H2.53906V27.0144ZM2.53906 33.4468H12.8287C11.5743 36.267 10.918 39.3603 10.918 42.4832C10.918 45.6062 11.5743 48.6865 12.8287 51.5066H2.53906V33.4468ZM3.80859 59.241C3.10857 59.241 2.53906 58.6627 2.53906 57.9519V54.0847H14.1879C15.3863 56.0321 16.8761 57.7695 18.5949 59.241H3.80859ZM32.5 61.8191C21.9751 61.8191 13.457 53.1536 13.457 42.4832C13.457 31.8529 21.9361 23.1472 32.5 23.1472C43.0177 23.1472 51.543 31.8061 51.543 42.4832C51.543 53.1935 42.9866 61.8191 32.5 61.8191ZM62.4609 57.9519C62.4609 58.6627 61.8914 59.241 61.1914 59.241H46.405C48.124 57.7694 49.6138 56.032 50.8121 54.0847H62.4609V57.9519ZM62.4609 51.5066H52.1713C53.4257 48.6864 54.082 45.606 54.082 42.4832C54.082 39.3603 53.4257 36.2799 52.1713 33.4597H62.4609V51.5066ZM62.4609 30.8816H50.8121C49.6138 28.9342 48.124 27.1968 46.405 25.7253H61.1914C61.8914 25.7253 62.4609 26.3036 62.4609 27.0144V30.8816Z" fill="#C6D9FF"/>
<path d="M58.6523 36.0391C57.9503 36.0391 57.3841 36.613 57.3841 37.3269C57.3841 38.0889 58.0271 38.6838 58.7793 38.608C59.429 38.5425 59.9206 37.9903 59.9206 37.3269C59.9206 36.614 59.3554 36.0391 58.6523 36.0391Z" fill="url(#paint0_linear)"/>
<path d="M32.5 30.8829C31.7979 30.8829 31.2317 31.4567 31.2317 32.1706C31.2317 32.8336 31.7229 33.3862 32.373 33.4517C33.1257 33.5276 33.7682 32.9321 33.7682 32.1706C33.7682 31.4578 33.203 30.8829 32.5 30.8829Z" fill="url(#paint1_linear)"/>
<path d="M32.5 25.7253C23.3996 25.7253 15.9961 33.2429 15.9961 42.4832C15.9961 51.7234 23.3996 59.241 32.5 59.241C41.6004 59.241 49.0039 51.7234 49.0039 42.4832C49.0039 33.2429 41.6004 25.7253 32.5 25.7253ZM32.5 56.6628C24.7998 56.6628 18.5352 50.3018 18.5352 42.4832C18.5352 34.6645 24.7998 28.3035 32.5 28.3035C40.2002 28.3035 46.4648 34.6645 46.4648 42.4832C46.4648 50.3018 40.2002 56.6628 32.5 56.6628Z" fill="url(#paint2_linear)"/>
<path d="M38.0321 32.334C37.419 31.9882 36.6462 32.2128 36.3059 32.8352C35.9654 33.4575 36.1865 34.2423 36.7995 34.5879C39.6291 36.1834 41.3869 39.2087 41.3869 42.4831C41.3869 43.1951 41.9554 43.7722 42.6565 43.7722C43.3575 43.7722 43.926 43.1951 43.926 42.4831C43.926 38.2727 41.6676 34.3837 38.0321 32.334Z" fill="url(#paint3_linear)"/>
<path d="M40.1172 7.67847C39.4162 7.67847 38.8477 8.25558 38.8477 8.96753V11.5457C38.8477 12.2576 39.4162 12.8347 40.1172 12.8347C40.8182 12.8347 41.3867 12.2576 41.3867 11.5457V8.96753C41.3867 8.25558 40.8182 7.67847 40.1172 7.67847Z" fill="url(#paint4_linear)"/>
<defs>
<linearGradient id="paint0_linear" x1="15.3475" y1="41.0659" x2="60.643" y2="40.5148" gradientUnits="userSpaceOnUse">
<stop stop-color="#5529CF"/>
<stop offset="1" stop-color="#9745FF"/>
</linearGradient>
<linearGradient id="paint1_linear" x1="15.3475" y1="41.0659" x2="60.643" y2="40.5148" gradientUnits="userSpaceOnUse">
<stop stop-color="#5529CF"/>
<stop offset="1" stop-color="#9745FF"/>
</linearGradient>
<linearGradient id="paint2_linear" x1="15.3475" y1="41.0659" x2="60.643" y2="40.5148" gradientUnits="userSpaceOnUse">
<stop stop-color="#5529CF"/>
<stop offset="1" stop-color="#9745FF"/>
</linearGradient>
<linearGradient id="paint3_linear" x1="15.3475" y1="41.0659" x2="60.643" y2="40.5148" gradientUnits="userSpaceOnUse">
<stop stop-color="#5529CF"/>
<stop offset="1" stop-color="#9745FF"/>
</linearGradient>
<linearGradient id="paint4_linear" x1="15.3475" y1="41.0659" x2="60.643" y2="40.5148" gradientUnits="userSpaceOnUse">
<stop stop-color="#5529CF"/>
<stop offset="1" stop-color="#9745FF"/>
</linearGradient>
</defs>
</svg>
