<svg width="62" height="60" viewBox="0 0 62 60" fill="none" xmlns="http://www.w3.org/2000/svg">
<g clip-path="url(#clip0)">
<path d="M16.0443 9.1134L13.976 5.06084L11.9078 9.1134L7.28369 9.76339L10.6299 12.9184L9.8401 17.3729L13.976 15.2699L18.112 17.3729L17.3222 12.9184L20.6684 9.76339L16.0443 9.1134ZM15.7362 14.2103L13.976 13.3149L12.2159 14.2103L12.5519 12.3143L11.1278 10.9716L13.096 10.6952L13.976 8.97025L14.8561 10.6952L16.8243 10.9716L15.4001 12.3143L15.7362 14.2103Z" fill="url(#paint0_linear)"/>
<path d="M33.3365 9.11343L31.2683 5.06042L29.2006 9.11343L24.576 9.76343L27.9222 12.9184L27.1324 17.3729L31.2683 15.2699L35.4048 17.3729L34.6145 12.918L37.9607 9.76343L33.3365 9.11343ZM33.0289 14.2103L31.2683 13.315L29.5082 14.2103L29.8442 12.3143L28.4201 10.9716L30.3883 10.6952L31.2683 8.97029L32.1484 10.6952L34.1165 10.9716L32.6924 12.3143L33.0289 14.2103Z" fill="url(#paint1_linear)"/>
<path d="M47.3682 5.06042L45.3 9.11343L40.6759 9.76343L44.022 12.918L43.2323 17.3729L47.3682 15.2699L51.5046 17.3729L50.7144 12.918L54.0606 9.76343L49.4364 9.11343L47.3682 5.06042ZM49.1283 14.2103L47.3682 13.315L45.6076 14.2103L45.9441 12.3143L44.52 10.9716L46.4882 10.6952L47.3682 8.97029L48.2483 10.6952L50.2164 10.9716L48.7923 12.3143L49.1283 14.2103Z" fill="url(#paint2_linear)"/>
<path d="M40.2646 45.8816C39.8707 45.8173 39.4673 45.785 39.0651 45.785H35.2256V43.4159C37.437 41.9884 38.8969 39.5541 38.8969 36.7952V32.5339C38.8969 31.0659 38.4801 29.6313 37.6914 28.3856L36.1884 29.2756C36.8074 30.2535 37.1348 31.3804 37.1348 32.5339V33.4275L36.9033 33.0137C36.1985 31.7538 34.8409 30.971 33.3599 30.971H27.9848C26.5038 30.971 25.1461 31.7538 24.4414 33.0137L24.2103 33.4275V32.5339C24.2103 29.0871 27.109 26.2835 30.6726 26.2835C32.3915 26.2835 34.0096 26.9292 35.2283 28.1013L36.4709 26.8924C34.9197 25.4005 32.8606 24.5788 30.6726 24.5788C26.1374 24.5788 22.4478 28.1474 22.4478 32.5339V36.7952C22.4478 39.5541 23.9081 41.9888 26.1195 43.4159V45.785H22.28C18.3235 45.785 15.1047 48.8982 15.1047 52.7254V59.5235H16.8673V52.7254C16.8673 49.8384 19.2951 47.4897 22.28 47.4897H26.1874C26.557 49.5612 28.4268 51.1426 30.6726 51.1426C32.9183 51.1426 34.7881 49.5612 35.1577 47.4897H39.0651C39.3696 47.4897 39.6745 47.5141 39.9721 47.5629L40.2646 45.8816ZM33.4631 46.7389C33.4631 48.2272 32.2113 49.4379 30.6726 49.4379C29.1338 49.4379 27.8821 48.2272 27.8821 46.7389V44.278C28.7537 44.5831 29.6932 44.7499 30.6726 44.7499C31.6519 44.7499 32.5914 44.5831 33.4631 44.278V46.7389ZM30.6726 43.0456C27.1805 43.0456 24.3286 40.3524 24.2158 37.0014L25.9921 33.8248C26.3882 33.1161 27.1521 32.6758 27.9848 32.6758H33.3599C34.193 32.6758 34.9569 33.1161 35.353 33.8248L37.1293 37.001C37.0161 40.3524 34.1641 43.0456 30.6726 43.0456Z" fill="#C6D9FF"/>
<path d="M42.1736 46.4688L41.4093 48.0046C43.2736 48.8725 44.4776 50.7257 44.4776 52.7254V59.5235H46.2402V52.7254C46.2402 50.0747 44.6441 47.6192 42.1736 46.4688Z" fill="#C6D9FF"/>
<path d="M39.1907 55.4324H40.9532V59.5235H39.1907V55.4324Z" fill="#C6D9FF"/>
<path d="M20.3918 55.4324H22.1543V59.5235H20.3918V55.4324Z" fill="#C6D9FF"/>
<path d="M57.4609 1.396H46.6396V3.10072H57.4609C58.2707 3.10072 58.9296 3.738 58.9296 4.52118V19.2943C58.9296 20.0779 58.2707 20.7152 57.4609 20.7152H17.4545V26.7407L8.62817 20.7152H3.88396C3.07423 20.7152 2.41535 20.0779 2.41535 19.2943V11.8705H0.652832V19.2943C0.652832 21.0177 2.10218 22.4195 3.88396 22.4195H8.06924L19.217 30.0309V22.4195H57.4609C59.2427 22.4195 60.6921 21.0177 60.6921 19.2943V4.52118C60.6921 2.79783 59.2427 1.396 57.4609 1.396Z" fill="#C6D9FF"/>
<path d="M2.41535 4.52118C2.41535 3.738 3.07423 3.10072 3.88396 3.10072H44.8776V1.396H3.88396C2.10218 1.396 0.652832 2.79783 0.652832 4.52118V10.1658H2.41535V4.52118Z" fill="#C6D9FF"/>
<path d="M18.6291 52.7255H20.3916C20.3916 51.7183 21.2385 50.8988 22.2798 50.8988V49.1945C20.2669 49.1945 18.6291 50.7786 18.6291 52.7255Z" fill="#C6D9FF"/>
<path d="M57.0498 9.06683V4.80545H52.6439V6.50974H55.2872V9.06683H57.0498Z" fill="#C6D9FF"/>
<path d="M4.17786 14.6352V18.897H8.58369V17.1923H5.93992V14.6352H4.17786Z" fill="#C6D9FF"/>
<path d="M26.2667 55.7167H28.0288V57.421H26.2667V55.7167Z" fill="#C6D9FF"/>
<path d="M29.7911 55.7167H31.5536V57.421H29.7911V55.7167Z" fill="#C6D9FF"/>
<path d="M33.3162 55.7167H35.0782V57.421H33.3162V55.7167Z" fill="#C6D9FF"/>
<path d="M40.2646 45.8816C39.8707 45.8173 39.4673 45.785 39.0651 45.785H35.2256V43.4159C37.437 41.9884 38.8969 39.5541 38.8969 36.7952V32.5339C38.8969 31.0659 38.4801 29.6313 37.6914 28.3856L36.1884 29.2756C36.8074 30.2535 37.1348 31.3804 37.1348 32.5339V33.4275L36.9033 33.0137C36.1985 31.7538 34.8409 30.971 33.3599 30.971H27.9848C26.5038 30.971 25.1461 31.7538 24.4414 33.0137L24.2103 33.4275V32.5339C24.2103 29.0871 27.109 26.2835 30.6726 26.2835C32.3915 26.2835 34.0096 26.9292 35.2283 28.1013L36.4709 26.8924C34.9197 25.4005 32.8606 24.5788 30.6726 24.5788C26.1374 24.5788 22.4478 28.1474 22.4478 32.5339V36.7952C22.4478 39.5541 23.9081 41.9888 26.1195 43.4159V45.785H22.28C18.3235 45.785 15.1047 48.8982 15.1047 52.7254V59.5235H16.8673V52.7254C16.8673 49.8384 19.2951 47.4897 22.28 47.4897H26.1874C26.557 49.5612 28.4268 51.1426 30.6726 51.1426C32.9183 51.1426 34.7881 49.5612 35.1577 47.4897H39.0651C39.3696 47.4897 39.6745 47.5141 39.9721 47.5629L40.2646 45.8816ZM33.4631 46.7389C33.4631 48.2272 32.2113 49.4379 30.6726 49.4379C29.1338 49.4379 27.8821 48.2272 27.8821 46.7389V44.278C28.7537 44.5831 29.6932 44.7499 30.6726 44.7499C31.6519 44.7499 32.5914 44.5831 33.4631 44.278V46.7389ZM30.6726 43.0456C27.1805 43.0456 24.3286 40.3524 24.2158 37.0014L25.9921 33.8248C26.3882 33.1161 27.1521 32.6758 27.9848 32.6758H33.3599C34.193 32.6758 34.9569 33.1161 35.353 33.8248L37.1293 37.001C37.0161 40.3524 34.1641 43.0456 30.6726 43.0456Z" stroke="#C6D9FF" stroke-width="0.5"/>
<path d="M42.1736 46.4688L41.4093 48.0046C43.2736 48.8725 44.4776 50.7257 44.4776 52.7254V59.5235H46.2402V52.7254C46.2402 50.0747 44.6441 47.6192 42.1736 46.4688Z" stroke="#C6D9FF" stroke-width="0.5"/>
<path d="M39.1907 55.4324H40.9532V59.5235H39.1907V55.4324Z" stroke="#C6D9FF" stroke-width="0.5"/>
<path d="M20.3918 55.4324H22.1543V59.5235H20.3918V55.4324Z" stroke="#C6D9FF" stroke-width="0.5"/>
<path d="M57.4609 1.396H46.6396V3.10072H57.4609C58.2707 3.10072 58.9296 3.738 58.9296 4.52118V19.2943C58.9296 20.0779 58.2707 20.7152 57.4609 20.7152H17.4545V26.7407L8.62817 20.7152H3.88396C3.07423 20.7152 2.41535 20.0779 2.41535 19.2943V11.8705H0.652832V19.2943C0.652832 21.0177 2.10218 22.4195 3.88396 22.4195H8.06924L19.217 30.0309V22.4195H57.4609C59.2427 22.4195 60.6921 21.0177 60.6921 19.2943V4.52118C60.6921 2.79783 59.2427 1.396 57.4609 1.396Z" stroke="#C6D9FF" stroke-width="0.5"/>
<path d="M2.41535 4.52118C2.41535 3.738 3.07423 3.10072 3.88396 3.10072H44.8776V1.396H3.88396C2.10218 1.396 0.652832 2.79783 0.652832 4.52118V10.1658H2.41535V4.52118Z" stroke="#C6D9FF" stroke-width="0.5"/>
<path d="M18.6291 52.7255H20.3916C20.3916 51.7183 21.2385 50.8988 22.2798 50.8988V49.1945C20.2669 49.1945 18.6291 50.7786 18.6291 52.7255Z" stroke="#C6D9FF" stroke-width="0.5"/>
<path d="M57.0498 9.06683V4.80545H52.6439V6.50974H55.2872V9.06683H57.0498Z" stroke="#C6D9FF" stroke-width="0.5"/>
<path d="M4.17786 14.6352V18.897H8.58369V17.1923H5.93992V14.6352H4.17786Z" stroke="#C6D9FF" stroke-width="0.5"/>
<path d="M26.2667 55.7167H28.0288V57.421H26.2667V55.7167Z" stroke="#C6D9FF" stroke-width="0.5"/>
<path d="M29.7911 55.7167H31.5536V57.421H29.7911V55.7167Z" stroke="#C6D9FF" stroke-width="0.5"/>
<path d="M33.3162 55.7167H35.0782V57.421H33.3162V55.7167Z" stroke="#C6D9FF" stroke-width="0.5"/>
</g>
<defs>
<linearGradient id="paint0_linear" x1="6.593" y1="13.0329" x2="54.6954" y2="10.4229" gradientUnits="userSpaceOnUse">
<stop stop-color="#5529CF"/>
<stop offset="1" stop-color="#9745FF"/>
</linearGradient>
<linearGradient id="paint1_linear" x1="6.593" y1="13.0329" x2="54.6954" y2="10.4229" gradientUnits="userSpaceOnUse">
<stop stop-color="#5529CF"/>
<stop offset="1" stop-color="#9745FF"/>
</linearGradient>
<linearGradient id="paint2_linear" x1="6.593" y1="13.0329" x2="54.6954" y2="10.4229" gradientUnits="userSpaceOnUse">
<stop stop-color="#5529CF"/>
<stop offset="1" stop-color="#9745FF"/>
</linearGradient>
<clipPath id="clip0">
<rect width="61" height="59" fill="white" transform="translate(0.202148 0.959717)"/>
</clipPath>
</defs>
</svg>
