<svg width="60" height="60" viewBox="0 0 60 60" fill="none" xmlns="http://www.w3.org/2000/svg">
<g clip-path="url(#clip0)">
<path d="M35.0229 57.5446L32.1568 56.5892V44.2483H33.021C33.4985 44.2483 33.8853 43.8613 33.8853 43.384V22.4115C33.8853 21.0601 33.0348 19.9043 31.8412 19.4495C33.0936 18.3403 33.8853 16.7219 33.8853 14.9213V11.4642C33.8853 8.12834 31.1713 5.41447 27.8355 5.41447C24.4997 5.41447 21.7857 8.12834 21.7857 11.4642V14.9213C21.7857 16.7219 22.5774 18.3403 23.8299 19.4495C22.901 19.8035 22.1806 20.5821 21.9066 21.5472H14.0076C13.531 21.5472 13.1433 21.1596 13.1433 20.683C13.1433 20.2064 13.531 19.8187 14.0076 19.8187H15.7361C16.2135 19.8187 16.6003 19.4318 16.6003 18.9545V13.8741L19.6976 6.25141C19.9268 5.71419 20.0429 5.14436 20.0429 4.55736C20.0429 2.18434 18.12 0.252562 15.7506 0.236775C15.7457 0.23666 15.7409 0.236084 15.7361 0.236084C15.728 0.236314 15.7249 0.236084 15.7217 0.236084C13.3389 0.236084 11.4004 2.17455 11.4004 4.55736C11.4004 5.14401 11.5165 5.71396 11.7456 6.25118L14.8534 13.8998C14.8579 13.9311 14.8639 13.9618 14.8717 13.9925V18.0902H14.0074C12.5779 18.0902 11.4147 19.2533 11.4147 20.683C11.4147 22.1127 12.5779 23.2757 14.0074 23.2757H21.7857V43.384C21.7857 43.8613 22.1726 44.2483 22.65 44.2483H23.5142V56.5893L20.6481 57.5447C20.1953 57.6956 19.9506 58.185 20.1016 58.6379C20.2224 59.0001 20.5595 59.229 20.9214 59.229C21.0119 59.229 21.1041 59.2146 21.1948 59.1845L24.6518 58.0321C25.0048 57.9145 25.2427 57.5842 25.2427 57.2122V44.2483H30.4283V57.2121C30.4283 57.5841 30.6662 57.9143 31.0192 58.032L34.4762 59.1843C34.5669 59.2145 34.6591 59.2289 34.7497 59.2289C35.1115 59.2289 35.4487 58.9999 35.5694 58.6378C35.7203 58.1849 35.4756 57.6955 35.0229 57.5446ZM18.3142 4.55736C18.3142 4.91158 18.244 5.2551 18.1053 5.5781C18.1031 5.58317 18.1009 5.58835 18.0988 5.59342L16.6 9.28218V2.11808C17.5986 2.47888 18.3142 3.4359 18.3142 4.55736ZM13.3376 5.57798C13.199 5.25487 13.1287 4.91135 13.1287 4.55724C13.1287 3.42518 13.8582 2.46091 14.8716 2.10829V9.35316L13.3438 5.59331C13.3419 5.58812 13.3398 5.58305 13.3376 5.57798ZM23.5141 42.5198V29.5266C25.2048 29.182 26.5396 27.8473 26.8841 26.1566H28.7865C29.1311 27.8473 30.4658 29.182 32.1566 29.5266V42.5198H23.5141ZM27.8332 20.971C27.8377 20.971 28.6997 20.971 28.6997 20.971V24.4281H26.9711V20.971H27.8332ZM32.1567 27.7363C31.1508 27.3795 30.4282 26.419 30.4282 25.2922V20.971H30.7162C31.5106 20.971 32.1567 21.6172 32.1567 22.4115V27.7363ZM27.8354 7.14297C30.2182 7.14297 32.1567 9.08144 32.1567 11.4642V11.7523H30.412C29.7607 11.0235 28.8281 10.6 27.8354 10.6C26.8427 10.6 25.91 11.0235 25.2587 11.7523H23.5141V11.4642C23.5141 9.08144 25.4527 7.14297 27.8354 7.14297ZM23.5141 14.9213V13.4808H25.6795C25.9679 13.4808 26.2372 13.337 26.3976 13.0973C26.7199 12.6159 27.2574 12.3285 27.8354 12.3285C28.4133 12.3285 28.9507 12.6159 29.2731 13.0973C29.4336 13.337 29.7028 13.4808 29.9912 13.4808H32.1567V14.9213C32.1567 17.3033 30.2194 19.2413 27.8376 19.2425C25.4514 19.2413 23.5141 17.3033 23.5141 14.9213ZM24.9545 20.971H25.2426V25.2923C25.2426 26.419 24.52 27.3797 23.5141 27.7364V22.4115C23.5141 21.6172 24.1604 20.971 24.9545 20.971Z" fill="#C6D9FF"/>
<path d="M46.8491 21.5478H36.478C36.0006 21.5478 35.6138 21.9347 35.6138 22.412C35.6138 24.7948 37.5522 26.7333 39.9351 26.7333H43.3921C45.7749 26.7333 47.7134 24.7948 47.7134 22.412C47.7134 21.9346 47.3265 21.5478 46.8491 21.5478ZM43.3921 25.0048H39.9351C38.8083 25.0048 37.8471 24.2823 37.4904 23.2763H45.8368C45.4801 24.2823 44.519 25.0048 43.3921 25.0048Z" fill="url(#paint0_linear)"/>
<path d="M41.2575 9.34684C41.3845 9.41448 41.524 9.44824 41.6637 9.44824C41.8033 9.44824 41.943 9.41448 42.0699 9.34684C42.2556 9.24796 46.6187 6.88405 46.6187 3.40892C46.6187 1.65575 45.1912 0.229492 43.4363 0.229492C42.7972 0.229492 42.1825 0.420436 41.6637 0.768789C41.1449 0.42032 40.5301 0.229492 39.891 0.229492C38.1362 0.229492 36.7087 1.65575 36.7087 3.40892C36.7086 6.88405 41.0717 9.24785 41.2575 9.34684ZM39.891 1.95801C40.3201 1.95801 40.7255 2.14676 41.0033 2.47587C41.1675 2.6705 41.4091 2.78274 41.6638 2.78274C41.9183 2.78274 42.1601 2.67039 42.3242 2.47576C42.6018 2.14665 43.0072 1.95789 43.4362 1.95789C44.2379 1.95789 44.8901 2.60874 44.8901 3.40881C44.8901 5.19851 42.8356 6.85236 41.6624 7.58456C40.4894 6.85558 38.437 5.2067 38.437 3.40881C38.4371 2.60885 39.0893 1.95801 39.891 1.95801Z" fill="url(#paint1_linear)"/>
<path d="M36.478 12.9052H46.8491C47.3265 12.9052 47.7134 12.5183 47.7134 12.041C47.7134 11.5637 47.3265 11.1767 46.8491 11.1767H36.478C36.0006 11.1767 35.6138 11.5637 35.6138 12.041C35.6138 12.5183 36.0007 12.9052 36.478 12.9052Z" fill="url(#paint2_linear)"/>
<path d="M46.8491 14.6337H36.478C36.0006 14.6337 35.6138 15.0207 35.6138 15.498C35.6138 15.9753 36.0006 16.3623 36.478 16.3623H46.8491C47.3265 16.3623 47.7134 15.9753 47.7134 15.498C47.7134 15.0207 47.3265 14.6337 46.8491 14.6337Z" fill="url(#paint3_linear)"/>
<path d="M46.8491 18.0908H36.478C36.0006 18.0908 35.6138 18.4777 35.6138 18.955C35.6138 19.4323 36.0006 19.8193 36.478 19.8193H46.8491C47.3265 19.8193 47.7134 19.4323 47.7134 18.955C47.7134 18.4777 47.3265 18.0908 46.8491 18.0908Z" fill="url(#paint4_linear)"/>
</g>
<defs>
<linearGradient id="paint0_linear" x1="35.4351" y1="17.3911" x2="47.9137" y2="17.3097" gradientUnits="userSpaceOnUse">
<stop stop-color="#5529CF"/>
<stop offset="1" stop-color="#9745FF"/>
</linearGradient>
<linearGradient id="paint1_linear" x1="35.4351" y1="17.3911" x2="47.9137" y2="17.3097" gradientUnits="userSpaceOnUse">
<stop stop-color="#5529CF"/>
<stop offset="1" stop-color="#9745FF"/>
</linearGradient>
<linearGradient id="paint2_linear" x1="35.4351" y1="17.3911" x2="47.9137" y2="17.3097" gradientUnits="userSpaceOnUse">
<stop stop-color="#5529CF"/>
<stop offset="1" stop-color="#9745FF"/>
</linearGradient>
<linearGradient id="paint3_linear" x1="35.4351" y1="17.3911" x2="47.9137" y2="17.3097" gradientUnits="userSpaceOnUse">
<stop stop-color="#5529CF"/>
<stop offset="1" stop-color="#9745FF"/>
</linearGradient>
<linearGradient id="paint4_linear" x1="35.4351" y1="17.3911" x2="47.9137" y2="17.3097" gradientUnits="userSpaceOnUse">
<stop stop-color="#5529CF"/>
<stop offset="1" stop-color="#9745FF"/>
</linearGradient>
<clipPath id="clip0">
<rect width="59" height="59" fill="white" transform="translate(0.0566406 0.229492)"/>
</clipPath>
</defs>
</svg>
