<svg width="60" height="60" viewBox="0 0 60 60" fill="none" xmlns="http://www.w3.org/2000/svg">
<g clip-path="url(#clip0)">
<path d="M58.5107 35.3184H46.2959V33.5028C47.9866 33.1583 49.3214 31.8235 49.6659 30.1328H53.3252C53.8025 30.1328 54.1895 29.746 54.1895 29.2686C54.1895 28.7911 53.8025 28.4043 53.3252 28.4043H52.4609V22.6668C52.4609 22.6634 52.4609 18.8976 52.4609 18.8976C52.4609 17.468 51.2979 16.3048 49.8682 16.3048H37.5381C36.1084 16.3048 34.9453 17.468 34.9453 18.8976V22.6636C34.9453 22.6669 34.9453 28.4044 34.9453 28.4044H34.0811C33.6038 28.4044 33.2168 28.7913 33.2168 29.2687C33.2168 29.7461 33.6038 30.1329 34.0811 30.1329H37.7403C38.0849 31.8237 39.4196 33.1584 41.1104 33.503V35.3184H28.8955C28.4182 35.3184 28.0312 35.7052 28.0312 36.1826V58.3652C28.0312 58.8427 28.4182 59.2295 28.8955 59.2295C29.3728 59.2295 29.7598 58.8427 29.7598 58.3652V57.4149C30.551 57.2561 31.2743 56.8815 31.857 56.3304C32.6464 57.0769 33.6935 57.501 34.8186 57.501C35.9436 57.501 36.9907 57.0769 37.7801 56.3304C38.5694 57.0769 39.6165 57.501 40.7416 57.501C41.8666 57.501 42.9138 57.0769 43.7031 56.3304C44.4925 57.0769 45.5395 57.501 46.6646 57.501C47.7897 57.501 48.8368 57.0769 49.6262 56.3304C50.4156 57.0769 51.4627 57.501 52.5877 57.501C53.7128 57.501 54.7599 57.0769 55.5492 56.3304C56.132 56.8815 56.8553 57.2561 57.6465 57.4149V58.3652C57.6465 58.8427 58.0334 59.2295 58.5107 59.2295C58.988 59.2295 59.375 58.8427 59.375 58.3652V36.1826C59.375 35.7052 58.988 35.3184 58.5107 35.3184ZM36.6738 18.8975C36.6738 18.4209 37.0615 18.0332 37.5381 18.0332H49.8682C50.3448 18.0332 50.7324 18.4209 50.7324 18.8975V22.3853C50.2984 22.9106 49.6544 23.2188 48.9655 23.2188C48.1958 23.2188 47.4813 22.835 47.0543 22.1924C46.8941 21.9513 46.6239 21.8063 46.3344 21.8063C46.0449 21.8063 45.7748 21.9512 45.6145 22.1922C45.1873 22.835 44.4729 23.2188 43.7031 23.2188C42.9334 23.2188 42.2189 22.835 41.7917 22.1922C41.6316 21.9512 41.3613 21.8063 41.0719 21.8063C40.7824 21.8063 40.5122 21.9513 40.352 22.1924C39.9249 22.835 39.2104 23.2188 38.4407 23.2188C37.7518 23.2188 37.1078 22.9106 36.6738 22.3853V18.8975ZM36.6738 28.4043V24.5372C37.2157 24.8023 37.8174 24.9473 38.4407 24.9473C39.421 24.9473 40.35 24.5927 41.0719 23.9674C41.7937 24.5928 42.7227 24.9473 43.703 24.9473C44.6833 24.9473 45.6123 24.5928 46.3342 23.9674C47.056 24.5927 47.985 24.9473 48.9653 24.9473C49.5886 24.9473 50.1905 24.8023 50.7322 24.5372V28.4043H36.6738ZM39.5305 30.1328H47.8758C47.519 31.1387 46.5584 31.8613 45.4316 31.8613H41.9746C40.848 31.8613 39.8873 31.1387 39.5305 30.1328ZM44.5674 33.5899V35.3184H42.8389V33.5899H44.5674ZM57.6465 55.6254C57.0881 55.4295 56.608 55.0452 56.2891 54.517C56.1327 54.2578 55.8519 54.0994 55.5492 54.0994C55.2465 54.0994 54.9658 54.2578 54.8093 54.517C54.3348 55.3031 53.5043 55.7725 52.5877 55.7725C51.6711 55.7725 50.8406 55.3031 50.3661 54.5169C50.2096 54.2577 49.929 54.0993 49.6262 54.0993C49.3233 54.0993 49.0427 54.2577 48.8863 54.5169C48.4117 55.3031 47.5811 55.7725 46.6646 55.7725C45.7482 55.7725 44.9176 55.3031 44.443 54.5169C44.2867 54.2577 44.006 54.0993 43.7031 54.0993C43.4004 54.0993 43.1197 54.2577 42.9632 54.5169C42.4887 55.3031 41.6582 55.7725 40.7416 55.7725C39.825 55.7725 38.9945 55.3031 38.52 54.5169C38.3636 54.2577 38.0829 54.0993 37.7801 54.0993C37.4774 54.0993 37.1966 54.2577 37.0402 54.5169C36.5656 55.3031 35.7351 55.7725 34.8186 55.7725C33.902 55.7725 33.0715 55.3031 32.597 54.5169C32.4405 54.2577 32.1598 54.0993 31.857 54.0993C31.5543 54.0993 31.2736 54.2577 31.1171 54.5169C30.7983 55.0451 30.3182 55.4294 29.7598 55.6254V40.5039H33.7889L37.0072 46.9402C37.1537 47.233 37.4528 47.418 37.7802 47.418C38.1076 47.418 38.4068 47.233 38.5532 46.9402L41.7712 40.5039H45.6349L48.8532 46.9402C48.9996 47.233 49.2988 47.418 49.6262 47.418C49.9536 47.418 50.2528 47.233 50.3992 46.9402L53.6172 40.5039H57.6465V55.6254ZM35.7215 40.5039H39.8387L37.7802 44.6211L35.7215 40.5039ZM47.5675 40.5039H51.6848L49.6263 44.6211L47.5675 40.5039ZM57.6465 38.7754H29.7598V37.0469H57.6465V38.7754Z" fill="url(#paint0_linear)"/>
<path d="M32.3525 7.71973H30.9821L31.2351 7.46668C31.5726 7.12904 31.5726 6.58191 31.2351 6.24439C30.8976 5.90698 30.3503 5.90698 30.0129 6.24439L28.8955 7.36182L27.7781 6.24439C27.4406 5.90698 26.8933 5.90698 26.5559 6.24439C26.2184 6.58202 26.2184 7.12916 26.5559 7.46668L26.809 7.71973H25.4385C24.9612 7.71973 24.5742 8.10658 24.5742 8.58399V15.4981C24.5742 15.9755 24.9612 16.3623 25.4385 16.3623H32.3525C32.8298 16.3623 33.2168 15.9755 33.2168 15.4981V8.58399C33.2168 8.10658 32.8298 7.71973 32.3525 7.71973ZM28.0312 14.6338H26.3027V9.44825H28.0312V14.6338ZM31.4883 14.6338H29.7598V9.44825H31.4883V14.6338Z" fill="url(#paint1_linear)"/>
<path d="M25.4383 23.2764C27.8212 23.2764 29.7596 21.3379 29.7596 18.9551C29.7596 18.4777 29.3727 18.0908 28.8954 18.0908C28.4181 18.0908 28.0311 18.4777 28.0311 18.9551C28.0311 20.3847 26.868 21.5479 25.4383 21.5479H19.2678C18.8905 20.2194 17.6673 19.2432 16.2196 19.2432H10.4579C8.99405 19.2432 7.75931 20.2412 7.39701 21.5922C4.09843 21.9689 1.52721 24.776 1.52721 28.1738C1.52721 30.429 2.6943 32.5301 4.55994 33.7399C4.27681 34.4217 4.07112 35.1397 3.95231 35.8838L1.59231 50.6697C1.54069 50.9932 1.67632 51.3181 1.94274 51.5087C2.68001 52.0364 3.54842 52.3154 4.45416 52.3154C5.57919 52.3154 6.62633 51.8914 7.41568 51.1449C8.20515 51.8914 9.25217 52.3154 10.3772 52.3154C11.5024 52.3154 12.5494 51.8915 13.3387 51.1449C14.1281 51.8915 15.1752 52.3154 16.3003 52.3154C17.4253 52.3154 18.4723 51.8914 19.2618 51.1449C20.0512 51.8914 21.0983 52.3154 22.2233 52.3154C22.6838 52.3154 23.1347 52.2433 23.5636 52.1031L24.4252 57.501H2.25226L2.72426 54.5442C2.79951 54.0728 2.47835 53.6297 2.00704 53.5544C1.53608 53.4792 1.09254 53.8002 1.01741 54.2716L0.38581 58.2291C0.345939 58.479 0.417499 58.7338 0.581708 58.9262C0.745802 59.1186 0.986066 59.2295 1.23912 59.2295H25.4383C25.6914 59.2295 25.9317 59.1186 26.0959 58.9261C26.2601 58.7336 26.3316 58.4789 26.2918 58.2289L25.088 50.6872C25.0863 50.6752 25.0843 50.6629 25.0821 50.6509L22.7251 35.8839C22.359 33.5908 21.18 31.5392 19.3885 30.0619V23.2764H25.4383ZM9.01744 22.4121C9.01744 21.6178 9.66368 20.9717 10.4579 20.9717H16.2196C17.0139 20.9717 17.66 21.6178 17.66 22.4121V23.0927C17.1264 22.8389 16.5373 22.7002 15.931 22.7002C14.9736 22.7002 14.0571 23.0424 13.3383 23.6455C12.6194 23.0424 11.703 22.7002 10.7455 22.7002C10.1396 22.7002 9.55086 22.8388 9.01744 23.0922V22.4121ZM9.01744 25.2107C9.45291 24.7174 10.0819 24.4287 10.7455 24.4287C11.4943 24.4287 12.1993 24.7955 12.6314 25.4097C12.7933 25.6398 13.057 25.7767 13.3383 25.7767C13.6196 25.7767 13.8832 25.6398 14.0451 25.4097C14.4772 24.7955 15.1824 24.4287 15.931 24.4287C16.5953 24.4287 17.2247 24.7178 17.66 25.2117V29.6143H9.01744V25.2107ZM3.25572 28.1738C3.25572 25.7683 4.99945 23.7638 7.28892 23.3543V24.8886C7.28869 24.8959 7.28892 24.903 7.28892 24.9103V30.0618C6.53679 30.6821 5.89424 31.4045 5.37281 32.2027C4.06732 31.2969 3.25572 29.7894 3.25572 28.1738ZM21.0183 36.1563L23.2853 50.359C22.9535 50.509 22.5935 50.5869 22.2233 50.5869C21.3067 50.5869 20.4762 50.1176 20.0017 49.3313C19.8452 49.0722 19.5646 48.9137 19.2618 48.9137C18.9589 48.9137 18.6783 49.0722 18.5219 49.3313C18.0473 50.1176 17.2168 50.5869 16.3003 50.5869C15.3837 50.5869 14.5532 50.1176 14.0786 49.3313C13.9223 49.0722 13.6416 48.9137 13.3387 48.9137C13.0359 48.9137 12.7553 49.0722 12.5988 49.3313C12.1243 50.1176 11.2938 50.5869 10.3772 50.5869C9.46063 50.5869 8.63014 50.1176 8.1556 49.3313C7.99911 49.0722 7.71852 48.9137 7.41568 48.9137C7.11285 48.9137 6.83225 49.0722 6.67576 49.3313C6.20123 50.1176 5.37073 50.5869 4.45416 50.5869C4.08391 50.5869 3.72403 50.509 3.39227 50.359L5.65928 36.1563C5.79168 35.3269 6.05615 34.5368 6.43492 33.8081C6.44541 33.7895 6.45716 33.772 6.4665 33.7524C6.47168 33.7415 6.4756 33.7302 6.48033 33.7191C6.96661 32.8124 7.63509 32.0054 8.45602 31.3428H18.2216C19.7243 32.5557 20.7147 34.2539 21.0183 36.1563Z" fill="#C6D9FF"/>
<path d="M15.9121 5.99133C16.4609 5.3792 16.7954 4.57129 16.7954 3.68652C16.7954 1.78032 15.2446 0.229492 13.3384 0.229492C11.4322 0.229492 9.88135 1.78032 9.88135 3.68652C9.88135 4.57129 10.2159 5.3792 10.7646 5.99133C8.71241 6.96033 7.28857 9.04907 7.28857 11.4648C7.28857 14.8006 10.0025 17.5146 13.3384 17.5146C16.6743 17.5146 19.3882 14.8006 19.3882 11.4648C19.3882 9.04907 17.9643 6.96033 15.9121 5.99133ZM13.3384 1.95801C14.2915 1.95801 15.0669 2.73342 15.0669 3.68652C15.0669 4.63963 14.2915 5.41504 13.3384 5.41504C12.3853 5.41504 11.6099 4.63974 11.6099 3.68652C11.6099 2.73342 12.3853 1.95801 13.3384 1.95801ZM13.3384 7.14355C15.408 7.14355 17.1417 8.60634 17.5617 10.5522C15.2393 10.3217 13.116 9.26018 11.5353 7.53915C12.0845 7.28587 12.695 7.14355 13.3384 7.14355ZM13.3384 15.7861C10.9556 15.7861 9.01709 13.8477 9.01709 11.4648C9.01709 10.3513 9.44058 9.33497 10.1347 8.56797C12.0581 10.7347 14.6953 12.0531 17.5797 12.2899C17.1934 14.2793 15.439 15.7861 13.3384 15.7861Z" fill="#C6D9FF"/>
</g>
<defs>
<linearGradient id="paint0_linear" x1="27.5684" y1="44.0991" x2="59.8917" y2="43.762" gradientUnits="userSpaceOnUse">
<stop stop-color="#5529CF"/>
<stop offset="1" stop-color="#9745FF"/>
</linearGradient>
<linearGradient id="paint1_linear" x1="24.4466" y1="12.7067" x2="33.359" y2="12.6006" gradientUnits="userSpaceOnUse">
<stop stop-color="#5529CF"/>
<stop offset="1" stop-color="#9745FF"/>
</linearGradient>
<clipPath id="clip0">
<rect width="59" height="59" fill="white" transform="translate(0.375 0.229492)"/>
</clipPath>
</defs>
</svg>
