<?xml version="1.0" encoding="iso-8859-1"?>
<!-- Generator: Adobe Illustrator 19.0.0, SVG Export Plug-In . SVG Version: 6.00 Build 0)  -->
<svg version="1.1" id="Capa_1" xmlns="http://www.w3.org/2000/svg" xmlns:xlink="http://www.w3.org/1999/xlink" x="0px" y="0px"
	 viewBox="0 0 480 480" style="enable-background:new 0 0 480 480;" xml:space="preserve">
<path style="fill:#FBB540;" d="M384,120h16c8.837,0,16,7.163,16,16v48l0,0h-48l0,0v-48C368,127.163,375.163,120,384,120z"/>
<path style="fill:#EA9D2D;" d="M368,152h48v40h-48V152z"/>
<path style="fill:#DBDBDB;" d="M152,136h32v64h-32V136z"/>
<path style="fill:#69B0BB;" d="M104,192c-4.418-0.001-7.999-3.583-7.998-8.002c0-2.121,0.843-4.154,2.342-5.654L112,164.688V144
	c0-4.418,3.582-8,8-8s8,3.582,8,8v24c0,2.122-0.844,4.156-2.344,5.656l-16,16C108.156,191.156,106.122,192,104,192L104,192z"/>
<path style="fill:#4799CF;" d="M248,72h48v208h-48V72z"/>
<path style="fill:#A8A8A8;" d="M136,8h272v64H136V8z"/>
<path style="fill:#428DC5;" d="M136,40h272v32H136V40z"/>
<path style="fill:#EA9D2D;" d="M88,280h384v192H88V280z"/>
<path style="fill:#DA922A;" d="M88,280h384v56H88V280z"/>
<path style="fill:#D85021;" d="M312,272h-80c-4.418,0-8,3.582-8,8v90.968c-0.228,13.329,8.748,25.061,21.672,28.328
	c9.417,2.163,19.283-0.669,26.12-7.496l0.208-0.216c10.822,11.046,28.549,11.229,39.596,0.407c3.31-3.242,5.763-7.255,7.14-11.679
	c0.825-1.287,1.263-2.783,1.264-4.312v-96C320,275.582,316.418,272,312,272z"/>
<path style="fill:#D970A2;" d="M456,278.12v-16.944c-0.003-7.659-2.534-15.103-7.2-21.176c4.666-6.073,7.197-13.517,7.2-21.176
	v-0.944c0.502-18.186-13.815-33.344-32-33.88h-64c-18.185,0.536-32.502,15.694-32,33.88v0.944c0.003,7.659,2.534,15.103,7.2,21.176
	c-4.666,6.073-7.197,13.517-7.2,21.176V280h128V278.12z"/>
<path style="fill:#F3AF3E;" d="M416,280h-48v-32c0-13.255,10.745-24,24-24s24,10.745,24,24V280z"/>
<path style="fill:#428DC5;" d="M248,64h48v56h-48V64z"/>
<path style="fill:#277BAA;" d="M248,72h48v24h-48V72z"/>
<path style="fill:#EAEAE8;" d="M8,248h80v192H8V248z"/>
<g>
	<path style="fill:#A8A8A8;" d="M24,288H8c-4.418,0-8-3.582-8-8s3.582-8,8-8h16c4.418,0,8,3.582,8,8S28.418,288,24,288z"/>
	<path style="fill:#A8A8A8;" d="M24,320H8c-4.418,0-8-3.582-8-8s3.582-8,8-8h16c4.418,0,8,3.582,8,8S28.418,320,24,320z"/>
	<path style="fill:#A8A8A8;" d="M24,352H8c-4.418,0-8-3.582-8-8s3.582-8,8-8h16c4.418,0,8,3.582,8,8S28.418,352,24,352z"/>
	<path style="fill:#A8A8A8;" d="M24,384H8c-4.418,0-8-3.582-8-8s3.582-8,8-8h16c4.418,0,8,3.582,8,8S28.418,384,24,384z"/>
	<path style="fill:#A8A8A8;" d="M24,416H8c-4.418,0-8-3.582-8-8s3.582-8,8-8h16c4.418,0,8,3.582,8,8S28.418,416,24,416z"/>
</g>
<path style="fill:#89B140;" d="M56,248h64v192H56V248z"/>
<path style="fill:#8ACED8;" d="M144,192h48c13.255,0,24,10.745,24,24v64l0,0h-96l0,0v-64C120,202.745,130.745,192,144,192z"/>
<path style="fill:#EAEAE8;" d="M104,104h96c8.837,0,16,7.163,16,16v8c0,8.837-7.163,16-16,16h-96l0,0V104L104,104z"/>
<path style="fill:#69B0BB;" d="M104,144l-32-8v-24l32-8V144z"/>
<path id="SVGCleanerId_0" style="fill:#F26B32;" d="M472,272H312c-4.418,0-8,3.582-8,8v116
	c0.003,15.464,12.542,27.997,28.006,27.994c7.421-0.002,14.537-2.949,19.786-8.194l0.208-0.216
	c10.785,11.046,28.482,11.257,39.527,0.473c0.159-0.156,0.317-0.313,0.473-0.473c10.785,11.046,28.482,11.257,39.527,0.473
	c0.159-0.156,0.317-0.313,0.473-0.473c10.823,11.046,28.55,11.227,39.596,0.404c5.372-5.264,8.401-12.467,8.404-19.988V280
	C480,275.582,476.418,272,472,272z"/>
<g>
	<path id="SVGCleanerId_0_1_" style="fill:#F26B32;" d="M472,272H312c-4.418,0-8,3.582-8,8v116
		c0.003,15.464,12.542,27.997,28.006,27.994c7.421-0.002,14.537-2.949,19.786-8.194l0.208-0.216
		c10.785,11.046,28.482,11.257,39.527,0.473c0.159-0.156,0.317-0.313,0.473-0.473c10.785,11.046,28.482,11.257,39.527,0.473
		c0.159-0.156,0.317-0.313,0.473-0.473c10.823,11.046,28.55,11.227,39.596,0.404c5.372-5.264,8.401-12.467,8.404-19.988V280
		C480,275.582,476.418,272,472,272z"/>
</g>
<g>
	<path style="fill:#D85021;" d="M432,408c-4.418,0-8-3.582-8-8v-64c0-4.418,3.582-8,8-8s8,3.582,8,8v64
		C440,404.418,436.418,408,432,408z"/>
	<path style="fill:#D85021;" d="M392,408c-4.418,0-8-3.582-8-8v-64c0-4.418,3.582-8,8-8s8,3.582,8,8v64
		C400,404.418,396.418,408,392,408z"/>
	<path style="fill:#D85021;" d="M352,408c-4.418,0-8-3.582-8-8v-64c0-4.418,3.582-8,8-8s8,3.582,8,8v64
		C360,404.418,356.418,408,352,408z"/>
</g>
<path style="fill:#F26B32;" d="M272,384c-4.418,0-8-3.582-8-8v-64c0-4.418,3.582-8,8-8s8,3.582,8,8v64
	C280,380.418,276.418,384,272,384z"/>
<path style="fill:#89B140;" d="M176,248h-24h-40v32h40v120h32V248H176z"/>
<path style="fill:#79A73A;" d="M120,264h32v16h-32V264z"/>
<g>
</g>
<g>
</g>
<g>
</g>
<g>
</g>
<g>
</g>
<g>
</g>
<g>
</g>
<g>
</g>
<g>
</g>
<g>
</g>
<g>
</g>
<g>
</g>
<g>
</g>
<g>
</g>
<g>
</g>
</svg>
