<?xml version="1.0" encoding="iso-8859-1"?>
<!-- Generator: Adobe Illustrator 19.0.0, SVG Export Plug-In . SVG Version: 6.00 Build 0)  -->
<svg version="1.1" id="Capa_1" xmlns="http://www.w3.org/2000/svg" xmlns:xlink="http://www.w3.org/1999/xlink" x="0px" y="0px"
	 viewBox="0 0 512 512" style="enable-background:new 0 0 512 512;" xml:space="preserve">
<polyline style="fill:#FFEBDC;" points="317.26,149.885 194.734,149.885 194.733,149.887 133.469,256 194.722,362.094 "/>
<path style="fill:#6CBEFF;" d="M154.25,79.76H84.38c-32,31.16-55.55,70.97-66.86,115.66L52.5,256h80.969l61.264-106.113
	L154.25,79.76z"/>
<path style="fill:#00A2DE;" d="M133.469,256H52.47l-34.95,60.54v0.01c11.3,44.7,34.85,84.52,66.86,115.69h69.84l40.502-70.146
	L133.469,256z"/>
<path style="fill:#92EDF0;" d="M194.734,362.115l-0.001-0.003L154.25,432.24l34.98,60.59C210.46,498.8,232.86,502,256,502
	s45.53-3.2,66.76-9.17h0.01l34.98-60.59l-40.49-70.125H194.734z"/>
<path style="fill:#6CBEFF;" d="M459.5,256h-80.969l-61.264,106.113l40.483,70.127h69.87c32-31.16,55.55-70.97,66.86-115.66
	L459.5,256z"/>
<path style="fill:#00A2DE;" d="M427.62,79.76h-69.84l-40.502,70.146L378.531,256h80.999l34.95-60.54v-0.01
	C483.18,150.75,459.63,110.93,427.62,79.76z"/>
<path style="fill:#92EDF0;" d="M194.734,149.885H317.26l40.49-70.125l-34.98-60.59C301.54,13.2,279.14,10,256,10
	s-45.54,3.2-66.77,9.17l-34.98,60.59l40.483,70.127L194.734,149.885z"/>
<g>
	<path style="fill:#FFEBDC;" d="M494.48,195.46L494.48,195.46L459.53,256h-0.03l34.98,60.58C499.39,297.2,502,276.91,502,256
		C502,235.11,499.39,214.83,494.48,195.46z"/>
	<path style="fill:#FFEBDC;" d="M154.25,79.76l34.98-60.59c-40.02,11.26-75.89,32.39-104.85,60.59H154.25z"/>
	<path style="fill:#FFEBDC;" d="M17.52,316.54L52.47,256h0.03l-34.98-60.58l0,0C12.61,214.8,10,235.09,10,256
		C10,276.89,12.61,297.17,17.52,316.54L17.52,316.54z"/>
	<path style="fill:#FFEBDC;" d="M154.22,432.24H84.38l0,0c28.96,28.2,64.83,49.33,104.85,60.59l0,0l-34.98-60.59l40.483-70.127
		l0.001,0.003H317.26l40.49,70.125l-40.483-70.127L378.531,256l-61.254-106.094"/>
	<path style="fill:#FFEBDC;" d="M357.78,79.76h69.84c-28.96-28.2-64.83-49.33-104.85-60.59l34.98,60.59"/>
	<path style="fill:#FFEBDC;" d="M427.62,432.24h-69.87l-34.98,60.59h-0.01c0.01,0,0.01,0,0,0h0.01
		C362.79,481.57,398.66,460.44,427.62,432.24L427.62,432.24z"/>
</g>
<path d="M512,256c0-21.273-2.624-42.431-7.799-62.887c-0.009-0.038-0.016-0.076-0.025-0.114
	c-11.552-45.692-35.612-87.328-69.579-120.403C404.039,42.84,366.32,21.042,325.515,9.555c-0.013-0.004-0.025-0.008-0.038-0.012
	C302.957,3.211,279.582,0,256,0s-46.957,3.211-69.477,9.543c-0.013,0.004-0.025,0.008-0.038,0.012
	C145.68,21.042,107.961,42.84,77.403,72.596c-33.957,33.065-58.017,74.689-69.578,120.371c-0.001,0.005-0.002,0.01-0.003,0.014
	C2.632,213.476,0,234.678,0,256c0,21.273,2.624,42.431,7.799,62.887c0.009,0.038,0.016,0.076,0.025,0.114
	c11.552,45.692,35.612,87.328,69.579,120.403c30.558,29.756,68.277,51.554,109.082,63.041c0.013,0.004,0.025,0.008,0.038,0.012
	C209.043,508.789,232.418,512,256,512c23.496,0,46.789-3.19,69.239-9.479c0.074-0.019,0.146-0.041,0.219-0.061
	c0.069-0.019,0.139-0.035,0.208-0.056c40.747-11.498,78.41-33.279,108.931-62.999c33.957-33.065,58.017-74.689,69.578-120.371
	c0.001-0.005,0.002-0.01,0.003-0.014C509.369,298.524,512,277.322,512,256z M478.008,268.055l-6.946-12.029l18.724-32.433
	C491.258,234.3,492,245.132,492,256c0,10.882-0.742,21.729-2.217,32.447L478.008,268.055z M483.768,194.016l-1.614,2.796
	L453.757,246h-69.452l-27.74-48.047l-27.74-48.047l34.73-60.146h59.953C452.365,118.828,473.113,154.722,483.768,194.016z
	 M200.508,352.115L145.016,256l55.493-96.115h110.983L366.984,256l-55.492,96.115H200.508z M400.943,69.76h-37.42l-2.923-5.064
	l-15.83-27.42C364.84,45.445,383.779,56.396,400.943,69.76z M316.169,27.738l30.034,52.022l-34.716,60.125H200.506L165.797,79.76
	l30.034-52.022C215.385,22.602,235.605,20,256,20S296.615,22.602,316.169,27.738z M167.23,37.275l-15.83,27.42l-2.924,5.064h-37.42
	C128.221,56.396,147.16,45.445,167.23,37.275z M88.493,89.76h59.983l17.355,30.064l17.355,30.064L127.695,246H58.274l-30.038-52.021
	C38.9,154.7,59.646,118.816,88.493,89.76z M33.992,243.945l6.946,12.029l-18.724,32.433C20.742,277.7,20,266.868,20,256
	c0-10.882,0.742-21.729,2.217-32.447L33.992,243.945z M28.232,317.984l1.614-2.796L58.243,266h69.452l55.48,96.094l-34.729,60.146
	H88.493C59.635,393.172,38.887,357.278,28.232,317.984z M111.057,442.24h37.42l2.924,5.064l15.83,27.42
	C147.16,466.555,128.221,455.603,111.057,442.24z M195.831,484.262l-30.034-52.021l34.709-60.125h110.981l34.715,60.126
	L316.17,484.26C296.614,489.397,276.393,492,256,492C235.605,492,215.385,489.398,195.831,484.262z M344.77,474.725l15.83-27.42
	l2.923-5.064h37.42C383.779,455.603,364.84,466.555,344.77,474.725z M423.507,422.24h-59.983l-34.71-60.127L384.305,266h69.422
	l30.038,52.021C473.1,357.3,452.353,393.185,423.507,422.24z"/>
<path d="M294.172,332.115h-76.344c-3.572,0-6.874-1.906-8.66-5L170.996,261c-1.786-3.094-1.786-6.906,0-10l38.172-66.115
	c2.763-4.783,8.876-6.421,13.66-3.66c4.783,2.762,6.422,8.877,3.66,13.66L191.203,256l32.398,56.115h64.797l17.082-29.586
	c2.762-4.782,8.875-6.422,13.66-3.66c4.783,2.762,6.422,8.877,3.66,13.66l-19.969,34.586
	C301.046,330.209,297.744,332.115,294.172,332.115z"/>
<path d="M332.886,266.542c-2.56,0-5.118-0.977-7.071-2.929l-0.542-0.542c-3.905-3.905-3.905-10.237,0-14.143
	c3.906-3.904,10.236-3.904,14.143,0l0.542,0.542c3.905,3.905,3.905,10.237,0,14.143
	C338.004,265.565,335.445,266.542,332.886,266.542z"/>
<g>
</g>
<g>
</g>
<g>
</g>
<g>
</g>
<g>
</g>
<g>
</g>
<g>
</g>
<g>
</g>
<g>
</g>
<g>
</g>
<g>
</g>
<g>
</g>
<g>
</g>
<g>
</g>
<g>
</g>
</svg>
