<svg width="464" height="148" viewBox="0 0 464 148" fill="none" xmlns="http://www.w3.org/2000/svg">
<path d="M61.8 3.18847V26.1885H60C53.7333 26.1885 48.9333 27.3218 45.6 29.5885C42.2667 31.7218 40.6 35.7885 40.6 41.7885V44.1885H61.8V68.7885H40.4L40.4 144.388H15L15 68.7885H2L2 44.1885H15.4V40.9885C15.4 28.1885 19.4 18.4551 27.4 11.7885C35.5333 5.1218 46 2.18847 58.8 2.98847L61.8 3.18847ZM90.0547 144.188L90.0547 4.18847L115.655 4.18847L115.655 144.188H90.0547ZM194.02 42.7885C208.287 42.7885 220.42 47.8551 230.42 57.9885C240.42 67.9885 245.42 80.0551 245.42 94.1885C245.42 108.322 240.42 120.388 230.42 130.388C220.42 140.388 208.287 145.388 194.02 145.388C179.754 145.388 167.62 140.388 157.62 130.388C147.754 120.388 142.82 108.322 142.82 94.1885C142.82 79.9218 147.82 67.7885 157.82 57.7885C167.82 47.7885 179.887 42.7885 194.02 42.7885ZM212.02 74.9885C206.954 69.9218 200.954 67.3885 194.02 67.3885C187.087 67.3885 181.02 69.9218 175.82 74.9885C170.754 79.9218 168.22 86.3218 168.22 94.1885C168.22 102.055 170.754 108.455 175.82 113.388C180.887 118.322 186.954 120.788 194.02 120.788C200.954 120.788 206.954 118.322 212.02 113.388C217.22 108.455 219.82 102.055 219.82 94.1885C219.82 86.3218 217.22 79.9218 212.02 74.9885ZM318.63 42.7885C332.896 42.7885 345.03 47.8551 355.03 57.9885C365.03 67.9885 370.03 80.0551 370.03 94.1885C370.03 108.322 365.03 120.388 355.03 130.388C345.03 140.388 332.896 145.388 318.63 145.388C304.363 145.388 292.23 140.388 282.23 130.388C272.363 120.388 267.43 108.322 267.43 94.1885C267.43 79.9218 272.43 67.7885 282.43 57.7885C292.43 47.7885 304.496 42.7885 318.63 42.7885ZM336.63 74.9885C331.563 69.9218 325.563 67.3885 318.63 67.3885C311.696 67.3885 305.63 69.9218 300.43 74.9885C295.363 79.9218 292.83 86.3218 292.83 94.1885C292.83 102.055 295.363 108.455 300.43 113.388C305.496 118.322 311.563 120.788 318.63 120.788C325.563 120.788 331.563 118.322 336.63 113.388C341.83 108.455 344.43 102.055 344.43 94.1885C344.43 86.3218 341.83 79.9218 336.63 74.9885ZM461.639 67.3885H451.439C442.372 67.3885 435.439 70.2551 430.639 75.9885C425.839 81.5885 423.439 89.2551 423.439 98.9885L423.439 144.188H398.039L398.039 44.1885H415.039L417.839 65.7885C425.972 50.4551 439.172 42.7885 457.439 42.7885H461.639V67.3885Z" fill="white"/>
<path d="M61.8 3.18847H63.8V1.31736L61.933 1.1929L61.8 3.18847ZM61.8 26.1885V28.1885H63.8V26.1885H61.8ZM45.6 29.5885L46.6781 31.273L46.7016 31.258L46.7246 31.2423L45.6 29.5885ZM40.6 44.1885H38.6V46.1885H40.6V44.1885ZM61.8 44.1885H63.8V42.1885H61.8V44.1885ZM61.8 68.7885V70.7885H63.8V68.7885H61.8ZM40.4 68.7885V66.7885H38.4V68.7885H40.4ZM40.4 144.388V146.388H42.4V144.388H40.4ZM15 144.388H13V146.388H15V144.388ZM15 68.7885H17V66.7885H15V68.7885ZM2 68.7885H9.53674e-07L9.53674e-07 70.7885H2L2 68.7885ZM2 44.1885V42.1885H9.53674e-07V44.1885H2ZM15.4 44.1885V46.1885H17.4V44.1885H15.4ZM27.4 11.7885L26.1321 10.2417L26.1259 10.2468L26.1196 10.252L27.4 11.7885ZM58.8 2.98847L58.933 0.992882L58.9248 0.992367L58.8 2.98847ZM59.8 3.18847V26.1885H63.8V3.18847H59.8ZM61.8 24.1885H60V28.1885H61.8V24.1885ZM60 24.1885C53.5384 24.1885 48.2775 25.3491 44.4754 27.9346L46.7246 31.2423C49.5891 29.2945 53.9282 28.1885 60 28.1885V24.1885ZM44.5219 27.9039C40.3577 30.569 38.6 35.4803 38.6 41.7885H42.6C42.6 36.0967 44.1756 32.8746 46.6781 31.273L44.5219 27.9039ZM38.6 41.7885V44.1885H42.6V41.7885H38.6ZM40.6 46.1885H61.8V42.1885H40.6V46.1885ZM59.8 44.1885V68.7885H63.8V44.1885H59.8ZM61.8 66.7885H40.4V70.7885H61.8V66.7885ZM38.4 68.7885L38.4 144.388H42.4L42.4 68.7885H38.4ZM40.4 142.388H15V146.388H40.4V142.388ZM17 144.388L17 68.7885H13L13 144.388H17ZM15 66.7885H2L2 70.7885H15V66.7885ZM4 68.7885L4 44.1885H9.53674e-07L9.53674e-07 68.7885H4ZM2 46.1885H15.4V42.1885H2V46.1885ZM17.4 44.1885V40.9885H13.4V44.1885H17.4ZM17.4 40.9885C17.4 28.6331 21.2396 19.5256 28.6804 13.3249L26.1196 10.252C17.5604 17.3847 13.4 27.7438 13.4 40.9885H17.4ZM28.6679 13.3353C36.3286 7.05597 46.263 4.20881 58.6752 4.98458L58.9248 0.992367C45.737 0.168137 34.7381 3.18764 26.1321 10.2417L28.6679 13.3353ZM58.667 4.98404L61.667 5.18404L61.933 1.1929L58.933 0.992901L58.667 4.98404ZM90.0547 144.188H88.0547V146.188H90.0547V144.188ZM90.0547 4.18847V2.18847H88.0547V4.18847H90.0547ZM115.655 4.18847H117.655V2.18847H115.655V4.18847ZM115.655 144.188V146.188H117.655V144.188H115.655ZM92.0547 144.188L92.0547 4.18847H88.0547L88.0547 144.188H92.0547ZM90.0547 6.18847L115.655 6.18847V2.18847L90.0547 2.18847V6.18847ZM113.655 4.18847L113.655 144.188H117.655L117.655 4.18847H113.655ZM115.655 142.188H90.0547V146.188H115.655V142.188ZM230.42 57.9885L228.997 59.3933L229.006 59.4027L230.42 57.9885ZM230.42 130.388L231.835 131.803L230.42 130.388ZM157.62 130.388L156.197 131.793L156.206 131.803L157.62 130.388ZM157.82 57.7885L159.235 59.2027L157.82 57.7885ZM212.02 74.9885L210.606 76.4027L210.625 76.4213L210.644 76.4394L212.02 74.9885ZM175.82 74.9885L177.216 76.4214L177.216 76.4209L175.82 74.9885ZM175.82 113.388L177.216 111.956L175.82 113.388ZM212.02 113.388L210.644 111.938L210.634 111.946L210.625 111.956L212.02 113.388ZM194.02 44.7885C207.753 44.7885 219.373 49.6417 228.997 59.3933L231.844 56.5837C221.467 46.0686 208.821 40.7885 194.02 40.7885L194.02 44.7885ZM229.006 59.4027C238.631 69.0279 243.42 80.5859 243.42 94.1885H247.42C247.42 79.5243 242.209 66.9491 231.835 56.5743L229.006 59.4027ZM243.42 94.1885C243.42 107.791 238.631 119.349 229.006 128.974L231.835 131.803C242.209 121.428 247.42 108.853 247.42 94.1885H243.42ZM229.006 128.974C219.385 138.595 207.762 143.388 194.02 143.388V147.388C208.812 147.388 221.456 142.181 231.835 131.803L229.006 128.974ZM194.02 143.388C180.279 143.388 168.656 138.595 159.035 128.974L156.206 131.803C166.585 142.181 179.228 147.388 194.02 147.388V143.388ZM159.044 128.984C149.549 119.361 144.82 107.8 144.82 94.1885H140.82C140.82 108.844 145.958 121.416 156.197 131.793L159.044 128.984ZM144.82 94.1885C144.82 80.447 149.613 68.8239 159.235 59.2027L156.406 56.3743C146.027 66.753 140.82 79.3966 140.82 94.1885H144.82ZM159.235 59.2027C168.86 49.5775 180.418 44.7885 194.02 44.7885L194.02 40.7885C179.356 40.7885 166.781 45.9995 156.406 56.3743L159.235 59.2027ZM213.435 73.5743C208.007 68.1465 201.504 65.3885 194.02 65.3885V69.3885C200.404 69.3885 205.9 71.6971 210.606 76.4027L213.435 73.5743ZM194.02 65.3885C186.539 65.3885 179.979 68.1445 174.425 73.556L177.216 76.4209C182.062 71.6991 187.635 69.3885 194.02 69.3885V65.3885ZM174.425 73.5555C168.926 78.9095 166.22 85.8488 166.22 94.1885H170.22C170.22 86.7948 172.581 80.9341 177.216 76.4214L174.425 73.5555ZM166.22 94.1885C166.22 102.528 168.926 109.467 174.425 114.821L177.216 111.956C172.581 107.443 170.22 101.582 170.22 94.1885H166.22ZM174.425 114.821C179.865 120.118 186.432 122.788 194.02 122.788V118.788C187.475 118.788 181.909 116.526 177.216 111.956L174.425 114.821ZM194.02 122.788C201.486 122.788 207.984 120.11 213.416 114.821L210.625 111.956C205.924 116.533 200.421 118.788 194.02 118.788V122.788ZM213.397 114.839C219.036 109.489 221.82 102.545 221.82 94.1885H217.82C217.82 101.566 215.405 107.421 210.644 111.938L213.397 114.839ZM221.82 94.1885C221.82 85.8324 219.036 78.8875 213.397 73.5375L210.644 76.4394C215.405 80.9561 217.82 86.8112 217.82 94.1885H221.82ZM355.03 57.9885L353.606 59.3933L353.615 59.4027L355.03 57.9885ZM355.03 130.388L356.444 131.803L355.03 130.388ZM282.23 130.388L280.806 131.793L280.815 131.803L282.23 130.388ZM282.43 57.7885L283.844 59.2027L282.43 57.7885ZM336.63 74.9885L335.215 76.4027L335.234 76.4213L335.253 76.4394L336.63 74.9885ZM300.43 74.9885L301.825 76.4214L301.825 76.4209L300.43 74.9885ZM300.43 113.388L301.825 111.956L300.43 113.388ZM336.63 113.388L335.253 111.938L335.244 111.946L335.234 111.956L336.63 113.388ZM318.63 44.7885C332.363 44.7885 343.983 49.6417 353.606 59.3933L356.453 56.5837C346.077 46.0686 333.43 40.7885 318.63 40.7885V44.7885ZM353.615 59.4027C363.241 69.0279 368.03 80.5859 368.03 94.1885H372.03C372.03 79.5243 366.819 66.9491 356.444 56.5743L353.615 59.4027ZM368.03 94.1885C368.03 107.791 363.241 119.349 353.615 128.974L356.444 131.803C366.819 121.428 372.03 108.853 372.03 94.1885H368.03ZM353.615 128.974C343.994 138.595 332.371 143.388 318.63 143.388V147.388C333.422 147.388 346.065 142.181 356.444 131.803L353.615 128.974ZM318.63 143.388C304.888 143.388 293.265 138.595 283.644 128.974L280.815 131.803C291.194 142.181 303.838 147.388 318.63 147.388V143.388ZM283.653 128.984C274.158 119.361 269.43 107.8 269.43 94.1885H265.43C265.43 108.844 270.568 121.416 280.806 131.793L283.653 128.984ZM269.43 94.1885C269.43 80.447 274.223 68.8239 283.844 59.2027L281.015 56.3743C270.637 66.753 265.43 79.3966 265.43 94.1885H269.43ZM283.844 59.2027C293.469 49.5775 305.027 44.7885 318.63 44.7885V40.7885C303.966 40.7885 291.39 45.9995 281.015 56.3743L283.844 59.2027ZM338.044 73.5743C332.616 68.1465 326.113 65.3885 318.63 65.3885V69.3885C325.013 69.3885 330.51 71.6971 335.215 76.4027L338.044 73.5743ZM318.63 65.3885C311.148 65.3885 304.588 68.1445 299.034 73.556L301.825 76.4209C306.671 71.6991 312.244 69.3885 318.63 69.3885V65.3885ZM299.034 73.5555C293.536 78.9095 290.83 85.8488 290.83 94.1885H294.83C294.83 86.7948 297.19 80.9341 301.825 76.4214L299.034 73.5555ZM290.83 94.1885C290.83 102.528 293.536 109.467 299.034 114.821L301.825 111.956C297.19 107.443 294.83 101.582 294.83 94.1885H290.83ZM299.034 114.821C304.474 120.118 311.041 122.788 318.63 122.788V118.788C312.085 118.788 306.518 116.526 301.825 111.956L299.034 114.821ZM318.63 122.788C326.096 122.788 332.593 120.11 338.025 114.821L335.234 111.956C330.533 116.533 325.03 118.788 318.63 118.788V122.788ZM338.006 114.839C343.645 109.489 346.43 102.545 346.43 94.1885H342.43C342.43 101.566 340.014 107.421 335.253 111.938L338.006 114.839ZM346.43 94.1885C346.43 85.8324 343.645 78.8875 338.006 73.5375L335.253 76.4394C340.014 80.9561 342.43 86.8112 342.43 94.1885H346.43ZM461.639 67.3885V69.3885H463.639V67.3885H461.639ZM430.639 75.9885L432.158 77.2901L432.165 77.2812L432.173 77.2723L430.639 75.9885ZM423.439 144.188V146.188H425.439V144.188H423.439ZM398.039 144.188H396.039V146.188H398.039V144.188ZM398.039 44.1885V42.1885H396.039V44.1885H398.039ZM415.039 44.1885L417.022 43.9314L416.797 42.1885H415.039V44.1885ZM417.839 65.7885L415.856 66.0456L416.663 72.2737L419.606 66.7257L417.839 65.7885ZM461.639 42.7885H463.639V40.7885H461.639V42.7885ZM461.639 65.3885H451.439V69.3885H461.639V65.3885ZM451.439 65.3885C441.919 65.3885 434.366 68.4211 429.106 74.7046L432.173 77.2723C436.512 72.0892 442.826 69.3885 451.439 69.3885V65.3885ZM429.121 74.6869C423.922 80.7517 421.439 88.9324 421.439 98.9885H425.439C425.439 89.5778 427.756 82.4252 432.158 77.2901L429.121 74.6869ZM421.439 98.9885L421.439 144.188H425.439L425.439 98.9885H421.439ZM423.439 142.188H398.039V146.188H423.439V142.188ZM400.039 144.188L400.039 44.1885H396.039L396.039 144.188H400.039ZM398.039 46.1885H415.039V42.1885H398.039V46.1885ZM413.056 44.4456L415.856 66.0456L419.822 65.5314L417.022 43.9314L413.056 44.4456ZM419.606 66.7257C423.522 59.3428 428.609 53.8889 434.844 50.2679C441.083 46.6437 448.589 44.7885 457.439 44.7885V40.7885C448.022 40.7885 439.795 42.7665 432.835 46.809C425.869 50.8547 420.289 56.9008 416.072 64.8513L419.606 66.7257ZM457.439 44.7885H461.639V40.7885H457.439V44.7885ZM459.639 42.7885V67.3885H463.639V42.7885H459.639Z" fill="#EDF3FF"/>
</svg>
