<?xml version="1.0" encoding="UTF-8"?>
<svg width="124px" height="257px" viewBox="0 0 124 257" version="1.1" xmlns="http://www.w3.org/2000/svg" xmlns:xlink="http://www.w3.org/1999/xlink">
    <!-- Generator: Sketch 51.3 (57544) - http://www.bohemiancoding.com/sketch -->
    <title>Group 24</title>
    <desc>Created with Sketch.</desc>
    <defs></defs>
    <g id="Page-1" stroke="none" stroke-width="1" fill="none" fill-rule="evenodd">
        <g id="Group-24">
            <path d="M72.4434197,257 C45.0075231,257 15.9932424,252.884744 12.8813025,245.166352 C12.8813025,245.166352 6.43782412,236 28.3964763,236 C29.0252857,236 29.6756005,236.006097 30.3516615,236.021338 C52.1355434,236.518217 52.9960672,240.066483 69.7415992,240.066483 C71.6649804,240.066483 73.8003878,240.017709 76.2023426,239.914066 C84.9711434,239.536072 95.2907649,238.874583 104.092884,238.874583 C118.665147,238.874583 129.075637,240.688344 121.409373,248.607926 C115.902747,254.293076 94.6910334,257 72.4434197,257" id="Fill-28" fill="#CDD9E4" opacity="0.400837054"></path>
            <path d="M93.0321287,11.7223328 C91.4699981,7.65148663 87.9710794,4.68101486 83.6847452,3.24220195 C81.0780191,2.36705388 77.306045,1.36641401 74.6897937,2.52129798 C71.3496281,3.99455374 67.5554286,6.44299161 66.8061139,10.1011225 C66.558459,11.3212982 66.1266505,12.7714922 66.2885787,14.0315017 C66.3076291,14.1803548 66.3901807,14.34598 66.402881,14.4864469 C66.4981328,15.6194672 64.8947264,16.9085285 64.2787643,17.7950577 C63.8914067,18.34824 62.4721538,20.1126127 63.2087683,20.7993734 C64.2406635,21.7628748 64.2438386,20.5834316 64.2406635,21.7634738 C64.2406635,22.7599207 64.1898625,23.7581645 64.2692391,24.7534133 C64.3517907,25.7420731 64.8947264,26.6357903 64.6915224,27.6256481 C64.4502176,28.825757 62.0498705,32.2727382 64.1930376,33.0086173 C66.660061,33.8547136 72.4894755,31.0714313 74.2421099,34.1245659 C75.9947443,37.178 75.674063,38.5146824 75.674063,38.5146824 L76.9536131,37.7425634 C78.528444,39.9412157 81.2177218,42 81.8051083,42 C82.8465288,42 90.1745726,38.8818732 90.1015462,36.687414 C90.0094694,33.9526511 90.8445108,30.8147571 91.2382185,28.0623236 C91.5970006,25.5650667 91.7875043,22.9800554 92.7114474,20.6064934 C92.8860759,20.1605332 93.0797547,19.7190657 93.3242345,19.3018578 C94.575209,17.148131 93.8576449,13.8742626 93.0321287,11.7223328" id="Fill-191" fill="#F8D2C3"></path>
            <path d="M15.0539566,14.4696203 C15.0539566,14.5087639 15.0509183,14.5509186 15.0509183,14.5930733 C14.9445759,18.3752521 17.6578257,20.9102544 18.4781812,18.676357 C18.7364413,17.9714704 18.9460877,17.2427965 19.137504,16.6044541 C19.5446434,15.2196726 19.8545554,14.26788 20.3558838,14.9694544 C20.6080672,15.3247582 20.5746453,16.1829072 20.4470344,17.2879623 L20.4470344,17.2909733 C20.2100428,19.3806414 19.6512896,22.3495359 20.0854703,24.4873807 C20.6749109,27.38401 27.1830645,36.2515497 28.6870496,38.2722647 C28.8875809,38.539947 29,38.6874884 29,38.6874884 L20.8450587,50 C20.8450587,50 20.3589222,47.5520171 19.635794,44.3121282 C18.3505704,38.5700575 16.3148734,30.3381503 14.902039,28.8567141 C12.6901175,26.5409162 9.12612862,22.0246437 9.00763283,17.2548407 C8.89217539,12.48835 10.0892867,11.1728226 12.4136273,9.48031188 C14.2582118,8.14039502 14.9050773,9.7633505 15.0357265,12.3772422" id="Fill-192" fill="#F8D2C3"></path>
            <path d="M77.2553272,234 C77.2553272,234 83,243.640089 83,245.401346 C83,247.162603 74.1788259,251.437353 72.6203146,251.183587 C71.0649202,250.932842 71.2145373,247.984322 69.5095259,249.174605 C67.723472,250.419267 67.2216313,252.944844 58.7470701,253.950845 C56.0633136,254.271073 52.5108429,253.005264 52.0436012,250.778769 C51.8494107,249.851315 52.2879758,249.383056 53.6800381,248.210899 C55.8928125,246.346927 58.9075968,246.398284 61.4813224,244.893814 C63.0354699,243.984485 65.9779393,241.81539 65.4948008,239.700673 C64.974258,237.437926 75.6999329,235.00298 77.2553272,234" id="Fill-193" fill="#191F34"></path>
            <path d="M99.9381875,236.016997 C99.9381875,236.791267 102.234808,245.486438 101.98031,247.019615 C101.722745,248.555864 91.9874031,248.638822 91.9874031,247.87377 C91.9874031,247.105645 91.9046144,246.764598 89.8624924,246.764598 C87.8203704,246.764598 81.5590893,249.668109 77.9869089,248.856969 C74.4147285,248.042757 67.2673015,246.758453 71.0970468,244.715241 C74.9237259,242.672029 80.5380283,242.672029 82.3256517,240.880763 C84.113275,239.092568 85.9990183,235 85.9990183,235 L99.9381875,236.016997" id="Fill-194" fill="#191F34"></path>
            <path d="M102.603889,136.486435 C100.571153,145.902963 98.5994607,138.84087 100.601675,160.027756 C102.603889,181.211916 97.5220497,182.557134 98.2026804,193.315851 C98.8772068,204.074569 101.581417,211.47327 100.571153,220.217189 C99.5547854,228.961109 100.784804,233.330039 98.135533,234.005678 C95.7579037,234.611632 86.7540442,237.656552 84.2238071,234.11172 C83.9399566,233.71179 83.7354622,233.233086 83.6347411,232.660459 C83.3234212,230.918341 82.9846319,228.330916 82.6275297,225.407187 C81.8248127,218.726542 80.9518962,210.285599 80.243796,206.083307 C79.2304803,200.038914 76.1813767,181.211916 76.1813767,175.828013 L76.1813767,153.601612 C76.1813767,152.774484 76.1813767,152.292751 76.1813767,152.292751 C76.1813767,152.292751 68.0504339,174.149519 66.3595396,181.211916 C66.1733581,181.987537 66.0878977,182.829814 66.0878977,183.726626 C66.0878977,183.914472 66.0909499,184.105347 66.1001063,184.299253 C66.1031585,184.453771 66.112315,184.611319 66.1245236,184.768867 L66.1245236,184.774927 C66.1275757,184.841582 66.1336801,184.911266 66.1397844,184.980951 C66.151993,185.147589 66.1672538,185.314226 66.1825145,185.483893 L66.1825145,185.489953 C66.2038796,185.689918 66.2282969,185.892912 66.2557663,186.095907 C66.2801835,186.298902 66.3107051,186.501896 66.3412266,186.707921 C66.3839568,186.959392 66.426687,187.213892 66.4724693,187.474453 C66.4999387,187.616852 66.5274081,187.762281 66.5548775,187.91074 C67.1653087,190.992017 68.2823977,194.433837 69.4208518,197.954431 C69.5154686,198.254378 69.6131376,198.551296 69.7108066,198.851243 C69.7810062,199.066357 69.8481536,199.278441 69.915301,199.490525 C70.0373872,199.878336 70.1625256,200.266146 70.2846119,200.653957 C70.3792287,200.953904 70.4707934,201.253852 70.5654102,201.553799 C70.5745667,201.584097 70.5837231,201.611365 70.5898274,201.638633 C70.6691835,201.887074 70.7424352,202.138545 70.8187391,202.386986 L70.8401042,202.456671 C70.9743991,202.908107 71.1086939,203.356513 71.2368845,203.804919 L71.2582495,203.880663 C71.3986487,204.377546 71.5359957,204.871398 71.6672384,205.365251 C71.7252294,205.589454 71.7832203,205.810628 71.8412113,206.034831 L71.8564721,206.101486 C71.9083587,206.30145 71.9571932,206.501415 72.0060277,206.70138 C72.0548622,206.901345 72.1006445,207.10131 72.1464269,207.298245 C72.1922092,207.49821 72.2349394,207.695145 72.2776696,207.89208 C72.4089123,208.488945 72.521842,209.079751 72.619511,209.661467 C72.6500326,209.819015 72.6744498,209.973533 72.6988671,210.131081 C72.7324408,210.355284 72.7660145,210.579487 72.796536,210.80369 C74.148641,220.892828 74.148641,219.54458 76.1813767,223.580235 C78.2141125,227.61589 78.8947432,232.660459 77.1977446,232.996764 C77.1244929,233.011913 77.048189,233.030091 76.9657808,233.0513 C76.9261027,233.063419 76.8833726,233.075538 76.8406424,233.087657 C76.7093997,233.124014 76.5690005,233.169461 76.4194449,233.223997 C76.2607328,233.278532 76.0928642,233.339128 75.9188914,233.405783 C75.8059616,233.4482 75.6869275,233.496676 75.5678934,233.545152 C75.4702245,233.58151 75.3725555,233.623926 75.2718343,233.663313 C75.1589046,233.70876 75.0429227,233.757236 74.9269407,233.805713 C74.8414804,233.84207 74.7499157,233.878427 74.6614032,233.914784 C74.6308816,233.926904 74.6034122,233.939023 74.5728907,233.954171 C74.383657,234.029916 74.1944234,234.11172 73.9990854,234.193523 C73.8220604,234.266238 73.638931,234.341982 73.4588538,234.417726 C73.0773344,234.575275 72.6927627,234.729793 72.3112433,234.878252 C72.1861049,234.929758 72.0579143,234.975204 71.932776,235.023681 C70.6813921,235.493295 69.5093643,235.847778 68.7310646,235.802332 C66.6983289,235.684171 63.6492253,239.383521 61.9522267,234.338952 C60.2616376,229.294383 53.488904,214.815107 51.7919055,206.083307 C50.0982642,197.351507 45.6936983,190.628444 44.3415933,186.926064 C42.9864362,183.229743 46.0324876,161.372975 47.0488554,154.643853 C48.0652233,147.920791 53.1470626,133.126418 56.1961662,127.406211 C59.2452698,121.692062 60.2616376,111 60.2616376,111 L98.2026804,111 C98.2026804,111 104.633573,127.073239 102.603889,136.486435" id="Fill-195" fill="#DDBB6F"></path>
            <path d="M78.0534458,232.990942 C77.9813259,233.005958 77.9062011,233.023976 77.8250663,233.044998 C77.7860014,233.05701 77.7439314,233.066019 77.7018615,233.081034 C77.5726468,233.117071 77.4344171,233.162117 77.2871725,233.216173 C77.1339178,233.267225 76.9686432,233.33029 76.7943536,233.396357 C76.6831688,233.4384 76.5659741,233.48645 76.4487793,233.534499 C76.3526195,233.570536 76.2564597,233.612579 76.157295,233.651619 C76.0461102,233.696665 75.9319205,233.744714 75.8177307,233.792763 C75.703541,233.840813 75.5863462,233.888862 75.4691515,233.939914 C75.2828419,234.014991 75.0965323,234.096074 74.9042127,234.177157 C74.7299231,234.249231 74.5496235,234.324308 74.3723289,234.399385 C73.9967048,234.555545 73.6180756,234.708702 73.2424514,234.855852 C73.1192467,234.906905 72.993037,234.951951 72.8698323,235 C73.5760057,233.390351 74.1739994,231.771693 74.4113938,230.321208 C75.4421066,223.990723 72.0494691,224.321062 69.0474807,215.657187 C66.0454924,206.993313 66.0454924,204.659923 64.0441668,191.326266 C62.0428413,177.995611 56.0424706,184.995781 64.0441668,170.328758 C72.0494691,155.664738 69.381035,151.997982 74.4113938,150.328272 C79.4417527,148.664568 77.8430962,153.865896 77.8430962,153.865896 C77.8430962,153.865896 77.5456019,154.565612 77.052783,155.751827 L77.052783,154.295335 C77.052783,153.475496 77.052783,152.998007 77.052783,152.998007 C77.052783,152.998007 69.0474807,174.662197 67.3827144,181.662367 C67.1994098,182.431155 67.11527,183.26601 67.11527,184.15492 C67.11527,184.341111 67.118275,184.530305 67.12729,184.722501 C67.130295,184.875658 67.13931,185.031818 67.1513299,185.187978 L67.1513299,185.193984 C67.1543349,185.263055 67.1603449,185.329123 67.1663549,185.398194 C67.1783749,185.563363 67.1933999,185.728532 67.2084248,185.896704 L67.2084248,185.90271 C67.2294598,186.100913 67.2534997,186.299116 67.2805447,186.503326 C67.3045846,186.701529 67.3346345,186.905738 67.3646845,187.109947 C67.4067544,187.359202 67.4488243,187.611461 67.4938992,187.869725 C67.5209441,188.013873 67.5479891,188.15802 67.575034,188.302168 C68.1760327,191.356296 69.2758602,194.767791 70.3967227,198.257365 C70.4898775,198.55467 70.5860373,198.848971 70.6821971,199.146276 C70.751312,199.359494 70.8174218,199.569709 70.8835317,199.779925 C71.0037314,200.164318 71.1269361,200.548712 71.2471359,200.933106 C71.3402907,201.23041 71.4334454,201.527715 71.5235952,201.825019 C71.5326102,201.85505 71.5416252,201.882078 71.5476352,201.909105 C71.625765,202.155358 71.6978849,202.404613 71.7730097,202.650865 L71.7940446,202.719936 C71.9262644,203.167394 72.0584841,203.61185 72.1846938,204.056305 L72.2057287,204.131382 C72.3439584,204.623886 72.4791831,205.113388 72.6083978,205.602889 C72.6654927,205.825117 72.7225876,206.044341 72.7796825,206.266569 L72.7947074,206.332636 C72.8457923,206.530839 72.8938722,206.729042 72.9419521,206.927245 C72.990032,207.125449 73.0351069,207.323652 73.0801818,207.518851 C73.1252567,207.717054 73.1673266,207.912254 73.2093965,208.107454 C73.3386112,208.69906 73.449796,209.28466 73.5459558,209.861251 C73.5760057,210.017411 73.6000456,210.170568 73.6240856,210.326728 C73.6571405,210.548955 73.6901954,210.771183 73.7202454,210.99341 C75.0514574,220.993654 75.0514574,219.657285 77.052783,223.657382 C79.0541085,227.657479 79.7242221,232.657601 78.0534458,232.990942" id="Fill-196" fill="#C8A75D"></path>
            <path d="M77,175.931912 C77,181.324368 79.9559288,200.181275 80.9412384,206.235271 C81.6247414,210.444239 82.4709833,218.898591 83.2491708,225.58985 C83.5953606,228.518224 83.9237971,231.109759 84.2256037,232.854645 C84.323247,233.428181 84.5214925,233.91068 84.796669,234.308211 C87.2495869,237.861709 95.9783055,234.808917 98.283279,234.202 C100.851594,233.525288 99.6591618,229.149417 100.644471,220.391607 C101.623863,211.636831 99.0022887,204.223341 98.3483745,193.447532 C97.6885426,182.671723 102.615091,181.324368 100.67406,160.106554 C98.7330299,138.887223 100.644471,145.959322 102.615091,136.527834 C104.58571,127.100898 98.3483745,111 98.3483745,111 L87.5010923,111 C87.69342,119.083222 92.3536681,141.16043 78.4173072,150.672031 C77.6124897,151.221291 77.4379154,152.523128 77,153.670201 L77,175.931912" id="Fill-197" fill="#C8A75D"></path>
            <path d="M72,208 C72.3631972,218.050109 73.1259114,227.856209 74.2251883,236 C75.0556993,235.563834 75.7820937,235.188671 76.2373009,235.075817 C77.5835519,234.737255 77.0435987,229.658824 75.4310031,225.596078 C73.8184074,221.533333 73.8184074,222.890632 72.745765,212.733769 C72.5835369,211.199564 72.3220349,209.616558 72,208" id="Fill-198" fill="#86702E"></path>
            <path d="M19.0042289,46.9892512 C19.2265222,49.0382295 22.7102272,55.8553259 25.9371139,61.3657439 C26.4110771,62.1680584 26.8750462,62.9452152 27.3235698,63.6717539 C30.8527026,69.4091963 54.8016229,61.5879187 57.0702863,64.1964257 C58.3307558,65.6395005 59.3543951,78.8805683 59.9295108,91.2684003 C60.3983255,101.219282 60.2244885,110.847661 59.9976525,113.168826 C59.4934041,118.381294 61.8598886,114.76315 64.6340118,114.954711 C67.4051064,115.146575 71.4390933,115.287822 73.2047197,114.954711 C74.9703461,114.621904 79.7584342,114.505815 82.5325573,114.399729 C83.9347615,114.344261 85.5883327,113.975687 87.1752765,113.809284 C88.7379922,113.64288 90.2310519,113.67804 91.3546323,114.399729 C93.6229929,115.858262 98.1627424,114.243328 99.9253403,111.897005 C101.690967,109.550379 100.933837,104.857734 100.933837,101.729405 C100.933837,101.275053 101.006521,100.851011 101.145833,100.45728 C101.818164,98.5904668 104.101668,97.3341036 108.250738,96.0977452 C109.235007,95.8049475 110.322245,95.5124528 111.521538,95.2145022 C118.832383,93.3880017 115.052791,89.2200282 114.798396,81.3984474 C114.547029,73.5774729 112.530035,57.6769767 111.521538,52.2020218 C110.513042,46.7322196 94.6314896,41.2572646 91.6059994,40.2127706 C88.5835377,39.1731263 89.8434015,35 89.8434015,35 C88.8500474,35.7319945 85.2127964,35.6410635 81.8269125,35.4240415 C79.1981582,35.2476354 76.7178014,35 75.7244473,35 C73.4560868,35 74.9703461,37.6088101 72.196223,40.2127706 C69.4220998,42.8212776 67.4051064,40.2127706 62.3656512,40.2127706 C57.3225619,40.2127706 36.9027745,48.2965357 34.8860839,48.0340482 C32.8693933,47.7718639 29.8442059,38.9109419 29.8442059,38.9109419 C29.8442059,38.9109419 18.7522561,44.6429285 19.0042289,46.9892512" id="Fill-199" fill="#303A59"></path>
            <path d="M82.0921835,84.1962978 C90.2397526,91.0426799 97.6227225,90.7900537 93.2920326,98.6160068 C89.5699637,105.345932 84.5297258,109.647856 87.8909039,113.853339 C89.4690366,113.686843 90.9768263,113.722022 92.1114915,114.444115 C94.4022307,115.903463 98.9867675,114.287323 100.766754,111.939688 C102.5498,109.592054 101.785201,104.896785 101.785201,101.766404 C101.785201,101.311798 101.858602,100.887823 101.999288,100.493872 C102.678252,98.6260148 104.984284,97.3686461 109.174287,96.1318998 C110.168266,95.8389383 111.266231,95.5462801 112.477356,95.248163 C119.860326,93.4206415 116.043446,89.250338 115.786541,81.4243849 C115.532694,73.598735 113.495802,57.6896535 112.477356,52.211638 C111.45891,46.7384748 95.4206768,41.2604592 92.3653384,40.2156846 C89.3130584,39.1754591 90.5853515,35 90.5853515,35 C89.5821973,35.7321004 85.9090628,35.6414219 82.4897751,35.4239753 C84.5113754,37.7161107 90.0195481,45.7240274 87.1844142,57.2150317 C84.1290758,69.5849203 73.9446145,77.3550712 82.0921835,84.1962978" id="Fill-200" fill="#191F34"></path>
            <path d="M74.0333835,88 C74.0333835,88 79.8712594,91.9125377 80.8944482,96.6082097 C81.9176371,101.303568 75.1597054,104.172867 75.3741137,108.086032 C75.591236,111.998569 77.6348996,102.346807 77.5181964,98.0428591 C77.3987791,93.738911 73.6072809,89.8257465 74.0333835,88" id="Fill-201" fill="#191F34"></path>
            <path d="M26,60.8074811 C26.48157,61.6175729 26.9529855,62.4022631 27.4087077,63.1358445 C30.9944811,68.928903 55.3277679,61.0318095 57.6328421,63.6656022 C58.9135414,65.1226655 59.9536095,78.4920861 60.5379555,91 C61.5946401,85.4058684 62.5731658,81.8417097 63.5609228,74.555781 C64.8410067,65.1303166 63.539383,58.5179851 56.7524767,59.0275441 C49.9698784,59.5371031 40.2310864,63.2276569 32.2905661,62.7180979 C28.8943435,62.4986662 27.229619,61.8161938 26,60.8074811" id="Fill-202" fill="#191F34"></path>
            <path d="M89.4255067,28.1420291 C89.7792561,28.008336 90.0610565,27.7313144 90.1929631,27.3744985 C91.1552815,24.793982 95.1514512,13.8428961 94.9955616,10.6815376 C94.815689,7.08959103 91.2392221,7.80804056 89.9891075,5.29376832 C88.735995,2.77949609 89.0957402,0.803910441 84.8027808,0.26522385 C80.5128192,-0.27346274 70.8716477,-0.70435179 67.8168113,6.5641533 C66.1739749,10.4689536 70.6018388,9.37381488 70.424964,11.3494005 C70.2450914,13.3249862 72.0258302,13.8170006 71.1294651,14.3556872 C70.2360978,14.8946749 69.015962,18.1815966 69.015962,20.336644 C69.015962,22.4919926 69.9183229,26.5876969 66.8814738,27.1263835 C63.8416268,27.6650701 65.5084462,26.5967302 64.7949516,26.0580437 C64.1983741,25.6087869 62.864319,31.7911866 63.0112149,32.4777184 C63.7666798,35.9594585 67.822807,35.1136393 70.2510872,34.1756802 C74.9037918,32.3780508 73.0151295,30.2964743 71.7500255,26.4853194 C71.3932782,25.4076451 69.8763526,17.7717853 72.1337538,16.7338575 C75.2125731,15.3186384 76.1089383,16.6826688 75.995019,18.7892375 C75.9380593,19.8422207 75.653261,21.0812902 75.4554012,22.2547176 C75.1975838,23.7656898 75.0836644,25.1676601 75.7821697,25.9231462 C78.0515624,28.3777985 81.7629338,31.0260649 89.4255067,28.1420291" id="Fill-203" fill="#303A59"></path>
            <path d="M0.816494259,8.09687667 L11,11.1790286 C11,11.1790286 10.8408827,12.4431151 11,13 C10.9630848,12.8705533 9.94728009,12.5884124 9.80884806,12.5342561 C8.86973789,12.1673144 7.93285536,11.7961459 6.99438166,11.4281474 C5.27655154,10.7547605 3.55203849,10.0935257 1.83898188,9.41274183 C1.29193668,9.19558841 0.152975213,8.98081259 0.0196349345,8.41256807 C-0.0968389125,7.91565131 0.322275996,7.94735254 0.816494259,8.09687667" id="Fill-204" fill="#191F34"></path>
            <path d="M23,16.304783 C23,16.304783 22.8076923,19.3572904 22.0384615,18.9652252 C21.908284,18.8982941 21.6331361,18.7607912 21.2692308,18.578761 L21.2692308,18.5759605 C20.9142012,18.3995312 20.4733728,18.1782944 19.9940828,17.9402549 C18.5650888,17.2261362 16.8047337,16.34679 16.0177515,15.9547249 C16.035503,15.2688909 16.035503,14.6107815 16,14.0086814 L16.0029586,14 L23,16.304783" id="Fill-205" fill="#191F34"></path>
            <path d="M18,14 L18.06,16" id="Fill-206" fill="#F8D2C3"></path>
        </g>
    </g>
</svg>