<?xml version="1.0" encoding="UTF-8"?>
<svg width="212px" height="217px" viewBox="0 0 212 217" version="1.1" xmlns="http://www.w3.org/2000/svg" xmlns:xlink="http://www.w3.org/1999/xlink">
    <!-- Generator: Sketch 51.3 (57544) - http://www.bohemiancoding.com/sketch -->
    <title>Group 26</title>
    <desc>Created with Sketch.</desc>
    <defs>
        <polygon id="path-1" points="0.0182758621 0 211.941942 0 211.941942 57.9879189 0.0182758621 57.9879189"></polygon>
        <polygon id="path-3" points="0.0180821918 0.114946159 87.7257536 0.114946159 87.7257536 110.806909 0.0180821918 110.806909"></polygon>
        <linearGradient x1="50%" y1="0%" x2="50%" y2="100%" id="linearGradient-5">
            <stop stop-color="#191F34" offset="0%"></stop>
            <stop stop-color="#526CB0" offset="100%"></stop>
        </linearGradient>
    </defs>
    <g id="Page-1" stroke="none" stroke-width="1" fill="none" fill-rule="evenodd">
        <g id="Group-26">
            <g id="Group-108" transform="translate(0.000000, 159.000000)">
                <mask id="mask-2" fill="white">
                    <use xlink:href="#path-1"></use>
                </mask>
                <g id="Clip-106"></g>
                <path d="M114.381615,57.9879189 C62.4614138,57.9879189 7.55798276,50.3133963 1.66858621,35.9217788 C1.66858621,35.9217788 -10.5238506,18.8300341 31.0290632,18.8300341 C32.2188218,18.8300341 33.449092,18.8451355 34.7284023,18.872318 C75.9480862,19.7995429 77.5834713,26.4139484 109.262241,26.4139484 C112.908276,26.4139484 116.946023,26.3263604 121.493971,26.1330627 C138.086017,25.4232977 157.615299,24.1910249 174.269483,24.1910249 C201.846236,24.1910249 221.548224,27.5737346 207.038408,42.3368461 C196.618121,52.9380166 156.477931,57.9879189 114.381615,57.9879189" id="Fill-107" fill="#CDD9E4" opacity="0.400837054" mask="url(#mask-2)"></path>
            </g>
            <path d="M176.413963,102.534757 C176.347607,102.186597 176.005574,101.953482 175.64484,102.011004 C175.289837,102.080636 175.056386,102.425768 175.124249,102.783011 L178.580174,120.811644 L107.875779,120.811644 C107.673997,120.811644 107.495138,120.905496 107.374492,121.050815 L110.876262,102.783011 C110.943824,102.425768 110.710373,102.080636 110.341194,102.007976 C109.984683,101.953482 109.653809,102.18357 109.585946,102.534757 L92.0116424,194.215883 C91.9440802,194.573126 92.1775316,194.918258 92.531328,194.98789 C92.5735544,194.996973 92.6151775,195 92.6571022,195 C92.9710853,195 93.2425403,194.775967 93.3019588,194.464136 L107.25475,121.677503 C107.341012,121.940893 107.58502,122.131624 107.875779,122.131624 L178.832929,122.131624 L192.698251,194.464136 C192.75767,194.775967 193.028823,195 193.343108,195 C193.385032,195 193.426957,194.996973 193.467675,194.98789 C193.822678,194.918258 194.05613,194.573126 193.988266,194.215883 L176.413963,102.534757" id="Fill-109" fill="#E99E90"></path>
            <path d="M55,26.4835656 C55,26.4835656 57.303948,18.7579215 57.303948,14.9992273 C57.303948,12.2750837 59.7137223,9.45094078 61.6247323,7.77358029 C65.2400073,4.59989803 70.0485133,3.47024085 74.7622356,4.22589404 C77.6287505,4.68552446 81.6345096,5.60876079 83.425583,8.04789065 C85.7111264,11.160717 87.894831,15.450295 86.6261413,19.3839118 C86.2031424,20.6961368 85.8246213,22.3236504 85.0013227,23.4673748 C84.9040851,23.6025423 84.7402842,23.7227251 84.6540894,23.8533054 C83.9587026,24.9065104 84.7464191,26.9670491 84.8402825,28.1395195 C84.8991772,28.8716254 85.2623611,31.301581 84.2175939,31.5994387 C82.7513615,32.0168675 83.3798783,30.868556 82.7513615,32.0174791 C82.2203891,32.98781 81.7335877,33.9847462 81.1259294,34.9113464 C80.5222589,35.8318305 79.5455886,36.428769 79.2014228,37.4923715 C78.7836386,38.7822724 79.1501967,43.3424912 76.7824461,42.9794963 C74.059487,42.5614558 70.185014,36.9238732 66.9384443,39.0119347 C63.6921813,41.0999963 63.2731701,42.5614558 63.2731701,42.5614558 L55,26.4835656" id="Fill-110" fill="#F8D2C3"></path>
            <path d="M93,98.1897356 L93,98.8522551 C93,99.4867807 93.4979068,100 94.1119216,100 L152,100 L139.603899,98 L93,98.1897356" id="Fill-111" fill="#4D4D4A"></path>
            <polyline id="Fill-112" fill="#D2D4CF" points="140 98.047982 153.887824 65.3940301 169 63 152.538069 100 140 98.047982"></polyline>
            <path d="M154.040253,65.8930796 C153.615282,66.8154266 142,95.455664 142,95.455664 L151.457531,96 L165,64 L154.040253,65.8930796" id="Fill-113" fill="#4D4D4A"></path>
            <path d="M139.581517,98 L93,98.1897356 L96.561444,99.3872473 C97.7689891,99.7947123 99.0310937,100 100.301036,100 L152,100 L139.581517,98" id="Fill-114" fill="#D2D4CF"></path>
            <polyline id="Fill-115" fill="#4D4D4A" points="134.18206 100 116 100 122.350843 99 137 99 134.18206 100"></polyline>
            <polyline id="Fill-116" fill="#4D4D4A" points="112.171511 100 111 100 116.790882 99 119 99 112.171511 100"></polyline>
            <path d="M153.846737,100 L202,100 C201.761333,104.741294 195.311285,103.950525 195.311285,103.950525 L81.6890162,103.950525 C81.6890162,103.950525 75.2386674,104.741294 75,100 L153.846737,100" id="Fill-117" fill="#E38081"></path>
            <path d="M14.0339865,127.281173 C14.0339865,127.281173 13.5834993,132.348534 15.9645504,132.911936 C18.3459347,133.472081 27.3206915,131.332456 26.9911561,127.281173 C26.6616208,123.226633 26.7635802,119.465193 23.3509402,119.019031 C19.9383002,118.576125 14,126.011076 14,126.011076" id="Fill-118" fill="#E99E90"></path>
            <path d="M77.9655071,136.053859 L77.9655071,136 C77.9655071,136 77.8013909,136.002992 77.4998466,136.020945 C77.1986091,136.002992 77.0344929,136 77.0344929,136 L77.0344929,136.053859 C71.1735512,136.514649 39.5890081,141.00586 40.0040533,184 L42.5556766,184 C43.6581692,182.366288 42.9885138,141.167435 77.4998466,139.533724 C112.011486,141.167435 111.342138,182.366288 112.444323,184 L114.995947,184 C115.410992,141.00586 83.8264488,136.514649 77.9655071,136.053859" id="Fill-119" fill="#E38081"></path>
            <path d="M50.9655042,148.050866 L50.9655042,148 C50.9655042,148 50.801388,148.002992 50.5001504,148.020945 C50.1989128,148.002992 50.0347966,148 50.0347966,148 L50.0347966,148.050866 C44.1735477,148.514649 12.5893089,153.00586 13.0040474,196 L15.5556708,196 C16.6581636,194.366288 15.9885081,153.167435 50.5001504,151.533724 C85.0117927,153.167435 84.3421372,194.366288 85.44463,196 L87.9959466,196 C88.4109919,153.00586 56.8267531,148.514649 50.9655042,148.050866" id="Fill-120" fill="#E99E90"></path>
            <g id="Group-124" transform="translate(0.000000, 39.000000)">
                <mask id="mask-4" fill="white">
                    <use xlink:href="#path-3"></use>
                </mask>
                <g id="Clip-122"></g>
                <path d="M10.4759178,99.5178689 C10.4759178,99.5178689 7.56589041,105.076967 12.710274,106.56 C17.8546575,108.04 77.189863,111.351803 80.5492329,110.730082 C83.9089041,110.111393 87.7266575,103.927541 87.7257534,103.900246 L11.6813973,99.5178689 L10.4759178,99.5178689" id="Fill-121" fill="#E38081" mask="url(#mask-4)"></path>
                <path d="M0.00301369863,7.17739344 C1.07739726,32.9754918 2.16383562,58.772377 3.2749863,84.5692623 C3.4009589,87.4989344 6.15879452,89.5885246 8.98956164,88.8909836 C16.7368767,86.9803279 24.367863,84.117377 28.9661644,77.7727869 C34.3869041,70.2909016 33.9643836,60.1371311 32.6811507,50.9690164 C30.8319452,37.7566803 27.6512877,24.6510984 22.1310959,12.519041 C20.1504932,8.16638525 17.6572603,3.72122951 13.4980548,1.39841803 C8.3000274,-1.50456557 3.73849315,0.915901639 0.00301369863,4.68535246" id="Fill-123" fill="#E99E90" mask="url(#mask-4)"></path>
            </g>
            <path d="M91.4496923,144 C91.4496923,144 26.607517,138.589549 14.1189395,139.617505 C1.63066603,140.648501 29.7822494,118.617414 43.2800294,115.530507 C56.7775055,112.4436 106.558245,111.415645 103.897233,116.902128 C101.236221,122.391652 100.645595,141.597383 91.4496923,144" id="Fill-125" fill="#E99E90"></path>
            <path d="M98.0566641,86 C98.5209975,86.0769241 111.516224,88.2140755 114.455577,88.6956871 C117.39493,89.1806433 123.44379,94.6723533 124.731399,95.6656772 C126.019007,96.6590012 122.375212,99.0035132 120.205675,97.5218886 C118.036138,96.040264 117.889201,94.8027898 113.859275,95.3546364 C109.829044,95.9031385 105.767654,97.8329294 102.78981,96.4783968 C99.8116612,95.1238642 97,93.7091301 97,93.7091301 L98.0566641,86" id="Fill-126" fill="#F8D2C3"></path>
            <path d="M97,92 C97.4687442,92 110.596024,92 113.565348,92 C116.534977,92 123.254865,95.6475123 124.661403,96.2805516 C126.067941,96.913591 122.785816,99.2977651 120.441789,98.3879423 C118.097763,97.4753791 117.784962,96.4915647 113.878149,97.4753791 C109.971032,98.456453 106.220468,100.561103 103.094896,99.8595532 C99.9693239,99.1580031 97,98.3879423 97,98.3879423 L97,92" id="Fill-127" fill="#F8D2C3"></path>
            <path d="M97.3786885,91 L97,91 L97.4446721,88.1847507 L97.629918,87 C97.6737705,87.0078201 97.8004098,87.0234604 98,87.054741 L97.3786885,91" id="Fill-128" fill="#EEBAAE"></path>
            <path d="M117,91 C115.621334,90.434161 114.33072,90.0368698 113.407086,90.0368698 C110.473049,90.0368698 97.5017716,90.0368698 97.0385978,90.0368698 L97,90.0368698 L97.4571429,87 C99.3978892,87.2889391 110.674783,88.9804364 113.371202,89.3837472 C114.337354,89.5282167 115.642141,90.17231 117,91" id="Fill-129" fill="#ECAD9F"></path>
            <path d="M118,94 C115.990146,92.9240924 113.894963,92 112.567448,92 L97,92 C97.4566769,92 110.246007,92 113.138889,92 C114.049567,92 115.322078,92.4356436 116.681405,93.0561056 C117.118756,93.3531353 117.561459,93.669967 118,94" id="Fill-130" fill="#ECAD9F"></path>
            <path d="M101,176.911492 C101,177.337703 101,182.219757 101,182.539415 C101,182.855845 109.110954,186.891934 109.777631,186.998487 C110.444308,187.10504 111.010966,181.548152 111.010966,181.548152 L112,175 L101,176.911492" id="Fill-131" fill="#F8D2C3"></path>
            <path d="M101.688719,181 C101.688719,181 98.4722514,187.145293 99.0753199,193.496156 C99.6783884,199.847019 102.89455,198.003119 106.111018,198.411144 C109.326262,198.822284 108.925541,197.183955 108.925541,197.183955 C108.99676,197.473621 110.613705,197.947055 110.851203,198.040496 C112.52653,198.700811 114.264516,199.205392 116.030012,199.544893 C118.26592,199.974721 120.555319,200.083735 122.824544,199.94046 C124.674097,199.825216 127.682103,199.809642 129.274901,198.784908 C131.794157,197.159037 131.411469,194.06926 129.052075,192.608468 C124.428651,189.739834 117.538448,190.833092 115.242019,187.145293 C112.94559,183.457494 110.935566,181 110.935566,181 C110.935566,181 103.899868,182.230304 101.688719,181" id="Fill-132" fill="url(#linearGradient-5)" fill-rule="nonzero"></path>
            <path d="M84,186.07206 C84,186.530271 84,191.823289 84,192.166948 C84,192.513976 92.11095,196.883832 92.7778041,196.998385 C93.4443327,197.112938 94.0109471,191.095541 94.0109471,191.095541 L95,184 L84,186.07206" id="Fill-133" fill="#F8D2C3"></path>
            <path d="M114,143.353202 C114,150.568904 111.646021,177.949944 111.234135,178.568606 C111.042103,178.855302 109.109385,178.921695 106.910241,178.846249 C104.376629,178.758731 101.489799,178.487123 100.495769,178.158177 C100.133177,178.037462 99.9166495,176.993283 99.7926603,175.41796 C99.7739108,175.188603 99.7584877,174.947174 99.7460888,174.696692 C99.4179712,168.739437 100.148902,157.07541 99.9257218,155.892409 C99.8915492,155.711337 99.8359053,155.771694 99.7524395,156.13082 C98.9283654,159.634555 96.7788173,183.514877 95.5398332,186.191719 C95.2271387,186.870737 94.583,187.311345 93.7495512,187.58597 C91.2873085,188.400792 87.1711719,187.788167 85.0092248,187.634256 C82.1190685,187.429041 82.6549434,185.277307 82.8623984,182.395251 C82.881148,182.150805 82.90897,181.824876 82.9431426,181.429536 C83.3117834,177.207551 84.4887729,164.94297 82.90897,157.902303 C82.8841721,157.787625 82.8596767,157.678982 82.8348789,157.570339 C80.9886505,149.950243 82.4072676,137.586073 82.82248,135.014856 C83.2343658,132.44364 73.1153408,132.226354 66.0443316,134.07932 C58.9730199,135.935303 29.753016,134.906213 27.2904709,132.02114 C25.9278002,130.424692 25.3731756,125.221902 25.1502976,120.900327 C24.9706646,117.417717 25.0021155,113.044839 25.0021155,113.044839 C25.0021155,113.044839 25.0048372,114.505483 26.2435188,113.886821 C27.4828053,113.26816 59.6948785,104.20251 67.335633,103.170402 C74.9739681,102.141312 94.1771624,106.058494 101.610764,107.295816 C109.044366,108.530121 111.937244,112.033856 112.556585,115.742805 C113.176228,119.451754 114,136.143536 114,143.353202" id="Fill-134" fill="#303959"></path>
            <path d="M55.4893843,24.9466012 C55.4893843,24.9466012 54.3882696,15.2492345 55.4893843,12.6324513 C56.5904991,10.0159687 56.4330672,9.8617751 58.4781676,6.93720584 C60.5229652,4.01293715 62.5677628,0.164708959 68.7024585,0.0108159 C74.8374568,-0.143077159 74.9945859,1.396154 77.3542473,1.396154 C79.7139086,1.396154 88.04932,4.11543233 89.3078666,7.34778771 C90.5661104,10.5804437 90.0880625,15.5122353 88.0429621,16.5894867 C85.9981645,17.6670387 81.289741,13.5561102 78.7729505,12.3246652 C76.2561601,11.0935207 76.8822545,12.7866449 77.0396863,14.1716825 C77.1968154,15.5573211 76.0957007,18.6357835 74.9945859,19.0974626 C73.8934712,19.5591418 72.3003819,18.943269 72.4678046,20.4825002 C72.6352274,22.0220319 70.4329979,26.9475115 70.4329979,28.7945288 C70.4329979,30.6415461 72.3206664,34.6436673 73.7363421,33.8739014 C75.1520178,33.1044361 77.9788279,30.5201148 80.0284696,30.7954391 C82.0690287,31.0698617 82.6636367,31.4043988 82.6636367,31.4043988 C82.6636367,31.4043988 82.3566446,34.9072693 80.5737288,35.0097645 C80.5737288,35.0097645 76.98731,33.515018 76.0433243,34.8486577 C76.0433243,34.8486577 77.6164319,36.2856942 79.1895394,36.4906846 C80.7623442,36.6959755 79.9234141,47.8811755 73.1069174,44.2896361 C66.2907235,40.6977962 62.9350029,34.8486577 65.1372324,31.1546231 C67.3394619,27.4605886 68.178392,27.5630837 68.807514,25.8185616 C69.4366359,24.0743401 70.4853742,20.1747141 68.9122667,19.1485599 C67.3394619,18.1227064 64.8226714,16.9937565 63.4593721,20.0722189 C62.0960728,23.1506812 60.6280207,27.3577928 57.6916138,26.2294441 C54.7552069,25.1004942 55.4893843,24.9466012 55.4893843,24.9466012" id="Fill-135" fill="#303A59"></path>
            <path d="M38,71 C37.3958956,68.6382122 37.0245069,67.1058891 37,67 C37.4530783,67.4991368 37.7754533,68.9566468 38,71" id="Fill-136" fill="#535991"></path>
            <path d="M101,87.312932 C99.656253,86.8779409 92.3498573,84.4935114 89.4341338,83.0620515 C86.2154263,81.4822011 80.3308884,79.4818594 77.8310429,76.1642044 C75.3308923,72.8465494 73.7683745,74.8120301 72.6745205,70.9066745 C71.5904303,67.0389563 67.5964138,54.141318 66.9120304,52.6654335 L66.8934181,52.6244024 C66.6029441,52.0367018 65.3339514,50.5389135 64.0558051,49.1012836 C63.3735575,48.3306399 62.6906997,47.580666 62.153384,46.9969759 C59.1915873,41.7166167 50.3351838,30.9279135 48.2649468,32.0863471 C48.2649468,32.0863471 33.7336225,38.7216571 30.6085868,55.1522865 C27.4835511,71.5826073 21.4385202,115.359056 25.1884409,116.938598 C26.1791645,117.355079 29.4945949,118.135594 33.8697058,119.045682 C46.0793746,121.584672 66.3338286,123.392507 67.4841297,122.926666 C69.0466476,122.297317 69.8277539,104.758849 69.9839752,102.389536 C69.9903827,102.30624 69.9934339,102.192093 69.9934339,102.037841 C69.9964851,101.877419 69.9980107,101.673806 69.9983158,101.439343 C74.9763433,101.692316 97.4780036,102.818357 98.4031265,102.445067 C99.1875892,102.124222 98.4311975,95.6209522 97.8343834,92.0052821 C97.6406324,90.8298808 97.4654937,89.9568136 97.3626684,89.6976701 C97.4627477,89.191723 99.2000991,86.8378354 101,87.312932" id="Fill-137" fill="#CDD9E4"></path>
            <path d="M53.1400548,25 C53.1400548,25 47.5625206,31.1935094 48.027542,31.1935094 C48.4922609,31.1935094 61.042091,39.3998186 61.5068099,49 L66,43.7353356 C66,43.7353356 56.8587134,26.2387623 53.1400548,25" id="Fill-138" fill="#FFFFFE"></path>
            <path d="M70.3221833,110.625173 C69.9060125,115.619923 69.2943768,120.596196 68.4684994,120.92569 C67.3083309,121.390676 46.4188337,119.626192 34.1045485,116.956372 C34.1738077,114.834682 34.7629726,111.23181 35.2077706,109.519677 C36.4685958,104.681975 31.4243715,96.4815936 32.0547841,93.9595837 C32.6855045,91.4375738 38.5716128,95.6409237 39.2020254,91.2250968 C39.700076,87.7423212 40.5231831,75.1153351 39.2272665,69 C42.6699103,75.9824877 51.0025613,92.0164967 55.596139,93.3283114 C61.4791691,95.0096514 69.8872356,100.056751 70.937205,100.056751 L71,100.075227 C71,100.226116 70.9969218,100.343133 70.9907654,100.426276 C70.933819,101.282343 70.7922224,104.140005 70.5619741,107.459573 L70.3221833,110.625173" id="Fill-139" fill="#B2C3D3" fill-rule="nonzero"></path>
            <path d="M72.6049632,75.1324569 C73.6859773,78.9804696 75.230154,77.0441523 77.7006558,80.3130937 C79.8994718,83.2206095 93.7198683,86.5226841 97,88 C89.9614972,86.8904932 72.2621143,84.095752 71.5703859,84.0051676 C70.3998149,83.8495326 63.1420939,49.500418 64.084099,48 C65.3472422,49.416217 64.9654949,51.2035869 65.2525592,51.7823543" id="Fill-140" fill="#535991"></path>
            <path d="M93,187.586585 C90.5592664,188.400197 86.4790866,187.788481 84.3360254,187.634799 C81.4711162,187.429889 82.00231,185.281352 82.2079527,182.403577 C82.2265385,182.159493 82.2541174,181.834049 82.2879915,181.439296 C82.6534121,177.223582 83.8201199,164.97722 82.2541174,157.947012 C82.2295362,157.832503 82.2052548,157.724022 82.1806736,157.61554 C80.3505731,150.006764 81.7567977,137.66096 82.168383,135.093563 C82.5766708,132.526166 72.5460413,132.309203 65.5368013,134.159416 C58.5272615,136.012643 29.562511,134.985081 27.1214777,132.104293 C25.7707106,130.510217 25.2209311,125.315155 25,121 C25.0338741,121.662943 26.2311585,123.136484 26.5749956,123.709026 C27.6343855,125.474864 28.865544,127.026753 30.3637983,128.437014 C35.1226591,132.896811 43.8052195,131.863223 49.8447011,131.802955 C59.4574502,131.706527 69.0552107,131.399163 78.655969,131.399163 C84.3360254,131.399163 88.8673603,134.68073 89.9420384,134.68073 C91.0167166,134.68073 88.8673603,136.998017 88.8673603,138.076806 C88.8673603,139.158608 90.7894904,139.158608 91.0565861,139.619655 C91.3236819,140.083715 86.7183037,140.237397 87.6394992,143.787155 C88.560395,147.336912 89.6350732,149.340808 88.560395,155.668899 C87.4857168,161.99699 85.7974079,179.543883 87.3325339,182.786276 C88.4102098,185.064389 92.5551402,185.968402 93,187.586585" id="Fill-141" fill="#191F34"></path>
            <path d="M107,180 C104.553854,179.91082 101.766683,179.634055 100.80697,179.298861 C100.456894,179.175854 100.247842,178.111845 100.128133,176.506606 C100.154995,176.162187 100.148863,175.897722 100.083169,175.77164 C99.7663792,169.701253 100.472077,157.815718 100.256601,156.610251 C101.141862,145.591913 102.903041,126.473576 102.903041,126 C102.903041,126 104.398232,140.330296 104.547722,146.788155 C104.697212,153.242938 103.650782,169.464465 106.342186,177.336902 C106.71883,178.440888 106.928175,179.317312 107,180" id="Fill-142" fill="#191F34"></path>
            <path d="M102.99998,124 C103.005794,122.14278 101.715027,120.530737 100.287936,119.341626 C95.783452,115.590409 89.0281072,114.744547 83.4695779,113.423652 C82.4505346,113.18154 68.9794523,110.398774 69.0000235,110.150532 C69.0881421,109.087074 69.1667426,108.020552 69.2392024,107 C74.9432655,108.075717 88.8678359,110.867676 95.4435663,113.653506 C99.9434451,115.562827 102.874998,119.096449 102.99998,124" id="Fill-143" fill="#191F34"></path>
            <path d="M113.495411,206.553738 C113.20607,207.009813 112.783444,207.432883 112.220551,207.783941 C110.578626,208.810111 107.47846,208.825113 105.569054,208.942133 C103.230647,209.083156 100.867344,208.972138 98.5632451,208.546067 C96.7409756,208.207011 94.949978,207.702928 93.2209169,207.042818 C92.9783322,206.946803 91.3084751,206.472724 91.2371267,206.181676 C91.2371267,206.184677 91.650644,207.819947 88.3327898,207.411879 C85.0179717,207.000812 81.6998139,208.846117 81.0780199,202.494066 C81.021852,201.920971 80.9969559,201.353878 81.0002956,200.795785 C81.0251917,195.091842 83.77408,190 83.77408,190 C86.0532831,191.227203 93.3080531,190 93.3080531,190 C93.3080531,190 95.3820155,192.457406 97.7516945,196.145016 C100.118034,199.832626 107.223427,198.737445 111.99345,201.605919 C113.89982,202.752109 114.552582,204.897464 113.495411,206.553738" id="Fill-144" fill="url(#linearGradient-5)" fill-rule="nonzero"></path>
            <path d="M113,206.614629 C112.715073,207.059352 112.298893,207.471891 111.744586,207.81421 C110.127705,208.814837 107.074827,208.829466 105.194545,208.943573 C102.891806,209.081086 100.56455,208.972831 98.295596,208.557366 C96.5011217,208.22675 94.7374423,207.735214 93.0347547,207.091536 C92.7958702,206.99791 91.1514836,206.535632 91.0812234,206.251828 C91.0812234,206.254754 91.4884333,207.84932 88.2211866,207.45141 C84.9569297,207.050574 81.689384,208.849947 81.0770743,202.656008 C81.0217631,202.097179 80.9972468,201.544201 81.0002444,201 C83.8695417,202.073772 97.2085069,207.003761 101.480324,207.182236 C105.568269,207.354858 110.544183,207.597701 113,206.614629" id="Fill-145" fill="#303A59"></path>
            <path d="M130,196.913114 C129.724108,197.303929 129.320651,197.662842 128.78361,197.963265 C127.217315,198.837948 124.259829,198.851241 122.438403,198.94961 C120.207802,199.071906 117.953133,198.976196 115.755025,198.611966 C114.016637,198.324836 112.308035,197.894141 110.658702,197.330516 C110.427037,197.248099 108.834267,196.846648 108.765971,196.596739 C108.765971,196.599397 109.160704,197.99251 105.995321,197.644232 C102.833248,197.295954 99.667865,198.869851 99.0745626,193.451602 C99.0213098,192.962417 98.9972407,192.47855 99.0002506,192 C101.779925,192.941148 114.702004,197.253416 118.840078,197.412932 C122.800341,197.561815 127.621074,197.774504 130,196.913114" id="Fill-146" fill="#303A59"></path>
        </g>
    </g>
</svg>