<?xml version="1.0" encoding="UTF-8"?>
<svg width="224px" height="212px" viewBox="0 0 224 212" version="1.1" xmlns="http://www.w3.org/2000/svg" xmlns:xlink="http://www.w3.org/1999/xlink">
    <!-- Generator: Sketch 51.3 (57544) - http://www.bohemiancoding.com/sketch -->
    <title>Group 28</title>
    <desc>Created with Sketch.</desc>
    <defs>
        <polygon id="path-1" points="0.0999999957 0.0881438515 183.983379 0.0881438515 183.983379 130.981763 0.0999999957 130.981763"></polygon>
    </defs>
    <g id="Page-1" stroke="none" stroke-width="1" fill="none" fill-rule="evenodd">
        <g id="Group-28">
            <g id="Group-27">
                <path d="M16.8682116,76.3381131 C16.8342441,76.2470753 16.7804622,69.0613662 15.1358699,65.6552961 C15.1358699,65.6552961 14.8301626,64.851652 15.1358699,65.0243099 C15.4444079,65.1938286 16.6474229,66.78856 16.9984202,68.3456206 C17.3494176,69.9026812 17.7909948,70.1318454 18.3599502,71.1803499 C18.9317361,72.2257152 19.0194855,78.8181088 18.9968405,78.9185644 C18.9741955,79.0158806 18.1193472,79.0378553 18.0768878,78.9185644 C18.0315978,78.7961342 16.8682116,76.3381131 16.8682116,76.3381131" id="Fill-1" fill="#325A45"></path>
                <path d="M19.9959342,78.940625 C19.988649,78.9625 19.9085117,78.984375 19.7955911,79 L17.6500986,71.65 C17.3586905,69.690625 16.8632966,67.525 16,66 C16.5536755,66.6375 17.1656326,67.53125 17.4242573,68.415625 C17.8759399,69.965625 18.4441858,70.19375 19.1763488,71.2375 C19.9121543,72.278125 20.025075,78.84375 19.9959342,78.940625" id="Fill-2" fill="#23392D"></path>
                <path d="M18.5304628,67.4693999 C18.5304628,67.4693999 18.0604366,63.7615864 18.0604366,62.6470991 C18.0604366,61.5326118 17.9244542,59.1811661 18.0604366,59.0648185 C18.1993752,58.9454091 18.2614541,58.9454091 18.2644103,59.4659114 C18.2673664,59.9894755 19.8016028,67.3469287 20.1681642,68.0817555 C20.5347255,68.8165823 19.9848835,69.5759033 20.5140325,71.6426037 C21.0402253,73.7062422 22.8375582,76.223024 21.5368568,75.9842053 C20.2391115,75.7484483 17.9687963,74.7748029 18.3353576,72.7111643 C18.7019189,70.644464 18.5304628,67.4693999 18.5304628,67.4693999" id="Fill-3" fill="#325A45"></path>
                <path d="M21.3946243,75 C21.4463663,74.8130646 20.749573,70.4200826 21.0979697,69.0391727 C21.4463663,67.6612779 21.9258429,67.076351 21.7395714,65.1135292 C21.5533,63.1507075 21.9258429,61.0491918 22.1397102,61.0009504 C22.3535774,60.952709 22.5398489,62.752716 22.5398489,63.7356344 C22.5398489,64.7155377 22.8882455,68.2462048 22.9951791,68.807011 C23.1021128,69.3678172 21.3946243,75 21.3946243,75" id="Fill-4" fill="#23392D"></path>
                <path d="M20.8911439,75.3922824 C20.8911439,75.3922824 20.9758967,71.1293682 21.8968765,68.8934881 C22.8150311,66.6545368 23.1653425,63.5617741 23.1653425,62.3946938 C23.1653425,61.2276136 23.6710338,57.4284602 23.6710338,57.1735453 C23.6710338,56.9186304 23.7783873,56.9186304 23.9309422,57.3486073 C24.0863222,57.775513 23.9309422,63.3928546 23.9309422,65.2263991 C23.9309422,67.0599436 23.6908094,68.9641272 23.5721556,70.1312075 C23.4506767,71.2982877 21.5663408,78.1717762 21.0408738,77.9967142 C20.5154068,77.8185809 19.8373849,76.8910592 20.0351413,76.6545719 C20.2328977,76.4150133 20.8911439,75.3922824 20.8911439,75.3922824" id="Fill-5" fill="#325A45"></path>
                <path d="M31,57.0331019 C31,57.0331019 30.8434783,56.9073974 30.6753623,57.1459136 C30.5043478,57.3844297 25.8550725,65.0652943 25,67.3827688 L25.1362319,70 L26.7971014,66.3029997 L31,57.0331019" id="Fill-6" fill="#325A45"></path>
                <path d="M19,80 C18.9288111,79.983153 18.8523489,79.9663061 18.7732501,79.9427204 C18.667785,79.9123958 18.5623199,79.8787019 18.4542182,79.8416386 C18.2090119,79.7540345 18.0244481,79.8247917 17.8820702,79.8989183 C17.7317825,79.9730449 17.628954,80.0471715 17.5524918,79.9427204 C17.3494716,79.6529528 16.1814459,76.6070237 15.7516757,75.8489108 C15.3219055,75.0907979 15.1373416,73.8879255 15.0160568,73.392625 C14.8921353,72.8973246 14.2171589,70.622986 14.2804379,70.1815958 C14.3305338,69.8109628 14.2540716,69.3729421 14.2171589,69.0090479 C14.1670629,68.4800536 14.1064205,67.9544286 14.0457781,67.4288037 C14.0299584,67.3007669 13.9798624,67.1019728 14.0088653,67.0278462 C14.0246851,66.9907829 14.0589612,66.9874135 14.1275135,67.0379544 C14.3199873,67.1794688 14.4570919,67.7354182 14.5467372,67.9881225 C14.625836,68.2206105 14.8103999,68.9517682 15.0160568,69.2651216 C15.2190771,69.5784749 15.403641,70.0232345 15.4853764,70.3635429 C15.5671118,70.7038514 15.8123181,71.5125051 16.0364314,71.9842198 C16.2631813,72.4525651 17.120085,74.3596401 17.3863844,74.9863468 C17.5524918,75.3771961 18.1351864,77.2202528 18.5544101,78.5579008 C18.5702298,78.6084417 18.583413,78.6556132 18.5992327,78.6994152 C18.8286193,79.4440506 19,80 19,80" id="Fill-7" fill="#457D5E"></path>
                <path d="M19,77.4659079 L17.5959761,79 L17.2879087,78.9753064 L16.955305,78.9506127 L16.4482206,78.9104856 C16.4482206,78.9104856 16.2955501,73.3297239 15.9002424,71.301759 C15.5049347,69.2737942 14.5371123,63.8905816 13.7928434,62.3657495 C13.0485744,60.8409175 11.9062714,58.3839008 11.4155446,57.7912535 C11.4155446,57.7912535 10.7012645,57.0535311 11.1456449,57.0010571 C11.5900253,56.9485832 12.9204402,58.8654267 13.285759,59.2265711 C13.6510778,59.5846288 15.1396158,62.7238073 15.5049347,63.5325238 C15.8702535,64.3412404 16.5191034,65.5234482 16.6608689,65.9555869 C16.8053607,66.3846388 17.4214954,69.0237711 17.5169145,69.4373895 C17.6123336,69.8479212 17.6450488,70.3695743 17.8658758,70.675158 C18.0867029,70.9807418 18.0076414,71.249285 17.9612949,71.5548688 C17.9122223,71.8573658 18.2311947,72.3080247 18.2938987,72.4500131 C18.3566026,72.5950882 18.2938987,72.7926373 18.2938987,73.2216892 C18.2938987,73.6538278 18.7546366,73.9748451 18.6755751,74.351423 C18.5937873,74.7310877 18.6892064,74.9625905 18.8336981,75.2311338 C18.9754637,75.4996771 18.7682679,75.7157464 18.8336981,76.1293648 C18.8555082,76.2837001 18.8854971,76.5059428 18.9127597,76.7250988 C18.9209385,76.8084398 18.9318435,76.8856074 18.9400223,76.962775 C18.9727374,77.2405784 19,77.4659079 19,77.4659079" id="Fill-8" fill="#457D5E"></path>
                <path d="M25.5376743,68.6014916 C25.5376743,68.6014916 25.8418133,68.1086475 25.8825462,67.7579117 C25.9259947,67.407176 25.9884518,67.4767184 26.26272,67.101794 C26.5369882,66.7268696 26.5369882,66.5152187 26.5369882,66.3519452 C26.5369882,66.1856481 26.5559969,66.164483 26.7243595,65.9528321 C26.8927222,65.7411812 26.9578949,65.4146341 26.9769035,65.248337 C26.9877656,65.1818182 26.9877656,65.1969361 26.9986278,65.212054 C27.0176364,65.2332191 27.0556538,65.2543842 27.1669904,65.0155211 C27.3570773,64.616408 27.3570773,64.1235638 27.5471642,64.0086676 C27.7345355,63.8907478 27.9028982,63.7486394 27.9246224,63.5853659 C27.9463466,63.4220923 27.777984,63.2104414 27.9246224,63.0713566 C28.0712609,62.9292481 28.1988906,62.9776255 28.2613477,62.8113284 C28.3238049,62.6480548 28.3889775,62.3215078 28.4079862,62.1793993 C28.4297104,62.0403145 28.6197973,61.7349325 28.6822544,61.6865551 C28.747427,61.6412014 28.8098842,61.4053618 28.8288928,61.266277 C28.8506171,61.1241685 29.1791958,61.1967345 29.1846269,60.960895 C29.1873424,60.728079 29.1167387,60.5617819 29.1846269,60.4438621 C29.252515,60.3289659 29.3774293,60.3289659 29.4398864,60.1626688 C29.505059,59.9993953 29.3557051,59.8603104 29.4398864,59.6940133 C29.5240677,59.5307398 29.6924304,59.5307398 29.7358788,59.3674662 C29.7766117,59.2041927 29.7983359,59.0378956 29.9259657,58.8504334 C29.9748452,58.7778674 29.9775607,58.7990325 29.9829918,58.817174 C29.9911383,58.8474098 29.9965694,58.8776456 30.1785097,58.548075 C30.4717866,58.0068535 30.7460548,57.1179198 30.9985988,57 C30.9985988,57 31.020323,57.1421084 30.8926932,57.3507357 C30.767779,57.5623866 30.3821742,58.475509 30.1622165,59.3372304 C29.9395433,60.1989518 27.4412586,65.0155211 26.7895322,67.1471478 C26.1350902,69.281798 25.1683627,71.7883491 25,72 L25.5376743,68.6014916" id="Fill-9" fill="#457D5E"></path>
                <path d="M30,66.0004124 C30,66.0004124 29.4323542,65.9359691 28.7500325,67.4181649 C28.064844,68.8971384 26.5281867,72.6058499 26.0637493,73.4855008 C25.5993118,74.3651517 25.0488675,78.8246275 24.3149416,79.4626161 C23.5810158,80.0973826 24.2805388,80.1908253 24.8825874,79.6301687 C25.481769,79.069512 26.6858661,75.4896872 27.0012249,74.4038177 C27.2076415,73.6917193 27.9960384,70.6242186 28.7987698,68.3815921 C29.2202038,67.2022798 29.5871667,66.1969645 30,66.0004124" id="Fill-10" fill="#325A45"></path>
                <path d="M29.6055565,66.6307135 C28.8296112,67.4581187 27.7415698,72.8575461 26.9856674,75.990735 C26.2326282,79.1269658 24.319966,79.7201424 24.2569741,79.7414359 C24.1224006,79.7840229 23.0143163,80 23.0143163,80 L23,80 C23.0458123,79.9817484 23.0916245,79.9634968 23.1403001,79.9422033 L23.1460266,79.9391614 C25.0415092,79.0052886 26.4760059,74.9534366 26.6306223,74.624908 C26.7852387,74.2933375 26.6306223,74.317673 26.6306223,74.1321152 C26.6306223,73.9465574 26.8539571,73.9891445 26.9627612,73.7518738 C27.0744286,73.5146032 27.0515225,73.1860747 27.0314796,72.8697139 C27.0085735,72.556395 27.1402838,72.6202755 27.2519512,72.4560113 C27.3636186,72.2887051 27.4523798,71.628606 27.4294737,71.3700419 C27.4065676,71.1114778 27.475286,71.0171779 27.6957575,70.8742072 C27.9190923,70.7342783 27.9190923,70.3814144 27.9190923,70.0042149 C27.9190923,69.6270155 28.0278965,69.5783446 28.2512313,69.3654094 C28.4717028,69.1555162 29.2046991,66.8193132 29.5167952,66.3478139 C29.826028,65.8763146 30.3815018,65.8063502 29.6055565,66.6307135" id="Fill-11" fill="#457D5E"></path>
                <path d="M25.8330648,73.7143376 C25.7028119,74.3880192 25.5753905,78.6739752 23.0014799,79.9390333 L22.9958168,79.9420817 C22.953343,79.96342 22.9108692,79.98171 22.871227,80 L20,80 L20.0028316,80 C20.0283158,79.96342 20.450222,79.3933818 20.9259282,78.6953135 C21.0816654,78.4697369 21.2402342,78.2289186 21.3959713,77.9881003 C21.7244352,77.4790287 22.0245832,76.9730055 22.1888151,76.5980605 C22.6730161,75.4884674 22.5625843,75.2994707 22.6078896,75.0617008 C22.6503634,74.8269791 22.7834479,74.9672024 22.9363535,74.6593208 C23.0892591,74.3544875 23.0467853,73.8576093 23.0467853,73.644226 C23.0467853,73.4308427 23.3752491,73.1016227 23.4630283,72.9339644 C23.5508074,72.7693544 23.6159338,71.8487579 23.9019239,71.446378 C23.9472293,71.382363 23.9868715,71.3305413 24.0236821,71.281768 C24.2162298,71.0226597 24.2983458,70.943403 24.4285987,70.6446664 C24.5815043,70.2880115 25.5697274,68.2334351 25.4819482,66.840347 C25.3941691,65.4442106 25.5923801,63.9322375 25.7679383,64.0023491 C25.9434966,64.0755091 25.9434966,65.9654755 25.9859704,66.767187 C26.0312757,67.5719469 25.9633177,73.0315111 25.8330648,73.7143376" id="Fill-12" fill="#457D5E"></path>
                <path d="M18.3351648,78 L18,77.9780521 C18.6813187,77.4979424 19.6098901,76.7462277 19.9725275,76 C19.9807692,76.0740741 19.9917582,76.1426612 20,76.2112483 C19.9505495,76.2853224 19.8983516,76.3593964 19.8461538,76.430727 C19.5824176,76.7901235 19.010989,77.5116598 18.3351648,78" id="Fill-13" fill="#35614A"></path>
                <path d="M21,77.4 C21.095,77.27 21.19,77.135 21.28,77 C21.28,77 21.18,77.155 21,77.4" id="Fill-14" fill="#35614A"></path>
                <path d="M19,78 C18.8514324,77.9902676 18.7111185,77.9805353 18.5625509,77.9708029 L18.9834925,77.9781022 C18.9917462,77.9854015 18.9917462,77.9927007 19,78 M18.5542972,77.9683698 C18.3727145,77.9562044 18.1828781,77.9416058 18.0012955,77.9270073 C17.9765342,77.622871 18.3149382,77 18.3149382,77 C18.356207,77.0316302 18.3974758,77.0632603 18.4387446,77.0948905 C18.5130284,77.6131387 18.5542972,77.9513382 18.5542972,77.9683698" id="Fill-15" fill="#35614A"></path>
                <path d="M18.33,78 L18.075,77.9917355 L18.07,77.9889807 C18.07,77.969697 18.045,77.5867769 18,77 C18.005,77.0027548 18.005,77.0055096 18.01,77.0082645 C18.05,77.1322314 18.225,77.677686 18.33,78" id="Fill-16" fill="#35614A"></path>
                <path d="M25.559633,75.5431579 C25.559633,75.5431579 25.1261468,76.1463158 24.5756881,76.6926316 C23.9357798,77.3273684 23.1582569,77.9210526 23,78 C23,78 24.9231651,76.9578947 26,75 L25.559633,75.5431579" id="Fill-17" fill="#325A45"></path>
                <path d="M25,68 C25.0059565,67.7254902 25.0119131,67.4536199 25.0148913,67.1923077 C25.0208478,67.1527149 25.0238261,67.1289593 25.0238261,67.1236802 C25.0297826,67.1025641 27.2396547,63.6764706 28.9670479,61 C28.9700262,61.0871041 29.0027871,61.1953243 28.9998088,61.3299397 C28.9968306,61.3932881 28.9610914,61.4328808 28.9104609,61.4566365 C28.833026,61.4988688 28.7168737,61.5094268 28.6543302,61.5437406 C28.6305041,61.5569382 28.6156127,61.5727753 28.6096562,61.5965309 C28.5888084,61.7179487 28.51733,61.9238311 28.4488299,61.9634238 C28.3803299,62.0056561 28.1718514,62.2722474 28.1480253,62.3936652 C28.1241991,62.5177225 28.0556991,62.8027903 27.987199,62.9453243 C27.9186989,63.0904977 27.7787205,63.0482655 27.6178942,63.1723228 C27.457068,63.2937406 27.6417203,63.4785068 27.6178942,63.6210407 C27.5940681,63.7635747 27.4094157,63.887632 27.2039155,63.9905732 C26.995437,64.0908748 26.995437,64.5211161 26.7869585,64.8695324 C26.7065454,65.0041478 26.6588932,65.0437406 26.6320888,65.0490196 C26.6291105,65.0516591 26.6291105,65.0516591 26.6261323,65.0516591 C26.6142192,65.0516591 26.6082627,65.0463801 26.6023061,65.0411011 C26.5993279,65.035822 26.5933713,65.030543 26.5903931,65.030543 C26.5874148,65.030543 26.5844366,65.0411011 26.57848,65.0727753 C26.5576322,65.2179487 26.4861538,65.5030166 26.3015015,65.6877828 C26.1168491,65.872549 26.093023,65.8936652 26.093023,66.0361991 C26.093023,66.178733 26.093023,66.3634992 25.7951965,66.6907994 C25.4943919,67.0180995 25.4258918,66.9573906 25.3782396,67.2635747 C25.3335656,67.5644796 25.0148913,67.9815234 25,68" id="Fill-18" fill="#294636"></path>
                <path d="M27.0462131,65 C27.0308087,65 27.0231065,64.9941263 27.0154044,64.9882526 C27.0077022,64.9823789 27.0038511,64.9765051 27,64.9765051 C27.0038511,64.9765051 27.0115533,64.9823789 27.0154044,64.9882526 C27.0231065,64.9941263 27.0308087,65 27.0462131,65 C27.0500642,65 27.0500642,65 27.0539153,64.9970631 C27.0500642,65 27.0500642,65 27.0462131,65 M29.6688062,61.0969163 C29.7496791,61.0587372 29.8998716,61.0469897 30,61 C29.8998716,61.0469897 29.7496791,61.0587372 29.6688062,61.0969163" id="Fill-19" fill="#2F5340"></path>
                <path d="M25,70 C25,69.7545639 25.14,69.1764706 25.19,69 C25.185,69.2008114 25.175,69.4097363 25.165,69.6206897 L25,70" id="Fill-20" fill="#2F5340"></path>
                <path d="M28,78.6214834 L28,79.9939258 C28,80.0888747 27.9175694,80.1636829 27.8129458,80.1636829 L27.7970938,80.1636829 C27.7051519,80.1636829 27.6290621,80.2241049 27.61321,80.3075448 L26.9379128,83.9587596 C26.6240423,85.6534527 25.0546896,86.9108056 23.1809775,86.9942455 C23.1143989,87 23.0478203,87 22.9780713,87 L20.9521797,87 C18.9706737,87 17.2871863,85.6879795 16.9828269,83.9127238 L16.3709379,80.310422 C16.3645971,80.2672634 16.3424042,80.2327366 16.3075297,80.2068414 C16.2758256,80.1809463 16.2346103,80.1636829 16.1870542,80.1636829 C16.0824306,80.1636829 16,80.0888747 16,79.9939258 L16,78.6214834 C16,78.2762148 16.3075297,78 16.6848085,78 L27.3151915,78 C27.6924703,78 28,78.2762148 28,78.6214834" id="Fill-21" fill="#F1D48D"></path>
                <g id="Group-25" transform="translate(1.000000, 81.000000)">
                    <mask id="mask-2" fill="white">
                        <use xlink:href="#path-1"></use>
                    </mask>
                    <g id="Clip-23"></g>
                    <path d="M25.8753795,0.0881438515 C25.7873267,0.0881438515 25.7144554,0.151972158 25.6992739,0.240116009 L25.0525413,4.09716937 C24.7519472,5.88740139 23.2489769,7.21563805 21.4545215,7.3037819 C23.5617162,5.4162877 23.4554455,2.55313225 23.1335974,1.39814385 C22.8087129,0.243155452 20.3887789,0.0881438515 20.3887789,0.0881438515 L25.8753795,0.0881438515" id="Fill-22" fill="#E8C164" mask="url(#mask-2)"></path>
                    <path d="M157.06495,131 C156.032607,131 154.963828,130.984803 153.852541,130.951369 C118.090957,129.9058 116.669967,122.459165 89.1853465,122.459165 C86.0245545,122.459165 82.5206601,122.556427 78.5734653,122.775267 C64.1783498,123.571601 47.2357756,124.963666 32.7860066,124.963666 C8.85993399,124.963666 -8.23445545,121.152204 4.35405941,104.52645 C13.3961716,92.584478 48.2225743,86.8976798 84.7462706,86.8976798 C129.792871,86.8976798 177.426403,95.5388167 182.536502,111.751206 C182.536502,111.751206 193.114983,131 157.06495,131" id="Fill-24" fill="#CDD9E4" opacity="0.400837054" mask="url(#mask-2)"></path>
                </g>
                <path d="M122.988542,184.230545 L104.886564,89.5237012 C104.82009,89.1800315 104.484701,88.9488909 104.134203,89.0127587 C103.786728,89.0796678 103.557091,89.4202962 103.623565,89.7700485 L107.264507,108.814822 C107.161775,108.589764 106.941203,108.434657 106.681352,108.434657 L33.8081238,108.434657 L37.3765492,89.7700485 C37.4400013,89.4202962 37.2133866,89.0796678 36.8568462,89.0097174 C36.5154135,88.9488909 36.1800238,89.1800315 36.1135502,89.5237012 L18.011572,184.230545 C17.9450984,184.580297 18.171713,184.920926 18.5191888,184.987835 C18.5584687,184.993917 18.6007701,185 18.6430715,185 C18.9482459,185 19.2141404,184.777983 19.2715494,184.473851 L33.5603585,109.72722 L106.681352,109.72722 C107.025806,109.72722 107.306808,109.450459 107.318895,109.106789 L121.725543,184.473851 C121.785974,184.777983 122.048847,185 122.357043,185 C122.399344,185 122.438624,184.993917 122.477904,184.987835 C122.82538,184.920926 123.055016,184.580297 122.988542,184.230545" id="Fill-26" fill="#E99E90"></path>
                <path d="M94,85.189781 L94,85.850365 C94,86.4854015 93.5689624,87 93.0401007,87 L43,87 L53.7147995,85 L94,85.189781" id="Fill-29" fill="#4D4D4A"></path>
                <polyline id="Fill-30" fill="#D2D4CF" points="52 85.3128079 40.5061224 57.0708128 28 55 41.6222635 87 52 85.3128079"></polyline>
                <path d="M40.5285585,58.6570985 C40.900272,59.4639255 51,84.5252133 51,84.5252133 L42.7769719,85 L31,57 L40.5285585,58.6570985" id="Fill-31" fill="#4D4D4A"></path>
                <path d="M53.7341082,85 L94,85.189781 L90.9200168,86.3868613 C89.878078,86.7919708 88.7872506,87 87.6903121,87 L43,87 L53.7341082,85" id="Fill-32" fill="#D2D4CF"></path>
                <polyline id="Fill-33" fill="#4D4D4A" points="58.4148575 87 74 87 68.5566486 86 56 86 58.4148575 87"></polyline>
                <polyline id="Fill-34" fill="#4D4D4A" points="74.9765914 87 76 87 70.9347023 86 69 86 74.9765914 87"></polyline>
                <path d="M179.50152,171 C164.865626,171 153,169.43407 153,167.5 C153,165.568598 164.865626,164 179.50152,164 C194.137415,164 206,165.568598 206,167.5 C206,169.43407 194.137415,171 179.50152,171" id="Fill-35" fill="#DBDDE5"></path>
                <path d="M164.774896,73.9458514 C167.248946,77.7392958 167.764891,82.4392729 169.735428,86.5034603 C171.388938,89.9136056 174.092987,92.8248536 177.384468,94.7900221 C178.292034,95.3315081 178.848384,95.6144193 179.202708,96.0220549 C179.522842,96.3901437 179.678247,96.8647045 179.777707,97.7286486 C180.11649,100.706822 180.160003,103.730626 180.253246,106.724009 C180.573381,117.182599 180.616894,127.650316 180.644867,138.111948 C180.654192,140.740284 180.6573,143.371663 180.6573,146 L182,146 C181.978243,140.962355 181.68919,135.897331 181.571082,130.923568 C181.250947,117.608487 180.110274,104.120009 180.6573,90.8353487 C180.800272,87.3582782 180.610678,83.7138946 178.863925,80.6840064 C177.788521,78.8192258 176.194065,77.3073238 174.621365,75.8228002 C170.776642,72.1905848 166.875974,68.5188227 162.195171,66 C161.809767,67.6062058 161.999361,69.340178 162.726657,70.8277436 C163.270575,71.9441783 164.094222,72.9054681 164.774896,73.9458514" id="Fill-36" fill="#F7C03C"></path>
                <path d="M179,144 L181.096609,144 C182.111966,128.136358 184.789635,92.9620337 188.821114,86.8624923 C189.692705,86.8624923 200.166763,80.9502571 200.592075,79.1436569 C201.020382,77.3340357 201.038353,73.9081416 201.912938,71.5486855 C202.928296,68.7995113 203.653124,66.1621167 203.952639,63.2467836 C204.129353,61.509668 206.504511,58.9810319 205.902485,57.3073588 C205.402294,55.9237085 201.412747,59.5731618 199.918165,61.080676 C198.420587,62.5912113 196.051419,65.8600096 193.682251,67.24366 C191.313084,68.6273103 188.198122,75.4186769 187.461314,78.1829565 C186.727501,80.9502571 187.461314,86.0951403 187.461314,86.0951403 C187.461314,86.0951403 180.955836,114.399551 179.976421,129.994317 C179.602026,136.003226 179.266569,140.604317 179,144" id="Fill-37" fill="#364163"></path>
                <g id="Group-41" transform="translate(149.000000, 75.000000)">
                    <path d="M29.5061728,56.7125764 C29.4660494,62.3892576 29.4382716,66.270131 29.4197531,68.9216594 L32.212963,68.9216594 C32.7283951,58.860917 31.9228395,38.0313537 18.0277778,26.9431441 C18.0277778,26.9431441 20.0617284,26.6870306 19.3024691,23.3455022 C18.5432099,20.0039738 13.5771605,16.1592576 13.7469136,14.3182533 C13.9012346,12.6128384 12.2962963,11.1243668 11.5185185,9.55152838 C9.88888889,6.24917031 7.19135802,6.77043668 4.9382716,4.27257642 C4.33641975,3.60668122 2.04012346,-0.295283843 0.891975309,0.289257642 C-0.25,0.870786026 0.138888889,6.08947598 0.228395062,6.68908297 C0.512345679,8.55720524 1.13580247,11.0008297 2.91049383,12.0584279 C5.22222222,13.4384279 5.73765432,19.7117031 7.53703704,20.9651528 C9.33333333,22.2186026 16.0154321,27.3619651 17.4290123,27.4885153 C18.8425926,27.6120524 29.6358025,38.7755895 29.5061728,56.7125764" id="Fill-38" fill="#364163"></path>
                    <path d="M69.9166667,9.12366812 C68.5185185,9.6931441 67.0648148,10.1360699 65.5833333,10.4464192 C64.5617284,10.6603493 63.4969136,10.8260699 62.6296296,11.3925328 C61.7901235,11.940917 61.2253086,12.8177293 60.4074074,13.3992576 C59.4722222,14.0621397 58.287037,14.2881223 57.2592593,14.8093886 C55.595679,15.659083 54.4444444,17.2530131 53.691358,18.9343231 C52.9382716,20.6156332 52.5216049,22.4174672 51.9228395,24.1560262 C51.7407407,24.6803057 51.537037,25.2106114 51.1697531,25.6324454 C50.7746914,26.0874236 50.2253086,26.3796943 49.6975309,26.6779913 C43.1450617,30.3509607 37.8703704,36.1903493 34.4382716,42.719738 C31.5679012,48.1764629 29.8796296,54.1845852 29.132716,60.2620087 C28.7808642,63.1304803 28.6296296,66.0320961 28.7222222,68.9216594 L31.4722222,68.9216594 C31.1728395,64.2634061 31.2592593,59.5750218 31.9444444,54.9529258 C32.5277778,51.0087773 33.558642,47.1128384 35.1820988,43.4489083 C36.441358,40.6015284 38.0617284,37.9078166 40.0493827,35.4852838 C41.5895062,33.6111354 43.345679,31.9057205 45.2839506,30.420262 C46.6512346,29.3717031 48.1080247,28.440655 49.6234568,27.6090393 C50.6820988,27.0275109 52.382716,25.7981659 53.5092593,25.9307424 C55.0246914,26.1115284 56.5308642,26.6599127 58.0555556,26.2079476 C59.1450617,25.8825328 60.0216049,25.111179 60.8703704,24.3669432 C63.6234568,21.9504367 66.4722222,19.6152838 68.9722222,16.9456769 C71.4722222,14.2760699 73.6358025,11.2298253 74.7716049,7.78585153 C74.808642,7.67436681 74.845679,7.559869 74.8271605,7.44235808 C74.7901235,7.18021834 74.4814815,7.02052402 74.2098765,7.03860262 C73.9351852,7.05969432 73.6944444,7.20733624 73.4598765,7.34895197 C72.3302469,8.02991266 71.1450617,8.62650655 69.9166667,9.12366812" id="Fill-40" fill="#F7C03C"></path>
                </g>
                <path d="M169.011272,120.750741 C173.015248,122.802414 175.236633,129.455914 176.516443,133.115492 C177.604281,136.234035 177.726168,143.826746 177.738356,146 L178.999942,146 C179.027308,126.063815 169.401309,119.808491 169.401309,119.808491 C169.178866,112.544047 163.285646,112.21274 160.451781,112.21274 C157.617916,112.21274 154.726155,110.936143 152.836912,110.382951 C150.944622,109.82672 150,109.82672 150,110.714259 C150,111.601797 154.860231,112.930066 157.060285,114.264413 C157.337577,114.431587 165.12004,119.641317 166.149982,120.057731 C167.176877,120.474145 169.011272,120.750741 169.011272,120.750741" id="Fill-42" fill="#364163"></path>
                <path d="M209.775422,104.433303 C207.623677,105.066116 204.335276,106.513413 201.107659,106.513413 C197.883081,106.513413 191.175594,106.89189 190.923341,115.148748 C190.923341,115.148748 179.939717,122.27623 180.000249,145 L181.434997,145 C181.447154,142.647386 181.571761,133.86066 182.826945,130.272696 C184.282716,126.112475 186.81132,118.552015 191.367062,116.220596 C191.367062,116.220596 193.454984,115.905703 194.625072,115.430335 C195.795159,114.957996 204.651352,109.035585 204.967427,108.844833 C207.471718,107.330924 213,105.820043 213,104.81178 C213,103.803517 211.924128,103.803517 209.775422,104.433303" id="Fill-43" fill="#4D60A7"></path>
                <path d="M174.396034,110.341352 C175.681528,110.175369 181.343374,135.530786 179.57897,146 L180.97474,146 C181.066111,142.474401 181.233099,123.979609 175.007274,109.917173 C174.786723,109.413077 174.94741,108.152837 174.862341,107.571897 C174.569324,105.589324 174.348773,103.428473 172.634781,102.097537 C170.40092,100.363938 167.918151,98.5596431 165.132914,97.8004253 C162.290963,97.0227649 159.266271,97.0657975 156.471581,96.0975642 C153.761961,95.1600685 150.264661,91.9172555 150,93.3680685 C150,93.3680685 154.722931,102.152864 156.909532,102.921304 C159.096132,103.689743 164.077422,105.905921 165.564563,107.356734 C167.051703,108.807547 173.085334,110.513482 174.396034,110.341352" id="Fill-44" fill="#4D60A7"></path>
                <path d="M211.845757,75.0723713 C211.821236,75.0482475 211.796714,75.0241238 211.766062,75 C207.02727,78.8658334 200.20108,78.9412202 194.711315,81.688314 C191.980226,83.0573376 189.638416,85.0626256 187.327259,87.0437899 C186.328005,87.9001836 185.30423,88.7897474 184.718778,89.9567346 C183.863588,91.663491 184.075087,93.7019491 184.620692,95.5293244 C184.75556,95.981645 184.911885,96.4339656 184.921081,96.904379 C184.927211,97.2813128 184.841386,97.6552312 184.758625,98.0231186 C182.116427,109.412551 180.182289,120.916572 179.388403,132.580413 C179.127861,136.379906 178.968471,140.191461 179.005254,144 L181.193803,144 C180.078072,133.216677 181.288824,122.167992 182.882726,111.487195 C183.550938,107.021283 184.409193,102.585526 185.245991,98.1467529 C185.291969,97.9085307 185.341012,97.6612621 185.478946,97.4562101 C185.880487,96.853116 186.842958,96.9405646 187.471323,96.801853 C188.522685,96.5666463 189.500483,96.0389389 190.444563,95.5474172 C193.647692,93.8828774 196.869212,92.2092911 199.72904,90.0200594 C204.504614,86.365309 208.072502,81.4350144 211.566824,76.5770912 C211.891735,76.127786 212.192124,75.4583515 211.845757,75.0723713" id="Fill-45" fill="#4D60A7"></path>
                <path d="M191.983584,144 L167.016601,144 C167.016601,144 166.308046,164.949532 174.149184,169.744774 C174.42555,169.912923 174.737196,170 175.057663,170 L183.942522,170 C184.260049,170 184.574635,169.912923 184.84806,169.744774 C192.689199,164.949532 191.983584,144 191.983584,144" id="Fill-46" fill="#F8D2C3"></path>
                <path d="M185.311818,169.744774 C185.017771,169.912923 184.676297,170 184.334823,170 L180,170 C180.344636,170 180.679786,169.912923 180.976995,169.744774 C189.409505,164.949532 188.647513,144 188.647513,144 L192.982335,144 C192.982335,144 193.741166,164.949532 185.311818,169.744774" id="Fill-47" fill="#E99E90"></path>
                <path d="M150.00608,110 C151.81184,110.328204 153.59024,110.825691 155.3352,111.440641 C156.20464,111.75848 157.06192,112.124686 157.9192,112.473618 C158.77952,112.82946 159.6368,113.181847 160.488,113.561872 C161.34224,113.931533 162.18128,114.34956 162.99904,114.815955 C163.41248,115.04397 163.81072,115.299623 164.21504,115.548367 C164.61024,115.814384 165.0024,116.083857 165.37936,116.380967 C166.1424,116.964824 166.86288,117.624686 167.50128,118.377827 C168.13664,119.134422 168.67776,120.011935 169,120.986181 L168.97568,121 C168.58352,120.063756 168.012,119.24843 167.36144,118.536746 C166.71088,117.821608 165.98432,117.203204 165.23344,116.626256 C163.7256,115.486181 162.09616,114.556847 160.43328,113.706972 C159.60336,113.28549 158.75824,112.895101 157.89184,112.566897 C157.03152,112.228329 156.14992,111.951947 155.2744,111.668656 C153.52336,111.098618 151.76928,110.545854 150,110.027638 L150.00608,110" id="Fill-48" fill="#8A77A9"></path>
                <path d="M151.024403,93 C151.195225,93.6046555 151.481963,94.1713222 151.823607,94.6873371 C151.915119,94.8139665 151.99748,94.9469274 152.092042,95.0703911 L152.384881,95.4312849 C152.595358,95.6560521 152.802785,95.8839851 153.034615,96.0865922 C153.251194,96.3050279 153.507427,96.4759777 153.745358,96.6690875 L154.126658,96.9191806 C154.254775,97.0014898 154.382891,97.0869646 154.520159,97.1534451 C154.791645,97.2927374 155.050928,97.4510242 155.334615,97.561825 L155.75252,97.7454376 C155.892838,97.8055866 156.039257,97.8467412 156.182626,97.8973929 C156.75305,98.1094972 157.350928,98.267784 157.936605,98.4418994 L159.705836,98.9484171 C160.88634,99.2934823 162.060743,99.6543762 163.213793,100.088082 C164.372944,100.512291 165.483289,101.06946 166.557029,101.69311 C167.072546,102.038175 167.615517,102.348417 168.100531,102.744134 C168.350663,102.930912 168.600796,103.120857 168.841777,103.317132 L169.540318,103.947114 C171.388859,105.637616 172.877454,107.727002 174,109.987337 L173.978647,110 L172.984218,108.401304 L171.889125,106.878585 L171.291247,106.159963 C171.08992,105.925698 170.906897,105.669274 170.681167,105.457169 L170.037533,104.786034 C169.930769,104.675233 169.827056,104.558101 169.714191,104.453631 L169.369496,104.146555 L168.677056,103.529236 L167.948011,102.959404 C167.475199,102.563687 166.94443,102.253445 166.438064,101.902048 C165.382626,101.272067 164.299735,100.689572 163.164987,100.221043 C162.033289,99.7493482 160.868037,99.3536313 159.684483,99.0370577 C158.503979,98.7014898 157.302122,98.4735568 156.118568,98.1 C154.947215,97.7137803 153.815517,97.1154562 152.906499,96.232216 C152.442838,95.8080074 152.043236,95.3046555 151.716844,94.7633147 C151.387401,94.2219739 151.128117,93.6299814 151,93.0031657 L151.024403,93" id="Fill-49" fill="#BDB3CD"></path>
                <path d="M163,97 C162.804041,96.0486732 162.4553,95.1281337 162.070025,94.232224 C161.651536,93.2778185 161.169942,92.3511215 160.638528,91.4459757 C160.120399,90.5377511 159.515915,89.6726286 158.881539,88.8290573 C158.250484,87.9793285 157.533075,87.1850169 156.742596,86.4615159 C156.353999,86.0920686 155.925547,85.7657235 155.483808,85.4516933 C155.032106,85.149978 154.553833,84.8944436 154.165237,84.5280751 C153.378079,83.816889 152.866593,82.8901921 152.464711,81.9542589 C151.657625,80.0608415 151.255743,78.0350389 151.026571,76 L151,76 C151.006643,77.028295 151.126211,78.0535112 151.32217,79.0664125 C151.528093,80.0793139 151.810407,81.082979 152.248824,82.0343058 C152.693883,82.9825539 153.295046,83.8784636 154.09881,84.5927283 C154.504013,84.9529395 154.988929,85.2207887 155.424024,85.522504 C155.656518,85.6641255 155.845834,85.8550066 156.051758,86.0181792 C156.261002,86.1813517 156.443676,86.3783903 156.636313,86.5600352 C158.127595,88.0593755 159.313313,89.7957777 160.389427,91.5722035 C160.914199,92.4711919 161.425685,93.3763378 161.870745,94.3091922 C162.289233,95.1835508 162.684473,96.0702243 162.953501,96.9938425 L163,97" id="Fill-50" fill="#8A77A9"></path>
                <path d="M162.027374,66.0030275 C162.082121,66.1574277 162.197699,66.3088005 162.288944,66.4571458 C162.389314,66.6054912 162.489684,66.7508091 162.593096,66.8961269 L163.216607,67.7650068 C163.639378,68.3402234 164.074315,68.9033302 164.512294,69.4694645 C165.388251,70.5926506 166.297665,71.6916171 167.240536,72.7572816 C167.711971,73.2901138 168.195572,73.8138637 168.706547,74.3133939 C168.958993,74.5616453 169.223605,74.8008143 169.491259,75.0339284 C169.761954,75.2609876 170.056981,75.4759369 170.309427,75.7332707 C171.319211,76.7565508 172.13738,77.940286 172.91905,79.1331037 C173.697678,80.3350037 174.406352,81.579288 175.060278,82.847792 C175.714205,84.122351 176.328591,85.4150746 176.86694,86.7380729 C177.420496,88.0580436 177.901056,89.4052615 178.302537,90.7797265 C178.682726,92.1541915 179.020335,93.5649859 178.999044,95 L178.974712,95 C178.953422,94.2885479 178.828719,93.5861781 178.673602,92.8928907 C178.521526,92.1996033 178.320786,91.5153983 178.113963,90.8372481 C177.685109,89.4809479 177.174134,88.1518948 176.62666,86.8379789 C175.519548,84.2162021 174.266442,81.651947 172.800431,79.2057626 C172.432407,78.597244 172.046134,77.9978077 171.626405,77.4225911 C171.206675,76.8473745 170.762613,76.2872951 170.248597,75.7968473 C169.996151,75.5455684 169.707207,75.3397014 169.427387,75.1156697 C169.147567,74.8886105 168.870789,74.6585239 168.609219,74.4132999 C168.079995,73.928907 167.572061,73.4233218 167.085418,72.8965445 C166.115174,71.8460173 165.217926,70.7258586 164.357176,69.5845078 C163.925281,69.0153461 163.514676,68.4280196 163.110154,67.8406932 C162.906372,67.54703 162.711715,67.2473118 162.5201,66.9445662 C162.425813,66.7931934 162.331525,66.6418206 162.24028,66.4874204 C162.194657,66.411734 162.152076,66.3330201 162.106453,66.2543063 C162.069955,66.172565 162.018249,66.1029335 162,66 L162.027374,66.0030275" id="Fill-51" fill="#364163"></path>
                <path d="M210,76.0121212 C209.819882,76.3333333 209.597737,76.6242424 209.366586,76.9060606 C209.132433,77.1848485 208.886272,77.4575758 208.625101,77.7121212 C208.102759,78.2242424 207.559404,78.7121212 206.977023,79.1545455 C205.82427,80.0484848 204.596467,80.8363636 203.326637,81.5454545 C202.0478,82.2393939 200.735943,82.8606061 199.409075,83.4515152 C198.745641,83.7454545 198.097217,84.0636364 197.44279,84.3757576 C197.118578,84.5333333 196.803371,84.7151515 196.485163,84.8878788 C196.169957,85.0666667 195.845745,85.2272727 195.539545,85.4242424 C194.927145,85.8060606 194.302736,86.1757576 193.714352,86.5969697 C193.417157,86.8030303 193.110957,86.9969697 192.822769,87.2151515 L191.955201,87.869697 C191.661009,88.0787879 191.393834,88.3242424 191.11165,88.5515152 C190.832467,88.7818182 190.550283,89.0090909 190.289112,89.2606061 L189.49059,89.9909091 L188.722088,90.7606061 C187.722434,91.8060606 186.785821,92.9181818 185.978293,94.1212121 C185.170766,95.3212121 184.471308,96.6090909 184.024016,98 L184,97.9939394 C184.372243,96.5757576 185.029673,95.2454545 185.816188,94.0121212 C186.605704,92.7787879 187.527306,91.6333333 188.535966,90.5787879 C190.562291,88.4666667 192.936843,86.7212121 195.473502,85.3030303 C195.782704,85.1151515 196.115922,84.9636364 196.43413,84.7909091 C196.761344,84.630303 197.07655,84.4515152 197.403764,84.2939394 L199.376054,83.369697 L200.357695,82.9060606 C200.684909,82.7515152 201.000115,82.5757576 201.324327,82.4090909 C201.969749,82.0848485 202.594158,81.7181818 203.227572,81.3636364 C204.476388,80.6333333 205.707193,79.869697 206.862949,79 C207.442328,78.5666667 208.003695,78.1090909 208.535042,77.6151515 C209.060386,77.1212121 209.573721,76.6030303 209.978986,76 L210,76.0121212" id="Fill-52" fill="#BDB3CD"></path>
                <path d="M206,57.0152732 C204.097314,59.1260324 202.275594,61.300939 200.494356,63.5125014 C199.603737,64.615228 198.713118,65.7210092 197.891008,66.87261 C197.059556,68.0242109 196.277929,69.2063582 195.539899,70.4159973 C194.814325,71.628691 194.119891,72.8597126 193.46594,74.1121168 C192.827559,75.3675755 192.242118,76.6535807 191.715843,77.9579138 C191.205138,79.2653015 190.772285,80.6062903 190.467108,81.9778255 C190.33009,82.6101369 190.21487,83.2485575 190.143246,83.8930875 C190.093422,83.9297432 190.046711,83.9633443 190,84 C190.043597,83.3065958 190.137018,82.6193008 190.270923,81.9381152 C190.541845,80.5482521 190.943558,79.1828261 191.466719,77.8632198 C192.49747,75.217898 193.876995,72.719199 195.421565,70.3426858 C196.190736,69.1513746 197.003503,67.9875552 197.816271,66.8237357 C198.635267,65.6660256 199.457376,64.5083154 200.326197,63.3842064 C201.195018,62.2600973 202.110549,61.172644 203.050993,60.1004639 C203.99455,59.034393 204.956793,57.9897047 205.981316,57 L206,57.0152732" id="Fill-53" fill="#8A77A9"></path>
                <path d="M222.975921,84 L223,84.0368978 L222.99097,84.0645712 L222.960871,84.1168432 C222.939802,84.1475914 222.918733,84.1783396 222.894654,84.206013 C222.849506,84.2644346 222.801347,84.3197813 222.753189,84.3751281 C222.653863,84.4858217 222.554536,84.5934404 222.4522,84.6979843 C222.247528,84.9070721 222.036835,85.1130851 221.823133,85.3160232 C221.395729,85.7157499 220.965315,86.1124018 220.519851,86.4906047 C219.631933,87.2531602 218.722947,87.994192 217.771822,88.6768022 C216.814677,89.3471131 215.836463,89.9989751 214.767952,90.4786471 C214.494052,90.5893406 214.220152,90.6723608 213.961301,90.8015032 C213.702451,90.9306457 213.44661,91.0690126 213.196789,91.216604 C212.691128,91.5056372 212.209546,91.8284933 211.727963,92.160574 C209.822703,93.4981209 208.00473,94.9617356 206.283073,96.5360437 C205.855669,96.9296208 205.434284,97.3354971 205.024939,97.7505979 C204.612584,98.1626238 204.215279,98.5869491 203.839043,99.0327981 C203.462806,99.4786471 203.09259,99.9306457 202.776552,100.422617 C202.463523,100.914588 202.171564,101.431158 202.024079,102 L202,101.996925 C202.117386,101.412709 202.370216,100.865391 202.671205,100.354971 C202.969184,99.8445507 203.318332,99.3648787 203.688548,98.9036556 C204.425971,97.9842843 205.250681,97.1387086 206.108499,96.3392552 C206.966318,95.536727 207.866275,94.783396 208.793321,94.0700376 C209.714347,93.3505296 210.671492,92.6709942 211.652716,92.0437308 C212.143328,91.7239494 212.64598,91.4287667 213.151641,91.1366587 C213.407482,90.9921421 213.666332,90.8599248 213.928193,90.7307824 C214.190053,90.6047147 214.469973,90.5063205 214.734843,90.3956269 C215.261574,90.1619406 215.755196,89.8513837 216.236778,89.5254527 C216.71836,89.2025965 217.187903,88.8551418 217.651426,88.5046122 C218.578472,87.8004783 219.499498,87.0840451 220.396445,86.3399385 C220.844919,85.9678852 221.296402,85.5989067 221.735846,85.2145542 L222.392002,84.6334131 C222.500358,84.5350188 222.608714,84.4366245 222.711051,84.3351554 C222.762219,84.2828835 222.813387,84.2306115 222.864555,84.1783396 C222.888634,84.1506662 222.912713,84.1229928 222.933782,84.0953194 L222.972911,84.0245986 L222.975921,84" id="Fill-54" fill="#364163"></path>
                <path d="M213,105.026316 C211.115385,105.809211 209.22465,106.555921 207.327797,107.296053 C206.379371,107.661184 205.424825,108.009868 204.491696,108.424342 C204.023601,108.621711 203.564685,108.848684 203.10271,109.065789 L201.716783,109.723684 C199.878059,110.608553 198.039336,111.506579 196.316871,112.611842 C195.88549,112.884868 195.469406,113.1875 195.059441,113.493421 C194.649476,113.799342 194.251748,114.128289 193.878497,114.486842 C193.135052,115.200658 192.458916,116.019737 192.024476,117 L192,116.990132 C192.364073,115.970395 193.012675,115.085526 193.743881,114.328947 C194.481206,113.575658 195.313374,112.934211 196.182255,112.368421 C197.045017,111.799342 197.953671,111.309211 198.871503,110.851974 C199.789336,110.394737 200.722465,109.980263 201.661713,109.585526 C202.604021,109.190789 203.534091,108.773026 204.458042,108.335526 C205.388112,107.914474 206.315122,107.483553 207.254371,107.085526 C209.138986,106.305921 211.051136,105.608553 212.990822,105 L213,105.026316" id="Fill-55" fill="#BDB3CD"></path>
                <path d="M153,184 L144.591675,129.268697 C144.565865,129.093296 144.413873,128.976362 144.250409,129.004057 C144.086946,129.031751 143.97797,129.197921 144.00378,129.370245 L152.394899,184 L153,184" id="Fill-147" fill="#E99E90"></path>
                <path d="M121.602378,184 L129.995507,129.370245 C130.024191,129.197921 129.912321,129.031751 129.751687,129.004057 C129.588185,128.976362 129.436156,129.093296 129.407471,129.268697 L121,184 L121.602378,184" id="Fill-148" fill="#E99E90"></path>
                <path d="M131.719723,184 L132,128.320475 C132,128.14483 131.84083,128 131.643599,128 L131.640138,128 C131.442907,128 131.280277,128.141749 131.280277,128.317394 L131,184 L131.719723,184" id="Fill-149" fill="#E38081"></path>
                <path d="M142.724739,184 L143,130.320068 C143,130.143268 142.836237,130.003048 142.637631,130 C142.43554,130 142.275261,130.143268 142.275261,130.317019 L142,184 L142.724739,184" id="Fill-150" fill="#E38081"></path>
                <path d="M164,123.581793 C164,124.866667 162.440183,126.065266 159.75042,127.066667 C156.369793,128.333053 151.202132,129.288235 145.11639,129.728852 C144.907595,129.747339 144.69266,129.762745 144.474654,129.77507 C144.155321,129.796639 143.832918,129.815126 143.507445,129.833613 C143.29558,129.845938 143.080644,129.858263 142.868779,129.870588 C141.133944,129.956863 139.337698,130 137.498465,130 C136.082962,130 134.695093,129.97535 133.337929,129.922969 C133.126065,129.913725 132.911129,129.907563 132.702335,129.895238 C132.057529,129.870588 131.428075,129.833613 130.804762,129.793557 C130.589827,129.778151 130.381032,129.768908 130.169167,129.753501 C123.791727,129.306723 118.396848,128.29916 114.973234,126.961905 C112.452349,125.97591 111,124.820448 111,123.581793 C111,123.520168 111.003071,123.461625 111.009212,123.409244 C111.033776,123.171989 111.113609,122.937815 111.24564,122.709804 C111.964139,121.847059 114.273159,121.064426 117.67835,120.445098 C122.529749,119.557703 129.610335,119 137.498465,119 C145.976131,119 153.520364,119.643978 158.368692,120.645378 C161.199699,121.233894 163.115694,121.939496 163.75743,122.709804 C163.889462,122.937815 163.966224,123.171989 163.993859,123.409244 C163.996929,123.461625 164,123.520168 164,123.581793" id="Fill-151" fill="#E38081"></path>
                <path d="M164,122.998563 C164,123.035932 163.996929,123.076177 163.993859,123.113547 C163.861827,123.829321 162.477029,124.496227 160.161868,125.071146 C155.513122,126.226734 147.103007,127 137.498465,127 C127.93691,127 119.554429,126.232483 114.893401,125.088394 C112.544464,124.507725 111.138173,123.832195 111.009212,123.113547 C111.003071,123.076177 111,123.035932 111,122.998563 C111,122.817463 111.079833,122.639238 111.24564,122.461013 C111.964139,121.656126 114.273159,120.925979 117.67835,120.348185 C122.529749,119.520302 129.610335,119 137.498465,119 C145.976131,119 153.520364,119.600791 158.368692,120.535034 C161.199699,121.084082 163.115694,121.742364 163.75743,122.461013 C163.923237,122.639238 164,122.817463 164,122.998563" id="Fill-152" fill="#E99E90"></path>
                <path d="M149.748521,168 C149.695708,168 149.63996,167.982178 149.593015,167.943565 L127.091568,149.447649 C126.985941,149.361511 126.968336,149.201116 127.056359,149.094186 C127.144381,148.984286 127.299887,148.969435 127.408448,149.055573 L149.906962,167.551488 C150.015522,167.640596 150.030193,167.798021 149.945105,167.907921 C149.895225,167.970297 149.821873,168 149.748521,168" id="Fill-153" fill="#E99E90"></path>
                <path d="M123.250024,168 C123.176667,168 123.103311,167.970296 123.056362,167.907917 C122.968334,167.798011 122.98594,167.640579 123.091574,167.551466 L145.59446,149.054637 C145.700094,148.968495 145.858544,148.986317 145.943638,149.093253 C146.031666,149.200188 146.01406,149.360591 145.908426,149.446733 L123.40554,167.943562 C123.361526,167.982177 123.305775,168 123.250024,168" id="Fill-154" fill="#E99E90"></path>
                <path d="M118,120 C118.003095,119.997881 118.00619,119.995763 118.009285,119.993644 C122.899412,119.383475 130.036521,119 137.98762,119 C137.990715,119 137.996905,119 138,119 C130.055091,119 122.924172,119.383475 118.03714,119.993644 C118.02476,119.995763 118.01238,119.997881 118,120" id="Fill-155" fill="#D7BAB2"></path>
                <path d="M136.988053,129 C127.684496,129 119.530817,128.200599 115,127.008982 C115,127.005988 115,127.002994 115,127 C115.00896,127.002994 115.01792,127.005988 115.02688,127.008982 C119.557698,128.200599 127.705403,129 137,129 C136.997013,129 136.99104,129 136.988053,129" id="Fill-156" fill="#CA7B78"></path>
                <path d="M137.481375,127 C127.983406,127 119.657423,126.232483 115.027468,125.088394 C115.018312,125.085519 115.009156,125.082645 115,125.07977 C115.085457,123.412504 115.866781,121.745239 117.75905,120.356809 C117.771258,120.353935 117.783467,120.35106 117.795675,120.348185 C122.614856,119.520302 129.646772,119 137.481375,119 C145.901972,119 153.394747,119.600791 158.213928,120.535034 C159.169219,121.805605 160.087885,123.464247 159.993271,125.071146 C155.375525,126.226734 147.022073,127 137.481375,127" id="Fill-157" fill="#CB887E"></path>
                <path d="M137.055269,24.7835754 C137.124455,25.8153317 136.552098,26.9273025 135.74388,28.0368878 C134.275251,30.0616349 132.039287,32.0562643 131.54555,33.470009 C130.77507,35.6584654 132.797187,39.9140127 132.797187,39.9140127 C132.797187,39.9140127 131.863177,44.28854 129.171214,45.5645183 C129.007683,45.6423473 128.825284,45.7106341 128.627161,45.7702732 C125.595558,46.632058 118.114039,45.0039109 119.173842,41.9805072 C119.500903,41.0498392 119.55751,40.0660924 119.482034,39.1294604 C119.280766,36.8366356 119.173842,34.8715276 119.173842,34.8715276 C116.868692,36.5712417 113.214415,36.0222638 112.384183,35.3546042 C111.547662,34.6896284 110.009847,33.0465714 108.538073,30.2521818 C107.063154,27.4551085 107.192091,24.9025554 107.264422,23.7518192 C107.333608,22.5948208 107.638655,22.6574418 107.264422,21.0140867 C106.890189,19.3740117 106.934216,15.357319 107.264422,15.1187626 C107.519152,13.8415915 107.861937,12.5733662 108.255039,11.3292948 C108.651286,10.0834342 109.00665,8.79672082 109.695365,7.66119254 C110.478425,6.3720936 111.434449,5.92837877 112.969119,5.77898285 C117.654896,5.32244561 123.117442,4.08433809 127.554778,6.18751062 C131.71537,7.94537281 133.577102,14.4886756 135.517454,15.485543 C140.130899,17.8532149 136.863435,21.8642419 137.055269,24.7835754" id="Fill-158" fill="#F8D2C3"></path>
                <path d="M132.205071,42 C132.205071,42 131.351976,39.92457 131,37.8318393 C131.351976,39.9239171 132.205071,41.9993471 132.205071,41.9993471 C132.205071,41.9993471 132.205071,41.9996736 132.205071,42 M131.265474,34.3361205 C132.00522,32.8518519 133.780015,30.9393095 135,29.0009793 C135,29.0006529 135,29.0003264 135,29 C133.780015,30.9373509 132.008203,32.8505461 131.265474,34.3361205" id="Fill-159" fill="#F3CDC3"></path>
                <path d="M130.566073,43 C130.529536,41.9416674 130.289441,40.4645524 130.041517,37.7962751 C129.483035,31.7543706 134.739027,29.2302996 135,29 C133.932621,30.8257928 132.379833,32.6272951 131.732621,34.0253887 C131.64128,34.2258631 131.568208,34.4177282 131.516013,34.6006764 C131.302016,35.3506106 131.346381,36.3363788 131.500355,37.3181499 C131.808303,39.2893789 132.554685,41.2443117 132.554685,41.2443117 C131.873546,41.9542739 131.208066,42.5329439 130.566073,43" id="Fill-160" fill="#EFB8A9"></path>
                <path d="M131,3.17766198 C131,3.17766198 132.849796,-0.482884813 137.16084,0.0537152181 C141.474973,0.590001631 144.538408,6.58731454 143.92078,9.35875491 C143.30624,12.1298817 141.175423,14.2759682 137.478919,12.1195323 C133.782415,9.96309639 131,3.91874081 131,3.91874081 L131,3.17766198" id="Fill-161" fill="#181F34"></path>
                <path d="M108,7.57540339 C108,7.57540339 110.996127,-1.87896982 122.962512,0.336287062 C134.928897,2.55154394 138.115302,8.26021698 138.888496,13.1166842 C139.66471,17.9731514 136.133993,23 136.133993,23 C136.133993,23 135.617523,16.4394201 130.667269,20.6995524 C128.109085,22.9028527 125.297195,16.8456451 124.913619,14.4680776 C124.527022,12.09051 109.824255,5.86800259 108,7.57540339" id="Fill-162" fill="#181F34"></path>
                <path d="M107.314677,16.8997553 C107.314677,16.8997553 104.606077,6.14946417 115.082212,5.06422025 C125.558347,3.97929356 126,17 126,17 L119.131213,16.8191789 L118.340562,12.5695654 L118.149076,16.8775492 L112.089472,16.9095894 L111.474863,14.5585977 L111.295731,16.8191789 L110.591557,15.8246628 L110.415514,16.8191789 L107.314677,16.8997553" id="Fill-163" fill="#161C2E"></path>
                <path d="M91.7673116,41.1688164 L91.7643604,41.1840256 C91.7171402,41.3435676 91.6610662,41.5065239 91.602041,41.6697906 C91.4633317,42.0304672 91.3511838,42.3718994 91.2626459,42.6943977 C90.6812474,44.7817902 90.9940811,46.1406905 91.0649114,47.1122204 C91.150498,48.2352221 86.7147519,47.9735608 86.7147519,47.9735608 L86.4402846,46.7667531 C86.4402846,46.7667531 85.7201767,45.5487712 84.7374066,44.2277388 C84.2888149,43.6202998 83.7871004,42.9942373 83.2676784,42.4553951 L83.2647271,42.4476353 C81.4969215,40.5880712 81.1221113,37.8364377 80.0183394,35.5746044 C79.0031055,33.4946613 76.8162207,31.1493322 78.8112735,28.8036927 C80.8004238,26.4735729 83.7044651,29.7904319 84.9351412,31.4150286 C85.2568287,31.8325071 87.4555185,36.0377106 87.9454279,35.3660203 C88.7688299,34.2423979 88.600608,30.4434986 89.7516,29.6656539 C90.9055433,28.8874988 91.9709487,29.3198762 91.478088,30.8721513 C90.9822761,32.4281511 90.4097313,33.6386836 90.9055433,35.0202426 C91.2360846,35.9539046 91.9060209,37.4416179 91.9916075,39.134501 L91.9916075,39.1422609 C92.0240714,39.7947068 91.9650462,40.4744674 91.7673116,41.1688164" id="Fill-164" fill="#F8D2C3"></path>
                <path d="M85.3677069,45 C85.1071913,44.5098841 84.6078697,43.6040537 84,42.6481775 C84.578019,43.1613145 85.3541384,43.5763617 86.3473541,43.5766953 C86.7462687,43.5766953 87.1777476,43.5103011 87.6472185,43.357828 C88.8331072,42.9704729 89.5576662,42.0646426 90,41 C89.7557666,42.0252732 89.6824966,42.8873968 89.6824966,43.6207357 C89.6824966,43.7511886 89.6852103,43.8779715 89.687924,44.0007507 C89.6445047,43.9990825 89.6010855,43.9984152 89.5549525,43.9984152 C88.2550882,43.9984152 86.3663501,44.6286596 85.3677069,45" id="Fill-165" fill="#EFB8A9"></path>
                <path d="M69.8908256,182.534585 C69.1699228,183.19551 67.4695653,187.984097 65.6505783,192.223993 C64.1722712,195.678261 62.6118358,198.764655 61.4346653,198.967297 C59.2354553,199.344523 57.1731255,196.357891 55.6339827,195.176332 C52.4735688,192.750862 48.6135446,192.183465 45.1884954,190.291099 C42.8554469,189.00666 35.2783622,182.350648 41.2341759,180.972682 C43.2843385,180.495694 45.2462894,180.779393 47.1474045,181.406024 C49.6112498,182.213475 51.9655908,183.597676 54.2773469,184.667003 C55.3967235,185.187637 56.5556433,185.873502 57.7541063,185.175167 C58.520636,184.726237 60.1814502,180 60.2727037,180 C60.2727037,180 71.2018347,181.343673 69.8908256,182.534585" id="Fill-166" fill="#F8D2C3"></path>
                <path d="M65,192.322865 C63.5577804,195.72673 62.0354375,198.768089 60.8870034,198.967775 C58.7414792,199.339496 56.7294938,196.396444 55.2279236,195.232125 C52.1446599,192.842047 48.3788643,192.282928 45.0374255,190.418176 C42.76133,189.152479 35.3692127,182.593588 41.1796365,181.235729 C43.1797517,180.7657 45.0938086,181.04526 46.9485149,181.662748 C46.372814,186.728608 51.2217581,187.339952 57.0499871,190.577924 C60.7593996,192.63929 63.4361117,192.614713 65,192.322865" id="Fill-167" fill="#191F34"></path>
                <path d="M123.574968,198.351744 C122.056734,199.934117 118.810751,198.76949 116.961543,198.725184 C113.159886,198.6429 109.828882,200.440476 106.115283,200.934176 C103.692182,201.260145 94.8014071,200.472124 97.5068991,196.373778 C97.6283578,196.190222 97.7680352,196.006667 97.9228951,195.826276 C99.2710864,194.250233 100.962398,193.329292 102.793388,192.721661 C105.161832,191.924145 107.761048,191.651977 110.15682,191.151947 C111.316751,190.914591 112.59814,190.781671 113.153813,189.522103 C113.50908,188.721422 112.221618,183.990127 112.297529,183.936326 C112.297529,183.936326 121.586082,178.625882 121.20956,180.341174 C121.006117,181.284269 122.293578,186.088353 123.189336,190.522162 L123.189336,190.528492 L123.198446,190.563304 C123.921125,194.164785 124.379631,197.509921 123.574968,198.351744" id="Fill-168" fill="#F8D2C3"></path>
                <path d="M123.574968,199.218088 C122.056734,200.880322 118.810751,199.656918 116.961543,199.610375 C113.159886,199.523939 109.828882,201.412237 106.115283,201.930854 C103.692182,202.273275 94.8014071,201.445482 97.5068991,197.140294 C97.6283578,196.947475 97.7680352,196.754656 97.9228951,196.565161 C99.2710864,194.909576 100.962398,193.942155 102.793388,193.303857 C105.140577,197.961438 109.370375,195.431517 115.841086,194.513964 C119.961572,193.928857 122.090135,192.230054 123.189336,191 L123.198446,191.036569 C123.921125,194.819815 124.379631,198.333779 123.574968,199.218088" id="Fill-169" fill="#191F34"></path>
                <path d="M157.651208,117.178518 C153.159067,125.133272 140.300884,124.292402 132.556128,125.61464 C131.880023,125.730412 129.455789,126.032028 126.425497,126.489023 C123.148519,126.985624 119.168025,127.668069 115.930638,128.496753 C114.706339,128.810556 113.588633,129.145685 112.653659,129.499094 C110.865939,130.175446 109.751279,130.924918 109.857872,131.723135 C110.357337,135.449165 126.742231,187.601397 126.742231,189.091199 C126.742231,189.88637 121.95772,190.187987 117.480807,189.883323 C113.549041,189.61522 109.854826,188.880982 109.854826,187.601397 C109.857872,184.871615 104.400301,166.402937 100.922318,159.368266 C97.5539733,152.559045 92.7907809,134.632668 92.4984111,133.520647 L92.49232,133.502368 L92.4831835,133.462761 L92.4740469,133.474948 L68.8956355,185.864817 C68.8956355,185.864817 64.9516879,185.01176 61.1234699,183.774828 C57.5114839,182.611015 54,181.102933 54,179.655783 C54,176.676177 59.4636618,168.645258 61.6990731,163.59699 C63.9314388,158.545676 74.8526715,124.069998 79.8229592,119.32944 C84.7841103,114.588882 107.378819,103.663662 112.093283,101.677259 C116.810793,99.6878087 119.978133,97.951229 120.383187,86.776186 L126.078308,86.4258234 L132.680994,86.0236681 L143.507816,85.3595025 L149.403942,85 C149.403942,85 149.580582,92.2387956 153.554984,97.207851 C157.477614,102.112927 161.022598,111.197981 157.651208,117.178518" id="Fill-170" fill="#303959"></path>
                <path d="M125.171695,104.674559 L121,106 C122.362944,105.480693 124.308783,104.532655 125.651726,103.001907 C126.966096,101.507389 125.288846,93.7026855 123.640169,87.3985381 L129.834851,87 C129.837708,87.03925 129.843423,87.0845384 129.84628,87.1298268 C130.034864,89.943747 130.01772,94.451454 129.96343,97.9748927 C129.914856,101.07262 127.980446,103.780868 125.171695,104.674559" id="Fill-171" fill="#191F34"></path>
                <path d="M156.674996,116.799236 C152.262081,124.660229 139.630672,123.82927 132.022507,125.135923 C131.358326,125.25033 128.976848,125.548392 126,126 C127.549756,125.006462 132.510172,124.353136 144.348752,116.693861 C158.009342,107.860405 142.398094,87.9806139 142.398094,86.0116023 C142.398094,86.0116023 142.5417,85.7617124 142.781045,85.3552651 L148.573183,85 C148.573183,85 148.746708,92.1534733 152.651016,97.0639595 C156.504463,101.91122 159.986926,110.889191 156.674996,116.799236" id="Fill-172" fill="#191F34"></path>
                <path d="M89.5,120 C89.4575472,120.091093 89.2830189,120.439271 89,121 C89.1792453,120.439271 89.4292453,120.089069 89.5,120" id="Fill-173" fill="#191F34"></path>
                <path d="M93,132.160207 L69.1014794,184 C69.1014794,184 65.1039873,183.1559 61.223796,181.931955 C60.6156833,180.6236 61.2577516,179.236865 63.0172655,176.427218 C67.169101,169.79199 75.284473,169.312661 80.5691885,154.899655 C84.998842,142.807924 88.9037281,126.079673 90.0458687,121 C89.7464427,123.143411 89.7711376,127.345823 93,132.160207" id="Fill-174" fill="#191F34"></path>
                <polyline id="Fill-175" fill="#191F34" points="92.01 134.01 92.01 134.03 92 134 92.01 134.01"></polyline>
                <path d="M126,188.064789 C126,189.482981 117.839026,188.87346 116.92859,188.849321 C118.581749,188.604909 119.399344,184.90554 119.79167,183.632185 C120.684136,180.732435 121.262143,177.573186 120.956668,174.531616 C120.639213,171.38142 119.510154,168.391147 118.683574,165.355612 C116.093027,155.817517 112.981374,146.415205 109.770892,137.073243 C109.722974,136.931423 108.833503,134.61102 108.902385,134.568776 C108.89939,134.568776 106.464574,136.044299 107.683479,134.076935 C108.902385,132.109571 107.929057,131.985856 105.000091,131.865159 C102.06813,131.741444 99.0163751,131.005191 102.676085,130.265921 C106.338791,129.529668 107.929057,131.246586 106.829946,130.265921 C105.730835,129.282239 103.409824,126.946748 107.437902,128.542968 C109.150957,129.22189 110.798127,129.249047 112.14581,129.043862 C110.387832,129.713731 109.291716,130.456019 109.396535,131.246586 C109.887691,134.936902 126,186.586249 126,188.064789" id="Fill-176" fill="#191F34"></path>
                <path d="M151.784819,56.6000645 C150.807642,64.6596769 151.174459,83.996664 148.477449,85.2344988 C145.780439,86.475375 107.793792,85.8549369 107.057151,85.2344988 C106.422737,84.6992189 106.885769,81.4692912 107.024077,80.6116268 C107.045124,80.4808482 107.135325,80.3744005 107.2586,80.3318214 L116.248633,77.1809691 C116.248633,77.1809691 116.221572,77.1414314 116.167452,77.0745214 C115.518004,76.2381465 111.101162,70.5082183 111.101162,69.2430112 C111.101162,69.2430112 102.032955,87.0380272 95.4152086,85.9522605 C88.797462,84.8634525 85,44.4559014 85,44.4559014 C85,44.4559014 91.1246478,42.3454995 91.8612893,43.8327261 C92.5949241,45.322994 98.1092118,66.3962953 98.1092118,66.3962953 C98.1092118,66.3962953 102.721489,56.6365609 106.194228,51.1256108 C107.255593,49.4498197 108.208717,48.1666686 108.897251,47.676705 C111.837804,45.5693445 119.513909,40.7454383 119.513909,40.7454383 L119.516915,40.7518252 C119.546982,40.7819347 119.742418,40.9461683 120.082175,41.1621051 L120.094202,41.1715333 C120.154336,41.2077255 120.220483,41.2472632 120.292644,41.2898423 C122.069604,42.3363754 126.714955,44.1031033 132.424678,39 C132.424678,39 135.214896,39.7086376 138.450105,40.6240879 C141.444778,41.4692828 144.821302,42.4884436 146.715523,43.2731153 L146.71853,43.2761566 C147.214635,43.479928 147.605506,43.6654511 147.867089,43.8327261 C150.194275,45.322994 152.76801,48.546839 151.784819,56.6000645" id="Fill-177" fill="#DDBB6F"></path>
                <path d="M105,53 C104.755299,54.3249312 104.341391,56.0954503 103.859799,58.6042566 C102.828933,64.0036238 99.194868,74.9767321 99.194868,72.6911868 C99.194868,70.4087554 98,68.6338769 98,68.6338769 C98,68.6338769 101.993306,58.6416225 105,53" id="Fill-178" fill="#D7AD2E"></path>
                <path d="M116,80 C116,80 136.129273,77.4095238 139.250827,76.8920635 C139.250827,76.8920635 139.750153,65.2793651 141,63 C141,63 138.57689,70.6 132.278642,75.4698413 C128.418821,78.4539683 123.106972,79.3111111 116,80" id="Fill-179" fill="#D7AD2E"></path>
                <path d="M116.016622,78 C115.37316,77.2524272 111,72.1308738 111,71 C111,71 114.095173,75.2135922 118.32832,75.5452427 C121.748203,75.8143689 119.388841,77.5297087 116.016622,78" id="Fill-180" fill="#D7AD2E"></path>
                <path d="M151.784546,58.4254536 C150.806125,66.5464908 151.173409,86.030851 148.47297,87.2781197 C145.775541,88.528453 107.737578,87.9032864 107,87.2781197 C107,87.2781197 140.65163,87.7807047 144.207058,84.4097081 C147.765497,81.035647 150.222084,71.5416948 150.095642,65.6730962 C149.975221,59.8014331 151.299851,51.3062152 146.711814,45 C147.20855,45.2059372 147.599918,45.3934872 147.861834,45.5617306 C150.191979,47.0609047 152.768987,50.3096261 151.784546,58.4254536" id="Fill-181" fill="#D7AD2E"></path>
                <path d="M140,40.5034357 C137.710918,42.310937 130.96808,44.7828781 126.632509,43.7605982 C121.908168,42.6487878 121.034212,41.1256441 121,41.001484 L121.012441,41.0102118 C121.043542,41.0327352 121.111966,41.0693356 121.217712,41.1197317 C123.055819,42.0885186 127.861025,43.7239977 133.767229,39 C133.767229,39 136.653462,39.6559935 140,40.5034357" id="Fill-182" fill="#D7AD2E"></path>
                <path d="M107,85.248222 C106.167954,85.4272752 104.988232,85.6750064 103.772851,85.9129265 C102.079043,86.2415995 100.129679,85.576895 98.0673939,84.9686046 C97.3928425,84.7674763 96.7034331,84.5761591 96.0080806,84.4216338 C93.8715058,83.9556048 93.2296419,84.1984304 92.3025051,84.5908759 C92.0083175,84.7135151 91.6873855,84.8533237 91.2802774,84.9931324 C89.8420268,85.4787837 87.9194067,84.4706894 88.0026112,83.9114547 C88.0144976,83.8157961 88.091759,83.7348542 88.2433102,83.6759874 C88.6444752,83.5190092 89.6548165,83.0627914 90.8523681,82.5722346 C92.6769257,81.829041 94.941279,81 96.23095,81 C97.3363823,81 100.406037,81.1422615 103.157731,81.2796174 C104.379056,81.3360314 105.537977,81.397351 106.429454,81.4415011 C106.364079,81.7652686 106.224414,82.4790288 106.159039,83.1976945 C106.08475,84.0561689 106.105551,84.9269073 106.468085,85.1599218 C106.51563,85.1893552 106.693926,85.2212414 107,85.248222" id="Fill-183" fill="#F8D2C3"></path>
                <path d="M102.816078,88 C101.42837,88 99.9039725,87.3070866 98.3082577,86.6281715 C98.2280263,86.5931759 98.1477948,86.5581802 98.0675633,86.5266842 C97.3930247,86.23972 96.7036284,85.9667542 96.008289,85.7462817 C95.176259,85.4873141 94.5730372,85.3823272 94.0886769,85.3823272 C93.5686581,85.3823272 93.1912731,85.5048119 92.8198311,85.6937883 C92.6504536,85.7777778 92.481076,85.8792651 92.3027839,85.9877515 C92.0086018,86.1627297 91.6876759,86.3622047 91.2805755,86.5616798 C91.0131373,86.687664 90.7308414,86.743657 90.4485455,86.743657 C90.2345949,86.743657 90.0176728,86.712161 89.8096653,86.656168 C89.1351267,86.4741907 88.5289334,86.0437445 88.2198937,85.6167979 C88.0802315,85.4278215 88.0029715,85.2388451 88,85.0743657 C88,85.0568679 88.0029715,85.0393701 88.0029715,85.0183727 C88.2704098,85.3508311 88.6507663,85.6587927 89.3163904,85.6587927 C89.6818893,85.6587927 90.1335627,85.5643045 90.7040976,85.3333333 C92.1958086,84.7244094 93.0813262,84.0979878 94.2996559,84.0979878 C94.9236784,84.0979878 95.6398186,84.2624672 96.5699093,84.6824147 C98.0051611,85.3263342 99.8653425,85.7882765 101.597748,85.7882765 C103.16969,85.7882765 104.634657,85.4068241 105.582577,84.4339458 C105.775727,84.2379703 105.968877,84.0944882 106.159055,84 C106.138255,84.3499563 106.123397,84.6999125 106.123397,85.032371 C106.123397,85.8582677 106.209571,86.5616798 106.468095,86.79965 C106.51564,86.8416448 106.693932,86.8871391 107,86.9256343 C106.985142,86.9291339 106.970285,86.9326334 106.958398,86.936133 C106.12934,87.191601 104.96747,87.5415573 103.772912,87.8740157 C103.460901,87.9615048 103.142947,88 102.816078,88" id="Fill-184" fill="#EFB8A9"></path>
                <path d="M91,40 C91.255,39.2997396 91.345,38.5991729 91.38,38 C91.435,38.6438965 91.335,39.3147496 91,40" id="Fill-185" fill="#E99E90"></path>
                <path d="M142,14.7026088 L142,14.706208 C141.432787,14.9597874 140.783607,15.0605648 140.039344,14.9637138 C139.239344,11.2146647 137,7.14070667 131,4.33530019 C131.232787,3.99599456 131.62623,3.49243489 132.193443,3 C136.488525,5.12646801 141.888525,8.92394265 142,14.7026088" id="Fill-186" fill="#161C2E"></path>
                <path d="M120.265629,41 C120.092157,38.4860226 120,36.3313716 120,36.3313716 C120,36.3313716 125.91159,33.0650646 126.29648,30.3346412 C126.684081,27.5983325 126.629871,27 126.629871,27 C126.629871,27 127.678833,31.0670263 126.244981,32.9339546 C125.196019,34.2940984 122.219896,38.5219879 120.265629,41" id="Fill-187" fill="#EFB8A9"></path>
                <path d="M108.5,18.303364 C106.736842,18.303364 105.302632,19.737305 105.302632,21.4998684 C105.302632,23.2629581 106.736842,24.6968991 108.5,24.6968991 C110.263158,24.6968991 111.697368,23.2629581 111.697368,21.4998684 C111.697368,19.737305 110.263158,18.303364 108.5,18.303364 Z M108.5,25 C106.568421,25 105,23.4297688 105,21.4998684 C105,19.5697049 106.568421,18 108.5,18 C110.428947,18 112,19.5697049 112,21.4998684 C112,23.4297688 110.428947,25 108.5,25 Z" id="Fill-188" fill="#FFFFFE"></path>
                <path d="M117,17.3467413 C114.984408,17.3467413 113.345854,18.9854698 113.345854,20.9998582 C113.345854,23.0145302 114.984408,24.6532587 117,24.6532587 C119.012757,24.6532587 120.651311,23.0145302 120.651311,20.9998582 C120.651311,18.9854698 119.012757,17.3467413 117,17.3467413 Z M117,25 C114.794472,25 113,23.2056207 113,20.9998582 C113,18.7943793 114.794472,17 117,17 C119.205528,17 121,18.7943793 121,20.9998582 C121,23.2056207 119.205528,25 117,25 Z" id="Fill-189" fill="#FFFFFE"></path>
                <path d="M59.4353521,87 L0,87 C0.247634562,91.7423567 6.97656878,90.9503475 6.97656878,90.9503475 L130.023431,90.9503475 C130.023431,90.9503475 136.752365,91.7423567 137,87 L59.4353521,87" id="Fill-190" fill="#E38081"></path>
            </g>
        </g>
    </g>
</svg>