<svg xmlns="http://www.w3.org/2000/svg" width="20" height="21" viewBox="0 0 20 21">
    <path fill="#3A9CF2" fill-rule="evenodd" d="M0 10.25c0-1.38.26-2.679.781-3.896A10.035 10.035 0 0 1 2.92 3.17 10.035 10.035 0 0 1 6.104 1.03 9.801 9.801 0 0 1 10 .25c1.38 0 2.679.26 3.896.781A10.035 10.035 0 0 1 17.08 3.17a10.035 10.035 0 0 1 2.139 3.184A9.801 9.801 0 0 1 20 10.25c0 1.38-.26 2.679-.781 3.896a10.035 10.035 0 0 1-2.139 3.184 10.035 10.035 0 0 1-3.184 2.139A9.801 9.801 0 0 1 10 20.25c-1.38 0-2.679-.26-3.896-.781A10.035 10.035 0 0 1 2.92 17.33 10.035 10.035 0 0 1 .78 14.146 9.801 9.801 0 0 1 0 10.25zm18.77 0a8.44 8.44 0 0 0-.694-3.408 8.83 8.83 0 0 0-1.885-2.774 9.035 9.035 0 0 0-2.783-1.875A8.44 8.44 0 0 0 10 1.5a8.44 8.44 0 0 0-3.408.693 8.914 8.914 0 0 0-2.774 1.875 8.914 8.914 0 0 0-1.875 2.774 8.44 8.44 0 0 0-.693 3.408c0 1.21.231 2.347.693 3.408a8.914 8.914 0 0 0 1.875 2.774 8.914 8.914 0 0 0 2.774 1.875A8.44 8.44 0 0 0 10 19a8.44 8.44 0 0 0 3.408-.693 9.035 9.035 0 0 0 2.783-1.875 8.83 8.83 0 0 0 1.885-2.774 8.44 8.44 0 0 0 .694-3.408zM9.375 5.875c0-.182.059-.332.176-.45A.608.608 0 0 1 10 5.25a.617.617 0 0 1 .625.625v7.07l2.285-2.304a.652.652 0 0 1 .45-.176c.169 0 .318.058.449.176a.89.89 0 0 1 .127.214.605.605 0 0 1 .048.235.605.605 0 0 1-.048.234.89.89 0 0 1-.127.215l-3.79 3.691-3.789-3.69a.617.617 0 0 1-.195-.45c0-.17.065-.32.195-.45a.596.596 0 0 1 .44-.175c.176 0 .322.058.44.176l2.265 2.265V5.875z" opacity=".59"/>
</svg>
