<?xml version="1.0" encoding="UTF-8"?>
<svg width="447px" height="301px" viewBox="0 0 447 301" version="1.1" xmlns="http://www.w3.org/2000/svg" xmlns:xlink="http://www.w3.org/1999/xlink">
    <!-- Generator: Sketch 51.3 (57544) - http://www.bohemiancoding.com/sketch -->
    <title>Fill 27</title>
    <desc>Created with Sketch.</desc>
    <defs>
        <linearGradient x1="50%" y1="100%" x2="50%" y2="3.061617e-15%" id="linearGradient-1">
            <stop stop-color="#72B8FC" offset="0%"></stop>
            <stop stop-color="#3E82F7" offset="100%"></stop>
        </linearGradient>
    </defs>
    <g id="Page-1" stroke="none" stroke-width="1" fill="none" fill-rule="evenodd">
        <path d="M401.900052,65.7848585 C361.965259,6.44401463 349.391454,25.2670251 272.17489,28.419319 C194.959538,31.5716129 207.931751,15.2933389 132.568663,1.5799012 C113.613356,-1.86962377 93.3576145,-0.213839602 77.6708301,12.0091792 C62.7845001,23.6081955 61.7705912,43.7489507 50.8416594,56.0149096 C50.0311992,56.9245707 49.1658595,57.7912917 48.236544,58.607459 C44.1981908,62.1547413 39.276912,64.4735091 34.6072913,67.1141757 C19.1685265,75.8459476 1.07704355,92.4421613 0.0440328525,111.705232 C-0.993829086,131.05601 16.5888802,144.887305 23.8781699,161.190247 C34.367155,184.649879 2.04304651,233.21092 24.0367448,250.74268 L24.0412928,250.74603 C28.8027839,254.535726 37.9140171,257.307954 43.8755834,258.42988 C49.2528786,259.442171 55.5167377,257.216288 61.7672559,254.9901 C68.2530592,252.680469 74.7249152,250.370532 80.1771014,251.678836 C91.1554552,254.312803 102.176561,260.938376 112.539717,265.530535 C135.501237,275.705218 159.31324,289.372061 183.412073,295.912667 C208.35775,302.682592 232.791622,301.385252 258.47681,299.439241 C274.809719,298.205854 291.373668,296.899377 306.242715,290.583217 C320.547806,284.507948 335.632127,277.854052 351.977771,276.253085 C360.509887,275.417427 369.278502,276.830493 377.959187,278.243254 C390.387455,280.266314 402.63077,282.289069 413.734043,277.713659 C450.00615,262.766225 449.21176,208.932074 444.994214,180.607415 C439.039318,140.644149 425.001045,100.116266 401.900052,65.7848585" id="Fill-27" fill="url(#linearGradient-1)" fill-rule="nonzero"></path>
    </g>
</svg>