<svg xmlns="http://www.w3.org/2000/svg" xmlns:xlink="http://www.w3.org/1999/xlink" width="582" height="460" viewBox="0 0 582 460">
    <defs>
        <path id="a" d="M.1.088h183.883v130.894H.1z"/>
        <linearGradient id="c" x1="50%" x2="50%" y1="100%" y2="0%">
            <stop offset="0%" stop-color="#72B8FC"/>
            <stop offset="100%" stop-color="#3E82F7"/>
        </linearGradient>
        <linearGradient id="d" x1="50%" x2="50%" y1="0%" y2="100%">
            <stop offset="0%" stop-color="#72B8FC"/>
            <stop offset="100%" stop-color="#3E82F7"/>
        </linearGradient>
        <path id="e" d="M.018 0h211.924v57.988H.018z"/>
        <path id="g" d="M.018.115h87.708v110.692H.018z"/>
        <linearGradient id="i" x1="50%" x2="50%" y1="0%" y2="100%">
            <stop offset="0%" stop-color="#191F34"/>
            <stop offset="100%" stop-color="#526CB0"/>
        </linearGradient>
    </defs>
    <g fill="none" fill-rule="evenodd">
        <path fill="#325A45" d="M374.868 324.338c-.034-.09-.088-7.277-1.732-10.683 0 0-.306-.803 0-.63.308.169 1.511 1.764 1.862 3.32.351 1.558.793 1.787 1.362 2.835.572 1.046.66 7.638.637 7.739-.023.097-.878.119-.92 0-.045-.123-1.209-2.58-1.209-2.58"/>
        <path fill="#23392D" d="M377.996 326.94c-.007.022-.087.044-.2.06l-2.146-7.35c-.291-1.96-.787-4.125-1.65-5.65.554.637 1.166 1.531 1.424 2.416.452 1.55 1.02 1.778 1.752 2.822.736 1.04.85 7.606.82 7.703"/>
        <path fill="#325A45" d="M376.53 315.47s-.47-3.708-.47-4.823c0-1.114-.136-3.466 0-3.582.14-.12.201-.12.204.4.003.524 1.538 7.882 1.904 8.617.367.735-.183 1.494.346 3.56.526 2.064 2.324 4.581 1.023 4.342-1.298-.236-3.568-1.21-3.202-3.273.367-2.067.195-5.242.195-5.242"/>
        <path fill="#23392D" d="M379.395 323c.051-.187-.645-4.58-.297-5.96.348-1.379.828-1.964.642-3.926-.187-1.963.186-4.065.4-4.113.214-.048.4 1.752.4 2.735 0 .98.348 4.51.455 5.071.107.56-1.6 6.193-1.6 6.193"/>
        <path fill="#325A45" d="M378.891 323.392s.085-4.263 1.006-6.499c.918-2.238 1.268-5.331 1.268-6.498 0-1.167.506-4.967.506-5.221 0-.255.107-.255.26.175.155.427 0 6.044 0 7.877 0 1.834-.24 3.738-.359 4.905-.121 1.167-2.006 8.04-2.531 7.866-.526-.178-1.204-1.106-1.006-1.342.198-.24.856-1.263.856-1.263M389 305.033s-.157-.126-.325.113c-.17.238-4.82 7.92-5.675 10.237l.136 2.617 1.661-3.697 4.203-9.27"/>
        <path fill="#457D5E" d="M377 328c-.071-.017-.148-.034-.227-.057a6.634 6.634 0 0 1-.319-.101c-.245-.088-.43-.017-.572.057-.15.074-.253.148-.33.044-.203-.29-1.37-3.336-1.8-4.094-.43-.758-.615-1.961-.736-2.456-.124-.496-.799-2.77-.736-3.211.05-.371-.026-.81-.063-1.173-.05-.529-.11-1.055-.171-1.58-.016-.128-.066-.327-.037-.401.016-.037.05-.04.119.01.192.141.33.697.419.95.079.233.263.964.47 1.277.202.313.387.758.468 1.099.082.34.327 1.149.551 1.62.227.469 1.084 2.376 1.35 3.002.166.391.75 2.234 1.168 3.572.016.05.03.098.045.141L377 328"/>
        <path fill="#457D5E" d="M377 325.466L375.596 327l-.308-.025-.333-.024-.507-.04s-.152-5.581-.548-7.61c-.395-2.027-1.363-7.41-2.107-8.935-.744-1.525-1.887-3.982-2.377-4.575 0 0-.715-.737-.27-.79.444-.052 1.774 1.864 2.14 2.226.365.358 1.854 3.497 2.219 4.306.365.808 1.014 1.99 1.156 2.423.144.429.76 3.068.856 3.481.095.41.128.933.349 1.238.22.306.142.574.095.88-.049.302.27.753.333.895.063.145 0 .343 0 .772 0 .432.46.753.382 1.13-.082.38.013.61.158.88.141.268-.066.484 0 .897.022.155.051.377.079.596.008.083.019.16.027.238l.06.503M383.538 316.601s.304-.492.345-.843c.043-.35.105-.281.38-.656.274-.375.274-.587.274-.75 0-.166.019-.188.187-.4.169-.21.234-.537.253-.704.01-.066.01-.051.022-.036.019.021.057.042.168-.196.19-.4.19-.892.38-1.007.188-.118.356-.26.378-.424.021-.163-.147-.375 0-.514.146-.142.274-.093.336-.26a3.74 3.74 0 0 0 .147-.632c.022-.139.212-.444.274-.492.065-.046.128-.282.147-.42.022-.143.35-.07.356-.306.002-.233-.068-.4 0-.517.068-.115.192-.115.255-.281.065-.164-.084-.303 0-.469.084-.163.252-.163.296-.327.04-.163.062-.33.19-.517.049-.072.052-.051.057-.033.008.03.014.06.196-.269.293-.541.567-1.43.82-1.548 0 0 .021.142-.106.35-.125.212-.51 1.126-.73 1.987-.223.862-2.722 5.679-3.373 7.81-.655 2.135-1.622 4.641-1.79 4.853l.538-3.399"/>
        <path fill="#325A45" d="M388 314s-.568-.064-1.25 1.418c-.685 1.48-2.222 5.188-2.686 6.068-.465.88-1.015 5.339-1.75 5.977-.733.634-.033.728.569.167.599-.56 1.803-4.14 2.118-5.226.207-.712.995-3.78 1.798-6.022.421-1.18.788-2.185 1.201-2.382"/>
        <path fill="#457D5E" d="M387.606 314.63c-.776.828-1.864 6.228-2.62 9.36-.753 3.137-2.666 3.73-2.729 3.751-.135.043-1.243.259-1.243.259H381c.046-.018.092-.037.14-.058l.006-.003c1.896-.934 3.33-4.986 3.485-5.314.154-.332 0-.307 0-.493 0-.185.223-.143.332-.38.111-.237.089-.566.068-.882-.022-.314.11-.25.221-.414.112-.167.2-.827.177-1.086-.022-.259.046-.353.267-.496.223-.14.223-.493.223-.87s.109-.426.332-.639c.22-.21.954-2.546 1.266-3.017.309-.472.865-.542.089.283"/>
        <path fill="#457D5E" d="M383.833 321.714c-.13.674-.258 4.96-2.832 6.225l-.005.003-.125.058H378h.003c.025-.037.447-.607.923-1.305.156-.225.314-.466.47-.707.328-.509.629-1.015.793-1.39.484-1.11.374-1.299.419-1.536.042-.235.175-.095.328-.403.153-.305.11-.801.11-1.015 0-.213.33-.542.417-.71.088-.165.153-1.085.439-1.488.045-.064.085-.115.122-.164.192-.26.274-.339.405-.637.153-.357 1.14-2.412 1.053-3.805-.088-1.396.11-2.908.286-2.838.175.074.175 1.963.218 2.765.045.805-.023 6.265-.153 6.947"/>
        <path fill="#35614A" d="M376.335 326l-.335-.022c.681-.48 1.61-1.232 1.973-1.978.008.074.019.143.027.211-.05.074-.102.148-.154.22-.264.36-.835 1.08-1.51 1.569M379 325.4c.095-.13.19-.265.28-.4 0 0-.1.155-.28.4"/>
        <path fill="#35614A" d="M377 326l-.437-.03.42.008c.009.007.009.015.017.022m-.446-.032a42.252 42.252 0 0 1-.553-.041c-.024-.304.314-.927.314-.927l.124.095c.074.518.115.856.115.873"/>
        <path fill="#35614A" d="M376.33 326l-.255-.008-.005-.003c0-.02-.025-.402-.07-.989.005.003.005.006.01.008.04.124.215.67.32.992"/>
        <path fill="#325A45" d="M383.56 323.543s-.434.603-.984 1.15c-.64.634-1.418 1.228-1.576 1.307 0 0 1.923-1.042 3-3l-.44.543"/>
        <path fill="#294636" d="M383 316c.006-.275.012-.546.015-.808a.928.928 0 0 0 .009-.068c.006-.021 2.216-3.448 3.943-6.124.003.087.036.195.033.33-.003.063-.039.103-.09.127-.077.042-.193.052-.256.087-.023.013-.038.029-.044.053-.021.12-.093.327-.161.366-.069.043-.277.31-.301.43a2.92 2.92 0 0 1-.16.552c-.07.145-.21.103-.37.227-.16.122.024.307 0 .449-.024.143-.209.267-.414.37-.209.1-.209.53-.417.879-.08.134-.128.174-.155.179-.003.003-.003.003-.006.003-.012 0-.018-.006-.024-.01-.003-.006-.009-.011-.012-.011-.003 0-.006.01-.012.042-.02.145-.092.43-.276.615-.185.185-.209.206-.209.348 0 .143 0 .327-.298.655-.3.327-.37.266-.417.573-.044.3-.363.718-.378.736"/>
        <path fill="#2F5340" d="M385.046 313c-.015 0-.023-.006-.03-.012-.008-.006-.012-.011-.016-.011.004 0 .012.005.015.011.008.006.016.012.031.012.004 0 .004 0 .008-.003-.004.003-.004.003-.008.003m2.623-3.903c.08-.038.23-.05.331-.097-.1.047-.25.059-.331.097M383 318c0-.245.14-.824.19-1-.005.2-.015.41-.025.62L383 318"/>
        <path fill="#F1D48D" d="M386 326.621v1.373c0 .095-.082.17-.187.17h-.016a.182.182 0 0 0-.184.144l-.675 3.65c-.314 1.695-1.883 2.953-3.757 3.036-.067.006-.133.006-.203.006h-2.026c-1.981 0-3.665-1.312-3.97-3.087l-.611-3.603a.154.154 0 0 0-.063-.103.189.189 0 0 0-.12-.043c-.106 0-.188-.075-.188-.17v-1.373c0-.345.308-.621.685-.621h10.63c.377 0 .685.276.685.621"/>
        <g transform="translate(359 329)">
            <mask id="b" fill="#fff">
                <use xlink:href="#a"/>
            </mask>
            <path fill="#E8C164" d="M25.875.088A.18.18 0 0 0 25.7.24l-.646 3.857a3.844 3.844 0 0 1-3.598 3.207c2.107-1.888 2-4.75 1.679-5.906-.325-1.155-2.745-1.31-2.745-1.31h5.486" mask="url(#b)"/>
            <path fill="#CDD9E4" d="M157.065 131c-1.032 0-2.101-.015-3.212-.049-35.762-1.045-37.183-8.492-64.668-8.492-3.16 0-6.664.097-10.612.316-14.395.797-31.337 2.189-45.787 2.189-23.926 0-41.02-3.812-28.432-20.438 9.042-11.942 43.869-17.628 80.392-17.628 45.047 0 92.68 8.64 97.79 24.853 0 0 10.579 19.249-25.471 19.249" mask="url(#b)" opacity=".401"/>
        </g>
        <path fill="#E99E90" d="M480.989 432.23l-18.102-94.706a.648.648 0 0 0-.753-.511.649.649 0 0 0-.51.757l3.64 19.045a.64.64 0 0 0-.583-.38h-72.873l3.569-18.665a.655.655 0 0 0-.52-.76.648.648 0 0 0-.743.514l-18.102 94.707a.647.647 0 0 0 .631.769.644.644 0 0 0 .629-.526l14.288-74.747h73.121a.641.641 0 0 0 .638-.62l14.407 75.367c.06.304.323.526.631.526a.649.649 0 0 0 .631-.77"/>
        <path fill="url(#c)" fill-rule="nonzero" d="M441.9 79.785c-39.935-59.341-52.509-40.518-129.725-37.366-77.215 3.153-64.243-13.126-139.606-26.84-18.956-3.449-39.211-1.793-54.898 10.43-14.887 11.6-15.9 31.74-26.83 44.006-.81.91-1.675 1.776-2.604 2.592-4.039 3.548-8.96 5.867-13.63 8.507-15.438 8.732-33.53 25.328-34.563 44.591-1.038 19.351 16.545 33.182 23.834 49.485 10.49 23.46-21.835 72.02.159 89.553l.004.003c4.762 3.79 13.873 6.562 19.835 7.684 5.377 1.012 11.64-1.214 17.891-3.44 6.486-2.31 12.958-4.62 18.41-3.311 10.978 2.634 22 9.26 32.363 13.852 22.961 10.174 46.773 23.841 70.872 30.382 24.946 6.77 49.38 5.472 75.065 3.526 16.333-1.233 32.897-2.54 47.766-8.856 14.305-6.075 29.39-12.729 45.735-14.33 8.532-.836 17.3.577 25.981 1.99 12.428 2.023 24.672 4.046 35.775-.53 36.272-14.947 35.478-68.78 31.26-97.106-5.955-39.963-19.993-80.49-43.094-114.822"/>
        <path fill="#CDD9E4" d="M315.443 415c-27.435 0-56.45-4.115-59.562-11.834 0 0-6.443-9.166 15.515-9.166.63 0 1.28.006 1.956.021 21.784.497 22.644 4.045 39.39 4.045 1.923 0 4.058-.048 6.46-.152 8.77-.378 19.089-1.04 27.89-1.04 14.573 0 24.984 1.814 17.317 9.734-5.506 5.685-26.718 8.392-48.966 8.392" opacity=".401"/>
        <path fill="#4D4D4A" d="M452 333.19v.66c0 .635-.431 1.15-.96 1.15H401l10.715-2 40.285.19"/>
        <path fill="#D2D4CF" d="M410 333.313l-11.494-28.242L386 303l13.622 32L410 333.313"/>
        <path fill="#4D4D4A" d="M398.529 306.657c.371.807 10.471 25.868 10.471 25.868l-8.223.475L389 305l9.529 1.657"/>
        <path fill="#D2D4CF" d="M411.734 333l40.266.19-3.08 1.197a8.9 8.9 0 0 1-3.23.613H401l10.734-2"/>
        <path fill="#4D4D4A" d="M416.415 335H432l-5.443-1H414l2.415 1M432.977 335H434l-5.065-1H427l5.977 1"/>
        <path fill="#DBDDE5" d="M537.502 419c-14.636 0-26.502-1.566-26.502-3.5 0-1.931 11.866-3.5 26.502-3.5 14.635 0 26.498 1.569 26.498 3.5 0 1.934-11.863 3.5-26.498 3.5"/>
        <path fill="#F7C03C" d="M522.775 321.946c2.474 3.793 2.99 8.493 4.96 12.557 1.654 3.41 4.358 6.322 7.65 8.287.907.542 1.463.824 1.818 1.232.32.368.475.843.575 1.707.338 2.978.382 6.002.475 8.995.32 10.459.364 20.926.392 31.388.01 2.628.012 5.26.012 7.888H540c-.022-5.038-.31-10.103-.429-15.076-.32-13.316-1.46-26.804-.914-40.089.143-3.477-.046-7.121-1.793-10.151-1.075-1.865-2.67-3.377-4.243-4.861-3.844-3.632-7.745-7.304-12.426-9.823a7.237 7.237 0 0 0 .532 4.828c.544 1.116 1.367 2.077 2.048 3.118"/>
        <path fill="#364163" d="M537 392h2.097c1.015-15.864 3.693-51.038 7.724-57.138.872 0 11.346-5.912 11.771-7.718.428-1.81.446-5.236 1.32-7.595 1.016-2.75 1.741-5.387 2.04-8.302.177-1.737 2.553-4.266 1.95-5.94-.5-1.383-4.49 2.266-5.984 3.774-1.497 1.51-3.867 4.779-6.236 6.163-2.369 1.383-5.484 8.175-6.22 10.939-.734 2.767 0 7.912 0 7.912s-6.506 28.305-7.486 43.9c-.374 6.008-.71 10.61-.976 14.005"/>
        <path fill="#364163" d="M536.506 379.713l-.086 12.209h2.793c.515-10.061-.29-30.89-14.185-41.979 0 0 2.034-.256 1.274-3.597-.759-3.342-5.725-7.187-5.555-9.028.154-1.705-1.45-3.194-2.228-4.766-1.63-3.303-4.328-2.782-6.58-5.28-.603-.665-2.899-4.567-4.047-3.983-1.142.582-.753 5.8-.664 6.4.284 1.868.908 4.312 2.682 5.37 2.312 1.38 2.828 7.653 4.627 8.906 1.796 1.254 8.478 6.397 9.892 6.524 1.414.123 12.207 11.287 12.077 29.224"/>
        <path fill="#F7C03C" d="M576.917 332.124a25.192 25.192 0 0 1-4.334 1.322c-1.021.214-2.086.38-2.953.947-.84.548-1.405 1.425-2.223 2.006-.935.663-2.12.89-3.148 1.41-1.663.85-2.815 2.444-3.568 4.125-.753 1.682-1.17 3.483-1.768 5.222-.182.524-.386 1.055-.753 1.476-.395.455-.945.748-1.472 1.046-6.553 3.673-11.828 9.512-15.26 16.042-2.87 5.456-4.558 11.465-5.305 17.542a56.389 56.389 0 0 0-.41 8.66h2.75c-.3-4.659-.214-9.347.471-13.97.584-3.943 1.615-7.84 3.238-11.503 1.26-2.847 2.88-5.541 4.867-7.964a31.9 31.9 0 0 1 5.235-5.065 33.981 33.981 0 0 1 4.34-2.811c1.058-.581 2.759-1.81 3.885-1.678 1.516.18 3.022.729 4.547.277 1.09-.325 1.966-1.097 2.814-1.841 2.753-2.417 5.602-4.752 8.102-7.421 2.5-2.67 4.664-5.716 5.8-9.16.037-.112.074-.226.055-.344-.037-.262-.346-.421-.617-.403-.275.02-.516.168-.75.31a25.137 25.137 0 0 1-3.543 1.775"/>
        <path fill="#364163" d="M527.011 368.75c4.004 2.052 6.226 8.706 7.505 12.365 1.088 3.119 1.21 10.712 1.222 12.885H537c.027-19.936-9.599-26.192-9.599-26.192-.222-7.264-6.115-7.595-8.95-7.595-2.833 0-5.725-1.277-7.614-1.83-1.892-.556-2.837-.556-2.837.331 0 .888 4.86 2.216 7.06 3.55.278.168 8.06 5.377 9.09 5.794 1.027.416 2.861.693 2.861.693"/>
        <path fill="#4D60A7" d="M567.775 352.433c-2.151.633-5.44 2.08-8.667 2.08-3.225 0-9.932.379-10.185 8.636 0 0-10.983 7.127-10.923 29.851h1.435c.012-2.353.137-11.14 1.392-14.727 1.456-4.16 3.984-11.721 8.54-14.052 0 0 2.088-.315 3.258-.79 1.17-.473 10.026-6.395 10.342-6.586 2.505-1.514 8.033-3.025 8.033-4.033 0-1.008-1.076-1.008-3.225-.379"/>
        <path fill="#4D60A7" d="M532.396 358.341c1.286-.166 6.947 25.19 5.183 35.659h1.396c.091-3.526.258-22.02-5.968-36.083-.22-.504-.06-1.764-.145-2.345-.293-1.983-.513-4.144-2.227-5.474-2.234-1.734-4.717-3.538-7.502-4.298-2.842-.777-5.867-.734-8.661-1.702-2.71-.938-6.207-4.18-6.472-2.73 0 0 4.723 8.785 6.91 9.553 2.186.769 7.167 2.985 8.655 4.436 1.487 1.45 7.52 3.156 8.831 2.984"/>
        <path fill="#4D60A7" d="M569.846 323.072c-.025-.024-.05-.048-.08-.072-4.739 3.866-11.565 3.941-17.055 6.688-2.73 1.37-5.073 3.375-7.384 5.356-.999.856-2.023 1.746-2.608 2.913-.855 1.706-.644 3.745-.098 5.572.135.453.29.905.3 1.375.006.377-.08.751-.162 1.12-2.643 11.389-4.577 22.893-5.37 34.556-.261 3.8-.42 7.611-.384 11.42h2.189c-1.116-10.783.095-21.832 1.689-32.513.668-4.466 1.526-8.901 2.363-13.34.046-.238.095-.486.233-.69.401-.604 1.364-.516 1.992-.655 1.052-.235 2.03-.763 2.974-1.255 3.203-1.664 6.424-3.338 9.284-5.527 4.776-3.655 8.344-8.585 11.838-13.443.325-.45.625-1.119.279-1.505"/>
        <path fill="#F8D2C3" d="M549.984 392h-24.967s-.709 20.95 7.132 25.745c.277.168.588.255.909.255h8.885c.317 0 .632-.087.905-.255 7.841-4.795 7.136-25.745 7.136-25.745"/>
        <path fill="#E99E90" d="M543.312 417.745a1.979 1.979 0 0 1-.977.255H538c.345 0 .68-.087.977-.255 8.433-4.795 7.67-25.745 7.67-25.745h4.335s.76 20.95-7.67 25.745"/>
        <path fill="#8A77A9" d="M508.006 358c1.806.328 3.584.826 5.33 1.44.869.318 1.726.685 2.583 1.034.86.355 1.718.708 2.569 1.088.854.37 1.693.788 2.511 1.254.413.228.812.484 1.216.732.395.266.787.536 1.164.833a13.599 13.599 0 0 1 2.122 1.997c.636.756 1.177 1.634 1.499 2.608l-.024.014c-.392-.936-.964-1.752-1.615-2.463-.65-.715-1.377-1.334-2.128-1.91-1.507-1.14-3.137-2.07-4.8-2.92a25.871 25.871 0 0 0-2.541-1.14c-.86-.339-1.742-.615-2.618-.898a185.266 185.266 0 0 0-5.274-1.641l.006-.028"/>
        <path fill="#BDB3CD" d="M509.024 341c.171.605.458 1.171.8 1.687.091.127.173.26.268.383l.293.361c.21.225.418.453.65.656.216.218.472.389.71.582l.382.25c.128.082.256.168.393.234.272.14.53.298.815.409l.418.183c.14.06.286.102.43.152.57.212 1.168.37 1.754.545l1.769.506c1.18.345 2.355.706 3.508 1.14 1.159.424 2.27.981 3.343 1.605.516.345 1.059.655 1.544 1.051.25.187.5.377.74.573l.7.63c1.848 1.69 3.336 3.78 4.459 6.04l-.021.013-.995-1.599-1.095-1.522-.598-.719c-.201-.234-.384-.49-.61-.703l-.643-.671c-.107-.11-.21-.228-.324-.332l-.345-.307-.692-.618-.729-.57c-.473-.395-1.004-.706-1.51-1.057-1.055-.63-2.138-1.212-3.273-1.681a27.576 27.576 0 0 0-3.48-1.184c-1.181-.336-2.383-.563-3.566-.937-1.172-.386-2.303-.985-3.213-1.868a6.636 6.636 0 0 1-1.19-1.469 5.546 5.546 0 0 1-.716-1.76l.024-.003"/>
        <path fill="#8A77A9" d="M521 345c-.196-.951-.545-1.872-.93-2.768-.418-.954-.9-1.88-1.431-2.786-.519-.908-1.123-1.773-1.757-2.617a16.761 16.761 0 0 0-2.14-2.367c-.388-.37-.816-.696-1.258-1.01-.452-.302-.93-.558-1.319-.924-.787-.711-1.298-1.638-1.7-2.574-.807-1.893-1.21-3.919-1.438-5.954H509c.007 1.028.126 2.054.322 3.066.206 1.013.488 2.017.927 2.968.445.949 1.046 1.844 1.85 2.559.405.36.89.628 1.325.93.233.141.422.332.628.495.209.163.392.36.584.542 1.492 1.5 2.677 3.236 3.753 5.012.525.9 1.037 1.804 1.482 2.737.418.875.813 1.761 1.083 2.685L521 345"/>
        <path fill="#364163" d="M520.027 314.003c.055.154.17.306.262.454.1.148.2.294.304.44l.624.868c.422.575.857 1.138 1.295 1.704a68.98 68.98 0 0 0 2.729 3.288c.471.533.955 1.057 1.466 1.556.252.249.517.488.784.72.271.228.566.443.818.7 1.01 1.024 1.828 2.207 2.61 3.4a43.395 43.395 0 0 1 2.141 3.715 48.996 48.996 0 0 1 1.807 3.89 37.989 37.989 0 0 1 1.436 4.042c.38 1.374.717 2.785.696 4.22h-.024c-.022-.711-.146-1.414-.301-2.107a26.647 26.647 0 0 0-.56-2.056 48.206 48.206 0 0 0-1.487-3.999c-1.107-2.622-2.36-5.186-3.827-7.632a24.717 24.717 0 0 0-1.174-1.783c-.42-.576-.863-1.136-1.377-1.626-.253-.251-.542-.457-.822-.681-.28-.227-.556-.457-.818-.703-.529-.484-1.037-.99-1.524-1.516-.97-1.051-1.867-2.171-2.728-3.312a46.668 46.668 0 0 1-1.247-1.744 25.32 25.32 0 0 1-.59-.896c-.094-.152-.188-.303-.28-.458-.045-.075-.088-.154-.134-.233-.036-.081-.088-.151-.106-.254l.027.003"/>
        <path fill="#BDB3CD" d="M568 324.012c-.18.321-.402.612-.633.894-.235.279-.48.552-.742.806-.522.512-1.066 1-1.648 1.443a29.053 29.053 0 0 1-3.65 2.39 55.685 55.685 0 0 1-3.918 1.907c-.663.293-1.312.612-1.966.924-.324.157-.64.34-.958.512-.315.179-.64.34-.945.536-.613.382-1.237.752-1.826 1.173-.297.206-.603.4-.891.618l-.868.655c-.294.209-.561.454-.843.682-.28.23-.562.457-.823.709l-.798.73-.769.77c-1 1.045-1.936 2.157-2.744 3.36-.807 1.2-1.507 2.488-1.954 3.879l-.024-.006c.372-1.418 1.03-2.749 1.816-3.982a22.667 22.667 0 0 1 2.72-3.433c2.026-2.112 4.4-3.858 6.938-5.276.309-.188.642-.34.96-.512.327-.16.643-.34.97-.497l1.972-.924.982-.464c.327-.154.642-.33.966-.497.646-.324 1.27-.69 1.904-1.045 1.248-.73 2.48-1.494 3.635-2.364.58-.433 1.14-.89 1.672-1.385.525-.494 1.039-1.012 1.444-1.615l.021.012"/>
        <path fill="#8A77A9" d="M564 305.015a153.21 153.21 0 0 0-5.506 6.498c-.89 1.102-1.78 2.208-2.603 3.36a54.852 54.852 0 0 0-2.351 3.543 73.129 73.129 0 0 0-2.074 3.696 48.69 48.69 0 0 0-1.75 3.846 27.473 27.473 0 0 0-1.249 4.02 18.92 18.92 0 0 0-.324 1.915c-.05.037-.096.07-.143.107.044-.693.137-1.38.27-2.062a23.01 23.01 0 0 1 1.197-4.075c1.03-2.645 2.41-5.144 3.955-7.52.769-1.192 1.582-2.355 2.394-3.52.82-1.157 1.641-2.315 2.51-3.439a68.766 68.766 0 0 1 2.725-3.284c.944-1.066 1.906-2.11 2.93-3.1l.019.015"/>
        <path fill="#364163" d="M580.976 332l.024.037-.009.028-.03.052c-.021.03-.042.061-.066.089-.045.058-.094.114-.142.17-.1.11-.198.217-.3.322-.205.21-.416.415-.63.618-.427.4-.858.796-1.303 1.175a40.351 40.351 0 0 1-2.748 2.186c-.957.67-1.936 1.322-3.004 1.802-.274.11-.548.193-.807.323-.259.129-.514.267-.764.415a20.65 20.65 0 0 0-1.469.944 54.348 54.348 0 0 0-5.445 4.375c-.427.394-.849.8-1.258 1.215-.412.412-.81.836-1.186 1.282-.376.446-.746.898-1.062 1.39-.313.492-.605 1.008-.753 1.577l-.024-.003c.117-.584.37-1.132.671-1.642.298-.51.647-.99 1.018-1.451.737-.92 1.562-1.765 2.42-2.565a36.542 36.542 0 0 1 2.684-2.269 37.216 37.216 0 0 1 2.86-2.026c.49-.32.993-.615 1.499-.907.255-.145.514-.277.776-.406.262-.126.542-.225.807-.335.527-.234 1.02-.545 1.502-.87.481-.323.95-.67 1.414-1.021a81.442 81.442 0 0 0 2.745-2.165c.449-.372.9-.741 1.34-1.125l.656-.582c.108-.098.217-.196.32-.298l.153-.157c.024-.027.048-.055.069-.083l.039-.07.003-.025"/>
        <path fill="#BDB3CD" d="M571 353.026c-1.885.783-3.775 1.53-5.672 2.27-.949.365-1.903.714-2.836 1.128-.468.198-.927.425-1.39.642l-1.385.658c-1.839.885-3.678 1.783-5.4 2.888-.432.273-.848.575-1.258.881-.41.306-.807.635-1.18.994-.744.714-1.42 1.533-1.855 2.513l-.024-.01c.364-1.02 1.013-1.904 1.744-2.661.737-.753 1.57-1.395 2.438-1.96.863-.57 1.772-1.06 2.69-1.517a47.603 47.603 0 0 1 2.79-1.266 67.217 67.217 0 0 0 2.796-1.25c.93-.422 1.857-.852 2.796-1.25a69.19 69.19 0 0 1 5.737-2.086l.009.026"/>
        <path fill="#FFFFFE" d="M379.49 231H157.51c-5.78 0-10.509-4.744-10.509-10.542V85.542C147 79.744 151.729 75 157.509 75H379.49C385.272 75 390 79.744 390 85.542v134.916c0 5.798-4.728 10.542-10.51 10.542"/>
        <path fill="url(#d)" fill-rule="nonzero" d="M245.217 168h-21.434c-.432 0-.783-.419-.783-.936v-1.129c0-.516.35-.935.783-.935h21.434c.432 0 .783.42.783.935v1.13c0 .516-.35.935-.783.935M177 206h4v-40h-4zM184 206h4v-38h-4zM192 206h4v-17h-4zM199 206h4v-31h-4zM170 206h1v-44h-1z"/>
        <path fill="#75B2EE" d="M170 207h41v-1h-41z"/>
        <path fill="url(#d)" fill-rule="nonzero" d="M213 205.5l-4-2.5v5l4-2.5"/>
        <path fill="#75B2EE" d="M169.5 158l-2.5 4h5l-2.5-4"/>
        <path fill="#CDD9E4" d="M367.212 191h-79.423a.782.782 0 0 1-.789-.775v-3.45c0-.428.353-.775.79-.775h79.422c.433 0 .788.347.788.775v3.45a.783.783 0 0 1-.788.775M345.212 204H287.79a.782.782 0 0 1-.79-.775v-3.45c0-.428.354-.775.79-.775h57.422a.78.78 0 0 1 .788.775v3.45a.781.781 0 0 1-.788.775M355.2 147h-51.398c-.443 0-.802-.456-.802-1.018v-1.964c0-.562.359-1.018.802-1.018H355.2c.44 0 .8.456.8 1.018v1.964c0 .562-.36 1.018-.8 1.018M353.203 153h-49.404c-.442 0-.799-.456-.799-1.018v-1.964c0-.562.357-1.018.8-1.018h49.403c.438 0 .797.456.797 1.018v1.964c0 .562-.359 1.018-.797 1.018M368.211 161h-64.42c-.437 0-.791-.456-.791-1.018v-1.964c0-.562.354-1.018.791-1.018h64.42c.434 0 .789.456.789 1.018v1.964c0 .562-.355 1.018-.789 1.018M341.186 167h-37.373c-.45 0-.813-.456-.813-1.018v-1.964c0-.562.363-1.018.813-1.018h37.373c.45 0 .814.456.814 1.018v1.964c0 .562-.365 1.018-.814 1.018"/>
        <path fill="url(#d)" fill-rule="nonzero" d="M350 117.5c0 9.665-7.835 17.5-17.498 17.5-9.667 0-17.502-7.835-17.502-17.5s7.835-17.5 17.502-17.5v17.5H350"/>
        <path fill="#CDD9E4" d="M335 97v17h17m0 0c0-9.389-7.61-17-17-17M267.41 143h-99.82c-1.43 0-2.59-1.14-2.59-2.547V96.547c0-1.407 1.16-2.547 2.59-2.547h99.82c1.43 0 2.59 1.14 2.59 2.547v43.906c0 1.407-1.16 2.547-2.59 2.547"/>
        <path fill="#FFFFFE" d="M265.204 106h-63.408c-.44 0-.796-.419-.796-.935v-1.13c0-.516.356-.935.796-.935h63.408c.44 0 .796.419.796.936v1.129c0 .516-.356.935-.796.935M241.222 112h-39.444c-.43 0-.778-.419-.778-.935v-1.13c0-.516.348-.935.778-.935h39.444c.43 0 .778.419.778.935v1.13c0 .516-.348.935-.778.935M255.202 118h-53.404c-.44 0-.798-.419-.798-.935v-1.13c0-.516.357-.935.798-.935h53.404c.44 0 .798.419.798.935v1.13c0 .516-.357.935-.798.935M217.203 123h-15.406c-.44 0-.797-.419-.797-.935v-1.13c0-.516.357-.935.797-.935h15.406c.44 0 .797.419.797.935v1.13c0 .516-.357.935-.797.935M266.197 132h-91.395c-.443 0-.802-.419-.802-.935v-1.13c0-.516.36-.935.802-.935h91.395c.444 0 .803.419.803.935v1.13c0 .516-.36.935-.803.935M261.216 138h-86.432c-.433 0-.784-.419-.784-.935v-1.13c0-.516.35-.935.784-.935h86.432c.433 0 .784.419.784.936v1.129c0 .516-.35.935-.784.935"/>
        <path fill="url(#d)" fill-rule="nonzero" d="M193 112.5a9.5 9.5 0 0 1-9.5 9.5 9.5 9.5 0 1 1 9.5-9.5"/>
        <path fill="#BDB3CD" d="M181.5 55.87a4.636 4.636 0 0 0-4.63 4.63 4.636 4.636 0 0 0 4.63 4.63 4.636 4.636 0 0 0 4.63-4.63 4.636 4.636 0 0 0-4.63-4.63zm0 10.13a5.506 5.506 0 0 1-5.5-5.5c0-3.033 2.467-5.5 5.5-5.5s5.5 2.467 5.5 5.5-2.467 5.5-5.5 5.5z"/>
        <path fill="#BDB3CD" d="M181.605 56a.396.396 0 0 1-.396-.396V13.792H83.395a.396.396 0 0 1 0-.792h98.21c.218 0 .395.177.395.396v42.208a.396.396 0 0 1-.395.396M371.498 55.87a4.636 4.636 0 0 0-4.63 4.63 4.636 4.636 0 0 0 4.63 4.63 4.637 4.637 0 0 0 4.634-4.63 4.637 4.637 0 0 0-4.634-4.63zm0 10.13A5.506 5.506 0 0 1 366 60.5c0-3.033 2.468-5.5 5.498-5.5A5.506 5.506 0 0 1 377 60.5c0 3.033-2.468 5.5-5.502 5.5z"/>
        <path fill="#BDB3CD" d="M370.39 56a.391.391 0 0 1-.39-.392V28.392c0-.217.175-.392.39-.392h74.217a.392.392 0 1 1 0 .784h-73.824v26.824a.392.392 0 0 1-.393.392M409.502 146.87a4.634 4.634 0 0 0-4.63 4.63 4.634 4.634 0 0 0 4.63 4.63 4.637 4.637 0 0 0 4.63-4.63 4.636 4.636 0 0 0-4.63-4.63zm0 10.13a5.507 5.507 0 0 1-5.502-5.5c0-3.033 2.468-5.5 5.502-5.5a5.506 5.506 0 0 1 5.498 5.5c0 3.033-2.468 5.5-5.498 5.5z"/>
        <path fill="#BDB3CD" d="M498.582 150h-84.164c-.233 0-.418-.224-.418-.5s.185-.5.418-.5h84.164c.23 0 .418.224.418.5s-.188.5-.418.5"/>
        <path fill="url(#d)" fill-rule="nonzero" d="M492.67 44h-37.34c-1.287 0-2.33-1.063-2.33-2.375v-26.25c0-1.312 1.043-2.375 2.33-2.375h37.34c1.287 0 2.33 1.063 2.33 2.375v26.25c0 1.312-1.043 2.375-2.33 2.375"/>
        <path fill="#CDD9E4" d="M485 21a4 4 0 1 1-8.002-.002A4 4 0 0 1 485 21"/>
        <path fill="#FFFFFE" d="M489 21a4 4 0 1 1-8 0 4 4 0 1 1 8 0M461.365 18h-5.727c-.351 0-.638.224-.638.5s.287.5.638.5h5.727c.35 0 .635-.224.635-.5s-.284-.5-.635-.5M471.293 21H455.71c-.39 0-.71.224-.71.5s.32.5.71.5h15.583c.39 0 .707-.224.707-.5s-.316-.5-.707-.5M471 18.5c0-.276-.284-.5-.635-.5h-5.727c-.354 0-.638.224-.638.5s.284.5.638.5h5.727c.35 0 .635-.224.635-.5"/>
        <path fill="#CDD9E4" d="M455 38h6v-4h-6zM465 38h6v-4h-6zM474 38h6v-4h-6zM483 38h6v-4h-6z"/>
        <path fill="url(#d)" fill-rule="nonzero" d="M514.922 129.01c2.964.733 4.78 3.746 4.05 6.715-.73 2.969-3.739 4.79-6.7 4.058-2.964-.732-4.78-3.746-4.05-6.715.73-2.968 3.739-4.79 6.7-4.057zm-13.946 5.903c.041.983.195 1.958.46 2.904l-1.75 1.356a1.426 1.426 0 0 0-.35 1.86l1.731 2.87c.375.62 1.149.857 1.807.556l1.998-.913c.736.71 1.557 1.323 2.441 1.831l-.28 2.218a1.423 1.423 0 0 0 1.067 1.56l3.25.804a1.42 1.42 0 0 0 1.668-.885l.752-2.02a12.635 12.635 0 0 0 3.216-.461l1.3 1.682c.443.572 1.239.717 1.856.348l2.863-1.735a1.42 1.42 0 0 0 .554-1.808l-.862-1.91a12.317 12.317 0 0 0 1.91-2.584l1.994.256a1.42 1.42 0 0 0 1.558-1.069l.8-3.257a1.421 1.421 0 0 0-.882-1.672l-1.856-.696a12.525 12.525 0 0 0-.453-3.134l1.541-1.199a1.426 1.426 0 0 0 .35-1.86l-1.728-2.863a1.414 1.414 0 0 0-1.803-.556l-1.724.79a12.575 12.575 0 0 0-2.68-1.995l.241-1.926a1.423 1.423 0 0 0-1.066-1.56l-3.25-.804a1.418 1.418 0 0 0-1.668.885l-.68 1.818a12.391 12.391 0 0 0-3.382.541l-1.205-1.56a1.422 1.422 0 0 0-1.857-.348l-2.863 1.735a1.42 1.42 0 0 0-.554 1.808l.859 1.897a12.205 12.205 0 0 0-1.838 2.597l-2.06-.267a1.42 1.42 0 0 0-1.558 1.069l-.802 3.258c-.17.698.207 1.417.884 1.671l2.051.768z"/>
        <path fill="url(#d)" fill-rule="nonzero" d="M533.403 156.137a4.276 4.276 0 0 1-3.547-4.89 4.271 4.271 0 0 1 4.887-3.551 4.273 4.273 0 0 1 3.547 4.89 4.272 4.272 0 0 1-4.887 3.55zm10.957-10.24l-1.281-1.766a1.315 1.315 0 0 0-1.714-.374l-1.1.617a9.517 9.517 0 0 0-2.192-1.358l.054-1.295a1.332 1.332 0 0 0-1.112-1.364l-2.153-.341a1.323 1.323 0 0 0-1.48.948l-.35 1.243a9.517 9.517 0 0 0-2.568.635l-.892-.972a1.322 1.322 0 0 0-1.75-.175l-1.764 1.29a1.318 1.318 0 0 0-.377 1.717l.691 1.227a9.786 9.786 0 0 0-1.251 2.11l-1.4-.056a1.33 1.33 0 0 0-1.364 1.112l-.34 2.155c-.105.662.302 1.3.948 1.482l1.43.402c.091.753.275 1.49.539 2.203l-1.106 1.019a1.323 1.323 0 0 0-.175 1.749l1.281 1.765a1.316 1.316 0 0 0 1.714.374l1.302-.73a9.522 9.522 0 0 0 1.995 1.245l-.065 1.52a1.333 1.333 0 0 0 1.112 1.364l2.153.341c.661.103 1.299-.3 1.483-.948l.394-1.406a9.74 9.74 0 0 0 2.44-.563l.976 1.058c.457.494 1.204.57 1.746.175l1.765-1.28a1.317 1.317 0 0 0 .373-1.717l-.693-1.228a9.457 9.457 0 0 0 1.304-2.108l1.347.054a1.33 1.33 0 0 0 1.364-1.112l.34-2.155c.101-.662-.302-1.3-.948-1.482l-1.278-.359a9.504 9.504 0 0 0-.549-2.38l.964-.885a1.322 1.322 0 0 0 .187-1.752zM511.968 159.436c1.924.498 3.08 2.475 2.581 4.405a3.603 3.603 0 0 1-4.392 2.59 3.616 3.616 0 0 1-2.584-4.406 3.606 3.606 0 0 1 4.395-2.59zm-9.061-.623a1.37 1.37 0 0 0-1.515 1.017l-.348 1.345a1.372 1.372 0 0 0 .83 1.625l.96.373c.015.643.107 1.276.279 1.895l-.833.631a1.371 1.371 0 0 0-.357 1.79l.704 1.198a1.367 1.367 0 0 0 1.737.56l.943-.418a7.988 7.988 0 0 0 1.574 1.21l-.144 1.05a1.374 1.374 0 0 0 1.014 1.517l1.343.349a1.364 1.364 0 0 0 1.62-.832l.36-.94c.712 0 1.41-.093 2.098-.274l.597.787a1.364 1.364 0 0 0 1.785.357l1.196-.706c.6-.355.839-1.099.556-1.74l-.387-.882c.498-.5.922-1.056 1.27-1.666l.903.128a1.37 1.37 0 0 0 1.515-1.017l.347-1.345a1.368 1.368 0 0 0-.83-1.625l-.832-.325a8.336 8.336 0 0 0-.27-2.046l.7-.528a1.37 1.37 0 0 0 .353-1.79l-.703-1.198a1.363 1.363 0 0 0-1.734-.559l-.765.337a8.087 8.087 0 0 0-1.73-1.321l.12-.858a1.368 1.368 0 0 0-1.015-1.518l-1.34-.349a1.367 1.367 0 0 0-1.623.833l-.31.805a8.249 8.249 0 0 0-2.207.325l-.532-.708a1.364 1.364 0 0 0-1.785-.357l-1.199.71a1.371 1.371 0 0 0-.56 1.74l.388.877a7.956 7.956 0 0 0-1.217 1.677l-.956-.134z"/>
        <path fill="#CDD9E4" d="M24.753 8h25.494C51.777 8 53 9.227 53 10.686v15.45c0 1.493-1.258 2.686-2.753 2.686H32.673l-3.977 3.913a.86.86 0 0 1-.611.265c-.477 0-.884-.365-.884-.862v-3.316h-2.448c-1.53 0-2.753-1.227-2.753-2.685V10.686C22 9.194 23.258 8 24.753 8"/>
        <path fill="url(#d)" fill-rule="nonzero" d="M73.359 0H39.64C37.62 0 36 1.718 36 3.76v21.631c0 2.09 1.664 3.76 3.641 3.76h23.243l5.26 5.478c.225.232.494.371.809.371.63 0 1.169-.51 1.169-1.207v-4.642h3.237c2.022 0 3.641-1.717 3.641-3.76V3.76C77 1.671 75.337 0 73.359 0"/>
        <path fill="#FFFFFE" d="M46 14a2 2 0 1 1-4 0 2 2 0 0 1 4 0M59 14a2 2 0 1 1-4 0 2 2 0 0 1 4 0M70 14a2 2 0 1 1-4 0 2 2 0 0 1 4 0"/>
        <g transform="translate(0 378)">
            <mask id="f" fill="#fff">
                <use xlink:href="#e"/>
            </mask>
            <path fill="#FFFFFE" d="M70.725-362.555a2.242 2.242 0 0 1-2.252 2.233c-1.244 0-2.252-1-2.252-2.233a2.242 2.242 0 0 1 2.252-2.233c1.244 0 2.252 1 2.252 2.233" mask="url(#f)"/>
            <path fill="#CDD9E4" d="M114.382 57.988c-51.92 0-106.824-7.675-112.713-22.066 0 0-12.193-17.092 29.36-17.092 1.19 0 2.42.015 3.7.042 41.22.928 42.854 7.542 74.533 7.542 3.646 0 7.684-.088 12.232-.28 16.592-.71 36.121-1.943 52.775-1.943 27.577 0 47.28 3.383 32.77 18.146-10.42 10.601-50.561 15.65-92.657 15.65" mask="url(#f)" opacity=".401"/>
        </g>
        <path fill="#E99E90" d="M176.414 321.535a.67.67 0 0 0-.77-.524.661.661 0 0 0-.52.772l3.456 18.029h-70.704a.65.65 0 0 0-.502.239l3.502-18.268a.665.665 0 0 0-.535-.775.661.661 0 0 0-.755.527l-17.574 91.68a.662.662 0 0 0 .645.785.658.658 0 0 0 .645-.536l13.953-72.786c.086.263.33.454.62.454h70.958l13.865 72.332a.657.657 0 0 0 .77.524.661.661 0 0 0 .52-.772l-17.574-91.681"/>
        <path fill="#F8D2C3" d="M55 245.484s2.304-7.726 2.304-11.485c0-2.724 2.41-5.548 4.32-7.225 3.616-3.174 8.425-4.304 13.138-3.548 2.867.46 6.873 1.383 8.664 3.822 2.285 3.113 4.469 7.402 3.2 11.336-.423 1.312-.801 2.94-1.625 4.083-.097.136-.26.256-.347.386-.695 1.054.092 3.114.186 4.287.06.732.422 3.162-.622 3.46-1.467.417-.838-.731-1.467.417-.53.97-1.017 1.968-1.625 2.894-.604.92-1.58 1.518-1.925 2.581-.417 1.29-.05 5.85-2.419 5.487-2.723-.418-6.597-6.055-9.844-3.967-3.246 2.088-3.665 3.55-3.665 3.55L55 245.483"/>
        <path fill="#4D4D4A" d="M93 317.19v.662c0 .635.498 1.148 1.112 1.148H152l-12.396-2-46.604.19"/>
        <path fill="#D2D4CF" d="M140 317.048l13.888-32.654L169 282l-16.462 37L140 317.048"/>
        <path fill="#4D4D4A" d="M154.04 284.893c-.425.922-12.04 29.563-12.04 29.563l9.458.544L165 283l-10.96 1.893"/>
        <path fill="#D2D4CF" d="M139.582 317L93 317.19l3.561 1.197a11.69 11.69 0 0 0 3.74.613H152l-12.418-2"/>
        <path fill="#4D4D4A" d="M134.182 319H116l6.35-1H137l-2.818 1M112.172 319H111l5.79-1H119l-6.828 1"/>
        <path fill="#E38081" d="M153.847 319H202c-.239 4.741-6.689 3.95-6.689 3.95H81.69s-6.45.791-6.689-3.95h78.847"/>
        <path fill="#E99E90" d="M14.034 346.281s-.45 5.068 1.93 5.63c2.382.561 11.357-1.579 11.027-5.63-.33-4.054-.227-7.816-3.64-8.262-3.413-.443-9.351 6.992-9.351 6.992"/>
        <path fill="#E38081" d="M77.966 355.054V355s-.165.003-.466.02c-.301-.017-.466-.02-.466-.02v.054c-5.86.46-37.445 4.952-37.03 47.946h2.552c1.102-1.634.433-42.833 34.944-44.466 34.511 1.633 33.842 42.832 34.944 44.466h2.552c.415-42.994-31.17-47.485-37.03-47.946"/>
        <path fill="#E99E90" d="M50.966 367.05V367s-.165.003-.466.02c-.301-.017-.465-.02-.465-.02v.05c-5.861.465-37.446 4.956-37.031 47.95h2.552c1.102-1.634.433-42.833 34.944-44.466 34.512 1.633 33.842 42.832 34.945 44.466h2.55c.416-42.994-31.168-47.485-37.03-47.95"/>
        <g transform="translate(0 258)">
            <mask id="h" fill="#fff">
                <use xlink:href="#g"/>
            </mask>
            <path fill="#E38081" d="M10.476 99.518s-2.91 5.559 2.234 7.042c5.145 1.48 64.48 4.792 67.84 4.17 3.359-.619 7.177-6.802 7.176-6.83L11.68 99.518h-1.205" mask="url(#h)"/>
            <path fill="#E99E90" d="M.003 7.177c1.074 25.798 2.16 51.595 3.272 77.392.126 2.93 2.884 5.02 5.715 4.322 7.747-1.91 15.378-4.774 19.976-11.118 5.42-7.482 4.998-17.636 3.715-26.804-1.85-13.212-5.03-26.318-10.55-38.45-1.98-4.353-4.474-8.798-8.633-11.12C8.3-1.506 3.738.915.003 4.684" mask="url(#h)"/>
        </g>
        <path fill="#E99E90" d="M91.45 363s-64.842-5.41-77.331-4.382c-12.488 1.03 15.663-21 29.161-24.087 13.498-3.087 63.278-4.115 60.617 1.371-2.66 5.49-3.251 24.695-12.447 27.098"/>
        <path fill="#F8D2C3" d="M98.057 305c.464.077 13.46 2.214 16.399 2.696 2.939.485 8.988 5.976 10.275 6.97 1.288.993-2.356 3.338-4.525 1.856-2.17-1.482-2.317-2.72-6.347-2.167-4.03.548-8.091 2.478-11.07 1.123C99.813 314.124 97 312.71 97 312.71L98.057 305"/>
        <path fill="#F8D2C3" d="M97 311h16.565c2.97 0 9.69 3.648 11.096 4.28 1.407.634-1.875 3.018-4.22 2.108-2.343-.913-2.656-1.896-6.563-.913-3.907.981-7.658 3.086-10.783 2.385-3.126-.702-6.095-1.472-6.095-1.472V311"/>
        <path fill="#EEBAAE" d="M97.379 310H97l.445-2.815.185-1.185c.044.008.17.023.37.055L97.379 310"/>
        <path fill="#ECAD9F" d="M117 310c-1.379-.566-2.67-.963-3.593-.963H97l.457-3.037c1.94.289 13.218 1.98 15.914 2.384.966.144 2.271.788 3.629 1.616M118 313c-2.01-1.076-4.105-2-5.433-2H97h16.139c.91 0 2.183.436 3.542 1.056.438.297.88.614 1.319.944"/>
        <path fill="#F8D2C3" d="M101 395.911v5.628c0 .317 8.111 4.353 8.778 4.46.666.106 1.233-5.45 1.233-5.45L112 394l-11 1.911"/>
        <path fill="url(#i)" fill-rule="nonzero" d="M101.689 400s-3.217 6.145-2.614 12.496c.603 6.351 3.82 4.507 7.036 4.915 3.215.411 2.815-1.227 2.815-1.227.07.29 1.688.763 1.925.856a29.155 29.155 0 0 0 5.179 1.505c2.236.43 4.525.539 6.795.395 1.85-.115 4.857-.13 6.45-1.155 2.52-1.626 2.136-4.716-.223-6.177-4.623-2.868-11.514-1.775-13.81-5.463-2.296-3.688-4.306-6.145-4.306-6.145s-7.036 1.23-9.247 0"/>
        <path fill="#F8D2C3" d="M84 405.072v6.095c0 .347 8.111 4.717 8.778 4.831.666.115 1.233-5.902 1.233-5.902L95 403l-11 2.072"/>
        <path fill="#303959" d="M114 362.353c0 7.216-2.354 34.597-2.766 35.216-.192.286-2.125.353-4.324.277-2.533-.087-5.42-.359-6.414-.688-.363-.12-.58-1.165-.703-2.74a22.61 22.61 0 0 1-.047-.721c-.328-5.958.403-17.622.18-18.805-.034-.18-.09-.12-.174.239-.824 3.504-2.973 27.384-4.212 30.06-.313.68-.957 1.12-1.79 1.395-2.463.815-6.579.202-8.74.048-2.89-.205-2.355-2.357-2.148-5.239l.081-.965c.369-4.222 1.546-16.487-.034-23.528l-.074-.332c-1.846-7.62-.428-19.984-.013-22.555.412-2.571-9.707-2.789-16.778-.936-7.071 1.856-36.291.827-38.754-2.058-1.362-1.596-1.917-6.8-2.14-11.12-.18-3.483-.148-7.856-.148-7.856s.003 1.46 1.242.842c1.239-.619 33.45-9.684 41.092-10.717 7.638-1.029 26.841 2.888 34.275 4.126 7.433 1.234 10.326 4.738 10.946 8.447.62 3.709 1.443 20.4 1.443 27.61"/>
        <path fill="#303A59" d="M55.49 243.947s-1.102-9.698 0-12.315c1.1-2.616.943-2.77 2.988-5.695 2.045-2.924 4.09-6.772 10.224-6.926 6.135-.154 6.293 1.385 8.652 1.385 2.36 0 10.695 2.72 11.954 5.952 1.258 3.232.78 8.164-1.265 9.241-2.045 1.078-6.753-3.033-9.27-4.264-2.517-1.231-1.89.462-1.733 1.847.157 1.385-.944 4.464-2.045 4.925-1.102.462-2.695-.154-2.527 1.385.167 1.54-2.035 6.466-2.035 8.313 0 1.847 1.888 5.849 3.303 5.079 1.416-.77 4.243-3.354 6.292-3.079 2.041.275 2.636.61 2.636.61s-.307 3.502-2.09 3.605c0 0-3.587-1.495-4.53-.161 0 0 1.572 1.437 3.146 1.642 1.572.205.733 11.39-6.083 7.799-6.816-3.592-10.172-9.441-7.97-13.135 2.202-3.694 3.041-3.592 3.67-5.336.63-1.745 1.678-5.644.105-6.67-1.573-1.026-4.09-2.155-5.453.923-1.363 3.079-2.831 7.286-5.767 6.157-2.937-1.129-2.203-1.282-2.203-1.282"/>
        <path fill="#535991" d="M38 290a306.776 306.776 0 0 1-1-4c.453.5.775 1.957 1 4"/>
        <path fill="#CDD9E4" d="M101 306.313c-1.344-.435-8.65-2.82-11.566-4.25-3.219-1.58-9.103-3.581-11.603-6.899-2.5-3.317-4.063-1.352-5.156-5.257-1.085-3.868-5.079-16.766-5.763-18.242l-.019-.04c-.29-.588-1.559-2.086-2.837-3.524-.682-.77-1.365-1.52-1.903-2.104-2.961-5.28-11.818-16.07-13.888-14.91 0 0-14.531 6.635-17.656 23.065-3.125 16.43-9.17 60.207-5.42 61.787.99.416 4.306 1.197 8.68 2.107 12.21 2.539 32.465 4.347 33.615 3.88 1.563-.629 2.344-18.167 2.5-20.536a35.339 35.339 0 0 0 .014-.95c4.978.252 27.48 1.378 28.405 1.005.785-.32.028-6.824-.569-10.44-.193-1.175-.369-2.048-.471-2.307.1-.506 1.837-2.86 3.637-2.385"/>
        <path fill="#FFFFFE" d="M53.14 244s-5.577 6.194-5.112 6.194c.464 0 13.014 8.206 13.479 17.806L66 262.735S56.859 245.24 53.14 244"/>
        <path fill="#B2C3D3" fill-rule="nonzero" d="M70.322 329.625c-.416 4.995-1.028 9.971-1.854 10.3-1.16.466-22.05-1.299-34.363-3.969.069-2.121.658-5.724 1.103-7.436 1.26-4.838-3.784-13.038-3.153-15.56.63-2.522 6.517 1.68 7.147-2.735.498-3.483 1.321-16.11.025-22.225 3.443 6.982 11.776 23.016 16.37 24.328 5.882 1.682 14.29 6.729 15.34 6.729l.063.018c0 .151-.003.268-.01.351-.056.856-.198 3.714-.428 7.034l-.24 3.165"/>
        <path fill="#535991" d="M72.605 294.132c1.081 3.848 2.625 1.912 5.096 5.181C79.899 302.221 93.72 305.523 97 307c-7.039-1.11-24.738-3.904-25.43-3.995-1.17-.155-8.428-34.505-7.486-36.005 1.263 1.416.881 3.204 1.169 3.782"/>
        <path fill="#191F34" d="M93 406.587c-2.44.813-6.52.201-8.664.048-2.865-.205-2.334-2.354-2.128-5.231.019-.245.046-.57.08-.965.365-4.215 1.532-16.462-.034-23.492a29.466 29.466 0 0 0-.073-.331c-1.83-7.61-.424-19.955-.013-22.522.409-2.568-9.622-2.785-16.631-.935-7.01 1.854-35.974.826-38.416-2.055-1.35-1.594-1.9-6.789-2.121-11.104.034.663 1.231 2.136 1.575 2.709a21.77 21.77 0 0 0 3.789 4.728c4.759 4.46 13.441 3.426 19.48 3.366 9.613-.096 19.211-.404 28.812-.404 5.68 0 10.211 3.282 11.286 3.282 1.075 0-1.075 2.317-1.075 3.396 0 1.082 1.922 1.082 2.19 1.543.267.464-4.339.617-3.418 4.167.921 3.55 1.996 5.554.921 11.882-1.074 6.328-2.763 23.875-1.227 27.117 1.077 2.278 5.222 3.182 5.667 4.8M107 399c-2.446-.09-5.233-.366-6.193-.701-.35-.123-.56-1.187-.679-2.792.027-.345.02-.61-.045-.735-.317-6.07.39-17.956.174-19.162.885-11.018 2.646-30.136 2.646-30.61 0 0 1.495 14.33 1.645 20.788.15 6.455-.897 22.676 1.794 30.549.377 1.104.586 1.98.658 2.663M103 343c.006-1.857-1.285-3.47-2.712-4.658-4.505-3.752-11.26-4.597-16.818-5.918-1.02-.242-14.49-3.025-14.47-3.273.088-1.064.167-2.13.24-3.151 5.703 1.076 19.628 3.868 26.204 6.654 4.5 1.909 7.431 5.442 7.556 10.346"/>
        <path fill="url(#i)" fill-rule="nonzero" d="M113.495 425.554c-.289.456-.712.879-1.274 1.23-1.642 1.026-4.743 1.041-6.652 1.158-2.338.141-4.702.03-7.006-.396a30.774 30.774 0 0 1-5.342-1.503c-.243-.096-1.913-.57-1.984-.861 0 .003.414 1.638-2.904 1.23-3.315-.411-6.633 1.434-7.255-4.918a16.406 16.406 0 0 1-.078-1.698c.025-5.704 2.774-10.796 2.774-10.796 2.28 1.227 9.534 0 9.534 0s2.074 2.457 4.444 6.145c2.366 3.688 9.471 2.592 14.241 5.46 1.907 1.147 2.56 3.292 1.502 4.949"/>
        <path fill="#303A59" d="M113 425.615c-.285.444-.701.857-1.255 1.2-1.617 1-4.67 1.014-6.55 1.129-2.303.137-4.63.029-6.9-.387a30.537 30.537 0 0 1-5.26-1.465c-.24-.094-1.884-.556-1.954-.84 0 .003.407 1.597-2.86 1.2-3.264-.401-6.532 1.398-7.144-4.796A15.923 15.923 0 0 1 81 420c2.87 1.074 16.209 6.004 20.48 6.182 4.088.173 9.064.416 11.52-.567M130 415.913c-.276.39-.68.75-1.216 1.05-1.567.875-4.524.888-6.346.987-2.23.122-4.485.026-6.683-.338a31.81 31.81 0 0 1-5.096-1.281c-.232-.083-1.825-.484-1.893-.734 0 .002.395 1.396-2.77 1.047-3.163-.348-6.328 1.226-6.921-4.192-.054-.49-.078-.973-.075-1.452 2.78.941 15.702 5.253 19.84 5.413 3.96.149 8.781.362 11.16-.5"/>
        <path fill="#E99E90" d="M511 432l-8.408-54.731c-.026-.176-.178-.293-.342-.265-.163.028-.272.194-.246.366l8.39 54.63H511M479.602 432l8.394-54.63c.028-.172-.084-.338-.244-.366-.164-.028-.316.09-.345.265L479 432h.602"/>
        <path fill="#E38081" d="M489.72 432l.28-55.68c0-.175-.16-.32-.356-.32h-.004c-.197 0-.36.142-.36.317L489 432h.72M500.725 432l.275-53.68c0-.177-.164-.317-.362-.32-.202 0-.363.143-.363.317L500 432h.725"/>
        <path fill="#E38081" d="M522 371.582c0 1.285-1.56 2.483-4.25 3.485-3.38 1.266-8.548 2.221-14.634 2.662a90.786 90.786 0 0 1-1.609.105l-.638.037c-1.735.086-3.531.129-5.37.129-1.416 0-2.804-.025-4.161-.077-.212-.01-.427-.015-.636-.028a72.8 72.8 0 0 1-1.897-.101c-.215-.016-.424-.025-.636-.04-6.377-.447-11.772-1.455-15.196-2.792-2.52-.986-3.973-2.142-3.973-3.38a1.753 1.753 0 0 1 .246-.872c.718-.863 3.027-1.646 6.432-2.265 4.852-.887 11.932-1.445 19.82-1.445 8.478 0 16.022.644 20.87 1.645 2.832.589 4.748 1.294 5.39 2.065.131.228.208.462.236.7.003.052.006.11.006.172"/>
        <path fill="#E99E90" d="M522 370.999c0 .037-.003.077-.006.115-.132.715-1.517 1.382-3.832 1.957-4.649 1.156-13.059 1.929-22.664 1.929-9.561 0-17.944-.768-22.605-1.912-2.349-.58-3.755-1.256-3.884-1.974a.726.726 0 0 1-.009-.115c0-.182.08-.36.246-.538.718-.805 3.027-1.535 6.432-2.113 4.852-.828 11.932-1.348 19.82-1.348 8.478 0 16.022.6 20.87 1.535 2.832.55 4.748 1.207 5.39 1.926.165.178.242.356.242.538M507.749 416a.245.245 0 0 1-.156-.056l-22.501-18.496a.252.252 0 0 1 .316-.392l22.499 18.495c.109.09.123.247.038.357a.249.249 0 0 1-.196.092"/>
        <path fill="#E99E90" d="M481.25 416a.24.24 0 0 1-.194-.092.256.256 0 0 1 .036-.357l22.502-18.496a.248.248 0 0 1 .35.038.252.252 0 0 1-.036.354l-22.502 18.497a.234.234 0 0 1-.156.056"/>
        <path fill="#D7BAB2" d="M476 368l.01-.006c4.89-.61 12.027-.994 19.978-.994H496c-7.945 0-15.076.383-19.963.994L476 368"/>
        <path fill="#CA7B78" d="M494.988 377c-9.304 0-17.457-.8-21.988-1.991V375l.027.009C477.557 376.201 485.705 377 495 377h-.012"/>
        <path fill="#CB887E" d="M495.481 375c-9.498 0-17.824-.768-22.454-1.912l-.027-.008c.085-1.667.867-3.335 2.76-4.723l.036-.009c4.819-.828 11.85-1.348 19.685-1.348 8.421 0 15.914.6 20.733 1.535.955 1.27 1.874 2.93 1.78 4.536-4.618 1.156-12.972 1.929-22.513 1.929"/>
        <path fill="#F8D2C3" d="M495.055 272.784c.07 1.031-.503 2.143-1.311 3.253-1.469 2.025-3.705 4.02-4.198 5.433-.77 2.188 1.251 6.444 1.251 6.444s-.934 4.375-3.626 5.65a3.857 3.857 0 0 1-.544.206c-3.031.862-10.513-.766-9.453-3.79.327-.93.384-1.914.308-2.85-.201-2.293-.308-4.258-.308-4.258-2.305 1.7-5.96 1.15-6.79.483-.836-.665-2.374-2.308-3.846-5.103-1.475-2.797-1.346-5.35-1.274-6.5.07-1.157.375-1.095 0-2.738-.374-1.64-.33-5.657 0-5.895.255-1.277.598-2.546.991-3.79.396-1.246.752-2.532 1.44-3.668.783-1.289 1.74-1.733 3.274-1.882 4.686-.457 10.148-1.695 14.586.409 4.16 1.757 6.022 8.3 7.962 9.298 4.614 2.367 1.346 6.378 1.538 9.298"/>
        <path fill="#F3CDC3" d="M490.205 290s-.853-2.075-1.205-4.168c.352 2.092 1.205 4.167 1.205 4.167V290m-.94-7.664c.74-1.484 2.515-3.397 3.735-5.335V277c-1.22 1.937-2.992 3.85-3.735 5.336"/>
        <path fill="#EFB8A9" d="M488.566 291c-.036-1.058-.277-2.535-.524-5.204-.559-6.042 4.697-8.566 4.958-8.796-1.067 1.826-2.62 3.627-3.267 5.025-.092.2-.165.393-.217.576-.214.75-.17 1.735-.016 2.717.308 1.971 1.055 3.926 1.055 3.926a15.005 15.005 0 0 1-1.989 1.756"/>
        <path fill="#181F34" d="M489 251.178s1.85-3.66 6.16-3.124c4.315.536 7.378 6.533 6.76 9.305-.614 2.77-2.745 4.917-6.441 2.76-3.697-2.156-6.479-8.2-6.479-8.2v-.741"/>
        <path fill="#181F34" d="M466 255.575s2.996-9.454 14.963-7.239c11.966 2.216 15.152 7.924 15.925 12.78.777 4.857-2.754 9.884-2.754 9.884s-.516-6.56-5.467-2.3c-2.558 2.203-5.37-3.854-5.753-6.232-.387-2.377-15.09-8.6-16.914-6.893"/>
        <path fill="#161C2E" d="M465.315 264.9s-2.709-10.75 7.767-11.836C483.558 251.98 484 265 484 265l-6.869-.18-.79-4.25-.192 4.308-6.06.032-.614-2.351-.18 2.26-.703-.994-.176.994-3.101.08"/>
        <path fill="#F8D2C3" d="M449.767 289.169l-.003.015a8.73 8.73 0 0 1-.162.486c-.139.36-.25.702-.34 1.024-.58 2.088-.268 3.447-.197 4.418.085 1.123-4.35.862-4.35.862l-.275-1.207s-.72-1.218-1.703-2.54a17.993 17.993 0 0 0-1.47-1.772l-.002-.007c-1.768-1.86-2.143-4.612-3.247-6.873-1.015-2.08-3.202-4.426-1.207-6.771 1.99-2.33 4.893.986 6.124 2.611.322.418 2.52 4.623 3.01 3.951.824-1.124.656-4.923 1.807-5.7 1.154-.779 2.219-.346 1.726 1.206-.496 1.556-1.068 2.767-.572 4.148.33.934 1 2.422 1.086 4.115v.007a6.22 6.22 0 0 1-.225 2.027"/>
        <path fill="#EFB8A9" d="M443.368 293c-.26-.49-.76-1.396-1.368-2.352.578.513 1.354.928 2.347.929.4 0 .83-.067 1.3-.22 1.186-.387 1.91-1.292 2.353-2.357a11.15 11.15 0 0 0-.312 3 3.434 3.434 0 0 0-.133-.002c-1.3 0-3.189.63-4.187 1.002"/>
        <path fill="#F8D2C3" d="M427.89 430.535c-.72.66-2.42 5.45-4.24 9.689-1.478 3.454-3.038 6.54-4.215 6.743-2.2.378-4.262-2.61-5.801-3.79-3.16-2.426-7.02-2.994-10.446-4.886-2.333-1.284-9.91-7.94-3.954-9.318 2.05-.477 4.012-.194 5.913.433 2.464.807 4.819 2.192 7.13 3.261 1.12.52 2.279 1.207 3.477.508.767-.449 2.427-5.175 2.519-5.175 0 0 10.929 1.344 9.618 2.535"/>
        <path fill="#191F34" d="M423 440.323c-1.442 3.404-2.965 6.445-4.113 6.645-2.146.371-4.158-2.572-5.66-3.736-3.082-2.39-6.848-2.95-10.19-4.814-2.276-1.266-9.668-7.824-3.857-9.182 2-.47 3.914-.19 5.769.427-.576 5.066 4.273 5.677 10.101 8.915 3.71 2.061 6.386 2.037 7.95 1.745"/>
        <path fill="#F8D2C3" d="M481.575 446.352c-1.518 1.582-4.764.417-6.613.373-3.802-.082-7.133 1.715-10.847 2.21-2.423.325-11.314-.463-8.608-4.561.121-.184.261-.367.416-.548 1.348-1.576 3.04-2.497 4.87-3.104 2.369-.798 4.968-1.07 7.364-1.57 1.16-.237 2.441-.37 2.997-1.63.355-.8-.932-5.532-.856-5.586 0 0 9.288-5.31 8.912-3.595-.204.943 1.084 5.747 1.98 10.181v.006l.008.035c.723 3.602 1.182 6.947.377 7.789"/>
        <path fill="#191F34" d="M481.575 447.218c-1.518 1.662-4.764.439-6.613.392-3.802-.086-7.133 1.802-10.847 2.32-2.423.343-11.314-.485-8.608-4.79.121-.193.261-.385.416-.575 1.348-1.655 3.04-2.623 4.87-3.261 2.348 4.657 6.577 2.128 13.048 1.21 4.12-.585 6.25-2.284 7.348-3.514l.01.037c.722 3.783 1.18 7.297.376 8.181"/>
        <path fill="#303959" d="M515.651 365.179c-4.492 7.954-17.35 7.113-25.095 8.436-.676.115-3.1.417-6.13.874-3.277.497-7.258 1.18-10.495 2.008-1.225.314-2.342.649-3.277 1.002-1.788.676-2.903 1.426-2.796 2.224.5 3.726 16.884 55.878 16.884 57.368 0 .795-4.784 1.097-9.261.792-3.932-.268-7.626-1.002-7.626-2.282.003-2.73-5.455-21.198-8.933-28.233-3.368-6.809-8.131-24.735-8.424-25.847l-.006-.019-.009-.04-.009.013-23.578 52.39s-3.944-.853-7.773-2.09c-3.612-1.164-7.123-2.672-7.123-4.12 0-2.979 5.464-11.01 7.7-16.058 2.231-5.051 13.153-39.527 18.123-44.268 4.961-4.74 27.556-15.665 32.27-17.652 4.718-1.99 7.885-3.726 8.29-14.9l5.695-.351 6.603-.402 10.827-.664 5.896-.36s.177 7.239 4.151 12.208c3.923 4.905 7.468 13.99 4.096 19.97"/>
        <path fill="#191F34" d="M483.172 352.675L479 354c1.363-.52 3.309-1.467 4.652-2.998 1.314-1.495-.363-9.3-2.012-15.603l6.195-.399.011.13c.189 2.814.172 7.321.117 10.845-.048 3.098-1.983 5.806-4.791 6.7M514.675 364.8c-4.413 7.86-17.044 7.03-24.652 8.336-.665.114-3.046.412-6.023.864 1.55-.994 6.51-1.647 18.349-9.306 13.66-8.834-1.95-28.713-1.95-30.682 0 0 .143-.25.382-.657l5.792-.355s.174 7.153 4.078 12.064c3.853 4.847 7.336 13.825 4.024 19.735M447.5 368c-.042.091-.217.44-.5 1 .18-.56.43-.91.5-1M451 380.16L427.101 432s-3.997-.844-7.877-2.068c-.608-1.308.034-2.695 1.793-5.505 4.152-6.635 12.267-7.114 17.552-21.527 4.43-12.092 8.335-28.82 9.477-33.9-.3 2.143-.275 6.346 2.954 11.16"/>
        <path fill="#191F34" d="M450.01 382.01v.02L450 382l.01.01M484 436.065c0 1.418-8.161.808-9.071.784 1.653-.244 2.47-3.943 2.863-5.217.892-2.9 1.47-6.059 1.165-9.1-.318-3.15-1.447-6.14-2.273-9.176-2.591-9.538-5.703-18.94-8.913-28.283-.048-.142-.937-2.462-.869-2.504-.003 0-2.437 1.475-1.219-.492 1.22-1.967.246-2.091-2.683-2.212-2.932-.124-5.984-.86-2.324-1.6 3.663-.735 5.253.982 4.154 0-1.1-.983-3.42-3.318.608-1.722 1.713.679 3.36.706 4.708.5-1.758.67-2.854 1.413-2.75 2.204.492 3.69 16.604 55.34 16.604 56.818"/>
        <path fill="#DDBB6F" d="M509.785 304.6c-.977 8.06-.61 27.397-3.308 28.634-2.697 1.241-40.683.62-41.42 0-.634-.535-.171-3.765-.033-4.622a.354.354 0 0 1 .235-.28l8.99-3.151s-.027-.04-.082-.106c-.649-.837-5.066-6.567-5.066-7.832 0 0-9.068 17.795-15.686 16.71-6.618-1.09-10.415-41.497-10.415-41.497s6.125-2.11 6.861-.623c.734 1.49 6.248 22.563 6.248 22.563s4.612-9.76 8.085-15.27c1.062-1.676 2.015-2.96 2.703-3.45 2.94-2.107 10.617-6.93 10.617-6.93l.003.006c.03.03.225.194.565.41l.012.01.199.118c1.777 1.046 6.422 2.813 12.132-2.29 0 0 2.79.709 6.025 1.624 2.995.845 6.371 1.864 8.266 2.65l.003.002c.496.204.887.39 1.148.557 2.327 1.49 4.901 4.714 3.918 12.767"/>
        <path fill="#D7AD2E" d="M463 301c-.245 1.325-.659 3.095-1.14 5.604-1.031 5.4-4.665 16.373-4.665 14.087 0-2.282-1.195-4.057-1.195-4.057s3.993-9.992 7-15.634M474 328s20.13-2.59 23.25-3.108c0 0 .5-11.613 1.75-13.892 0 0-2.423 7.6-8.721 12.47-3.86 2.984-9.172 3.841-16.279 4.53M474.017 326c-.644-.748-5.017-5.87-5.017-7 0 0 3.095 4.214 7.328 4.545 3.42.27 1.06 1.985-2.311 2.455"/>
        <path fill="#D7AD2E" d="M509.785 306.425c-.979 8.121-.612 27.606-3.312 28.853-2.697 1.25-40.735.625-41.473 0 0 0 33.652.503 37.207-2.868 3.558-3.374 6.015-12.868 5.889-18.737-.12-5.872 1.204-14.367-3.384-20.673.497.206.888.393 1.15.562 2.33 1.499 4.907 4.748 3.923 12.863M498 288.503c-2.29 1.808-9.032 4.28-13.367 3.258-4.725-1.112-5.599-2.635-5.633-2.76l.012.01c.032.022.1.058.206.109 1.838.969 6.643 2.604 12.55-2.12 0 0 2.885.656 6.232 1.503"/>
        <path fill="#F8D2C3" d="M465 333.248c-.832.18-2.012.427-3.227.665-1.694.329-3.643-.336-5.706-.944a30.046 30.046 0 0 0-2.059-.547c-2.136-.466-2.778-.224-3.705.169-.295.123-.616.262-1.023.402-1.438.486-3.36-.522-3.277-1.082.011-.095.089-.176.24-.235.401-.157 1.412-.613 2.61-1.104 1.824-.743 4.088-1.572 5.378-1.572 1.105 0 4.175.142 6.927.28 1.221.056 2.38.117 3.271.162a17.049 17.049 0 0 0-.27 1.756c-.074.858-.053 1.729.31 1.962.047.03.225.061.531.088"/>
        <path fill="#EFB8A9" d="M460.816 336c-1.388 0-2.912-.693-4.508-1.372-.08-.035-.16-.07-.24-.101a23.257 23.257 0 0 0-2.06-.78c-.832-.26-1.435-.365-1.92-.365-.52 0-.897.123-1.268.312a6.98 6.98 0 0 0-.517.294c-.294.175-.615.374-1.022.574-.268.126-.55.182-.832.182-.214 0-.431-.032-.64-.088-.674-.182-1.28-.612-1.59-1.04-.139-.188-.216-.377-.219-.542 0-.017.003-.035.003-.056.267.333.648.64 1.313.64.366 0 .818-.094 1.388-.325 1.492-.609 2.377-1.235 3.596-1.235.624 0 1.34.164 2.27.584 1.435.644 3.295 1.106 5.028 1.106 1.572 0 3.037-.381 3.985-1.354.193-.196.386-.34.576-.434-.02.35-.036.7-.036 1.032 0 .826.087 1.53.345 1.768.048.042.226.087.532.126l-.042.01c-.829.256-1.99.606-3.185.938-.312.088-.63.126-.957.126"/>
        <path fill="#E99E90" d="M449 288c.255-.7.345-1.4.38-2a3.744 3.744 0 0 1-.38 2"/>
        <path fill="#161C2E" d="M500 262.703v.003c-.567.254-1.216.355-1.96.258-.8-3.75-3.04-7.823-9.04-10.629.233-.339.626-.843 1.193-1.335 4.296 2.126 9.696 5.924 9.807 11.703"/>
        <path fill="#EFB8A9" d="M478.266 289a200.705 200.705 0 0 1-.266-4.669s5.912-3.266 6.296-5.996c.388-2.737.334-3.335.334-3.335s1.049 4.067-.385 5.934c-1.049 1.36-4.025 5.588-5.98 8.066"/>
        <path fill="#FFFFFE" d="M466.5 266.303a3.2 3.2 0 0 0-3.197 3.197 3.2 3.2 0 0 0 3.197 3.197 3.2 3.2 0 0 0 3.197-3.197 3.2 3.2 0 0 0-3.197-3.197zm0 6.697c-1.932 0-3.5-1.57-3.5-3.5s1.568-3.5 3.5-3.5c1.929 0 3.5 1.57 3.5 3.5s-1.571 3.5-3.5 3.5zM475 265.347a3.657 3.657 0 0 0-3.654 3.653 3.657 3.657 0 0 0 3.654 3.653 3.657 3.657 0 0 0 3.651-3.653 3.657 3.657 0 0 0-3.651-3.653zm0 7.653c-2.206 0-4-1.794-4-4s1.794-4 4-4 4 1.794 4 4-1.794 4-4 4z"/>
        <path fill="#E38081" d="M417.435 335H358c.248 4.742 6.977 3.95 6.977 3.95h123.046s6.73.792 6.977-3.95h-77.565"/>
        <path fill="#F8D2C3" d="M336.032 169.722c-1.562-4.07-5.06-7.041-9.347-8.48-2.607-.875-6.379-1.876-8.995-.72-3.34 1.473-7.135 3.921-7.884 7.58-.248 1.22-.68 2.67-.517 3.93.019.148.101.314.114.454.095 1.133-1.508 2.423-2.124 3.31-.388.552-1.807 2.317-1.07 3.003 1.032.964 1.035-.216 1.032.964 0 .997-.051 1.995.028 2.99.083.99.626 1.883.423 2.873-.242 1.2-2.642 4.647-.499 5.383 2.467.846 8.296-1.938 10.05 1.116 1.752 3.053 1.431 4.39 1.431 4.39l1.28-.772c1.574 2.198 4.264 4.257 4.851 4.257 1.042 0 8.37-3.118 8.297-5.313-.093-2.734.743-5.872 1.136-8.625.359-2.497.55-5.082 1.473-7.456.175-.445.369-.887.613-1.304 1.251-2.154.534-5.428-.292-7.58M258.054 172.47c0 .039-.003.08-.003.123-.106 3.782 2.607 6.317 3.427 4.083.258-.705.468-1.433.66-2.072.407-1.384.717-2.336 1.218-1.635.252.356.219 1.214.091 2.319v.003c-.237 2.09-.796 5.059-.362 7.196.59 2.897 7.098 11.765 8.602 13.785.2.268.313.415.313.415L263.845 208s-.486-2.448-1.21-5.688c-1.284-5.742-3.32-13.974-4.733-15.455-2.212-2.316-5.776-6.832-5.894-11.602-.116-4.767 1.081-6.082 3.406-7.775 1.844-1.34 2.491.283 2.622 2.897"/>
        <path fill="#191F34" d="M320.255 392S326 401.64 326 403.401c0 1.762-8.821 6.036-10.38 5.783-1.555-.251-1.405-3.2-3.11-2.01-1.787 1.245-2.288 3.77-10.763 4.777-2.684.32-6.236-.946-6.703-3.172-.195-.928.244-1.396 1.636-2.568 2.213-1.864 5.228-1.813 7.801-3.317 1.554-.91 4.497-3.079 4.014-5.193-.52-2.263 10.205-4.698 11.76-5.701"/>
        <path fill="#191F34" d="M342.938 394.017c0 .774 2.297 9.47 2.042 11.003-.257 1.536-9.993 1.619-9.993.854 0-.768-.082-1.11-2.125-1.11-2.042 0-8.303 2.904-11.875 2.093-3.572-.814-10.72-2.099-6.89-4.142 3.827-2.043 9.441-2.043 11.229-3.834 1.787-1.788 3.673-5.881 3.673-5.881l13.94 1.017"/>
        <path fill="#DDBB6F" d="M345.604 294.486c-2.033 9.417-4.005 2.355-2.002 23.542 2.002 21.184-3.08 22.53-2.4 33.288.675 10.759 3.38 18.157 2.37 26.901-1.017 8.744.213 13.113-2.436 13.789-2.378.606-11.382 3.65-13.912.106a3.523 3.523 0 0 1-.59-1.452c-.31-1.742-.65-4.33-1.006-7.253-.803-6.68-1.676-15.121-2.384-19.324-1.014-6.044-4.063-24.871-4.063-30.255v-22.226-1.31s-8.13 21.858-9.821 28.92a10.791 10.791 0 0 0-.272 2.515c0 .187.003.378.012.572.003.155.012.312.025.47v.006c.003.067.009.136.015.206.012.167.027.333.043.503v.006c.02.2.045.403.073.606.024.203.055.406.085.612l.131.766.083.437c.61 3.081 1.727 6.523 2.866 10.043.094.3.192.597.29.897.07.215.137.427.204.64.122.387.248.775.37 1.163l.28.9c.01.03.019.057.025.085.08.248.152.5.229.748l.021.07c.134.451.269.9.397 1.348l.021.076c.14.497.278.99.41 1.484l.173.67.015.066c.052.2.101.4.15.6.049.2.095.4.14.597.046.2.089.397.132.594.13.597.244 1.188.342 1.77.03.157.054.312.079.47.033.223.067.447.098.672 1.352 10.089 1.352 8.74 3.384 12.776 2.033 4.036 2.714 9.08 1.017 9.417a4.972 4.972 0 0 0-.357.09 15.281 15.281 0 0 0-.922.318c-.113.043-.232.092-.351.14-.098.037-.195.079-.296.118-.113.046-.23.094-.345.143l-.266.109c-.03.012-.058.024-.088.04-.19.075-.379.157-.574.239a60.42 60.42 0 0 1-1.688.685c-.125.05-.253.096-.378.145-1.252.47-2.424.824-3.202.778-2.033-.118-5.082 3.582-6.779-1.463-1.69-5.045-8.463-19.524-10.16-28.256-1.694-8.731-6.098-15.455-7.45-19.157-1.356-3.696 1.69-25.553 2.707-32.282 1.016-6.723 6.098-21.518 9.147-27.238 3.05-5.714 4.066-16.406 4.066-16.406h37.94s6.432 16.073 4.402 25.486"/>
        <path fill="#C8A75D" d="M321.053 390.99a4.868 4.868 0 0 0-.228.055c-.039.012-.081.021-.123.036-.13.036-.268.081-.415.135-.153.051-.318.114-.493.18-.11.042-.228.09-.345.138-.096.037-.193.079-.292.118l-.34.14-.348.148c-.186.075-.372.156-.565.237l-.532.222c-.375.157-.754.31-1.13.457-.123.05-.249.096-.372.144.706-1.61 1.304-3.228 1.541-4.679 1.031-6.33-2.362-6-5.364-14.664s-3.002-10.997-5.003-24.33c-2.001-13.331-8.002-6.331 0-20.998 8.005-14.664 5.337-18.331 10.367-20 5.03-1.664 3.432 3.537 3.432 3.537s-.297.7-.79 1.886v-1.457-1.297s-8.006 21.664-9.67 28.664a10.766 10.766 0 0 0-.268 2.493c0 .186.003.375.012.568.003.153.012.309.024.465v.006c.003.07.01.135.015.204.012.165.027.33.042.499v.006c.021.198.045.396.073.6.024.199.054.403.084.607.042.25.084.501.129.76l.081.432c.601 3.054 1.7 6.466 2.822 9.955.093.298.189.592.285.89.07.212.135.423.202.633l.363 1.153c.093.297.186.595.277.892.009.03.018.057.024.084.078.246.15.496.225.742l.021.069c.132.447.264.892.39 1.336l.022.075c.138.493.273.982.402 1.472l.172.664.015.066.147.594c.048.198.093.397.138.592.045.198.087.393.13.588.129.592.24 1.178.336 1.754.03.156.054.31.078.466.033.222.066.444.096.666 1.331 10 1.331 8.664 3.333 12.664 2.001 4 2.671 9 1 9.334"/>
        <path fill="#C8A75D" d="M320 333.932c0 5.392 2.956 24.25 3.941 30.303.684 4.21 1.53 12.664 2.308 19.355.346 2.928.675 5.52.977 7.265.097.573.295 1.056.57 1.453 2.454 3.554 11.182.5 13.487-.106 2.569-.677 1.376-5.053 2.361-13.81.98-8.755-1.642-16.169-2.296-26.944-.66-10.776 4.267-12.124 2.326-33.341-1.941-21.22-.03-14.148 1.941-23.58 1.97-9.426-4.267-25.527-4.267-25.527h-10.847c.192 8.083 4.853 30.16-9.084 39.672-.805.55-.98 1.851-1.417 2.998v22.262"/>
        <path fill="#86702E" d="M315 366c.363 10.05 1.126 19.856 2.225 28 .83-.436 1.557-.811 2.012-.924 1.347-.339.807-5.417-.806-9.48-1.613-4.063-1.613-2.705-2.685-12.862A52.79 52.79 0 0 0 315 366"/>
        <path fill="#303A59" d="M262.004 204.99c.223 2.048 3.706 8.865 6.933 14.376.474.802.938 1.58 1.387 2.306 3.529 5.737 27.478-2.084 29.746.524 1.26 1.444 2.284 14.685 2.86 27.072.468 9.951.294 19.58.068 21.9-.505 5.213 1.862 1.595 4.636 1.787 2.771.192 6.805.333 8.57 0 1.766-.333 6.554-.45 9.329-.555 1.402-.056 3.055-.424 4.642-.59 1.563-.167 3.056-.132 4.18.59 2.268 1.458 6.808-.157 8.57-2.503 1.766-2.347 1.009-7.04 1.009-10.168 0-.454.073-.878.212-1.272.672-1.867 2.956-3.123 7.105-4.36a74.75 74.75 0 0 1 3.27-.882c7.311-1.827 3.532-5.995 3.277-13.817-.251-7.82-2.268-23.721-3.276-29.196-1.009-5.47-16.89-10.945-19.916-11.99-3.022-1.039-1.763-5.212-1.763-5.212-.993.732-4.63.641-8.016.424-2.629-.176-5.11-.424-6.103-.424-2.268 0-.754 2.609-3.528 5.213-2.774 2.608-4.79 0-9.83 0-5.043 0-25.463 8.084-27.48 7.821-2.017-.262-5.042-9.123-5.042-9.123s-11.092 5.732-10.84 8.078"/>
        <path fill="#191F34" d="M325.092 242.196c8.148 6.847 15.53 6.594 11.2 14.42-3.722 6.73-8.762 11.032-5.401 15.237 1.578-.166 3.086-.131 4.22.591 2.291 1.46 6.876-.157 8.656-2.504 1.783-2.348 1.018-7.043 1.018-10.174 0-.454.074-.878.214-1.272.68-1.868 2.985-3.125 7.175-4.362a76.045 76.045 0 0 1 3.303-.884c7.383-1.827 3.566-5.998 3.31-13.824-.254-7.825-2.291-23.734-3.31-29.212-1.018-5.474-17.056-10.952-20.112-11.996-3.052-1.04-1.78-5.216-1.78-5.216-1.003.732-4.676.641-8.095.424 2.021 2.292 7.53 10.3 4.694 21.791-3.055 12.37-13.24 20.14-5.092 26.981M317.033 246s5.838 3.913 6.861 8.608c1.024 4.696-5.734 7.565-5.52 11.478.217 3.913 2.26-5.74 2.144-10.043-.12-4.304-3.91-8.217-3.485-10.043M269 218.807c.482.81.953 1.595 1.409 2.329 3.585 5.793 27.919-2.104 30.224.53 1.28 1.457 2.32 14.826 2.905 27.334 1.057-5.594 2.035-9.158 3.023-16.444 1.28-9.426-.022-16.038-6.809-15.528-6.782.51-16.52 4.2-24.461 3.69-3.397-.22-5.061-.902-6.291-1.91"/>
        <path fill="#303A59" d="M332.426 186.142c.353-.134.635-.41.767-.768.962-2.58 4.958-13.531 4.803-16.692-.18-3.592-3.757-2.874-5.007-5.388-1.253-2.515-.893-4.49-5.186-5.029-4.29-.538-13.931-.97-16.986 6.3-1.643 3.904 2.785 2.809 2.608 4.784-.18 1.976 1.6 2.468.704 3.007-.893.539-2.113 3.826-2.113 5.98 0 2.156.902 6.252-2.135 6.79-3.04.54-1.373-.53-2.086-1.068-.597-.45-1.93 5.733-1.784 6.42.756 3.481 4.812 2.636 7.24 1.698 4.653-1.798 2.764-3.88 1.499-7.69-.357-1.078-1.874-8.714.384-9.752 3.079-1.415 3.975-.051 3.861 2.055-.057 1.053-.342 2.292-.54 3.466-.257 1.51-.371 2.913.327 3.668 2.27 2.455 5.98 5.103 13.644 2.219"/>
        <path fill="#191F34" d="M243.816 166.097L254 169.179s-.16 1.264 0 1.821c-.037-.13-1.053-.412-1.191-.466-.94-.367-1.876-.738-2.815-1.106-1.717-.673-3.442-1.334-5.155-2.015-.547-.217-1.686-.432-1.82-1-.116-.497.303-.466.797-.316M266 174.305s-.192 3.052-.962 2.66c-.13-.067-.405-.204-.769-.386v-.003l-1.275-.636-3.976-1.985c.018-.686.018-1.344-.018-1.946l.003-.009 6.997 2.305"/>
        <path fill="#F8D2C3" d="M261 172l.06 2"/>
    </g>
</svg>
