<?xml version="1.0" encoding="UTF-8"?>
<svg width="524px" height="231px" viewBox="0 0 524 231" version="1.1" xmlns="http://www.w3.org/2000/svg" xmlns:xlink="http://www.w3.org/1999/xlink">
    <!-- Generator: Sketch 51.3 (57544) - http://www.bohemiancoding.com/sketch -->
    <title>Group 23</title>
    <desc>Created with Sketch.</desc>
    <defs>
        <linearGradient x1="50%" y1="0%" x2="50%" y2="100%" id="linearGradient-1">
            <stop stop-color="#72B8FC" offset="0%"></stop>
            <stop stop-color="#3E82F7" offset="100%"></stop>
        </linearGradient>
    </defs>
    <g id="Page-1" stroke="none" stroke-width="1" fill="none" fill-rule="evenodd">
        <g id="Group-23">
            <path d="M357.49051,231 L135.508581,231 C129.728968,231 125,226.256459 125,220.458359 L125,85.5416409 C125,79.7438447 129.728968,75 135.508581,75 L357.49051,75 C363.272244,75 368,79.7438447 368,85.5416409 L368,220.458359 C368,226.256459 363.272244,231 357.49051,231" id="Fill-56" fill="#FFFFFE"></path>
            <path d="M223.217067,168 L201.782933,168 C201.350576,168 201,167.581228 201,167.064408 L201,165.935233 C201,165.419131 201.350576,165 201.782933,165 L223.217067,165 C223.649424,165 224,165.419131 224,165.935233 L224,167.064408 C224,167.581228 223.649424,168 223.217067,168" id="Fill-57" fill="url(#linearGradient-1)" fill-rule="nonzero"></path>
            <polygon id="Fill-58" fill="url(#linearGradient-1)" fill-rule="nonzero" points="155 206 159 206 159 166 155 166"></polygon>
            <polygon id="Fill-59" fill="url(#linearGradient-1)" fill-rule="nonzero" points="162 206 166 206 166 168 162 168"></polygon>
            <polygon id="Fill-60" fill="url(#linearGradient-1)" fill-rule="nonzero" points="170 206 174 206 174 189 170 189"></polygon>
            <polygon id="Fill-61" fill="url(#linearGradient-1)" fill-rule="nonzero" points="177 206 181 206 181 175 177 175"></polygon>
            <polygon id="Fill-62" fill="url(#linearGradient-1)" fill-rule="nonzero" points="148 206 149 206 149 162 148 162"></polygon>
            <polygon id="Fill-63" fill="#75B2EE" points="148 207 189 207 189 206 148 206"></polygon>
            <polyline id="Fill-64" fill="url(#linearGradient-1)" fill-rule="nonzero" points="191 205.5 187 203 187 208 191 205.5"></polyline>
            <polyline id="Fill-65" fill="#75B2EE" points="147.5 158 145 162 150 162 147.5 158"></polyline>
            <path d="M345.211761,191 L265.789451,191 C265.353495,191 265,190.653017 265,190.225092 L265,186.774908 C265,186.346983 265.353495,186 265.789451,186 L345.211761,186 C345.645293,186 346,186.346983 346,186.774908 L346,190.225092 C346,190.653017 345.645293,191 345.211761,191" id="Fill-66" fill="#CDD9E4"></path>
            <path d="M323.211668,204 L265.789545,204 C265.353537,204 265,203.653038 265,203.224841 L265,199.774862 C265,199.346962 265.353537,199 265.789545,199 L323.211668,199 C323.648283,199 324,199.346962 324,199.774862 L324,203.224841 C324,203.653038 323.648283,204 323.211668,204" id="Fill-67" fill="#CDD9E4"></path>
            <path d="M333.200362,147 L281.802098,147 C281.358607,147 281,146.543952 281,145.98152 L281,144.01848 C281,143.456048 281.358607,143 281.802098,143 L333.200362,143 C333.640163,143 334,143.456048 334,144.01848 L334,145.98152 C334,146.543952 333.640163,147 333.200362,147" id="Fill-68" fill="#CDD9E4"></path>
            <path d="M331.20302,153 L281.799433,153 C281.357415,153 281,152.543952 281,151.98152 L281,150.01848 C281,149.456048 281.357415,149 281.799433,149 L331.20302,149 C331.641359,149 332,149.456048 332,150.01848 L332,151.98152 C332,152.543952 331.641359,153 331.20302,153" id="Fill-69" fill="#CDD9E4"></path>
            <path d="M346.211172,161 L281.791255,161 C281.353759,161 281,160.543952 281,159.98152 L281,158.01848 C281,157.456048 281.353759,157 281.791255,157 L346.211172,157 C346.645028,157 347,157.456048 347,158.01848 L347,159.98152 C347,160.543952 346.645028,161 346.211172,161" id="Fill-70" fill="#CDD9E4"></path>
            <path d="M319.186383,167 L281.812994,167 C281.363478,167 281,166.543952 281,165.98152 L281,164.01848 C281,163.456048 281.363478,163 281.812994,163 L319.186383,163 C319.635275,163 320,163.456048 320,164.01848 L320,165.98152 C320,166.543952 319.635275,167 319.186383,167" id="Fill-71" fill="#CDD9E4"></path>
            <path d="M328,117.5 C328,127.165138 320.164967,135 310.501552,135 C300.835033,135 293,127.165138 293,117.5 C293,107.834862 300.835033,100 310.501552,100 L310.501552,117.5 L328,117.5" id="Fill-72" fill="url(#linearGradient-1)" fill-rule="nonzero"></path>
            <path d="M313,97 L313,114 L330,114 M330,114 C330,104.611465 322.390076,97 313,97" id="Fill-73" fill="#CDD9E4"></path>
            <path d="M245.409404,143 L145.590898,143 C144.159891,143 143,141.859786 143,140.453057 L143,96.5469435 C143,95.1402136 144.159891,94 145.590898,94 L245.409404,94 C246.840109,94 248,95.1402136 248,96.5469435 L248,140.453057 C248,141.859786 246.840109,143 245.409404,143" id="Fill-74" fill="#CDD9E4"></path>
            <path d="M243.204135,106 L179.795559,106 C179.35623,106 179,105.581178 179,105.064655 L179,103.935704 C179,103.418822 179.35623,103 179.795559,103 L243.204135,103 C243.64377,103 244,103.418822 244,103.935704 L244,105.064655 C244,105.581178 243.64377,106 243.204135,106" id="Fill-75" fill="#FFFFFE"></path>
            <path d="M219.222069,112 L179.777931,112 C179.348336,112 179,111.581128 179,111.064543 L179,109.935457 C179,109.418872 179.348336,109 179.777931,109 L219.222069,109 C219.651963,109 220,109.418872 220,109.935457 L220,111.064543 C220,111.581128 219.651963,112 219.222069,112" id="Fill-76" fill="#FFFFFE"></path>
            <path d="M233.201859,118 L179.798141,118 C179.357386,118 179,117.581178 179,117.064655 L179,115.935345 C179,115.418822 179.357386,115 179.798141,115 L233.201859,115 C233.642921,115 234,115.418822 234,115.935345 L234,117.064655 C234,117.581178 233.642921,118 233.201859,118" id="Fill-77" fill="#FFFFFE"></path>
            <path d="M195.203354,123 L179.796646,123 C179.356716,123 179,122.581178 179,122.064655 L179,120.935345 C179,120.418822 179.356716,120 179.796646,120 L195.203354,120 C195.643284,120 196,120.418822 196,120.935345 L196,122.064655 C196,122.581178 195.643284,123 195.203354,123" id="Fill-78" fill="#FFFFFE"></path>
            <path d="M244.1975,132 L152.802192,132 C152.359199,132 152,131.581178 152,131.064655 L152,129.935345 C152,129.418822 152.359199,129 152.802192,129 L244.1975,129 C244.640801,129 245,129.418822 245,129.935345 L245,131.064655 C245,131.581178 244.640801,132 244.1975,132" id="Fill-79" fill="#FFFFFE"></path>
            <path d="M239.21639,138 L152.78361,138 C152.350879,138 152,137.581178 152,137.064655 L152,135.935704 C152,135.418822 152.350879,135 152.78361,135 L239.21639,135 C239.649422,135 240,135.418822 240,135.935704 L240,137.064655 C240,137.581178 239.649422,138 239.21639,138" id="Fill-80" fill="#FFFFFE"></path>
            <path d="M171,112.500158 C171,117.74677 166.74677,122 161.499842,122 C156.25323,122 152,117.74677 152,112.500158 C152,107.253547 156.25323,103 161.499842,103 C166.74677,103 171,107.253547 171,112.500158" id="Fill-81" fill="url(#linearGradient-1)" fill-rule="nonzero"></path>
            <path d="M159.5,55.8699031 C156.946943,55.8699031 154.869568,57.9469434 154.869568,60.5 C154.869568,63.0530566 156.946943,65.1300969 159.5,65.1300969 C162.052721,65.1300969 164.130097,63.0530566 164.130097,60.5 C164.130097,57.9469434 162.052721,55.8699031 159.5,55.8699031 Z M159.5,66 C156.46724,66 154,63.5327604 154,60.5 C154,57.4669044 156.46724,55 159.5,55 C162.53276,55 165,57.4669044 165,60.5 C165,63.5327604 162.53276,66 159.5,66 Z" id="Fill-82" fill="#BDB3CD"></path>
            <path d="M159.604768,56 C159.386278,56 159.209231,55.8226987 159.209231,55.6038948 L159.209231,13.7919053 L61.3952321,13.7919053 C61.1767422,13.7919053 61,13.614604 61,13.3958001 C61,13.1769962 61.1767422,13 61.3952321,13 L159.604768,13 C159.823258,13 160,13.1769962 160,13.3958001 L160,55.6038948 C160,55.8226987 159.823258,56 159.604768,56" id="Fill-83" fill="#BDB3CD"></path>
            <path d="M349.498324,55.8699031 C346.946967,55.8699031 344.868333,57.9469434 344.868333,60.5 C344.868333,63.0530566 346.946967,65.1300969 349.498324,65.1300969 C352.053033,65.1300969 354.131667,63.0530566 354.131667,60.5 C354.131667,57.9469434 352.053033,55.8699031 349.498324,55.8699031 Z M349.498324,66 C346.46754,66 344,63.5327604 344,60.5 C344,57.4669044 346.46754,55 349.498324,55 C352.53246,55 355,57.4669044 355,60.5 C355,63.5327604 352.53246,66 349.498324,66 Z" id="Fill-84" fill="#BDB3CD"></path>
            <path d="M348.390074,56 C348.175382,56 348,55.8245338 348,55.6079946 L348,28.3920054 C348,28.1754662 348.175382,28 348.390074,28 L422.606902,28 C422.824618,28 423,28.1754662 423,28.3920054 C423,28.6085446 422.824618,28.7840109 422.606902,28.7840109 L348.783171,28.7840109 L348.783171,55.6079946 C348.783171,55.8245338 348.607789,56 348.390074,56" id="Fill-85" fill="#BDB3CD"></path>
            <path d="M387.501676,146.869903 C384.946967,146.869903 382.871685,148.946943 382.871685,151.5 C382.871685,154.052721 384.946967,156.130097 387.501676,156.130097 C390.053033,156.130097 392.131667,154.052721 392.131667,151.5 C392.131667,148.946943 390.053033,146.869903 387.501676,146.869903 Z M387.501676,157 C384.46754,157 382,154.53276 382,151.5 C382,148.466904 384.46754,146 387.501676,146 C390.53246,146 393,148.466904 393,151.5 C393,154.53276 390.53246,157 387.501676,157 Z" id="Fill-86" fill="#BDB3CD"></path>
            <path d="M476.581699,150 L392.418301,150 C392.184901,150 392,149.776194 392,149.5 C392,149.223806 392.184901,149 392.418301,149 L476.581699,149 C476.812068,149 477,149.223806 477,149.5 C477,149.776194 476.812068,150 476.581699,150" id="Fill-87" fill="#BDB3CD"></path>
            <path d="M470.669186,44 L433.330814,44 C432.042971,44 431,42.9371974 431,41.6254113 L431,15.3745887 C431,14.0628026 432.042971,13 433.330814,13 L470.669186,13 C471.957029,13 473,14.0628026 473,15.3745887 L473,41.6254113 C473,42.9371974 471.957029,44 470.669186,44" id="Fill-88" fill="url(#linearGradient-1)" fill-rule="nonzero"></path>
            <path d="M463,21 C463,23.2092959 461.208,25 458.998609,25 C456.789217,25 455,23.2092959 455,21 C455,18.7907041 456.789217,17 458.998609,17 C461.208,17 463,18.7907041 463,21" id="Fill-89" fill="#CDD9E4"></path>
            <path d="M467,21 C467,23.2092959 465.21016,25 463,25 C460.78984,25 459,23.2092959 459,21 C459,18.7907041 460.78984,17 463,17 C465.21016,17 467,18.7907041 467,21" id="Fill-90" fill="#FFFFFE"></path>
            <path d="M439.365085,18 L433.637571,18 C433.286907,18 433,18.2239616 433,18.4998956 C433,18.7758297 433.286907,19 433.637571,19 L439.365085,19 C439.71575,19 440,18.7758297 440,18.4998956 C440,18.2239616 439.71575,18 439.365085,18" id="Fill-91" fill="#FFFFFE"></path>
            <path d="M449.293268,21 L433.709689,21 C433.31936,21 433,21.2239616 433,21.5001044 C433,21.7758297 433.31936,22 433.709689,22 L449.293268,22 C449.683597,22 450,21.7758297 450,21.5001044 C450,21.2239616 449.683597,21 449.293268,21" id="Fill-92" fill="#FFFFFE"></path>
            <path d="M449,18.4998956 C449,18.2239616 448.71575,18 448.365085,18 L442.637571,18 C442.28425,18 442,18.2239616 442,18.4998956 C442,18.7758297 442.28425,19 442.637571,19 L448.365085,19 C448.71575,19 449,18.7758297 449,18.4998956" id="Fill-93" fill="#FFFFFE"></path>
            <polygon id="Fill-94" fill="#CDD9E4" points="433 38 439 38 439 34 433 34"></polygon>
            <polygon id="Fill-95" fill="#CDD9E4" points="443 38 449 38 449 34 443 34"></polygon>
            <polygon id="Fill-96" fill="#CDD9E4" points="452 38 458 38 458 34 452 34"></polygon>
            <polygon id="Fill-97" fill="#CDD9E4" points="461 38 467 38 467 34 461 34"></polygon>
            <path d="M492.921576,129.010514 C495.885592,129.742801 497.701131,132.75647 496.971139,135.725356 C496.241148,138.693927 493.233081,140.5155 490.272212,139.783212 C487.308196,139.05124 485.492657,136.037256 486.222649,133.06837 C486.95264,130.099799 489.960707,128.278227 492.921576,129.010514 Z M478.976227,134.912965 C479.017132,135.895656 479.171311,136.871408 479.435618,137.81657 L477.686157,139.172973 C477.113491,139.616697 476.968752,140.414582 477.336894,141.032075 L479.067476,143.903196 C479.441911,144.522266 480.215954,144.759739 480.873575,144.459192 L482.871611,143.546198 C483.607896,144.255464 484.429136,144.868857 485.313306,145.377232 L485.033266,147.594909 C484.945164,148.313635 485.401408,148.982849 486.099934,149.15504 L489.350283,149.958601 C490.045663,150.130793 490.763068,149.75235 491.017935,149.073991 L491.769952,147.05405 C492.858646,147.039543 493.9379,146.883751 494.985689,146.592665 L496.285199,148.274845 C496.728858,148.84724 497.524926,148.991995 498.141643,148.623328 L501.00497,146.888482 C501.621687,146.514138 501.860822,145.739276 501.558757,145.080154 L500.696612,143.170278 C501.442336,142.393524 502.087371,141.528781 502.606546,140.586458 L504.601435,140.841907 C505.31884,140.932418 505.985901,140.471979 506.15896,139.773436 L506.958174,136.515671 C507.131232,135.817129 506.753651,135.098402 506.07715,134.844214 L504.220707,134.148194 C504.204975,133.084769 504.047649,132.033013 503.767609,131.014055 L505.309401,129.815021 C505.882066,129.371296 506.026806,128.573728 505.658664,127.955919 L503.931228,125.091736 C503.556793,124.472666 502.785897,124.235193 502.128276,124.53574 L500.403986,125.325109 C499.601625,124.542362 498.701722,123.87441 497.723156,123.331029 L497.965438,121.405384 C498.05354,120.686658 497.597296,120.017444 496.89877,119.844937 L493.648421,119.041376 C492.949895,118.869185 492.235636,119.247943 491.980769,119.926303 L491.301122,121.744091 C490.152644,121.767113 489.016753,121.949081 487.918619,122.285265 L486.713505,120.725448 C486.269846,120.152738 485.473778,120.008299 484.857062,120.376965 L481.993734,122.111812 C481.377017,122.485839 481.137882,123.261017 481.439948,123.919823 L482.298946,125.8174 C481.575248,126.599516 480.958531,127.471197 480.461382,128.41352 L478.400415,128.147348 C477.68301,128.057153 477.015949,128.517276 476.842891,129.215819 L476.04053,132.473899 C475.870618,133.172442 476.2482,133.890853 476.9247,134.145041 L478.976227,134.912965 Z" id="Fill-98" fill="url(#linearGradient-1)" fill-rule="nonzero"></path>
            <path d="M511.402864,156.136925 C509.078073,155.769501 507.485711,153.572973 507.856372,151.246154 C508.224069,148.917555 510.418386,147.323506 512.743177,147.695975 C515.067967,148.063398 516.663295,150.25963 516.289668,152.586746 C515.921972,154.915048 513.727654,156.509097 511.402864,156.136925 Z M522.359624,145.896252 L521.078617,144.131253 C520.684233,143.58724 519.945875,143.426678 519.364678,143.757003 L518.264554,144.373729 C517.600328,143.82289 516.86197,143.368508 516.073202,143.015626 L516.126577,141.721037 C516.153264,141.052373 515.672887,140.46503 515.014592,140.356999 L512.861788,140.015989 C512.200528,139.913004 511.56299,140.316636 511.382107,140.963634 L511.032202,142.206879 C510.148545,142.299477 509.285644,142.511383 508.464258,142.842302 L507.571704,141.870024 C507.115049,141.376169 506.36483,141.300488 505.822181,141.694919 L504.057831,142.985948 C503.512217,143.380082 503.352091,144.119678 503.681239,144.702273 L504.372152,145.929195 C503.868052,146.578568 503.446981,147.286704 503.120798,148.039655 L501.72118,147.982672 C501.051023,147.953884 500.46686,148.435571 500.357144,149.095331 L500.016136,151.250309 C499.91235,151.911553 500.318596,152.550538 500.96503,152.731875 L502.394301,153.133726 C502.486225,153.886678 502.670074,154.623899 502.933985,155.337378 L501.82793,156.355658 C501.335691,156.811524 501.258594,157.560914 501.652978,158.104927 L502.933985,159.870222 C503.328369,160.413938 504.066727,160.5745 504.647925,160.244472 L505.949689,159.514077 C506.563504,160.008822 507.230695,160.429965 507.945331,160.758509 L507.880095,162.278954 C507.853407,162.947618 508.333785,163.534962 508.99208,163.643289 L511.144883,163.984002 C511.806144,164.086988 512.443682,163.683653 512.62753,163.036358 L513.021914,161.630176 C513.858127,161.547965 514.679513,161.358021 515.462351,161.066872 L516.437933,162.124921 C516.894588,162.618777 517.641842,162.694458 518.184491,162.300323 L519.948841,161.019386 C520.491489,160.624954 520.65458,159.885655 520.322468,159.30306 L519.628589,158.074654 C520.153446,157.430624 520.595275,156.722191 520.933318,155.966569 L522.279561,156.021178 C522.949718,156.049966 523.533881,155.568279 523.643597,154.908519 L523.984605,152.753541 C524.085425,152.092297 523.682145,151.453609 523.035711,151.272271 L521.75767,150.913158 C521.677607,150.097584 521.493759,149.300114 521.20909,148.53262 L522.172811,147.648192 C522.673946,147.194996 522.751043,146.440264 522.359624,145.896252 Z" id="Fill-99" fill="url(#linearGradient-1)" fill-rule="nonzero"></path>
            <path d="M489.967605,159.435736 C491.891609,159.934235 493.047241,161.910979 492.549336,163.840893 C492.054504,165.771114 490.081324,166.929247 488.157321,166.430748 C486.230243,165.932249 485.074612,163.955504 485.572517,162.025283 C486.070422,160.095369 488.040528,158.936928 489.967605,159.435736 Z M480.906961,158.813382 C480.2185,158.716948 479.563847,159.154444 479.391731,159.830099 L479.044427,161.175246 C478.869238,161.849668 479.225763,162.549046 479.874269,162.800144 L480.833198,163.172632 C480.848565,163.815629 480.94077,164.449382 481.112885,165.068039 L480.27997,165.699328 C479.723668,166.122036 479.569994,166.887038 479.923445,167.489058 L480.627274,168.686935 C480.980725,169.289263 481.724509,169.528962 482.363795,169.246129 L483.307356,168.828659 C483.783746,169.297273 484.309313,169.704884 484.880982,170.038552 L484.736528,171.088235 C484.64125,171.777138 485.077685,172.433691 485.750779,172.606225 L487.093894,172.954681 C487.766988,173.132453 488.461596,172.773213 488.713622,172.122514 L489.07322,171.182513 C489.786269,171.182821 490.483951,171.090084 491.172413,170.909232 L491.768669,171.696109 C492.189737,172.25253 492.955036,172.407503 493.554366,172.052576 L494.749953,171.346728 C495.349284,170.99211 495.589016,170.248058 495.306255,169.607218 L494.918995,168.725139 C495.4169,168.225407 495.841042,167.668986 496.188346,167.059264 L497.091951,167.186816 C497.780413,167.28325 498.435066,166.845445 498.607181,166.169791 L498.954485,164.824643 C499.132748,164.150529 498.77315,163.450843 498.124644,163.200053 L497.291728,162.875012 C497.285581,162.183952 497.19645,161.494125 497.021261,160.828946 L497.722017,160.300561 C498.275245,159.877854 498.431992,159.113159 498.075468,158.510832 L497.371639,157.312954 C497.018188,156.710935 496.277477,156.470928 495.638191,156.754068 L494.872893,157.090817 C494.356547,156.572908 493.775657,156.129866 493.142519,155.769701 L493.262385,154.911654 C493.360737,154.222751 492.924301,153.566199 492.248134,153.393973 L490.908093,153.045208 C490.234999,152.867745 489.537317,153.226677 489.285291,153.877684 L488.974868,154.683047 C488.228011,154.690749 487.484227,154.801047 486.768104,155.008396 L486.23639,154.300083 C485.815322,153.743354 485.053097,153.58869 484.450693,153.943308 L483.252033,154.653161 C482.649629,155.008088 482.409897,155.75214 482.692658,156.39298 L483.079918,157.269513 C482.6066,157.774482 482.191679,158.333676 481.862816,158.947404 L480.906961,158.813382 Z" id="Fill-100" fill="url(#linearGradient-1)" fill-rule="nonzero"></path>
            <path d="M2.75342613,8 L28.2465739,8 C29.7761203,8 31,9.22667629 31,10.6855544 L31,26.1365879 C31,27.6285954 29.7421573,28.8221423 28.2465739,28.8221423 L10.6731651,28.8221423 L6.69616254,32.7346688 C6.52634771,32.9006117 6.32226668,33 6.08452592,33 C5.60843792,33 5.20057909,32.6352805 5.20057909,32.1380432 L5.20057909,28.8221423 L2.75342613,28.8221423 C1.22387972,28.8221423 0,27.595466 0,26.1365879 L0,10.6855544 C0,9.19354686 1.25784269,8 2.75342613,8" id="Fill-101" fill="#CDD9E4"></path>
            <path d="M51.3585556,0 L17.6414444,0 C15.6185197,0 14,1.71766028 14,3.75995681 L14,25.3913247 C14,27.4800864 15.6635203,29.1512816 17.6414444,29.1512816 L40.8839279,29.1512816 L46.143592,34.6285889 C46.3685947,34.8609144 46.638298,35 46.9530019,35 C47.5824095,35 48.1218161,34.4895033 48.1218161,33.7931462 L48.1218161,29.1512816 L51.3585556,29.1512816 C53.3814803,29.1512816 55,27.4336213 55,25.3913247 L55,3.75995681 C55,1.67119517 53.3367797,0 51.3585556,0" id="Fill-102" fill="url(#linearGradient-1)" fill-rule="nonzero"></path>
            <path d="M24,13.9998647 C24,15.1044978 23.1044978,16 21.9998647,16 C20.8955022,16 20,15.1044978 20,13.9998647 C20,12.8952317 20.8955022,12 21.9998647,12 C23.1044978,12 24,12.8952317 24,13.9998647" id="Fill-103" fill="#FFFFFE"></path>
            <path d="M37,13.9998647 C37,15.1044978 36.1047683,16 35.0001353,16 C33.8955022,16 33,15.1044978 33,13.9998647 C33,12.8952317 33.8955022,12 35.0001353,12 C36.1047683,12 37,12.8952317 37,13.9998647" id="Fill-104" fill="#FFFFFE"></path>
            <path d="M48,13.9998647 C48,15.1044978 47.1047683,16 46.0001353,16 C44.8955022,16 44,15.1044978 44,13.9998647 C44,12.8952317 44.8955022,12 46.0001353,12 C47.1047683,12 48,12.8952317 48,13.9998647" id="Fill-104" fill="#FFFFFE"></path>
        </g>
    </g>
</svg>