<svg xmlns="http://www.w3.org/2000/svg" width="13" height="13" viewBox="0 0 13 13">
    <path fill="#3A9CF2" fill-rule="evenodd" stroke="#3A9CF2" stroke-width=".3" d="M1.453 10.583v.714h7.734V12H1.454a.676.676 0 0 1-.494-.209.676.676 0 0 1-.209-.494v-1.055c0-.198.117-.364.352-.5l.351-.203L4.54 8.078a2.7 2.7 0 0 1-.626-.709 4.67 4.67 0 0 1-.412-.851 4.665 4.665 0 0 1-.225-.852 4.535 4.535 0 0 1-.066-.697V3.21c0-.293.091-.586.275-.879.183-.293.424-.557.725-.791.3-.234.639-.425 1.016-.571.377-.147.76-.22 1.148-.22.388 0 .77.073 1.148.22.377.146.714.337 1.01.571.297.234.54.498.726.791.187.293.28.586.28.879v1.758c0 .212-.022.458-.066.736a4.782 4.782 0 0 1-.22.851c-.102.29-.238.568-.406.835-.169.268-.374.5-.615.698l.934.428-.176.703-1.055-.494a.712.712 0 0 1-.406-.56.807.807 0 0 1 .054-.352.722.722 0 0 1 .21-.285c.38-.293.65-.71.807-1.247.157-.539.236-.976.236-1.313V3.21c0-.19-.073-.388-.22-.593a2.588 2.588 0 0 0-.566-.566 3.298 3.298 0 0 0-.785-.429 2.445 2.445 0 0 0-.89-.17c-.3 0-.597.057-.89.17a3.293 3.293 0 0 0-.79.434 2.528 2.528 0 0 0-.567.572c-.143.205-.214.399-.214.582v1.758c0 .344.086.783.258 1.318.172.535.442.949.808 1.242a.697.697 0 0 1 .264.637.712.712 0 0 1-.406.55l-3.088 1.46a.71.71 0 0 0-.182.11c-.076.059-.115.158-.115.297zm10.195-.692c.096 0 .178.034.248.104.07.07.104.152.104.247a.338.338 0 0 1-.104.247.338.338 0 0 1-.248.105h-1.054v1.054a.338.338 0 0 1-.105.248.338.338 0 0 1-.247.104.338.338 0 0 1-.247-.104.338.338 0 0 1-.104-.248v-1.054H8.836a.338.338 0 0 1-.247-.105.338.338 0 0 1-.105-.247c0-.095.035-.177.105-.247a.338.338 0 0 1 .247-.104H9.89V8.836c0-.095.034-.178.104-.247a.338.338 0 0 1 .247-.105c.095 0 .178.035.247.105.07.07.105.152.105.247V9.89h1.054z"/>
</svg>
