<?xml version="1.0" encoding="UTF-8"?>
<svg width="158px" height="34px" viewBox="0 0 158 34" version="1.1" xmlns="http://www.w3.org/2000/svg" xmlns:xlink="http://www.w3.org/1999/xlink">
    <!-- Generator: Sketch 51.3 (57544) - http://www.bohemiancoding.com/sketch -->
    <title>paystree-logotype</title>
    <desc>Created with Sketch.</desc>
    <defs></defs>
    <g id="Page-1" stroke="none" stroke-width="1" fill="none" fill-rule="evenodd">
        <g id="paystree-logotype">
            <path d="M61.879,7.642 C60.404,7.642 58.959,8.055 57.789,8.732 L57.789,7.895 L54.196,7.895 L54.196,26.497 L57.789,26.497 L57.789,21.109 C58.959,21.775 60.383,22.168 61.879,22.168 C65.796,22.168 69.005,19.244 69.005,14.921 C69.005,10.508 65.795,7.642 61.879,7.642 Z M61.233,18.93 C59.859,18.93 58.646,18.494 57.788,17.739 L57.788,12.094 C58.667,11.338 59.889,10.873 61.233,10.873 C63.645,10.873 65.462,12.609 65.462,14.921 C65.462,17.302 63.645,18.93 61.233,18.93 Z" id="Shape" fill="#000000" fill-rule="nonzero"></path>
            <path d="M80.205,7.895 L80.205,8.782 C79.014,8.077 77.561,7.613 76.085,7.613 C71.685,7.613 69.091,11.134 69.091,14.89 C69.091,18.625 71.684,22.168 76.085,22.168 C77.64,22.168 79.036,21.703 80.205,20.924 L80.205,21.961 L83.801,21.961 L83.801,7.895 L80.205,7.895 Z M80.205,17.737 C79.326,18.494 78.106,18.929 76.732,18.929 C74.196,18.929 72.562,17.019 72.562,14.889 C72.562,12.79 74.167,10.871 76.732,10.871 C78.084,10.871 79.326,11.336 80.205,12.092 L80.205,17.737 Z" id="Shape" fill="#000000" fill-rule="nonzero"></path>
            <path d="M95.363,7.895 L91.74,17.454 L91.485,17.454 L87.779,7.895 L83.997,7.895 L89.484,21.961 L89.798,21.961 C88.995,23.594 87.255,24.088 85.314,24.088 L84.926,24.088 L84.488,26.804 C84.873,26.832 85.29,26.832 85.76,26.832 C88.708,26.832 92.021,25.901 93.267,22.708 L99.067,7.895 L95.363,7.895 Z" id="Shape" fill="#000000" fill-rule="nonzero"></path>
            <path d="M98.043,20.82 C100.12,21.836 101.69,22.168 104.13,22.168 C107.733,22.168 109.777,20.412 109.777,17.738 C109.777,15.174 107.891,14.033 104.624,13.364 C102.372,12.891 101.514,12.537 101.514,11.758 C101.514,11.003 102.21,10.508 103.59,10.508 C104.986,10.508 106.588,10.902 107.967,11.417 L109.155,8.782 C107.63,8.157 105.872,7.642 103.665,7.642 C100.398,7.642 98.304,9.399 98.304,11.942 C98.304,14.659 100.499,15.639 103.534,16.315 C105.712,16.78 106.512,17.144 106.512,17.949 C106.512,18.675 105.872,19.294 104.201,19.294 C102.444,19.294 101.12,18.907 99.394,18.155 L98.043,20.82 Z" id="Shape" fill="#000000" fill-rule="nonzero"></path>
            <path d="M119.451,10.872 L119.451,7.895 L115.514,7.895 L115.514,2.434 L111.897,2.434 L111.897,7.895 L109.894,7.895 L109.894,10.872 L111.897,10.872 L111.897,17.738 C111.897,20.691 113.785,22.168 116.139,22.168 C118.157,22.168 119.246,21.703 119.407,21.648 L119.407,18.959 C118.917,19.013 118.361,19.089 117.753,19.089 C115.937,19.089 115.515,18.363 115.515,15.849 L115.515,10.872 L119.451,10.872 Z" id="Shape" fill="#000000" fill-rule="nonzero"></path>
            <path d="M124.58,7.895 L120.964,7.895 L120.964,21.961 L124.58,21.961 L124.58,15.172 C124.58,13.335 125.567,11.497 128.152,11.497 C128.909,11.497 129.896,11.7 129.896,11.7 L129.896,7.794 C129.606,7.693 129.273,7.642 129.01,7.642 C127.021,7.663 125.537,8.551 124.579,9.864 L124.579,7.895 L124.58,7.895 Z" id="Shape" fill="#000000" fill-rule="nonzero"></path>
            <path d="M143.861,15.95 C143.861,15.719 143.873,15.434 143.873,15.152 C143.873,10.772 141.362,7.642 137.047,7.642 C132.791,7.642 129.842,10.872 129.842,14.92 C129.842,18.93 132.791,22.168 137.047,22.168 C139.794,22.168 142.089,21.031 143.396,19.27 L141.086,17.353 C140.301,18.413 138.935,19.09 137.454,19.09 C135.302,19.09 133.837,17.791 133.442,15.951 L143.861,15.951 L143.861,15.95 Z M137.047,10.508 C139.443,10.508 140.301,12.043 140.432,13.649 L133.474,13.649 C133.809,11.912 135.159,10.508 137.047,10.508 Z" id="Shape" fill="#000000" fill-rule="nonzero"></path>
            <path d="M157.973,15.95 C157.973,15.719 158,15.434 158,15.152 C158,10.772 155.487,7.642 151.174,7.642 C146.917,7.642 143.969,10.872 143.969,14.92 C143.969,18.93 146.917,22.168 151.174,22.168 C153.921,22.168 156.215,21.031 157.508,19.27 L155.213,17.353 C154.427,18.413 153.063,19.09 151.58,19.09 C149.43,19.09 147.965,17.791 147.571,15.951 L157.973,15.951 L157.973,15.95 Z M151.174,10.508 C153.587,10.508 154.427,12.043 154.559,13.649 L147.601,13.649 C147.936,11.912 149.286,10.508 151.174,10.508 Z" id="Shape" fill="#000000" fill-rule="nonzero"></path>
            <path d="M10.684,7.443 L10.684,0 L27.847,0 C35.935,0 42.5,6.566 42.5,14.655 C42.5,22.735 35.934,29.31 27.846,29.31 L19.836,29.31 L19.836,33.883 L10.683,33.883 L10.683,30.699 L10.724,30.643 L0,19.918 L1.62,18.297 L10.684,27.361 L10.684,24.054 L10.725,24.011 L2.287,15.568 L3.907,13.947 L10.684,20.717 L10.684,17.417 L10.725,17.369 L4.58,11.217 L6.2,9.597 L10.684,14.081 L10.684,10.773 L10.725,10.724 L6.867,6.867 L8.487,5.247 L10.684,7.443 Z M26.704,7.78 L19.836,7.78 L19.836,18.297 L10.724,27.401 L12.344,29.021 L19.852,21.517 L26.704,21.517 C30.492,21.517 33.569,18.442 33.569,14.654 C33.569,10.866 30.493,7.78 26.704,7.78 Z M10.725,20.77 L12.345,22.39 L19.172,15.569 C18.629,15.026 18.087,14.49 17.552,13.948 L10.725,20.77 Z M10.725,14.129 L12.345,15.748 L16.878,11.217 C16.343,10.675 15.8,10.14 15.258,9.597 L10.725,14.129 Z M10.725,7.493 L12.345,9.113 L14.59,6.867 C14.048,6.325 13.506,5.79 12.971,5.247 L10.725,7.493 Z" id="Shape" fill="#3A9CF2"></path>
        </g>
    </g>
</svg>