<svg xmlns="http://www.w3.org/2000/svg" width="13" height="12" viewBox="0 0 13 12">
    <path fill="#FFF" fill-rule="evenodd" stroke="#FFF" stroke-width=".3" d="M6.5 1.375a2.39 2.39 0 0 0-.87.167 3.22 3.22 0 0 0-.774.424c-.229.172-.413.358-.553.558-.14.2-.21.39-.21.57v1.719c0 .336.085.766.253 1.289.168.522.432.927.79 1.213a.682.682 0 0 1 .258.623.801.801 0 0 1-.135.317.655.655 0 0 1-.263.22l-3.018 1.43a.752.752 0 0 0-.178.101c-.075.054-.113.153-.113.296V11l9.615-.01v-.667c0-.186-.045-.302-.135-.349a1.123 1.123 0 0 0-.145-.07L8.025 8.486a.696.696 0 0 1-.349-.897.662.662 0 0 1 .21-.274c.372-.286.635-.692.79-1.219.153-.526.23-.954.23-1.284V3.095c0-.186-.071-.38-.215-.58a2.53 2.53 0 0 0-.553-.554 3.194 3.194 0 0 0-.773-.418 2.406 2.406 0 0 0-.865-.167zm0-.688c.38 0 .754.072 1.123.215.368.144.698.33.988.559.29.23.526.487.709.773.182.287.274.573.274.86v1.719c0 .207-.022.447-.065.72-.043.271-.114.549-.215.832-.1.283-.232.555-.397.816a2.636 2.636 0 0 1-.602.672l2.998 1.428.338.188c.225.126.338.288.338.489V11a.652.652 0 0 1-.198.478.652.652 0 0 1-.478.199H1.688a.664.664 0 0 1-.49-.199A.652.652 0 0 1 1 11V9.958c0-.186.115-.346.344-.478l.344-.199 3.018-1.428a2.607 2.607 0 0 1-.612-.699 4.804 4.804 0 0 1-.403-.832 4.437 4.437 0 0 1-.22-.827 4.434 4.434 0 0 1-.065-.683V3.095c0-.287.09-.573.269-.86.179-.286.413-.544.703-.773.29-.23.622-.415.994-.559A3.12 3.12 0 0 1 6.5.687z"/>
</svg>
