<svg xmlns="http://www.w3.org/2000/svg" viewBox="0 0 95.32 105.69">
  <defs>
    <style>
      .cls-1 {
        fill: #fff;
      }
    </style>
  </defs>
  <g id="Group_162" data-name="Group 162" transform="translate(0.24 0.014)">
    <g id="Group_129" data-name="Group 129" transform="translate(54.673 16.844)">
      <g id="Group_128" data-name="Group 128">
        <g id="Group_127" data-name="Group 127">
          <circle id="Ellipse_36" data-name="Ellipse 36" cx="2.037" cy="2.037" r="2.037" transform="translate(0.926 0.78)"/>
          <g id="Group_126" data-name="Group 126">
            <path id="Path_69" data-name="Path 69" class="cls-1" d="M150.926,45.5A3.061,3.061,0,0,0,148,48.422a2.722,2.722,0,0,0,2.852,2.667,3.051,3.051,0,0,0,3.038-2.7,2.761,2.761,0,0,0-2.7-2.889c-1-.037-1.63,1.482-.407,1.556a1.386,1.386,0,0,1,1.334,1.185,1.1,1.1,0,0,1-1.037,1.334A1.265,1.265,0,0,1,151,47.051.782.782,0,1,0,150.926,45.5Z" transform="translate(-148 -45.493)"/>
          </g>
        </g>
      </g>
    </g>
    <g id="Group_133" data-name="Group 133" transform="translate(34.335 17.027)">
      <g id="Group_132" data-name="Group 132">
        <g id="Group_131" data-name="Group 131">
          <circle id="Ellipse_37" data-name="Ellipse 37" cx="2.037" cy="2.037" r="2.037" transform="translate(0.89 0.597)"/>
          <g id="Group_130" data-name="Group 130">
            <path id="Path_70" data-name="Path 70" class="cls-1" d="M96.136,46.029A3.05,3.05,0,0,0,93.1,48.7a2.536,2.536,0,0,0,2.7,2.482A3.15,3.15,0,0,0,98.952,48.7a2.5,2.5,0,0,0-2.593-2.7,1.331,1.331,0,0,0-1.185.519c-.185.37.148.556.519.593a1.611,1.611,0,0,1,1.445,1.3c.111.593-.111,1.667-.889,1.667-1.482,0-1.926-2.889-.333-2.963C96.84,47.066,97.359,45.955,96.136,46.029Z" transform="translate(-93.098 -45.987)"/>
          </g>
        </g>
      </g>
    </g>
    <g id="Group_137" data-name="Group 137" transform="translate(-0.241 -0.014)">
      <g id="Group_136" data-name="Group 136" transform="translate(0)">
        <g id="Group_135" data-name="Group 135">
          <path id="Path_71" data-name="Path 71" d="M93.116,62.825a16.363,16.363,0,0,0,2.63-8.742A14.088,14.088,0,0,0,90.6,43.155a14.138,14.138,0,0,0,1.074-5.334,15.119,15.119,0,0,0-8.224-13.41,12.2,12.2,0,0,0-9.261-13.3C71.853,5.7,66.63,2,61.147,2A14.36,14.36,0,0,0,48.923,9.335,14.36,14.36,0,0,0,36.7,2c-5.482,0-10.706,3.7-13.039,9.113a12.19,12.19,0,0,0-9.261,13.3,15.119,15.119,0,0,0-8.224,13.41,14,14,0,0,0,1.074,5.334A14.144,14.144,0,0,0,2.1,54.083a16.363,16.363,0,0,0,2.63,8.742A14.05,14.05,0,0,0,6.36,81.088c-1.408,8.446,5.334,17,14.076,17h.185A16.307,16.307,0,0,0,34.7,106.24,16.455,16.455,0,0,0,48.96,97.387a16.067,16.067,0,0,0,28.338.7h.185c7.742,0,14.262-6.816,14.262-14.854a14.431,14.431,0,0,0-.185-2.149,14.193,14.193,0,0,0,4.26-10.076A14.808,14.808,0,0,0,93.116,62.825ZM46.885,32.783a8,8,0,0,0-4.075-1.111,2.037,2.037,0,1,0,0,4.075,4.063,4.063,0,0,1,4.075,4.075v38.71a16.354,16.354,0,0,0-12.224-5.519,2.037,2.037,0,0,0,0,4.075A12.236,12.236,0,0,1,46.885,89.311c0,6.964-5.594,12.817-12.224,12.817a12.211,12.211,0,0,1-11.039-7.112,2.043,2.043,0,0,0-2.074-1.148c-.148,0-.3.037-.445.037-5.779.778-12.335-5.779-10.557-13.113a2.022,2.022,0,0,0-.667-2.037,10.108,10.108,0,0,1-3.7-7.779,9.942,9.942,0,0,1,1.482-5.223,13.727,13.727,0,0,0,8.668,3.186,2.037,2.037,0,0,0,0-4.075c-5.519,0-10.187-5.038-10.187-10.78a10.176,10.176,0,0,1,4.742-8.594,2.023,2.023,0,0,0,.667-2.741,10.163,10.163,0,0,1-1.371-5c0-5.482,4.482-10.78,10.187-10.78,5.482.037,10.224,5.112,10.224,10.854a2.037,2.037,0,0,0,4.075,0c0-8.038-6.52-14.854-14.262-14.854a12.57,12.57,0,0,0-2.037.148v-.148A8.172,8.172,0,0,1,32.29,17.188,2.043,2.043,0,0,0,35.18,14.3a12.316,12.316,0,0,0-6.742-3.445,10.241,10.241,0,0,1,8.3-4.816c5.408,0,10.187,5.038,10.187,10.78V32.783Zm34.6,36.191a13.574,13.574,0,0,0,8.668-3.186,9.993,9.993,0,0,1-2.223,13,2.022,2.022,0,0,0-.667,2.037A9.825,9.825,0,0,1,87.6,83.2c0,6.334-5.7,11.409-10.854,10.706a1.8,1.8,0,0,0-.445-.037,2.014,2.014,0,0,0-2.074,1.148,12.274,12.274,0,0,1-11.039,7.112c-6.631,0-12.224-5.89-12.224-12.817A12.236,12.236,0,0,1,63.185,77.087a2.037,2.037,0,1,0,0-4.075A16.354,16.354,0,0,0,50.96,78.532V39.858a4.063,4.063,0,0,1,4.075-4.075,2.037,2.037,0,1,0,0-4.075A8,8,0,0,0,50.96,32.82V16.854c0-5.742,4.742-10.78,10.187-10.78a10.3,10.3,0,0,1,8.3,4.816A12.193,12.193,0,0,0,62.7,14.335a2.046,2.046,0,0,0,0,2.889,2.08,2.08,0,0,0,2.889,0,8.063,8.063,0,0,1,5.779-2.371A8.15,8.15,0,0,1,79.521,23v.148A12.273,12.273,0,0,0,77.483,23c-7.742,0-14.262,6.816-14.262,14.854a2.037,2.037,0,1,0,4.075,0c0-5.742,4.742-10.78,10.187-10.78,5.7,0,10.187,5.3,10.187,10.78a9.984,9.984,0,0,1-1.371,5,2.105,2.105,0,0,0,.667,2.741,10.176,10.176,0,0,1,4.742,8.594c0,5.779-4.667,10.78-10.187,10.78a2.055,2.055,0,0,0-2.037,2.037A1.961,1.961,0,0,0,81.484,68.974Z" transform="translate(-1.233 -1.254)"/>
          <g id="Group_134" data-name="Group 134">
            <path id="Path_72" data-name="Path 72" class="cls-1" d="M92.42,62.076a15.7,15.7,0,0,0-2.778-20.559,5.7,5.7,0,0,1,.3.7,15.9,15.9,0,0,0-7.631-19.633c.185.3.333.593.519.852A13.462,13.462,0,0,0,72.6,9.067c.3.222.593.445.889.7C71.194,4.7,66.49.658,60.822.065A14.9,14.9,0,0,0,46.634,7.548c.482.111.963.185,1.445.3C42.93-.675,31.409-2.75,24.371,4.733a15.989,15.989,0,0,0-2.149,2.852,5.059,5.059,0,0,1-1.111,1.667,17.236,17.236,0,0,1-1.926.741,12.557,12.557,0,0,0-5,4.223A12.391,12.391,0,0,0,11.962,20.7a9.892,9.892,0,0,1,0,1.482c-.148.667-.556.741-1.148,1.111a15.5,15.5,0,0,0-5.89,18.6c.037-.222.074-.407.111-.63-6.112,5.26-6.779,13.817-2.556,20.485-.037-.222-.074-.482-.111-.7A14.963,14.963,0,0,0,4.257,80.153a5.7,5.7,0,0,1-.3-.7c-1.334,9.113,6,18.225,15.41,18.077-.333-.185-.667-.333-1-.519a17.736,17.736,0,0,0,15.077,8.668A17.1,17.1,0,0,0,48.153,96.6c-.519-.148-1.037-.333-1.556-.482a18.246,18.246,0,0,0,11.928,9.187,16.891,16.891,0,0,0,15.336-4.593c.852-.852,1.445-2.186,2.334-2.926.259-.222.037-.111.519-.259a9.082,9.082,0,0,1,1-.074,16.829,16.829,0,0,0,1.889-.333,14.418,14.418,0,0,0,6.483-3.593,15.606,15.606,0,0,0,3.964-6,15.894,15.894,0,0,0,.889-3.7c.111-1.148-.3-2.889.185-3.89.333-.667,1.111-1.3,1.519-1.926A17.653,17.653,0,0,0,93.9,75.671a14.844,14.844,0,0,0,1.148-4.7,15.243,15.243,0,0,0-2.741-9.594c-.482-.741-2.037-.593-1.371.407a13.68,13.68,0,0,1-.7,16.447c-.889,1.074-1.111.963-.963,2.26a12.916,12.916,0,0,1-.185,3.964A14.971,14.971,0,0,1,86.308,90.6a14.2,14.2,0,0,1-5.223,4.26A13.645,13.645,0,0,1,77.936,95.9c-.778.148-2.149-.074-2.815.3-.63.37-1.222,1.815-1.7,2.371a14.981,14.981,0,0,1-3.112,2.815,15.68,15.68,0,0,1-7.261,2.741,15.213,15.213,0,0,1-14.817-8.075c-.222-.407-1.185-1.148-1.556-.482a16.353,16.353,0,0,1-11.706,8.483,15.114,15.114,0,0,1-14.225-6.075c-.445-.63-.778-1.593-1.593-1.852a23.209,23.209,0,0,0-2.852-.3,12.933,12.933,0,0,1-6.483-3.482A14.528,14.528,0,0,1,6.146,86.3a14.3,14.3,0,0,1-.593-3.334c-.037-.889.407-2.408.111-3.223-.148-.445-.7-.815-1-1.148a13.591,13.591,0,0,1-1.556-2.26A13.2,13.2,0,0,1,1.627,71.93a13.833,13.833,0,0,1,2.408-9.891.632.632,0,0,0-.111-.7A14.433,14.433,0,0,1,6.442,42.48a.513.513,0,0,0,.111-.63,14.57,14.57,0,0,1,7-18.114c.148-.074.185-.3.185-.445a11.818,11.818,0,0,1,4.112-10.335,12.333,12.333,0,0,1,2.482-1.593c.667-.333,2-.445,2.519-.926a9.238,9.238,0,0,0,1.111-2.074,15.656,15.656,0,0,1,1.889-2.482A13.32,13.32,0,0,1,36.521,1.473,13.392,13.392,0,0,1,46.745,8.252c.222.37,1.148.815,1.445.3,4.445-7.372,14.225-9.631,20.633-3.26a15.968,15.968,0,0,1,1.889,2.3c.482.7.778,1.741,1.3,2.408.445.556,1.148.593,1.815.815a10.686,10.686,0,0,1,2.519,1.259,11.327,11.327,0,0,1,4.779,10.706.942.942,0,0,0,.519.852,14.223,14.223,0,0,1,6.631,17.892.83.83,0,0,0,.3.7c5.594,4.816,6.149,12.706,2.3,18.781C90.42,61.78,91.975,62.78,92.42,62.076Z" transform="translate(0.241 0.014)"/>
            <path id="Path_73" data-name="Path 73" class="cls-1" d="M52.652,38.04c-1.926-1-6.483-2.63-7.223.667a2.925,2.925,0,0,0,1,2.778c1.334,1.185,3.371.482,4.445,2.037,1.185,1.667.556,5.26.556,7.112V84.159c.445-.074.926-.148,1.371-.185a18.13,18.13,0,0,0-9.3-5.482c-2.149-.482-7.26-1-6.223,2.852a3.324,3.324,0,0,0,2.408,2.223c1.852.445,3.519.259,5.334,1.111a11.236,11.236,0,0,1,6.3,8.779c1,7.964-6.483,15.669-14.558,13.373a11.239,11.239,0,0,1-5.371-3.445c-1-1.148-1.445-2.926-2.7-3.853-1.222-.852-2.445-.407-3.815-.482a8.313,8.313,0,0,1-5.3-2.519,10.125,10.125,0,0,1-3-6.038c-.222-1.667.7-3.7.037-5.26a7.07,7.07,0,0,0-1.63-1.852A9.291,9.291,0,0,1,13.83,72.008c-.445-.037-.889-.074-1.3-.148a16.577,16.577,0,0,0,5.26,2.889c1.519.482,4,1.185,5.519.37a2.578,2.578,0,0,0,1.074-3.371c-.741-1.63-2.26-1.741-3.815-1.926-4.593-.519-7.927-4.853-8.112-9.335A9.725,9.725,0,0,1,14.349,54.3c1.111-1.519,3.815-2.482,3.778-4.593a4.1,4.1,0,0,0-.63-1.815,10.064,10.064,0,0,1-1-4.519,10.531,10.531,0,0,1,2.111-5.853c2.741-3.778,7.853-5.334,11.928-2.741a10.051,10.051,0,0,1,3.89,4.779,11.157,11.157,0,0,1,.7,3.3A3.656,3.656,0,0,0,35.76,45a3.192,3.192,0,0,0,3.445,1.148c1.778-.63,1.778-2.408,1.63-4-.889-8.446-8.779-15.114-17.336-14,.37.3.778.593,1.148.889a7.672,7.672,0,0,1,5.112-7.3,7.177,7.177,0,0,1,5.853.445c1.222.667,2.074,1.963,3.519,2.111a2.585,2.585,0,0,0,2.445-4C40.02,17.851,36.427,16.48,33.76,16l.889,1.222c3.334-4.7,9.594-6.334,13.928-1.889C50.948,17.74,51.5,20.74,51.5,23.963V38.484c0,.778,1.667,1.371,1.667.333,0-5.3.111-10.631,0-15.929a12.2,12.2,0,0,0-6.7-10.594c-4.964-2.556-10.335-.519-13.41,3.853-.37.519.445,1.148.889,1.222a10.915,10.915,0,0,1,5.223,2.3c.852.741,1.741,1.741.667,2.7-.963.889-1.741.037-2.482-.556a9.17,9.17,0,0,0-6.742-1.889A8.684,8.684,0,0,0,22.943,28.7a1.121,1.121,0,0,0,1.148.889,13.546,13.546,0,0,1,15.114,13.3c0,.259-.037.556-.037.815-.407,1.259-1.185,1.259-2.334.037a4.947,4.947,0,0,1-.037-1.037,10.9,10.9,0,0,0-.445-2.186A12.438,12.438,0,0,0,33.8,36a11.388,11.388,0,0,0-7.3-3.89c-6.594-.667-12.113,5.519-11.669,11.928a11.325,11.325,0,0,0,.556,2.7c.37,1.074,1.408,2.26.778,3.408-.407.741-1.593,1.259-2.223,1.852a9.94,9.94,0,0,0-1.482,1.778,10.972,10.972,0,0,0-1.111,9.594,12.129,12.129,0,0,0,6.89,7.261,9.884,9.884,0,0,0,2.111.593,11.718,11.718,0,0,1,1.185.111c2,.852,1.408,2.371-.111,2.63-2.593.482-5.89-1.334-7.853-2.852-.3-.222-1.037-.63-1.3-.148a10.729,10.729,0,0,0-.185,10.706,14.96,14.96,0,0,0,1.408,2,12.378,12.378,0,0,1,1.222,1.185c.63.963.3,1.519.148,2.408a11.44,11.44,0,0,0,.482,5,12.416,12.416,0,0,0,6.223,7.112,10.117,10.117,0,0,0,3.89,1.037c1.259.037,2-.3,2.963.852.667.778,1.074,1.815,1.778,2.63,4.593,5.3,12.78,6.334,18.188,1.63A13.46,13.46,0,0,0,50.17,87.085c-2.482-3.038-5.519-4.149-9.187-4.927-.741-.148-2.334.3-2.074-1.482.148-1.074,1.259-1.148,2.074-1.185a12.621,12.621,0,0,1,4.186.741,15.379,15.379,0,0,1,6.594,4.408c.37.407,1.371.556,1.371-.185V46.671a6.009,6.009,0,0,0-.593-3.112,5.281,5.281,0,0,0-2.963-2.482c-.926-.333-3.149-.593-2.223-2.149.889-1.519,3.445-.482,4.593.111C52.948,39.632,53.652,38.6,52.652,38.04Z" transform="translate(-6.666 -7.029)"/>
            <path id="Path_74" data-name="Path 74" class="cls-1" d="M163.29,75.442a14.865,14.865,0,0,0,9.039-3.3c-.445-.148-.889-.3-1.334-.407a9.358,9.358,0,0,1,1.074,6.89c-.519,2.334-1.815,3.778-3.408,5.445-1.222,1.3-.556,2.63-.445,4.223a10.176,10.176,0,0,1-1.667,6.112,10.74,10.74,0,0,1-3.741,3.556,9.145,9.145,0,0,1-5.223,1c-1.63-.037-2.26.741-3.038,2.111a12.222,12.222,0,0,1-4.038,4.334c-7.557,4.89-16.892-.926-17.262-9.557A11.83,11.83,0,0,1,142.138,84c1.482-.37,3.63.074,4.742-1.222a2.665,2.665,0,0,0-.111-3.556c-1.111-1.259-2.7-1.185-4.223-1a17.318,17.318,0,0,0-10.891,5.668c.556.222,1.074.445,1.63.667V52.067c0-2.074-.148-4.186,0-6.26a3.851,3.851,0,0,1,1.185-2.593c.963-.889,1.889-.667,3-1a2.536,2.536,0,0,0,1.852-2.963c-.741-3.556-5.334-2.445-7.557-1.259.519.259,1,.519,1.519.778V24.248c0-3.149.63-6.038,2.815-8.483,4.186-4.593,10.631-3.853,14.114,1.111.074-.3.111-.593.185-.889-2.408.445-6.52,1.852-7.52,4.408-.7,1.852.926,3.778,2.778,3.927,1.3.074,1.963-.741,2.889-1.445a7.541,7.541,0,0,1,5.445-1.445,7.091,7.091,0,0,1,6.075,7.149,6.907,6.907,0,0,0,.741-.37,15.058,15.058,0,0,0-16.077,9.816c-.889,2.371-2.111,6.7.889,8.075a2.823,2.823,0,0,0,3.334-.63c1-1.222.63-3.519,1.185-5,1.3-3.593,4.63-6.631,8.557-6.89,4.445-.259,8.187,3.26,9.224,7.409a9.894,9.894,0,0,1-.667,6.52c-.63,1.408-1,2.556.185,3.815.63.667,1.482,1.074,2.149,1.741a9.866,9.866,0,0,1,1.889,2.7,9.682,9.682,0,0,1,.556,6.371,10.768,10.768,0,0,1-3.408,5.557A10.5,10.5,0,0,1,162.7,70c-3.7.482-2.963,5.112.407,5.519,1.185.148.667-1.3-.185-1.408-2.26-.259-.741-2.186-.037-2.482a3.809,3.809,0,0,1,1.445-.222,10.252,10.252,0,0,0,1.852-.37,10.6,10.6,0,0,0,3.927-2.223,11.506,11.506,0,0,0,3.89-8,11.067,11.067,0,0,0-2.963-8.075c-.556-.593-1.222-1.037-1.815-1.593-1.259-1.148-.667-1.889-.111-3.223a10.47,10.47,0,0,0,.778-5.112c-.556-5.779-5.816-11-11.78-10.668a10.6,10.6,0,0,0-7.261,3.63,11.934,11.934,0,0,0-2.186,3.519,10.838,10.838,0,0,0-.667,2.445c-.111.815.111,2.371-.7,2.852-2.111,1.259-1.778-1.593-1.741-2.186.037-.519.148-1,.222-1.519a13.507,13.507,0,0,1,.852-2.7,15.164,15.164,0,0,1,3.223-4.742,13.275,13.275,0,0,1,11.15-3.815c.259.037.741,0,.741-.37a9.289,9.289,0,0,0-7.816-9.261,9.072,9.072,0,0,0-7.149,1.963,7.407,7.407,0,0,1-.815.7c-1.482-.037-1.963-.593-1.371-1.667a6.318,6.318,0,0,1,2.037-1.778,12.813,12.813,0,0,1,4.742-1.852c.445-.074.37-.63.185-.889-3-4.223-8.261-6.7-13.262-4.482a11.681,11.681,0,0,0-6.742,10.52c-.074,5.3,0,10.594,0,15.929,0,.63,1,1.074,1.519.778a10.649,10.649,0,0,1,1.482-.667c1.148-.37,1.445-.482,2.334.37s.889,1.222-.259,1.7a4.2,4.2,0,0,1-1.148.222,4.8,4.8,0,0,0-3.112,1.926,5.263,5.263,0,0,0-.778,3.149c-.037,2.519,0,5,0,7.52V84.147a1.033,1.033,0,0,0,1.63.667,16.307,16.307,0,0,1,5.668-4.075,18.193,18.193,0,0,1,2.741-.889c.519-.111,1.037-.185,1.556-.259.407-.037.778-.074,1.185-.074,1.556.63,1.852,1.371.889,2.26-.63.519-1.852.37-2.63.482a13.358,13.358,0,0,0-2.408.556,13.05,13.05,0,0,0-4.334,2.519c-5.223,4.63-5.557,12.632-1.334,18.04a13.026,13.026,0,0,0,17.744,2.926,12.9,12.9,0,0,0,3.7-4.038c.778-1.334,1-1.778,2.778-1.815a14.405,14.405,0,0,0,2.186-.111A11.441,11.441,0,0,0,169.921,89.3c0-1-.556-2.334-.333-3.3.259-1,1.556-1.778,2.186-2.593a10.793,10.793,0,0,0,.556-12.113c-.222-.37-.963-.741-1.334-.407A13.772,13.772,0,0,1,162.66,74C161.512,74.034,162.475,75.479,163.29,75.442Z" transform="translate(-82.706 -7.018)"/>
          </g>
        </g>
      </g>
    </g>
    <g id="Group_141" data-name="Group 141" transform="translate(16.016 34.101)">
      <g id="Group_140" data-name="Group 140">
        <g id="Group_139" data-name="Group 139">
          <path id="Path_75" data-name="Path 75" d="M69.93,102.979a2.014,2.014,0,0,0-2.889-.148,10.211,10.211,0,0,1-16.966-7.594,2.037,2.037,0,0,0-4.075,0,14.3,14.3,0,0,0,11.928,14.076,6.1,6.1,0,0,1-5.816,4.26,2.037,2.037,0,1,0,0,4.075,10.181,10.181,0,0,0,10-8.261,14.228,14.228,0,0,0,7.631-3.519A2.053,2.053,0,0,0,69.93,102.979Z" transform="translate(-45.127 -92.786)"/>
          <g id="Group_138" data-name="Group 138">
            <path id="Path_76" data-name="Path 76" class="cls-1" d="M69.3,101.979c-2.223-1.963-4.26.259-6.149,1.334a8.806,8.806,0,0,1-9.076-.593,9.856,9.856,0,0,1-4.408-6.631c-.222-1.185.111-2.63-.963-3.482a3.2,3.2,0,0,0-2.889-.333c-3.038.926-2.223,4.408-1.482,6.742a14.541,14.541,0,0,0,5.334,7.335,14.715,14.715,0,0,0,3.63,1.889c.519.185,2,.333,2.111.889.185.741-1.482,2.149-2,2.519-1.408.963-7.149.741-5.482,4.26,1.222,2.593,5.853.926,7.705.037a10.988,10.988,0,0,0,5.927-7.52c-.333.148-.7.333-1.037.482,2.482-.37,11.632-3.038,8.89-6.964-.333-.482-1.963.222-1.815.445,2.334,3.3-4.593,5.482-6.742,5.816-.259.037-1,.185-1.037.482a10.244,10.244,0,0,1-3.038,5.482c-1.334,1.222-6.816,4.149-7.186.63-.185-1.926,3.3-1.963,4.63-2.667a6.833,6.833,0,0,0,3.186-3.778c.037-.111-.037-.185-.148-.222A14.164,14.164,0,0,1,46.406,99.2a12.138,12.138,0,0,1-.778-3.186,7.481,7.481,0,0,1-.111-1.815,1.078,1.078,0,0,1,2.074-.445c.445.889.222,2.149.445,3.149a9.813,9.813,0,0,0,1.074,2.778,10.689,10.689,0,0,0,8.15,5.26,11.629,11.629,0,0,0,4.927-.519c1.334-.445,4.445-2.889,5.519-1.926C67.965,102.9,69.6,102.238,69.3,101.979Z" transform="translate(-43.644 -92.081)"/>
          </g>
        </g>
      </g>
    </g>
    <g id="Group_145" data-name="Group 145" transform="translate(16.024 79.559)">
      <g id="Group_144" data-name="Group 144">
        <g id="Group_143" data-name="Group 143">
          <path id="Path_77" data-name="Path 77" d="M48.037,215.7a2.037,2.037,0,0,0,0,4.075c5.408,0,10.187,5.038,10.187,10.78a2.037,2.037,0,1,0,4.075,0C62.3,222.516,55.779,215.7,48.037,215.7Z" transform="translate(-45.135 -215.365)"/>
          <g id="Group_142" data-name="Group 142">
            <path id="Path_78" data-name="Path 78" class="cls-1" d="M45.864,214.8c-1.63.185-2.815,1.741-1.852,3.3.741,1.222,2.26,1.408,3.556,1.519a8.977,8.977,0,0,1,6.631,4.445,12.261,12.261,0,0,1,1.259,2.741c.333,1.148.222,2.334.482,3.482.741,2.926,5.853,2.926,5.779-.482a15.459,15.459,0,0,0-4.63-10.446,16.189,16.189,0,0,0-11.076-4.519c-.852,0,.778.7,1.148.741a12.911,12.911,0,0,1,10.891,7.038,15.193,15.193,0,0,1,1.815,5.668c.111.963.333,2.445-.63,3.075-1.593,1.111-1.556-1.445-1.667-2.3a11.5,11.5,0,0,0-5.26-8.224,11.965,11.965,0,0,0-3.964-1.63c-.852-.185-2.186,0-2.741-.852-.815-1.259.482-2.63,1.667-2.778C47.753,215.464,46.271,214.761,45.864,214.8Z" transform="translate(-43.666 -214.796)"/>
          </g>
        </g>
      </g>
    </g>
    <g id="Group_149" data-name="Group 149" transform="translate(18.296 62.779)">
      <g id="Group_148" data-name="Group 148">
        <g id="Group_147" data-name="Group 147">
          <path id="Path_79" data-name="Path 79" d="M67.974,171.8a18.241,18.241,0,0,0-15.929,9.3,2.04,2.04,0,1,0,3.556,2,14.22,14.22,0,0,1,12.41-7.223,2.055,2.055,0,0,0,2.037-2.037A2.088,2.088,0,0,0,67.974,171.8Z" transform="translate(-51.045 -170.947)"/>
          <g id="Group_146" data-name="Group 146">
            <path id="Path_80" data-name="Path 80" class="cls-1" d="M66.432,169.5a19.031,19.031,0,0,0-13.41,5.7c-1.259,1.3-3.223,3.3-3.223,5.223a3.091,3.091,0,0,0,3.149,3.112c2.074-.148,3.186-3.186,4.556-4.519a13.59,13.59,0,0,1,7.261-3.556c1.815-.3,4.186.111,4.667-2.26a3.156,3.156,0,0,0-2.852-3.667c-1.037-.111-.556,1.63.259,1.7.3.593.556,1.185.852,1.778-.259.185-.556.37-.815.519a3.992,3.992,0,0,1-1.334.074,15.235,15.235,0,0,0-2.223.3,14.793,14.793,0,0,0-3.927,1.482,14.528,14.528,0,0,0-3.3,2.482,17.817,17.817,0,0,0-1.556,1.778c-.407.593-.926,1.889-1.667,2.037-.482.333-.778.037-.778-.815-.519-.407-.63-.815-.333-1.185a3.387,3.387,0,0,1,.593-.889,23.171,23.171,0,0,1,1.482-1.852,17.691,17.691,0,0,1,13.15-5.742C67.951,171.166,67.247,169.462,66.432,169.5Z" transform="translate(-49.8 -169.498)"/>
          </g>
        </g>
      </g>
    </g>
    <g id="Group_153" data-name="Group 153" transform="translate(52.984 33.759)">
      <g id="Group_152" data-name="Group 152">
        <g id="Group_151" data-name="Group 151">
          <path id="Path_81" data-name="Path 81" d="M163.247,113.474a6.07,6.07,0,0,1-5.816-4.26,14.3,14.3,0,0,0,11.928-14.076,2.037,2.037,0,1,0-4.075,0,10.179,10.179,0,0,1-16.966,7.594,2.046,2.046,0,1,0-2.741,3.038,14.228,14.228,0,0,0,7.631,3.519,10.181,10.181,0,0,0,10,8.261,2.055,2.055,0,0,0,2.037-2.037A2,2,0,0,0,163.247,113.474Z" transform="translate(-144.37 -92.381)"/>
          <g id="Group_150" data-name="Group 150">
            <path id="Path_82" data-name="Path 82" class="cls-1" d="M161.873,111.51a6.161,6.161,0,0,1-2.445-.519c-.7-.333-2.778-1.7-1.63-2.371a11.441,11.441,0,0,1,1.7-.482,14.353,14.353,0,0,0,2.037-.926,14.117,14.117,0,0,0,5.3-5.038c1.63-2.63,4.038-8.89.074-10.78a2.187,2.187,0,0,0-2.519.37c-.852.852-.593,2.149-.778,3.26a10,10,0,0,1-4.075,6.446,10.167,10.167,0,0,1-7.557,1.741,10.426,10.426,0,0,1-4.63-2.149,2.644,2.644,0,0,0-2.223-.778c-2.593.482-1.741,3.408-.482,4.7a14.234,14.234,0,0,0,8.112,3.853c-.333-.445-.7-.889-1.037-1.334a12.255,12.255,0,0,0,8.224,9.224c1.778.519,5,.889,4.964-1.815a3.605,3.605,0,0,0-3.038-3.408c-.222-.037.407,1.482.926,1.519,2.111.259.259,2.408-.926,2.519a8.071,8.071,0,0,1-3.482-.63,8.383,8.383,0,0,1-5.482-6.3c-.074-.407-.556-1.259-1.037-1.334-1.556-.222-9.816-2.667-6.446-5.186,1.371-1.037,2.593.482,3.7,1.148a10.289,10.289,0,0,0,15.632-6.668c.222-1.111-.074-2.741.926-3.519,1.815-1.371,2.26.741,2.037,2.223a13.314,13.314,0,0,1-.963,3.408,14.433,14.433,0,0,1-10.78,8.52c-.111,0,0,.333,0,.333,1.074,3,3.519,5.334,6.816,5.445C163.059,113.029,162.355,111.51,161.873,111.51Z" transform="translate(-143.441 -91.158)"/>
          </g>
        </g>
      </g>
    </g>
    <g id="Group_157" data-name="Group 157" transform="translate(60.793 79.264)">
      <g id="Group_156" data-name="Group 156">
        <g id="Group_155" data-name="Group 155">
          <path id="Path_83" data-name="Path 83" d="M181.162,215.7c-7.742,0-14.262,6.816-14.262,14.854a2.037,2.037,0,1,0,4.075,0c0-5.742,4.742-10.78,10.187-10.78a2.055,2.055,0,0,0,2.037-2.037A2.031,2.031,0,0,0,181.162,215.7Z" transform="translate(-166.019 -215.07)"/>
          <g id="Group_154" data-name="Group 154">
            <path id="Path_84" data-name="Path 84" class="cls-1" d="M179.294,214a14.6,14.6,0,0,0-10.409,4.556c-2.556,2.667-4.779,7.038-4.3,10.891.37,3.112,5.3,3.927,5.742.407a12.476,12.476,0,0,1,2.074-6.26,10.208,10.208,0,0,1,5.408-3.89c1.7-.482,4.445,0,4.7-2.445.185-1.778-1.445-3.038-3.038-3.223-1.185-.148-.407,1.185.37,1.259,1.519.185,1.037,1.889.407,2.445a2.939,2.939,0,0,1-1.667.407,11.989,11.989,0,0,0-2.3.445,10.384,10.384,0,0,0-4.223,2.667,11.35,11.35,0,0,0-2.63,4.075,12.781,12.781,0,0,0-.63,2.334c-.148,1,.148,2.63-1.074,3.075-2.482.889-.926-4.853-.593-5.742a14.562,14.562,0,0,1,2.7-4.7,13.755,13.755,0,0,1,10.261-4.964C181.146,215.259,179.961,214,179.294,214Z" transform="translate(-164.522 -214)"/>
          </g>
        </g>
      </g>
    </g>
    <g id="Group_161" data-name="Group 161" transform="translate(56.71 62.712)">
      <g id="Group_160" data-name="Group 160">
        <g id="Group_159" data-name="Group 159">
          <path id="Path_85" data-name="Path 85" d="M173.966,181a18.317,18.317,0,0,0-15.929-9.3,2.037,2.037,0,0,0,0,4.075A14.22,14.22,0,0,1,170.447,183a2.059,2.059,0,0,0,2.778.778A2.038,2.038,0,0,0,173.966,181Z" transform="translate(-155.074 -170.818)"/>
          <g id="Group_158" data-name="Group 158">
            <path id="Path_86" data-name="Path 86" class="cls-1" d="M173.207,179.128a19.57,19.57,0,0,0-10.965-8.853c-1.926-.593-5.186-1.482-7.112-.556a2.876,2.876,0,0,0-1.111,4.223c1.3,1.778,4.075,1.148,5.964,1.667a13.457,13.457,0,0,1,7.186,4.964c1.074,1.482,2,3.26,4.186,2.667a2.861,2.861,0,0,0,1.852-4.112c-.407-.963-2.074-.222-1.667.815.037.37.037.741.074,1.111-.667.037-1.3.074-1.963.074-.185-.111-.407-.7-.556-.889a17.414,17.414,0,0,0-1.259-1.63,15.6,15.6,0,0,0-3.149-2.7,14.575,14.575,0,0,0-3.852-1.778,17.434,17.434,0,0,0-2-.445,16.186,16.186,0,0,1-2.371-.185c-1-.407-1.519-1.519-.556-2.334.259-.222,1.185-.074,1.556-.074a18.732,18.732,0,0,1,2.519.333,17.172,17.172,0,0,1,4.593,1.7,17.915,17.915,0,0,1,6.927,6.779C172.1,180.795,173.762,180.054,173.207,179.128Z" transform="translate(-153.499 -169.318)"/>
          </g>
        </g>
      </g>
    </g>
  </g>
</svg>
