<svg xmlns="http://www.w3.org/2000/svg" viewBox="0 0 30 25.04"><defs><style>.cls-1{fill:#fff;}</style></defs><title>Ресурс 11</title><g id="Слой_2" data-name="Слой 2"><g id="Layer_1" data-name="Layer 1"><path class="cls-1" d="M0,13.58C0,9.91,2.31,6.72,5.78,4.64c.82-.49,2.46-.71,3.12-.08a1.83,1.83,0,0,1,.57,1.3c0,.82-1,1.81-1.76,2.39a6.83,6.83,0,0,0-2.83,5.34c0,4.41,4.45,7.75,9.94,7.75s9.94-3.34,9.94-7.75A7.08,7.08,0,0,0,21.92,8c-.73-.57-1.72-1.59-1.56-2.4a1.81,1.81,0,0,1,.89-1.26,3.76,3.76,0,0,1,3.25.36c3.33,2.08,5.5,5.26,5.5,8.9C30,20,22.87,25,14.82,25S0,20,0,13.58Z"/><path class="cls-1" d="M15.11,14.79c-1,0-2.4-.94-2.4-1.75V1.81C12.71,1.7,12.73,0,15,0c1,0,2.32.42,2.32,1.81V13C17.36,13.85,16.12,14.79,15.11,14.79Z"/></g></g></svg>