<?xml version="1.0" encoding="UTF-8"?>
<svg width="20px" height="15px" viewBox="0 0 20 15" version="1.1" xmlns="http://www.w3.org/2000/svg" xmlns:xlink="http://www.w3.org/1999/xlink">
    <!-- Generator: sketchtool 52.3 (67297) - http://www.bohemiancoding.com/sketch -->
    <title>5317AD53-70D9-4A8E-8355-B1F02B01BF91</title>
    <desc>Created with sketchtool.</desc>
    <g id="Symbols" stroke="none" stroke-width="1" fill="none" fill-rule="evenodd">
        <g id="mail" fill="#FFFFFF">
            <g id="contact">
                <path d="M19.5454545,0 L0.454545455,0 C0.203181818,0 0,0.20953125 0,0.46875 L0,14.53125 C0,14.7904687 0.203181818,15 0.454545455,15 L19.5454545,15 C19.7963636,15 20,14.7904687 20,14.53125 L20,0.46875 C20,0.20953125 19.7963636,0 19.5454545,0 Z M18.2061544,12.5510233 L13.0794,7.17975893 L12.154837,7.74157143 L17.5327389,13.5247284 L2.34042311,13.5247284 L7.75809583,7.90034676 L6.9206,7.17975893 L1.78780971,12.5510233 L1.78780971,1.57689959 L18.2061544,1.57689959 L18.2061544,12.5510233 Z" id="Shape" fill-rule="nonzero"></path>
                <path d="M17.7724,0.925464356 L10,8.19326467 L2.2276,0.592764512 L1,1 L1,1.35614725 L9.68185,9.87058218 C9.8578,10.0431393 10.1422,10.0431393 10.31815,9.87058218 L19,1.35614725 L19,1 L17.7724,0.925464356 Z" id="Path"></path>
            </g>
        </g>
    </g>
</svg>