<svg xmlns="http://www.w3.org/2000/svg" width="14" height="10" viewBox="0 0 14 10">
  <defs>
    <style>
      .cls-1 {
        fill: #2a90f9;
        fill-rule: evenodd;
      }
    </style>
  </defs>
  <path id="blue_mail" class="cls-1" d="M344.407,752H355.59a1.388,1.388,0,0,1,.393.106c0.1,0.061.121,0.114,0.025,0.2-0.264.233-.539,0.456-0.81,0.682q-0.805.675-1.613,1.347l-1.6,1.335q-0.78.649-1.556,1.3c-0.1.087-.217,0.163-0.313,0.259a0.154,0.154,0,0,1-.236,0c-0.382-.322-0.768-0.642-1.152-0.962q-0.813-.679-1.626-1.358-0.766-.639-1.531-1.28c-0.514-.432-1.036-0.854-1.541-1.295-0.152-.132-0.14-0.171.049-0.263A2.676,2.676,0,0,1,344.407,752Zm-1.376,1.373a1.5,1.5,0,0,1,.245-0.6l0.841,0.7q1.7,1.416,3.393,2.829c0.113,0.093.117,0.14,0.015,0.248q-2.065,2.194-4.121,4.4l-0.169.179A2.789,2.789,0,0,1,343,760.61V760.4a0.39,0.39,0,0,0,.017-0.2q0-3.314,0-6.629A0.693,0.693,0,0,1,343.031,753.373ZM357,760.61a2.8,2.8,0,0,1-.236.515l-1.8-1.924q-1.248-1.333-2.5-2.666c-0.074-.079-0.108-0.122,0-0.211q2.108-1.75,4.206-3.509c0.013-.011.029-0.019,0.056-0.037a1.383,1.383,0,0,1,.243.6,0.624,0.624,0,0,1,.013.2q0,3.316,0,6.631a0.387,0.387,0,0,0,.018.2v0.207Zm-1.4,1.347c-2.614.1-11.726,0.032-11.78-.135-0.079-.241,3.016-3.283,4.357-4.724,0.108-.116.161-0.112,0.274-0.013,0.391,0.34.793,0.669,1.191,1a0.478,0.478,0,0,0,.717,0c0.412-.343.825-0.686,1.232-1.034,0.081-.069.119-0.074,0.2,0.008q2.147,2.3,4.3,4.6c0.076,0.082.062,0.114-.032,0.154A1.253,1.253,0,0,1,355.6,761.957Z" transform="translate(-343 -752)"/>
</svg>
