<svg xmlns="http://www.w3.org/2000/svg" width="13.031" height="14" viewBox="0 0 13.031 14">
  <defs>
    <style>
      .cls-1 {
        fill: #2a90f9;
        fill-rule: evenodd;
      }
    </style>
  </defs>
  <path id="blue_phone" class="cls-1" d="M346.42,697.072a4.424,4.424,0,0,1,1.427,2.015,1.743,1.743,0,0,1-.4,2.591c-1.075.869-1.134,1.379-.4,2.53a8.918,8.918,0,0,0,2.582,2.759,1.263,1.263,0,0,0,1.632,0c1.8-1.385,2.119-1.357,3.768.182a4.165,4.165,0,0,1,.9.921,0.983,0.983,0,0,1,0,.718,4.012,4.012,0,0,1-3.329,2.151,4.3,4.3,0,0,1-1.427,0c-2.53-.493-4.281-2.558-5.863-4.592a11.133,11.133,0,0,1-2.222-4.253,3.735,3.735,0,0,1,0-1.673,4.6,4.6,0,0,1,2.616-3.347A0.927,0.927,0,0,1,346.42,697.072Z" transform="translate(-343 -697)"/>
</svg>
