<svg width="32" height="30" viewBox="0 0 32 30" fill="none" xmlns="http://www.w3.org/2000/svg">
<g clip-path="url(#clip0)">
<path d="M31.6324 23.4618C31.6981 23.9315 31.5448 24.3405 31.1732 24.688L26.8127 28.7357C26.6156 28.9398 26.3588 29.1136 26.0425 29.257C25.7252 29.4005 25.4142 29.4923 25.1083 29.5333C25.0864 29.5333 25.0207 29.5382 24.9112 29.5488C24.8025 29.5595 24.6597 29.5644 24.4853 29.5644C24.0699 29.5644 23.3978 29.498 22.4689 29.3652C21.54 29.2324 20.4035 28.9054 19.0592 28.3841C17.715 27.8627 16.1902 27.0807 14.4858 26.0381C12.7814 24.9954 10.9666 23.5642 9.04399 21.7445C7.51397 20.3338 6.24684 18.9846 5.24085 17.6969C4.23573 16.4091 3.42691 15.2181 2.81437 14.1238C2.20272 13.0303 1.74353 12.0385 1.43771 11.1491C1.13188 10.2598 0.924194 9.49335 0.814656 8.84907C0.705119 8.20479 0.661304 7.69904 0.683211 7.331C0.705119 6.96295 0.715634 6.75885 0.715634 6.71787C0.760326 6.43179 0.859348 6.13998 1.01182 5.84407C1.16518 5.54734 1.35095 5.30717 1.56915 5.12356L5.92962 1.04475C6.23545 0.758681 6.58509 0.615234 6.97855 0.615234C7.26335 0.615234 7.51397 0.691466 7.73305 0.845569C7.95125 0.998852 8.13702 1.1882 8.29038 1.4128L11.7982 7.63756C11.9945 7.96462 12.0497 8.32283 11.9621 8.71055C11.8744 9.09908 11.6887 9.42614 11.4047 9.69172L9.79849 11.1942C9.75467 11.2352 9.71612 11.3016 9.68369 11.3934C9.65127 11.4852 9.63462 11.5623 9.63462 11.6237C9.72225 12.0533 9.91854 12.5434 10.2244 13.0959C10.4864 13.5869 10.8912 14.1845 11.4372 14.8902C11.984 15.5952 12.7595 16.4083 13.7646 17.328C14.7478 18.2682 15.6224 18.9994 16.3874 19.5207C17.1524 20.042 17.7912 20.4256 18.3047 20.6707C18.8182 20.9158 19.2117 21.0642 19.4851 21.115L19.8943 21.1912C19.9382 21.1912 20.0091 21.1757 20.1073 21.1453C20.2054 21.115 20.2764 21.0789 20.3202 21.0379L22.1885 19.2592C22.582 18.9321 23.0411 18.7682 23.5652 18.7682C23.9367 18.7682 24.232 18.8297 24.4502 18.9526H24.4835L30.8104 22.4486C31.2714 22.715 31.5448 23.0528 31.6324 23.4618Z" fill="#EDF3FF"/>
</g>
<defs>
<clipPath id="clip0">
<rect width="31" height="29" fill="white" transform="translate(0.677734 0.615234)"/>
</clipPath>
</defs>
</svg>
