<svg xmlns="http://www.w3.org/2000/svg" viewBox="0 0 108.5 108.796">
  <defs>
    <style>
      .cls-1 {
        fill: #201600;
      }
    </style>
  </defs>
  <g id="Group_92" data-name="Group 92" transform="translate(-0.158 -0.026)">
    <g id="Group_87" data-name="Group 87" transform="translate(63.604 25.902)">
      <g id="Group_86" data-name="Group 86">
        <path id="Path_51" data-name="Path 51" class="cls-1" d="M211.467,125.771a104.763,104.763,0,0,0,5.126-11.2c1.416-3.777.809-7.318-.236-11.128-1.18-4.215-3.069-8.228-4.62-12.309-1.349-3.473-3.844-8.431-.877-11.769a1.852,1.852,0,0,1,2.732-.472,7.321,7.321,0,0,1,2.057,1.888,27.416,27.416,0,0,1,3.406,5.53c1.821,3.709,3.136,7.655,5.193,11.3a53.909,53.909,0,0,1,4.586,11.2c1.214,4.114,2.765,8.363,1.484,12.646a32.945,32.945,0,0,1-2.394,5.328,64.925,64.925,0,0,1-3.339,6c-2.259,3.507-4.957,6.812-7.419,10.184-2.5,3.406-5.53,6.34-8.127,9.645-.573.708-1.113,1.45-1.652,2.192a10.185,10.185,0,0,1-1.652,2.293c-.674.472-2.192.371-3.035.472a19.668,19.668,0,0,1-3.979.169,15.723,15.723,0,0,1-5.7-1.248,3.958,3.958,0,0,1-1.956-1.585c-.438-.978-.135-2.63-.135-3.642.034-4.384-.236-8.835.034-13.219.236-4.148,2.7-8.195,4.755-11.634a85.5,85.5,0,0,0,5.665-10.353,64.767,64.767,0,0,0,3.777-12.713,41.375,41.375,0,0,1,1.585-6.643c.337-.944.607-1.551,1.518-.877a8.172,8.172,0,0,1,2.091,2.6c1.079,1.956,1.012,4.013,1.012,6.137a49.662,49.662,0,0,1-.506,7.082c-.674,4.586-1.45,9.139-2.158,13.725a.794.794,0,0,0,.641.911l.3.1c1.147.337,2.8-1.079,1.18-1.518l-.3-.1c.2.3.438.607.641.911.708-4.789,1.518-9.544,2.259-14.332a44.1,44.1,0,0,0,.472-6.306,16.611,16.611,0,0,0-.708-6.306c-1.045-2.529-3.777-6-6.913-4.755-1.383.54-1.855,1.855-2.259,3.17-.708,2.327-1.079,4.721-1.585,7.082a59.109,59.109,0,0,1-4.553,13.725c-2.057,4.182-4.822,7.959-6.913,12.14a27.055,27.055,0,0,0-2.327,6.138c-.54,2.428-.27,5.092-.27,7.588V151.4c0,1.787-.4,3.844,1.079,5.193a10.675,10.675,0,0,0,4.822,2.293,21.262,21.262,0,0,0,6.508.641c1.922-.169,4.687-.067,6.407-1.045a4.981,4.981,0,0,0,1.518-1.619q1.214-1.77,2.529-3.44c2.934-3.71,6.272-7.048,9.038-10.892,2.833-3.979,6-7.722,8.363-12.039,2.125-3.878,4.755-8.093,4.721-12.646a24.921,24.921,0,0,0-1.214-6.239c-.708-2.563-1.416-5.126-2.293-7.621-1.585-4.485-4.182-8.464-6.036-12.815-1.72-4.114-3.473-8.5-6.542-11.8-1.281-1.383-3.339-2.765-5.328-2.6-1.787.135-3.3,1.652-4.114,3.136-2.394,4.283.641,9.78,2.226,13.826,2.023,5.227,4.755,10.623,4.991,16.355.1,2.664-1.214,5.261-2.259,7.621-1.18,2.664-2.428,5.261-3.743,7.857C208.5,126.513,211,126.749,211.467,125.771Z" transform="translate(-188.3 -76.758)"/>
      </g>
    </g>
    <g id="Group_89" data-name="Group 89" transform="translate(0.158 25.545)">
      <g id="Group_88" data-name="Group 88">
        <path id="Path_52" data-name="Path 52" class="cls-1" d="M23.913,126.35c-.54-4.35-1.416-8.667-2.158-13.017a43.874,43.874,0,0,1-.607-6.272,25.186,25.186,0,0,1,.371-7.115,8.316,8.316,0,0,1,2.63-4.047,4.065,4.065,0,0,1,1.652-.944c.3-.067.944-.169,1.18.1a11.487,11.487,0,0,0,.169,1.416c1.045,4.148,1.787,8.363,3.035,12.477a54.787,54.787,0,0,0,5.126,11.7c2.158,3.777,4.687,7.318,6.2,11.432a16.864,16.864,0,0,1,1.045,6.306v7.588a49.517,49.517,0,0,1,0,6.711c-.27,1.888-2.529,2.732-4.08,3.3A19.96,19.96,0,0,1,32.68,157a23.82,23.82,0,0,1-3.777-.337,14.824,14.824,0,0,1-2.5-.371c-.944-.371-1.416-1.45-1.99-2.226s-1.147-1.484-1.754-2.226c-1.349-1.686-2.765-3.3-4.182-4.957-1.551-1.787-3.136-3.608-4.519-5.564-1.214-1.754-2.361-3.507-3.743-5.16A55.1,55.1,0,0,1,2.8,123.551c-1.99-4.519-.877-8.869.472-13.422A60.844,60.844,0,0,1,8.265,97.72c2.091-3.777,3.473-7.925,5.4-11.8,1.45-2.934,3.811-7.419,7.419-8.06,3-.54,3,3.575,2.7,5.5a34.97,34.97,0,0,1-2.361,7.318c-1.619,4.35-3.878,8.633-4.789,13.219-.438,2.259-.911,4.654-.371,6.947a29.031,29.031,0,0,0,1.754,4.687,74.328,74.328,0,0,0,4.654,9.442c.236.4,1.821,2.158,1.045.809a69.8,69.8,0,0,1-5.025-10.656,11.487,11.487,0,0,1-.877-6.374,37.509,37.509,0,0,1,1.787-7.453c1.72-4.553,3.912-9,5.261-13.691,1.012-3.507.978-6.576-1.383-9.51-.742-.944-2.023-2.361-3.339-2.394-2.023-.034-3.844,1.956-4.923,3.406-2.765,3.811-4.384,8.026-6.272,12.309-1.012,2.293-2.259,4.418-3.372,6.643a55.564,55.564,0,0,0-2.732,6.913C1.42,109.253-.637,114.48.475,119.033a26.8,26.8,0,0,0,2.462,5.834c1.18,2.293,2.361,4.654,3.743,6.879a42.632,42.632,0,0,0,3.406,4.687c1.686,2.057,3.069,4.316,4.687,6.441,3,3.912,6.542,7.385,9.442,11.4a15.354,15.354,0,0,0,2.866,3.541,3.279,3.279,0,0,0,1.787.641c1.349.135,2.732.337,4.114.472a18.315,18.315,0,0,0,6.61-.742c1.585-.506,4.114-1.315,4.586-3.17a10.211,10.211,0,0,0,.067-2.866v-11.87A17.675,17.675,0,0,0,43.1,133.7a36.582,36.582,0,0,0-2.765-5.8c-2.6-4.418-5.4-8.7-7.25-13.523-2.091-5.429-2.968-11.095-4.418-16.659-.742-2.8-2.833-6.508-5.935-3.878-3.979,3.372-3.271,9.476-2.9,14.13.438,5.531,1.922,10.96,2.63,16.457a3.316,3.316,0,0,0,.809,1.315C23.272,125.878,23.946,126.553,23.913,126.35Z" transform="translate(-0.158 -75.699)"/>
      </g>
    </g>
    <g id="Group_91" data-name="Group 91" transform="translate(32.704 0.026)">
      <g id="Group_90" data-name="Group 90" transform="translate(0 0)">
        <path id="Path_53" data-name="Path 53" class="cls-1" d="M124.871,21.937c.135,1.585-.438,2.5-.877,3.912a2.928,2.928,0,0,0,.607,2.563,32.222,32.222,0,0,0,2.5,2.8,3.993,3.993,0,0,1,1.281,1.99,10.432,10.432,0,0,1-.438,3c-1.045,6.171-2.125,12.342-3.17,18.514-.506,3.035-1.045,6.07-1.585,9.105-.236,1.45-.472,2.9-.742,4.35-.3,1.686-.337,3.878-2.563,3.777a19.759,19.759,0,0,1-3.912-.843c-1.619-.4-2.259-.674-1.754-2.428.877-2.934,2.192-5.834,3.3-8.7q3.49-9,6.981-18.042c.843-2.192,2.732-5.025,1.686-7.385a8.333,8.333,0,0,0-2.259-2.6,24.806,24.806,0,0,0-3.339-2.9,4.949,4.949,0,0,0-2.866-.573,13.569,13.569,0,0,1-4.316-.944,24.442,24.442,0,0,1-7.149-4.519c-4.08-3.608-8.431-9.847-7.385-15.58,1.349-7.689,11.095-4.89,15.479-1.956,5.193,3.473,10.555,9.51,10.521,16.086,0,1.18,2.023,2.428,2.023.877,0-6.272-3.676-11.87-8.195-16.018-4.08-3.743-10.387-7.554-16.254-6.07a7.6,7.6,0,0,0-5.227,4.586c-1.045,2.9-.438,5.969.472,8.8,1.888,5.767,6.239,10.623,11.263,13.894a19.273,19.273,0,0,0,8.464,3.237,9.938,9.938,0,0,1,2.259.135,6.546,6.546,0,0,1,1.855,1.484,22.123,22.123,0,0,1,2.259,2.091c.944,1.113.472,1.787,0,3-2.8,7.115-5.531,14.265-8.3,21.38-1.18,3-2.9,6.272-3.473,9.476a4.077,4.077,0,0,0,2.765,4.721,25.286,25.286,0,0,0,4.182,1.045c1.248.236,2.765.4,3.811-.438a4.857,4.857,0,0,0,1.416-2.8c.4-1.855.641-3.743.944-5.6,1.383-8.161,2.9-16.322,4.249-24.516.337-1.99.674-3.979,1.012-5.935a4.592,4.592,0,0,0-.911-3.811c-.607-.809-1.281-1.518-1.956-2.259-.506-.54-1.416-1.214-1.416-1.99,0-.607.641-1.551.776-2.226a9.461,9.461,0,0,0,.034-2.394C126.827,20.925,124.77,20.284,124.871,21.937Z" transform="translate(-96.669 -0.026)"/>
        <path id="Path_54" data-name="Path 54" class="cls-1" d="M110.936,12.693c-6.61,3.811-1.113,13.725,2.7,17.569,3.912,3.979,12.073,9.307,17.064,4.114.438-.472.1-1.248-.2-1.686a2.287,2.287,0,0,0-1.855-.978,15.635,15.635,0,0,1-3.743-.506,18.8,18.8,0,0,1-6.272-3.608c-3.811-3.271-6.947-8.228-6-13.388.2-1.18-1.754-2.428-2.023-.877-.978,5.4,1.754,10.521,5.362,14.366a22.543,22.543,0,0,0,5.8,4.451,16.444,16.444,0,0,0,3.743,1.518,11.467,11.467,0,0,0,2.394.4c.135,0,1.248-.1,1.383.1-.067-.573-.135-1.113-.2-1.686-3.912,4.08-10.656-.337-13.793-3.339-3.035-2.934-8.5-11.162-3.035-14.3C113.263,14.278,112.015,12.086,110.936,12.693Z" transform="translate(-104.08 -8.352)"/>
      </g>
    </g>
  </g>
</svg>
