<svg xmlns="http://www.w3.org/2000/svg" xmlns:xlink="http://www.w3.org/1999/xlink" viewBox="0 0 606.63 528.73"><defs><style>.cls-1{fill:none;}.cls-2{isolation:isolate;}.cls-3{fill:#89b48d;}.cls-4{clip-path:url(#clip-path);}.cls-5{fill:#7fa883;}.cls-6{clip-path:url(#clip-path-2);}.cls-7{clip-path:url(#clip-path-3);}.cls-8{fill:#7ca37f;}.cls-9{clip-path:url(#clip-path-4);}.cls-10{clip-path:url(#clip-path-5);}.cls-11{clip-path:url(#clip-path-6);}.cls-12{fill:#789e7b;}.cls-13{clip-path:url(#clip-path-7);}.cls-14{clip-path:url(#clip-path-8);}.cls-15{fill:#648567;}.cls-16{fill:#618064;}.cls-17{clip-path:url(#clip-path-9);}.cls-18{clip-path:url(#clip-path-10);}.cls-19{clip-path:url(#clip-path-11);}.cls-20{clip-path:url(#clip-path-12);}.cls-21{clip-path:url(#clip-path-13);}.cls-22{fill:#749977;}.cls-23{clip-path:url(#clip-path-14);}.cls-24{clip-path:url(#clip-path-15);}.cls-25{fill:#709473;}.cls-26{clip-path:url(#clip-path-16);}.cls-27{fill:#688a6b;}.cls-28{clip-path:url(#clip-path-17);}.cls-29{fill:#6c8f6f;}.cls-30{fill:#a8dfae;}.cls-31{clip-path:url(#clip-path-18);}.cls-32{fill:#00b4b4;}.cls-33{clip-path:url(#clip-path-19);}.cls-34{fill:#00a8a8;}.cls-35{clip-path:url(#clip-path-20);}.cls-36{fill:#009e9e;}.cls-37{fill:#00a3a3;}.cls-38{clip-path:url(#clip-path-21);}.cls-39{clip-path:url(#clip-path-22);}.cls-40{clip-path:url(#clip-path-23);}.cls-41{fill:#008585;}.cls-42{fill:teal;}.cls-43{clip-path:url(#clip-path-24);}.cls-44{clip-path:url(#clip-path-25);}.cls-45{clip-path:url(#clip-path-26);}.cls-46{clip-path:url(#clip-path-27);}.cls-47{clip-path:url(#clip-path-28);}.cls-48{clip-path:url(#clip-path-29);}.cls-49{clip-path:url(#clip-path-30);}.cls-50{clip-path:url(#clip-path-31);}.cls-51{clip-path:url(#clip-path-32);}.cls-52{fill:#008a8a;}.cls-53{fill:#008f8f;}.cls-54{fill:#009494;}.cls-55{fill:#099;}.cls-56{fill:#00dfdf;}.cls-57{clip-path:url(#clip-path-33);}</style><clipPath id="clip-path"><path class="cls-1" d="M193.05,407.86q7.59-2.19,16.5-5.19l22.79,12.4q-8.91,3-16.5,5.19Q204.46,414.05,193.05,407.86Z"/></clipPath><clipPath id="clip-path-2"><path class="cls-1" d="M193.05,407.86a1.77,1.77,0,0,1,.57.31q2.19,1.18,4.37,2.38l4.93,2.67,12.92,7a173.19,173.19,0,0,1-22.79,5.22q-2,.27-3.72.42l-22.79-12.4c1.17-.1,2.41-.24,3.71-.42A171.33,171.33,0,0,0,193.05,407.86Z"/></clipPath><clipPath id="clip-path-3"><path class="cls-1" d="M166.54,413.5a1.4,1.4,0,0,1,.29.16l.91.5.65.35.66.36,2.5,1.36,17.78,9.67c-.94.09-1.83.14-2.68.17a61.88,61.88,0,0,1-23.92-3.41l-22.8-12.4a61.91,61.91,0,0,0,23.92,3.41C164.71,413.64,165.6,413.59,166.54,413.5Z"/></clipPath><clipPath id="clip-path-4"><path class="cls-1" d="M139.93,410.26l.33.18,5.39,2.93q8.53,4.65,17.08,9.29c-.66-.23-1.3-.48-1.94-.75q-11.4-6.2-22.79-12.4C138.64,409.78,139.28,410,139.93,410.26Z"/></clipPath><clipPath id="clip-path-5"><path class="cls-1" d="M156.19,418.62l-22.8-12.4c8.79,4.78,19.05,7,30.55,6.49q2.82-.1,6.3-.59c9.48-1.34,22.6-4.81,39.15-10.38l22.79,12.4c-16.55,5.57-29.67,9-39.15,10.38q-3.47.48-6.29.59C175.24,425.59,165,423.4,156.19,418.62Z"/></clipPath><clipPath id="clip-path-6"><path class="cls-1" d="M132.91,407.1a51.49,51.49,0,0,0,5.09,2.41q11.38,6.21,22.79,12.4a50.27,50.27,0,0,1-5.08-2.41Z"/></clipPath><clipPath id="clip-path-7"><path class="cls-1" d="M116.43,490.38,93.64,478c14.09,7.67,31.21,11.92,51,12.65a120.09,120.09,0,0,0,20.54-1.29c13.48-1.89,29-5.8,46.53-11.68l22.79,12.4c-17.49,5.88-33.05,9.79-46.53,11.68A121.12,121.12,0,0,1,167.45,503C147.64,502.3,130.52,498.05,116.43,490.38Z"/></clipPath><clipPath id="clip-path-8"><path class="cls-1" d="M48.59,434.68l22.8,12.4c11.36,16.6,24.17,29.74,38.27,39.19q3.27,2.21,6.79,4.12L93.66,478c-2.35-1.27-4.62-2.65-6.8-4.12C72.76,464.42,60,451.29,48.59,434.68Z"/></clipPath><clipPath id="clip-path-9"><path class="cls-1" d="M155.74,419.52,133,407.12c-.78-.43-1.55-.87-2.31-1.34-9.4-5.76-18.36-17.59-26.66-35.18s-15.34-43.27-21-76.44-7.52-59.87-5.55-79.32,6.69-36,14-49a88.19,88.19,0,0,1,31.07-32c9.89-6.22,30.18-14.52,60.3-24.66l22.8,12.4c-30.13,10.14-50.42,18.44-60.3,24.66a88.14,88.14,0,0,0-31.08,32c-7.33,13-12,29.51-14,49s-.1,46.14,5.56,79.32,12.72,58.89,21,76.44,17.26,29.42,26.66,35.18C154.19,418.65,155,419.09,155.74,419.52Z"/></clipPath><clipPath id="clip-path-10"><path class="cls-1" d="M5.14,306.14l22.79,12.4q1.17,8.52,2.68,17.34.7,4.14,1.47,8.17l-22.8-12.4q-.75-4-1.46-8.16Q6.32,314.66,5.14,306.14Z"/></clipPath><clipPath id="clip-path-11"><path class="cls-1" d="M1,238.91l22.8,12.4c-.65,20.39.72,42.88,4.09,67.23L5.14,306.14C1.77,281.79.4,259.3,1,238.91Z"/></clipPath><clipPath id="clip-path-12"><path class="cls-1" d="M82.31,73C97,64,117.2,55.21,142.5,46.69l22.79,12.4C140,67.61,119.81,76.42,105.1,85.37Z"/></clipPath><clipPath id="clip-path-13"><path class="cls-1" d="M82.31,73l22.79,12.4q-4.44,2.7-8.2,5.41A146.67,146.67,0,0,0,83.1,102.1L60.3,89.7A149.28,149.28,0,0,1,74.1,78.38Q77.87,75.66,82.31,73Z"/></clipPath><clipPath id="clip-path-14"><path class="cls-1" d="M8.16,185,31,197.39a269.1,269.1,0,0,0-5.65,32.83q-1.12,10.13-1.46,21.09L1,238.91Q1.39,228,2.5,217.82A267.18,267.18,0,0,1,8.16,185Z"/></clipPath><clipPath id="clip-path-15"><path class="cls-1" d="M60.3,89.7l22.8,12.4a153.5,153.5,0,0,0-17.87,19.72l-22.8-12.4A155,155,0,0,1,60.3,89.7Z"/></clipPath><clipPath id="clip-path-16"><path class="cls-1" d="M21.86,144.41q11.4,6.19,22.79,12.4A228.21,228.21,0,0,0,31,197.39q-6.16-3.36-12.34-6.71L13,187.62l-2.15-1.17-1.38-.75-.66-.36c-.19-.11-.54-.16-.64-.35A228.21,228.21,0,0,1,21.86,144.41Z"/></clipPath><clipPath id="clip-path-17"><path class="cls-1" d="M42.43,109.42l22.8,12.4a172.35,172.35,0,0,0-16.8,27q-2,3.91-3.78,7.95-11.38-6.21-22.79-12.4,1.82-4,3.78-7.95A172.31,172.31,0,0,1,42.43,109.42Z"/></clipPath><clipPath id="clip-path-18"><path class="cls-1" d="M116,491.27,93.2,478.87q-3.57-1.94-6.87-4.16c-20.31-13.61-37.95-34.8-52.45-63C22,388.69,13,359.1,6.94,323.78.09,283.59-1.7,248,1.62,217.83s11.15-57.63,23.25-81.75S53.42,92.27,73.68,77.59C88.76,66.74,111.86,56,142.34,45.77l22.79,12.4c-30.47,10.25-53.57,21-68.66,31.82-20.26,14.68-36.68,34.36-48.8,58.49S27.73,200.1,24.41,230.23s-1.52,65.76,5.32,106c6,35.32,15.09,64.91,26.94,88,14.5,28.16,32.15,49.35,52.46,63Q112.43,489.33,116,491.27Z"/></clipPath><clipPath id="clip-path-19"><path class="cls-1" d="M402.17,437.76c9.54-1.34,22.71-4.82,39.29-10.4l22.79,12.4c-16.58,5.58-29.75,9.06-39.29,10.4-1.78.25-3.44.43-5,.53l-22.8-12.4C398.73,438.19,400.38,438,402.17,437.76Z"/></clipPath><clipPath id="clip-path-20"><path class="cls-1" d="M397.2,438.29a.75.75,0,0,1,.15.09l.16.08.28.15q11.1,6,22.21,12.08c-.49,0-1,.06-1.43.08-11.64.48-22.05-1.73-30.95-6.58l-22.79-12.4c8.9,4.85,19.3,7.06,30.94,6.58C396.24,438.35,396.71,438.33,397.2,438.29Z"/></clipPath><clipPath id="clip-path-21"><path class="cls-1" d="M388.12,443.32l-22.79-12.4c8.78,4.78,19,6.95,30.53,6.48a61.61,61.61,0,0,0,6.3-.6c9.47-1.33,22.59-4.8,39.14-10.36l22.79,12.4c-16.54,5.56-29.66,9-39.14,10.36a61.34,61.34,0,0,1-6.3.6C407.16,450.27,396.9,448.1,388.12,443.32Z"/></clipPath><clipPath id="clip-path-22"><path class="cls-1" d="M348.36,515.08l-22.8-12.4c14.09,7.66,31.21,11.91,51,12.64A122.22,122.22,0,0,0,397.11,514c13.47-1.9,29-5.8,46.53-11.69l22.79,12.4c-17.49,5.89-33.05,9.79-46.53,11.69a121,121,0,0,1-20.54,1.28C379.56,527,362.45,522.74,348.36,515.08Z"/></clipPath><clipPath id="clip-path-23"><path class="cls-1" d="M302.72,485.68l22.79,12.4A124.33,124.33,0,0,0,341.57,511q3.27,2.2,6.8,4.12l-22.8-12.4c-2.35-1.28-4.61-2.65-6.8-4.12A124.24,124.24,0,0,1,302.72,485.68Z"/></clipPath><clipPath id="clip-path-24"><path class="cls-1" d="M247.16,383.11l9.92,5.4,6.94,3.77.89.49.89.48,1.72.94,1.65.89c.23.13.51.43.78.43,5.26,20.19,11.76,37.86,19.43,52.77,10.47,20.33,22.57,37,36.13,49.8l-22.79-12.4c-13.56-12.79-25.67-29.47-36.13-49.8C258.92,421,252.42,403.31,247.16,383.11Z"/></clipPath><clipPath id="clip-path-25"><path class="cls-1" d="M387.63,444.2l-22.79-12.4c-.77-.42-1.54-.86-2.29-1.32-9.39-5.77-18.36-17.6-26.65-35.2s-15.35-43.26-21-76.44-7.53-59.85-5.56-79.32,6.7-36,14-49a88.19,88.19,0,0,1,31.07-32c9.89-6.22,30.17-14.51,60.3-24.66l22.8,12.4c-30.13,10.15-50.42,18.43-60.3,24.66a88.27,88.27,0,0,0-31.08,32c-7.32,13-12,29.52-14,49s-.1,46.16,5.56,79.32,12.72,58.9,21,76.44,17.27,29.43,26.66,35.2Q386.48,443.57,387.63,444.2Z"/></clipPath><clipPath id="clip-path-26"><path class="cls-1" d="M235.92,322.1l22.79,12.39q1.53,12.69,3.81,26.08,3.17,18.54,7.43,34.94l-14.17-7.71-4.64-2.53-1.19-.64-1.16-.63-1.1-.61c-.16-.08-.35-.28-.53-.28q-4.26-16.38-7.43-34.94Q237.45,334.79,235.92,322.1Z"/></clipPath><clipPath id="clip-path-27"><path class="cls-1" d="M233,283.75l22.8,12.4q.54,18.24,3,38.34l-20.48-11.14-1.24-.67-.63-.34-.3-.17s-.09-.07-.14-.07Q233.49,302,233,283.75Z"/></clipPath><clipPath id="clip-path-28"><path class="cls-1" d="M334.36,87.05a397.9,397.9,0,0,1,40.05-15.67l22.79,12.4a395.28,395.28,0,0,0-40,15.67Z"/></clipPath><clipPath id="clip-path-29"><path class="cls-1" d="M233.18,258.05,256,270.45q-.61,12.32-.22,25.7L233,283.75Q232.56,270.39,233.18,258.05Z"/></clipPath><clipPath id="clip-path-30"><path class="cls-1" d="M236.21,229.16l22.8,12.4q-1,6.58-1.8,13.35c-.55,5-1,10.21-1.24,15.54L240.35,262l-3.86-2.1-.5-.27-2.37-1.29c-.13-.07-.29-.24-.44-.24q.4-8,1.24-15.54Q235.16,235.75,236.21,229.16Z"/></clipPath><clipPath id="clip-path-31"><path class="cls-1" d="M306,103.07a174.8,174.8,0,0,1,28.35-16l22.8,12.4a174.37,174.37,0,0,0-28.35,16q-4.83,3.5-9.37,7.38l-22.79-12.4Q301.18,106.57,306,103.07Z"/></clipPath><clipPath id="clip-path-32"><path class="cls-1" d="M296.65,110.45l22.79,12.4c-15.86,13.56-29,30.56-39.09,50.69-10.24,20.39-17.39,43.22-21.34,68l-22.8-12.4c3.95-24.8,11.11-47.63,21.34-68C267.66,141,280.79,124,296.65,110.45Z"/></clipPath><clipPath id="clip-path-33"><path class="cls-1" d="M347.89,516l-22.8-12.4c-2.36-1.29-4.65-2.68-6.85-4.15-20.3-13.63-37.95-34.81-52.45-63-11.85-23-20.91-52.64-26.93-88-6.86-40.19-8.65-75.84-5.33-106s11.15-57.63,23.25-81.74,28.55-43.82,48.81-58.5c15.08-10.86,38.19-21.56,68.66-31.82L397,82.86c-30.47,10.26-53.57,21-68.66,31.82-20.26,14.68-36.67,34.35-48.8,58.5s-19.94,51.61-23.26,81.74-1.52,65.76,5.33,106c6,35.32,15.08,64.92,26.94,88,14.5,28.17,32.14,49.35,52.45,63C343.23,513.28,345.52,514.67,347.89,516Z"/></clipPath></defs><title>Ресурс 2</title><g id="Слой_2" data-name="Слой 2"><g id="Слой_1-2" data-name="Слой 1"><g class="cls-2"><polygon points="234.52 490.06 211.73 477.66 350.9 430.83 373.69 443.23 234.52 490.06"/><polygon class="cls-3" points="232.34 415.07 209.54 402.67 264.93 384.03 287.73 396.43 232.34 415.07"/><polygon points="232.18 414.14 209.39 401.74 264.34 383.26 287.14 395.66 232.18 414.14"/><g class="cls-2"><g class="cls-4"><g class="cls-2"><path class="cls-5" d="M167.69,424.21l-22.79-12.4a64.68,64.68,0,0,0,18.95,1.86,62.62,62.62,0,0,0,6.4-.59c9.54-1.34,22.72-4.83,39.3-10.41l22.79,12.4c-16.58,5.58-29.75,9.06-39.29,10.41a63.13,63.13,0,0,1-6.4.59,64.71,64.71,0,0,1-19-1.86"/></g></g></g><g class="cls-2"><g class="cls-6"><g class="cls-2"><path class="cls-5" d="M167.69,424.21l-22.79-12.4a64.68,64.68,0,0,0,18.95,1.86,62.62,62.62,0,0,0,6.4-.59c9.54-1.34,22.72-4.83,39.3-10.41l22.79,12.4c-16.58,5.58-29.75,9.06-39.29,10.41a63.13,63.13,0,0,1-6.4.59,64.71,64.71,0,0,1-19-1.86"/></g></g></g><g class="cls-2"><g class="cls-7"><g class="cls-2"><path class="cls-8" d="M157.59,420.47l-22.79-12.4a53,53,0,0,0,10.1,3.74l22.79,12.4a53,53,0,0,1-10.1-3.74"/><path class="cls-5" d="M167.69,424.21l-22.79-12.4a64.68,64.68,0,0,0,18.95,1.86,62.62,62.62,0,0,0,6.4-.59c9.54-1.34,22.72-4.83,39.3-10.41l22.79,12.4c-16.58,5.58-29.75,9.06-39.29,10.41a63.13,63.13,0,0,1-6.4.59,64.71,64.71,0,0,1-19-1.86"/></g></g></g><g class="cls-2"><g class="cls-9"><g class="cls-2"><path class="cls-8" d="M157.59,420.47l-22.79-12.4a53,53,0,0,0,10.1,3.74l22.79,12.4a53,53,0,0,1-10.1-3.74"/></g></g></g><g class="cls-2"><g class="cls-10"><g class="cls-2"><path d="M156.19,418.62l-22.8-12.4c.61.33,1.22.65,1.84.95L158,419.57c-.62-.31-1.23-.62-1.83-.95"/><path d="M158,419.57l-22.79-12.4a52.39,52.39,0,0,0,10,3.7L168,423.27a52.64,52.64,0,0,1-10-3.7"/><path d="M168,423.27l-22.79-12.4a63.72,63.72,0,0,0,18.71,1.84q2.82-.1,6.3-.59c9.48-1.34,22.6-4.81,39.15-10.38l22.79,12.4c-16.55,5.57-29.67,9-39.15,10.38q-3.47.48-6.29.59A63.79,63.79,0,0,1,168,423.27"/></g></g></g><g class="cls-2"><g class="cls-11"><g class="cls-2"><path class="cls-12" d="M155.74,419.52,133,407.12c.61.33,1.22.65,1.85.95l22.79,12.4c-.62-.3-1.24-.62-1.85-1"/><path class="cls-8" d="M157.59,420.47l-22.79-12.4a53,53,0,0,0,10.1,3.74l22.79,12.4a53,53,0,0,1-10.1-3.74"/></g></g></g><g class="cls-2"><g class="cls-13"><g class="cls-2"><path d="M116.43,490.38,93.64,478c1,.57,2.12,1.13,3.2,1.66l22.8,12.4c-1.09-.53-2.16-1.09-3.21-1.66"/><path d="M119.64,492l-22.8-12.4a98.94,98.94,0,0,0,19,7L138.6,499a98.84,98.84,0,0,1-19-7"/><path d="M138.6,499l-22.79-12.4a134.11,134.11,0,0,0,28.85,4,120.09,120.09,0,0,0,20.54-1.29c13.48-1.89,29-5.8,46.53-11.68l22.79,12.4c-17.49,5.88-33.05,9.79-46.53,11.68A121.12,121.12,0,0,1,167.45,503a134.2,134.2,0,0,1-28.85-4"/></g></g></g><g class="cls-2"><g class="cls-14"><g class="cls-2"><path class="cls-15" d="M116.44,490.38,93.64,478q-3.51-1.91-6.78-4.11c-20.19-13.55-37.75-34.63-52.18-62.67-11.82-23-20.86-52.49-26.86-87.71C1,283.39-.81,247.84,2.5,217.82a252.37,252.37,0,0,1,13.65-59.41l22.79,12.4A252.37,252.37,0,0,0,25.3,230.22c-3.32,30-1.53,65.57,5.31,105.66,6,35.23,15,64.74,26.86,87.72,14.43,28,32,49.12,52.19,62.67q3.25,2.21,6.78,4.11"/></g></g></g><polygon points="373.69 443.23 350.9 430.83 277.65 1.22 300.44 13.62 373.69 443.23"/><polygon class="cls-16" points="287.73 396.43 264.93 384.03 216.68 98.25 239.47 110.65 287.73 396.43"/><polygon points="287.14 395.66 264.34 383.26 215.88 99.01 238.67 111.41 287.14 395.66"/><polygon points="205.62 121.55 182.82 109.15 216.6 97.8 239.39 110.19 205.62 121.55"/><path d="M239.39,110.19l48.78,286.09-55.83,18.79c-16.58,5.58-29.75,9.07-39.29,10.41a63.13,63.13,0,0,1-6.4.59c-12.65.53-23.82-2.12-33.21-7.89S135.07,400.59,126.78,383s-15.35-43.27-21-76.44-7.52-59.87-5.56-79.32,6.69-36,14-49a88.14,88.14,0,0,1,31.08-32c9.88-6.22,30.17-14.52,60.3-24.66Zm-7.21,304,55-18.48L238.67,111.41l-32.9,11.06c-30.05,10.12-50.27,18.38-60.1,24.56A87.23,87.23,0,0,0,115,178.65c-7.24,12.89-11.91,29.23-13.87,48.56s-.1,46,5.54,79,12.69,58.73,20.93,76.21,17.1,29.17,26.36,34.85,20.3,8.31,32.8,7.79q2.82-.11,6.29-.59c9.48-1.34,22.6-4.81,39.15-10.38"/><g class="cls-2"><g class="cls-17"><g class="cls-2"><path d="M155.74,419.52,133,407.12c-.78-.43-1.55-.87-2.31-1.34-9.4-5.76-18.36-17.59-26.66-35.18s-15.34-43.27-21-76.44-7.52-59.87-5.55-79.32a144,144,0,0,1,7.66-35.11l22.79,12.4a144.5,144.5,0,0,0-7.66,35.11c-2,19.45-.1,46.14,5.56,79.32s12.72,58.89,21,76.44,17.26,29.42,26.66,35.18c.75.47,1.52.91,2.3,1.34"/><path d="M107.88,192.13l-22.79-12.4a97,97,0,0,1,5.58-12.49l22.79,12.4a98.44,98.44,0,0,0-5.58,12.49"/><path d="M113.46,179.64l-22.79-12.4q.38-.7.78-1.41A82.79,82.79,0,0,1,96,158.54l22.79,12.4a82.79,82.79,0,0,0-4.59,7.29l-.78,1.41"/><path d="M118.83,170.94,96,158.54A84.84,84.84,0,0,1,102,151l22.79,12.4a84.84,84.84,0,0,0-5.94,7.54"/><path d="M124.77,163.4,102,151a87.67,87.67,0,0,1,7-7.12l22.8,12.4a86.21,86.21,0,0,0-7.06,7.12"/><path d="M131.83,156.28,109,143.88a93.47,93.47,0,0,1,9.24-7.29L141.06,149a92.19,92.19,0,0,0-9.23,7.29"/><path d="M141.06,149l-22.79-12.4c1.38-1,2.8-1.88,4.25-2.78a103.37,103.37,0,0,1,10.59-5.64l22.79,12.4a102,102,0,0,0-10.58,5.64c-1.46.9-2.88,1.82-4.26,2.78"/><path d="M155.9,140.57l-22.79-12.4c11.28-5.31,27.92-11.68,49.71-19l22.8,12.4c-21.79,7.34-38.44,13.71-49.72,19"/></g></g></g><g class="cls-2"><g class="cls-18"><g class="cls-2"><path class="cls-15" d="M116.44,490.38,93.64,478q-3.51-1.91-6.78-4.11c-20.19-13.55-37.75-34.63-52.18-62.67-11.82-23-20.86-52.49-26.86-87.71C1,283.39-.81,247.84,2.5,217.82a252.37,252.37,0,0,1,13.65-59.41l22.79,12.4A252.37,252.37,0,0,0,25.3,230.22c-3.32,30-1.53,65.57,5.31,105.66,6,35.23,15,64.74,26.86,87.72,14.43,28,32,49.12,52.19,62.67q3.25,2.21,6.78,4.11"/></g></g></g><polygon class="cls-3" points="165.29 59.09 142.5 46.69 277.65 1.22 300.44 13.62 165.29 59.09"/><polygon points="165.13 58.17 142.34 45.77 278.36 0 301.16 12.4 165.13 58.17"/><g class="cls-2"><g class="cls-19"><g class="cls-2"><path class="cls-15" d="M116.44,490.38,93.64,478q-3.51-1.91-6.78-4.11c-20.19-13.55-37.75-34.63-52.18-62.67-11.82-23-20.86-52.49-26.86-87.71C1,283.39-.81,247.84,2.5,217.82a252.37,252.37,0,0,1,13.65-59.41l22.79,12.4A252.37,252.37,0,0,0,25.3,230.22c-3.32,30-1.53,65.57,5.31,105.66,6,35.23,15,64.74,26.86,87.72,14.43,28,32,49.12,52.19,62.67q3.25,2.21,6.78,4.11"/></g></g></g><g class="cls-2"><g class="cls-20"><g class="cls-2"><path class="cls-8" d="M98.69,89.52l-22.8-12.4a176.9,176.9,0,0,1,25-14l22.79,12.4a176.74,176.74,0,0,0-25,14"/><path class="cls-5" d="M123.7,75.48l-22.79-12.4A391.81,391.81,0,0,1,142.5,46.69l22.79,12.4A391.81,391.81,0,0,0,123.7,75.48"/></g></g></g><g class="cls-2"><g class="cls-21"><g class="cls-2"><path class="cls-22" d="M72.48,113l-22.8-12.4A150.72,150.72,0,0,1,61.87,88.27l22.8,12.4A149.13,149.13,0,0,0,72.48,113"/><path class="cls-12" d="M84.67,100.67l-22.8-12.4A148.44,148.44,0,0,1,74.1,78.38l1.79-1.26,22.8,12.4c-.61.42-1.21.84-1.79,1.26a146.78,146.78,0,0,0-12.23,9.89"/><path class="cls-8" d="M98.69,89.52l-22.8-12.4a176.9,176.9,0,0,1,25-14l22.79,12.4a176.74,176.74,0,0,0-25,14"/></g></g></g><g class="cls-2"><g class="cls-23"><g class="cls-2"><path class="cls-15" d="M116.44,490.38,93.64,478q-3.51-1.91-6.78-4.11c-20.19-13.55-37.75-34.63-52.18-62.67-11.82-23-20.86-52.49-26.86-87.71C1,283.39-.81,247.84,2.5,217.82a252.37,252.37,0,0,1,13.65-59.41l22.79,12.4A252.37,252.37,0,0,0,25.3,230.22c-3.32,30-1.53,65.57,5.31,105.66,6,35.23,15,64.74,26.86,87.72,14.43,28,32,49.12,52.19,62.67q3.25,2.21,6.78,4.11"/></g></g></g><g class="cls-2"><g class="cls-24"><g class="cls-2"><path class="cls-25" d="M61.48,127l-22.8-12.4a163.12,163.12,0,0,1,11-14L72.48,113a157.79,157.79,0,0,0-11,14"/><path class="cls-22" d="M72.48,113l-22.8-12.4A150.72,150.72,0,0,1,61.87,88.27l22.8,12.4A149.13,149.13,0,0,0,72.48,113"/></g></g></g><g class="cls-2"><g class="cls-26"><g class="cls-2"><path class="cls-15" d="M116.44,490.38,93.64,478q-3.51-1.91-6.78-4.11c-20.19-13.55-37.75-34.63-52.18-62.67-11.82-23-20.86-52.49-26.86-87.71C1,283.39-.81,247.84,2.5,217.82a252.37,252.37,0,0,1,13.65-59.41l22.79,12.4A252.37,252.37,0,0,0,25.3,230.22c-3.32,30-1.53,65.57,5.31,105.66,6,35.23,15,64.74,26.86,87.72,14.43,28,32,49.12,52.19,62.67q3.25,2.21,6.78,4.11"/><path class="cls-27" d="M38.94,170.81l-22.79-12.4a211.61,211.61,0,0,1,9.49-21.95q1.16-2.31,2.37-4.56L50.8,144.3q-1.2,2.25-2.37,4.56a213.79,213.79,0,0,0-9.49,21.95"/></g></g></g><g class="cls-2"><g class="cls-28"><g class="cls-2"><path class="cls-27" d="M38.94,170.81l-22.79-12.4a211.61,211.61,0,0,1,9.49-21.95q1.16-2.31,2.37-4.56L50.8,144.3q-1.2,2.25-2.37,4.56a213.79,213.79,0,0,0-9.49,21.95"/><path class="cls-29" d="M50.8,144.3,28,131.9a170.65,170.65,0,0,1,10.67-17.34L61.48,127A172.52,172.52,0,0,0,50.8,144.3"/><path class="cls-25" d="M61.48,127l-22.8-12.4a163.12,163.12,0,0,1,11-14L72.48,113a157.79,157.79,0,0,0-11,14"/></g></g></g><path class="cls-30" d="M300.44,13.61l73.25,429.62L234.52,490.06c-17.49,5.88-33.05,9.79-46.53,11.68A121.12,121.12,0,0,1,167.45,503c-23.1-.85-42.55-6.49-57.79-16.76-20.2-13.55-37.76-34.63-52.19-62.67-11.82-23-20.85-52.49-26.86-87.72C23.77,295.79,22,260.24,25.3,230.22s11.09-57.37,23.13-81.36S76.78,105.35,96.9,90.78c15-10.8,38-21.46,68.39-31.69ZM287.73,396.43,239.47,110.65l-33.85,10.9c-30.13,10.14-50.42,18.44-60.31,24.66a88.19,88.19,0,0,0-31.07,32c-7.33,13-12,29.51-14,49s-.1,46.14,5.56,79.32,12.72,58.89,21,76.44,17.26,29.42,26.65,35.18,20.57,8.42,33.22,7.89a63.13,63.13,0,0,0,6.4-.59c9.54-1.35,22.71-4.83,39.29-10.41l55.39-18.64"/><path d="M301.16,12.4l73.56,431.45L234.68,491c-17.54,5.9-33.16,9.82-46.69,11.72a121.74,121.74,0,0,1-20.68,1.3c-23.25-.87-42.83-6.54-58.18-16.89-20.31-13.61-38-34.8-52.46-63-11.85-23.06-20.91-52.65-26.94-88-6.84-40.19-8.64-75.83-5.32-106s11.15-57.64,23.26-81.75S76.21,104.67,96.47,90c15.09-10.85,38.19-21.57,68.66-31.82ZM234.52,490.06l139.17-46.83L300.44,13.62,165.29,59.09C134.9,69.32,111.89,80,96.9,90.78c-20.12,14.57-36.43,34.11-48.47,58.08S28.61,200.22,25.3,230.22s-1.53,65.57,5.31,105.66c6,35.23,15,64.74,26.86,87.72,14.43,28,32,49.12,52.18,62.67,15.25,10.26,34.7,15.91,57.8,16.76A121.12,121.12,0,0,0,188,501.74c13.48-1.89,29-5.8,46.53-11.68"/><g class="cls-2"><g class="cls-31"><g class="cls-2"><path d="M116,491.27,93.2,478.87q-3.57-1.94-6.87-4.16c-20.31-13.61-37.95-34.8-52.45-63C22,388.69,13,359.1,6.94,323.78.09,283.59-1.7,248,1.62,217.83a253,253,0,0,1,13.7-59.66l22.8,12.4a252.89,252.89,0,0,0-13.71,59.66c-3.32,30.12-1.52,65.76,5.32,106,6,35.32,15.09,64.91,26.94,88,14.5,28.16,32.15,49.35,52.46,63q3.3,2.22,6.86,4.16"/><path d="M38.12,170.57l-22.8-12.4a214.32,214.32,0,0,1,9.55-22.09c.78-1.55,1.58-3.09,2.39-4.6l22.8,12.4c-.82,1.51-1.61,3.05-2.39,4.6a212.16,212.16,0,0,0-9.55,22.09"/><path d="M50.06,143.88l-22.8-12.4A175.81,175.81,0,0,1,38,114l22.8,12.4a172.14,172.14,0,0,0-10.74,17.45"/><path d="M60.8,126.43,38,114A159.91,159.91,0,0,1,49.08,100l22.79,12.4A159.81,159.81,0,0,0,60.8,126.43"/><path d="M71.87,112.36,49.08,100A153.05,153.05,0,0,1,61.36,87.55L84.15,100a154.71,154.71,0,0,0-12.28,12.41"/><path d="M84.15,100,61.36,87.55a148.91,148.91,0,0,1,12.32-10c.58-.42,1.18-.84,1.79-1.26l22.79,12.4L96.47,90a150.59,150.59,0,0,0-12.32,10"/><path d="M98.26,88.73,75.47,76.33a179.32,179.32,0,0,1,25.2-14.14l22.79,12.4a178.89,178.89,0,0,0-25.2,14.14"/><path d="M123.46,74.59l-22.79-12.4a389.92,389.92,0,0,1,41.67-16.42l22.79,12.4a389.92,389.92,0,0,0-41.67,16.42"/></g></g></g></g><g class="cls-2"><polygon points="466.43 514.74 443.64 502.35 582.81 455.52 605.6 467.92 466.43 514.74"/><polygon class="cls-32" points="464.25 439.76 441.46 427.36 496.85 408.72 519.64 421.12 464.25 439.76"/><polygon points="464.09 438.84 441.3 426.44 496.25 407.94 519.05 420.34 464.09 438.84"/><g class="cls-2"><g class="cls-33"><g class="cls-2"><path class="cls-34" d="M399.61,448.9l-22.79-12.4a64.64,64.64,0,0,0,18.95,1.87,63.59,63.59,0,0,0,6.4-.61c9.54-1.34,22.71-4.82,39.29-10.4l22.79,12.4c-16.58,5.58-29.75,9.06-39.29,10.4a63.69,63.69,0,0,1-6.39.61,64.71,64.71,0,0,1-19-1.87"/></g></g></g><g class="cls-2"><g class="cls-35"><g class="cls-2"><path class="cls-36" d="M387.63,444.2l-22.79-12.4c.61.33,1.23.65,1.85,1l22.8,12.4q-.94-.46-1.86-1"/><path class="cls-37" d="M389.49,445.16l-22.8-12.4a53.31,53.31,0,0,0,10.13,3.74l22.79,12.4a53,53,0,0,1-10.12-3.74"/><path class="cls-34" d="M399.61,448.9l-22.79-12.4a64.64,64.64,0,0,0,18.95,1.87,63.59,63.59,0,0,0,6.4-.61c9.54-1.34,22.71-4.82,39.29-10.4l22.79,12.4c-16.58,5.58-29.75,9.06-39.29,10.4a63.69,63.69,0,0,1-6.39.61,64.71,64.71,0,0,1-19-1.87"/></g></g></g><g class="cls-2"><g class="cls-38"><g class="cls-2"><path d="M388.12,443.32l-22.79-12.4c.6.33,1.21.64,1.82.95l22.8,12.4c-.62-.31-1.23-.62-1.83-.95"/><path d="M390,444.27l-22.8-12.4a51.73,51.73,0,0,0,10,3.68L399.92,448a51.88,51.88,0,0,1-10-3.68"/><path d="M399.92,448l-22.79-12.4a63.82,63.82,0,0,0,18.73,1.85,61.61,61.61,0,0,0,6.3-.6c9.47-1.33,22.59-4.8,39.14-10.36l22.79,12.4c-16.54,5.56-29.66,9-39.14,10.36a61.34,61.34,0,0,1-6.3.6A63.85,63.85,0,0,1,399.92,448"/></g></g></g><g class="cls-2"><g class="cls-39"><g class="cls-2"><path d="M348.36,515.08l-22.8-12.4q1.57.85,3.21,1.65l22.79,12.4c-1.09-.53-2.15-1.08-3.2-1.65"/><path d="M351.56,516.73l-22.79-12.4a98.65,98.65,0,0,0,18.94,7l22.8,12.4a98.75,98.75,0,0,1-18.95-7"/><path d="M370.51,523.69l-22.8-12.4a134.92,134.92,0,0,0,28.86,4A122.22,122.22,0,0,0,397.11,514c13.47-1.9,29-5.8,46.53-11.69l22.79,12.4c-17.49,5.89-33.05,9.79-46.53,11.69a121,121,0,0,1-20.54,1.28,134.21,134.21,0,0,1-28.85-4"/></g></g></g><g class="cls-2"><g class="cls-40"><g class="cls-2"><path class="cls-41" d="M348.35,515.08l-22.79-12.4q-3.53-1.92-6.79-4.12C298.58,485,281,463.92,266.59,435.88c-11.82-23-20.85-52.47-26.86-87.71-6.84-40.09-8.63-75.64-5.31-105.66a251.27,251.27,0,0,1,13.65-59.41l22.79,12.39a252,252,0,0,0-13.65,59.42c-3.31,30-1.52,65.57,5.31,105.66,6,35.24,15,64.74,26.86,87.71,14.44,28,32,49.13,52.19,62.68,2.17,1.47,4.44,2.84,6.78,4.12"/></g></g></g><polygon points="605.6 467.92 582.81 455.52 509.56 25.9 532.36 38.3 605.6 467.92"/><polygon class="cls-42" points="519.64 421.12 496.85 408.72 448.59 122.95 471.38 135.35 519.64 421.12"/><polygon points="519.05 420.34 496.25 407.94 447.79 123.7 470.58 136.1 519.05 420.34"/><polygon points="437.53 146.24 414.74 133.84 448.51 122.48 471.3 134.88 437.53 146.24"/><g class="cls-2"><g class="cls-43"><g class="cls-2"><path class="cls-41" d="M348.35,515.08l-22.79-12.4q-3.53-1.92-6.79-4.12C298.58,485,281,463.92,266.59,435.88c-11.82-23-20.85-52.47-26.86-87.71-6.84-40.09-8.63-75.64-5.31-105.66a251.27,251.27,0,0,1,13.65-59.41l22.79,12.39a252,252,0,0,0-13.65,59.42c-3.31,30-1.52,65.57,5.31,105.66,6,35.24,15,64.74,26.86,87.71,14.44,28,32,49.13,52.19,62.68,2.17,1.47,4.44,2.84,6.78,4.12"/></g></g></g><g class="cls-2"><g class="cls-44"><g class="cls-2"><path d="M387.63,444.2l-22.79-12.4c-.77-.42-1.54-.86-2.29-1.32-9.39-5.77-18.36-17.6-26.65-35.2s-15.35-43.26-21-76.44-7.53-59.85-5.56-79.32A144.11,144.11,0,0,1,317,204.4l22.8,12.4a144.56,144.56,0,0,0-7.68,35.12c-2,19.47-.1,46.16,5.56,79.32s12.72,58.9,21,76.44,17.27,29.43,26.66,35.2q1.13.69,2.28,1.32"/><path d="M339.81,216.8,317,204.4a97.21,97.21,0,0,1,5.59-12.5l22.79,12.4a95.83,95.83,0,0,0-5.58,12.5"/><path d="M345.39,204.3,322.6,191.9c.25-.46.5-.93.76-1.38a84.46,84.46,0,0,1,4.59-7.3l22.79,12.4q-2.46,3.52-4.59,7.29c-.26.46-.51.93-.76,1.39"/><path d="M350.74,195.62,328,183.22a86.17,86.17,0,0,1,5.94-7.53l22.79,12.4a86.17,86.17,0,0,0-5.94,7.53"/><path d="M356.68,188.09l-22.79-12.4a86.21,86.21,0,0,1,7.06-7.12L363.74,181a87.81,87.81,0,0,0-7.06,7.12"/><path d="M363.74,181,341,168.57a90.77,90.77,0,0,1,9.23-7.29L373,173.68a90.77,90.77,0,0,0-9.23,7.29"/><path d="M373,173.68l-22.79-12.4q2.07-1.44,4.25-2.78A102.07,102.07,0,0,1,365,152.87l22.79,12.4a100.76,100.76,0,0,0-10.56,5.63c-1.46.89-2.87,1.82-4.26,2.78"/><path d="M387.79,165.27,365,152.87c11.28-5.32,27.93-11.69,49.73-19l22.8,12.4c-21.81,7.34-38.46,13.71-49.74,19"/></g></g></g><path d="M471.3,134.88,520.08,421l-55.83,18.79c-16.58,5.58-29.75,9.06-39.29,10.4a63.69,63.69,0,0,1-6.39.61c-12.65.52-23.83-2.13-33.22-7.89s-18.37-17.61-26.66-35.2-15.34-43.26-21-76.44-7.52-59.85-5.56-79.32,6.7-36,14-49a88.27,88.27,0,0,1,31.08-32c9.88-6.23,30.17-14.51,60.3-24.66Zm-7.21,304,55-18.5L470.58,136.1l-32.89,11.07c-30.06,10.11-50.28,18.37-60.1,24.56a87.12,87.12,0,0,0-30.69,31.61C339.65,216.22,335,232.57,333,251.91s-.09,46,5.55,79,12.68,58.72,20.92,76.2,17.1,29.17,26.36,34.85,20.3,8.31,32.8,7.79a61.34,61.34,0,0,0,6.3-.6c9.48-1.33,22.6-4.8,39.14-10.36"/><polygon class="cls-32" points="397.2 83.78 374.41 71.38 509.56 25.9 532.36 38.3 397.2 83.78"/><polygon points="397.04 82.86 374.25 70.46 510.29 24.69 533.08 37.09 397.04 82.86"/><g class="cls-2"><g class="cls-45"><g class="cls-2"><path class="cls-41" d="M348.35,515.08l-22.79-12.4q-3.53-1.92-6.79-4.12C298.58,485,281,463.92,266.59,435.88c-11.82-23-20.85-52.47-26.86-87.71-6.84-40.09-8.63-75.64-5.31-105.66a251.27,251.27,0,0,1,13.65-59.41l22.79,12.39a252,252,0,0,0-13.65,59.42c-3.31,30-1.52,65.57,5.31,105.66,6,35.24,15,64.74,26.86,87.71,14.44,28,32,49.13,52.19,62.68,2.17,1.47,4.44,2.84,6.78,4.12"/></g></g></g><g class="cls-2"><g class="cls-46"><g class="cls-2"><path class="cls-41" d="M348.35,515.08l-22.79-12.4q-3.53-1.92-6.79-4.12C298.58,485,281,463.92,266.59,435.88c-11.82-23-20.85-52.47-26.86-87.71-6.84-40.09-8.63-75.64-5.31-105.66a251.27,251.27,0,0,1,13.65-59.41l22.79,12.39a252,252,0,0,0-13.65,59.42c-3.31,30-1.52,65.57,5.31,105.66,6,35.24,15,64.74,26.86,87.71,14.44,28,32,49.13,52.19,62.68,2.17,1.47,4.44,2.84,6.78,4.12"/></g></g></g><g class="cls-2"><g class="cls-47"><g class="cls-2"><path class="cls-34" d="M355.62,100.16l-22.79-12.4a392.54,392.54,0,0,1,41.58-16.38l22.79,12.4a392.54,392.54,0,0,0-41.58,16.38"/></g></g></g><g class="cls-2"><g class="cls-48"><g class="cls-2"><path class="cls-41" d="M348.35,515.08l-22.79-12.4q-3.53-1.92-6.79-4.12C298.58,485,281,463.92,266.59,435.88c-11.82-23-20.85-52.47-26.86-87.71-6.84-40.09-8.63-75.64-5.31-105.66a251.27,251.27,0,0,1,13.65-59.41l22.79,12.39a252,252,0,0,0-13.65,59.42c-3.31,30-1.52,65.57,5.31,105.66,6,35.24,15,64.74,26.86,87.71,14.44,28,32,49.13,52.19,62.68,2.17,1.47,4.44,2.84,6.78,4.12"/></g></g></g><g class="cls-2"><g class="cls-49"><g class="cls-2"><path class="cls-41" d="M348.35,515.08l-22.79-12.4q-3.53-1.92-6.79-4.12C298.58,485,281,463.92,266.59,435.88c-11.82-23-20.85-52.47-26.86-87.71-6.84-40.09-8.63-75.64-5.31-105.66a251.27,251.27,0,0,1,13.65-59.41l22.79,12.39a252,252,0,0,0-13.65,59.42c-3.31,30-1.52,65.57,5.31,105.66,6,35.24,15,64.74,26.86,87.71,14.44,28,32,49.13,52.19,62.68,2.17,1.47,4.44,2.84,6.78,4.12"/></g></g></g><g class="cls-2"><g class="cls-50"><g class="cls-2"><path class="cls-36" d="M316.58,125.35,293.79,113A148.17,148.17,0,0,1,306,103.07l1.79-1.26,22.79,12.4-1.78,1.26a148.32,148.32,0,0,0-12.23,9.88"/><path class="cls-37" d="M330.59,114.21l-22.79-12.4a177.45,177.45,0,0,1,25-14l22.79,12.4a178.59,178.59,0,0,0-25,14"/><path class="cls-34" d="M355.62,100.16l-22.79-12.4a392.54,392.54,0,0,1,41.58-16.38l22.79,12.4a392.54,392.54,0,0,0-41.58,16.38"/></g></g></g><g class="cls-2"><g class="cls-51"><g class="cls-2"><path class="cls-41" d="M348.35,515.08l-22.79-12.4q-3.53-1.92-6.79-4.12C298.58,485,281,463.92,266.59,435.88c-11.82-23-20.85-52.47-26.86-87.71-6.84-40.09-8.63-75.64-5.31-105.66a251.27,251.27,0,0,1,13.65-59.41l22.79,12.39a252,252,0,0,0-13.65,59.42c-3.31,30-1.52,65.57,5.31,105.66,6,35.24,15,64.74,26.86,87.71,14.44,28,32,49.13,52.19,62.68,2.17,1.47,4.44,2.84,6.78,4.12"/><path class="cls-52" d="M270.86,195.49,248.07,183.1a211.74,211.74,0,0,1,9.48-22q1.15-2.29,2.37-4.55l22.8,12.4q-1.22,2.25-2.37,4.55a212.55,212.55,0,0,0-9.49,22"/><path class="cls-53" d="M282.72,169l-22.8-12.4a170.65,170.65,0,0,1,10.67-17.34l22.79,12.4A172.39,172.39,0,0,0,282.72,169"/><path class="cls-54" d="M293.38,151.65l-22.79-12.4a163.12,163.12,0,0,1,11-14l22.8,12.4a161.26,161.26,0,0,0-11,14"/><path class="cls-55" d="M304.39,137.67l-22.8-12.4A152.58,152.58,0,0,1,293.79,113l22.79,12.4a152.46,152.46,0,0,0-12.19,12.32"/><path class="cls-36" d="M316.58,125.35,293.79,113A148.17,148.17,0,0,1,306,103.07l1.79-1.26,22.79,12.4-1.78,1.26a148.32,148.32,0,0,0-12.23,9.88"/></g></g></g><path class="cls-56" d="M532.35,38.3,605.6,467.92,466.43,514.74c-17.49,5.89-33.05,9.79-46.53,11.69a121,121,0,0,1-20.54,1.28c-23.1-.85-42.54-6.48-57.79-16.75-20.2-13.55-37.75-34.64-52.19-62.68-11.82-23-20.85-52.47-26.86-87.71-6.83-40.09-8.62-75.64-5.31-105.66s11.09-57.37,23.14-81.37S308.7,130,328.81,115.47c15-10.81,38-21.47,68.39-31.69ZM519.64,421.12,471.38,135.35l-33.85,10.89c-30.13,10.15-50.42,18.44-60.3,24.66a88.27,88.27,0,0,0-31.08,32c-7.32,13-12,29.52-14,49s-.1,46.16,5.56,79.32,12.72,58.9,21,76.44,17.27,29.43,26.66,35.2,20.57,8.41,33.22,7.89a63.69,63.69,0,0,0,6.39-.61c9.54-1.34,22.71-4.82,39.29-10.4l55.39-18.64"/><g class="cls-2"><g class="cls-57"><g class="cls-2"><path d="M347.89,516l-22.8-12.4c-2.36-1.29-4.65-2.68-6.85-4.15-20.3-13.63-37.95-34.81-52.45-63-11.85-23-20.91-52.64-26.93-88-6.86-40.19-8.65-75.84-5.33-106a253.3,253.3,0,0,1,13.7-59.65l22.8,12.4a252.69,252.69,0,0,0-13.71,59.65c-3.31,30.11-1.52,65.76,5.33,106,6,35.32,15.08,64.92,26.94,88,14.5,28.17,32.14,49.35,52.45,63,2.19,1.48,4.48,2.87,6.85,4.16"/><path d="M270,195.27l-22.8-12.4a214.32,214.32,0,0,1,9.55-22.09q1.17-2.33,2.39-4.6l22.8,12.4c-.82,1.51-1.61,3-2.39,4.6A212.16,212.16,0,0,0,270,195.27"/><path d="M282,168.58l-22.8-12.4a173.06,173.06,0,0,1,10.75-17.46l22.79,12.4A173,173,0,0,0,282,168.58"/><path d="M292.71,151.12l-22.79-12.4A162,162,0,0,1,281,124.64L303.79,137a162,162,0,0,0-11.08,14.08"/><path d="M303.79,137,281,124.64a153.17,153.17,0,0,1,12.29-12.41l22.79,12.4A154.82,154.82,0,0,0,303.79,137"/><path d="M316.08,124.63l-22.79-12.4a150.58,150.58,0,0,1,12.3-10l1.79-1.26,22.8,12.4-1.8,1.26a152.31,152.31,0,0,0-12.3,9.95"/><path d="M330.18,113.42,307.38,101a178.6,178.6,0,0,1,25.18-14.13l22.79,12.4a178.45,178.45,0,0,0-25.17,14.13"/><path d="M355.35,99.29l-22.79-12.4a392.4,392.4,0,0,1,41.69-16.43L397,82.86a393.25,393.25,0,0,0-41.69,16.43"/></g></g></g><path d="M533.08,37.09l73.55,431.46-140,47.11c-17.54,5.91-33.15,9.82-46.68,11.73a122.91,122.91,0,0,1-20.68,1.3c-23.26-.86-42.84-6.54-58.19-16.89-20.31-13.62-38-34.8-52.45-63-11.86-23-20.92-52.64-26.94-88-6.85-40.19-8.64-75.84-5.33-106s11.15-57.63,23.26-81.74,28.54-43.82,48.8-58.5c15.09-10.86,38.19-21.56,68.66-31.82ZM466.43,514.74,605.6,467.91,532.35,38.3,397.2,83.78c-30.38,10.23-53.39,20.88-68.39,31.69-20.11,14.56-36.42,34.11-48.46,58.07s-19.83,51.38-23.14,81.37-1.52,65.57,5.31,105.66c6,35.24,15,64.74,26.86,87.71,14.44,28,32,49.13,52.19,62.68,15.25,10.27,34.69,15.9,57.79,16.75a121,121,0,0,0,20.54-1.28c13.48-1.9,29-5.8,46.53-11.69"/></g></g></g></svg>