<svg xmlns="http://www.w3.org/2000/svg" viewBox="0 0 1400 657"><defs><style>.cls-1{fill:#333;}.cls-2{fill:#e6e6e6;opacity:0.18;}</style></defs><title>Ресурс 8</title><g id="Слой_2" data-name="Слой 2"><g id="Layer_1" data-name="Layer 1"><path class="cls-1" d="M1399.68,657H0V225H1399.68Z"/><path d="M0,342.64c161.68,66.26,271.08,68.76,343.08,56.83,85.39-14.15,110.08-47.26,188.63-46.13,105.49,1.52,120.79,62.08,241.94,86.49,128.72,25.93,259.52-12.61,367.69-44.48,62.89-18.53,162.33-53.94,258.34-119.43V0H0Z"/><path class="cls-2" d="M691.64,140c13.91,9.06,25.11,24.36,19.13,34-8.13,13.12-44.62,10.2-117.55,9-108.73-1.78-164.13-2.44-214.6,9-52.63,11.93-54.71,23.1-92.94,26-61.77,4.69-77.55-38.72-153.09-42-34.13-1.48-59.26,5-69.71-6-8.26-8.71-4.74-25.6,8.2-35,27.19-19.76,73,10.25,135.32-6,38.66-10.08,32.52-24.65,71.07-33,36.27-7.86,69.15-.91,123,11,60.21,13.31,54.73,18.64,90.22,25C588.94,149.61,648.59,112,691.64,140Z"/><path class="cls-2" d="M542.65,96a71.5,71.5,0,0,0,20.5,12c23.12,8.9,46.62,5.26,65.61,3,6.21-.74,72.78-8.33,136.69,0,39.8,5.19,49.4,12.75,53.31,19,7.17,11.49-8.56,18.81-4.11,29,11.42,26.13,131.73,25.47,225.54,11,1.55-.24,7.16.36,12.3-2,6.63-3,11.84-10.17,9.57-16-2.62-6.72-13.21-6.63-16.4-14,0,0-2.08-4.77,1.36-11,7.56-13.68,57.26-14.94,95.68-15,83.4-.12,124.89,5.43,134-8a12.29,12.29,0,0,0,0-13c-6.27-10.29-28.5-12.23-38.28-13-85.11-6.67-127.66-10-129.85-10-9.69,0-57.94-2.3-154.45-7-81.49-4-80.32-5.1-125.76-7-18.89-.79-71.83-2.81-200.93-1C480.57,55.06,407.16,56.08,406,64,405.21,69,428.19,78,542.65,96Z"/><path class="cls-1" d="M1105.8,157c5.82,5.08,15.75,4.13,36.9,4,22.2-.13-5.44,1,60.15,2,39.2.59,58.8.88,76.54,0,24.3-1.2,24.7-2.48,38.27-2,20.33.72,30.16,4,54.68,5,11.68.5,21.24.26,27.34,0,.51-.68.34-55.79,0-56-3.94-2.36-10.49-4.15-28.71-4-21.86.18-32,5.25-57.41,11-21.86,5-15,1.36-58.77,9-26.33,4.6-37.64,7.45-56,6-10-.79-9.21-1.83-24.61-4-29.34-4.14-50.67-7.16-62.87,1C1100.88,135.94,1098.12,150.3,1105.8,157Z"/></g></g></svg>