<?xml version="1.0" encoding="utf-8"?>
<!-- Generator: Adobe Illustrator 23.0.1, SVG Export Plug-In . SVG Version: 6.00 Build 0)  -->
<svg version="1.1" id="Layer_1" xmlns="http://www.w3.org/2000/svg" xmlns:xlink="http://www.w3.org/1999/xlink" x="0px" y="0px"
	 viewBox="0 0 612 792" style="enable-background:new 0 0 612 792;" xml:space="preserve">
<style type="text/css">
	.st0{fill:#572700;}
	.st1{fill:#A7AF39;}
</style>
<g>
	<path class="st0" d="M441.41,458.94v-11.01h-1.63v11.01H441.41L441.41,458.94z M439.78,445.44h1.63v-1.91h-1.63V445.44
		L439.78,445.44z M435.22,459.18c0.77,0,2.22-0.24,2.22-0.24l-0.09-1.43c0,0-1.34,0.11-1.96,0.11c-1.45,0-1.59-0.66-1.59-3.06v-5.14
		h3.48v-1.5h-3.48v-3.37h-1.65v3.37h-1.56v1.5h1.56v5.73C432.16,458.33,432.95,459.18,435.22,459.18L435.22,459.18z M425.72,450.95
		c0,0,1.76-1.12,3.83-1.52v-1.72c-2.14,0.4-3.83,1.67-3.83,1.67v-1.45h-1.65v11.01h1.65V450.95L425.72,450.95z M421.05,454.14
		l0.09-1.27c0-3.62-1.52-5.16-4.43-5.16c-2.8,0-4.63,1.61-4.63,5.79c0,3.75,1.08,5.66,4.38,5.66c1.78,0,4.27-0.35,4.27-0.35
		l-0.04-1.34c0,0-2.38,0.2-4.03,0.2c-2.18,0-2.89-1.21-2.91-3.53H421.05L421.05,454.14z M419.49,452.8h-5.73
		c0-2.58,1.06-3.62,2.95-3.62C418.63,449.18,419.49,450.15,419.49,452.8L419.49,452.8z M409.88,453.3c0-3.95-1.21-5.59-3.99-5.59
		c-1.63,0-3.28,0.99-3.28,0.99v-0.77h-1.65v15.9h1.65v-4.91c0.31,0.07,1.43,0.24,2.47,0.24C408.5,459.16,409.88,457.62,409.88,453.3
		L409.88,453.3z M408.21,453.26c0,3.22-0.79,4.43-3.22,4.43c-0.95,0-2.09-0.18-2.38-0.24v-7.36c0,0,1.61-0.86,3.06-0.86
		C407.26,449.23,408.21,450.28,408.21,453.26L408.21,453.26z M391.16,450.86c0-1.3,1.01-1.65,2.38-1.65c1.41,0,3.86,0.35,3.86,0.35
		l0.04-1.43c0,0-2.33-0.42-3.99-0.42c-2.01,0-3.96,0.79-3.96,3.21c0,2.16,1.19,2.69,3.88,3.11c2.2,0.35,2.78,0.62,2.78,1.76
		c0,1.5-0.97,1.89-2.78,1.89c-1.12,0-3.63-0.37-3.63-0.37l-0.09,1.43c0,0,2.47,0.42,3.88,0.42c2.67,0,4.3-0.86,4.3-3.43
		c0-2.14-1.06-2.73-3.96-3.2C391.66,452.2,391.16,451.89,391.16,450.86L391.16,450.86z M387.79,458.94l-3.75-5.95l3.68-5.07h-1.85
		l-3.28,4.34l-1.7,0.09v-9.23h-1.65v15.82h1.65v-4.96l1.72-0.09l3.31,5.04H387.79L387.79,458.94z M376.22,454.14l0.09-1.27
		c0-3.62-1.52-5.16-4.43-5.16c-2.8,0-4.62,1.61-4.62,5.79c0,3.75,1.08,5.66,4.38,5.66c1.79,0,4.27-0.35,4.27-0.35l-0.04-1.34
		c0,0-2.38,0.2-4.03,0.2c-2.18,0-2.89-1.21-2.91-3.53H376.22L376.22,454.14z M374.66,452.8h-5.73c0-2.58,1.06-3.62,2.95-3.62
		C373.8,449.18,374.66,450.15,374.66,452.8L374.66,452.8z M357.41,458.94h1.63v-11.01h-1.63v8.94c0,0-1.57,0.82-3.02,0.82
		c-2.07,0-2.34-0.99-2.34-4.03v-5.73h-1.63v5.75c0,4.08,0.64,5.48,3.72,5.48c1.54,0,3.26-0.92,3.26-0.92V458.94L357.41,458.94z
		 M345.25,458.94h1.65v-5.73c0-4.08-0.73-5.5-3.72-5.5c-1.52,0-3.35,0.75-3.99,0.99c-0.44-0.53-1.1-0.84-2.03-0.92
		c-0.35-0.04-0.77-0.02-1.21,0.02c-1.43,0.09-2.76,0.88-2.76,0.88v-0.75h-1.65v11.01h1.65v-8.9c0,0,1.48-0.81,2.95-0.81
		c2.01,0,2.32,0.99,2.32,4.03v5.68h1.65v-5.73c0-1.32-0.09-2.67-0.26-3.17c0.04-0.02,1.59-0.81,3.09-0.81
		c2.09,0,2.31,1.12,2.31,4.49V458.94L345.25,458.94z M326.06,458.94h1.63v-11.01h-1.63v8.94c0,0-1.57,0.82-3.02,0.82
		c-2.07,0-2.34-0.99-2.34-4.03v-5.73h-1.63v5.75c0,4.08,0.64,5.48,3.72,5.48c1.54,0,3.26-0.92,3.26-0.92V458.94L326.06,458.94z
		 M315.53,458.66v-10.74h-1.63v10.71c0,1.98-0.51,2.53-2.75,3.81l0.73,1.39C314.8,462.34,315.53,461.37,315.53,458.66L315.53,458.66
		z M313.9,445.37h1.63v-1.94h-1.63V445.37L313.9,445.37z M310.75,453.32c0-3.77-1.36-5.62-4.69-5.62c-3.48,0-4.73,1.78-4.73,5.57
		c0,4.03,1.01,5.88,4.73,5.88C309.78,459.16,310.75,457.14,310.75,453.32L310.75,453.32z M309.05,453.32c0,2.91-0.4,4.36-3,4.36
		s-3.04-1.32-3.04-4.41c0-3.02,0.71-4.08,3.04-4.08C308.17,449.2,309.05,450.39,309.05,453.32L309.05,453.32z M296.74,458.94h1.63
		v-15.82h-1.63V458.94L296.74,458.94z M298.32,460.66l-1.63,0l-0.9,4.56h1.43L298.32,460.66L298.32,460.66z M293.78,454.14
		l0.09-1.27c0-3.62-1.52-5.16-4.43-5.16c-2.8,0-4.62,1.61-4.62,5.79c0,3.75,1.08,5.66,4.38,5.66c1.79,0,4.27-0.35,4.27-0.35
		l-0.04-1.34c0,0-2.38,0.2-4.03,0.2c-2.18,0-2.89-1.21-2.91-3.53H293.78L293.78,454.14z M292.22,452.8h-5.73
		c0-2.58,1.06-3.62,2.95-3.62C291.36,449.18,292.22,450.15,292.22,452.8L292.22,452.8z M276.89,453.24c0-2.91,0.68-3.97,3.22-3.97
		c0.84,0,2.6,0.2,2.6,0.2l0.04-1.43c0,0-1.98-0.33-3-0.33c-3.28,0-4.56,1.54-4.56,5.53c0,4.32,1.01,5.92,4.54,5.92
		c0.99,0,3.06-0.31,3.06-0.31l-0.07-1.43c0,0-1.78,0.2-2.62,0.2C277.39,457.62,276.89,456.45,276.89,453.24L276.89,453.24z
		 M261.03,450.86c0-1.3,1.01-1.65,2.38-1.65c1.41,0,3.85,0.35,3.85,0.35l0.04-1.43c0,0-2.33-0.42-3.99-0.42
		c-2.01,0-3.96,0.79-3.96,3.21c0,2.16,1.19,2.69,3.88,3.11c2.2,0.35,2.78,0.62,2.78,1.76c0,1.5-0.97,1.89-2.78,1.89
		c-1.12,0-3.63-0.37-3.63-0.37l-0.09,1.43c0,0,2.47,0.42,3.88,0.42c2.67,0,4.29-0.86,4.29-3.43c0-2.14-1.05-2.73-3.96-3.2
		C261.53,452.2,261.03,451.89,261.03,450.86L261.03,450.86z M257.41,459.16l0.04-1.3c-0.71-0.09-1.21-0.35-1.28-0.97v-5.6
		c0-2.45-1.14-3.59-3.48-3.59c-1.79,0-4.36,0.51-4.36,0.51l0.07,1.28c0,0,2.6-0.29,4.14-0.29c1.32,0,2.01,0.62,2.01,2.09v0.9
		l-3.46,0.33c-2.27,0.22-3.37,1.15-3.37,3.26c0,2.23,1.08,3.37,3.1,3.37c1.98,0,3.97-0.88,3.97-0.88
		C255.45,458.94,256.25,459.16,257.41,459.16L257.41,459.16z M254.55,457.09c0,0-1.94,0.68-3.46,0.68c-1.12,0-1.7-0.75-1.7-2.03
		c0-1.21,0.55-1.85,1.9-1.98l3.26-0.31V457.09L254.55,457.09z M243.86,459.18c0.77,0,2.23-0.24,2.23-0.24l-0.09-1.43
		c0,0-1.34,0.11-1.96,0.11c-1.45,0-1.59-0.66-1.59-3.06v-5.14h3.48v-1.5h-3.48v-3.37h-1.65v3.37h-1.56v1.5h1.56v5.73
		C240.8,458.33,241.6,459.18,243.86,459.18L243.86,459.18z M235.08,458.94h1.63v-11.01h-1.63v8.94c0,0-1.57,0.82-3.02,0.82
		c-2.07,0-2.34-0.99-2.34-4.03v-5.73h-1.63v5.75c0,4.08,0.64,5.48,3.72,5.48c1.54,0,3.26-0.92,3.26-0.92V458.94L235.08,458.94z
		 M229.28,444.97h6.41v-1.45h-6.41V444.97L229.28,444.97z M225.23,453.3c0-3.95-1.21-5.59-3.99-5.59c-1.63,0-3.28,0.99-3.28,0.99
		v-0.77h-1.65v15.9h1.65v-4.91c0.31,0.07,1.43,0.24,2.47,0.24C223.84,459.16,225.23,457.62,225.23,453.3L225.23,453.3z
		 M223.56,453.26c0,3.22-0.79,4.43-3.22,4.43c-0.95,0-2.09-0.18-2.38-0.24v-7.36c0,0,1.61-0.86,3.06-0.86
		C222.61,449.23,223.56,450.28,223.56,453.26L223.56,453.26z M211.61,459.18c0.77,0,2.23-0.24,2.23-0.24l-0.09-1.43
		c0,0-1.34,0.11-1.96,0.11c-1.45,0-1.59-0.66-1.59-3.06v-5.14h3.48v-1.5h-3.48v-3.37h-1.65v3.37h-1.56v1.5h1.56v5.73
		C208.55,458.33,209.34,459.18,211.61,459.18L211.61,459.18z M205.66,459.16l0.04-1.3c-0.7-0.09-1.21-0.35-1.28-0.97v-5.6
		c0-2.45-1.14-3.59-3.48-3.59c-1.79,0-4.36,0.51-4.36,0.51l0.07,1.28c0,0,2.6-0.29,4.14-0.29c1.32,0,2.01,0.62,2.01,2.09v0.9
		l-3.46,0.33c-2.27,0.22-3.37,1.15-3.37,3.26c0,2.23,1.08,3.37,3.1,3.37c1.98,0,3.97-0.88,3.97-0.88
		C203.71,458.94,204.5,459.16,205.66,459.16L205.66,459.16z M202.8,457.09c0,0-1.94,0.68-3.46,0.68c-1.12,0-1.7-0.75-1.7-2.03
		c0-1.21,0.55-1.85,1.9-1.98l3.26-0.31V457.09L202.8,457.09z"/>
	<polygon class="st1" points="164.57,368.14 195.82,357.99 193.45,350.73 162.22,360.88 162.22,328 154.6,328 154.6,360.88 
		123.32,350.73 121,357.99 152.21,368.14 132.9,394.73 139.08,399.22 158.39,372.63 177.7,399.22 183.88,394.73 164.57,368.14 	"/>
	<path class="st0" d="M356.37,428.49c-0.35-3.03-0.49-5.95-0.49-5.95v-3.08v-2.66v-8.19c0-7.51-3.75-10.09-10.32-10.09
		c-4.28,0-12.08,1.29-12.08,1.29l0.23,6.69c0,0,7.04-0.47,11.38-0.47c1.7,0,2.93,1.06,2.93,2.64v1.47l-6.33,0.41
		c-6.45,0.47-10.21,2.4-10.21,9.03c0,5.87,2.93,9.62,8.74,9.62c3.15,0,6.97-1.19,8.71-1.88c0,0,0.28,0.59,0.68,1.17H356.37
		L356.37,428.49z M348.02,421.56c0,0-3.81,0.88-6.22,0.88c-1.64,0-2.4-1.06-2.4-3.11c0-2.11,1.23-2.87,3.29-2.99l5.34-0.23V421.56
		L348.02,421.56z M318.05,428.49h7.86v-41.06h-7.86V428.49L318.05,428.49z M302.83,428.49h7.86v-41.06h-7.86V428.49L302.83,428.49z
		 M287.62,428.49h7.86v-29.27h-7.86V428.49L287.62,428.49z M287.62,395.4h7.86v-8.04h-7.86V395.4L287.62,395.4z M273.33,428.49h7.86
		v-15.31c0-9.5-2.11-14.66-10.32-14.66c-2.76,0-7.27,1.99-7.27,1.99v-1.29h-7.86v29.27h7.86v-21.64c0,0,3.7-1,5.63-1
		c3.52,0,4.11,2.87,4.11,7.33V428.49L273.33,428.49z M243.53,428.49h6.77c-0.35-3.03-0.49-5.95-0.49-5.95v-3.08v-2.66v-8.19
		c0-7.51-3.75-10.09-10.32-10.09c-4.28,0-12.08,1.29-12.08,1.29l0.23,6.69c0,0,7.04-0.47,11.38-0.47c1.7,0,2.93,1.06,2.93,2.64v1.47
		l-6.34,0.41c-6.45,0.47-10.21,2.4-10.21,9.03c0,5.87,2.93,9.62,8.74,9.62c3.15,0,6.97-1.19,8.71-1.88
		C242.84,427.31,243.13,427.9,243.53,428.49L243.53,428.49z M241.94,421.56c0,0-3.81,0.88-6.22,0.88c-1.64,0-2.4-1.06-2.4-3.11
		c0-2.11,1.23-2.87,3.28-2.99l5.34-0.23V421.56L241.94,421.56z M216.24,428.49l7.04-29.27h-7.98l-4.93,22.76h-1.58l-4.81-22.76
		h-8.15l7.04,29.27H216.24L216.24,428.49z"/>
	<path class="st1" d="M479.06,412.43c0-9.84-3.98-13.82-11.53-13.82c-7.14,0-12.06,3.98-12.06,15.28c0,9.78,2.63,15.05,11.36,15.11
		c4.57,0,11.18-0.82,11.18-0.82l-0.12-2.93c0,0-6.44,0.53-10.71,0.53c-6.15,0-8.14-3.63-8.14-10.54h19.91L479.06,412.43
		L479.06,412.43z M475.55,412.31h-16.51c0-7.61,3.16-10.6,8.49-10.6C473.03,401.71,475.55,404.58,475.55,412.31L475.55,412.31z
		 M443.9,428.41l8.66-29.27h-3.63l-7.67,26.23h-2.28l-7.61-26.23h-3.69l8.55,29.27H443.9L443.9,428.41z M424.22,428.47
		c-0.23-1.96-0.49-5.6-0.49-5.96c0.01-0.42,0-3.09,0-3.09v-1.14h0.01v-10.3c0-6.44-2.87-9.37-8.96-9.37c-3.6,0-8.65,0.69-10.63,0.98
		l0.23,3.13c1.95-0.23,6.91-0.78,10.28-0.78c3.63,0,5.62,1.82,5.62,6.03v2.63l-9.95,1c-5.97,0.53-8.61,3.16-8.61,8.55
		c0,5.74,2.87,8.84,7.79,8.84c5.97,0,11.24-2.28,11.24-2.28c0.12,0.47,0.3,1,0.59,1.76C422.04,428.47,424.22,428.47,424.22,428.47
		L424.22,428.47z M420.28,423.9c0,0-5.39,1.99-10.36,1.99c-2.87,0-4.57-2.05-4.57-5.8c0-3.22,1.46-5.33,5.39-5.68l9.54-0.88V423.9
		L420.28,423.9z M389.09,406.57c0,0,4.24-3.34,9.8-4.45v-3.57c-5.97,1.11-9.8,4.74-9.8,4.74v-4.16h-3.51v29.27h3.51V406.57
		L389.09,406.57z M373.47,429.06c2.05,0,5.91-0.59,5.91-0.59l-0.17-3.1c0,0-3.81,0.41-5.45,0.41c-4.16,0-4.62-1.87-4.62-9.19v-14.23
		h9.78v-3.22h-9.78v-9.19h-3.51v9.19h-4.33v3.22h4.33v16.1C365.62,426.89,367.73,429.06,373.47,429.06L373.47,429.06z
		 M485.99,387.37v41.04h3.51v-41.04H485.99L485.99,387.37z"/>
</g>
</svg>
