<?xml version="1.0" encoding="UTF-8"?>
<svg width="26px" height="25px" viewBox="0 0 26 25" version="1.1" xmlns="http://www.w3.org/2000/svg" xmlns:xlink="http://www.w3.org/1999/xlink">
    <!-- Generator: sketchtool 52.3 (67297) - http://www.bohemiancoding.com/sketch -->
    <title>87103E66-8BFD-4174-AD26-97D1B61AC3A8</title>
    <desc>Created with sketchtool.</desc>
    <g id="Symbols" stroke="none" stroke-width="1" fill="none" fill-rule="evenodd">
        <g id="magnifying-glass" fill="#FFFFFF" fill-rule="nonzero">
            <g id="magnifying-glass-(1)" transform="translate(13.000000, 13.000000) scale(-1, 1) translate(-13.000000, -13.000000) ">
                <path d="M24.8337658,23.7303171 L18.7570304,17.6535817 C20.3871036,15.779552 21.3740186,13.3344422 21.3740186,10.6620093 C21.3740186,4.77933023 16.5891439,0 10.7120093,0 C4.82933023,0 0.05,4.7848747 0.05,10.6620093 C0.05,16.5391439 4.8348747,21.3240186 10.7120093,21.3240186 C13.3844422,21.3240186 15.829552,20.3371036 17.7035817,18.7070304 L23.7803171,24.7837658 C23.9244733,24.9279219 24.1185296,25.0055445 24.3070415,25.0055445 C24.4955533,25.0055445 24.6896097,24.9334664 24.8337658,24.7837658 C25.1220781,24.4954535 25.1220781,24.0186294 24.8337658,23.7303171 Z M1.54146152,10.6620093 C1.54146152,5.60545576 5.65545576,1.49700599 10.7064648,1.49700599 C15.7630184,1.49700599 19.8714682,5.61100022 19.8714682,10.6620093 C19.8714682,15.7130184 15.7630184,19.8325571 10.7064648,19.8325571 C5.65545576,19.8325571 1.54146152,15.7185629 1.54146152,10.6620093 Z" id="Shape"></path>
            </g>
        </g>
    </g>
</svg>