<svg xmlns="http://www.w3.org/2000/svg" width="14" height="11" viewBox="0 0 14 11">
  <defs>
    <style>
      .cls-1 {
        fill: #fff;
        fill-rule: evenodd;
      }
    </style>
  </defs>
  <path id="mail" class="cls-1" d="M1597.34,63h-10.68a1.662,1.662,0,0,0-1.67,1.649v7.692a1.662,1.662,0,0,0,1.67,1.649h10.68a1.654,1.654,0,0,0,1.66-1.649V64.654A1.654,1.654,0,0,0,1597.34,63Zm0,9.534h-10.68a0.239,0.239,0,0,1-.26-0.193V65.671l4.84,4.214a0.529,0.529,0,0,0,.35.134h0.82a0.529,0.529,0,0,0,.35-0.134l4.83-4.214v6.675A0.229,0.229,0,0,1,1597.34,72.539ZM1592,68.573l-4.7-4.112h9.4Z" transform="translate(-1585 -63)"/>
</svg>
