<svg width="619" height="104" viewBox="0 0 619 104" fill="none" xmlns="http://www.w3.org/2000/svg">
<path d="M39.6302 29.6001C49.5236 29.6001 57.0836 32.6801 62.3102 38.8401C67.5369 44.9067 70.1502 53.1667 70.1502 63.6201V100.58H52.3702L52.3702 64.7401C52.3702 52.7934 47.1902 46.8201 36.8302 46.8201C31.5102 46.8201 27.4036 48.4534 24.5102 51.7201C21.6169 54.8934 20.1702 59.7467 20.1702 66.2801L20.1702 100.58H2.39023L2.39023 30.5801H14.2902L15.5502 41.5001C20.4036 33.5667 28.4302 29.6001 39.6302 29.6001ZM160.505 100.58H148.605L147.345 89.6601C142.492 97.5934 134.512 101.56 123.405 101.56C113.512 101.56 105.905 98.5267 100.585 92.4601C95.3583 86.3001 92.7449 77.9934 92.7449 67.5401L92.7449 30.5801H110.525L110.525 66.4201C110.525 78.3667 115.752 84.3401 126.205 84.3401C131.432 84.3401 135.492 82.7534 138.385 79.5801C141.278 76.3134 142.725 71.4134 142.725 64.8801V30.5801L160.505 30.5801L160.505 100.58ZM270.899 29.6001C280.793 29.6001 288.353 32.6801 293.579 38.8401C298.806 44.9067 301.419 53.1667 301.419 63.6201V100.58L283.639 100.58V64.7401C283.639 52.7934 278.459 46.8201 268.099 46.8201C262.779 46.8201 258.673 48.4534 255.779 51.7201C252.886 54.8934 251.439 59.7467 251.439 66.2801V100.58H233.659L233.659 64.7401C233.659 52.7934 228.479 46.8201 218.119 46.8201C212.799 46.8201 208.693 48.4534 205.799 51.7201C202.906 54.8934 201.459 59.7467 201.459 66.2801L201.459 100.58H183.679L183.679 30.5801H195.579L196.839 41.5001C201.693 33.5667 209.719 29.6001 220.919 29.6001C232.866 29.6001 241.173 34.1267 245.839 43.1801C248.079 38.7934 251.393 35.4334 255.779 33.1001C260.166 30.7667 265.206 29.6001 270.899 29.6001ZM342.416 2.58007V37.4401C346.99 32.2134 353.15 29.6001 360.896 29.6001C370.696 29.6001 378.816 33.1001 385.256 40.1001C391.696 47.0067 394.916 55.5001 394.916 65.5801C394.916 75.6601 391.696 84.1534 385.256 91.0601C378.816 97.9667 370.696 101.42 360.896 101.42C351.096 101.42 343.303 97.8267 337.516 90.6401L336.536 100.58H324.636V2.58007L342.416 2.58007ZM371.676 52.1401C368.13 48.5934 363.93 46.8201 359.076 46.8201C354.223 46.8201 349.976 48.5934 346.336 52.1401C342.79 55.5934 341.016 60.0734 341.016 65.5801C341.016 71.0867 342.79 75.5667 346.336 79.0201C349.976 82.4734 354.223 84.2001 359.076 84.2001C364.023 84.2001 368.27 82.4734 371.816 79.0201C375.363 75.5667 377.136 71.0867 377.136 65.5801C377.136 60.0734 375.316 55.5934 371.676 52.1401ZM445.677 29.6001C460.517 29.6001 470.784 35.9001 476.477 48.5001C477.877 51.5801 478.671 55.3134 478.857 59.7001C479.044 63.9934 478.624 67.5867 477.597 70.4801L428.737 70.4801C428.737 75.0534 430.371 78.6467 433.637 81.2601C436.997 83.8734 441.151 85.1801 446.097 85.1801C453.844 85.1801 460.891 83.5467 467.237 80.2801L476.617 90.5001C466.817 97.7801 456.644 101.42 446.097 101.42C435.551 101.42 426.964 98.0601 420.337 91.3401C413.711 84.5267 410.397 75.9401 410.397 65.5801C410.397 55.3134 413.617 46.7734 420.057 39.9601C426.497 33.0534 435.037 29.6001 445.677 29.6001ZM445.677 45.8401C441.104 45.8401 437.277 47.1934 434.197 49.9001C431.211 52.6067 429.624 55.7334 429.437 59.2801L461.497 59.2801C461.497 57.2267 460.937 55.3601 459.817 53.6801C457.017 48.4534 452.304 45.8401 445.677 45.8401ZM542.379 46.8201H535.239C528.892 46.8201 524.039 48.8267 520.679 52.8401C517.319 56.7601 515.639 62.1267 515.639 68.9401V100.58H497.859V30.5801L509.759 30.5801L511.719 45.7001C517.412 34.9667 526.652 29.6001 539.439 29.6001H542.379V46.8201ZM584.736 29.6001H585.856C591.642 29.6001 597.149 30.7667 602.376 33.1001C607.696 35.4334 611.896 38.6067 614.976 42.6201L604.896 52.0001C602.749 49.5734 599.809 47.6134 596.076 46.1201C592.436 44.5334 589.076 43.7401 585.996 43.7401H584.876C581.609 43.8334 578.996 44.4867 577.036 45.7001C575.076 46.9134 574.096 48.5934 574.096 50.7401C574.096 52.7001 574.936 54.1467 576.616 55.0801C578.389 56.0134 581.422 56.6667 585.716 57.0401L590.476 57.6001C607.742 58.8134 616.376 66.0934 616.376 79.4401C616.376 85.7867 613.809 91.0601 608.676 95.2601C603.542 99.3667 596.729 101.42 588.236 101.42H587.536C580.629 101.42 574.142 100.207 568.076 97.7801C562.009 95.2601 557.529 91.9934 554.636 87.9801L564.716 78.4601C566.769 80.8867 569.989 82.9401 574.376 84.6201C578.762 86.2067 583.102 87.0001 587.396 87.0001H588.096C595.096 87.0001 598.596 84.7134 598.596 80.1401C598.596 77.5267 597.662 75.7067 595.796 74.6801C593.929 73.6534 590.849 72.9534 586.556 72.5801L582.636 72.1601C565.089 70.6667 556.316 63.9001 556.316 51.8601C556.316 44.9534 559.022 39.5401 564.436 35.6201C569.849 31.7001 576.616 29.6934 584.736 29.6001Z" fill="#EDF3FF"/>
<path d="M62.3102 38.8401L60.7852 40.134L60.7901 40.1398L60.795 40.1455L62.3102 38.8401ZM70.1502 100.58V102.58H72.1502V100.58H70.1502ZM52.3702 100.58H50.3702V102.58H52.3702V100.58ZM24.5102 51.7201L25.9881 53.0676L25.9979 53.0569L26.0074 53.0461L24.5102 51.7201ZM20.1702 100.58V102.58H22.1702V100.58H20.1702ZM2.39023 100.58H0.390235V102.58H2.39023V100.58ZM2.39023 30.5801V28.5801L0.390235 28.5801V30.5801L2.39023 30.5801ZM14.2902 30.5801L16.2771 30.3508L16.0727 28.5801H14.2902V30.5801ZM15.5502 41.5001L13.5634 41.7293L14.2285 47.4931L17.2563 42.5438L15.5502 41.5001ZM39.6302 31.6001C49.0804 31.6001 56.0229 34.5212 60.7852 40.134L63.8353 37.5461C58.1443 30.8389 49.9668 27.6001 39.6302 27.6001V31.6001ZM60.795 40.1455C65.6237 45.7503 68.1502 53.4969 68.1502 63.6201H72.1502C72.1502 52.8366 69.4501 44.0632 63.8255 37.5347L60.795 40.1455ZM68.1502 63.6201V100.58H72.1502V63.6201H68.1502ZM70.1502 98.5801H52.3702V102.58H70.1502V98.5801ZM54.3702 100.58L54.3702 64.7401H50.3702L50.3702 100.58H54.3702ZM54.3702 64.7401C54.3702 58.5228 53.0285 53.4864 49.9962 49.9898C46.9167 46.4386 42.3987 44.8201 36.8302 44.8201V48.8201C41.6218 48.8201 44.8738 50.1882 46.9743 52.6104C49.122 55.0871 50.3702 59.0107 50.3702 64.7401H54.3702ZM36.8302 44.8201C31.074 44.8201 26.3678 46.6063 23.0131 50.394L26.0074 53.0461C28.4393 50.3005 31.9465 48.8201 36.8302 48.8201V44.8201ZM23.0323 50.3726C19.6651 54.0657 18.1702 59.5002 18.1702 66.2801H22.1702C22.1702 59.9933 23.5687 55.7212 25.9881 53.0676L23.0323 50.3726ZM18.1702 66.2801L18.1702 100.58H22.1702L22.1702 66.2801H18.1702ZM20.1702 98.5801H2.39023V102.58H20.1702V98.5801ZM4.39023 100.58L4.39023 30.5801L0.390235 30.5801L0.390235 100.58H4.39023ZM2.39023 32.5801H14.2902V28.5801H2.39023V32.5801ZM12.3034 30.8093L13.5634 41.7293L17.5371 41.2708L16.2771 30.3508L12.3034 30.8093ZM17.2563 42.5438C21.6673 35.3335 28.9607 31.6001 39.6302 31.6001V27.6001C27.8998 27.6001 19.1398 31.8 13.8442 40.4564L17.2563 42.5438ZM160.505 100.58V102.58H162.505V100.58H160.505ZM148.605 100.58L146.618 100.809L146.822 102.58H148.605V100.58ZM147.345 89.6601L149.332 89.4308L148.667 83.667L145.639 88.6164L147.345 89.6601ZM100.585 92.4601L99.0599 93.754L99.0704 93.7665L99.0812 93.7787L100.585 92.4601ZM92.7449 30.5801V28.5801H90.7449V30.5801H92.7449ZM110.525 30.5801L112.525 30.5801V28.5801L110.525 28.5801V30.5801ZM138.385 79.5801L139.863 80.9276L139.873 80.9169L139.882 80.9062L138.385 79.5801ZM142.725 30.5801V28.5801H140.725V30.5801H142.725ZM160.505 30.5801H162.505V28.5801H160.505V30.5801ZM160.505 98.5801H148.605L148.605 102.58H160.505L160.505 98.5801ZM150.592 100.351L149.332 89.4308L145.358 89.8893L146.618 100.809L150.592 100.351ZM145.639 88.6164C141.225 95.8321 133.973 99.5601 123.405 99.5601L123.405 103.56C135.05 103.56 143.759 99.3547 149.051 90.7038L145.639 88.6164ZM123.405 99.5601C113.946 99.5601 106.945 96.679 102.089 91.1414L99.0812 93.7787C104.865 100.374 113.077 103.56 123.405 103.56L123.405 99.5601ZM102.11 91.1661C97.2708 85.4628 94.7449 77.6615 94.7449 67.5401H90.7449C90.7449 78.3254 93.4458 87.1374 99.0599 93.754L102.11 91.1661ZM94.7449 67.5401L94.7449 30.5801H90.7449L90.7449 67.5401H94.7449ZM92.7449 32.5801H110.525V28.5801H92.7449V32.5801ZM108.525 30.5801L108.525 66.4201H112.525L112.525 30.5801L108.525 30.5801ZM108.525 66.4201C108.525 72.641 109.88 77.6802 112.94 81.1771C116.044 84.725 120.595 86.3401 126.205 86.3401V82.3401C121.361 82.3401 118.072 80.9685 115.95 78.5431C113.783 76.0666 112.525 72.1458 112.525 66.4201H108.525ZM126.205 86.3401C131.862 86.3401 136.51 84.605 139.863 80.9276L136.907 78.2326C134.473 80.9018 131.001 82.3401 126.205 82.3401V86.3401ZM139.882 80.9062C143.228 77.129 144.725 71.666 144.725 64.8801H140.725C140.725 71.1608 139.329 75.4978 136.888 78.254L139.882 80.9062ZM144.725 64.8801V30.5801H140.725V64.8801H144.725ZM142.725 32.5801H160.505V28.5801L142.725 28.5801V32.5801ZM158.505 30.5801L158.505 100.58H162.505L162.505 30.5801H158.505ZM293.579 38.8401L292.054 40.134L292.059 40.1398L292.064 40.1455L293.579 38.8401ZM301.419 100.58V102.58H303.419V100.58H301.419ZM283.639 100.58H281.639V102.58H283.639V100.58ZM255.779 51.7201L257.257 53.0676L257.267 53.0569L257.276 53.0461L255.779 51.7201ZM251.439 100.58V102.58H253.439V100.58H251.439ZM233.659 100.58H231.659V102.58H233.659V100.58ZM205.799 51.7201L207.277 53.0676L207.287 53.0569L207.296 53.0461L205.799 51.7201ZM201.459 100.58V102.58H203.459V100.58H201.459ZM183.679 100.58H181.679V102.58H183.679V100.58ZM183.679 30.5801V28.5801H181.679V30.5801H183.679ZM195.579 30.5801L197.566 30.3508L197.362 28.5801H195.579V30.5801ZM196.839 41.5001L194.852 41.7293L195.518 47.4931L198.545 42.5438L196.839 41.5001ZM245.839 43.1801L244.062 44.0964L245.848 47.5614L247.621 44.0896L245.839 43.1801ZM270.899 31.6001C280.349 31.6001 287.292 34.5212 292.054 40.134L295.104 37.5461C289.413 30.8389 281.236 27.6001 270.899 27.6001V31.6001ZM292.064 40.1455C296.893 45.7503 299.419 53.4969 299.419 63.6201H303.419C303.419 52.8366 300.719 44.0632 295.095 37.5347L292.064 40.1455ZM299.419 63.6201V100.58L303.419 100.58V63.6201H299.419ZM301.419 98.5801L283.639 98.5801V102.58L301.419 102.58V98.5801ZM285.639 100.58V64.7401H281.639V100.58H285.639ZM285.639 64.7401C285.639 58.5228 284.298 53.4864 281.265 49.9898C278.186 46.4386 273.668 44.8201 268.099 44.8201V48.8201C272.891 48.8201 276.143 50.1882 278.243 52.6104C280.391 55.0871 281.639 59.0107 281.639 64.7401H285.639ZM268.099 44.8201C262.343 44.8201 257.637 46.6063 254.282 50.394L257.276 53.0461C259.708 50.3005 263.216 48.8201 268.099 48.8201V44.8201ZM254.301 50.3726C250.934 54.0656 249.439 59.5002 249.439 66.2801H253.439C253.439 59.9933 254.838 55.7212 257.257 53.0676L254.301 50.3726ZM249.439 66.2801V100.58H253.439V66.2801H249.439ZM251.439 98.5801H233.659L233.659 102.58H251.439V98.5801ZM235.659 100.58L235.659 64.7401L231.659 64.7401L231.659 100.58H235.659ZM235.659 64.7401C235.659 58.5228 234.318 53.4864 231.285 49.9898C228.206 46.4386 223.688 44.8201 218.119 44.8201V48.8201C222.911 48.8201 226.163 50.1882 228.263 52.6104C230.411 55.0871 231.659 59.0107 231.659 64.7401L235.659 64.7401ZM218.119 44.8201C212.363 44.8201 207.657 46.6063 204.302 50.394L207.296 53.0461C209.728 50.3005 213.236 48.8201 218.119 48.8201V44.8201ZM204.321 50.3726C200.954 54.0657 199.459 59.5002 199.459 66.2801H203.459C203.459 59.9933 204.858 55.7212 207.277 53.0676L204.321 50.3726ZM199.459 66.2801L199.459 100.58H203.459L203.459 66.2801H199.459ZM201.459 98.5801H183.679L183.679 102.58H201.459L201.459 98.5801ZM185.679 100.58L185.679 30.5801H181.679L181.679 100.58H185.679ZM183.679 32.5801H195.579V28.5801H183.679V32.5801ZM193.592 30.8093L194.852 41.7293L198.826 41.2708L197.566 30.3508L193.592 30.8093ZM198.545 42.5438C202.956 35.3335 210.25 31.6001 220.919 31.6001V27.6001C209.189 27.6001 200.429 31.8 195.133 40.4564L198.545 42.5438ZM220.919 31.6001C226.644 31.6001 231.36 32.6846 235.152 34.7512C238.927 36.8082 241.897 39.8969 244.062 44.0964L247.617 42.2637C245.115 37.4099 241.598 33.7086 237.066 31.2389C232.552 28.7789 227.141 27.6001 220.919 27.6001V31.6001ZM247.621 44.0896C249.672 40.0713 252.69 37.0085 256.719 34.8658L254.84 31.3343C250.095 33.8583 246.486 37.5155 244.058 42.2705L247.621 44.0896ZM256.719 34.8658C260.776 32.7074 265.485 31.6001 270.899 31.6001V27.6001C264.927 27.6001 259.556 28.826 254.84 31.3343L256.719 34.8658ZM342.416 2.58007H344.416V0.580071H342.416V2.58007ZM342.416 37.4401H340.416V42.763L343.921 38.7571L342.416 37.4401ZM385.256 40.1001L383.784 41.4542L383.794 41.464L385.256 40.1001ZM385.256 91.0601L383.794 89.6961L385.256 91.0601ZM337.516 90.6401L339.074 89.3858L336.006 85.5753L335.526 90.4438L337.516 90.6401ZM336.536 100.58V102.58H338.349L338.527 100.776L336.536 100.58ZM324.636 100.58H322.636V102.58H324.636V100.58ZM324.636 2.58007V0.580071H322.636V2.58007H324.636ZM371.676 52.1401L370.262 53.5543L370.281 53.5729L370.3 53.591L371.676 52.1401ZM346.336 52.1401L347.732 53.573L347.732 53.5725L346.336 52.1401ZM346.336 79.0201L344.941 80.453L344.95 80.4621L344.96 80.471L346.336 79.0201ZM371.816 79.0201L373.212 80.453L371.816 79.0201ZM340.416 2.58007V37.4401H344.416V2.58007H340.416ZM343.921 38.7571C348.069 34.0175 353.652 31.6001 360.896 31.6001V27.6001C352.647 27.6001 345.911 30.4093 340.911 36.1231L343.921 38.7571ZM360.896 31.6001C370.156 31.6001 377.736 34.8798 383.784 41.4542L386.728 38.746C379.897 31.3204 371.236 27.6001 360.896 27.6001V31.6001ZM383.794 41.464C389.864 47.9739 392.916 55.9689 392.916 65.5801H396.916C396.916 55.0312 393.529 46.0396 386.719 38.7361L383.794 41.464ZM392.916 65.5801C392.916 75.1912 389.864 83.1862 383.794 89.6961L386.719 92.424C393.529 85.1206 396.916 76.1289 396.916 65.5801H392.916ZM383.794 89.6961C377.748 96.1801 370.165 99.4201 360.896 99.4201V103.42C371.227 103.42 379.885 99.7534 386.719 92.424L383.794 89.6961ZM360.896 99.4201C351.658 99.4201 344.455 96.0682 339.074 89.3858L335.959 91.8944C342.151 99.5853 350.534 103.42 360.896 103.42V99.4201ZM335.526 90.4438L334.546 100.384L338.527 100.776L339.507 90.8363L335.526 90.4438ZM336.536 98.5801H324.636V102.58H336.536V98.5801ZM326.636 100.58V2.58007H322.636V100.58H326.636ZM324.636 4.58007L342.416 4.58007V0.580071L324.636 0.580071V4.58007ZM373.091 50.7259C369.183 46.8181 364.48 44.8201 359.076 44.8201V48.8201C363.38 48.8201 367.077 50.3687 370.262 53.5543L373.091 50.7259ZM359.076 44.8201C353.675 44.8201 348.935 46.8161 344.941 50.7076L347.732 53.5725C351.018 50.3707 354.771 48.8201 359.076 48.8201V44.8201ZM344.941 50.7071C340.962 54.5811 339.016 59.6005 339.016 65.5801H343.016C343.016 60.5464 344.617 56.6057 347.732 53.573L344.941 50.7071ZM339.016 65.5801C339.016 71.5597 340.962 76.5791 344.941 80.453L347.732 77.5871C344.617 74.5544 343.016 70.6138 343.016 65.5801H339.016ZM344.96 80.471C348.957 84.2637 353.692 86.2001 359.076 86.2001V82.2001C354.754 82.2001 350.995 80.6832 347.713 77.5691L344.96 80.471ZM359.076 86.2001C364.545 86.2001 369.292 84.2697 373.212 80.453L370.421 77.5871C367.248 80.6772 363.501 82.2001 359.076 82.2001V86.2001ZM373.212 80.453C377.19 76.5791 379.136 71.5597 379.136 65.5801H375.136C375.136 70.6138 373.536 74.5544 370.421 77.5871L373.212 80.453ZM379.136 65.5801C379.136 59.584 377.132 54.5591 373.053 50.6891L370.3 53.591C373.501 56.6277 375.136 60.5628 375.136 65.5801H379.136ZM476.477 48.5001L474.655 49.3236L474.657 49.3277L476.477 48.5001ZM478.857 59.7001L476.859 59.7851L476.859 59.7869L478.857 59.7001ZM477.597 70.4801V72.4801H479.01L479.482 71.1489L477.597 70.4801ZM428.737 70.4801V68.4801H426.737V70.4801H428.737ZM433.637 81.2601L432.388 82.8218L432.399 82.8304L432.409 82.8388L433.637 81.2601ZM467.237 80.2801L468.711 78.9277L467.679 77.8034L466.322 78.5018L467.237 80.2801ZM476.617 90.5001L477.81 92.1056L479.591 90.7824L478.091 89.1477L476.617 90.5001ZM420.337 91.3401L418.904 92.7346L418.913 92.7444L420.337 91.3401ZM420.057 39.9601L421.511 41.3339L421.52 41.324L420.057 39.9601ZM434.197 49.9001L432.877 48.3977L432.866 48.4078L432.854 48.4181L434.197 49.9001ZM429.437 59.2801L427.44 59.175L427.329 61.2801H429.437V59.2801ZM461.497 59.2801V61.2801H463.497V59.2801H461.497ZM459.817 53.6801L458.054 54.6245L458.1 54.7094L458.153 54.7895L459.817 53.6801ZM445.677 31.6001C452.814 31.6001 458.708 33.1132 463.461 36.0297C468.205 38.9406 471.948 43.3328 474.655 49.3236L478.3 47.6765C475.313 41.0673 471.076 36.0096 465.553 32.6204C460.04 29.237 453.381 27.6001 445.677 27.6001V31.6001ZM474.657 49.3277C475.924 52.1156 476.68 55.5823 476.859 59.7851L480.855 59.615C480.661 55.0446 479.831 51.0446 478.298 47.6725L474.657 49.3277ZM476.859 59.7869C477.039 63.9187 476.626 67.2363 475.712 69.8113L479.482 71.1489C480.622 67.9372 481.049 64.0681 480.855 59.6132L476.859 59.7869ZM477.597 68.4801L428.737 68.4801V72.4801L477.597 72.4801V68.4801ZM426.737 70.4801C426.737 75.5963 428.598 79.7903 432.388 82.8218L434.887 79.6983C432.143 77.5032 430.737 74.5106 430.737 70.4801H426.737ZM432.409 82.8388C436.176 85.768 440.781 87.1801 446.097 87.1801V83.1801C441.52 83.1801 437.819 81.9788 434.865 79.6814L432.409 82.8388ZM446.097 87.1801C454.135 87.1801 461.499 85.4829 468.153 82.0583L466.322 78.5018C460.282 81.6106 453.553 83.1801 446.097 83.1801V87.1801ZM465.764 81.6324L475.144 91.8524L478.091 89.1477L468.711 78.9277L465.764 81.6324ZM475.425 88.8946C465.913 95.9603 456.149 99.4201 446.097 99.4201V103.42C457.139 103.42 467.721 99.5998 477.81 92.1056L475.425 88.8946ZM446.097 99.4201C436.017 99.4201 427.966 96.2282 421.761 89.9358L418.913 92.7444C425.961 99.8919 435.084 103.42 446.097 103.42V99.4201ZM421.771 89.9456C415.542 83.541 412.397 75.4707 412.397 65.5801L408.397 65.5801C408.397 76.4095 411.879 85.5125 418.904 92.7345L421.771 89.9456ZM412.397 65.5801C412.397 55.7714 415.456 47.7391 421.511 41.3339L418.604 38.5862C411.778 45.8077 408.397 54.8554 408.397 65.5801L412.397 65.5801ZM421.52 41.324C427.532 34.8765 435.514 31.6001 445.677 31.6001V27.6001C434.56 27.6001 425.463 31.2303 418.595 38.5961L421.52 41.324ZM445.677 43.8401C440.678 43.8401 436.365 45.3327 432.877 48.3977L435.517 51.4024C438.19 49.0541 441.53 47.8401 445.677 47.8401V43.8401ZM432.854 48.4181C429.534 51.4273 427.658 55.0284 427.44 59.175L431.435 59.3852C431.59 56.4385 432.888 53.7861 435.54 51.382L432.854 48.4181ZM429.437 61.2801L461.497 61.2801V57.2801L429.437 57.2801V61.2801ZM463.497 59.2801C463.497 56.839 462.824 54.5851 461.481 52.5707L458.153 54.7895C459.05 56.1351 459.497 57.6145 459.497 59.2801H463.497ZM461.58 52.7356C460.018 49.8187 457.878 47.5625 455.152 46.0509C452.438 44.546 449.253 43.8401 445.677 43.8401V47.8401C448.728 47.8401 451.213 48.4408 453.212 49.5492C455.2 50.651 456.817 52.3148 458.054 54.6245L461.58 52.7356ZM542.379 46.8201V48.8201L544.379 48.8201V46.8201L542.379 46.8201ZM520.679 52.8401L522.198 54.1417L522.205 54.1328L522.213 54.1239L520.679 52.8401ZM515.639 100.58V102.58H517.639V100.58H515.639ZM497.859 100.58H495.859V102.58H497.859V100.58ZM497.859 30.5801V28.5801H495.859V30.5801H497.859ZM509.759 30.5801L511.742 30.323L511.516 28.5801H509.759V30.5801ZM511.719 45.7001L509.736 45.9572L510.543 52.1853L513.486 46.6373L511.719 45.7001ZM542.379 29.6001H544.379V27.6001H542.379V29.6001ZM542.379 44.8201H535.239V48.8201H542.379V44.8201ZM535.239 44.8201C528.439 44.8201 522.966 46.9927 519.145 51.5562L522.213 54.1239C525.112 50.6608 529.346 48.8201 535.239 48.8201V44.8201ZM519.16 51.5385C515.402 55.9233 513.639 61.804 513.639 68.9401H517.639C517.639 62.4494 519.236 57.5968 522.198 54.1417L519.16 51.5385ZM513.639 68.9401V100.58H517.639V68.9401H513.639ZM515.639 98.5801H497.859V102.58H515.639V98.5801ZM499.859 100.58V30.5801H495.859V100.58H499.859ZM497.859 32.5801H509.759V28.5801L497.859 28.5801V32.5801ZM507.776 30.8372L509.736 45.9572L513.702 45.443L511.742 30.323L507.776 30.8372ZM513.486 46.6373C516.182 41.5544 519.669 37.8255 523.923 35.3545C528.183 32.8803 533.329 31.6001 539.439 31.6001V27.6001C532.762 27.6001 526.895 29.0031 521.914 31.8956C516.929 34.7913 512.949 39.1124 509.952 44.7629L513.486 46.6373ZM539.439 31.6001H542.379V27.6001H539.439V31.6001ZM540.379 29.6001V46.8201L544.379 46.8201V29.6001H540.379ZM584.736 29.6001V27.6001H584.724L584.713 27.6002L584.736 29.6001ZM602.376 33.1001L601.56 34.9264L601.572 34.9317L602.376 33.1001ZM614.976 42.6201L616.338 44.0842L617.669 42.8452L616.562 41.4024L614.976 42.6201ZM604.896 52.0001L603.398 53.3252L604.757 54.8614L606.258 53.4642L604.896 52.0001ZM596.076 46.1201L595.276 47.9535L595.304 47.9657L595.333 47.977L596.076 46.1201ZM584.876 43.7401V41.7401H584.847L584.818 41.7409L584.876 43.7401ZM577.036 45.7001L575.983 43.9995L577.036 45.7001ZM576.616 55.0801L575.644 56.8284L575.664 56.8394L575.684 56.8499L576.616 55.0801ZM585.716 57.0401L585.949 55.0538L585.919 55.0502L585.889 55.0476L585.716 57.0401ZM590.476 57.6001L590.242 59.5864L590.289 59.5919L590.335 59.5952L590.476 57.6001ZM608.676 95.2601L609.925 96.8218L609.934 96.8149L609.942 96.808L608.676 95.2601ZM568.076 97.7801L567.308 99.6271L567.32 99.6321L567.333 99.637L568.076 97.7801ZM554.636 87.9801L553.262 86.5261L551.989 87.7288L553.013 89.1497L554.636 87.9801ZM564.716 78.4601L566.242 77.1682L564.878 75.5557L563.342 77.0061L564.716 78.4601ZM574.376 84.6201L573.66 86.4878L573.678 86.4945L573.695 86.5008L574.376 84.6201ZM595.796 74.6801L594.832 76.4325L595.796 74.6801ZM586.556 72.5801L586.342 74.5687L586.362 74.5708L586.382 74.5726L586.556 72.5801ZM582.636 72.1601L582.849 70.1715L582.827 70.1691L582.805 70.1673L582.636 72.1601ZM564.436 35.6201L565.609 37.24L564.436 35.6201ZM584.736 31.6001H585.856V27.6001H584.736V31.6001ZM585.856 31.6001C591.364 31.6001 596.593 32.7088 601.56 34.9264L603.191 31.2738C597.705 28.8246 591.92 27.6001 585.856 27.6001V31.6001ZM601.572 34.9317C606.63 37.1499 610.543 40.1291 613.389 43.8377L616.562 41.4024C613.248 37.0843 608.761 33.7169 603.179 31.2685L601.572 34.9317ZM613.613 41.1559L603.533 50.5359L606.258 53.4642L616.338 44.0842L613.613 41.1559ZM606.394 50.6749C603.996 47.9649 600.773 45.845 596.818 44.2631L595.333 47.977C598.845 49.3818 601.502 51.1819 603.398 53.3252L606.394 50.6749ZM596.875 44.2867C593.052 42.6206 589.418 41.7401 585.996 41.7401V45.7401C588.733 45.7401 591.819 46.4462 595.276 47.9535L596.875 44.2867ZM585.996 41.7401H584.876V45.7401H585.996V41.7401ZM584.818 41.7409C581.339 41.8403 578.342 42.539 575.983 43.9995L578.088 47.4006C579.649 46.4345 581.879 45.8265 584.933 45.7393L584.818 41.7409ZM575.983 43.9995C573.486 45.545 572.096 47.8413 572.096 50.7401H576.096C576.096 49.3455 576.665 48.2818 578.088 47.4006L575.983 43.9995ZM572.096 50.7401C572.096 52.0117 572.37 53.2222 572.996 54.2993C573.623 55.3786 574.537 56.2131 575.644 56.8284L577.587 53.3318C577.014 53.0137 576.668 52.6582 576.455 52.2908C576.241 51.9213 576.096 51.4284 576.096 50.7401H572.096ZM575.684 56.8499C577.837 57.9832 581.219 58.6566 585.542 59.0326L585.889 55.0476C581.625 54.6769 578.94 54.0436 577.547 53.3102L575.684 56.8499ZM585.482 59.0264L590.242 59.5864L590.709 55.6138L585.949 55.0538L585.482 59.0264ZM590.335 59.5952C598.758 60.187 604.75 62.243 608.611 65.499C612.394 68.6887 614.376 73.2376 614.376 79.4401H618.376C618.376 72.2958 616.041 66.5315 611.19 62.4411C606.418 58.4172 599.46 56.2265 590.616 55.605L590.335 59.5952ZM614.376 79.4401C614.376 85.1564 612.102 89.8723 607.409 93.7122L609.942 96.808C615.516 92.2479 618.376 86.4171 618.376 79.4401H614.376ZM607.426 93.6983C602.74 97.4475 596.409 99.4201 588.236 99.4201V103.42C597.049 103.42 604.345 101.286 609.925 96.8218L607.426 93.6983ZM588.236 99.4201H587.536V103.42H588.236V99.4201ZM587.536 99.4201C580.869 99.4201 574.635 98.25 568.818 95.9231L567.333 99.637C573.649 102.164 580.389 103.42 587.536 103.42V99.4201ZM568.843 95.9331C563.009 93.5099 558.874 90.4398 556.258 86.8105L553.013 89.1497C556.183 93.5471 561.009 97.0103 567.308 99.6271L568.843 95.9331ZM556.009 89.4341L566.089 79.9141L563.342 77.0061L553.262 86.5261L556.009 89.4341ZM563.189 79.752C565.539 82.5298 569.098 84.7407 573.66 86.4878L575.091 82.7524C570.879 81.1395 567.999 79.2437 566.242 77.1682L563.189 79.752ZM573.695 86.5008C578.281 88.1596 582.851 89.0001 587.396 89.0001V85.0001C583.353 85.0001 579.243 84.2539 575.056 82.7393L573.695 86.5008ZM587.396 89.0001H588.096V85.0001H587.396V89.0001ZM588.096 89.0001C591.75 89.0001 594.837 88.4148 597.064 86.9594C599.44 85.4074 600.596 83.0268 600.596 80.1401H596.596C596.596 81.8267 596.001 82.8761 594.877 83.6107C593.604 84.442 591.442 85.0001 588.096 85.0001V89.0001ZM600.596 80.1401C600.596 76.993 599.42 74.391 596.759 72.9276L594.832 76.4325C595.904 77.0225 596.596 78.0605 596.596 80.1401H600.596ZM596.759 72.9276C594.507 71.689 591.073 70.9654 586.729 70.5876L586.382 74.5726C590.624 74.9414 593.35 75.6178 594.832 76.4325L596.759 72.9276ZM586.769 70.5915L582.849 70.1715L582.422 74.1487L586.342 74.5687L586.769 70.5915ZM582.805 70.1673C574.208 69.4356 568.069 67.4297 564.117 64.3814C560.268 61.413 558.316 57.322 558.316 51.8601H554.316C554.316 58.4382 556.749 63.7505 561.674 67.5488C566.495 71.2671 573.516 73.3912 582.466 74.1529L582.805 70.1673ZM558.316 51.8601C558.316 45.5694 560.735 40.7692 565.609 37.24L563.263 34.0002C557.31 38.3109 554.316 44.3374 554.316 51.8601H558.316ZM565.609 37.24C570.621 33.6106 576.962 31.6896 584.759 31.5999L584.713 27.6002C576.27 27.6973 569.077 29.7896 563.263 34.0002L565.609 37.24Z" fill="white"/>
</svg>
