<svg xmlns="http://www.w3.org/2000/svg" viewBox="0 0 83.96 71.04"><defs><style>.cls-1{fill:#010002;}</style></defs><title>people</title><g id="Слой_2" data-name="Слой 2"><g id="Layer_1" data-name="Layer 1"><ellipse class="cls-1" cx="59.86" cy="10.07" rx="7.65" ry="9.77"/><path class="cls-1" d="M77.31,19.87a24.12,24.12,0,0,1-16,6.36c-2.4-2.72-6.13-3.71-9.27-.52-3.53-7.73-7.2-15.36-10.92-23-3.1-6.35-11-.51-7.87,5.88,4,8.19,8,16.44,11.76,24.8Q41.21,37.7,37.33,42c-7.14-7.83-16.2-10.17-25.46-5.8C6.4,38.75,8.76,50,14.29,47.39c6.17-2.91,11.42-2,16.11,2.47l-.09.13A42.27,42.27,0,0,0,2.12,60c-4.93,4-.36,14.13,4.6,10.07,7.85-6.45,16.77-9.42,26-8.52,2.43,1.91,5.67,2.24,8.41-.79L61.54,38.21c.09-.1.16-.23.25-.33a30.88,30.88,0,0,0,20.11-8C86.73,25.73,82.18,15.64,77.31,19.87Z"/></g></g></svg>