<?xml version="1.0" encoding="UTF-8"?>
<svg width="30px" height="30px" viewBox="0 0 30 30" version="1.1" xmlns="http://www.w3.org/2000/svg" xmlns:xlink="http://www.w3.org/1999/xlink">
    <!-- Generator: sketchtool 52.3 (67297) - http://www.bohemiancoding.com/sketch -->
    <title>0A398F79-D090-4E23-81C1-61C91BFBE542</title>
    <desc>Created with sketchtool.</desc>
    <g id="Symbols" stroke="none" stroke-width="1" fill="none" fill-rule="evenodd">
        <g id="phone" fill="#1A0D00">
            <g>
                <path d="M2.38468085,5.92340426 C2.35978723,6.26808511 2.39297872,7.33404255 3.28914894,9.66382979 L3.31787234,9.74680851 C4.51340426,14.0425532 13.1731915,23.5148936 18.0261702,25.8382979 C21.6548936,27.5744681 23.7631915,27.906383 24.1717021,27.7978723 C24.6389362,27.612766 26.0017021,25.9787234 26.5831915,25.2829787 C26.8653191,24.9446809 27.1187234,24.6382979 27.3204255,24.4148936 C27.4895745,24.2234043 27.4831915,24.1148936 27.4812766,24.0765957 C27.4704255,23.8914894 27.2980851,23.6680851 27.1921277,23.5659574 L22.3155319,20.2595745 C21.6446809,20.0553191 21.1187234,20.2212766 21.0191489,20.2531915 L17.5474468,22.1425532 L17.0610638,21.7978723 C11.7510638,18.0510638 8.47595745,12.9382979 8.3387234,12.7212766 L8.05212766,12.2680851 L8.28829787,11.7829787 C8.33808511,11.687234 9.50808511,9.30638298 10.0761702,8.34255319 C10.2217021,8.09361702 9.99191489,7.33404255 9.69702128,6.84893617 C8.79893617,5.45744681 7.13553191,3.03829787 6.55787234,2.54680851 C6.29808511,2.32340426 5.9712766,2.49574468 5.84489362,2.5787234 C4.39787234,3.82978723 2.72744681,5.41914894 2.38468085,5.92340426 Z M23.9968085,29.7191489 C22.3244681,29.7191489 19.5057447,28.6659574 17.1995745,27.5617021 C11.9234043,25.0404255 2.85255319,15.0702128 1.48659574,10.3085106 C0.675319149,8.19574468 0.336382979,6.53617021 0.507446809,5.50851064 C0.560425532,5.1893617 0.671489362,4.52553191 4.63021277,1.09148936 L4.68255319,1.05319149 C5.25,0.625531915 6.63255319,0.0829787234 7.80446809,1.09148936 C8.7587234,1.90851064 10.9002128,5.18297872 11.3195745,5.82765957 C11.46,6.05744681 12.5502128,7.9212766 11.7248936,9.31914894 C11.3431915,9.96382979 10.6282979,11.3808511 10.2529787,12.1340426 C11.117234,13.3787234 13.8204255,17.0234043 17.6859574,19.8829787 L20.2097872,18.5170213 C20.3419149,18.4595745 21.5476596,17.9425532 23.0655319,18.4914894 L23.2806383,18.6 L28.4055319,22.0787234 C28.4987234,22.1553191 29.316383,22.8765957 29.3910638,23.9361702 C29.4217021,24.3765957 29.3348936,25.0340426 28.7476596,25.6914894 C28.5574468,25.9021277 28.3187234,26.1893617 28.0538298,26.5085106 C26.6757447,28.1553191 25.6314894,29.3489362 24.737234,29.6234043 C24.5285106,29.687234 24.2789362,29.7191489 23.9968085,29.7191489 Z"></path>
            </g>
        </g>
    </g>
</svg>