<?xml version="1.0" encoding="UTF-8"?>
<svg width="25px" height="25px" viewBox="0 0 25 25" version="1.1" xmlns="http://www.w3.org/2000/svg" xmlns:xlink="http://www.w3.org/1999/xlink">
    <!-- Generator: sketchtool 52.3 (67297) - http://www.bohemiancoding.com/sketch -->
    <title>003C9FAF-E923-4ED2-A40F-F01508086CA1</title>
    <desc>Created with sketchtool.</desc>
    <g id="Page-1" stroke="none" stroke-width="1" fill="none" fill-rule="evenodd">
        <g id="Page-Offers" transform="translate(-943.000000, -567.000000)" fill="#FFFFFF">
            <g id="Header">
                <g id="phone-copy" transform="translate(943.000000, 567.000000)">
                    <g id="phone">
                        <path d="M1.98723404,4.93617021 C1.96648936,5.22340426 1.99414894,6.11170213 2.74095745,8.05319149 L2.76489362,8.12234043 C3.76117021,11.7021277 10.9776596,19.5957447 15.0218085,21.5319149 C18.0457447,22.9787234 19.8026596,23.2553191 20.1430851,23.1648936 C20.5324468,23.0106383 21.6680851,21.6489362 22.1526596,21.0691489 C22.387766,20.787234 22.5989362,20.5319149 22.7670213,20.3457447 C22.9079787,20.1861702 22.9026596,20.0957447 22.9010638,20.0638298 C22.8920213,19.9095745 22.7484043,19.7234043 22.6601064,19.6382979 L18.5962766,16.8829787 C18.037234,16.712766 17.5989362,16.8510638 17.5159574,16.8776596 L14.6228723,18.4521277 L14.2175532,18.1648936 C9.79255319,15.0425532 7.06329787,10.7819149 6.94893617,10.6010638 L6.71010638,10.2234043 L6.90691489,9.81914894 C6.94840426,9.7393617 7.92340426,7.75531915 8.39680851,6.95212766 C8.51808511,6.74468085 8.32659574,6.11170213 8.08085106,5.70744681 C7.33244681,4.54787234 5.9462766,2.53191489 5.46489362,2.12234043 C5.24840426,1.93617021 4.97606383,2.07978723 4.87074468,2.14893617 C3.66489362,3.19148936 2.27287234,4.51595745 1.98723404,4.93617021 Z M19.9973404,24.7659574 C18.6037234,24.7659574 16.2547872,23.8882979 14.3329787,22.9680851 C9.93617021,20.8670213 2.37712766,12.5585106 1.23882979,8.59042553 C0.562765957,6.82978723 0.280319149,5.44680851 0.42287234,4.59042553 C0.467021277,4.32446809 0.559574468,3.7712766 3.85851064,0.909574468 L3.90212766,0.877659574 C4.375,0.521276596 5.52712766,0.0691489362 6.5037234,0.909574468 C7.29893617,1.59042553 9.08351064,4.31914894 9.43297872,4.85638298 C9.55,5.04787234 10.4585106,6.60106383 9.77074468,7.76595745 C9.45265957,8.30319149 8.85691489,9.48404255 8.54414894,10.1117021 C9.2643617,11.1489362 11.5170213,14.1861702 14.7382979,16.5691489 L16.8414894,15.4308511 C16.9515957,15.3829787 17.956383,14.9521277 19.2212766,15.4095745 L19.4005319,15.5 L23.6712766,18.3989362 C23.7489362,18.462766 24.4303191,19.0638298 24.4925532,19.9468085 C24.5180851,20.3138298 24.4457447,20.8617021 23.956383,21.4095745 C23.7978723,21.5851064 23.5989362,21.8244681 23.3781915,22.0904255 C22.2297872,23.462766 21.3595745,24.4574468 20.6143617,24.6861702 C20.4404255,24.7393617 20.2324468,24.7659574 19.9973404,24.7659574 Z"></path>
                    </g>
                </g>
            </g>
        </g>
    </g>
</svg>