<?xml version="1.0" encoding="UTF-8"?>
<svg width="31px" height="37px" viewBox="0 0 31 37" version="1.1" xmlns="http://www.w3.org/2000/svg" xmlns:xlink="http://www.w3.org/1999/xlink">
    <!-- Generator: sketchtool 52.3 (67297) - http://www.bohemiancoding.com/sketch -->
    <title>A9B5B5EE-9245-412A-8649-C7147FB186A4</title>
    <desc>Created with sketchtool.</desc>
    <g id="Symbols" stroke="none" stroke-width="1" fill="none" fill-rule="evenodd">
        <g id="piggy-bank" fill-rule="nonzero">
            <g id="Shape">
                <path d="M29.589248,19.6364872 L28.5459262,19.6364872 C27.8552766,17.4622734 26.5107141,15.5447377 24.7106167,14.0499657 C24.7106167,13.9820215 24.695922,13.906528 24.6812273,13.8385838 C24.3065132,12.4797002 24.7693953,11.2340569 25.3130982,10.3432332 C25.6951597,9.72418622 25.2028882,8.91640541 24.4901966,9.00699765 C22.8958246,9.21083019 21.8010715,9.81477846 21.0442958,10.4866709 C20.5226349,10.9547308 20.1552681,11.5737778 19.9936267,12.260769 C18.8547896,17.1150032 14.6006818,20.7311435 9.51632508,20.7311435 C7.05496741,20.7311435 4.78464048,19.8780665 2.9698484,18.4512387 C2.34532481,19.8554185 2,21.3803878 2,22.9884001 C2,23.8565758 2.10286271,24.7021033 2.29389345,25.5174335 C2.29389345,25.5174335 2.29389345,25.5325322 2.30124079,25.5551803 C2.49961887,26.4007078 2.80085966,27.216038 3.19026849,27.9860721 C3.6972347,29.1184751 4.446663,30.4396119 5.46059542,31.5191694 C6.93741003,33.0818856 7.18721946,35.0145201 7.22395614,35.8449489 L7.22395614,36.2073179 C7.22395614,36.2224166 7.22395614,36.2375153 7.22395614,36.252614 C7.22395614,36.2601634 7.22395614,36.2601634 7.22395614,36.2601634 C7.25334549,36.6678285 7.58397563,37 7.98807912,37 L12.6756797,37 C13.1018252,37 13.44715,36.6451804 13.44715,36.2073179 L13.44715,35.0145201 C14.123105,35.1051123 14.8211019,35.1579578 15.5264462,35.1579578 C16.0774964,35.1579578 16.6211993,35.1277604 17.1575549,35.0673655 L17.1575549,36.1997685 C17.1575549,36.637631 17.5028797,36.9924506 17.9290252,36.9924506 L22.6166258,36.9924506 C23.0427713,36.9924506 23.3880961,36.637631 23.3880961,36.1997685 L23.3880961,35.0069707 C23.3954434,34.6144043 23.5276955,33.0365895 24.9751208,31.6928046 C25.0265521,31.6475085 25.0779835,31.6022123 25.1294148,31.5493669 C25.1441095,31.5342682 25.1588042,31.5267188 25.1734988,31.5116201 C26.7825655,30.0394962 27.9801813,28.197454 28.5973576,26.1440298 L29.5819007,26.1440298 C30.3680656,26.1440298 30.9999366,25.4872361 30.9999366,24.6870046 L30.9999366,21.0859631 C31.0072839,20.293281 30.375413,19.6364872 29.589248,19.6364872 Z M23.7334209,19.8931652 C23.0942027,19.8931652 22.5725418,19.3571611 22.5725418,18.7003674 C22.5725418,18.0435737 23.0942027,17.5075696 23.7334209,17.5075696 C24.3726392,17.5075696 24.8943001,18.0435737 24.8943001,18.7003674 C24.8943001,19.3571611 24.3726392,19.8931652 23.7334209,19.8931652 Z" fill="#E74C3C"></path>
                <path d="M9,19 C13.9729064,19 18,14.749179 18,9.5 C18,4.25082102 13.9729064,0 9,0 C4.0270936,0 0,4.25082102 0,9.5 C0.00738916256,14.7413793 4.03448276,19 9,19 Z M3.71674877,9.99917898 C3.71674877,9.81978654 3.85714286,9.67159278 4.0270936,9.67159278 L4.88423645,9.67159278 C4.88423645,9.46880131 4.88423645,9.27380952 4.88423645,9.07101806 L4.0270936,9.07101806 C3.85714286,9.07101806 3.71674877,8.9228243 3.71674877,8.74343186 L3.71674877,8.01026273 C3.71674877,7.83087028 3.85714286,7.68267652 4.0270936,7.68267652 L5.11330049,7.68267652 L5.15024631,7.56568144 C5.44581281,6.58292282 5.94827586,5.74835796 6.72413793,5.10878489 C7.33743842,4.60180624 8.05418719,4.32881773 8.81527094,4.19622332 C9.90147783,4.0090312 10.9507389,4.1728243 11.9704433,4.5862069 C12.0369458,4.60960591 12.1034483,4.64860427 12.1625616,4.67980296 C12.4064039,4.83579639 12.4729064,5.02298851 12.362069,5.29597701 C12.2512315,5.58456486 12.1330049,5.88095238 12.0073892,6.16174056 C11.8965517,6.41133005 11.7487685,6.48932677 11.5049261,6.42692939 C11.1576355,6.341133 10.8251232,6.2319376 10.4778325,6.16174056 C9.75369458,6.00574713 9.02955665,5.99794745 8.32019704,6.29433498 C7.71428571,6.55172414 7.34482759,7.03530378 7.0862069,7.64367816 C7.0862069,7.65147783 7.0862069,7.6592775 7.0862069,7.66707718 L9.19950739,7.66707718 C9.36945813,7.66707718 9.50985222,7.81527094 9.50985222,7.99466338 L9.50985222,8.72783251 C9.50985222,8.90722496 9.36945813,9.05541872 9.19950739,9.05541872 L6.78325123,9.05541872 C6.78325123,9.25041051 6.78325123,9.4454023 6.78325123,9.65599343 L9.19950739,9.65599343 C9.36945813,9.65599343 9.50985222,9.80418719 9.50985222,9.98357964 L9.50985222,10.7167488 C9.50985222,10.8961412 9.36945813,11.044335 9.19950739,11.044335 L6.99014778,11.044335 C7.25615764,11.8477011 7.69211823,12.4716749 8.50492611,12.7368637 C9.15517241,12.9552545 9.81280788,12.9396552 10.4704433,12.7992611 C10.8103448,12.7212644 11.1428571,12.612069 11.4827586,12.5340722 C11.7487685,12.4716749 11.8965517,12.5496716 12.0073892,12.8070608 C12.1330049,13.0956486 12.2512315,13.3920361 12.362069,13.6884236 C12.4655172,13.9536125 12.3990148,14.1720033 12.1330049,14.296798 C11.8596059,14.4293924 11.5788177,14.5307882 11.2906404,14.6165846 C10.1970443,14.9363711 9.09605911,14.9441708 8.00985222,14.5775862 C6.69458128,14.1252053 5.81527094,13.181445 5.29802956,11.8477011 C5.19458128,11.590312 5.12807882,11.3173235 5.05418719,11.0521346 L4.01970443,11.0521346 C3.84975369,11.0521346 3.70935961,10.9039409 3.70935961,10.7245484 L3.70935961,9.99917898 L3.71674877,9.99917898 Z" fill="#FF9E2C"></path>
            </g>
        </g>
    </g>
</svg>