<svg xmlns="http://www.w3.org/2000/svg" width="11" height="12" viewBox="0 0 11 12">
  <defs>
    <style>
      .cls-1 {
        fill: #fff;
        fill-rule: evenodd;
      }
    </style>
  </defs>
  <path id="login" class="cls-1" d="M1500,74h-11a2.794,2.794,0,0,1,1.03-2.264c1.18-.8,3-0.947,3.16-1.17a2.579,2.579,0,0,0-.05-1.247,6.9,6.9,0,0,1-.5-0.614,7.134,7.134,0,0,0-.13-0.94c-0.06-.109-0.24-0.122-0.31-0.23a1.759,1.759,0,0,1-.07-0.518,2.522,2.522,0,0,1-.22-0.9,1.512,1.512,0,0,1,.22-0.307s-0.11-1.009-.09-1.324a3.147,3.147,0,0,1,.42-1.515,2.223,2.223,0,0,1,1.3-.9,4.084,4.084,0,0,1,1.75.077,2.1,2.1,0,0,1,1.34,1.439,5.483,5.483,0,0,1,.04,2.244,0.739,0.739,0,0,1,.22.173,1.416,1.416,0,0,1-.18.767,2.94,2.94,0,0,1-.15.863c-0.06.061-.14,0.013-0.2,0.077a3.516,3.516,0,0,0-.2,1.055,3.631,3.631,0,0,1-.5.595,2.894,2.894,0,0,0-.07,1.17c0.09,0.191,1.14.269,2.66,0.844C1499.89,71.9,1500,74,1500,74Z" transform="translate(-1489 -62)"/>
</svg>
