<?xml version="1.0" encoding="iso-8859-1"?>
<!-- Generator: Adobe Illustrator 19.0.0, SVG Export Plug-In . SVG Version: 6.00 Build 0)  -->
<svg version="1.1" id="Layer_1" xmlns="http://www.w3.org/2000/svg" xmlns:xlink="http://www.w3.org/1999/xlink" x="0px" y="0px"
	 viewBox="0 0 512.001 512.001" style="enable-background:new 0 0 512.001 512.001;" xml:space="preserve">
<path style="fill:#FF3632;" d="M26.55,511.956c-7.091,0-13.759-2.762-18.773-7.776C2.763,499.165,0,492.497,0,485.405
	c0-7.093,2.762-13.76,7.777-18.773c5.012-5.013,11.681-7.775,18.773-7.775s13.76,2.762,18.773,7.777
	c5.014,5.012,7.776,11.678,7.776,18.771s-2.761,13.759-7.776,18.774C40.309,509.194,33.643,511.956,26.55,511.956z M26.549,475.318
	c-2.695,0-5.229,1.049-7.133,2.954c-1.906,1.905-2.955,4.438-2.955,7.132c0,2.696,1.05,5.23,2.955,7.135
	c1.905,1.906,4.439,2.955,7.134,2.955s5.228-1.049,7.132-2.954c1.906-1.906,2.955-4.44,2.955-7.135c0-2.694-1.048-5.227-2.953-7.132
	C31.778,476.367,29.244,475.318,26.549,475.318z"/>
<path style="fill:#C12323;" d="M15.671,500.665c-0.001-3.608,0.717-7.104,2.081-10.331c-0.838-1.489-1.291-3.174-1.291-4.929
	c0-2.694,1.049-5.227,2.955-7.132c1.905-1.905,4.439-2.954,7.133-2.954c1.667,0,3.27,0.404,4.704,1.161
	c3.4-1.543,7.119-2.362,10.965-2.362c3.134,0,6.186,0.541,9.047,1.576c-1.317-3.355-3.317-6.434-5.943-9.058
	c-5.013-5.015-11.682-7.777-18.773-7.777c-7.092,0-13.76,2.762-18.772,7.775C2.763,471.645,0,478.313,0,485.405
	s2.763,13.759,7.777,18.774c2.798,2.798,6.114,4.893,9.727,6.199C16.305,507.325,15.671,504.045,15.671,500.665z"/>
<g>
	<path style="fill:#CEA07A;" d="M351.309,230.467c-0.662,0.658-1.325,1.305-1.986,1.963c0.002-0.004,0.004-0.007,0.009-0.011
		c38.595-12.354,74.873-18.271,103.272-17.74c30.378-27.141,45.908-51.474,38.438-64.984c-7.241-13.094-34.583-13.297-71.897-3.011
		C403.525,172.265,380.104,201.67,351.309,230.467z"/>
	<path style="fill:#CEA07A;" d="M279.709,162.449c0.596-0.6,1.181-1.203,1.781-1.803c28.779-28.777,58.161-52.184,83.732-67.804
		c10.303-37.345,10.108-64.718-2.994-71.96c-13.49-7.461-37.774,8.016-64.865,38.307
		C297.931,87.559,292.044,123.837,279.709,162.449z"/>
</g>
<g>
	<path style="fill:#B78662;" d="M357.083,232.845c-2.855,0-5.632-1.487-7.152-4.143c-2.258-3.946-0.889-8.974,3.055-11.232
		l94.204-53.913c3.945-2.257,8.973-0.889,11.231,3.055c2.258,3.946,0.891,8.974-3.055,11.232l-94.204,53.913
		C359.874,232.495,358.469,232.845,357.083,232.845z"/>
	<path style="fill:#B78662;" d="M286.159,161.936c-1.386,0-2.791-0.35-4.08-1.088c-3.946-2.258-5.314-7.287-3.055-11.232
		l53.912-94.204c2.257-3.945,7.286-5.312,11.231-3.055c3.946,2.258,5.314,7.287,3.055,11.232l-53.912,94.204
		C291.79,160.447,289.015,161.936,286.159,161.936z"/>
</g>
<g>
	<path style="fill:#E2BA96;" d="M180.383,294.165c3.926-3.924,9.724-4.824,14.518-2.716c-0.002-0.002-0.007-0.004-0.009-0.007
		c4.441-30.017,37.622-81.371,87.01-131.189c25.435-79.622,23.466-149.329-6.063-160.208L167.861,306.689L180.383,294.165z"/>
	<path style="fill:#E2BA96;" d="M217.792,331.575l-12.708,12.706l306.916-108.075c-10.893-29.562-80.743-31.503-160.475-5.98
		c-49.764,49.294-101.03,82.403-131.013,86.837c-0.002-0.007-0.004-0.011-0.009-0.018
		C222.616,321.842,221.721,327.644,217.792,331.575z"/>
</g>
<g>
	<path style="fill:#CEA07A;" d="M444.543,259.959l6.048-19.296c1.359-4.337-1.057-8.955-5.394-10.314
		c-4.339-1.353-8.956,1.055-10.314,5.394l-9.728,31.044L444.543,259.959z"/>
	<path style="fill:#CEA07A;" d="M388.909,279.55l11.141-31.056c1.536-4.279-0.688-8.991-4.966-10.527
		c-4.28-1.533-8.991,0.689-10.526,4.967l-15.667,43.665L388.909,279.55z"/>
	<path style="fill:#CEA07A;" d="M347.342,275.147c1.39-4.327-0.99-8.963-5.318-10.355c-4.328-1.394-8.963,0.989-10.355,5.318
		l-10.725,33.371l19.497-6.865L347.342,275.147z"/>
	<path style="fill:#CEA07A;" d="M270.833,60.907l-18.462,5.788l-6.829,19.39l30.214-9.472c4.337-1.359,6.751-5.977,5.391-10.314
		C279.788,61.961,275.169,59.546,270.833,60.907z"/>
	<path style="fill:#CEA07A;" d="M274.425,117.31c-1.536-4.279-6.247-6.502-10.526-4.968l-31.595,11.334l-7.048,20.016l44.2-15.856
		C273.735,126.301,275.96,121.588,274.425,117.31z"/>
	<path style="fill:#CEA07A;" d="M247.705,170.475c-1.391-4.327-6.027-6.707-10.355-5.318l-22.16,7.121l-6.865,19.497l34.062-10.946
		C246.714,179.439,249.094,174.803,247.705,170.475z"/>
</g>
<path style="fill:#F2C097;" d="M439.704,72.251c-3.791-3.793-9.245-5.715-16.208-5.715c-30.969,0-89.257,37.481-145.043,93.267
	c-51.019,51.018-87.375,105.012-92.621,137.557l-0.341,2.116l1.97,0.844c1.199,0.514,2.262,1.227,3.157,2.122l18.898,18.897
	c0.895,0.898,1.61,1.96,2.12,3.155l0.843,1.973l2.118-0.342c32.543-5.247,86.536-41.602,137.558-92.619
	c32.885-32.887,60.167-67.487,76.823-97.426C446.161,105.188,449.973,82.521,439.704,72.251z"/>
<path style="fill:#DD9B6F;" d="M401.238,110.718c-3.214-3.213-8.426-3.213-11.639,0l-53.724,53.724l-0.38-7.617
	c-0.225-4.539-4.09-8.042-8.629-7.81c-4.54,0.225-8.037,4.09-7.811,8.629l1.12,22.499l-35.575,35.575l-0.38-7.615
	c-0.225-4.54-4.088-8.032-8.629-7.811c-4.54,0.226-8.037,4.09-7.811,8.63l1.12,22.496l-66.517,66.517
	c-3.214,3.215-3.214,8.426,0,11.64c1.607,1.607,3.714,2.41,5.821,2.41c2.106,0,4.212-0.803,5.819-2.41l44.223-44.222l21.029,1.048
	c0.14,0.008,0.278,0.011,0.417,0.011c4.358,0,7.994-3.421,8.213-7.821c0.227-4.54-3.27-8.403-7.81-8.629l-6.153-0.306l30.755-30.754
	l31.984,1.593c0.139,0.007,0.277,0.01,0.416,0.01c4.358,0,7.994-3.421,8.213-7.821c0.226-4.54-3.27-8.403-7.81-8.629l-17.106-0.853
	l34.233-34.233l25.201,1.255c0.139,0.007,0.279,0.01,0.416,0.01c4.359,0,7.994-3.421,8.214-7.821c0.226-4.54-3.271-8.404-7.811-8.63
	l-10.318-0.514l30.907-30.908C404.452,119.144,404.452,113.934,401.238,110.718z"/>
<path style="fill:#FF3632;" d="M150.706,398.659l67.086-67.084c5.109-5.114,5.109-13.4,0-18.512l-18.9-18.898
	c-5.112-5.112-13.398-5.109-18.51,0L35.052,439.496c-7.873,7.87-7.873,20.632,0,28.505l8.903,8.905
	c7.873,7.873,20.634,7.873,28.505,0l60.689-60.689"/>
<path style="fill:#C12323;" d="M50.722,454.755l145.331-145.331c4.45-4.448,11.302-5.022,16.375-1.725l-13.535-13.534
	c-5.112-5.112-13.398-5.109-18.51,0L35.052,439.496c-7.873,7.87-7.873,20.632,0,28.505l8.903,8.905
	c1.275,1.275,2.689,2.321,4.18,3.184C42.974,472.266,43.835,461.639,50.722,454.755z"/>
<path style="fill:#FF5855;" d="M217.792,313.063l-18.9-18.898c-5.112-5.112-13.398-5.109-18.51,0l-20.439,20.439l37.412,37.405
	l20.437-20.434C222.902,326.461,222.902,318.175,217.792,313.063z"/>
<path style="fill:#C64040;" d="M196.052,309.424c4.45-4.448,11.302-5.022,16.375-1.725l-13.535-13.534
	c-5.112-5.112-13.398-5.109-18.51,0l-20.439,20.439l15.467,15.464L196.052,309.424z"/>
<g>
</g>
<g>
</g>
<g>
</g>
<g>
</g>
<g>
</g>
<g>
</g>
<g>
</g>
<g>
</g>
<g>
</g>
<g>
</g>
<g>
</g>
<g>
</g>
<g>
</g>
<g>
</g>
<g>
</g>
</svg>
