<?xml version="1.0" encoding="iso-8859-1"?>
<!-- Generator: Adobe Illustrator 19.0.0, SVG Export Plug-In . SVG Version: 6.00 Build 0)  -->
<svg version="1.1" id="Capa_1" xmlns="http://www.w3.org/2000/svg" xmlns:xlink="http://www.w3.org/1999/xlink" x="0px" y="0px"
	 viewBox="0 0 512 512" style="enable-background:new 0 0 512 512;" xml:space="preserve">
<path style="fill:#F77219;" d="M349.867,503.467h-204.8V256l42.667-68.267h85.333v51.2l69.504,115.84
	c4.77,7.962,7.296,17.067,7.296,26.342V503.467z"/>
<path style="fill:#F5671B;" d="M342.571,354.773l-35.456-59.093c-37.367,71.953-93.321,132.582-162.048,175.59v32.196h204.8V381.116
	C349.867,371.84,347.341,362.735,342.571,354.773z"/>
<g>
	<path style="fill:#D4D4D4;" d="M309.7,151.1c-18.057-17.954-28.169-42.385-28.1-67.84V68.267h17.067V83.26
		c-0.06,20.932,8.26,41.011,23.1,55.774L309.7,151.1z"/>
	<rect x="315.733" y="8.533" style="fill:#D4D4D4;" width="51.2" height="51.2"/>
</g>
<path style="fill:#EBEBEB;" d="M145.067,93.867L145.067,93.867L204.8,102.4v34.133H256V102.4l59.733-42.667v-51.2H230.4
	C183.27,8.533,145.067,46.737,145.067,93.867z"/>
<rect x="187.733" y="136.533" style="fill:#D4D4D4;" width="85.333" height="51.2"/>
<path style="fill:#F5A338;" d="M298.667,460.8H187.733V309.393c0-15.351,12.442-27.793,27.793-27.793l0,0l0,0
	c9.293,0,17.971,4.642,23.125,12.373L298.667,384V460.8z"/>
<path style="fill:#F77219;" d="M228.531,440.533l-13.329-10.667l23.04-28.8h-16.375c-4.71,0-8.533-3.823-8.533-8.533
	c0-1.545,0.418-3.063,1.22-4.395l25.6-42.667l14.626,8.789L236.937,384H256c4.71,0,8.533,3.814,8.533,8.533
	c0,1.937-0.657,3.823-1.869,5.333L228.531,440.533z"/>
<path d="M318.473,68.267h48.461c4.71,0,8.533-3.823,8.533-8.533v-51.2c0-4.71-3.823-8.533-8.533-8.533H230.4
	c-51.814,0.06-93.807,42.052-93.867,93.867c0,4.241,3.123,7.842,7.322,8.448l52.412,7.484V128h-8.533
	c-4.71,0-8.533,3.823-8.533,8.533v48.751l-41.37,66.193c-0.845,1.357-1.297,2.927-1.297,4.523v247.467
	c0,4.71,3.823,8.533,8.533,8.533h204.8c4.71,0,8.533-3.823,8.533-8.533V381.116c-0.009-10.82-2.961-21.444-8.533-30.72L281.6,236.57
	V136.533c0-4.71-3.823-8.533-8.533-8.533h-8.533v-21.205l17.732-12.663c2.381,21.564,12.066,41.66,27.435,56.969l12.066-12.066
	c-14.839-14.763-23.159-34.842-23.1-55.774v-0.853L318.473,68.267z M358.4,51.2h-34.133V17.067H358.4V51.2z M196.267,145.067h68.267
	V179.2h-68.267V145.067z M335.258,359.159c3.968,6.639,6.076,14.225,6.076,21.956v113.818H153.6V258.449l38.861-62.182h72.073
	v42.667c0,1.545,0.418,3.063,1.22,4.395L335.258,359.159z M251.042,95.479c-2.236,1.596-3.567,4.173-3.575,6.921V128h-34.133v-25.6
	c0-4.241-3.123-7.842-7.322-8.448l-52.053-7.433c3.831-39.364,36.898-69.402,76.442-69.453h76.8v38.272L251.042,95.479z"/>
<path d="M215.526,273.067c-20.053,0.026-36.301,16.273-36.326,36.326V460.8c0,4.71,3.823,8.533,8.533,8.533h110.933
	c4.71,0,8.533-3.823,8.533-8.533V384c0-1.681-0.503-3.328-1.434-4.736L245.76,289.28
	C239.036,279.151,227.686,273.058,215.526,273.067z M290.133,452.267h-93.867V309.393c0-10.641,8.619-19.26,19.26-19.26
	c6.443,0,12.459,3.217,16.026,8.576l58.581,87.851V452.267z"/>
<path d="M214.443,396.74c1.519,2.671,4.352,4.326,7.424,4.326h16.375l-23.04,28.8l13.329,10.667l34.133-42.667
	c2.944-3.678,2.355-9.045-1.331-11.998c-1.51-1.212-3.396-1.869-5.333-1.869h-19.063l17.843-29.739l-14.626-8.789l-25.6,42.667
	C212.966,390.775,212.924,394.061,214.443,396.74z"/>
<g>
</g>
<g>
</g>
<g>
</g>
<g>
</g>
<g>
</g>
<g>
</g>
<g>
</g>
<g>
</g>
<g>
</g>
<g>
</g>
<g>
</g>
<g>
</g>
<g>
</g>
<g>
</g>
<g>
</g>
</svg>
