<?xml version="1.0" encoding="iso-8859-1"?>
<!-- Generator: Adobe Illustrator 19.0.0, SVG Export Plug-In . SVG Version: 6.00 Build 0)  -->
<svg version="1.1" id="Capa_1" xmlns="http://www.w3.org/2000/svg" xmlns:xlink="http://www.w3.org/1999/xlink" x="0px" y="0px"
	 viewBox="0 0 512 512" style="enable-background:new 0 0 512 512;" xml:space="preserve">
<rect x="10" y="236.591" style="fill:#F15D43;" width="283.89" height="53"/>
<polygon style="fill:#80C4EC;" points="36.075,289.589 51.297,473.127 252.592,473.127 267.814,289.589 "/>
<path style="fill:#CCECFC;" d="M38.242,236.586h231.761c6.234-4.669,10.268-12.113,10.268-20.501
	c0-14.138-11.46-25.597-25.596-25.597c-4.526,0-8.771,1.186-12.46,3.247c-2.046-22.342-20.825-39.843-43.7-39.843
	c-17.11,0-31.923,9.796-39.164,24.081c-7.34-10.772-19.702-17.845-33.719-17.845c-3.148,0-6.213,0.357-9.156,1.033
	c-5.589-11.061-17.057-18.646-30.296-18.646c-18.736,0-33.924,15.188-33.924,33.924c0,0.514,0.012,1.026,0.035,1.535
	c-16.105,1.635-28.672,15.235-28.672,31.771C23.618,221.003,29.443,230.899,38.242,236.586z"/>
<path d="M215.22,385.471c-0.65,0-1.309-0.06-1.95-0.19c-0.64-0.13-1.27-0.32-1.87-0.57c-0.6-0.25-1.18-0.56-1.729-0.92
	c-0.55-0.37-1.061-0.79-1.521-1.25c-1.859-1.86-2.93-4.44-2.93-7.07s1.07-5.21,2.93-7.07c0.46-0.46,0.971-0.88,1.521-1.24
	c0.54-0.36,1.13-0.67,1.729-0.92c0.601-0.25,1.23-0.44,1.87-0.57c1.29-0.26,2.62-0.26,3.91,0c0.64,0.13,1.27,0.32,1.87,0.57
	c0.6,0.25,1.18,0.56,1.72,0.92c0.55,0.36,1.061,0.78,1.52,1.24c0.47,0.46,0.88,0.97,1.25,1.52c0.359,0.54,0.67,1.12,0.92,1.73
	c0.25,0.6,0.439,1.23,0.57,1.87c0.13,0.64,0.189,1.3,0.189,1.95s-0.059,1.31-0.189,1.96c-0.131,0.63-0.32,1.26-0.57,1.87
	c-0.25,0.6-0.561,1.18-0.92,1.72c-0.37,0.55-0.78,1.06-1.25,1.52c-0.46,0.46-0.971,0.88-1.52,1.25c-0.54,0.36-1.12,0.67-1.72,0.92
	s-1.23,0.44-1.87,0.57C216.53,385.411,215.88,385.471,215.22,385.471z"/>
<path d="M293.889,226.586h-5.22c1.048-3.372,1.602-6.91,1.602-10.501c0-19.628-15.969-35.597-35.597-35.597
	c-1.674,0-3.343,0.12-4.994,0.354c-2.859-8.65-7.898-16.493-14.742-22.774c-9.96-9.142-22.895-14.176-36.423-14.176
	c-15.697,0-30.218,6.696-40.291,18.077c-9.031-7.562-20.524-11.841-32.593-11.841c-1.382,0-2.763,0.056-4.138,0.168
	c-8.198-11.118-21.165-17.781-35.313-17.781c-21.958,0-40.204,16.196-43.421,37.269c-17.092,5.418-29.141,21.325-29.141,39.961
	c0,5.906,1.225,11.62,3.509,16.841H10c-5.523,0-10,4.477-10,10v53.003c0,5.523,4.477,10,10,10h16.87l14.461,174.364
	c0.43,5.185,4.764,9.173,9.966,9.173h201.296c5.202,0,9.536-3.989,9.966-9.173l14.46-174.364h16.87c5.522,0,10-4.477,10-10v-53.003
	C303.889,231.064,299.411,226.586,293.889,226.586z M33.618,209.746c0-11.302,8.462-20.684,19.683-21.823
	c5.274-0.535,9.214-5.094,8.98-10.39c-0.016-0.363-0.025-0.727-0.025-1.094c0-13.191,10.732-23.924,23.924-23.924
	c9.082,0,17.271,5.041,21.37,13.156c2.075,4.105,6.686,6.267,11.163,5.237c2.252-0.517,4.579-0.779,6.918-0.779
	c10.189,0,19.706,5.038,25.456,13.476c1.992,2.923,5.383,4.577,8.908,4.348c3.529-0.228,6.677-2.303,8.275-5.458
	c5.815-11.474,17.404-18.602,30.244-18.602c17.631,0,32.137,13.222,33.742,30.755c0.309,3.371,2.302,6.357,5.297,7.935
	c2.994,1.577,6.584,1.533,9.54-0.118c2.346-1.311,4.896-1.976,7.58-1.976c8.6,0,15.597,6.997,15.597,15.597
	c0,3.956-1.451,7.654-4.057,10.501H41.493C36.52,222.439,33.618,216.318,33.618,209.746z M243.388,463.127H60.502L46.938,299.589
	h3.742v10.151c0,55.837,45.427,101.264,101.264,101.264c14.049,0,27.653-2.825,40.435-8.397c5.063-2.208,7.378-8.101,5.171-13.163
	c-2.207-5.063-8.099-7.375-13.163-5.171c-10.245,4.467-21.161,6.731-32.442,6.731c-44.809,0-81.264-36.455-81.264-81.264v-10.151
	h162.527v10.151c0,12.07-2.58,23.682-7.669,34.513c-2.349,4.998-0.2,10.954,4.798,13.303c1.375,0.646,2.821,0.952,4.246,0.952
	c3.756,0,7.355-2.126,9.058-5.75c6.349-13.512,9.567-27.985,9.567-43.018v-10.151h3.742L243.388,463.127z M283.889,279.589h-30.681
	v-9.465c0-5.523-4.477-10-10-10c-5.522,0-10,4.477-10,10v9.465H70.681v-9.465c0-5.523-4.478-10-10-10s-10,4.477-10,10v9.465H20
	v-33.003h263.889V279.589z"/>
<polygon style="fill:#DAE9EC;" points="346.501,161.51 473.497,161.51 493.499,205.564 326.499,205.564 "/>
<rect x="318" y="205.561" style="fill:#828AA0;" width="184" height="36.541"/>
<rect x="378.64" y="242.101" style="fill:#CCECFC;" width="62.719" height="42.717"/>
<rect x="388.64" y="284.821" style="fill:#A9ADBF;" width="42.717" height="183.64"/>
<path d="M502,195.564h-2.059l-17.339-38.188c-1.622-3.572-5.183-5.866-9.105-5.866H346.501c-3.923,0-7.483,2.294-9.105,5.866
	l-17.339,38.188h-2.059c-5.522,0-10,4.477-10,10v36.541c0,5.523,4.478,10,10,10h50.642v32.717c0,5.523,4.478,10,10,10h0.001v173.641
	c0,5.523,4.478,10,10,10h42.717c5.523,0,10-4.477,10-10V294.822h0.001c5.522,0,10-4.477,10-10v-32.717H502c5.522,0,10-4.477,10-10
	v-36.541C512,200.041,507.522,195.564,502,195.564z M352.943,171.51h114.111l10.922,24.054H342.022L352.943,171.51z
	 M421.357,458.463H398.64V294.822h22.717V458.463z M431.358,274.822H388.64v-22.717h42.719v22.717H431.358z M492,232.105H327.998
	v-16.541H492V232.105z"/>
<circle style="fill:#CCECFC;" cx="270.45" cy="116.161" r="24.271"/>
<path d="M270.448,150.433c-18.896,0-34.271-15.373-34.271-34.27s15.374-34.271,34.271-34.271c18.896,0,34.271,15.374,34.271,34.271
	C304.719,135.059,289.345,150.433,270.448,150.433z M270.448,101.892c-7.869,0-14.271,6.402-14.271,14.271s6.401,14.27,14.271,14.27
	c7.869,0,14.271-6.402,14.271-14.27C284.719,108.294,278.317,101.892,270.448,101.892z"/>
<circle style="fill:#CCECFC;" cx="192.26" cy="63.151" r="24.271"/>
<path d="M192.26,97.416c-18.896,0-34.27-15.374-34.27-34.271s15.374-34.271,34.27-34.271s34.271,15.374,34.271,34.271
	C226.53,82.042,211.156,97.416,192.26,97.416z M192.26,48.875c-7.869,0-14.27,6.402-14.27,14.271s6.401,14.271,14.27,14.271
	s14.271-6.402,14.271-14.271C206.53,55.277,200.129,48.875,192.26,48.875z"/>
<g>
</g>
<g>
</g>
<g>
</g>
<g>
</g>
<g>
</g>
<g>
</g>
<g>
</g>
<g>
</g>
<g>
</g>
<g>
</g>
<g>
</g>
<g>
</g>
<g>
</g>
<g>
</g>
<g>
</g>
</svg>
