<?xml version="1.0" encoding="iso-8859-1"?>
<!-- Generator: Adobe Illustrator 19.0.0, SVG Export Plug-In . SVG Version: 6.00 Build 0)  -->
<svg version="1.1" id="Capa_1" xmlns="http://www.w3.org/2000/svg" xmlns:xlink="http://www.w3.org/1999/xlink" x="0px" y="0px"
	 viewBox="0 0 512 512" style="enable-background:new 0 0 512 512;" xml:space="preserve">
<path style="fill:#57555C;" d="M330,91v105c0,16.5-13.5,30-30,30s-30-13.5-30-30V91c0-8.401-6.599-15-15-15h-60
	c-8.401,0-15,6.599-15,15v75h-60V91c0-30.901,18.6-57.301,45-68.701C174.3,18.1,184.501,16,195,16h60C296.4,16,330,49.6,330,91z"/>
<g>
	<path style="fill:#3C3A41;" d="M330,91v105c0,16.5-13.5,30-30,30s-30-13.5-30-30V91c0-8.401-6.599-15-15-15h-60
		c-8.401,0-15,6.599-15,15v75h-15V22.299C174.3,18.1,184.501,16,195,16h60C296.4,16,330,49.6,330,91z"/>
	<path style="fill:#3C3A41;" d="M497,226h-46l-60-30.937L451,166h46c8.284,0,15,6.716,15,15v30C512,219.284,505.284,226,497,226z"/>
</g>
<path style="fill:#E61E14;" d="M210,166v150l181-25.714V316c0,16.567,13.431,30,30,30s30-13.433,30-30V166H210z"/>
<rect x="90" y="316" style="fill:#57555C;" width="150" height="120"/>
<rect x="165" y="316" style="fill:#3C3A41;" width="75" height="120"/>
<path style="fill:#D9D9D9;" d="M270,136v195c0,8.399-6.599,15-15,15H75c-8.401,0-15-6.601-15-15v-75l45-30l-43.5-30
	c6.901-34.2,37.2-60,73.5-60H270z"/>
<path style="fill:#C9C7CE;" d="M255,346h-90V136h105v195C270,339.399,263.401,346,255,346z"/>
<path style="fill:#57555C;" d="M180,211v30c0,8.399-6.599,15-15,15H60v-45c0-5.101,0.601-10.201,1.5-15H165
	C173.401,196,180,202.599,180,211z"/>
<path style="fill:#3C3A41;" d="M165,256v-60c8.401,0,15,6.599,15,15v30C180,249.399,173.401,256,165,256z"/>
<path style="fill:#FEDB41;" d="M330,451v30c0,8.399-6.599,15-15,15H15c-8.401,0-15-6.601-15-15v-30c0-24.901,20.099-45,45-45h240
	C309.901,406,330,426.099,330,451z"/>
<path style="fill:#FCBF29;" d="M330,451v30c0,8.399-6.599,15-15,15H165v-90h120C309.901,406,330,426.099,330,451z"/>
<g>
</g>
<g>
</g>
<g>
</g>
<g>
</g>
<g>
</g>
<g>
</g>
<g>
</g>
<g>
</g>
<g>
</g>
<g>
</g>
<g>
</g>
<g>
</g>
<g>
</g>
<g>
</g>
<g>
</g>
</svg>
