<?xml version="1.0" encoding="iso-8859-1"?>
<!-- Generator: Adobe Illustrator 19.0.0, SVG Export Plug-In . SVG Version: 6.00 Build 0)  -->
<svg version="1.1" id="Capa_1" xmlns="http://www.w3.org/2000/svg" xmlns:xlink="http://www.w3.org/1999/xlink" x="0px" y="0px"
	 viewBox="0 0 480 480" style="enable-background:new 0 0 480 480;" xml:space="preserve">
<path style="fill:#C16470;" d="M416,344.473c-2.654-0.322-5.326-0.482-8-0.48H296c-5.786-0.009-11.545,0.772-17.12,2.32
	c-10.454,2.909-20.003,8.413-27.76,16l-0.4,0.4c-0.681,0.654-1.322,1.349-1.92,2.08c2.796,1.736,5.306,3.895,7.44,6.4
	c2.581,2.95,4.564,6.374,5.84,10.08c1.29,3.426,1.94,7.059,1.92,10.72c-0.006,5.621-1.496,11.14-4.32,16H424c0-8.837,7.163-16,16-16
	s16,7.163,16,16h16C472.011,375.732,448.008,348.506,416,344.473L416,344.473z"/>
<g>
	<circle style="fill:#D1D3D4;" cx="440" cy="407.993" r="16"/>
	<path style="fill:#D1D3D4;" d="M262.08,381.273c-1.276-3.706-3.259-7.13-5.84-10.08c-11.49-13.259-31.553-14.694-44.812-3.204
		c-13.259,11.49-14.694,31.553-3.204,44.812s31.553,14.694,44.812,3.204c6.964-6.035,10.965-14.797,10.964-24.012
		C264.02,388.332,263.37,384.699,262.08,381.273z M232,399.993c-4.418,0-8-3.582-8-8s3.582-8,8-8s8,3.582,8,8
		S236.418,399.993,232,399.993z"/>
	<path style="fill:#D1D3D4;" d="M246.96,291.033l-27.76,16l31.92,55.28c7.757-7.587,17.306-13.091,27.76-16L246.96,291.033z"/>
</g>
<path style="fill:#DCA6AD;" d="M116.288,144.721l-13.856,8l96,166.28l83.136-48l-56-97c-20.542-35.58-64.696-49.816-102.152-32.936
	C121.008,142.177,118.64,143.361,116.288,144.721L116.288,144.721z M197.888,190.001l40,69.288L197.888,190.001
	c-8.591-14.811-24.398-23.948-41.52-24c17.11,0.063,32.903,9.199,41.488,24H197.888z"/>
<g>
	<path style="fill:#D1D3D4;" d="M120.52,71.993c-5.718-9.903-16.285-16.003-27.72-16H24c-8.837,0-16,7.163-16,16
		c0,8.837,7.163,16,16,16h59.568c5.713,0.003,10.991,3.052,13.848,8l26.024,45.04c10.33-4.673,21.542-7.074,32.88-7.04l-26.56-46
		L120.52,71.993z"/>
	<circle style="fill:#D1D3D4;" cx="232" cy="391.993" r="8"/>
</g>
<path style="fill:#FFDA44;" d="M360,295.993h-16c-26.51,0-48,21.49-48,48h112C408,317.483,386.51,295.993,360,295.993z"/>
<path d="M416.968,336.521c-0.512-0.056-1.032-0.04-1.536-0.088c-3.798-27.719-27.455-48.391-55.432-48.44h-16
	c-28.002,0.049-51.671,20.757-55.44,48.504c-1.896,0.192-3.768,0.488-5.6,0.8l-25.056-43.408l27.696-16
	c3.826-2.209,5.137-7.102,2.928-10.928l-56-97c-14.929-25.631-41.743-42.038-71.36-43.664l-33.72-58.304
	c-7.165-12.36-20.361-19.978-34.648-20H24c-13.255,0-24,10.745-24,24s10.745,24,24,24h59.568c2.858,0,5.499,1.525,6.928,4
	l21.824,37.784l-13.856,8c-3.826,2.209-5.137,7.102-2.928,10.928l96,166.28c2.209,3.826,7.102,5.137,10.928,2.928l13.832-8
	l19.824,34.336c-1.368-0.159-2.743-0.244-4.12-0.256c-22.091-0.035-40.029,17.845-40.064,39.936
	c-0.035,22.091,17.845,40.029,39.936,40.064c12.613,0.02,24.496-5.91,32.064-16h153.536c4.335,12.442,17.935,19.014,30.376,14.68
	c6.877-2.396,12.284-7.802,14.68-14.68H472c4.418,0,8-3.582,8-8C479.988,371.694,452.98,341.07,416.968,336.521L416.968,336.521z
	 M83.568,79.993H24c-4.418,0-8-3.582-8-8s3.582-8,8-8h68.8c8.576,0.009,16.499,4.58,20.8,12l29.44,50.984
	c-1.208,0.184-2.4,0.48-3.568,0.712c-0.936,0.184-1.872,0.344-2.8,0.56c-2.096,0.472-4.16,1.056-6.216,1.688
	c-0.8,0.24-1.552,0.448-2.32,0.704c-0.408,0.136-0.8,0.232-1.24,0.376l-22.552-39.024C100.058,84.57,92.139,79.996,83.568,79.993
	L83.568,79.993z M201.36,308.073l-88-152.424c0,0,11.2-6.304,13.376-7.296c9.278-4.211,19.355-6.375,29.544-6.344
	c25.71,0.054,49.456,13.762,62.36,36l52,90.072L201.36,308.073z M344,303.993h16c19.002,0.021,35.375,13.387,39.2,32h-94.4
	C308.625,317.38,324.998,304.014,344,303.993L344,303.993z M244,301.953l23.2,40.064c-4.914,2.143-9.575,4.826-13.896,8
	l-23.128-40.064L244,301.953z M232,415.993c-13.255,0-24-10.745-24-24s10.745-24,24-24c7.014-0.009,13.673,3.083,18.192,8.448
	c1.968,2.243,3.466,4.857,4.408,7.688c0.944,2.513,1.419,5.179,1.4,7.864C255.96,405.231,245.238,415.953,232,415.993L232,415.993z
	 M271.272,399.097c0.458-2.341,0.702-4.719,0.728-7.104c0.028-4.537-0.766-9.042-2.344-13.296c-1.59-4.643-4.062-8.935-7.28-12.64
	c-0.472-0.56-0.96-1.104-1.464-1.64c0.232-0.184,0.432-0.4,0.664-0.576c0.56-0.432,1.136-0.8,1.704-1.232
	c1.216-0.869,2.459-1.693,3.728-2.472c0.648-0.392,1.304-0.8,1.968-1.136c1.32-0.728,2.672-1.384,4.048-2.008
	c0.624-0.28,1.232-0.584,1.872-0.8c1.913-0.788,3.868-1.469,5.856-2.04c0.096,0,0.184-0.072,0.28-0.096
	c4.872-1.367,9.908-2.062,14.968-2.064h112c2.345-0.004,4.688,0.135,7.016,0.416c25.009,3.157,44.826,22.634,48.416,47.584h-0.8
	c-0.096-0.272-0.24-0.512-0.344-0.8c-0.176-0.448-0.384-0.872-0.584-1.304c-0.414-0.886-0.882-1.746-1.4-2.576
	c-0.24-0.392-0.472-0.8-0.744-1.16c-0.671-0.945-1.409-1.84-2.208-2.68c-0.168-0.176-0.312-0.376-0.48-0.544
	c-0.989-0.977-2.06-1.869-3.2-2.664c-0.32-0.216-0.672-0.4-1-0.608c-0.87-0.547-1.773-1.038-2.704-1.472
	c-0.44-0.2-0.888-0.376-1.344-0.552c-0.939-0.363-1.901-0.663-2.88-0.896c-0.44-0.112-0.864-0.24-1.312-0.32
	c-2.903-0.595-5.897-0.595-8.8,0c-0.448,0.08-0.872,0.208-1.312,0.32c-0.979,0.233-1.941,0.533-2.88,0.896
	c-0.456,0.176-0.896,0.352-1.336,0.552c-0.935,0.432-1.841,0.923-2.712,1.472c-0.328,0.208-0.68,0.392-1,0.608
	c-1.14,0.795-2.211,1.687-3.2,2.664c-0.168,0.168-0.312,0.368-0.48,0.544c-0.799,0.84-1.537,1.735-2.208,2.68
	c-0.264,0.376-0.504,0.8-0.744,1.16c-0.518,0.83-0.986,1.69-1.4,2.576c-0.208,0.432-0.408,0.856-0.584,1.304
	c-0.104,0.264-0.248,0.504-0.344,0.8H271.2C271.24,399.697,271.2,399.393,271.272,399.097L271.272,399.097z M440,415.993
	c-4.418,0-8-3.582-8-8s3.582-8,8-8s8,3.582,8,8S444.418,415.993,440,415.993z"/>
<path d="M244.8,255.289l-40-69.288c-10.016-17.286-28.462-27.948-48.44-28c-4.418,0-8,3.582-8,8s3.582,8,8,8
	c14.269,0.039,27.444,7.655,34.6,20l40,69.288c1.43,2.478,4.075,4.003,6.936,4c4.418,0,8-3.582,8-8c0-1.404-0.37-2.784-1.072-4
	H244.8z"/>
<circle cx="232" cy="391.993" r="16"/>
<path d="M400,375.993H288c-4.418,0-8,3.582-8,8s3.582,8,8,8h112c4.418,0,8-3.582,8-8S404.418,375.993,400,375.993z"/>
<g>
</g>
<g>
</g>
<g>
</g>
<g>
</g>
<g>
</g>
<g>
</g>
<g>
</g>
<g>
</g>
<g>
</g>
<g>
</g>
<g>
</g>
<g>
</g>
<g>
</g>
<g>
</g>
<g>
</g>
</svg>
