<?xml version="1.0" encoding="iso-8859-1"?>
<!-- Generator: Adobe Illustrator 19.0.0, SVG Export Plug-In . SVG Version: 6.00 Build 0)  -->
<svg version="1.1" id="Capa_1" xmlns="http://www.w3.org/2000/svg" xmlns:xlink="http://www.w3.org/1999/xlink" x="0px" y="0px"
	 viewBox="0 0 511.999 511.999" style="enable-background:new 0 0 511.999 511.999;" xml:space="preserve">
<path style="fill:#4398D1;" d="M392.532,8.538c-26.112,11.187-48.861,22.186-69.238,33.16l31.778,31.778
	c11.264,11.264,11.264,29.525,0,40.789l-96.783,96.783c-10.846,10.846-28.288,11.306-39.696,1.05l-51.259-46.139
	c-10.914,12.45-21.094,25.523-30.489,39.15c-8.132,11.716-15.914,23.893-23.296,36.437C44.378,359.022,8.538,503.463,8.538,503.463
	h93.865l142.598-130.464l31.197-28.535l227.264-207.928L392.532,8.538z"/>
<path style="fill:#4193C9;" d="M452.563,77.811C345.369,264.389,134.283,372.308,35.844,414.462
	c-18.09,51.882-27.306,89.001-27.306,89.001h93.865l142.598-130.464l31.197-28.535l227.264-207.928L452.563,77.811z"/>
<path style="fill:#97D3E6;" d="M354.696,73.1l-31.402-31.402c-57.881,30.37-109.626,71.209-152.625,120.437
	c-1.126,1.237-2.219,2.56-3.336,3.823l35.933,32.341C247.852,149.916,298.795,107.796,354.696,73.1z"/>
<g>
	
		<rect x="248.923" y="238.932" transform="matrix(-0.7071 0.7071 -0.7071 -0.7071 641.1253 229.3684)" style="fill:#337AB5;" width="48.272" height="17.066"/>
	
		<rect x="274.519" y="264.532" transform="matrix(-0.7071 0.7071 -0.7071 -0.7071 702.9222 254.9704)" style="fill:#337AB5;" width="48.272" height="17.066"/>
	<path style="fill:#337AB5;" d="M136.843,205.109c-8.132,11.716-15.914,23.893-23.296,36.437l131.454,131.411l31.197-28.535
		L136.843,205.109z"/>
</g>
<path d="M164.371,156.384c-0.708,0.777-1.399,1.579-2.091,2.372l-1.34,1.536l0,0C56.418,278.383,2.497,492.37,0.252,501.415
	c-1.135,4.574,1.664,9.199,6.238,10.334c0.674,0.171,1.357,0.247,2.048,0.247h93.865c2.133,0,4.19-0.794,5.76-2.236l401.06-366.927
	c3.413-3.123,3.721-8.388,0.691-11.887L398.983,2.949c-2.432-2.807-6.4-3.72-9.813-2.253
	c-25.352,10.863-48.221,21.819-69.921,33.484C260.481,64.943,207.959,106.388,164.371,156.384z M352.639,84.603
	c4.062,7.825,2.603,17.382-3.61,23.637l-96.775,96.775c-7.637,7.646-19.925,7.961-27.955,0.734l-8.84-7.953
	C256.376,154.592,302.447,116.568,352.639,84.603z M138.098,218.455l125.754,125.728l-18.585,17.015L124.317,240.24
	C128.771,232.833,133.37,225.571,138.098,218.455z M99.084,494.93H19.631c9.387-34.133,41.992-144.356,95.794-239.433
	l117.238,117.229L99.084,494.93z M390.185,18.855l101.383,116.99L276.48,332.654L147.971,204.17
	c6.485-9.062,13.175-17.8,20.121-26.043l14.037,12.638l30.719,27.673c14.779,13.303,37.384,12.706,51.438-1.357l96.809-96.758
	c14.609-14.575,14.634-38.237,0.06-52.846c-0.017-0.017-0.043-0.043-0.06-0.06l-0.375-0.375l-23.21-23.21
	C354.064,35.264,371.429,27.021,390.185,18.855z M321.766,52.237l19.336,19.336c-50.593,32.52-97.057,71.056-138.366,114.771
	l-23.389-21.051C219.735,119.453,267.956,81.164,321.766,52.237z"/>
<rect x="248.923" y="238.932" transform="matrix(-0.7071 0.7071 -0.7071 -0.7071 641.1253 229.3684)" width="48.272" height="17.066"/>
<rect x="274.519" y="264.532" transform="matrix(-0.7071 0.7071 -0.7071 -0.7071 702.9222 254.9704)" width="48.272" height="17.066"/>
<g>
</g>
<g>
</g>
<g>
</g>
<g>
</g>
<g>
</g>
<g>
</g>
<g>
</g>
<g>
</g>
<g>
</g>
<g>
</g>
<g>
</g>
<g>
</g>
<g>
</g>
<g>
</g>
<g>
</g>
</svg>
