<?xml version="1.0" encoding="iso-8859-1"?>
<!-- Generator: Adobe Illustrator 19.0.0, SVG Export Plug-In . SVG Version: 6.00 Build 0)  -->
<svg version="1.1" id="Capa_1" xmlns="http://www.w3.org/2000/svg" xmlns:xlink="http://www.w3.org/1999/xlink" x="0px" y="0px"
	 viewBox="0 0 480 480" style="enable-background:new 0 0 480 480;" xml:space="preserve">
<path style="fill:#81D1FE;" d="M424,8H307.88c-12.731-0.002-24.941,5.055-33.944,14.056L248,48l-25.944-25.944
	C213.055,13.057,200.848,8.001,188.12,8H152c-17.673,0-32,14.327-32,32v256c0,17.673,14.327,32,32,32h304V40
	C456,22.327,441.673,8,424,8z"/>
<path style="fill:#FCE9CC;" d="M464.968,176.968c-9.374-9.371-24.57-9.369-33.941,0.005c-4.5,4.501-7.028,10.606-7.027,16.971v-48
	c0-13.255-10.745-24-24-24s-24,10.745-24,24v-40c0-13.255-10.745-24-24-24s-24,10.745-24,24v32c0-13.255-10.745-24-24-24
	s-24,10.745-24,24v159.432c-0.002,8.837-7.167,15.998-16.003,15.997c-4.241-0.001-8.309-1.686-11.309-4.685l-38.056-38.056
	c-8.837-8.837-23.163-8.837-32,0s-8.837,23.163,0,32l88,88c5.999,6.001,9.368,14.139,9.368,22.624V472h192V193.944
	C472.001,187.577,469.471,181.47,464.968,176.968z"/>
<path d="M470.632,171.32c-1.981-1.929-4.211-3.584-6.632-4.92V40c-0.026-22.08-17.92-39.974-40-40H307.88
	c-14.86-0.038-29.118,5.867-39.6,16.4L248,36.68L227.72,16.4C217.238,5.868,202.98-0.037,188.12,0H152
	c-22.08,0.026-39.974,17.92-40,40v256c0.026,22.08,17.92,39.974,40,40h52.688l60.28,60.288c4.515,4.491,7.047,10.6,7.032,16.968V480
	h208V193.944C480.021,185.455,476.648,177.31,470.632,171.32L470.632,171.32z M128,296V40c0-13.255,10.745-24,24-24h36.12
	c10.615-0.028,20.8,4.189,28.288,11.712l57.936,57.944l11.312-11.312L259.312,48l20.28-20.28
	c7.487-7.526,17.672-11.746,28.288-11.72H424c13.255,0,24,10.745,24,24v122.024c-0.8,0-1.512,0.096-2.272,0.144
	c-0.392,0-0.8,0-1.16,0.072c-1.96,0.212-3.896,0.603-5.784,1.168c-0.392,0.12-0.8,0.256-1.152,0.384
	c-1.941,0.638-3.816,1.46-5.6,2.456v-20.32c0.022-8.493-3.354-16.643-9.376-22.632c-10.358-10.026-26.057-12.093-38.656-5.088
	v-12.264c0.022-8.493-3.354-16.643-9.376-22.632c-12.668-12.069-32.58-12.069-45.248,0c-6.022,5.989-9.398,14.139-9.376,22.632
	v4.272c-12.596-6.976-28.272-4.905-38.624,5.104c-6.02,5.987-9.396,14.133-9.376,22.624v159.424
	c0.003,4.418-3.575,8.003-7.994,8.006c-2.124,0.002-4.161-0.841-5.662-2.342l-38.064-38.056c-11.96-11.96-31.352-11.96-43.312,0
	c-11.96,11.96-11.96,31.352,0,43.312L188.688,320H152C138.745,320,128,309.255,128,296L128,296z M464,464H288v-50.744
	c0.026-10.613-4.194-20.796-11.72-28.28L227.312,336l-3.248-3.248l-10.4-10.4l-25.376-25.368
	c-5.717-5.711-5.722-14.976-0.011-20.693c2.743-2.746,6.465-4.29,10.347-4.291c3.878,0.013,7.595,1.553,10.344,4.288l38.064,38.064
	c9.374,9.371,24.57,9.369,33.941-0.005c4.502-4.503,7.03-10.611,7.027-16.979V137.944c-0.011-4.248,1.677-8.324,4.688-11.32
	c6.333-6.038,16.291-6.038,22.624,0c3.011,2.996,4.699,7.072,4.688,11.32V272h16V105.944c-0.011-4.248,1.677-8.324,4.688-11.32
	c6.333-6.038,16.291-6.038,22.624,0c3.011,2.996,4.699,7.072,4.688,11.32V272h16V145.944c-0.011-4.248,1.677-8.324,4.688-11.32
	c6.333-6.038,16.291-6.038,22.624,0c3.011,2.996,4.699,7.072,4.688,11.32V272h16v-78.056c-0.019-8.792,7.093-15.936,15.885-15.955
	c1.856-0.004,3.698,0.316,5.443,0.947c6.42,2.179,10.721,8.228,10.672,15.008L464,464z"/>
<path d="M0,224v80h16v-80c0.048-44.163,35.837-79.952,80-80v-16C43.004,128.057,0.057,171.005,0,224z"/>
<path d="M32,224v48h16v-48c0.031-26.497,21.503-47.969,48-48v-16C60.67,160.04,32.04,188.67,32,224z"/>
<path d="M64,224v80h16v-80c0-8.837,7.163-16,16-16v-16C78.327,192,64,206.327,64,224z"/>
<path d="M32,288h16v48H32V288z"/>
<path d="M304.968,50.344c1.504-1.494,3.536-2.336,5.656-2.344H344V32h-33.376c-6.368-0.016-12.478,2.516-16.968,7.032
	l-11.312,11.312l11.312,11.312L304.968,50.344z"/>
<g>
</g>
<g>
</g>
<g>
</g>
<g>
</g>
<g>
</g>
<g>
</g>
<g>
</g>
<g>
</g>
<g>
</g>
<g>
</g>
<g>
</g>
<g>
</g>
<g>
</g>
<g>
</g>
<g>
</g>
</svg>
