<svg width="58" height="58" viewBox="0 0 58 58" fill="none" xmlns="http://www.w3.org/2000/svg">
<path d="M54.0854 15.6374H42.363V6.00544C42.363 5.78793 42.2766 5.57938 42.1227 5.42541L37.942 1.24467C37.9417 1.24434 37.9412 1.24412 37.9409 1.24379C37.9153 1.21831 37.8875 1.19513 37.8588 1.17315C37.8523 1.16822 37.8459 1.1633 37.8393 1.15849C37.8101 1.1375 37.7798 1.11803 37.7479 1.10097C37.7456 1.09977 37.7433 1.09878 37.741 1.09769C37.711 1.08205 37.6798 1.0686 37.6478 1.05668C37.6412 1.05416 37.6345 1.05165 37.6277 1.04935C37.5937 1.03776 37.559 1.0277 37.5232 1.02048C37.521 1.02005 37.5187 1.01994 37.5164 1.0195C37.4846 1.01337 37.452 1.00966 37.419 1.00736C37.4087 1.00659 37.3984 1.00616 37.388 1.00583C37.3792 1.00561 37.3707 1.00452 37.362 1.00452H20.6388C20.6302 1.00452 20.6216 1.00561 20.6131 1.00583C20.6024 1.00616 20.5917 1.0067 20.5809 1.00747C20.5491 1.00966 20.5177 1.01337 20.487 1.01917C20.4836 1.01983 20.4801 1.02005 20.4767 1.0207C20.4417 1.0277 20.4077 1.03754 20.3745 1.04892C20.3665 1.05165 20.3587 1.0546 20.3509 1.05756C20.3209 1.06882 20.2917 1.08139 20.2636 1.09594C20.2596 1.09802 20.2556 1.09955 20.2517 1.10163C20.2207 1.11825 20.1914 1.13717 20.1631 1.1574C20.1554 1.16287 20.1479 1.16855 20.1404 1.17435C20.1131 1.19535 20.0868 1.21744 20.0624 1.2416C20.0613 1.2427 20.06 1.24346 20.0589 1.24456L15.8779 5.4253C15.724 5.57916 15.6377 5.78771 15.6377 6.00533V15.6372H3.9154C3.46244 15.6372 3.09521 16.0043 3.09521 16.4574V49.9039C3.09521 49.9313 3.09664 49.9586 3.09937 49.9858C3.10134 50.006 3.10484 50.0257 3.10823 50.0454C3.10943 50.052 3.10998 50.0587 3.11129 50.0653C3.11599 50.0889 3.12201 50.1119 3.12868 50.1347C3.12944 50.1373 3.12999 50.1402 3.13076 50.1428C3.13786 50.1662 3.14628 50.1891 3.15536 50.2116C3.15624 50.2138 3.15689 50.2161 3.15777 50.2182C3.16684 50.2399 3.17701 50.261 3.18784 50.2818C3.18937 50.2847 3.19057 50.2878 3.19211 50.2907C3.20282 50.3107 3.21463 50.3298 3.22688 50.3487C3.22918 50.3522 3.23104 50.3559 3.23344 50.3596C3.24624 50.3786 3.26002 50.3968 3.27434 50.4147C3.27675 50.4177 3.27883 50.421 3.28134 50.424C3.29873 50.4451 3.3171 50.4653 3.33635 50.4847L9.60658 56.7551C9.76034 56.909 9.96899 56.9954 10.1865 56.9954L47.814 56.9948C48.0315 56.9948 48.2401 56.9084 48.394 56.7547L54.6646 50.4843C54.6839 50.4652 54.702 50.445 54.7193 50.424C54.7215 50.4213 54.7232 50.4185 54.7253 50.4159C54.7401 50.3978 54.7542 50.3791 54.7672 50.3597C54.7694 50.3564 54.7712 50.3529 54.7733 50.3496C54.7858 50.3305 54.7977 50.3109 54.8085 50.2908C54.8099 50.2885 54.8108 50.286 54.812 50.2835C54.8232 50.2622 54.8337 50.2406 54.8429 50.2183C54.8435 50.2167 54.844 50.2151 54.8446 50.2137C54.854 50.1906 54.8626 50.1671 54.8699 50.143C54.8707 50.1406 54.871 50.1382 54.8717 50.1358C54.8785 50.1127 54.8847 50.0893 54.8895 50.0655C54.8907 50.0594 54.8912 50.0531 54.8923 50.047C54.8958 50.0268 54.8994 50.0067 54.9014 49.986C54.9041 49.9589 54.9055 49.9316 54.9055 49.9041V16.4576C54.9055 16.0045 54.5384 15.6374 54.0854 15.6374ZM38.1821 6.00544V3.80473L40.7226 6.3451V15.6374H38.1821V6.00544ZM21.459 2.64488H36.5417V5.18526H21.459V2.64488ZM21.4589 6.82562H36.5418V15.6373H21.4589V6.82562ZM17.2778 6.34521L19.8184 3.80484V15.6374H17.2778V6.34521ZM53.265 49.0839H47.8139C47.3609 49.0839 46.9937 49.451 46.9937 49.9041C46.9937 50.3571 47.3609 50.7243 47.8139 50.7243H52.105L47.4744 55.3547L10.5263 55.3552L5.89542 50.7242H43.6334C44.0865 50.7242 44.4536 50.357 44.4536 49.904C44.4536 49.4509 44.0865 49.0838 43.6334 49.0838H4.73558V17.2778H16.4576H20.6386H37.3619H41.5427H53.265V49.0839Z" fill="#C6D9FF" stroke="#C6D9FF" stroke-width="0.5"/>
<path d="M42.842 41.9926C42.8418 41.5234 42.4614 41.143 41.9922 41.143H39.5936V32.0151H41.9922C42.3499 32.0151 42.6694 31.791 42.7911 31.4547C42.9129 31.1183 42.811 30.7418 42.5362 30.5128L29.5437 19.6858C29.2285 19.4231 28.7709 19.4234 28.4559 19.6858L15.4636 30.5128C15.1888 30.7418 15.0868 31.1184 15.2086 31.4547C15.3304 31.7911 15.6498 32.0151 16.0074 32.0151H18.406V41.143H16.0073C15.5381 41.143 15.1577 41.5232 15.1577 41.9926V45.2405C15.1577 45.7098 15.5381 46.0901 16.0073 46.0901H41.9925C42.2178 46.0901 42.4338 46.0006 42.5933 45.8412C42.7526 45.6819 42.8421 45.4659 42.8421 45.2405L42.842 41.9926ZM18.3541 30.3158L28.9997 21.4444L39.6456 30.3158H38.7441H35.4961H30.6238H27.3759H22.5035H19.2556H18.3541ZM37.8944 32.0151V41.143H36.3456V32.0151H37.8944ZM34.6465 32.0151V41.143H31.4735V32.0151H34.6465ZM29.7741 32.0151V41.143H28.2254V32.0151H29.7741ZM26.5263 32.0151V41.143H23.3531V32.0151H26.5263ZM21.6537 32.0151V41.143H20.1051V32.0151H21.6537ZM16.8568 44.3909V42.8422H19.2555H22.5034H27.3758H30.6237H35.496H38.744H41.1426L41.1427 44.3909H16.8568Z" fill="url(#paint0_linear)"/>
<defs>
<linearGradient id="paint0_linear" x1="14.7489" y1="36.7135" x2="43.2953" y2="36.2892" gradientUnits="userSpaceOnUse">
<stop stop-color="#5529CF"/>
<stop offset="1" stop-color="#9745FF"/>
</linearGradient>
</defs>
</svg>
