<svg width="59" height="58" viewBox="0 0 59 58" fill="none" xmlns="http://www.w3.org/2000/svg">
<g clip-path="url(#clip0)">
<path d="M1.88519 36.1442C2.20309 36.3654 2.53906 36.5594 2.88955 36.7242C3.30715 36.9378 4.00702 37.2955 4.05632 37.5458C4.11714 37.8763 4.0774 38.2174 3.94225 38.5251C3.79822 38.8344 3.64742 39.1002 3.51692 39.3293C3.16312 39.9548 2.57055 41.0026 3.46375 41.7325C3.67255 41.9258 4.03312 42.2052 4.36179 42.4575C4.11984 42.8805 4.01039 43.3664 4.04762 43.8524C4.09872 44.2349 4.30632 44.579 4.62085 44.8026C4.83545 44.9544 5.06455 45.0858 5.29075 45.2144C5.86205 45.5402 6.08535 45.6919 6.16075 45.9945C6.21446 46.3836 6.18145 46.7797 6.06409 47.1545C6.00705 47.4126 5.95195 47.6717 5.91909 47.9278C5.8231 48.8088 5.93194 49.7001 6.23712 50.532C6.67184 52.0676 8.06058 53.1375 9.65622 53.1662C9.92263 53.1654 10.1882 53.1372 10.4489 53.0821C13.2104 52.4275 15.9317 51.6132 18.5989 50.6432C20.7768 51.9211 22.1523 55.8071 22.511 57.2658C22.618 57.6971 23.0053 57.9997 23.4496 57.9995L47.7129 57.9319C48.0204 57.9313 48.3093 57.7844 48.491 57.5363C48.6726 57.2882 48.7254 56.9685 48.6332 56.6752C48.3942 56.0202 48.0646 55.402 47.654 54.8385C47.4222 54.5044 47.2132 54.1549 47.0285 53.7926C46.591 52.9072 46.226 51.9878 45.9372 51.0434C45.3926 49.1956 45.0128 47.3032 44.8023 45.3884C44.7706 45.037 44.55 44.7308 44.2267 44.5895C43.9034 44.4481 43.5287 44.4942 43.2493 44.7096C42.9699 44.9251 42.83 45.2757 42.8844 45.6243C43.108 47.6538 43.5114 49.6595 44.0899 51.6176C44.4079 52.6567 44.8091 53.6685 45.2895 54.6433C45.51 55.081 45.7603 55.5032 46.0387 55.9067L46.1034 56.0034L24.1804 56.0662C23.5387 53.7731 22.3739 51.66 20.7777 49.8931L21.6477 49.5886C22.2954 49.3624 22.7836 49.1922 23.0339 49.112C27.1751 47.8022 29.2457 45.9162 29.1897 43.5053C29.1904 43.2477 29.0857 43.0011 28.8997 42.8228C28.7138 42.6445 28.4629 42.5502 28.2056 42.5619C27.672 42.5745 27.2497 43.0172 27.2621 43.5508C27.2853 44.5455 26.4704 45.9964 22.452 47.2676C22.19 47.3517 21.6854 47.5276 21.0155 47.7616C20.2973 48.0129 19.3838 48.3319 18.3765 48.6741H18.3698C15.6494 49.6713 12.8736 50.5105 10.0564 51.1874C9.15498 51.3612 8.27709 50.7925 8.06702 49.8989C7.86051 49.3489 7.78279 48.759 7.83985 48.1743C7.86499 47.9713 7.91139 47.7703 7.95585 47.5682C8.15283 46.8996 8.18172 46.1927 8.03995 45.5102C7.75785 44.6235 7.10511 43.9027 6.25065 43.5343L6.04959 43.4193C6.15397 43.2086 6.27861 43.0085 6.42175 42.8219C6.58392 42.6164 6.65583 42.354 6.62103 42.0945C6.58623 41.8351 6.4477 41.6008 6.23712 41.4454C6.00512 41.2752 5.45799 40.8654 5.05779 40.5425C5.10419 40.4584 5.15445 40.3656 5.20279 40.2815C5.35455 40.0157 5.52759 39.7063 5.69675 39.3487C6.00265 38.6711 6.09276 37.9158 5.95485 37.1853C5.72285 36.0059 4.59379 35.4279 3.76922 35.0064C3.49194 34.8752 3.22615 34.7209 2.97462 34.5453C2.76734 34.406 2.5732 34.2481 2.39462 34.0736C2.39462 33.9276 2.55122 33.5738 3.28782 32.6758C5.01897 30.448 6.50252 28.0384 7.71225 25.4896C7.9405 25.0901 8.06884 24.6414 8.08635 24.1817C7.98651 23.21 7.4716 22.3289 6.67405 21.765C6.28255 21.4064 5.91425 21.068 5.87172 20.7558C5.87818 20.5267 5.92941 20.3011 6.02252 20.0917C6.18009 19.677 6.36182 19.271 6.54452 18.864C6.9409 18.0467 7.2575 17.1931 7.48992 16.3149L7.58659 15.9031C7.79159 14.9367 8.05566 13.9837 8.37732 13.0495C9.13934 10.9463 10.3192 9.01908 11.8457 7.38389C13.695 5.42736 16.6056 4.04309 20.5109 3.26686C23.4982 2.61108 26.5293 2.17427 29.5802 1.95993C31.1018 1.87755 32.6278 1.96411 34.1303 2.21803C34.6497 2.29588 35.1362 1.94482 35.226 1.42738C35.3158 0.909952 34.9761 0.415456 34.4609 0.313694C32.8162 0.0341824 31.1455 -0.0611394 29.4797 0.0294943C26.3342 0.24766 23.209 0.696106 20.1291 1.37123C15.7704 2.24123 12.6026 3.76953 10.4402 6.05473C8.73442 7.87996 7.41553 10.0314 6.56289 12.3796C6.21476 13.3901 5.92874 14.4208 5.70642 15.4662L5.60975 15.8741C5.40344 16.6323 5.12674 17.3695 4.78325 18.0762C4.58992 18.517 4.38885 18.9578 4.21582 19.4141C3.99326 19.9223 3.90505 20.4792 3.95965 21.0313C4.15472 21.8968 4.65507 22.6631 5.36905 23.1899C5.84175 23.6239 6.15205 23.9294 6.15592 24.1952C6.12093 24.3425 6.06528 24.484 5.99062 24.6157C4.83255 27.0555 3.41289 29.3623 1.75662 31.4955C1.05772 32.3471 0.325954 33.3399 0.481588 34.3326C0.686336 35.1009 1.1924 35.754 1.88519 36.1442Z" fill="#C6D9FF"/>
<path d="M11.2575 17.1999L11.3541 16.7698C11.5235 15.9661 11.7388 15.1728 11.9989 14.3937C12.5811 12.7798 13.4833 11.3003 14.6514 10.0437C15.9042 8.86243 17.4377 8.02033 19.1068 7.59707C19.4438 7.5021 19.7031 7.23234 19.7847 6.89186C19.8662 6.55138 19.7573 6.1934 19.4999 5.95604C19.2426 5.71867 18.877 5.63903 18.5442 5.74783C16.5523 6.26548 14.7274 7.28793 13.2459 8.71647C11.8997 10.1636 10.8597 11.8678 10.1883 13.7267C9.89828 14.5848 9.6591 15.4592 9.47202 16.3454L9.37535 16.764C9.25471 17.2836 9.57789 17.8028 10.0975 17.924C10.1694 17.9408 10.243 17.9493 10.3169 17.9491C10.7665 17.9485 11.1563 17.638 11.2575 17.1999Z" fill="#C6D9FF"/>
<path d="M9.16247 21.2667C9.69634 21.2667 10.1291 20.8339 10.1291 20.3C10.1291 19.7662 9.69634 19.3334 9.16247 19.3334C8.62859 19.3334 8.1958 19.7662 8.1958 20.3C8.1958 20.8339 8.62859 21.2667 9.16247 21.2667Z" fill="#C6D9FF"/>
<path d="M26.5627 19.5364C26.4965 22.8319 27.6611 26.0338 29.8291 28.5167C30.5115 29.2257 31.2555 29.8727 32.0524 30.45C33.4667 31.5433 34.8065 32.5883 35.1622 34.0422C34.0578 34.4793 33.3316 35.5456 33.3294 36.7334V38.6667C33.3345 39.8913 34.1082 40.9807 35.2627 41.3888V41.5667C35.2627 43.7022 36.9939 45.4334 39.1294 45.4334C41.2649 45.4334 42.9961 43.7022 42.9961 41.5667V41.3888C44.1506 40.9807 44.9243 39.8913 44.9294 38.6667V36.7334C44.9266 35.5447 44.1987 34.478 43.0927 34.0422C43.4475 32.5922 44.7883 31.5433 46.2025 30.45C46.9992 29.8725 47.7432 29.2255 48.4258 28.5167C50.5946 26.034 51.7606 22.8323 51.6961 19.5364C51.6691 12.5738 46.0906 6.90524 39.1294 6.76671C32.1682 6.90524 26.5897 12.5738 26.5627 19.5364ZM36.2294 21.2667H35.2627C34.7289 21.2667 34.2961 20.8339 34.2961 20.3C34.2961 19.7662 34.7289 19.3334 35.2627 19.3334C35.7966 19.3334 36.2294 19.7662 36.2294 20.3V21.2667ZM40.0961 33.8334H38.1627V23.2H40.0961V33.8334ZM39.1294 43.5C38.0617 43.5 37.1961 42.6345 37.1961 41.5667H41.0627C41.0627 42.6345 40.1972 43.5 39.1294 43.5ZM42.9961 38.6667C42.9961 39.2006 42.5633 39.6334 42.0294 39.6334H36.2294C35.6955 39.6334 35.2627 39.2006 35.2627 38.6667V36.7334C35.2627 36.1995 35.6955 35.7667 36.2294 35.7667H42.0294C42.5633 35.7667 42.9961 36.1995 42.9961 36.7334V38.6667ZM49.7627 19.5663C49.8229 22.3732 48.8363 25.1019 46.9952 27.2214C46.3888 27.8431 45.73 28.4113 45.0261 28.9198C43.8863 29.7138 42.8756 30.6786 42.0294 31.7802V23.2H42.9961C44.5977 23.2 45.8961 21.9017 45.8961 20.3C45.8961 18.6984 44.5977 17.4 42.9961 17.4C41.3944 17.4 40.0961 18.6984 40.0961 20.3V21.2667H38.1627V20.3C38.1627 18.6984 36.8644 17.4 35.2627 17.4C33.6611 17.4 32.3627 18.6984 32.3627 20.3C32.3627 21.9017 33.6611 23.2 35.2627 23.2H36.2294V31.7802C35.3848 30.6791 34.3757 29.7147 33.2376 28.9208C32.5333 28.4119 31.8742 27.8433 31.2675 27.2214C29.4244 25.1028 28.4364 22.3738 28.4961 19.5663C28.5927 13.6755 33.457 8.70004 39.1294 8.70004C44.8018 8.70004 49.6709 13.6755 49.7627 19.5663ZM42.0294 21.2667V20.3C42.0294 19.7662 42.4622 19.3334 42.9961 19.3334C43.5299 19.3334 43.9627 19.7662 43.9627 20.3C43.9627 20.8339 43.5299 21.2667 42.9961 21.2667H42.0294Z" fill="url(#paint0_linear)"/>
<path d="M54.596 20.3H57.496C58.0299 20.3 58.4627 19.8672 58.4627 19.3334C58.4627 18.7995 58.0299 18.3667 57.496 18.3667H54.596C54.0621 18.3667 53.6293 18.7995 53.6293 19.3334C53.6293 19.8672 54.0621 20.3 54.596 20.3Z" fill="url(#paint1_linear)"/>
<path d="M50.0651 9.36409C50.3218 9.36429 50.568 9.26239 50.7495 9.08085L52.7998 7.02959C53.0511 6.78688 53.1518 6.42747 53.0634 6.0895C52.9749 5.75152 52.711 5.48758 52.373 5.39912C52.035 5.31065 51.6756 5.41143 51.4329 5.66272L49.3816 7.71302C49.1046 7.98939 49.0215 8.40555 49.1711 8.76714C49.3208 9.12872 49.6737 9.3644 50.0651 9.36409Z" fill="url(#paint2_linear)"/>
<path d="M39.1293 4.83333C39.6631 4.83333 40.0959 4.40054 40.0959 3.86667V0.966667C40.0959 0.432791 39.6631 0 39.1293 0C38.5954 0 38.1626 0.432791 38.1626 0.966667V3.86667C38.1626 4.40054 38.5954 4.83333 39.1293 4.83333Z" fill="url(#paint3_linear)"/>
<path d="M28.8769 9.08086C29.0584 8.89954 29.1604 8.6535 29.1604 8.39694C29.1604 8.14038 29.0584 7.89434 28.8769 7.71302L26.8256 5.66272C26.5829 5.41143 26.2235 5.31065 25.8855 5.39912C25.5475 5.48758 25.2836 5.75153 25.1951 6.0895C25.1067 6.42748 25.2074 6.78689 25.4587 7.02959L27.509 9.08086C27.6903 9.26237 27.9364 9.36437 28.1929 9.36437C28.4495 9.36437 28.6955 9.26237 28.8769 9.08086Z" fill="url(#paint4_linear)"/>
<path d="M20.7626 18.3667C20.2287 18.3667 19.7959 18.7995 19.7959 19.3334C19.7959 19.8672 20.2287 20.3 20.7626 20.3H23.6626C24.1964 20.3 24.6292 19.8672 24.6292 19.3334C24.6292 18.7995 24.1964 18.3667 23.6626 18.3667H20.7626Z" fill="url(#paint5_linear)"/>
</g>
<defs>
<linearGradient id="paint0_linear" x1="19.225" y1="29.4187" x2="59.0986" y2="28.934" gradientUnits="userSpaceOnUse">
<stop stop-color="#5529CF"/>
<stop offset="1" stop-color="#9745FF"/>
</linearGradient>
<linearGradient id="paint1_linear" x1="19.225" y1="29.4187" x2="59.0986" y2="28.934" gradientUnits="userSpaceOnUse">
<stop stop-color="#5529CF"/>
<stop offset="1" stop-color="#9745FF"/>
</linearGradient>
<linearGradient id="paint2_linear" x1="19.225" y1="29.4187" x2="59.0986" y2="28.934" gradientUnits="userSpaceOnUse">
<stop stop-color="#5529CF"/>
<stop offset="1" stop-color="#9745FF"/>
</linearGradient>
<linearGradient id="paint3_linear" x1="19.225" y1="29.4187" x2="59.0986" y2="28.934" gradientUnits="userSpaceOnUse">
<stop stop-color="#5529CF"/>
<stop offset="1" stop-color="#9745FF"/>
</linearGradient>
<linearGradient id="paint4_linear" x1="19.225" y1="29.4187" x2="59.0986" y2="28.934" gradientUnits="userSpaceOnUse">
<stop stop-color="#5529CF"/>
<stop offset="1" stop-color="#9745FF"/>
</linearGradient>
<linearGradient id="paint5_linear" x1="19.225" y1="29.4187" x2="59.0986" y2="28.934" gradientUnits="userSpaceOnUse">
<stop stop-color="#5529CF"/>
<stop offset="1" stop-color="#9745FF"/>
</linearGradient>
<clipPath id="clip0">
<rect width="58" height="58" fill="white" transform="translate(0.462402)"/>
</clipPath>
</defs>
</svg>
