<svg width="57" height="56" viewBox="0 0 57 56" fill="none" xmlns="http://www.w3.org/2000/svg">
<g clip-path="url(#clip0)">
<path d="M52.5024 33.6016H49.7025V29.6798C50.1275 29.5294 50.5112 29.2812 50.8218 28.9544C51.3481 28.3973 51.6168 27.645 51.563 26.8802L49.896 2.73587C49.7563 1.1868 48.4584 0.000427328 46.9034 1.15343e-07C45.3483 -0.000427098 44.0496 1.18594 43.9099 2.73502L42.2429 26.8802C42.1886 27.645 42.4574 28.3973 42.9837 28.9544C43.2947 29.2812 43.6779 29.5294 44.103 29.6798V33.6016H12.3722V29.6798C12.7972 29.5294 13.1805 29.2812 13.4915 28.9544C14.0178 28.3973 14.2865 27.645 14.2323 26.8802L12.5653 2.73587C12.426 1.1868 11.1281 0.000427328 9.57264 1.15343e-07C8.01759 -0.000427098 6.71929 1.18594 6.57959 2.73502L4.9126 26.8802C4.85835 27.645 5.12706 28.3973 5.65339 28.9544C5.9644 29.2812 6.34761 29.5294 6.77269 29.6798V33.6016H3.97273C1.91186 33.6037 0.241882 35.2737 0.239746 37.3346V48.534C0.244873 50.2313 1.39536 51.7116 3.0397 52.1345V53.2004C3.04141 54.7456 4.29357 55.9982 5.83923 55.9999H9.57221C11.1179 55.9982 12.3705 54.7456 12.3722 53.2004V52.2669H44.103V53.2004C44.1047 54.7456 45.3573 55.9982 46.9029 55.9999H50.6359C52.1816 55.9982 53.4342 54.7456 53.4355 53.2004V52.1345C55.0798 51.7116 56.2307 50.2313 56.2354 48.534V37.3346C56.2333 35.2737 54.5633 33.6037 52.5024 33.6016ZM45.7725 2.86318C45.8464 2.29542 46.3305 1.87034 46.9034 1.87077C47.4758 1.87077 47.9594 2.29627 48.0329 2.86446L49.6999 27.0097C49.7166 27.2579 49.6286 27.5018 49.4564 27.6817C49.2603 27.888 48.9877 28.0042 48.7028 28.0021H45.1027C44.8181 28.0042 44.5452 27.888 44.3491 27.6813C44.1773 27.5014 44.0889 27.2575 44.1055 27.0093L45.7725 2.86318ZM45.9695 29.8686H47.836V33.6016H45.9695V29.8686ZM8.44223 2.86318C8.51614 2.29542 9.00018 1.87034 9.57264 1.87077C10.1455 1.87077 10.6291 2.29627 10.7026 2.86446L12.3696 27.0097C12.3863 27.2579 12.2978 27.5018 12.1261 27.6817C11.93 27.888 11.657 28.0042 11.3725 28.0021H7.77237C7.48741 28.0042 7.21485 27.888 7.01876 27.6813C6.84702 27.5014 6.75859 27.2575 6.77525 27.0093L8.44223 2.86318ZM8.63918 29.8686H10.5057V33.6016H8.63918V29.8686ZM10.5057 53.2004C10.5052 53.7156 10.0879 54.133 9.57221 54.1334H5.83923C5.32401 54.133 4.90619 53.7156 4.90619 53.2004V52.2669H10.5057V53.2004ZM51.569 53.2004C51.569 53.7156 51.1511 54.133 50.6359 54.1334H46.9029C46.3877 54.133 45.9699 53.7156 45.9695 53.2004V52.2669H51.569V53.2004ZM54.3689 48.534C54.3676 49.5644 53.5329 50.3992 52.5024 50.4005H3.97273C2.94272 50.3992 2.10752 49.5644 2.10624 48.534V37.3346C2.10752 36.3046 2.94272 35.4698 3.97273 35.4681H52.5024C53.5329 35.4698 54.3676 36.3046 54.3689 37.3346V48.534Z" fill="#C6D9FF"/>
<path d="M20.7716 38.2681C19.6391 38.2681 18.618 38.9503 18.1848 39.9966C17.7516 41.0428 17.9909 42.2467 18.7919 43.0477C19.5925 43.8483 20.7968 44.088 21.8431 43.6544C22.8893 43.2212 23.5711 42.2001 23.5711 41.068C23.5694 39.5224 22.3173 38.2698 20.7716 38.2681ZM20.7716 42.0011C20.256 42.0011 19.8382 41.5832 19.8382 41.068C19.8382 40.5524 20.256 40.1346 20.7716 40.1346C21.2868 40.1346 21.7046 40.5524 21.7046 41.068C21.7046 41.5832 21.2868 42.0006 20.7716 42.0011Z" fill="#C6D9FF"/>
<path d="M35.7033 38.2681C34.1573 38.2681 32.9038 39.5215 32.9038 41.068C32.9038 42.6141 34.1573 43.8675 35.7033 43.8675C37.2498 43.8675 38.5033 42.6141 38.5033 41.068C38.5016 39.5224 37.249 38.2698 35.7033 38.2681ZM35.7033 42.0011C35.1881 42.0011 34.7703 41.5832 34.7703 41.068C34.7703 40.5524 35.1881 40.1346 35.7033 40.1346C36.219 40.1346 36.6368 40.5524 36.6368 41.068C36.6364 41.5832 36.219 42.0006 35.7033 42.0011Z" fill="#C6D9FF"/>
<path d="M31.9856 43.1904C31.4875 42.9084 30.892 42.8558 30.3515 43.0455C28.975 43.4715 27.502 43.4719 26.1255 43.0464C25.5847 42.8563 24.9879 42.9084 24.4889 43.1904C24.045 43.4386 23.7306 43.8666 23.6268 44.3643C23.5896 44.548 23.5708 44.7352 23.5708 44.9231C23.5708 46.9481 25.6206 48.5339 28.2373 48.5339C30.8539 48.5339 32.9037 46.9481 32.9037 44.9231C32.9033 44.7356 32.8845 44.5489 32.8477 44.3652C32.7439 43.8675 32.4295 43.439 31.9856 43.1904ZM28.2373 46.6674C26.7198 46.6674 25.4373 45.8681 25.4373 44.9231C25.4373 44.8659 25.4424 44.8103 25.4223 44.8095C25.451 44.7971 25.4834 44.7971 25.5121 44.8095C27.2867 45.3696 29.1908 45.3696 30.965 44.8086C30.9923 44.7984 31.018 44.7992 31.0278 44.7886C31.0338 44.833 31.0368 44.8778 31.0372 44.9227C31.0372 45.8681 29.7547 46.6674 28.2373 46.6674Z" fill="#C6D9FF"/>
<path d="M5.83915 42.9346C5.83915 43.4498 5.42133 43.8676 4.90612 43.8676C4.39047 43.8676 3.97266 43.4498 3.97266 42.9346C3.97266 42.4189 4.39047 42.0011 4.90612 42.0011C5.42133 42.0011 5.83915 42.4189 5.83915 42.9346Z" fill="#C6D9FF"/>
<path d="M9.57206 42.9346C9.57206 43.4498 9.15424 43.8676 8.63903 43.8676C8.12338 43.8676 7.70557 43.4498 7.70557 42.9346C7.70557 42.4189 8.12338 42.0011 8.63903 42.0011C9.15424 42.0011 9.57206 42.4189 9.57206 42.9346Z" fill="#C6D9FF"/>
<path d="M13.3059 42.9346C13.3059 43.4498 12.8876 43.8676 12.3724 43.8676C11.8572 43.8676 11.439 43.4498 11.439 42.9346C11.439 42.4189 11.8572 42.0011 12.3724 42.0011C12.8876 42.0011 13.3059 42.4189 13.3059 42.9346Z" fill="#C6D9FF"/>
<path d="M45.0364 42.9346C45.0364 43.4498 44.6186 43.8676 44.103 43.8676C43.5877 43.8676 43.1699 43.4498 43.1699 42.9346C43.1699 42.4189 43.5877 42.0011 44.103 42.0011C44.6186 42.0011 45.0364 42.4189 45.0364 42.9346Z" fill="#C6D9FF"/>
<path d="M48.7693 42.9346C48.7693 43.4498 48.3515 43.8676 47.8359 43.8676C47.3206 43.8676 46.9028 43.4498 46.9028 42.9346C46.9028 42.4189 47.3206 42.0011 47.8359 42.0011C48.3515 42.0011 48.7693 42.4189 48.7693 42.9346Z" fill="#C6D9FF"/>
<path d="M52.5022 42.9346C52.5022 43.4498 52.0844 43.8676 51.5688 43.8676C51.0536 43.8676 50.6357 43.4498 50.6357 42.9346C50.6357 42.4189 51.0536 42.0011 51.5688 42.0011C52.0844 42.0011 52.5022 42.4189 52.5022 42.9346Z" fill="#C6D9FF"/>
<path d="M25.4377 28.002C25.4377 29.5485 26.6916 30.802 28.2376 30.802C29.7841 30.802 31.0376 29.5485 31.0376 28.002C31.0376 26.4559 29.7841 25.2025 28.2376 25.2025C26.692 25.2042 25.4394 26.4564 25.4377 28.002ZM29.1711 28.002C29.1711 28.5177 28.7533 28.9355 28.2376 28.9355C27.7224 28.9355 27.3046 28.5177 27.3046 28.002C27.3046 27.4868 27.7224 27.069 28.2376 27.069C28.7529 27.069 29.1707 27.4868 29.1711 28.002Z" fill="url(#paint0_linear)"/>
<path d="M32.1945 24.9783C32.5713 24.9783 32.9114 24.7519 33.0562 24.4041C33.2011 24.0564 33.1225 23.6556 32.8576 23.3882C31.6336 22.16 29.9713 21.4696 28.2377 21.4696C26.5041 21.4696 24.8418 22.16 23.6182 23.3882C23.2624 23.7552 23.2683 24.34 23.6315 24.6997C23.9942 25.0599 24.579 25.0607 24.9435 24.7023C25.8167 23.8274 27.0018 23.3361 28.2381 23.3361C29.474 23.3361 30.6596 23.8274 31.5328 24.7023C31.7075 24.8792 31.9459 24.9787 32.1945 24.9783Z" fill="url(#paint1_linear)"/>
<path d="M34.836 22.3372C35.2133 22.3372 35.5533 22.11 35.6982 21.7609C35.8426 21.4123 35.7627 21.0112 35.4957 20.7442C33.5711 18.8183 30.9599 17.7366 28.2373 17.7366C25.5147 17.7366 22.904 18.8183 20.9794 20.7442C20.6256 21.1103 20.6308 21.6926 20.9905 22.0523C21.3506 22.4124 21.9325 22.4175 22.299 22.0638C23.8737 20.4883 26.0098 19.6031 28.2373 19.6031C30.4652 19.6031 32.6013 20.4883 34.176 22.0638C34.3507 22.239 34.5883 22.3377 34.836 22.3372Z" fill="url(#paint2_linear)"/>
<path d="M37.4769 19.6962C37.855 19.6966 38.1959 19.4684 38.3403 19.119C38.4847 18.7695 38.404 18.3679 38.1357 18.1009C32.6673 12.6377 23.8069 12.6377 18.3386 18.1009C18.1011 18.3363 18.0071 18.6807 18.0925 19.0041C18.178 19.327 18.4296 19.58 18.7526 19.6671C19.0756 19.7538 19.4203 19.6611 19.6566 19.4244C21.9323 17.1487 25.0189 15.87 28.2371 15.87C31.4558 15.87 34.5424 17.1487 36.8177 19.4244C36.9929 19.5987 37.23 19.6966 37.4769 19.6962Z" fill="url(#paint3_linear)"/>
</g>
<defs>
<linearGradient id="paint0_linear" x1="17.761" y1="24.8808" x2="38.7425" y2="24.5177" gradientUnits="userSpaceOnUse">
<stop stop-color="#5529CF"/>
<stop offset="1" stop-color="#9745FF"/>
</linearGradient>
<linearGradient id="paint1_linear" x1="17.761" y1="24.8808" x2="38.7425" y2="24.5177" gradientUnits="userSpaceOnUse">
<stop stop-color="#5529CF"/>
<stop offset="1" stop-color="#9745FF"/>
</linearGradient>
<linearGradient id="paint2_linear" x1="17.761" y1="24.8808" x2="38.7425" y2="24.5177" gradientUnits="userSpaceOnUse">
<stop stop-color="#5529CF"/>
<stop offset="1" stop-color="#9745FF"/>
</linearGradient>
<linearGradient id="paint3_linear" x1="17.761" y1="24.8808" x2="38.7425" y2="24.5177" gradientUnits="userSpaceOnUse">
<stop stop-color="#5529CF"/>
<stop offset="1" stop-color="#9745FF"/>
</linearGradient>
<clipPath id="clip0">
<rect width="56" height="56" fill="white" transform="translate(0.235352)"/>
</clipPath>
</defs>
</svg>
