<?xml version="1.0" encoding="utf-8"?>
<!-- Generator: Adobe Illustrator 23.0.0, SVG Export Plug-In . SVG Version: 6.00 Build 0)  -->
<svg version="1.1" id="бриф" xmlns="http://www.w3.org/2000/svg" xmlns:xlink="http://www.w3.org/1999/xlink" x="0px" y="0px"
	 viewBox="0 0 385.9 250.6" style="enable-background:new 0 0 385.9 250.6;" xml:space="preserve">
<style type="text/css">
	.st0{fill:#FFFFFF;}
	.st1{fill:#66249B;}
	.st2{fill:url(#SVGID_1_);}
	.st3{fill:#00D8F3;}
</style>
<path class="st0" d="M321.7,187.1c-2-0.8-3.9-1.7-5.9-2.5c-5.7-2.3-11.2-4.8-17.2-6.9c-7.6-2.7-16.2-4.2-25.6-4.2
	c-15.1-0.1-26,3.5-31.7,10.7c-1.6,1.9-2.8,3.9-4.2,6c-2.7-0.7-3.1-1.9-4.4-2.9c-3.4-2.7-6.5-5.5-10.5-7.9
	c-13.3-8.1-33.2-8.1-44.8-5.8c-4.9,1-9.1,2.6-12.9,4.4c-3.2,1.6-6.1,3.3-9.2,4.9c-1,0.5-2.2,1-3.4,1.5c-2.1-1-1.2-2.2-1.3-3.1
	c-0.3-4.2-1.6-8.2-5.1-12c-6.9-7.6-18.5-11.6-34.6-12.5c-1.8-0.1-3.6-0.1-5.5-0.2c-8.2-0.5-15.4,0.9-21.8,3.4c-2.6,1-5,2.3-8.2,2.8
	c-1.3-1-0.1-1.7,0.4-2.4c1.4-2,3.1-4,4.4-6c1.8-2.8,2.5-5.7,2-8.7c-1.3-7.8-9.5-13.1-22.7-16.5c-14.1-3.6-29.3-4.5-44.8-4.1
	c-2.8,0.1-5.7,0.2-9.4,0.4c0.9-0.8,1.2-1.3,1.8-1.5c4.3-1.7,8.7-3.4,13-5.1c6.8-2.8,12.5-6,17.2-9.8c11.2-8.8,15-25.7-6.3-37.2
	c-5.2-2.8-10.9-5.3-16.4-8c-1.8-0.9-3.7-1.8-6.6-3.1c2.3,0,3.2-0.1,4.1,0c5.3,0.6,10.6,1.3,15.9,1.9c7.6,0.9,15.2,1.8,22.9,2.5
	c7.8,0.7,15.5,0.6,23.2-0.6c8.9-1.4,14.8-4.3,17.3-8.9c3-5.7,1.5-11.1-3.2-16.4c-2.7-3-6.1-5.9-9.3-8.8c-1-0.9-2-1.8-2.9-2.7
	c1.4-0.8,2.1-0.2,2.8,0.1c7.8,3.3,15.6,6.6,23.4,10c4.4,1.9,8.9,3.6,14.5,4.6c6.6,1.1,12.9,1,18.8-0.8c9.5-2.8,16-6.8,17.5-12.5
	c0.5-2,0.6-4,0.9-6c0.2-1.3,0.4-2.6,0.6-3.8c2-0.5,2.8,0,3.5,0.6c1.9,1.6,3.7,3.2,5.8,4.7c1.9,1.4,3.9,2.9,6.3,4.1
	c8.8,4.6,21.6,5.2,32,1.5c5.8-2.1,10.7-4.7,14.7-7.7c2.2-1.6,4.2-3.4,6.3-5c1-0.8,2-1.5,2.9-2.2c2.4,0.4,2.1,1.3,2.4,2
	c1.8,4.3,3.4,8.6,7.3,12.6c0.5,0.5,0.9,1,1.4,1.4c5.9,5.4,14.8,8,27,7.8c7.4-0.2,14.3-1.3,20.8-3.1c3.5-0.9,6.8-2,10.2-2.9
	c1.1-0.3,2.2-0.5,4-0.8c0.3,1.4,0.5,2.4,0.7,3.4c0.6,2.4,0.9,4.8,1.8,7.1c0.7,1.7,1.9,3.3,3.4,4.9c4,4.1,10.6,6.1,19.5,6
	c2.6,0,5.2-0.2,7.8-0.2c1.5,0,3,0.1,5,0.1c-0.1,0.8,0,1.5-0.3,2.1c-2,3.5-2.9,7-2.7,10.7c0.3,4.9,3.9,9.1,10.5,12.6
	c7.3,3.8,16.2,6.2,26,7.8c3.2,0.5,6.4,1,10.5,1.7c-2.1,0.9-3.3,1.5-4.7,2c-5.6,2-11.4,3.8-16.8,5.8c-6.3,2.4-11.8,5.3-15.8,8.8
	c-11,9.6-8.4,21,6.6,29.7c2.5,1.5,5.2,2.9,8.2,4.5c-2.8,0.8-5.1,0.5-7.3,0.5c-8.1-0.1-16.1,0.3-23.9,1.6c-4.5,0.7-8.7,1.8-12.4,3.3
	c-7.8,3.2-11.6,7.4-12.2,12.5c-0.6,4.8,1.2,9.3,4.7,13.7c3.5,4.3,7.8,8.4,11.7,12.6c1,1.1,2.2,2.1,3.2,3.1
	C322.5,186.8,322.1,186.9,321.7,187.1z"/>
<path class="st1" d="M296.5,173.1c-1.6-0.7-3.3-1.4-4.9-2c-4.7-1.9-9.2-4-14.2-5.7c-6.3-2.2-13.4-3.4-21.2-3.5
	c-12.5-0.1-21.4,2.9-26.2,8.8c-1.3,1.6-2.3,3.3-3.5,4.9c-2.2-0.5-2.6-1.6-3.6-2.4c-2.8-2.2-5.4-4.5-8.7-6.5c-11-6.6-27.4-6.7-37-4.8
	c-4.1,0.8-7.5,2.1-10.6,3.7c-2.6,1.3-5.1,2.7-7.6,4c-0.9,0.4-1.8,0.8-2.8,1.2c-1.7-0.9-1-1.8-1.1-2.6c-0.2-3.4-1.3-6.8-4.2-9.9
	c-5.7-6.2-15.3-9.6-28.6-10.3c-1.5-0.1-3,0-4.5-0.1c-6.8-0.4-12.7,0.7-18,2.8c-2.2,0.9-4.1,1.9-6.8,2.3c-1-0.8-0.1-1.4,0.3-2
	c1.2-1.7,2.6-3.3,3.6-4.9c1.5-2.3,2.1-4.7,1.7-7.2c-1.1-6.4-7.8-10.8-18.7-13.7c-11.6-3-24.2-3.7-37-3.4c-2.3,0.1-4.7,0.2-7.8,0.3
	c0.7-0.6,1-1,1.5-1.3c3.5-1.4,7.2-2.8,10.7-4.2c5.6-2.3,10.3-5,14.2-8c9.2-7.3,12.3-21.2-5.2-30.7c-4.3-2.3-9-4.4-13.6-6.6
	c-1.5-0.7-3.1-1.5-5.5-2.6c1.9,0,2.7-0.1,3.4,0c4.4,0.5,8.8,1.1,13.2,1.6c6.3,0.7,12.6,1.5,18.9,2.1C79.2,73.1,85.7,73,92,72
	c7.3-1.1,12.3-3.6,14.3-7.4c2.5-4.7,1.2-9.2-2.6-13.5c-2.2-2.5-5.1-4.8-7.7-7.3c-0.8-0.8-1.6-1.5-2.4-2.2c1.1-0.6,1.8-0.2,2.4,0.1
	c6.5,2.7,12.9,5.5,19.4,8.2c3.7,1.5,7.4,3,12,3.8c5.4,0.9,10.6,0.8,15.6-0.6c7.9-2.3,13.2-5.6,14.4-10.3c0.4-1.6,0.5-3.3,0.8-4.9
	c0.2-1.1,0.3-2.2,0.5-3.2c1.6-0.4,2.3,0,2.9,0.5c1.6,1.3,3.1,2.7,4.8,3.9c1.6,1.2,3.2,2.4,5.2,3.4c7.3,3.8,17.9,4.3,26.4,1.2
	c4.8-1.7,8.8-3.9,12.2-6.3c1.8-1.4,3.5-2.8,5.2-4.2c0.8-0.6,1.6-1.2,2.4-1.8c2,0.3,1.7,1.1,1.9,1.7c1.5,3.5,2.8,7.1,6,10.4
	c0.4,0.4,0.7,0.8,1.1,1.2c4.8,4.5,12.3,6.6,22.3,6.4c6.1-0.1,11.8-1.1,17.2-2.5c2.8-0.8,5.6-1.6,8.4-2.4c0.9-0.2,1.8-0.4,3.3-0.7
	c0.2,1.1,0.4,2,0.6,2.8c0.5,2,0.7,4,1.5,5.9c0.6,1.4,1.6,2.7,2.8,4c3.3,3.4,8.8,5,16.1,5c2.1,0,4.3-0.2,6.4-0.2
	c1.2,0,2.5,0.1,4.1,0.1c-0.1,0.7,0,1.2-0.3,1.7c-1.6,2.9-2.4,5.8-2.2,8.8c0.3,4,3.2,7.5,8.7,10.4c6,3.2,13.4,5.1,21.4,6.5
	c2.6,0.4,5.3,0.8,8.7,1.4c-1.7,0.7-2.7,1.2-3.8,1.6c-4.6,1.6-9.4,3.1-13.8,4.8c-5.2,2-9.7,4.4-13,7.3c-9.1,7.9-7,17.3,5.4,24.5
	c2.1,1.2,4.3,2.4,6.8,3.7c-2.3,0.7-4.2,0.4-6,0.4c-6.7-0.1-13.3,0.3-19.7,1.3c-3.7,0.6-7.2,1.5-10.2,2.7c-6.4,2.6-9.6,6.1-10.1,10.3
	c-0.5,3.9,1,7.7,3.9,11.3c2.9,3.5,6.4,7,9.7,10.4c0.8,0.9,1.8,1.7,2.7,2.6C297.2,172.8,296.9,172.9,296.5,173.1z"/>
<g>
	
		<radialGradient id="SVGID_1_" cx="130.7244" cy="66.8861" r="101.1945" gradientTransform="matrix(1.0762 0 0 0.8727 50.8428 46.0672)" gradientUnits="userSpaceOnUse">
		<stop  offset="0" style="stop-color:#FFCCBE"/>
		<stop  offset="1" style="stop-color:#FD3CBC"/>
	</radialGradient>
	<path class="st2" d="M67.5,77.2c0.7-0.9,4.3,0.6,10.3,1.2c8.8,0.9,15.9-0.9,19.6-1.8c5.5-1.4,8.6-2.1,11.5-4.3
		c5.5-4.2,6.2-11,6.5-17.1c7.6,4.3,17.6,5.7,26.5,3.7c8.9-2,16.6-7.4,20.4-14.2c15.8,9.5,40.4,7.5,53.6-4.3c-1.7,3.8,2,7.9,6,10.3
		c13.5,8.4,33.5,9.1,47.9,1.9c0.2,1,1.5,8.7,10.2,13.1c7.3,3.7,14.7,2.5,16.3,2.2c-0.7,1.2-1.7,3.4-1.4,6.2c0.3,3,2.1,5,3.1,6.2
		c6,7.3,15.1,14.4,25.8,13.6c-9.4,2.5-18.1,7.8-21.8,15.2c-3.6,7.5-1.1,17.1,7.2,21.5c-9.6-0.3-20-0.4-27.9,4.1
		c-10,5.8-11.9,18.9-3.8,26.3c-10.8-3.1-22.4-4.4-33.8-3.9c-9.6,0.4-21,3.7-22.7,11.3c-7.7-7.4-19.2-12.2-31.1-12.8
		c-11.9-0.6-24.1,2.8-32.9,9.4c2-3,1.1-6.9-1.3-9.7c-2.4-2.8-6-4.8-9.8-6.3c-13-5.4-28.3-6.8-42.5-4.1c5.4-2.8,5.4-9.6,1.8-13.8
		c-3.6-4.3-9.7-6.6-15.6-8.7c-9.6-3.4-20-6.7-30.3-5.3c1.6-0.6,14.4-5.8,17.2-16.9c0.3-1.1,2.2-9.5-3.4-16.5
		C70.3,80.2,66.8,78.2,67.5,77.2z"/>
</g>
<g id="Слой_3_копия_11">
	<path class="st1" d="M127.9,97.6c-2.9,0-5.3-0.7-7.4-2.1c-2.6-1.8-3.7-4.5-3.1-7.5l0.1-0.3l1.2-3.2h0.7l-0.8-2.1l0.1-0.9
		c0.3-2.6,1.8-4.8,4.3-6.3c2.2-1.3,4.7-2,7.5-2c3.1,0,5.7,0.7,7.7,2.1c2.5,1.7,3.7,4.3,3.2,7.2c-0.2,1.1-0.7,2.2-1.3,3.1
		c0.5,1.2,0.7,2.5,0.4,3.8c-0.5,2.7-2.1,4.9-4.8,6.4C133.6,97,130.9,97.6,127.9,97.6z"/>
	<path class="st1" d="M127.3,84h2.4c0.6,0,1.2-0.2,1.6-0.5c0.4-0.3,0.7-0.8,0.8-1.3c0.1-0.5,0-1-0.3-1.3c-0.3-0.4-0.8-0.5-1.5-0.5
		c-0.6,0-1.2,0.2-1.6,0.5c-0.5,0.3-0.7,0.7-0.8,1.3h-4.5l0-0.1c0.2-1.4,1-2.6,2.3-3.4c1.4-0.8,3-1.2,4.9-1.2c2,0,3.7,0.4,4.8,1.2
		c1.2,0.8,1.6,1.9,1.4,3.3c-0.1,0.7-0.5,1.4-1,2c-0.6,0.6-1.3,1-2.2,1.4c0.9,0.3,1.5,0.8,1.9,1.4c0.4,0.6,0.5,1.4,0.4,2.2
		c-0.3,1.5-1.1,2.7-2.6,3.5c-1.5,0.8-3.3,1.2-5.5,1.2c-1.8,0-3.3-0.4-4.5-1.2c-1.2-0.8-1.6-2-1.3-3.5l0-0.1h4.5
		c-0.1,0.6,0,1,0.3,1.4c0.3,0.3,0.9,0.5,1.7,0.5c0.7,0,1.3-0.2,1.8-0.6c0.5-0.4,0.8-0.9,0.9-1.4c0.1-0.7,0-1.2-0.4-1.5
		c-0.4-0.3-0.9-0.5-1.7-0.5h-2.4l0.3-1.7L127.3,84z"/>
	<path class="st1" d="M142.3,97.6c-3.8,0-6-1.5-7.2-2.8c-1.1-1.2-2.3-3.3-1.8-6.5c0.3-1.7,1-3.2,2-4.5l-0.3-1.5l0.1-0.6
		c0.3-2.5,1.7-4.7,4.1-6.3c2.2-1.5,4.9-2.2,7.9-2.2c3.9,0,6.3,1.5,7.7,2.7c1.4,1.3,3,3.7,2.4,7.5l-1.1,6.4c-0.1,0.5-0.1,1-0.1,1.4
		c0,0.4,0.1,0.8,0.1,1.2l1.1,4.9h-12.5C143.9,97.5,143.1,97.6,142.3,97.6z"/>
	<path class="st1" d="M147,93.2c-0.1-0.4-0.2-0.7-0.2-1.1c0-0.4-0.1-0.8,0-1.2c-0.5,0.8-1.2,1.4-1.9,1.9c-0.7,0.5-1.6,0.7-2.5,0.7
		c-1.6,0-2.7-0.4-3.5-1.3c-0.8-0.8-1-2-0.8-3.4c0.3-1.6,1-2.8,2.3-3.6c1.3-0.8,3.1-1.2,5.4-1.2h2l0.2-1.3c0.1-0.8,0.1-1.4-0.2-1.8
		c-0.3-0.4-0.7-0.6-1.4-0.6c-0.6,0-1,0.2-1.4,0.5c-0.4,0.3-0.6,0.8-0.7,1.4l-4.5,0l0-0.1c0.2-1.4,0.9-2.5,2.3-3.5
		c1.4-0.9,3.1-1.4,5.1-1.4c1.8,0,3.2,0.5,4.3,1.4c1,0.9,1.4,2.3,1.1,4l-1.1,6.4c-0.1,0.8-0.2,1.5-0.2,2.1c0,0.6,0.1,1.3,0.2,1.9H147
		z M144,90.5c0.6,0,1.2-0.2,1.7-0.5c0.6-0.3,1-0.7,1.2-1.2l0.4-2.4h-2c-0.7,0-1.3,0.2-1.8,0.7c-0.5,0.4-0.7,1-0.8,1.7
		c-0.1,0.6,0,1,0.2,1.3C143.1,90.4,143.5,90.5,144,90.5z"/>
	<polygon class="st1" points="148.3,97.3 152.4,73.5 175.7,73.5 171.6,97.3 	"/>
	<path class="st1" d="M167.5,93.2h-4.7l2.1-12.4h-4.4l-2.1,12.4h-4.7l2.7-15.6h13.7L167.5,93.2z"/>
	<path class="st1" d="M177.2,97.6c-3.8,0-7-1.5-9-4.1c-1.7-2.3-2.3-5.2-1.7-8.5l0.1-0.4c0.6-3.2,1.9-5.9,4.1-7.9
		c2.4-2.3,5.6-3.5,9.3-3.5c3.8,0,7,1.5,8.9,4.1c1.7,2.3,2.3,5.2,1.7,8.5l-0.1,0.4c-0.6,3.2-2,5.9-4.1,7.9
		C184,96.5,180.8,97.6,177.2,97.6z"/>
	<path class="st1" d="M171.3,85.3c0.4-2.4,1.4-4.4,2.9-5.8c1.5-1.4,3.5-2.1,5.8-2.1c2.2,0,3.9,0.7,5,2.2c1.1,1.5,1.4,3.4,1,5.7
		l-0.1,0.3c-0.4,2.4-1.4,4.4-2.9,5.8c-1.5,1.4-3.5,2.1-5.8,2.1c-2.2,0-3.9-0.7-5-2.2c-1.1-1.5-1.4-3.4-1-5.7L171.3,85.3z
		 M175.9,85.6c-0.3,1.5-0.2,2.7,0,3.5c0.3,0.8,0.9,1.2,1.9,1.2c0.9,0,1.7-0.4,2.2-1.3c0.6-0.9,1-2,1.2-3.4l0.1-0.3
		c0.3-1.5,0.2-2.6,0-3.5c-0.3-0.8-0.9-1.3-1.9-1.3c-0.9,0-1.7,0.4-2.3,1.3c-0.6,0.9-1,2-1.2,3.4L175.9,85.6z"/>
	<path class="st1" d="M190.4,97.3l0.1-0.6c-1.2,0.4-2.6,0.6-4.2,0.6h-6l1.7-11.5h2.6c0.1-0.5,0.3-1.2,0.4-2.2l1.7-10.2h22l-4.1,23.8
		H190.4z"/>
	<path class="st1" d="M203.2,77.6l-2.7,15.6h-4.7l2.1-12.4h-3.1l-0.6,3.5c-0.6,3.2-1.4,5.5-2.6,6.8c-1.2,1.4-3,2.1-5.4,2.1h-0.7
		l0.5-3.2h0.4c0.9,0,1.5-0.4,1.9-1.2c0.4-0.8,0.8-2.3,1.2-4.5l1.1-6.7H203.2z"/>
	<polygon class="st1" points="197.9,97.3 202,73.5 225.3,73.5 221.2,97.3 	"/>
	<path class="st1" d="M217.1,93.2h-4.7l1-6.1h-4.4l-1,6.1h-4.7l2.7-15.6h4.7l-1.1,6.3h4.4l1.1-6.3h4.7L217.1,93.2z"/>
	<polygon class="st1" points="214.6,97.3 218.7,73.5 242,73.5 237.9,97.3 	"/>
	<path class="st1" d="M231.8,77.6h4.7l-2.7,15.6h-4.7l1.5-8.7l-0.1,0l-5.8,8.7h-4.7l2.7-15.6h4.7l-1.5,8.7l0.1,0L231.8,77.6z"/>
	<polygon class="st1" points="235.2,97.3 237.4,84.9 232.6,84.9 234.6,73.5 258.3,73.5 256.4,84.9 251.6,84.9 249.4,97.3 	"/>
	<path class="st1" d="M252.3,80.8h-4.8l-2.1,12.4h-4.7l2.1-12.4h-4.7l0.5-3.2h14.2L252.3,80.8z"/>
	<path class="st1" d="M247.1,97.3l4.1-23.8h14.2l-0.9,5.3c2.5,0.5,4.2,1.5,5.2,2.5c1.5,1.3,3.2,3.7,2.6,7.3
		c-0.5,2.7-1.9,4.9-4.3,6.5c-2.2,1.5-5,2.3-8.2,2.3H247.1z"/>
	<path class="st1" d="M259.1,82.7h2.6c2,0,3.6,0.5,4.7,1.5c1.1,1,1.5,2.3,1.3,3.8c-0.3,1.6-1.1,2.9-2.5,3.9
		c-1.4,0.9-3.1,1.4-5.3,1.4h-7.2l2.7-15.6h4.7L259.1,82.7z M258.5,85.8l-0.7,4.3h2.6c0.7,0,1.3-0.2,1.8-0.6c0.5-0.4,0.7-0.9,0.9-1.5
		c0.1-0.6,0-1.1-0.3-1.5c-0.3-0.4-0.8-0.6-1.6-0.6H258.5z"/>
	<path class="st1" d="M117.7,137.3l7.9-46.3h34.5l-2.4,14H147c3.2,0.7,5.9,2.2,8,4.3c3.2,3.2,4.5,7.4,3.7,12.1
		c-0.8,4.8-3.2,8.7-7.1,11.5c-3.9,2.9-8.6,4.3-14.2,4.3H117.7z M138.4,123.3c0.2,0,0.6,0,1.2-0.6c0.7-0.7,1.1-1.5,1.3-2.6
		c0.1-0.7,0.1-1.3-0.1-1.7c0,0-0.1,0-0.2,0H139l-0.8,4.9H138.4z"/>
	<path class="st1" d="M153.7,100.8h-16.4l-1.3,7.7h5.8c4.2,0,7.5,1.2,9.8,3.5c2.3,2.3,3.2,5.3,2.6,8.8c-0.7,3.8-2.5,6.8-5.5,9
		c-3,2.2-6.7,3.3-11.2,3.3h-14.2l6.5-38.1h24.9L153.7,100.8z M134.9,114.3l-0.5,2.7l-1.8,10.4h5.8c1.8,0,3.4-0.6,4.7-1.9
		c1.3-1.3,2.2-2.9,2.5-4.7c0.3-1.8,0-3.4-0.8-4.6c-0.8-1.2-2.2-1.8-4.1-1.8H134.9z"/>
	<path class="st1" d="M151.2,137.3l7.9-46.3h18.7c5.6,0,10.1,1.6,13.3,4.8c3.2,3.2,4.4,7.3,3.6,12.1c-0.9,4.8-3.2,8.6-7,11.4
		c-3.8,2.8-8.5,4.2-14.1,4.2h-2.1l-2.4,13.8H151.2z M174.7,109.4c0.4,0,0.7-0.1,1.1-0.4c0.6-0.6,1-1.4,1.1-2.3
		c0.1-0.8,0.1-1.4,0-1.7c0,0-2.2,0-2.2,0l-0.8,4.5H174.7z"/>
	<path class="st1" d="M167.5,119.3l-2.4,13.8h-8.5l6.5-38.1h14.6c4.2,0,7.5,1.1,9.7,3.4c2.2,2.3,3.1,5.2,2.5,8.8
		c-0.7,3.8-2.5,6.8-5.4,8.9c-2.9,2.2-6.6,3.2-11,3.2H167.5z M168.5,113.6h6.1c1.8,0,3.3-0.6,4.6-1.8c1.2-1.2,2-2.7,2.3-4.5
		c0.3-1.9,0.1-3.5-0.7-4.7c-0.8-1.2-2.1-1.8-4-1.8h-6.1L168.5,113.6z"/>
	<polygon class="st1" points="207.6,137.3 209.4,126.8 201.6,137.3 185.2,137.3 193.1,90.9 211.1,90.9 209.3,101.4 217.1,90.9 
		233.6,90.9 225.6,137.3 	"/>
	<path class="st1" d="M219.6,95h8.5l-6.5,38.1h-8.5l4.1-24l-0.2-0.1l-18,24h-8.4l6.5-38.1h8.4l-4.1,24l0.2,0.1L219.6,95z"/>
	<path class="st1" d="M235.3,137.3l1-5.9c-3.2-0.9-5.9-2.5-8-4.9c-3.2-3.4-4.3-7.7-3.4-12.7c0.9-5.1,3.2-9.2,7.1-12.4
		c2.9-2.4,6.4-4,10.3-4.8l1-5.7h18l-1.1,6.2c3.2,1,5.8,2.7,7.9,5c3.1,3.5,4.2,7.8,3.3,12.8c-0.9,5-3.3,9.1-7.1,12.1
		c-2.9,2.3-6.3,3.8-10.1,4.6l-1,5.6H235.3z"/>
	<path class="st1" d="M254.8,100.3c4.1,0.3,7.3,1.8,9.5,4.3c2.3,2.6,3.1,5.8,2.4,9.7c-0.7,4-2.6,7.3-5.6,9.7c-3,2.4-6.7,3.8-11.1,4
		l-0.9,5.1h-8.5l0.9-5.1c-4.1-0.3-7.4-1.7-9.7-4.2c-2.3-2.5-3.1-5.7-2.4-9.5c0.7-4.2,2.6-7.5,5.7-10c3.1-2.5,6.8-3.9,11.2-4.2
		l0.9-5.2h8.5L254.8,100.3z M237.8,114.4c-0.4,2.2-0.2,4,0.7,5.2c0.9,1.2,2.2,1.9,4,2.1l0.2,0l2.5-14.9l-0.1-0.1
		c-1.8,0.2-3.4,1-4.7,2.3C239,110.4,238.1,112.2,237.8,114.4z M258.5,114.3c0.4-2.3,0.2-4.1-0.7-5.4c-0.8-1.3-2.1-2-3.9-2.2l-0.1,0
		l-2.5,14.8l0.1,0.1c1.8-0.2,3.3-0.9,4.6-2.2C257.3,118.1,258.1,116.4,258.5,114.3z"/>
</g>
<g id="Слой_3_копия_12">
	<path class="st3" d="M127.3,84h2.4c0.6,0,1.2-0.2,1.6-0.5c0.4-0.3,0.7-0.8,0.8-1.3c0.1-0.5,0-1-0.3-1.3c-0.3-0.4-0.8-0.5-1.5-0.5
		c-0.6,0-1.2,0.2-1.6,0.5c-0.5,0.3-0.7,0.7-0.8,1.3h-4.5l0-0.1c0.2-1.4,1-2.6,2.3-3.4c1.4-0.8,3-1.2,4.9-1.2c2,0,3.7,0.4,4.8,1.2
		c1.2,0.8,1.6,1.9,1.4,3.3c-0.1,0.7-0.5,1.4-1,2c-0.6,0.6-1.3,1-2.2,1.4c0.9,0.3,1.5,0.8,1.9,1.4c0.4,0.6,0.5,1.4,0.4,2.2
		c-0.3,1.5-1.1,2.7-2.6,3.5c-1.5,0.8-3.3,1.2-5.5,1.2c-1.8,0-3.3-0.4-4.5-1.2c-1.2-0.8-1.6-2-1.3-3.5l0-0.1h4.5
		c-0.1,0.6,0,1,0.3,1.4c0.3,0.3,0.9,0.5,1.7,0.5c0.7,0,1.3-0.2,1.8-0.6c0.5-0.4,0.8-0.9,0.9-1.4c0.1-0.7,0-1.2-0.4-1.5
		c-0.4-0.3-0.9-0.5-1.7-0.5h-2.4l0.3-1.7L127.3,84z"/>
	<path class="st3" d="M147,93.2c-0.1-0.4-0.2-0.7-0.2-1.1c0-0.4-0.1-0.8,0-1.2c-0.5,0.8-1.2,1.4-1.9,1.9c-0.7,0.5-1.6,0.7-2.5,0.7
		c-1.6,0-2.7-0.4-3.5-1.3c-0.8-0.8-1-2-0.8-3.4c0.3-1.6,1-2.8,2.3-3.6c1.3-0.8,3.1-1.2,5.4-1.2h2l0.2-1.3c0.1-0.8,0.1-1.4-0.2-1.8
		c-0.3-0.4-0.7-0.6-1.4-0.6c-0.6,0-1,0.2-1.4,0.5c-0.4,0.3-0.6,0.8-0.7,1.4l-4.5,0l0-0.1c0.2-1.4,0.9-2.5,2.3-3.5
		c1.4-0.9,3.1-1.4,5.1-1.4c1.8,0,3.2,0.5,4.3,1.4c1,0.9,1.4,2.3,1.1,4l-1.1,6.4c-0.1,0.8-0.2,1.5-0.2,2.1c0,0.6,0.1,1.3,0.2,1.9H147
		z M144,90.5c0.6,0,1.2-0.2,1.7-0.5c0.6-0.3,1-0.7,1.2-1.2l0.4-2.4h-2c-0.7,0-1.3,0.2-1.8,0.7c-0.5,0.4-0.7,1-0.8,1.7
		c-0.1,0.6,0,1,0.2,1.3C143.1,90.4,143.5,90.5,144,90.5z"/>
	<path class="st3" d="M167.5,93.2h-4.7l2.1-12.4h-4.4l-2.1,12.4h-4.7l2.7-15.6h13.7L167.5,93.2z"/>
	<path class="st3" d="M171.3,85.3c0.4-2.4,1.4-4.4,2.9-5.8c1.5-1.4,3.5-2.1,5.8-2.1c2.2,0,3.9,0.7,5,2.2c1.1,1.5,1.4,3.4,1,5.7
		l-0.1,0.3c-0.4,2.4-1.4,4.4-2.9,5.8c-1.5,1.4-3.5,2.1-5.8,2.1c-2.2,0-3.9-0.7-5-2.2c-1.1-1.5-1.4-3.4-1-5.7L171.3,85.3z
		 M175.9,85.6c-0.3,1.5-0.2,2.7,0,3.5c0.3,0.8,0.9,1.2,1.9,1.2c0.9,0,1.7-0.4,2.2-1.3c0.6-0.9,1-2,1.2-3.4l0.1-0.3
		c0.3-1.5,0.2-2.6,0-3.5c-0.3-0.8-0.9-1.3-1.9-1.3c-0.9,0-1.7,0.4-2.3,1.3c-0.6,0.9-1,2-1.2,3.4L175.9,85.6z"/>
	<path class="st3" d="M203.2,77.6l-2.7,15.6h-4.7l2.1-12.4h-3.1l-0.6,3.5c-0.6,3.2-1.4,5.5-2.6,6.8c-1.2,1.4-3,2.1-5.4,2.1h-0.7
		l0.5-3.2h0.4c0.9,0,1.5-0.4,1.9-1.2c0.4-0.8,0.8-2.3,1.2-4.5l1.1-6.7H203.2z"/>
	<path class="st3" d="M217.1,93.2h-4.7l1-6.1h-4.4l-1,6.1h-4.7l2.7-15.6h4.7l-1.1,6.3h4.4l1.1-6.3h4.7L217.1,93.2z"/>
	<path class="st3" d="M231.8,77.6h4.7l-2.7,15.6h-4.7l1.5-8.7l-0.1,0l-5.8,8.7h-4.7l2.7-15.6h4.7l-1.5,8.7l0.1,0L231.8,77.6z"/>
	<path class="st3" d="M252.3,80.8h-4.8l-2.1,12.4h-4.7l2.1-12.4h-4.7l0.5-3.2h14.2L252.3,80.8z"/>
	<path class="st3" d="M259.1,82.7h2.6c2,0,3.6,0.5,4.7,1.5c1.1,1,1.5,2.3,1.3,3.8c-0.3,1.6-1.1,2.9-2.5,3.9
		c-1.4,0.9-3.1,1.4-5.3,1.4h-7.2l2.7-15.6h4.7L259.1,82.7z M258.5,85.8l-0.7,4.3h2.6c0.7,0,1.3-0.2,1.8-0.6c0.5-0.4,0.7-0.9,0.9-1.5
		c0.1-0.6,0-1.1-0.3-1.5c-0.3-0.4-0.8-0.6-1.6-0.6H258.5z"/>
	<path class="st3" d="M153.7,100.8h-16.4l-1.3,7.7h5.8c4.2,0,7.5,1.2,9.8,3.5c2.3,2.3,3.2,5.3,2.6,8.8c-0.7,3.8-2.5,6.8-5.5,9
		c-3,2.2-6.7,3.3-11.2,3.3h-14.2l6.5-38.1h24.9L153.7,100.8z M134.9,114.3l-0.5,2.7l-1.8,10.4h5.8c1.8,0,3.4-0.6,4.7-1.9
		c1.3-1.3,2.2-2.9,2.5-4.7c0.3-1.8,0-3.4-0.8-4.6c-0.8-1.2-2.2-1.8-4.1-1.8H134.9z"/>
	<path class="st3" d="M167.5,119.3l-2.4,13.8h-8.5l6.5-38.1h14.6c4.2,0,7.5,1.1,9.7,3.4c2.2,2.3,3.1,5.2,2.5,8.8
		c-0.7,3.8-2.5,6.8-5.4,8.9c-2.9,2.2-6.6,3.2-11,3.2H167.5z M168.5,113.6h6.1c1.8,0,3.3-0.6,4.6-1.8c1.2-1.2,2-2.7,2.3-4.5
		c0.3-1.9,0.1-3.5-0.7-4.7c-0.8-1.2-2.1-1.8-4-1.8h-6.1L168.5,113.6z"/>
	<path class="st3" d="M219.6,95h8.5l-6.5,38.1h-8.5l4.1-24l-0.2-0.1l-18,24h-8.4l6.5-38.1h8.4l-4.1,24l0.2,0.1L219.6,95z"/>
	<path class="st3" d="M254.8,100.3c4.1,0.3,7.3,1.8,9.5,4.3c2.3,2.6,3.1,5.8,2.4,9.7c-0.7,4-2.6,7.3-5.6,9.7c-3,2.4-6.7,3.8-11.1,4
		l-0.9,5.1h-8.5l0.9-5.1c-4.1-0.3-7.4-1.7-9.7-4.2c-2.3-2.5-3.1-5.7-2.4-9.5c0.7-4.2,2.6-7.5,5.7-10c3.1-2.5,6.8-3.9,11.2-4.2
		l0.9-5.2h8.5L254.8,100.3z M237.8,114.4c-0.4,2.2-0.2,4,0.7,5.2c0.9,1.2,2.2,1.9,4,2.1l0.2,0l2.5-14.9l-0.1-0.1
		c-1.8,0.2-3.4,1-4.7,2.3C239,110.4,238.1,112.2,237.8,114.4z M258.5,114.3c0.4-2.3,0.2-4.1-0.7-5.4c-0.8-1.3-2.1-2-3.9-2.2l-0.1,0
		l-2.5,14.8l0.1,0.1c1.8-0.2,3.3-0.9,4.6-2.2C257.3,118.1,258.1,116.4,258.5,114.3z"/>
</g>
</svg>
