<svg width="67" height="51" viewBox="0 0 67 51" fill="none" xmlns="http://www.w3.org/2000/svg">
<path d="M7.94541 27.453H9.85216H11.6377H13.5445C15.8979 27.453 18.1164 28.4873 19.6314 30.2909C19.98 30.706 19.9261 31.3251 19.5111 31.6737C19.0958 32.0225 18.477 31.9684 18.1284 31.5535C16.9874 30.195 15.3167 29.4159 13.5446 29.4159H12.8787L14.382 35.7661C14.4584 36.0887 14.3668 36.428 14.1385 36.6683L11.4565 39.4906C11.2712 39.6856 11.0141 39.7961 10.745 39.7961C10.476 39.7961 10.2188 39.6856 10.0335 39.4906L7.35157 36.6683C7.12322 36.428 7.03161 36.0887 7.10804 35.7661L8.61135 29.4159H7.94541C4.64631 29.4159 1.96239 32.0998 1.96239 35.3989V41.6946H15.8951C16.4373 41.6946 16.8766 42.1339 16.8766 42.676C16.8766 43.2182 16.4373 43.6575 15.8951 43.6575H1.52427C0.6835 43.6575 -0.000370026 42.9735 -0.000370026 42.1328V35.3989C-0.000501633 31.0175 3.56398 27.453 7.94541 27.453ZM9.14041 35.7013L10.745 37.3898L12.3496 35.7013L10.8616 29.4159H10.6285L9.14041 35.7013Z" fill="#C6D9FF"/>
<path d="M10.7451 25.9659C6.31706 25.9659 2.71463 22.3634 2.71463 17.9354V14.9459V13.3476C2.71463 12.9591 2.74434 12.5772 2.80139 12.2044C3.35362 8.60043 6.47501 5.83105 10.2309 5.83105H11.2591C15.0151 5.83105 18.1364 8.60043 18.6886 12.2044C18.7458 12.5772 18.7754 12.959 18.7754 13.3476V14.5975V17.9354C18.7755 22.3633 15.1731 25.9659 10.7451 25.9659ZM11.2592 7.79408H10.2311C7.16895 7.79408 4.67765 10.2854 4.67765 13.3475V13.5829C5.97748 13.0498 6.89559 12.3243 7.12969 11.6027C7.24485 11.2482 7.5508 10.9894 7.91956 10.9348C8.28819 10.8804 8.65617 11.0394 8.86895 11.3453C9.95259 12.9036 13.9293 14.2844 16.8128 13.8147V13.3475C16.8126 10.2854 14.3213 7.79408 11.2592 7.79408ZM16.8126 15.7913C13.9316 16.1354 10.2843 15.1493 8.25221 13.5079C7.28856 14.6342 5.76313 15.3093 4.67752 15.6735V17.9354C4.67752 21.2811 7.3994 24.003 10.7451 24.003C14.0908 24.003 16.8126 21.2811 16.8126 17.9354V15.7913Z" fill="#C6D9FF"/>
<path d="M47.4847 31.6798C47.0693 31.3315 47.0149 30.7124 47.363 30.2971C48.8781 28.4897 51.0985 27.4531 53.455 27.4531H55.3618H57.1473H59.0541C63.4355 27.453 67 31.0173 67 35.3988V42.1328C67 42.9736 66.316 43.6574 65.4754 43.6574H51.105C50.5629 43.6574 50.1236 43.2182 50.1236 42.676C50.1236 42.1339 50.5629 41.6946 51.105 41.6946H65.0371V35.3988C65.0371 32.0998 62.3532 29.4159 59.0541 29.4159H58.3881L59.8915 35.7661C59.9679 36.0887 59.8763 36.428 59.6479 36.6682L56.966 39.4906C56.7807 39.6856 56.5235 39.796 56.2545 39.796C55.9854 39.796 55.7283 39.6856 55.543 39.4906L52.861 36.6682C52.6327 36.428 52.5411 36.0887 52.6175 35.7661L54.1208 29.4159H53.4549C51.6804 29.4159 50.0084 30.1967 48.8672 31.5581C48.5191 31.9734 47.9004 32.0276 47.4847 31.6798ZM54.65 35.7013L56.2546 37.3898L57.8592 35.7013L56.3712 29.4159H56.1381L54.65 35.7013Z" fill="#C6D9FF"/>
<path d="M64.2848 17.935C64.2848 22.3631 60.6827 25.9657 56.2552 25.9657C51.827 25.9657 48.2244 22.3631 48.2244 17.935V13.347C48.2244 13.2204 48.2287 13.0928 48.2353 12.9649C46.638 11.7464 45.6047 9.82431 45.6047 7.66487V5.37732C45.6047 4.83517 46.044 4.39587 46.5862 4.39587H57.6294C58.0721 4.39587 58.5148 4.43971 58.9453 4.52608C59.4767 4.63273 59.821 5.15015 59.7144 5.68157C59.6076 6.21299 59.09 6.55715 58.5589 6.45063C58.2554 6.38965 57.9427 6.35876 57.6294 6.35876H47.5675V7.66487C47.5675 10.2573 49.6764 12.3663 52.2689 12.3663H62.3223V11.0516C62.3223 9.9608 61.9399 8.89848 61.2456 8.06059C60.8997 7.64315 60.9578 7.02445 61.3751 6.67859C61.7928 6.33272 62.4112 6.39083 62.7571 6.80814C63.7425 7.99752 64.2852 9.50449 64.2852 11.0516V13.3477C64.2852 13.3503 64.2848 13.3528 64.2848 13.3553V17.935ZM50.1873 13.9943V17.9351C50.1873 21.2809 52.9094 24.0029 56.2552 24.0029C59.6004 24.0029 62.3219 21.2809 62.3219 17.9351V14.329H52.2689C51.5419 14.329 50.8426 14.2105 50.1873 13.9943Z" fill="#C6D9FF"/>
<path d="M25.023 29.2199C25.0382 29.2118 25.053 29.203 25.0687 29.1957C25.1746 29.1466 25.2812 29.0999 25.3881 29.0545C25.4008 29.049 25.4136 29.0439 25.4263 29.0385C26.0721 28.7669 26.7366 28.561 27.4158 28.4217C27.4157 28.4217 27.4159 28.4217 27.4158 28.4217C27.5902 28.386 27.7658 28.3544 27.9421 28.3275C27.9438 28.3272 27.9455 28.3269 27.9471 28.3267C28.1228 28.2998 28.2995 28.2772 28.4769 28.2591C28.4807 28.2588 28.4845 28.2585 28.4884 28.2581C28.6656 28.2403 28.8435 28.2264 29.0222 28.2174C29.0261 28.2173 29.0301 28.2171 29.034 28.217C29.2144 28.2081 29.3956 28.2031 29.5775 28.2031H37.4217C37.6036 28.2031 37.7847 28.2081 37.965 28.217C37.9689 28.2171 37.9729 28.2173 37.9769 28.2174C38.1558 28.2264 38.3339 28.2403 38.5112 28.2582C38.5148 28.2586 38.5184 28.2589 38.522 28.2593C38.6998 28.2773 38.8768 28.3001 39.053 28.3269C39.0542 28.3271 39.0553 28.3272 39.0564 28.3275C39.9195 28.4595 40.7608 28.6971 41.5728 29.0387C41.5855 29.044 41.5985 29.0493 41.6112 29.0546C41.7181 29.1002 41.8246 29.1468 41.9304 29.1958C41.9462 29.2032 41.9608 29.2119 41.976 29.2199C45.626 30.9368 48.16 34.6481 48.16 38.9417V47.8285C48.16 49.0912 47.1326 50.1185 45.87 50.1185H21.1289C19.8662 50.1185 18.8389 49.0912 18.8389 47.8285V38.9419C18.8391 34.6481 21.373 30.9368 25.023 29.2199ZM30.3282 36.8905L30.9775 33.3233C29.8349 32.631 29.0392 31.505 28.7629 30.2053C28.753 30.2062 28.7431 30.2066 28.7334 30.2075C28.7041 30.2103 28.6749 30.213 28.6457 30.216C28.3641 30.246 28.0862 30.2884 27.8131 30.3444C27.8109 30.3448 27.8086 30.3453 27.8064 30.3458C27.6754 30.3728 27.5457 30.4031 27.417 30.4359C27.3951 30.4414 27.3733 30.4472 27.3514 30.4529C27.2381 30.4827 27.1257 30.5148 27.0142 30.5489C26.9925 30.5556 26.9706 30.5619 26.9489 30.5687C26.9252 30.5761 26.902 30.5849 26.8783 30.5926L30.3282 36.8905ZM40.1214 30.5928C40.0979 30.585 40.075 30.5764 40.0513 30.5689C40.0291 30.5619 40.0068 30.5555 39.9846 30.5487C39.8736 30.5148 39.7618 30.4828 39.6492 30.4533C39.6268 30.4474 39.6044 30.4415 39.582 30.4357C39.4539 30.4031 39.325 30.373 39.1947 30.3461C39.1918 30.3456 39.1889 30.3448 39.1861 30.3441C38.9132 30.2883 38.6355 30.2459 38.3542 30.216C38.3247 30.2129 38.2953 30.2103 38.2659 30.2074C38.2562 30.2065 38.2464 30.2061 38.2365 30.2052C37.9602 31.505 37.1645 32.631 36.0219 33.3233L36.6712 36.8905L40.1214 30.5928ZM33.0401 32.9519L31.8257 39.6239L33.4997 42.6795L35.1737 39.6239L33.9593 32.9519C33.8755 32.4918 34.1281 32.0367 34.5627 31.8641C35.3498 31.5514 35.9385 30.9283 36.2124 30.166H30.787C31.0609 30.9283 31.6496 31.5514 32.4367 31.8641C32.8713 32.0367 33.1239 32.4919 33.0401 32.9519ZM20.802 47.8284C20.802 48.0088 20.9487 48.1555 21.1292 48.1555H45.8702C46.0507 48.1555 46.1974 48.0088 46.1974 47.8284V38.9416C46.1974 35.7434 44.477 32.9404 41.9137 31.4066L34.3604 45.1938C34.1883 45.5081 33.8581 45.7036 33.4997 45.7036C33.1413 45.7036 32.8111 45.5081 32.639 45.1938L25.0858 31.4066C22.5224 32.9405 20.802 35.7435 20.802 38.9417V47.8284Z" fill="url(#paint0_linear)"/>
<path d="M33.5292 26.3543C31.1595 26.3543 28.8535 25.5199 27.036 24.0048C26.6196 23.6578 26.5636 23.0388 26.9106 22.6225C27.2577 22.2063 27.8768 22.1501 28.2929 22.4972C29.7581 23.7188 31.6178 24.3915 33.5292 24.3915C38.0415 24.3915 41.7127 20.7204 41.7127 16.2081V12.4279C40.2992 13.5478 38.6806 14.4264 37.2795 14.7896C36.9067 14.8863 36.5124 14.7561 36.2703 14.4571C36.0283 14.1579 35.9834 13.7449 36.1555 13.4006C36.4566 12.7983 36.8616 11.8463 37.0293 10.8131C35.6858 11.7769 33.9989 12.6611 32.879 13.2079C30.4054 14.4154 27.6502 15.4757 25.3457 16.1156V16.2082C25.3457 17.4125 25.6009 18.5719 26.1043 19.654C26.3328 20.1455 26.1197 20.7293 25.6282 20.9579C25.1368 21.1861 24.5531 20.9732 24.3243 20.4818C23.6996 19.1383 23.3828 17.7005 23.3828 16.2082V10.3085C23.3828 5.11056 27.6115 0.881836 32.8095 0.881836H34.2488C34.4086 0.881836 34.5679 0.886024 34.7263 0.894006C34.7596 0.895707 34.7923 0.899241 34.8254 0.901203C34.9518 0.908793 35.078 0.917429 35.2033 0.929992C35.2275 0.932478 35.2512 0.936142 35.2753 0.938759C35.4105 0.953285 35.5453 0.969904 35.6793 0.990187C35.6868 0.991365 35.6943 0.992936 35.7019 0.994113C37.645 1.29352 39.4413 2.19056 40.8661 3.59612C41.9868 4.70162 42.7963 6.04123 43.2503 7.50567C43.2533 7.51536 43.2558 7.52517 43.2588 7.53499C43.2988 7.66571 43.3368 7.7971 43.3712 7.92979C43.3901 8.00242 43.4061 8.07622 43.4234 8.1495C43.4399 8.22004 43.4575 8.29004 43.4723 8.36097C43.496 8.47325 43.5162 8.58683 43.5358 8.70055C43.5415 8.73392 43.5484 8.76689 43.5536 8.8004C43.5753 8.93479 43.5932 9.07023 43.6092 9.20645C43.6108 9.22046 43.613 9.23446 43.6146 9.24846C43.6308 9.3924 43.6431 9.53739 43.6528 9.68317C43.6533 9.69089 43.6541 9.69848 43.6545 9.7062C43.6636 9.85067 43.669 9.99619 43.6716 10.1424C43.6718 10.1501 43.6724 10.1577 43.6725 10.1653C43.6725 10.1671 43.6724 10.1689 43.6724 10.1708C43.6731 10.2168 43.6759 10.2624 43.6759 10.3087V16.2083C43.6755 21.8027 39.124 26.3543 33.5292 26.3543ZM32.8095 2.84446C28.694 2.84446 25.3457 6.19276 25.3457 10.3083V14.0747C30.065 12.6758 35.9262 9.74664 37.1618 8.08486C37.3492 7.83282 37.6428 7.68914 37.9493 7.68914C38.0147 7.68914 38.0808 7.69568 38.1465 7.70903C38.5198 7.78558 38.815 8.07138 38.9039 8.44197C39.0698 9.13461 39.2092 10.3744 38.7677 12.0468C39.8087 11.4598 40.865 10.6613 41.6938 9.80906C41.4588 6.2985 38.7585 3.43176 35.3347 2.92442C35.3284 2.9235 35.3221 2.92285 35.3159 2.92193C35.2055 2.90584 35.0946 2.8921 34.983 2.88097C34.9403 2.87679 34.8971 2.87456 34.8543 2.87116C34.7767 2.86488 34.6991 2.85781 34.6209 2.85389C34.4976 2.84787 34.3737 2.84446 34.249 2.84446H32.8095Z" fill="url(#paint1_linear)"/>
<defs>
<linearGradient id="paint0_linear" x1="18.4059" y1="32.7633" x2="48.6445" y2="32.5061" gradientUnits="userSpaceOnUse">
<stop stop-color="#5529CF"/>
<stop offset="1" stop-color="#9745FF"/>
</linearGradient>
<linearGradient id="paint1_linear" x1="18.4059" y1="32.7633" x2="48.6445" y2="32.5061" gradientUnits="userSpaceOnUse">
<stop stop-color="#5529CF"/>
<stop offset="1" stop-color="#9745FF"/>
</linearGradient>
</defs>
</svg>
