<svg width="58" height="58" viewBox="0 0 58 58" fill="none" xmlns="http://www.w3.org/2000/svg">
<path d="M56.3989 32.4644C55.3484 31.59 53.9846 31.267 52.6567 31.5781C52.5907 31.5936 52.5261 31.6148 52.4637 31.6418L41.8056 36.27C41.8963 35.9806 41.9578 35.6801 41.9879 35.3712C42.222 32.9662 40.4559 30.8183 38.0496 30.5838C34.3237 30.2258 22.1283 29.0571 21.5539 29.0571H21.553C19.9958 29.0607 17.7258 30.3563 14.6132 33.018C13.2459 34.1875 12.04 35.3447 11.3161 36.0602C10.6337 35.338 9.71688 34.9084 8.71991 34.8464C7.67737 34.7814 6.67244 35.1265 5.88965 35.8177L5.74274 35.9474C4.9303 36.6651 4.48736 37.6479 4.42939 38.6533C4.42319 38.6528 4.417 38.6524 4.41036 38.652C3.36782 38.5882 2.36289 38.9325 1.57966 39.6237L1.43319 39.7534C-0.182399 41.18 -0.33639 43.6558 1.09025 45.2718L11.1599 56.6778C11.8515 57.4606 12.806 57.9275 13.8485 57.9925C13.9313 57.9974 14.014 58 14.0963 58C15.0495 58 15.9584 57.6571 16.6793 57.0208L16.8257 56.8911C17.6386 56.1734 18.0811 55.1906 18.1391 54.1848C18.1453 54.1852 18.1519 54.1861 18.1581 54.1861C18.2413 54.1914 18.3236 54.1941 18.4059 54.1941C19.3591 54.1941 20.2684 53.8511 20.9888 53.2144L21.1353 53.0851C22.7513 51.6581 22.9049 49.1827 21.4782 47.5667L20.5069 46.4666L22.4318 45.0293L29.6415 46.8848C29.657 46.8887 29.6725 46.8927 29.6885 46.8958C30.9779 47.1697 32.278 47.306 33.5723 47.306C36.0955 47.306 38.5965 46.7887 40.9537 45.7666L54.8847 39.725C56.6122 39.2166 57.8234 37.678 57.9092 35.8695C57.9716 34.5561 57.4211 33.3149 56.3989 32.4644ZM15.3261 55.1928L15.1796 55.3224C14.8504 55.6132 14.4287 55.7592 13.9893 55.7309C13.5507 55.7039 13.1494 55.5074 12.8587 55.1782L2.78858 43.7722C2.18898 43.0925 2.25359 42.0517 2.93284 41.4517L3.0793 41.322C3.40853 41.0313 3.83112 40.8857 4.27009 40.9136C4.70772 40.9406 5.10863 41.1366 5.39936 41.465C5.39936 41.4654 5.3998 41.4654 5.3998 41.4659L15.4699 52.8719L15.4703 52.8723C16.0704 53.552 16.0058 54.5928 15.3261 55.1928ZM19.6361 51.3868L19.4892 51.5165C19.1599 51.8072 18.7373 51.9528 18.2988 51.9249C17.8621 51.8979 17.4616 51.7028 17.1713 51.3753C17.1704 51.3744 17.1695 51.3735 17.1691 51.3727L7.09902 39.9671C7.09858 39.9666 7.09813 39.9662 7.09769 39.9658C6.49854 39.2861 6.56359 38.2453 7.24239 37.6461L7.3893 37.5161C7.71853 37.2253 8.14112 37.0806 8.57964 37.1076C9.01816 37.1351 9.41951 37.3311 9.71024 37.6603L19.7803 49.0663C20.3799 49.746 20.3153 50.7868 19.6361 51.3868ZM55.6462 35.762C55.606 36.6156 55.0263 37.3395 54.205 37.5634C54.1528 37.5776 54.1019 37.5953 54.0523 37.6169L40.0528 43.6881C36.9274 45.0435 33.5148 45.3882 30.1827 44.6851L22.4712 42.7C22.1389 42.6146 21.7858 42.6841 21.511 42.8898L19.0028 44.763L12.8206 37.7603C13.5083 37.078 14.7318 35.8974 16.0982 34.7292C19.7542 31.6046 21.1817 31.3289 21.5472 31.3232C22.2234 31.3515 31.639 32.2436 37.8314 32.8392C38.993 32.9525 39.8461 33.9897 39.7329 35.1517C39.678 35.7146 39.4072 36.2226 38.9704 36.5819C38.5341 36.9412 37.9832 37.1089 37.4208 37.0536L34.4772 36.7669C34.4764 36.7669 34.4755 36.7669 34.475 36.7664L27.1011 36.0483C26.4781 35.9872 25.9245 36.443 25.8639 37.0656C25.8033 37.6886 26.259 38.2422 26.8816 38.3033L33.7816 38.9754C35.0268 40.3485 37.0438 40.8074 38.7784 40.0543L53.2625 33.7649C53.8634 33.6517 54.474 33.8096 54.9497 34.2057C55.4206 34.5977 55.6745 35.165 55.6462 35.762Z" fill="#C6D9FF"/>
<path d="M22.9893 37.9851C22.9155 37.9851 22.842 37.9775 22.7681 37.9625C22.696 37.9479 22.6243 37.9262 22.5566 37.8979C22.4884 37.8696 22.4229 37.8346 22.3605 37.7939C22.2995 37.7532 22.2415 37.7054 22.1884 37.6536C22.1362 37.6014 22.0897 37.5434 22.0477 37.4811C22.007 37.42 21.972 37.3545 21.9437 37.2855C21.9154 37.2173 21.8937 37.1461 21.8791 37.0735C21.8645 37.0009 21.8574 36.9262 21.8574 36.8527C21.8574 36.7788 21.8645 36.704 21.8791 36.6306C21.8937 36.5593 21.9154 36.4876 21.9437 36.4186C21.972 36.3509 22.007 36.285 22.0477 36.2239C22.0897 36.1615 22.1362 36.1035 22.1884 36.0518C22.2415 35.9995 22.2995 35.9518 22.3605 35.9102C22.4229 35.8694 22.4884 35.8354 22.5566 35.8071C22.6243 35.7787 22.696 35.7562 22.7681 35.7425C22.9146 35.7128 23.065 35.7128 23.211 35.7425C23.2836 35.7562 23.3553 35.7787 23.423 35.8071C23.4911 35.8354 23.558 35.8694 23.619 35.9102C23.6814 35.9518 23.739 35.9995 23.7912 36.0518C23.8434 36.1035 23.8907 36.1615 23.9319 36.2239C23.9726 36.285 24.0076 36.3509 24.0359 36.4186C24.0642 36.4876 24.0859 36.5593 24.1005 36.6306C24.1151 36.704 24.123 36.7788 24.123 36.8527C24.123 36.9262 24.1151 37.0009 24.1005 37.0735C24.0859 37.1461 24.0642 37.2173 24.0359 37.2855C24.0076 37.3545 23.9726 37.42 23.9319 37.4811C23.8907 37.5434 23.8434 37.6014 23.7912 37.6536C23.739 37.7054 23.6814 37.7532 23.619 37.7939C23.5566 37.8346 23.4911 37.8696 23.423 37.8979C23.3553 37.9262 23.2836 37.9479 23.211 37.9625C23.1376 37.9775 23.0637 37.9851 22.9893 37.9851Z" fill="#C6D9FF"/>
<path d="M43.334 25.2741C42.9433 25.2741 42.58 25.0727 42.3733 24.7413L40.1413 21.1676L35.9305 21.0216C35.5402 21.0083 35.184 20.7942 34.9888 20.4561C34.7932 20.1176 34.7861 19.7025 34.9698 19.3573L36.9487 15.6376L34.9698 11.918C34.7861 11.5732 34.7932 11.1577 34.9888 10.8197C35.184 10.4811 35.5402 10.2674 35.9305 10.2537L40.1413 10.1081L42.3733 6.534C42.58 6.20256 42.9433 6.00122 43.334 6.00122C43.7247 6.00122 44.088 6.20256 44.2947 6.534L46.5267 10.1081L50.7375 10.2537C51.1283 10.2674 51.484 10.4811 51.6792 10.8197C51.8748 11.1577 51.8819 11.5732 51.6982 11.918L49.7193 15.6376L51.6982 19.3573C51.8819 19.7025 51.8748 20.1176 51.6792 20.4561C51.484 20.7942 51.1283 21.0083 50.7375 21.0216L46.5267 21.1676L44.2947 24.7413C44.0876 25.0727 43.7247 25.2741 43.334 25.2741ZM37.8217 18.8201L40.8219 18.9241C41.1985 18.9374 41.5441 19.137 41.7436 19.4565L43.334 22.0026L44.9239 19.4565C45.1239 19.137 45.4691 18.9374 45.8457 18.9241L48.8463 18.8201L47.436 16.17C47.259 15.8372 47.259 15.4385 47.436 15.1058L48.8463 12.4552L45.8457 12.3516C45.4691 12.3383 45.1239 12.1388 44.9239 11.8193L43.334 9.2731L41.7436 11.8193C41.5441 12.1388 41.1985 12.3383 40.8219 12.3516L37.8217 12.4552L39.232 15.1058C39.409 15.4385 39.409 15.8372 39.232 16.17L37.8217 18.8201Z" fill="url(#paint0_linear)"/>
<path d="M43.3338 4.66179C42.7081 4.66179 42.201 4.15468 42.201 3.52898V1.13281C42.201 0.507111 42.7081 0 43.3338 0C43.9595 0 44.4666 0.507111 44.4666 1.13281V3.52898C44.4666 4.15468 43.9595 4.66179 43.3338 4.66179Z" fill="url(#paint1_linear)"/>
<path d="M43.3338 31.2758C42.7081 31.2758 42.201 30.7682 42.201 30.143V27.7468C42.201 27.1211 42.7081 26.614 43.3338 26.614C43.9595 26.614 44.4666 27.1211 44.4666 27.7468V30.143C44.4666 30.7682 43.9595 31.2758 43.3338 31.2758Z" fill="url(#paint2_linear)"/>
<path d="M54.4584 16.7705H52.6207C51.995 16.7705 51.4879 16.2634 51.4879 15.6377C51.4879 15.0124 51.995 14.5049 52.6207 14.5049H54.4584C55.0841 14.5049 55.5912 15.0124 55.5912 15.6377C55.5912 16.2634 55.0841 16.7705 54.4584 16.7705Z" fill="url(#paint3_linear)"/>
<path d="M34.0469 16.7705H32.2091C31.5839 16.7705 31.0763 16.2634 31.0763 15.6377C31.0763 15.0124 31.5839 14.5049 32.2091 14.5049H34.0469C34.6726 14.5049 35.1797 15.0124 35.1797 15.6377C35.1797 16.2634 34.6726 16.7705 34.0469 16.7705Z" fill="url(#paint4_linear)"/>
<path d="M47.8814 9.03601C47.6863 9.03601 47.4889 8.98557 47.3084 8.87937C46.769 8.56253 46.5889 7.86824 46.9061 7.32883L47.8062 5.79821C48.1235 5.25879 48.8173 5.07869 49.3567 5.39597C49.8961 5.71325 50.0762 6.40754 49.759 6.94651L48.8589 8.47713C48.6478 8.836 48.2699 9.03601 47.8814 9.03601Z" fill="url(#paint5_linear)"/>
<path d="M37.8846 26.036C37.6895 26.036 37.4917 25.9856 37.3116 25.8794C36.7722 25.5621 36.5921 24.8678 36.9094 24.3289L37.809 22.7982C38.1262 22.2593 38.8205 22.0787 39.3599 22.396C39.8993 22.7133 40.079 23.4076 39.7622 23.9465L38.8621 25.4772C38.651 25.836 38.2727 26.036 37.8846 26.036Z" fill="url(#paint6_linear)"/>
<path d="M38.7869 9.03601C38.3984 9.03601 38.0205 8.83644 37.8094 8.47713L36.9094 6.94695C36.5921 6.40754 36.7722 5.71325 37.3116 5.39597C37.851 5.07869 38.5448 5.25879 38.8621 5.79821L39.7622 7.32883C40.0794 7.86824 39.8993 8.56253 39.3599 8.87981C39.1794 8.98557 38.982 9.03601 38.7869 9.03601Z" fill="url(#paint7_linear)"/>
<path d="M48.7837 26.036C48.3952 26.036 48.0173 25.836 47.8062 25.4772L46.9061 23.9465C46.5889 23.4076 46.769 22.7133 47.3084 22.396C47.8478 22.0787 48.5421 22.2593 48.8589 22.7982L49.759 24.3289C50.0762 24.8683 49.8961 25.5626 49.3567 25.8794C49.1766 25.9856 48.9788 26.036 48.7837 26.036Z" fill="url(#paint8_linear)"/>
<path d="M53.8508 10.768C53.4574 10.768 53.0751 10.5627 52.8662 10.1967C52.556 9.65331 52.745 8.96167 53.2884 8.65104L55.3695 7.46335C55.9124 7.15316 56.6045 7.34211 56.9147 7.8855C57.2249 8.4289 57.0359 9.12098 56.4925 9.43117L54.4114 10.6189C54.2344 10.7197 54.0415 10.768 53.8508 10.768Z" fill="url(#paint9_linear)"/>
<path d="M30.7373 23.9617C30.3439 23.9617 29.9616 23.7564 29.7528 23.39C29.4426 22.8466 29.6315 22.1549 30.1749 21.8447L32.256 20.6566C32.7994 20.3464 33.491 20.5358 33.8012 21.0792C34.1114 21.6226 33.9225 22.3142 33.3791 22.6244L31.298 23.8126C31.121 23.9135 30.9281 23.9617 30.7373 23.9617Z" fill="url(#paint10_linear)"/>
<path d="M32.9159 10.598C32.7194 10.598 32.5203 10.5471 32.3393 10.4396L30.2777 9.21826C29.7396 8.89922 29.5617 8.20448 29.8808 7.6664C30.1998 7.12787 30.8946 6.95042 31.4331 7.26903L33.4943 8.49078C34.0324 8.80983 34.2102 9.50456 33.8912 10.0426C33.6797 10.3998 33.3027 10.598 32.9159 10.598Z" fill="url(#paint11_linear)"/>
<path d="M55.8119 24.1647C55.6155 24.1647 55.4168 24.1139 55.2358 24.0068L53.1742 22.785C52.6361 22.466 52.4582 21.7712 52.7772 21.2331C53.0963 20.6946 53.791 20.5172 54.3291 20.8358L56.3907 22.0575C56.9288 22.3761 57.1067 23.0713 56.7877 23.6094C56.5761 23.9665 56.1991 24.1647 55.8119 24.1647Z" fill="url(#paint12_linear)"/>
<defs>
<linearGradient id="paint0_linear" x1="34.586" y1="18.4807" x2="52.1104" y2="18.26" gradientUnits="userSpaceOnUse">
<stop stop-color="#5529CF"/>
<stop offset="1" stop-color="#9745FF"/>
</linearGradient>
<linearGradient id="paint1_linear" x1="29.198" y1="20.2515" x2="57.5153" y2="19.8964" gradientUnits="userSpaceOnUse">
<stop stop-color="#5529CF"/>
<stop offset="1" stop-color="#9745FF"/>
</linearGradient>
<linearGradient id="paint2_linear" x1="29.198" y1="20.2515" x2="57.5153" y2="19.8964" gradientUnits="userSpaceOnUse">
<stop stop-color="#5529CF"/>
<stop offset="1" stop-color="#9745FF"/>
</linearGradient>
<linearGradient id="paint3_linear" x1="29.198" y1="20.2515" x2="57.5153" y2="19.8964" gradientUnits="userSpaceOnUse">
<stop stop-color="#5529CF"/>
<stop offset="1" stop-color="#9745FF"/>
</linearGradient>
<linearGradient id="paint4_linear" x1="29.198" y1="20.2515" x2="57.5153" y2="19.8964" gradientUnits="userSpaceOnUse">
<stop stop-color="#5529CF"/>
<stop offset="1" stop-color="#9745FF"/>
</linearGradient>
<linearGradient id="paint5_linear" x1="29.198" y1="20.2515" x2="57.5153" y2="19.8964" gradientUnits="userSpaceOnUse">
<stop stop-color="#5529CF"/>
<stop offset="1" stop-color="#9745FF"/>
</linearGradient>
<linearGradient id="paint6_linear" x1="29.198" y1="20.2515" x2="57.5153" y2="19.8964" gradientUnits="userSpaceOnUse">
<stop stop-color="#5529CF"/>
<stop offset="1" stop-color="#9745FF"/>
</linearGradient>
<linearGradient id="paint7_linear" x1="29.198" y1="20.2515" x2="57.5153" y2="19.8964" gradientUnits="userSpaceOnUse">
<stop stop-color="#5529CF"/>
<stop offset="1" stop-color="#9745FF"/>
</linearGradient>
<linearGradient id="paint8_linear" x1="29.198" y1="20.2515" x2="57.5153" y2="19.8964" gradientUnits="userSpaceOnUse">
<stop stop-color="#5529CF"/>
<stop offset="1" stop-color="#9745FF"/>
</linearGradient>
<linearGradient id="paint9_linear" x1="29.198" y1="20.2515" x2="57.5153" y2="19.8964" gradientUnits="userSpaceOnUse">
<stop stop-color="#5529CF"/>
<stop offset="1" stop-color="#9745FF"/>
</linearGradient>
<linearGradient id="paint10_linear" x1="29.198" y1="20.2515" x2="57.5153" y2="19.8964" gradientUnits="userSpaceOnUse">
<stop stop-color="#5529CF"/>
<stop offset="1" stop-color="#9745FF"/>
</linearGradient>
<linearGradient id="paint11_linear" x1="29.198" y1="20.2515" x2="57.5153" y2="19.8964" gradientUnits="userSpaceOnUse">
<stop stop-color="#5529CF"/>
<stop offset="1" stop-color="#9745FF"/>
</linearGradient>
<linearGradient id="paint12_linear" x1="29.198" y1="20.2515" x2="57.5153" y2="19.8964" gradientUnits="userSpaceOnUse">
<stop stop-color="#5529CF"/>
<stop offset="1" stop-color="#9745FF"/>
</linearGradient>
</defs>
</svg>
