<svg width="64" height="62" viewBox="0 0 64 62" fill="none" xmlns="http://www.w3.org/2000/svg">
<path d="M1.53262 2.81603C2.59716 3.37306 3.69555 3.86825 4.82114 4.29812L5.98931 18.9121C6.02265 19.3445 6.33406 19.7095 6.76501 19.8217C7.19595 19.9344 7.65306 19.7698 7.90496 19.4113L15.5116 8.61923L16.4961 20.9547C16.5295 21.3871 16.8409 21.7521 17.2718 21.8643C17.7028 21.977 18.1599 21.8124 18.4118 21.4539L26.5628 9.89287L31.4735 23.3913C31.6223 23.7997 32.0189 24.0725 32.4647 24.0725C32.91 24.072 33.3066 23.7987 33.4543 23.3903L38.3471 9.89686L46.4965 21.4539C46.7484 21.8115 47.205 21.9755 47.6355 21.8633C48.0659 21.7506 48.3768 21.3866 48.4106 20.9547L49.3951 8.62122L57.0034 19.4113C57.2553 19.7688 57.7119 19.9329 58.1423 19.8207C58.5727 19.708 58.8836 19.344 58.9175 18.9121L60.0872 4.3051C61.2179 3.86576 62.323 3.36558 63.3967 2.80705C63.9062 2.53676 64.0934 1.9159 63.8154 1.42071C63.5373 0.925513 62.8986 0.742994 62.3891 1.01378C61.1948 1.64013 59.9594 2.18968 58.6917 2.65994C58.2475 2.83697 57.7924 3.00403 57.3256 3.16162C55.2888 3.84332 53.2121 4.40733 51.1066 4.85166C50.3673 5.00975 49.6122 5.15786 48.8426 5.29699L48.8277 5.30198L48.7795 5.31145C48.6271 5.34586 48.4732 5.37279 48.3183 5.39174C47.793 5.49397 47.2676 5.58074 46.7151 5.66153C44.1135 6.06297 41.4145 6.35121 38.7067 6.51727L37.991 6.55717H37.929C36.1575 6.6594 34.3075 6.71026 32.4539 6.71026C31.5356 6.71026 30.6121 6.69829 29.6835 6.67386C28.7683 6.64793 27.8613 6.61053 26.9758 6.56016H26.8645L26.2119 6.52176C23.7709 6.37564 21.3263 6.1273 18.9515 5.7862C18.1435 5.66552 17.3555 5.54334 16.5782 5.40321H16.571L16.056 5.31344C12.948 4.76389 9.89294 3.96301 6.92251 2.91926L6.6701 2.82949C6.53773 2.78162 6.4064 2.72726 6.27506 2.67839L6.19195 2.64548C4.93811 2.18719 3.71761 1.64561 2.54021 1.02475C2.03385 0.775408 1.41514 0.961418 1.14272 1.44564C0.870304 1.92986 1.04268 2.53676 1.53262 2.81603ZM7.85417 15.8686L6.99484 5.11397C7.32575 5.22667 7.6705 5.3319 8.01218 5.44011C8.16865 5.48898 8.32102 5.54234 8.47955 5.58922C9.15829 5.79318 9.85498 5.99166 10.5701 6.18365C10.7123 6.22105 10.8605 6.25596 11.0042 6.29286C11.5906 6.44347 12.1862 6.58709 12.7905 6.72373C13.0142 6.77459 13.2399 6.82596 13.4682 6.87283C13.6781 6.91772 13.8812 6.96659 14.0988 7.01097L7.85417 15.8686ZM18.361 17.9112L17.5417 7.62984C17.9029 7.68769 18.2697 7.74304 18.6416 7.79839C19.7826 7.96246 20.9405 8.10459 22.1092 8.22178C22.4786 8.26067 22.8505 8.2876 23.2225 8.32401C23.8186 8.37837 24.4132 8.4407 25.0088 8.48359L18.361 17.9112ZM32.4626 19.9873L28.3445 8.67059C28.6211 8.68157 28.9048 8.68655 29.1854 8.69603C29.4352 8.70401 29.6835 8.71248 29.9354 8.71847C30.7445 8.73891 31.5566 8.74989 32.3718 8.75188H32.4678C33.3168 8.75188 34.1582 8.73792 34.9893 8.71747C35.2248 8.71099 35.4536 8.70301 35.687 8.69603C35.9779 8.68655 36.2744 8.68157 36.5612 8.6691L32.4626 19.9873ZM57.0485 15.8726L50.7978 7.00748C50.946 6.97806 51.0876 6.94315 51.2338 6.91273C51.4924 6.85837 51.7469 6.80252 52.0018 6.74617C52.4697 6.64194 52.9315 6.53423 53.3865 6.42352C53.623 6.36517 53.8595 6.30832 54.093 6.24898C54.5932 6.12032 55.0816 5.98517 55.5638 5.84853C55.7352 5.79966 55.9096 5.75329 56.0784 5.70342C56.7017 5.5194 57.3132 5.3299 57.9058 5.12943L57.0485 15.8726ZM47.3661 7.62984L46.5468 17.9102L39.9021 8.48458C40.5957 8.43422 41.2806 8.35892 41.9691 8.29259C42.3892 8.2527 42.8094 8.22178 43.2203 8.1769C44.5096 8.03527 45.786 7.8707 47.0373 7.67871C47.1465 7.66325 47.2568 7.64679 47.3661 7.62984Z" fill="url(#paint0_linear)"/>
<path d="M39.8095 33.2639C39.8095 29.3158 36.5169 26.1148 32.4547 26.1148C28.393 26.1148 25.0999 29.3158 25.0999 33.2639C25.0999 36.8989 27.8759 43.6895 31.7677 44.425L33.0072 46.8372C33.3248 47.4505 33.3776 48.1617 33.155 48.8129C32.9323 49.4647 32.4521 50.0028 31.8201 50.31C29.672 51.3468 28.6578 53.7789 29.456 55.9771L30.3692 61.0213C30.4595 61.5075 30.8956 61.861 31.404 61.8606C31.4656 61.8606 31.5266 61.8556 31.5872 61.8456C32.1587 61.7478 32.5404 61.2182 32.4398 60.6627L31.5092 55.5287C31.4974 55.4664 31.4805 55.4051 31.4579 55.3457C30.9767 54.108 31.5384 52.7177 32.7574 52.1287C35.1024 50.9847 36.0546 48.2125 34.887 45.9285L33.9876 44.1787C37.4306 42.709 39.8095 36.6345 39.8095 33.2639ZM32.4547 42.4557C29.9019 42.4557 27.2013 36.478 27.2013 33.2639C27.2013 30.4439 29.5535 28.1574 32.4547 28.1574C35.3564 28.1574 37.7081 30.4439 37.7081 33.2639C37.7081 36.478 35.008 42.4557 32.4547 42.4557Z" fill="url(#paint1_linear)"/>
<path d="M54.0029 46.3909C53.4365 46.0773 53.0302 45.5487 52.8804 44.9323C52.7305 44.3154 52.8511 43.6661 53.2123 43.1395L54.5113 41.2445C55.2028 40.2387 55.5712 39.0558 55.5702 37.846V36.7509L61.9446 30.5547C62.7362 29.7902 63.1815 28.7509 63.1825 27.6663C63.184 26.5817 62.7408 25.5414 61.9512 24.7749C61.1637 24.0064 60.0935 23.5746 58.9777 23.5746C57.8619 23.5746 56.7917 24.0064 56.0042 24.7749L54.5195 26.2171L53.0414 24.7794C51.841 23.613 50.0371 23.2614 48.4668 23.8883C46.8964 24.5151 45.8672 25.9972 45.8565 27.6469C45.8524 28.7375 46.2982 29.7837 47.0944 30.5517L53.4688 36.7509V37.846C53.4698 38.6528 53.2241 39.4413 52.7629 40.112L51.4644 42.0065C50.78 43.0049 50.5522 44.2341 50.8359 45.4015C51.1196 46.5685 51.8887 47.5693 52.9604 48.1643C53.6242 48.5328 54.0619 49.1926 54.1342 49.9321C54.206 50.6722 53.9028 51.3997 53.3216 51.8825L51.3464 53.5301C49.9807 54.6681 49.5113 56.5247 50.1793 58.1484L51.4398 61.2183C51.5998 61.6073 51.9877 61.8617 52.4181 61.8607C52.5515 61.8612 52.6839 61.8367 52.808 61.7883C53.3472 61.5794 53.6099 60.9845 53.3944 60.4608L52.1334 57.3894C51.7994 56.5781 52.0339 55.6495 52.7167 55.0805L54.6919 53.4339C55.7933 52.5188 56.3679 51.1394 56.2309 49.7371C56.0945 48.3348 55.2639 47.0846 54.0049 46.3869L54.0029 46.3909ZM47.9578 27.6543C47.9594 27.1093 48.1867 26.5881 48.5884 26.2081C49.4082 25.4142 50.7349 25.4172 51.5516 26.2141L53.7787 28.3794C54.1891 28.7779 54.854 28.7779 55.2644 28.3794L57.4981 26.2081C58.3287 25.4357 59.639 25.4397 60.4645 26.2171C60.8605 26.5961 61.0832 27.1138 61.0832 27.6543C61.0847 28.2009 60.8605 28.7255 60.4614 29.1105L54.5195 34.8843L48.5801 29.1105C48.1805 28.7255 47.9563 28.2009 47.9578 27.6543Z" fill="#C6D9FF"/>
<path d="M17.8146 30.5547C18.6062 29.7902 19.0515 28.7509 19.0525 27.6663C19.0541 26.5817 18.6108 25.5414 17.8213 24.7749C17.0338 24.0064 15.9636 23.5746 14.8478 23.5746C13.7319 23.5746 12.6618 24.0064 11.8743 24.7749L10.3896 26.2171L8.91154 24.7749C7.71054 23.608 5.90571 23.2569 4.33482 23.8848C2.76444 24.5126 1.73583 25.9962 1.72659 27.6469C1.72249 28.7375 2.16831 29.7837 2.96453 30.5517L9.33889 36.7509V37.846C9.33786 39.0558 9.70622 40.2387 10.3983 41.2445L11.6968 43.1395C12.0584 43.6661 12.1785 44.3154 12.0287 44.9323C11.8789 45.5487 11.4726 46.0773 10.9067 46.3909C9.64978 47.0891 8.82022 48.3378 8.68324 49.7386C8.54626 51.1394 9.11931 52.5173 10.2182 53.4329L12.1959 55.0815C12.8783 55.651 13.1122 56.5791 12.7777 57.3904L11.5172 60.4608C11.3017 60.9845 11.5639 61.5794 12.1031 61.7883C12.2267 61.8362 12.3581 61.8612 12.4909 61.8607C12.9208 61.8612 13.3077 61.6063 13.4672 61.2183L14.7277 58.1494C15.3962 56.5262 14.9273 54.6691 13.5616 53.5311L11.5844 51.8815C11.0037 51.3987 10.7015 50.6712 10.7733 49.9316C10.8456 49.1921 11.2833 48.5328 11.9466 48.1643C13.0183 47.5693 13.7873 46.5685 14.0711 45.4015C14.3548 44.2341 14.1275 43.0049 13.4431 42.0065L12.1441 40.112C11.6834 39.4413 11.4387 38.6523 11.4402 37.846V36.7509L17.8146 30.5547ZM3.82795 27.6543C3.82949 27.1093 4.05676 26.5881 4.45846 26.2081C5.27828 25.4142 6.60497 25.4172 7.42171 26.2141L9.64876 28.3794C10.0592 28.7779 10.7241 28.7779 11.1345 28.3794L13.3682 26.2081C14.1988 25.4357 15.5091 25.4397 16.3345 26.2171C16.7306 26.5961 16.9532 27.1138 16.9532 27.6543C16.9548 28.2009 16.7306 28.7255 16.3315 29.1105L10.3896 34.8843L4.45025 29.1105C4.0506 28.7255 3.82641 28.2009 3.82795 27.6543Z" fill="#C6D9FF"/>
<path d="M44.7566 35.606C44.3446 35.219 43.689 35.2245 43.2837 35.6184C42.8784 36.0124 42.8728 36.6497 43.2709 37.0501L44.1943 37.9482C45.0147 38.7455 45.0147 40.0386 44.1943 40.8359L43.2709 41.7335C42.9979 41.9903 42.8881 42.3698 42.9846 42.7268C43.0805 43.0839 43.3673 43.3626 43.7347 43.4564C44.102 43.5496 44.4929 43.4434 44.7566 43.1776L45.6801 42.28C47.3208 40.6848 47.3208 38.0993 45.6801 36.5041L44.7566 35.606Z" fill="#C6D9FF"/>
<path d="M61.5652 45.8188C61.1532 45.4318 60.4976 45.4373 60.0923 45.8312C59.687 46.2252 59.6814 46.8625 60.0795 47.2629L61.0029 48.161C61.8232 48.9584 61.8232 50.2515 61.0029 51.0488L60.0795 51.9464C59.8065 52.2033 59.6967 52.5827 59.7932 52.9398C59.8891 53.2968 60.1759 53.5756 60.5432 53.6694C60.9106 53.7626 61.3015 53.6564 61.5652 53.3906L62.4886 52.493C64.1293 50.8977 64.1293 48.3121 62.4886 46.7169L61.5652 45.8188Z" fill="#C6D9FF"/>
<path d="M43.4502 53.3912C43.8488 52.9907 43.8432 52.3534 43.4379 51.9594C43.0326 51.5654 42.377 51.56 41.965 51.9469L41.041 52.8451C39.4004 54.4404 39.4004 57.0262 41.041 58.6215L41.965 59.5191C42.377 59.9061 43.0326 59.9006 43.4379 59.5067C43.8432 59.1127 43.8488 58.4759 43.4502 58.0749L42.5268 57.1773C41.7064 56.3798 41.7064 55.0867 42.5268 54.2893L43.4502 53.3912Z" fill="#C6D9FF"/>
<path d="M23.4874 48.2844C23.886 47.8839 23.8803 47.2466 23.4751 46.8526C23.0698 46.4586 22.4141 46.4531 22.0021 46.8401L21.0782 47.7383C19.4375 49.3336 19.4375 51.9193 21.0782 53.5147L22.0021 54.4123C22.4141 54.7993 23.0698 54.7938 23.4751 54.3999C23.8803 54.0059 23.886 53.3691 23.4874 52.9681L22.5639 52.0705C21.7436 51.273 21.7436 49.9799 22.5639 49.1825L23.4874 48.2844Z" fill="#C6D9FF"/>
<path d="M24.6654 24.4952C23.8451 23.6978 23.8451 22.4047 24.6654 21.6073C25.0635 21.2064 25.0579 20.5696 24.6526 20.1756C24.2473 19.7816 23.5922 19.7761 23.1797 20.1631C21.5391 21.7584 21.5391 24.3441 23.1797 25.9394C23.5922 26.3264 24.2473 26.3209 24.6526 25.927C25.0579 25.533 25.0635 24.8962 24.6654 24.4952Z" fill="#C6D9FF"/>
<path d="M2.72827 40.7124C2.31631 40.3255 1.66066 40.3309 1.25537 40.7249C0.85008 41.1188 0.844437 41.7562 1.24254 42.1566L2.16599 43.0547C2.98632 43.8521 2.98632 45.1451 2.16599 45.9425L1.24254 46.8401C0.969615 47.0969 0.859827 47.4764 0.956276 47.8335C1.05221 48.1905 1.33899 48.4693 1.70632 48.563C2.07365 48.6563 2.46457 48.5501 2.72827 48.2843L3.65171 47.3867C5.29237 45.7914 5.29237 43.2058 3.65171 41.6105L2.72827 40.7124Z" fill="#C6D9FF"/>
<path d="M20.7924 36.7861L21.8431 34.7428C22.1027 34.238 21.8918 33.6239 21.3726 33.3715C20.8534 33.1196 20.2219 33.3246 19.9623 33.8294L18.9116 35.8727C18.6525 36.3776 18.8633 36.9916 19.3825 37.2435C19.9017 37.496 20.5333 37.2909 20.7924 36.7861Z" fill="#C6D9FF"/>
<path d="M62.6166 38.6697C62.2046 38.2826 61.549 38.2881 61.1437 38.6821C60.7384 39.0762 60.7327 39.7137 61.1308 40.1143L62.1815 41.1359C62.594 41.523 63.2491 41.5175 63.6544 41.1234C64.0597 40.7293 64.0654 40.0923 63.6673 39.6913L62.6166 38.6697Z" fill="#C6D9FF"/>
<path d="M21.644 40.7095C21.3983 40.4621 21.0397 40.3533 20.6929 40.4217C20.3456 40.49 20.0588 40.7255 19.9315 41.0467C19.8197 41.2942 19.8197 41.576 19.9315 41.8235C19.9849 41.9467 20.0598 42.0609 20.1521 42.1607C20.5667 42.5558 21.23 42.5558 21.644 42.1607C21.7369 42.0609 21.8113 41.9467 21.8646 41.8235C21.977 41.576 21.977 41.2942 21.8646 41.0467C21.8139 40.922 21.739 40.8073 21.644 40.7095Z" fill="#C6D9FF"/>
<path d="M45.6521 46.7146C45.5936 46.6757 45.53 46.6448 45.4628 46.6223C45.4033 46.5929 45.3397 46.5724 45.274 46.561C44.9641 46.4971 44.6414 46.5729 44.3962 46.7675C44.1515 46.9621 44.0104 47.2549 44.013 47.5622C44.0094 47.6964 44.0381 47.8296 44.0971 47.9508C44.1505 48.074 44.2254 48.1883 44.3177 48.288C44.4183 48.3803 44.5358 48.4532 44.6645 48.5025C45.0554 48.6652 45.509 48.5804 45.8096 48.288C45.9024 48.1883 45.9768 48.074 46.0302 47.9508C46.0841 47.8276 46.1128 47.6959 46.1143 47.5622C46.1128 47.2913 46.0035 47.0314 45.8096 46.8368C45.7598 46.7934 45.707 46.7525 45.6521 46.7146Z" fill="#C6D9FF"/>
<path d="M41.4499 24.2466C41.3914 24.2077 41.3278 24.1768 41.2605 24.1543C41.198 24.1234 41.1302 24.1024 41.06 24.093C40.7172 24.0266 40.3627 24.1299 40.1144 24.3688C40.0195 24.4666 39.9446 24.5813 39.8938 24.706C39.7815 24.9535 39.7815 25.2353 39.8938 25.4827C39.9472 25.6059 40.0221 25.7202 40.1144 25.8199C40.529 26.215 41.1923 26.215 41.6063 25.8199C41.6987 25.7202 41.7736 25.6059 41.8269 25.4827C41.9393 25.2353 41.9393 24.9535 41.8269 24.706C41.7761 24.5813 41.7012 24.4666 41.6063 24.3688C41.5566 24.3254 41.5042 24.2845 41.4499 24.2466Z" fill="#C6D9FF"/>
<path d="M55.1088 20.1613C55.0503 20.1224 54.9867 20.0915 54.9195 20.069C54.8569 20.0381 54.7892 20.0171 54.7189 20.0077C54.2279 19.9029 53.7324 20.1638 53.5538 20.6207C53.3666 21.0487 53.4995 21.5455 53.8781 21.8293C54.2567 22.1136 54.7846 22.1136 55.1627 21.8293C55.5413 21.5455 55.6747 21.0487 55.4869 20.6207C55.4335 20.497 55.3591 20.3833 55.2663 20.2835C55.2165 20.2401 55.1637 20.1992 55.1088 20.1613Z" fill="#C6D9FF"/>
<path d="M59.4684 55.0077C59.4171 54.9618 59.3607 54.9203 59.3007 54.8854C59.2468 54.845 59.1863 54.8136 59.1216 54.7931C59.0591 54.7622 58.9913 54.7412 58.9211 54.7317C58.7205 54.6903 58.5111 54.7118 58.3234 54.7931C58.1946 54.8425 58.0771 54.9154 57.9766 55.0077C57.8837 55.1074 57.8093 55.2212 57.756 55.3449C57.5687 55.773 57.7016 56.27 58.0802 56.5539C58.4588 56.8383 58.9867 56.8383 59.3648 56.5539C59.7434 56.27 59.8768 55.773 59.689 55.3449C59.6357 55.2212 59.5613 55.1074 59.4684 55.0077Z" fill="#C6D9FF"/>
<path d="M25.8458 56.0291C25.7437 55.9394 25.6262 55.8671 25.499 55.8147C25.108 55.6551 24.656 55.7394 24.3539 56.0291C24.261 56.1289 24.1866 56.2426 24.1333 56.3662C24.0743 56.4874 24.0455 56.6206 24.0491 56.7542C24.0466 57.026 24.1564 57.2873 24.3539 57.4798C24.4585 57.5696 24.575 57.6449 24.7007 57.7042C24.8279 57.7531 24.9634 57.7775 25.0998 57.7755C25.3794 57.778 25.6483 57.6713 25.8458 57.4798C26.0392 57.2848 26.1485 57.025 26.1505 56.7542C26.149 56.6211 26.1202 56.4889 26.0664 56.3662C26.0156 56.2416 25.9407 56.1269 25.8458 56.0291Z" fill="#C6D9FF"/>
<path d="M9.03485 56.0288C8.61366 55.6514 7.96418 55.6514 7.54299 56.0288C7.44808 56.1266 7.37318 56.2413 7.32239 56.3659C7.13514 56.7938 7.26801 57.2904 7.64662 57.5742C8.02523 57.8584 8.55312 57.8584 8.93122 57.5742C9.30983 57.2904 9.44321 56.7938 9.25545 56.3659C9.20466 56.2413 9.12976 56.1266 9.03485 56.0288Z" fill="#C6D9FF"/>
<path d="M4.83289 36.6243C4.78313 36.5809 4.73028 36.54 4.67539 36.5021C4.6169 36.4632 4.55329 36.4322 4.48608 36.4098C4.42657 36.3804 4.36295 36.3599 4.29729 36.3485C3.95099 36.2816 3.59341 36.3849 3.341 36.6243C3.24609 36.722 3.17119 36.8368 3.1204 36.9614C3.00804 37.2088 3.00804 37.4906 3.1204 37.738C3.17375 37.8612 3.24866 37.9755 3.341 38.0752C3.64164 38.3675 4.09515 38.4523 4.48608 38.2897C4.61331 38.2373 4.7308 38.165 4.83289 38.0752C4.92575 37.9755 5.00014 37.8612 5.05349 37.738C5.16584 37.4906 5.16584 37.2088 5.05349 36.9614C5.0027 36.8368 4.9278 36.722 4.83289 36.6243Z" fill="#C6D9FF"/>
<path d="M10.98 20.1609C10.9215 20.122 10.8579 20.0911 10.7907 20.0686C10.7281 20.0377 10.6604 20.0168 10.5901 20.0073C10.2479 19.9454 9.89548 20.0482 9.64461 20.2831C9.44812 20.4761 9.33884 20.7369 9.3409 21.0083C9.33577 21.4242 9.59074 21.8013 9.98526 21.9624C10.3793 22.1235 10.8348 22.0357 11.1365 21.7409C11.4381 21.4462 11.5259 21.0028 11.3581 20.6202C11.3073 20.4956 11.2324 20.3808 11.1375 20.2831C11.0877 20.2397 11.0349 20.1988 10.98 20.1609Z" fill="#C6D9FF"/>
<path d="M2.72888 55.0106C2.31692 54.6235 1.66127 54.629 1.25597 55.0231C0.850678 55.4172 0.845035 56.0547 1.24315 56.4552L2.29383 57.4768C2.55753 57.7427 2.94846 57.8489 3.31579 57.7557C3.68312 57.6619 3.9699 57.383 4.06635 57.0259C4.16229 56.6687 4.0525 56.2891 3.77957 56.0322L2.72888 55.0106Z" fill="#C6D9FF"/>
<defs>
<linearGradient id="paint0_linear" x1="0.0844605" y1="40.3687" x2="64.9745" y2="39.4121" gradientUnits="userSpaceOnUse">
<stop stop-color="#5529CF"/>
<stop offset="1" stop-color="#9745FF"/>
</linearGradient>
<linearGradient id="paint1_linear" x1="0.0844605" y1="40.3687" x2="64.9745" y2="39.4121" gradientUnits="userSpaceOnUse">
<stop stop-color="#5529CF"/>
<stop offset="1" stop-color="#9745FF"/>
</linearGradient>
</defs>
</svg>
