<svg width="66" height="70" viewBox="0 0 66 70" fill="none" xmlns="http://www.w3.org/2000/svg">
<g clip-path="url(#clip0)">
<path d="M53.2513 58.0391C52.2974 58.0391 51.5245 57.2656 51.5245 56.3108C51.5245 55.6745 51.009 55.1586 50.3732 55.1586C49.7375 55.1586 49.222 55.6744 49.222 56.3108C49.2288 58.0881 50.398 59.6516 52.1 60.159V61.4958C52.1 62.1321 52.6156 62.6481 53.2513 62.6481C53.887 62.6481 54.4025 62.1321 54.4025 61.4958V60.159C56.3261 59.597 57.5414 57.7022 57.2514 55.7179C56.9619 53.7331 55.2553 52.2658 53.2513 52.2782C52.2974 52.2782 51.5245 51.5046 51.5245 50.5499C51.5245 49.5951 52.2974 48.8216 53.2513 48.8216C54.2046 48.8216 54.9781 49.5951 54.9781 50.5499C54.9781 51.1862 55.4935 51.7021 56.1293 51.7021C56.7652 51.7021 57.2806 51.1862 57.2806 50.5499C57.2732 48.7726 56.104 47.2091 54.4025 46.7017V45.3649C54.4025 44.7286 53.887 44.2126 53.2513 44.2126C52.6156 44.2126 52.1 44.7286 52.1 45.3649V46.7017C50.1765 47.2637 48.9606 49.1585 49.2506 51.1434C49.5406 53.1276 51.2473 54.5949 53.2513 54.5825C54.2046 54.5825 54.9781 55.3561 54.9781 56.3108C54.9781 57.2656 54.2046 58.0391 53.2513 58.0391Z" fill="url(#paint0_linear)"/>
<path d="M14.9036 16.6274C15.4287 16.6623 15.9132 16.3341 16.0669 15.8304C18.5777 7.5966 26.5517 2.08648 35.3108 2.86549C44.7915 3.70831 52.0687 11.6422 52.1002 21.1681V22.3203H48.6466C44.1961 22.3203 40.5881 25.9313 40.5881 30.3859V54.5429C40.5881 55.1565 41.0508 55.6924 41.6626 55.7321C42.3331 55.7756 42.8906 55.2441 42.8906 54.5823V40.7557H60.1194C60.7325 40.7557 61.2679 40.2926 61.3076 39.6803C61.3511 39.0092 60.82 38.4513 60.1588 38.4513H42.8904V30.3857C42.8904 27.204 45.4675 24.6247 48.6465 24.6247H52.1001V27.0906C49.6849 27.7145 48.1741 30.1669 48.7796 32.6571C49.2315 34.5156 50.8218 35.9179 52.721 36.1321C55.2653 36.4192 57.5054 34.6096 57.8192 32.1337C58.1115 29.8316 56.6478 27.6706 54.4026 27.0906V24.6247H57.8562C61.0352 24.6247 63.6123 27.204 63.6123 30.3857V67.2565H42.8904V59.2306C42.8904 58.617 42.4277 58.0811 41.8159 58.0413C41.1453 57.9978 40.5879 58.5294 40.5879 59.1911V68.4089C40.5879 69.0453 41.1033 69.5612 41.7392 69.5612H64.7635C65.3994 69.5612 65.9147 69.0453 65.9147 68.4089V30.3859C65.9147 25.9315 62.3069 22.3203 57.8562 22.3203H54.4026V21.1681C54.3328 10.4225 46.0747 1.50971 35.3737 0.631447C25.5824 -0.171621 16.7137 5.99594 13.8853 15.1636C13.6694 15.8629 14.1737 16.579 14.9036 16.6274ZM55.5538 31.5381C55.5606 32.6582 54.7612 33.6209 53.6601 33.82C52.5589 34.0186 51.474 33.3963 51.0895 32.3442C50.7045 31.2926 51.131 30.1163 52.1001 29.5564V30.3857C52.1001 31.022 52.6156 31.538 53.2513 31.538C53.887 31.538 54.4026 31.0221 54.4026 30.3857V29.5564C55.1103 29.9657 55.5486 30.72 55.5538 31.5381Z" fill="#C6D9FF"/>
<path d="M27.3316 56.8872H16.9705V54.5825H23.8774C24.5136 54.5825 25.0288 54.0668 25.0288 53.4301V48.822C25.0288 48.1853 24.5136 47.6696 23.8774 47.6696H16.9705V43.1004C16.9705 42.4867 16.5071 41.9509 15.8954 41.9106C15.2247 41.8673 14.6678 42.3989 14.6678 43.0601V48.822C14.6678 49.4572 15.183 49.9729 15.8191 49.9729H22.726V52.2777H15.8191C15.183 52.2777 14.6678 52.7934 14.6678 53.4301V58.0396C14.6678 58.6749 15.183 59.1905 15.8191 59.1905H26.1802V63.8001H15.8191C15.183 63.8001 14.6678 64.3158 14.6678 64.9525V66.0645C14.6678 66.6782 14.2058 67.214 13.5941 67.2544C12.9234 67.2976 12.365 66.766 12.365 66.1049V38.0486C12.3635 37.6755 12.1822 37.3269 11.8785 37.1123C11.5748 36.8962 11.1862 36.8429 10.8336 36.9654C10.2162 37.1829 9.5671 37.2953 8.91225 37.2996C6.34321 37.3053 4.08216 35.6056 3.3683 33.1366C2.65732 30.6662 3.66479 28.0229 5.84091 26.6573C8.01704 25.2917 10.8336 25.5337 12.7449 27.2522C13.1839 27.6484 13.8488 27.6484 14.2878 27.2522C16.1991 25.5337 19.0157 25.2917 21.1918 26.6573C23.3679 28.0229 24.3769 30.6662 23.6644 33.1366C22.952 35.6056 20.6895 37.3053 18.1219 37.2996C17.4656 37.2953 16.8165 37.1829 16.1991 36.9654C15.8019 36.7853 15.3384 36.8458 15.0002 37.1195C14.662 37.3932 14.5066 37.8354 14.6001 38.2604C14.6922 38.6868 15.0175 39.0224 15.4392 39.1304C16.2999 39.4416 17.2066 39.6015 18.1219 39.6029C22.3245 39.5712 25.7959 36.3114 26.0967 32.1167C26.399 27.9206 23.427 24.1984 19.2733 23.5646C19.2733 23.5646 19.2733 23.5646 19.2733 23.4724C19.2704 22.9826 19.2071 22.503 19.0877 22.0449C18.4702 19.6638 16.3243 17.9943 13.869 17.8589L13.8215 17.856C10.6696 17.6817 7.90334 20.0801 7.76661 23.2362C7.76229 23.3154 7.76086 23.3932 7.76086 23.4724V23.5646C3.60578 24.1984 0.63519 27.9206 0.93599 32.1167C1.23679 36.3114 4.70823 39.5712 8.91225 39.6029C9.29652 39.6058 9.6808 39.5784 10.0636 39.5237V66.0271C10.0636 67.9645 11.6468 69.5966 13.5826 69.5606C15.4593 69.5246 16.9705 67.9919 16.9705 66.1049H27.3316C27.9678 66.1049 28.483 65.5892 28.483 64.9525V58.0396C28.483 57.4029 27.9678 56.8872 27.3316 56.8872ZM10.0636 23.4724C10.0636 23.4119 10.0651 23.3514 10.068 23.2909C10.1586 21.5393 11.6741 20.2011 13.4257 20.2284L13.7179 20.2328C15.2247 20.2544 16.5618 21.2843 16.8885 22.7565C16.9403 22.9884 16.9677 23.229 16.9705 23.4724V23.5646C15.7285 23.7403 14.5454 24.2056 13.5164 24.9244C12.4888 24.2056 11.3043 23.7403 10.0636 23.5646V23.4724Z" fill="url(#paint1_linear)"/>
<path d="M8.91218 28.0819C7.00375 28.0819 5.45801 29.629 5.45801 31.5376C5.45801 33.4463 7.00375 34.9948 8.91218 34.9948C10.8192 34.9948 12.3649 33.4463 12.3649 31.5376C12.3649 29.629 10.8192 28.0819 8.91218 28.0819ZM8.91218 32.69C8.27604 32.69 7.76079 32.1743 7.76079 31.5376C7.76079 30.9024 8.27604 30.3852 8.91218 30.3852C9.54688 30.3852 10.0636 30.9024 10.0636 31.5376C10.0636 32.1745 9.54688 32.69 8.91218 32.69Z" fill="#C6D9FF"/>
<path d="M18.1221 28.0819C16.2137 28.0819 14.668 29.629 14.668 31.5376C14.668 33.4463 16.2137 34.9948 18.1221 34.9948C20.0291 34.9948 21.5749 33.4463 21.5749 31.5376C21.5749 29.629 20.0291 28.0819 18.1221 28.0819ZM18.1221 32.69C17.486 32.69 16.9707 32.1743 16.9707 31.5376C16.9707 30.9024 17.486 30.3852 18.1221 30.3852C18.7583 30.3852 19.2735 30.9024 19.2735 31.5376C19.2735 32.1745 18.7583 32.69 18.1221 32.69Z" fill="#C6D9FF"/>
</g>
<defs>
<linearGradient id="paint0_linear" x1="49.0886" y1="56.1498" x2="57.4279" y2="56.0976" gradientUnits="userSpaceOnUse">
<stop stop-color="#5529CF"/>
<stop offset="1" stop-color="#9745FF"/>
</linearGradient>
<linearGradient id="paint1_linear" x1="0.507979" y1="51.3326" x2="28.9389" y2="51.1162" gradientUnits="userSpaceOnUse">
<stop stop-color="#5529CF"/>
<stop offset="1" stop-color="#9745FF"/>
</linearGradient>
<clipPath id="clip0">
<rect width="65" height="69" fill="white" transform="translate(0.915039 0.561279)"/>
</clipPath>
</defs>
</svg>
