<svg width="65" height="65" viewBox="0 0 65 65" fill="none" xmlns="http://www.w3.org/2000/svg">
<g clip-path="url(#clip0)">
<path d="M61.165 7.23279H4.66504C2.59717 7.23279 0.915039 8.91492 0.915039 10.9828V53.9828C0.915039 56.0507 2.59717 57.7328 4.66504 57.7328H27.166C27.856 57.7328 28.416 57.1732 28.416 56.4828C28.416 55.7924 27.856 55.2328 27.166 55.2328H4.66504C3.97559 55.2328 3.41504 54.6722 3.41504 53.9828V10.9828C3.41504 10.2933 3.97559 9.73279 4.66504 9.73279H61.165C61.8545 9.73279 62.415 10.2933 62.415 10.9828V53.9828C62.415 54.6722 61.8545 55.2328 61.165 55.2328H38.416C37.7256 55.2328 37.166 55.7924 37.166 56.4828C37.166 57.1732 37.7256 57.7328 38.416 57.7328H61.165C63.2329 57.7328 64.915 56.0507 64.915 53.9828V10.9828C64.915 8.91492 63.2329 7.23279 61.165 7.23279Z" fill="#C6D9FF"/>
<path d="M32.165 43.7328C32.8555 43.7328 33.415 43.1732 33.415 42.4828V32.4828C33.415 31.7924 32.8555 31.2328 32.165 31.2328H30.915V16.4828C30.915 15.7924 30.3555 15.2328 29.665 15.2328C28.9746 15.2328 28.415 15.7924 28.415 16.4828V31.2328H27.165C26.4746 31.2328 25.915 31.7924 25.915 32.4828V42.4828C25.915 43.1732 26.4746 43.7328 27.165 43.7328H28.415V48.4828C28.415 49.1732 28.9746 49.7328 29.665 49.7328C30.3555 49.7328 30.915 49.1732 30.915 48.4828V43.7328H32.165ZM28.415 33.7328H30.915V41.2328H28.415V33.7328Z" fill="#C6D9FF"/>
<path d="M9.66504 49.7328C10.3555 49.7328 10.915 49.1732 10.915 48.4828V33.7328H12.165C12.8555 33.7328 13.415 33.1732 13.415 32.4828V22.4828C13.415 21.7924 12.8555 21.2328 12.165 21.2328H10.915V16.4828C10.915 15.7924 10.3555 15.2328 9.66504 15.2328C8.97461 15.2328 8.41504 15.7924 8.41504 16.4828V21.2328H7.16504C6.47461 21.2328 5.91504 21.7924 5.91504 22.4828V32.4828C5.91504 33.1732 6.47461 33.7328 7.16504 33.7328H8.41504V48.4828C8.41504 49.1732 8.97461 49.7328 9.66504 49.7328ZM8.41504 23.7328H10.915V31.2328H8.41504V23.7328Z" fill="#C6D9FF"/>
<path d="M19.665 49.7328C20.3555 49.7328 20.915 49.1732 20.915 48.4828V38.7328H22.165C22.8555 38.7328 23.415 38.1732 23.415 37.4828V27.4828C23.415 26.7924 22.8555 26.2328 22.165 26.2328H20.915V16.4828C20.915 15.7924 20.3555 15.2328 19.665 15.2328C18.9746 15.2328 18.415 15.7924 18.415 16.4828V26.2328H17.165C16.4746 26.2328 15.915 26.7924 15.915 27.4828V37.4828C15.915 38.1732 16.4746 38.7328 17.165 38.7328H18.415V48.4828C18.415 49.1732 18.9746 49.7328 19.665 49.7328ZM18.415 28.7328H20.915V36.2328H18.415V28.7328Z" fill="url(#paint0_linear)"/>
<path d="M58.665 17.5668C58.9937 17.5668 59.3164 17.433 59.5488 17.2001C59.7812 16.9677 59.915 16.6454 59.915 16.3168C59.915 15.9867 59.7812 15.6654 59.5488 15.433C59.3164 15.1991 58.9937 15.0668 58.665 15.0668C58.3364 15.0668 58.0137 15.1991 57.7812 15.433C57.5488 15.6654 57.415 15.9877 57.415 16.3168C57.415 16.6454 57.5488 16.9667 57.7812 17.2001C58.0137 17.433 58.3364 17.5668 58.665 17.5668Z" fill="#C6D9FF"/>
<path d="M51.499 17.5668C51.8276 17.5668 52.1489 17.433 52.3823 17.2001C52.6147 16.9667 52.749 16.6454 52.749 16.3168C52.749 15.9877 52.6152 15.6654 52.3823 15.433C52.1489 15.1991 51.8276 15.0668 51.499 15.0668C51.1689 15.0668 50.8477 15.1991 50.6152 15.433C50.3813 15.6654 50.249 15.9867 50.249 16.3168C50.249 16.6454 50.3813 16.9677 50.6152 17.2001C50.8477 17.433 51.1689 17.5668 51.499 17.5668Z" fill="#C6D9FF"/>
<path d="M44.3311 17.5668C44.6602 17.5668 44.9824 17.433 45.2148 17.2001C45.4487 16.9677 45.5811 16.6454 45.5811 16.3168C45.5811 15.9867 45.4487 15.6654 45.2148 15.433C44.9824 15.1991 44.6602 15.0668 44.3311 15.0668C44.0024 15.0668 43.6802 15.1991 43.4478 15.433C43.2148 15.6639 43.0811 15.9867 43.0811 16.3168C43.0811 16.6454 43.2148 16.9677 43.4478 17.2001C43.6802 17.433 44.0024 17.5668 44.3311 17.5668Z" fill="#C6D9FF"/>
<path d="M37.165 17.5668C37.4937 17.5668 37.8164 17.433 38.0488 17.2001C38.2812 16.9677 38.415 16.6454 38.415 16.3168C38.415 15.9867 38.2812 15.6654 38.0488 15.433C37.8164 15.1991 37.4937 15.0668 37.165 15.0668C36.8364 15.0668 36.5137 15.1991 36.2812 15.433C36.0488 15.6654 35.915 15.9867 35.915 16.3168C35.915 16.6454 36.0488 16.9677 36.2812 17.2001C36.5137 17.433 36.8364 17.5668 37.165 17.5668Z" fill="#C6D9FF"/>
<path d="M57.7812 22.2001C58.0137 22.4325 58.3364 22.5668 58.665 22.5668C58.9937 22.5668 59.3164 22.433 59.5488 22.2001C59.7812 21.9667 59.915 21.6454 59.915 21.3168C59.915 20.9877 59.7812 20.6654 59.5488 20.433C59.3164 20.1991 58.9937 20.0668 58.665 20.0668C58.3364 20.0668 58.0137 20.1991 57.7812 20.433C57.5488 20.6654 57.415 20.9877 57.415 21.3168C57.415 21.6454 57.5488 21.9667 57.7812 22.2001Z" fill="#C6D9FF"/>
<path d="M50.6152 22.2001C50.8477 22.4325 51.1689 22.5668 51.499 22.5668C51.8276 22.5668 52.1489 22.433 52.3823 22.2001C52.6147 21.9677 52.749 21.6454 52.749 21.3168C52.749 20.9877 52.6152 20.6654 52.3823 20.433C52.1499 20.2006 51.8276 20.0668 51.499 20.0668C51.1689 20.0668 50.8462 20.2001 50.6152 20.433C50.3813 20.6654 50.249 20.9877 50.249 21.3168C50.249 21.6454 50.3813 21.9677 50.6152 22.2001Z" fill="#C6D9FF"/>
<path d="M43.4478 22.2001C43.6802 22.4325 44.0024 22.5668 44.3311 22.5668C44.6602 22.5668 44.9824 22.433 45.2148 22.2001C45.4487 21.9677 45.5811 21.6454 45.5811 21.3168C45.5811 20.9877 45.4487 20.6654 45.2148 20.433C44.9824 20.2006 44.6611 20.0668 44.3311 20.0668C44.0024 20.0668 43.6802 20.2001 43.4478 20.433C43.2148 20.6654 43.0811 20.9867 43.0811 21.3168C43.0811 21.6454 43.2148 21.9677 43.4478 22.2001Z" fill="#C6D9FF"/>
<path d="M36.2812 22.2001C36.5137 22.4325 36.8364 22.5668 37.165 22.5668C37.4937 22.5668 37.8164 22.433 38.0488 22.2001C38.2812 21.9677 38.415 21.6454 38.415 21.3168C38.415 20.9877 38.2812 20.6654 38.0488 20.433C37.8164 20.2006 37.4937 20.0668 37.165 20.0668C36.835 20.0668 36.5137 20.2001 36.2812 20.433C36.0488 20.6654 35.915 20.9877 35.915 21.3168C35.915 21.6454 36.0488 21.9677 36.2812 22.2001Z" fill="#C6D9FF"/>
<path d="M54.6572 36.7484C57.5562 36.7484 59.915 34.3895 59.915 31.4906C59.915 28.5912 57.5566 26.2328 54.6572 26.2328C51.7583 26.2328 49.3994 28.5912 49.3994 31.4906C49.3994 34.3895 51.7583 36.7484 54.6572 36.7484ZM54.6572 28.7328C56.1777 28.7328 57.415 29.9696 57.415 31.4906C57.415 33.0111 56.1782 34.2484 54.6572 34.2484C53.1367 34.2484 51.8994 33.0111 51.8994 31.4906C51.8994 29.9696 53.1367 28.7328 54.6572 28.7328Z" fill="#C6D9FF"/>
<path d="M54.6572 49.7328C57.5566 49.7328 59.915 47.3744 59.915 44.475C59.915 41.576 57.5566 39.2172 54.6572 39.2172C51.7583 39.2172 49.3994 41.5756 49.3994 44.475C49.3994 47.3744 51.7583 49.7328 54.6572 49.7328ZM54.6572 41.7172C56.1777 41.7172 57.415 42.9545 57.415 44.475C57.415 45.996 56.1782 47.2328 54.6572 47.2328C53.1367 47.2328 51.8994 45.996 51.8994 44.475C51.8994 42.9545 53.1367 41.7172 54.6572 41.7172Z" fill="url(#paint1_linear)"/>
<path d="M41.1729 36.7484C44.0718 36.7484 46.4307 34.3895 46.4307 31.4906C46.4307 28.5912 44.0723 26.2328 41.1729 26.2328C38.2734 26.2328 35.915 28.5912 35.915 31.4906C35.915 34.3895 38.2734 36.7484 41.1729 36.7484ZM41.1729 28.7328C42.6934 28.7328 43.9307 29.9696 43.9307 31.4906C43.9307 33.0111 42.6934 34.2484 41.1729 34.2484C39.6519 34.2484 38.415 33.0111 38.415 31.4906C38.415 29.9701 39.6519 28.7328 41.1729 28.7328Z" fill="#C6D9FF"/>
<path d="M41.1729 49.7328C44.0718 49.7328 46.4307 47.3744 46.4307 44.475C46.4307 41.576 44.0723 39.2172 41.1729 39.2172C38.2739 39.2172 35.915 41.5756 35.915 44.475C35.915 47.3744 38.2734 49.7328 41.1729 49.7328ZM41.1729 41.7172C42.6934 41.7172 43.9307 42.9545 43.9307 44.475C43.9307 45.996 42.6934 47.2328 41.1729 47.2328C39.6523 47.2328 38.415 45.996 38.415 44.475C38.415 42.9545 39.6519 41.7172 41.1729 41.7172Z" fill="#C6D9FF"/>
<path d="M32.791 55.2328C32.4609 55.2328 32.1396 55.3666 31.9072 55.599C31.6733 55.8314 31.541 56.1542 31.541 56.4828C31.541 56.8114 31.6733 57.1342 31.9072 57.3666C32.1396 57.599 32.4609 57.7328 32.791 57.7328C33.1196 57.7328 33.4419 57.599 33.6733 57.3666C33.9072 57.1342 34.041 56.8114 34.041 56.4828C34.041 56.1542 33.9072 55.8314 33.6733 55.599C33.4419 55.3666 33.1196 55.2328 32.791 55.2328Z" fill="#C6D9FF"/>
</g>
<defs>
<linearGradient id="paint0_linear" x1="15.8043" y1="37.572" x2="23.5395" y2="37.548" gradientUnits="userSpaceOnUse">
<stop stop-color="#5529CF"/>
<stop offset="1" stop-color="#9745FF"/>
</linearGradient>
<linearGradient id="paint1_linear" x1="49.2441" y1="46.0262" x2="60.0874" y2="45.8713" gradientUnits="userSpaceOnUse">
<stop stop-color="#5529CF"/>
<stop offset="1" stop-color="#9745FF"/>
</linearGradient>
<clipPath id="clip0">
<rect width="64" height="64" fill="white" transform="translate(0.915039 0.482788)"/>
</clipPath>
</defs>
</svg>
