<?xml version="1.0" encoding="iso-8859-1"?>
<!-- Generator: Adobe Illustrator 19.0.0, SVG Export Plug-In . SVG Version: 6.00 Build 0)  -->
<svg version="1.1" id="Capa_1" xmlns="http://www.w3.org/2000/svg" xmlns:xlink="http://www.w3.org/1999/xlink" x="0px" y="0px"
	 viewBox="0 0 512 512" style="enable-background:new 0 0 512 512;" xml:space="preserve">
<path style="fill:#53433F;" d="M180,105v30c0,8.399-6.599,15-15,15s-15-6.601-15-15v-30c0-8.401-6.599-15-15-15H75
	c-8.401,0-15,6.599-15,15v182c0,8.399-6.599,15-15,15s-15-6.601-15-15V105c0-24.901,20.099-45,45-45h60c11.7,0,22.2,4.499,30,11.7
	C174.3,79.799,180,91.8,180,105z"/>
<path style="fill:#3E322E;" d="M165,71.7c9.3,8.099,15,20.099,15,33.3v30c0,8.399-6.599,15-15,15V71.7z"/>
<path style="fill:#53433F;" d="M317,13.2L302,30H15C6.599,30,0,23.399,0,15C0,6.599,6.599,0,15,0h287L317,13.2z"/>
<polygon style="fill:#3E322E;" points="317,13.2 302,30 165,30 165,0 302,0 "/>
<path style="fill:#FEA832;" d="M512,377v30c0,57.9-47.1,105-105,105H105C47.1,512,0,464.9,0,407v-75l31.8-30H272l30,30L512,377z"/>
<path style="fill:#FE9923;" d="M512,377v30c0,57.9-47.1,105-105,105H165V302h107l30,30L512,377z"/>
<path style="fill:#FEDB41;" d="M332,304.699L302,332H0v-45c0-8.401,6.599-15,15-15h287L332,304.699z"/>
<polygon style="fill:#FCBF29;" points="332,304.699 302,332 165,332 165,272 302,272 "/>
<path style="fill:#948FE1;" d="M497,0H302v377c0,3.9,1.5,7.8,4.501,10.499l30,30C339.2,420.5,343.1,422,347,422
	s7.8-1.5,10.499-4.501l19.501-19.2l19.501,19.2c2.699,2.701,6.599,4.2,10.499,4.2s7.8-1.5,10.499-4.2l19.501-19.2l19.501,19.2
	c5.7,6,15.298,6,20.999,0l30-30c3-2.699,4.5-6.599,4.5-10.499V15C512,6.599,505.401,0,497,0z"/>
<g>
	<path style="fill:#7C75DA;" d="M512,15v362c0,3.9-1.5,7.8-4.501,10.499l-30,30c-5.7,6-15.298,6-20.999,0l-19.5-19.2l-19.501,19.2
		c-2.699,2.701-6.599,4.2-10.499,4.2V0h90C505.401,0,512,6.599,512,15z"/>
	<path style="fill:#7C75DA;" d="M377,332c-8.291,0-15-6.709-15-15V75c0-8.291,6.709-15,15-15s15,6.709,15,15v242
		C392,325.291,385.291,332,377,332z"/>
</g>
<path style="fill:#6E67D6;" d="M437,332c-8.291,0-15-6.709-15-15V75c0-8.291,6.709-15,15-15s15,6.709,15,15v242
	C452,325.291,445.291,332,437,332z"/>
<path style="fill:#FEDB41;" d="M165,120c-41.4,0-75,33.6-75,75c0,8.399,6.599,15,15,15h120c8.401,0,15-6.601,15-15
	C240,153.6,206.4,120,165,120z"/>
<path style="fill:#FCBF29;" d="M225,210h-60v-90c41.4,0,75,33.6,75,75C240,203.399,233.401,210,225,210z"/>
<g>
</g>
<g>
</g>
<g>
</g>
<g>
</g>
<g>
</g>
<g>
</g>
<g>
</g>
<g>
</g>
<g>
</g>
<g>
</g>
<g>
</g>
<g>
</g>
<g>
</g>
<g>
</g>
<g>
</g>
</svg>
