<svg width="30" height="30" viewBox="0 0 30 30" fill="none" xmlns="http://www.w3.org/2000/svg">
<path d="M25.6066 4.39342C22.7735 1.56023 19.0066 0 15 0C10.9934 0 7.22654 1.56023 4.39348 4.39342C1.56023 7.22654 0 10.9934 0 15C0 19.0066 1.56023 22.7735 4.39348 25.6066C7.22654 28.4398 10.9934 30 15 30C19.0066 30 22.7735 28.4398 25.6066 25.6066C28.4397 22.7734 30 19.0066 30 15C30 10.9934 28.4398 7.22654 25.6066 4.39342ZM15 0.947344C18.1141 0.947344 20.9944 1.96623 23.3263 3.68713L15 9.98502L6.67365 3.68713C9.00562 1.96623 11.8859 0.947344 15 0.947344ZM3.78949 23.4635C2.0066 21.1077 0.947344 18.1754 0.947344 15C0.947344 12.0787 1.84365 9.36316 3.37523 7.11293L3.78943 7.43795V23.4635H3.78949ZM20.5121 10.7046C20.2886 10.88 20.2687 11.2113 20.4697 11.4122C20.6391 11.5817 20.9085 11.5979 21.097 11.4499L25.2632 8.18115V24.5882C22.6968 27.3335 19.0457 29.0526 15 29.0526C10.9543 29.0526 7.30324 27.3335 4.73684 24.5882V8.18115L14.7076 16.0042C14.7934 16.0715 14.8966 16.1053 15 16.1053C15.1033 16.1053 15.2066 16.0716 15.2924 16.0042L19.2686 12.8845C19.4921 12.7092 19.512 12.3778 19.3112 12.1769C19.1417 12.0074 18.8723 11.9912 18.6838 12.1392L15 15.0295L3.93451 6.34752C4.52139 5.59863 5.18291 4.91121 5.90701 4.29516L14.7142 10.9567C14.8832 11.0846 15.1167 11.0846 15.2858 10.9567L24.093 4.2951C24.8171 4.91115 25.4787 5.59863 26.0655 6.34746L20.5121 10.7046ZM26.2105 7.43789L26.6247 7.11287C28.1563 9.36311 29.0526 12.0787 29.0526 14.9999C29.0526 18.1753 27.9934 21.1076 26.2105 23.4634V7.43789Z" fill="black"/>
</svg>
