<svg width="30" height="30" viewBox="0 0 30 30" fill="none" xmlns="http://www.w3.org/2000/svg">
<path d="M15 0C6.71582 0 0 6.71582 0 15C0 23.2842 6.71582 30 15 30C23.2842 30 30 23.2842 30 15C29.9907 6.71973 23.2803 0.00927738 15 0ZM15 29C7.26807 29 1 22.7319 1 15C1 7.26807 7.26807 1 15 1C22.7319 1 29 7.26807 29 15C28.9912 22.7283 22.7283 28.9912 15 29Z" fill="black"/>
<path d="M21.4998 5.99951H8.49976C7.11963 6.00122 6.00146 7.11938 5.99976 8.49951V21.4995C6.00146 22.8796 7.11963 23.9978 8.49976 23.9995H21.4998C22.8799 23.9978 23.998 22.8796 23.9998 21.4995V8.49951C23.998 7.11938 22.8799 6.00122 21.4998 5.99951ZM22.9998 21.4995C22.9998 22.3279 22.3281 22.9995 21.4998 22.9995H8.49976C7.67139 22.9995 6.99976 22.3279 6.99976 21.4995V8.49951C6.99976 7.67114 7.67139 6.99951 8.49976 6.99951H21.4998C22.3281 6.99951 22.9998 7.67114 22.9998 8.49951V21.4995Z" fill="black"/>
<path d="M15.0002 10C12.2388 10 10.0002 12.2385 10.0002 15C10.0002 17.7615 12.2388 20 15.0002 20C17.7617 20 20.0002 17.7615 20.0002 15C19.9973 12.2397 17.7605 10.0029 15.0002 10ZM15.0002 19C12.791 19 11.0002 17.2092 11.0002 15C11.0002 12.7908 12.791 11 15.0002 11C17.2095 11 19.0002 12.7908 19.0002 15C18.9978 17.208 17.2083 18.9976 15.0002 19Z" fill="black"/>
<path d="M20.5 8C19.6716 8 19 8.67163 19 9.5C19 10.3284 19.6716 11 20.5 11C21.3284 11 22 10.3284 22 9.5C22 8.67163 21.3284 8 20.5 8ZM20.5 10C20.2239 10 20 9.77612 20 9.5C20 9.22388 20.2239 9 20.5 9C20.7761 9 21 9.22388 21 9.5C21 9.77612 20.7761 10 20.5 10Z" fill="black"/>
</svg>
