<svg width="30" height="30" viewBox="0 0 30 30" fill="none" xmlns="http://www.w3.org/2000/svg">
<path d="M25.6066 4.39342C22.7735 1.56023 19.0066 0 15 0C10.9934 0 7.22654 1.56023 4.39342 4.39342C1.56023 7.22654 0 10.9934 0 15C0 19.0066 1.56023 22.7735 4.39342 25.6066C7.22654 28.4398 10.9934 30 15 30C19.0066 30 22.7735 28.4398 25.6066 25.6066C28.4397 22.7734 30 19.0066 30 15C30 10.9934 28.4398 7.22654 25.6066 4.39342ZM15 29.0527C7.25133 29.0527 0.947344 22.7487 0.947344 15C0.947344 7.25133 7.25133 0.947344 15 0.947344C22.7487 0.947344 29.0527 7.25133 29.0527 15C29.0527 22.7487 22.7487 29.0527 15 29.0527Z" fill="black"/>
<path d="M23.4956 5.77986C23.3502 5.67029 23.1548 5.65388 22.9931 5.73755L4.67727 15.2112C4.51895 15.2931 4.41998 15.457 4.42115 15.6352C4.42232 15.8134 4.52352 15.9759 4.68301 16.0557L9.47387 18.451V23.1974C9.47387 23.3217 9.51611 23.4446 9.6016 23.5348C9.69617 23.6345 9.82186 23.6846 9.9476 23.6846C10.0268 23.6846 10.106 23.6648 10.1777 23.6249L15.6588 20.5799L19.8539 22.3778C19.9432 22.416 20.042 22.4318 20.1375 22.414C20.334 22.3773 20.4802 22.2267 20.5174 22.0407L21.5789 16.7334C21.6375 16.4403 21.4133 16.1668 21.1143 16.1668C20.8885 16.1667 20.6942 16.3261 20.6499 16.5475L19.7029 21.2823L15.8184 19.6175C15.6838 19.5598 15.5299 19.5677 15.4017 19.6388L10.4213 22.4058V18.1582C10.4213 17.9788 10.3199 17.8148 10.1594 17.7345L5.93979 15.6247L22.5529 7.03171L21.1112 14.2401C21.0526 14.5332 21.2768 14.8067 21.5757 14.8067C21.8015 14.8067 21.9959 14.6473 22.0402 14.4259L23.6752 6.25107C23.7109 6.07259 23.6411 5.88937 23.4956 5.77986Z" fill="black"/>
<path d="M20.4243 9.65373C20.2754 9.46529 20.0089 9.41795 19.8043 9.54398L11.5938 14.5966C11.4537 14.6828 11.3684 14.8356 11.3684 15.0001V20.0527C11.3683 20.2724 11.5194 20.4632 11.7332 20.5137C11.7695 20.5223 11.806 20.5265 11.8421 20.5265C12.0183 20.5265 12.1842 20.4277 12.2657 20.2646L14.126 16.5439L20.3875 10.2824C20.5574 10.1125 20.5732 9.84228 20.4243 9.65373ZM13.4018 15.9282C13.3659 15.9642 13.3359 16.0058 13.3131 16.0513L12.3158 18.0461V15.2647L16.8647 12.4653L13.4018 15.9282Z" fill="black"/>
</svg>
