<svg width="821" height="127" viewBox="0 0 821 127" fill="none" xmlns="http://www.w3.org/2000/svg">
<path d="M72.2691 99H60.3691L59.3891 89.06C53.6957 96.2467 45.9491 99.84 36.1491 99.84C26.3491 99.84 18.1824 96.3867 11.6491 89.48C5.20906 82.5733 1.98906 74.08 1.98906 64C1.98906 53.92 5.20906 45.4267 11.6491 38.52C18.1824 31.52 26.3491 28.02 36.1491 28.02C45.9491 28.02 53.6957 31.66 59.3891 38.94L60.3691 29L72.2691 29L72.2691 99ZM37.8291 82.62C42.6824 82.62 46.8824 80.8933 50.4291 77.44C54.0691 73.9867 55.8891 69.5067 55.8891 64C55.8891 58.4933 54.0691 54.0133 50.4291 50.56C46.8824 47.0133 42.6824 45.24 37.8291 45.24C32.9757 45.24 28.7291 47.0133 25.0891 50.56C21.5424 54.0133 19.7691 58.4933 19.7691 64C19.7691 69.5067 21.5424 73.9867 25.0891 77.44C28.6357 80.8933 32.8824 82.62 37.8291 82.62ZM162.23 99H150.33L149.35 89.06C143.657 96.2467 135.91 99.84 126.11 99.84C116.31 99.84 108.143 96.3867 101.61 89.48C95.17 82.5733 91.95 74.08 91.95 64C91.95 53.92 95.17 45.4267 101.61 38.52C108.143 31.52 116.31 28.02 126.11 28.02C133.763 28.02 139.877 30.6333 144.45 35.86V0.999993L162.23 0.999993L162.23 99ZM127.79 82.62C132.643 82.62 136.843 80.8933 140.39 77.44C144.03 73.9867 145.85 69.5067 145.85 64C145.85 58.4933 144.03 54.0133 140.39 50.56C136.843 47.0133 132.643 45.24 127.79 45.24C122.937 45.24 118.69 47.0133 115.05 50.56C111.503 54.0133 109.73 58.4933 109.73 64C109.73 69.5067 111.503 73.9867 115.05 77.44C118.597 80.8933 122.843 82.62 127.79 82.62ZM222.651 99L211.171 99L178.831 29L197.731 29L216.911 72.82L236.231 29L254.991 29L222.651 99ZM335.453 99H323.553L322.573 89.06C316.879 96.2467 309.133 99.84 299.333 99.84C289.533 99.84 281.366 96.3867 274.833 89.48C268.393 82.5733 265.173 74.08 265.173 64C265.173 53.92 268.393 45.4267 274.833 38.52C281.366 31.52 289.533 28.02 299.333 28.02C309.133 28.02 316.879 31.66 322.573 38.94L323.553 29H335.453V99ZM301.013 82.62C305.866 82.62 310.066 80.8933 313.613 77.44C317.253 73.9867 319.073 69.5067 319.073 64C319.073 58.4933 317.253 54.0133 313.613 50.56C310.066 47.0133 305.866 45.24 301.013 45.24C296.159 45.24 291.913 47.0133 288.273 50.56C284.726 54.0133 282.953 58.4933 282.953 64C282.953 69.5067 284.726 73.9867 288.273 77.44C291.819 80.8933 296.066 82.62 301.013 82.62ZM396.574 28.02C406.467 28.02 414.027 31.1 419.254 37.26C424.48 43.3267 427.094 51.5867 427.094 62.04V99H409.314V63.16C409.314 51.2133 404.134 45.24 393.774 45.24C388.454 45.24 384.347 46.8733 381.454 50.14C378.56 53.3133 377.114 58.1667 377.114 64.7V99H359.334V29H371.234L372.494 39.92C377.347 31.9867 385.374 28.02 396.574 28.02ZM473.208 46.22V99H455.288V46.22H446.188V29L455.288 29V5.47999L473.208 5.47999V29H482.308V46.22H473.208ZM566.781 99H554.881L553.901 89.06C548.207 96.2467 540.461 99.84 530.661 99.84C520.861 99.84 512.694 96.3867 506.161 89.48C499.721 82.5733 496.501 74.08 496.501 64C496.501 53.92 499.721 45.4267 506.161 38.52C512.694 31.52 520.861 28.02 530.661 28.02C540.461 28.02 548.207 31.66 553.901 38.94L554.881 29L566.781 29V99ZM532.341 82.62C537.194 82.62 541.394 80.8933 544.941 77.44C548.581 73.9867 550.401 69.5067 550.401 64C550.401 58.4933 548.581 54.0133 544.941 50.56C541.394 47.0133 537.194 45.24 532.341 45.24C527.487 45.24 523.241 47.0133 519.601 50.56C516.054 54.0133 514.281 58.4933 514.281 64C514.281 69.5067 516.054 73.9867 519.601 77.44C523.147 80.8933 527.394 82.62 532.341 82.62ZM595.422 38.38C601.955 31.4733 610.122 28.02 619.922 28.02C629.722 28.02 637.468 31.6133 643.162 38.8L644.142 29L656.042 29V90.04C656.042 100.493 652.868 109.033 646.522 115.66C640.175 122.38 631.635 125.74 620.902 125.74C609.048 125.74 598.735 122.1 589.962 114.82L600.042 104.04C607.508 107.773 614.462 109.593 620.902 109.5C626.128 109.5 630.282 108.147 633.362 105.44C636.442 102.827 637.982 99.0467 637.982 94.1V90.18C633.408 95.22 627.388 97.74 619.922 97.74C610.122 97.74 601.955 94.3333 595.422 87.52C588.982 80.7067 585.762 72.54 585.762 63.02C585.762 53.4067 588.982 45.1933 595.422 38.38ZM621.602 45.24C616.748 45.24 612.502 46.92 608.862 50.28C605.315 53.64 603.542 57.8867 603.542 63.02C603.542 68.06 605.315 72.26 608.862 75.62C612.502 78.8867 616.748 80.52 621.602 80.52C626.362 80.52 630.562 78.8867 634.202 75.62C637.842 72.26 639.662 68.06 639.662 63.02C639.662 57.8867 637.842 53.64 634.202 50.28C630.562 46.92 626.362 45.24 621.602 45.24ZM710.062 28.02C724.902 28.02 735.169 34.32 740.862 46.92C742.262 50 743.055 53.7333 743.242 58.12C743.429 62.4133 743.009 66.0067 741.982 68.9H693.122C693.122 73.4733 694.755 77.0667 698.022 79.68C701.382 82.2933 705.535 83.6 710.482 83.6C718.229 83.6 725.275 81.9667 731.622 78.7L741.002 88.92C731.202 96.2 721.029 99.84 710.482 99.84C699.935 99.84 691.349 96.48 684.722 89.76C678.095 82.9467 674.782 74.36 674.782 64C674.782 53.7333 678.002 45.1933 684.442 38.38C690.882 31.4733 699.422 28.02 710.062 28.02ZM710.062 44.26C705.489 44.26 701.662 45.6133 698.582 48.32C695.595 51.0267 694.009 54.1533 693.822 57.7L725.882 57.7C725.882 55.6467 725.322 53.78 724.202 52.1C721.402 46.8733 716.689 44.26 710.062 44.26ZM788.144 28.02H789.264C795.05 28.02 800.557 29.1867 805.784 31.52C811.104 33.8533 815.304 37.0267 818.384 41.04L808.304 50.42C806.157 47.9933 803.217 46.0333 799.484 44.54C795.844 42.9533 792.484 42.16 789.404 42.16H788.284C785.017 42.2533 782.404 42.9067 780.444 44.12C778.484 45.3333 777.504 47.0133 777.504 49.16C777.504 51.12 778.344 52.5667 780.024 53.5C781.797 54.4333 784.83 55.0867 789.124 55.46L793.884 56.02C811.15 57.2333 819.784 64.5133 819.784 77.86C819.784 84.2067 817.217 89.48 812.084 93.68C806.95 97.7867 800.137 99.84 791.644 99.84H790.944C784.037 99.84 777.55 98.6267 771.484 96.2C765.417 93.68 760.937 90.4133 758.044 86.4L768.124 76.88C770.177 79.3067 773.397 81.36 777.784 83.04C782.17 84.6267 786.51 85.42 790.804 85.42H791.504C798.504 85.42 802.004 83.1333 802.004 78.56C802.004 75.9467 801.07 74.1267 799.204 73.1C797.337 72.0733 794.257 71.3733 789.964 71L786.044 70.58C768.497 69.0867 759.724 62.32 759.724 50.28C759.724 43.3733 762.43 37.96 767.844 34.04C773.257 30.12 780.024 28.1133 788.144 28.02Z" fill="white"/>
<path d="M72.2691 99V100H73.2691V99H72.2691ZM60.3691 99L59.3739 99.0981L59.4628 100H60.3691V99ZM59.3891 89.06L60.3842 88.9619L60.1415 86.4998L58.6052 88.439L59.3891 89.06ZM11.6491 89.48L10.9177 90.162L10.9226 90.1672L11.6491 89.48ZM11.6491 38.52L10.918 37.8377L10.9177 37.838L11.6491 38.52ZM59.3891 38.94L58.6013 39.556L60.1393 41.5226L60.3842 39.0381L59.3891 38.94ZM60.3691 29V28H59.4628L59.3739 28.9019L60.3691 29ZM72.2691 29H73.2691V28H72.2691V29ZM50.4291 77.44L49.7407 76.7145L49.7314 76.7235L50.4291 77.44ZM50.4291 50.56L49.722 51.2671L49.7313 51.2764L49.7408 51.2855L50.4291 50.56ZM25.0891 50.56L25.7867 51.2765L25.7869 51.2762L25.0891 50.56ZM25.0891 77.44L25.7867 76.7235L25.0891 77.44ZM72.2691 98H60.3691V100H72.2691V98ZM61.3642 98.9019L60.3842 88.9619L58.3939 89.1581L59.3739 99.0981L61.3642 98.9019ZM58.6052 88.439C53.1161 95.3679 45.6678 98.84 36.1491 98.84V100.84C46.2303 100.84 54.2753 97.1254 60.1729 89.681L58.6052 88.439ZM36.1491 98.84C26.6144 98.84 18.7135 95.493 12.3755 88.7928L10.9226 90.1672C17.6513 97.2804 26.0838 100.84 36.1491 100.84V98.84ZM12.3804 88.798C6.12542 82.0897 2.98906 73.8456 2.98906 64H0.989063C0.989063 74.3144 4.29271 83.0569 10.9177 90.162L12.3804 88.798ZM2.98906 64C2.98906 54.1544 6.12542 45.9103 12.3804 39.202L10.9177 37.838C4.29271 44.9431 0.989063 53.6856 0.989063 64H2.98906ZM12.3801 39.2023C18.7194 32.4103 26.6189 29.02 36.1491 29.02V27.02C26.0793 27.02 17.6454 30.6297 10.918 37.8377L12.3801 39.2023ZM36.1491 29.02C45.6629 29.02 53.1104 32.5348 58.6013 39.556L60.1768 38.324C54.2811 30.7852 46.2352 27.02 36.1491 27.02V29.02ZM60.3842 39.0381L61.3642 29.0981L59.3739 28.9019L58.3939 38.8419L60.3842 39.0381ZM60.3691 30L72.2691 30V28L60.3691 28V30ZM71.2691 29L71.2691 99H73.2691L73.2691 29L71.2691 29ZM37.8291 83.62C42.9487 83.62 47.3975 81.7876 51.1267 78.1565L49.7314 76.7235C46.3673 79.9991 42.416 81.62 37.8291 81.62V83.62ZM51.1173 78.1655C54.9769 74.5038 56.8891 69.7514 56.8891 64H54.8891C54.8891 69.262 53.1612 73.4695 49.7408 76.7145L51.1173 78.1655ZM56.8891 64C56.8891 58.2486 54.9769 53.4962 51.1173 49.8345L49.7408 51.2855C53.1612 54.5305 54.8891 58.738 54.8891 64H56.8891ZM51.1362 49.8529C47.409 46.1257 42.9574 44.24 37.8291 44.24V46.24C42.4074 46.24 46.3558 47.901 49.722 51.2671L51.1362 49.8529ZM37.8291 44.24C32.7017 44.24 28.2082 46.1247 24.3912 49.8438L25.7869 51.2762C29.25 47.902 33.2498 46.24 37.8291 46.24V44.24ZM24.3914 49.8435C20.6288 53.5072 18.7691 58.2569 18.7691 64H20.7691C20.7691 58.7298 22.456 54.5195 25.7867 51.2765L24.3914 49.8435ZM18.7691 64C18.7691 69.7431 20.6288 74.4928 24.3914 78.1565L25.7867 76.7235C22.456 73.4805 20.7691 69.2702 20.7691 64H18.7691ZM24.3914 78.1565C28.1247 81.7915 32.6216 83.62 37.8291 83.62V81.62C33.1432 81.62 29.1468 79.9952 25.7867 76.7235L24.3914 78.1565ZM162.23 99V100H163.23V99H162.23ZM150.33 99L149.335 99.0981L149.424 100H150.33V99ZM149.35 89.06L150.345 88.9619L150.102 86.4998L148.566 88.439L149.35 89.06ZM101.61 89.48L100.879 90.162L100.884 90.1672L101.61 89.48ZM101.61 38.52L100.879 37.8377L100.879 37.838L101.61 38.52ZM144.45 35.86L143.697 36.5185L145.45 38.5214V35.86H144.45ZM144.45 0.999993V-6.67572e-06H143.45V0.999993H144.45ZM162.23 0.999993H163.23V-6.67572e-06H162.23V0.999993ZM140.39 77.44L139.702 76.7145L139.692 76.7235L140.39 77.44ZM140.39 50.56L139.683 51.2671L139.692 51.2764L139.702 51.2855L140.39 50.56ZM115.05 50.56L115.748 51.2765L115.748 51.2762L115.05 50.56ZM115.05 77.44L115.748 76.7235L115.05 77.44ZM162.23 98H150.33L150.33 100H162.23L162.23 98ZM151.325 98.9019L150.345 88.9619L148.355 89.1581L149.335 99.0981L151.325 98.9019ZM148.566 88.439C143.077 95.3679 135.629 98.84 126.11 98.84V100.84C136.191 100.84 144.236 97.1254 150.134 89.681L148.566 88.439ZM126.11 98.84C116.575 98.84 108.674 95.493 102.336 88.7928L100.884 90.1672C107.612 97.2804 116.045 100.84 126.11 100.84V98.84ZM102.341 88.798C96.0864 82.0897 92.95 73.8456 92.95 64H90.95C90.95 74.3144 94.2536 83.0569 100.879 90.162L102.341 88.798ZM92.95 64C92.95 54.1544 96.0864 45.9103 102.341 39.202L100.879 37.838C94.2536 44.9431 90.95 53.6856 90.95 64H92.95ZM102.341 39.2023C108.68 32.4103 116.58 29.02 126.11 29.02V27.02C116.04 27.02 107.606 30.6297 100.879 37.8377L102.341 39.2023ZM126.11 29.02C133.508 29.02 139.335 31.5325 143.697 36.5185L145.203 35.2015C140.419 29.7341 134.019 27.02 126.11 27.02V29.02ZM145.45 35.86V0.999993H143.45V35.86H145.45ZM144.45 1.99999L162.23 1.99999V-6.67572e-06L144.45 -6.67572e-06V1.99999ZM161.23 0.999993L161.23 99H163.23L163.23 0.999993H161.23ZM127.79 83.62C132.91 83.62 137.358 81.7876 141.088 78.1565L139.692 76.7235C136.328 79.9991 132.377 81.62 127.79 81.62V83.62ZM141.078 78.1655C144.938 74.5038 146.85 69.7514 146.85 64H144.85C144.85 69.262 143.122 73.4695 139.702 76.7145L141.078 78.1655ZM146.85 64C146.85 58.2486 144.938 53.4962 141.078 49.8345L139.702 51.2855C143.122 54.5305 144.85 58.738 144.85 64H146.85ZM141.097 49.8529C137.37 46.1257 132.918 44.24 127.79 44.24V46.24C132.368 46.24 136.317 47.901 139.683 51.2671L141.097 49.8529ZM127.79 44.24C122.663 44.24 118.169 46.1247 114.352 49.8438L115.748 51.2762C119.211 47.902 123.211 46.24 127.79 46.24V44.24ZM114.352 49.8435C110.59 53.5072 108.73 58.2569 108.73 64H110.73C110.73 58.7298 112.417 54.5195 115.748 51.2765L114.352 49.8435ZM108.73 64C108.73 69.7431 110.59 74.4928 114.352 78.1565L115.748 76.7235C112.417 73.4805 110.73 69.2702 110.73 64H108.73ZM114.352 78.1565C118.086 81.7915 122.583 83.62 127.79 83.62V81.62C123.104 81.62 119.108 79.9952 115.748 76.7235L114.352 78.1565ZM222.651 99V100H223.29L223.559 99.4194L222.651 99ZM211.171 99L210.263 99.4194L210.531 100H211.171V99ZM178.831 29V28H177.267L177.923 29.4194L178.831 29ZM197.731 29L198.647 28.599L198.385 28H197.731V29ZM216.911 72.82L215.995 73.221L216.908 75.3063L217.826 73.2234L216.911 72.82ZM236.231 29V28H235.579L235.316 28.5966L236.231 29ZM254.991 29L255.899 29.4194L256.555 28H254.991V29ZM222.651 98L211.171 98L211.171 100L222.651 100L222.651 98ZM212.079 98.5806L179.739 28.5806L177.923 29.4194L210.263 99.4194L212.079 98.5806ZM178.831 30L197.731 30V28L178.831 28V30ZM196.815 29.401L215.995 73.221L217.827 72.419L198.647 28.599L196.815 29.401ZM217.826 73.2234L237.146 29.4034L235.316 28.5966L215.996 72.4166L217.826 73.2234ZM236.231 30L254.991 30V28L236.231 28V30ZM254.083 28.5806L221.743 98.5806L223.559 99.4194L255.899 29.4194L254.083 28.5806ZM335.453 99V100H336.453V99H335.453ZM323.553 99L322.557 99.0981L322.646 100H323.553V99ZM322.573 89.06L323.568 88.9619L323.325 86.4998L321.789 88.439L322.573 89.06ZM274.833 89.48L274.101 90.162L274.106 90.1672L274.833 89.48ZM274.833 38.52L274.102 37.8377L274.101 37.838L274.833 38.52ZM322.573 38.94L321.785 39.556L323.323 41.5226L323.568 39.0381L322.573 38.94ZM323.553 29V28H322.646L322.557 28.9019L323.553 29ZM335.453 29H336.453V28H335.453V29ZM313.613 77.44L312.924 76.7145L312.915 76.7235L313.613 77.44ZM313.613 50.56L312.906 51.2671L312.915 51.2764L312.924 51.2855L313.613 50.56ZM288.273 50.56L288.97 51.2765L288.971 51.2762L288.273 50.56ZM288.273 77.44L288.97 76.7235L288.273 77.44ZM335.453 98H323.553V100H335.453V98ZM324.548 98.9019L323.568 88.9619L321.577 89.1581L322.557 99.0981L324.548 98.9019ZM321.789 88.439C316.3 95.3679 308.851 98.84 299.333 98.84V100.84C309.414 100.84 317.459 97.1254 323.357 89.681L321.789 88.439ZM299.333 98.84C289.798 98.84 281.897 95.493 275.559 88.7928L274.106 90.1672C280.835 97.2804 289.267 100.84 299.333 100.84V98.84ZM275.564 88.798C269.309 82.0897 266.173 73.8456 266.173 64H264.173C264.173 74.3144 267.476 83.0569 274.101 90.162L275.564 88.798ZM266.173 64C266.173 54.1544 269.309 45.9103 275.564 39.202L274.101 37.838C267.476 44.9431 264.173 53.6856 264.173 64H266.173ZM275.564 39.2023C281.903 32.4103 289.802 29.02 299.333 29.02V27.02C289.263 27.02 280.829 30.6297 274.102 37.8377L275.564 39.2023ZM299.333 29.02C308.846 29.02 316.294 32.5348 321.785 39.556L323.36 38.324C317.465 30.7852 309.419 27.02 299.333 27.02V29.02ZM323.568 39.0381L324.548 29.0981L322.557 28.9019L321.577 38.8419L323.568 39.0381ZM323.553 30H335.453V28H323.553V30ZM334.453 29V99H336.453V29H334.453ZM301.013 83.62C306.132 83.62 310.581 81.7876 314.31 78.1565L312.915 76.7235C309.551 79.9991 305.6 81.62 301.013 81.62V83.62ZM314.301 78.1655C318.16 74.5038 320.073 69.7514 320.073 64H318.073C318.073 69.262 316.345 73.4695 312.924 76.7145L314.301 78.1655ZM320.073 64C320.073 58.2486 318.16 53.4962 314.301 49.8345L312.924 51.2855C316.345 54.5305 318.073 58.738 318.073 64H320.073ZM314.32 49.8529C310.593 46.1257 306.141 44.24 301.013 44.24V46.24C305.591 46.24 309.539 47.901 312.906 51.2671L314.32 49.8529ZM301.013 44.24C295.885 44.24 291.392 46.1247 287.575 49.8438L288.971 51.2762C292.434 47.902 296.433 46.24 301.013 46.24V44.24ZM287.575 49.8435C283.812 53.5072 281.953 58.2569 281.953 64H283.953C283.953 58.7298 285.64 54.5195 288.97 51.2765L287.575 49.8435ZM281.953 64C281.953 69.7431 283.812 74.4928 287.575 78.1565L288.97 76.7235C285.64 73.4805 283.953 69.2702 283.953 64H281.953ZM287.575 78.1565C291.308 81.7915 295.805 83.62 301.013 83.62V81.62C296.327 81.62 292.33 79.9952 288.97 76.7235L287.575 78.1565ZM419.254 37.26L418.491 37.907L418.496 37.9127L419.254 37.26ZM427.094 99V100H428.094V99H427.094ZM409.314 99H408.314V100H409.314V99ZM381.454 50.14L382.193 50.8138L382.197 50.8084L382.202 50.803L381.454 50.14ZM377.114 99V100H378.114V99H377.114ZM359.334 99H358.334V100H359.334V99ZM359.334 29V28L358.334 28V29L359.334 29ZM371.234 29L372.227 28.8854L372.125 28H371.234V29ZM372.494 39.92L371.5 40.0346L371.833 42.9165L373.347 40.4419L372.494 39.92ZM396.574 29.02C406.245 29.02 413.497 32.0206 418.491 37.907L420.016 36.613C414.557 30.1794 406.689 27.02 396.574 27.02V29.02ZM418.496 37.9127C423.524 43.7484 426.094 51.7517 426.094 62.04H428.094C428.094 51.4216 425.437 42.9049 420.011 36.6073L418.496 37.9127ZM426.094 62.04V99H428.094V62.04H426.094ZM427.094 98H409.314V100H427.094V98ZM410.314 99V63.16H408.314V99H410.314ZM410.314 63.16C410.314 57.0647 408.995 52.3065 406.184 49.0648C403.349 45.7959 399.148 44.24 393.774 44.24V46.24C398.759 46.24 402.328 47.6707 404.673 50.3752C407.042 53.1068 408.314 57.3086 408.314 63.16H410.314ZM393.774 44.24C388.235 44.24 383.829 45.9498 380.705 49.477L382.202 50.803C384.865 47.7969 388.672 46.24 393.774 46.24V44.24ZM380.715 49.4662C377.584 52.8995 376.114 58.0434 376.114 64.7H378.114C378.114 58.29 379.536 53.7272 382.193 50.8138L380.715 49.4662ZM376.114 64.7V99H378.114V64.7H376.114ZM377.114 98H359.334V100H377.114V98ZM360.334 99V29L358.334 29V99H360.334ZM359.334 30H371.234V28H359.334V30ZM370.24 29.1146L371.5 40.0346L373.487 39.8054L372.227 28.8854L370.24 29.1146ZM373.347 40.4419C377.979 32.8701 385.639 29.02 396.574 29.02V27.02C385.108 27.02 376.715 31.1033 371.641 39.3981L373.347 40.4419ZM473.208 46.22V45.22H472.208V46.22H473.208ZM473.208 99V100H474.208V99H473.208ZM455.288 99H454.288V100H455.288V99ZM455.288 46.22H456.288V45.22H455.288V46.22ZM446.188 46.22H445.188V47.22H446.188V46.22ZM446.188 29V28H445.188V29H446.188ZM455.288 29V30H456.288V29H455.288ZM455.288 5.47999V4.47999H454.288V5.47999H455.288ZM473.208 5.47999H474.208V4.47999H473.208V5.47999ZM473.208 29H472.208V30H473.208V29ZM482.308 29H483.308V28H482.308V29ZM482.308 46.22V47.22H483.308V46.22H482.308ZM472.208 46.22V99H474.208V46.22H472.208ZM473.208 98H455.288V100H473.208V98ZM456.288 99V46.22H454.288V99H456.288ZM455.288 45.22H446.188V47.22H455.288V45.22ZM447.188 46.22V29L445.188 29V46.22H447.188ZM446.188 30L455.288 30V28L446.188 28V30ZM456.288 29V5.47999L454.288 5.47999V29H456.288ZM455.288 6.47999L473.208 6.47999V4.47999L455.288 4.47999V6.47999ZM472.208 5.47999V29H474.208V5.47999H472.208ZM473.208 30H482.308V28H473.208V30ZM481.308 29V46.22H483.308V29H481.308ZM482.308 45.22H473.208V47.22H482.308V45.22ZM566.781 99V100H567.781V99H566.781ZM554.881 99L553.886 99.0981L553.975 100H554.881V99ZM553.901 89.06L554.896 88.9619L554.653 86.4998L553.117 88.439L553.901 89.06ZM506.161 89.48L505.429 90.162L505.434 90.1672L506.161 89.48ZM506.161 38.52L505.43 37.8377L505.429 37.838L506.161 38.52ZM553.901 38.94L553.113 39.556L554.651 41.5226L554.896 39.0381L553.901 38.94ZM554.881 29V28H553.975L553.886 28.9019L554.881 29ZM566.781 29H567.781V28H566.781V29ZM544.941 77.44L544.252 76.7145L544.243 76.7235L544.941 77.44ZM544.941 50.56L544.234 51.2671L544.243 51.2764L544.253 51.2855L544.941 50.56ZM519.601 50.56L520.298 51.2765L520.299 51.2762L519.601 50.56ZM519.601 77.44L520.298 76.7235L519.601 77.44ZM566.781 98H554.881V100H566.781V98ZM555.876 98.9019L554.896 88.9619L552.906 89.1581L553.886 99.0981L555.876 98.9019ZM553.117 88.439C547.628 95.3679 540.18 98.84 530.661 98.84V100.84C540.742 100.84 548.787 97.1254 554.685 89.681L553.117 88.439ZM530.661 98.84C521.126 98.84 513.225 95.493 506.887 88.7928L505.434 90.1672C512.163 97.2804 520.595 100.84 530.661 100.84V98.84ZM506.892 88.798C500.637 82.0897 497.501 73.8456 497.501 64H495.501C495.501 74.3144 498.804 83.0569 505.429 90.162L506.892 88.798ZM497.501 64C497.501 54.1544 500.637 45.9103 506.892 39.202L505.429 37.838C498.804 44.9431 495.501 53.6856 495.501 64H497.501ZM506.892 39.2023C513.231 32.4103 521.131 29.02 530.661 29.02V27.02C520.591 27.02 512.157 30.6297 505.43 37.8377L506.892 39.2023ZM530.661 29.02C540.175 29.02 547.622 32.5348 553.113 39.556L554.688 38.324C548.793 30.7852 540.747 27.02 530.661 27.02V29.02ZM554.896 39.0381L555.876 29.0981L553.886 28.9019L552.906 38.8419L554.896 39.0381ZM554.881 30L566.781 30V28L554.881 28V30ZM565.781 29V99H567.781V29H565.781ZM532.341 83.62C537.46 83.62 541.909 81.7876 545.638 78.1565L544.243 76.7235C540.879 79.9991 536.928 81.62 532.341 81.62V83.62ZM545.629 78.1655C549.489 74.5038 551.401 69.7514 551.401 64H549.401C549.401 69.262 547.673 73.4695 544.253 76.7145L545.629 78.1655ZM551.401 64C551.401 58.2486 549.489 53.4962 545.629 49.8345L544.253 51.2855C547.673 54.5305 549.401 58.738 549.401 64H551.401ZM545.648 49.8529C541.921 46.1257 537.469 44.24 532.341 44.24V46.24C536.919 46.24 540.868 47.901 544.234 51.2671L545.648 49.8529ZM532.341 44.24C527.213 44.24 522.72 46.1247 518.903 49.8438L520.299 51.2762C523.762 47.902 527.761 46.24 532.341 46.24V44.24ZM518.903 49.8435C515.141 53.5072 513.281 58.2569 513.281 64H515.281C515.281 58.7298 516.968 54.5195 520.298 51.2765L518.903 49.8435ZM513.281 64C513.281 69.7431 515.141 74.4928 518.903 78.1565L520.298 76.7235C516.968 73.4805 515.281 69.2702 515.281 64H513.281ZM518.903 78.1565C522.636 81.7915 527.133 83.62 532.341 83.62V81.62C527.655 81.62 523.659 79.9952 520.298 76.7235L518.903 78.1565ZM595.422 38.38L594.695 37.6928L594.695 37.6931L595.422 38.38ZM643.162 38.8L642.378 39.421L643.911 41.3563L644.157 38.8995L643.162 38.8ZM644.142 29V28H643.237L643.147 28.9005L644.142 29ZM656.042 29H657.042V28H656.042V29ZM646.522 115.66L645.799 114.968L645.795 114.973L646.522 115.66ZM589.962 114.82L589.231 114.137L588.507 114.912L589.323 115.59L589.962 114.82ZM600.042 104.04L600.489 103.146L599.821 102.812L599.311 103.357L600.042 104.04ZM620.902 109.5V108.5H620.894L620.887 108.5L620.902 109.5ZM633.362 105.44L632.715 104.677L632.708 104.683L632.702 104.689L633.362 105.44ZM637.982 90.18H638.982V87.5898L637.241 89.508L637.982 90.18ZM595.422 87.52L594.695 88.2069L594.7 88.2121L595.422 87.52ZM608.862 50.28L608.183 49.5451L608.174 49.554L608.862 50.28ZM608.862 75.62L608.174 76.346L608.184 76.3552L608.194 76.3642L608.862 75.62ZM634.202 75.62L634.87 76.3643L634.88 76.3548L634.202 75.62ZM634.202 50.28L634.88 49.5452L634.202 50.28ZM596.148 39.0672C602.486 32.367 610.387 29.02 619.922 29.02V27.02C609.856 27.02 601.424 30.5796 594.695 37.6928L596.148 39.0672ZM619.922 29.02C629.44 29.02 636.889 32.4921 642.378 39.421L643.946 38.179C638.048 30.7346 630.003 27.02 619.922 27.02V29.02ZM644.157 38.8995L645.137 29.0995L643.147 28.9005L642.167 38.7005L644.157 38.8995ZM644.142 30L656.042 30V28L644.142 28V30ZM655.042 29V90.04H657.042V29H655.042ZM655.042 90.04C655.042 100.274 651.943 108.554 645.799 114.968L647.244 116.352C653.794 109.513 657.042 100.712 657.042 90.04H655.042ZM645.795 114.973C639.668 121.461 631.408 124.74 620.902 124.74V126.74C631.862 126.74 640.682 123.299 647.249 116.347L645.795 114.973ZM620.902 124.74C609.272 124.74 599.187 121.175 590.6 114.05L589.323 115.59C598.284 123.025 608.825 126.74 620.902 126.74V124.74ZM590.692 115.503L600.772 104.723L599.311 103.357L589.231 114.137L590.692 115.503ZM599.594 104.934C607.163 108.719 614.276 110.596 620.916 110.5L620.887 108.5C614.648 108.591 607.853 106.828 600.489 103.146L599.594 104.934ZM620.902 110.5C626.303 110.5 630.714 109.098 634.022 106.191L632.702 104.689C629.85 107.195 625.954 108.5 620.902 108.5V110.5ZM634.009 106.203C637.362 103.357 638.982 99.2683 638.982 94.1H636.982C636.982 98.8251 635.521 102.296 632.715 104.677L634.009 106.203ZM638.982 94.1V90.18H636.982V94.1H638.982ZM637.241 89.508C632.877 94.3175 627.137 96.74 619.922 96.74V98.74C627.64 98.74 633.94 96.1225 638.722 90.852L637.241 89.508ZM619.922 96.74C610.383 96.74 602.48 93.4362 596.143 86.8279L594.7 88.2121C601.43 95.2304 609.861 98.74 619.922 98.74V96.74ZM596.148 86.8331C589.887 80.2086 586.762 72.2889 586.762 63.02H584.762C584.762 72.7911 588.076 81.2048 594.695 88.2069L596.148 86.8331ZM586.762 63.02C586.762 53.6549 589.889 45.6894 596.148 39.0669L594.695 37.6931C588.075 44.6972 584.762 53.1584 584.762 63.02H586.762ZM621.602 44.24C616.491 44.24 612.004 46.0186 608.183 49.5452L609.54 51.0148C613 47.8214 617.005 46.24 621.602 46.24V44.24ZM608.174 49.554C604.417 53.1134 602.542 57.6277 602.542 63.02H604.542C604.542 58.1456 606.213 54.1666 609.549 51.006L608.174 49.554ZM602.542 63.02C602.542 68.3248 604.421 72.7905 608.174 76.346L609.549 74.894C606.209 71.7295 604.542 67.7952 604.542 63.02H602.542ZM608.194 76.3642C612.016 79.7942 616.5 81.52 621.602 81.52V79.52C616.997 79.52 612.988 77.9792 609.53 74.8758L608.194 76.3642ZM621.602 81.52C626.616 81.52 631.052 79.7906 634.87 76.3642L633.534 74.8758C630.072 77.9827 626.108 79.52 621.602 79.52V81.52ZM634.88 76.3548C638.729 72.8018 640.662 68.3336 640.662 63.02H638.662C638.662 67.7864 636.954 71.7182 633.523 74.8852L634.88 76.3548ZM640.662 63.02C640.662 57.619 638.733 53.1021 634.88 49.5452L633.523 51.0148C636.95 54.1779 638.662 58.1543 638.662 63.02H640.662ZM634.88 49.5452C631.064 46.0223 626.624 44.24 621.602 44.24V46.24C626.099 46.24 630.06 47.8177 633.523 51.0148L634.88 49.5452ZM740.862 46.92L739.951 47.3318L739.952 47.3338L740.862 46.92ZM743.242 58.12L742.243 58.1625L742.243 58.1634L743.242 58.12ZM741.982 68.9V69.9H742.688L742.924 69.2344L741.982 68.9ZM693.122 68.9V67.9H692.122V68.9H693.122ZM698.022 79.68L697.397 80.4609L697.408 80.4694L698.022 79.68ZM731.622 78.7L732.359 78.0238L731.843 77.4617L731.164 77.8109L731.622 78.7ZM741.002 88.92L741.598 89.7227L742.489 89.0612L741.739 88.2438L741.002 88.92ZM684.722 89.76L684.005 90.4572L684.01 90.4621L684.722 89.76ZM684.442 38.38L685.169 39.0669L685.173 39.062L684.442 38.38ZM698.582 48.32L697.922 47.5688L697.916 47.5739L697.911 47.579L698.582 48.32ZM693.822 57.7L692.823 57.6474L692.768 58.7H693.822V57.7ZM725.882 57.7V58.7H726.882V57.7H725.882ZM724.202 52.1L723.321 52.5722L723.343 52.6147L723.37 52.6547L724.202 52.1ZM710.062 29.02C717.34 29.02 723.426 30.564 728.369 33.5973C733.307 36.6277 737.174 41.1864 739.951 47.3318L741.773 46.5082C738.857 40.0536 734.743 35.1623 729.415 31.8927C724.091 28.626 717.624 27.02 710.062 27.02V29.02ZM739.952 47.3338C741.285 50.2678 742.06 53.8678 742.243 58.1625L744.241 58.0775C744.051 53.5989 743.239 49.7322 741.772 46.5062L739.952 47.3338ZM742.243 58.1634C742.426 62.376 742.01 65.8314 741.04 68.5656L742.924 69.2344C744.008 66.1819 744.431 62.4507 744.241 58.0766L742.243 58.1634ZM741.982 67.9H693.122V69.9H741.982V67.9ZM692.122 68.9C692.122 73.7448 693.869 77.6384 697.397 80.4609L698.647 78.8991C695.641 76.4949 694.122 73.2019 694.122 68.9H692.122ZM697.408 80.4694C700.971 83.2406 705.351 84.6 710.482 84.6V82.6C705.72 82.6 701.793 81.346 698.636 78.8906L697.408 80.4694ZM710.482 84.6C718.374 84.6 725.58 82.9347 732.08 79.5891L731.164 77.8109C724.971 80.9986 718.083 82.6 710.482 82.6V84.6ZM730.885 79.3762L740.265 89.5962L741.739 88.2438L732.359 78.0238L730.885 79.3762ZM740.406 88.1173C730.75 95.2901 720.781 98.84 710.482 98.84V100.84C721.276 100.84 731.654 97.1099 741.598 89.7227L740.406 88.1173ZM710.482 98.84C700.169 98.84 691.85 95.5641 685.434 89.0579L684.01 90.4621C690.847 97.3959 699.702 100.84 710.482 100.84V98.84ZM685.439 89.0628C679.011 82.4538 675.782 74.1253 675.782 64H673.782C673.782 74.5947 677.18 83.4396 684.005 90.4572L685.439 89.0628ZM675.782 64C675.782 53.9623 678.922 45.6762 685.169 39.0669L683.715 37.6931C677.082 44.7105 673.782 53.5044 673.782 64H675.782ZM685.173 39.062C691.399 32.3849 699.661 29.02 710.062 29.02V27.02C699.183 27.02 690.365 30.5618 683.711 37.698L685.173 39.062ZM710.062 43.26C705.276 43.26 701.206 44.683 697.922 47.5688L699.242 49.0712C702.118 46.5437 705.702 45.26 710.062 45.26V43.26ZM697.911 47.579C694.757 50.437 693.026 53.8008 692.823 57.6474L694.821 57.7526C694.992 54.5059 696.434 51.6164 699.254 49.061L697.911 47.579ZM693.822 58.7L725.882 58.7V56.7L693.822 56.7V58.7ZM726.882 57.7C726.882 55.4528 726.266 53.3925 725.034 51.5453L723.37 52.6547C724.379 54.1675 724.882 55.8405 724.882 57.7H726.882ZM725.083 51.6278C723.602 48.8626 721.593 46.7546 719.052 45.3454C716.516 43.9396 713.506 43.26 710.062 43.26V45.26C713.244 45.26 715.904 45.887 718.082 47.0946C720.254 48.2988 722.002 50.1107 723.321 52.5722L725.083 51.6278ZM788.144 28.02V27.0199L788.132 27.0201L788.144 28.02ZM805.784 31.52L805.376 32.4332L805.382 32.4358L805.784 31.52ZM818.384 41.04L819.065 41.7721L819.731 41.1526L819.177 40.4312L818.384 41.04ZM808.304 50.42L807.555 51.0826L808.234 51.8507L808.985 51.1521L808.304 50.42ZM799.484 44.54L799.084 45.4567L799.098 45.4628L799.112 45.4685L799.484 44.54ZM788.284 42.16V41.16H788.269L788.255 41.1604L788.284 42.16ZM780.444 44.12L779.917 43.2697L780.444 44.12ZM780.024 53.5L779.538 54.3742L779.548 54.3796L779.558 54.3849L780.024 53.5ZM789.124 55.46L789.241 54.4668L789.226 54.4651L789.21 54.4638L789.124 55.46ZM793.884 56.02L793.767 57.0131L793.79 57.0159L793.814 57.0175L793.884 56.02ZM812.084 93.68L812.708 94.4609L812.717 94.454L812.084 93.68ZM771.484 96.2L771.1 97.1236L771.112 97.1285L771.484 96.2ZM758.044 86.4L757.357 85.673L756.72 86.2744L757.233 86.9848L758.044 86.4ZM768.124 76.88L768.887 76.2341L768.205 75.4278L767.437 76.153L768.124 76.88ZM777.784 83.04L777.426 83.9739L777.435 83.9772L777.444 83.9804L777.784 83.04ZM799.204 73.1L798.722 73.9762H798.722L799.204 73.1ZM789.964 71L789.857 71.9943L789.867 71.9954L789.877 71.9962L789.964 71ZM786.044 70.58L786.15 69.5857L786.139 69.5845L786.129 69.5836L786.044 70.58ZM767.844 34.04L768.43 34.8499L767.844 34.04ZM788.144 29.02H789.264V27.02H788.144V29.02ZM789.264 29.02C794.912 29.02 800.279 30.1577 805.376 32.4331L806.191 30.6069C800.835 28.2156 795.189 27.02 789.264 27.02V29.02ZM805.382 32.4358C810.571 34.7116 814.627 37.7879 817.59 41.6488L819.177 40.4312C815.98 36.2655 811.637 32.9951 806.185 30.6042L805.382 32.4358ZM817.703 40.3079L807.622 49.6879L808.985 51.1521L819.065 41.7721L817.703 40.3079ZM809.053 49.7574C806.781 47.1891 803.699 45.1491 799.855 43.6115L799.112 45.4685C802.735 46.9175 805.533 48.7976 807.555 51.0826L809.053 49.7574ZM799.883 43.6233C796.152 41.9969 792.655 41.16 789.404 41.16V43.16C792.313 43.16 795.535 43.9097 799.084 45.4567L799.883 43.6233ZM789.404 41.16H788.284V43.16H789.404V41.16ZM788.255 41.1604C784.882 41.2568 782.077 41.9328 779.917 43.2697L780.97 44.9703C782.73 43.8805 785.152 43.2499 788.312 43.1596L788.255 41.1604ZM779.917 43.2697C777.689 44.6491 776.504 46.6373 776.504 49.16H778.504C778.504 47.3894 779.278 46.0175 780.97 44.9703L779.917 43.2697ZM776.504 49.16C776.504 50.2858 776.746 51.3169 777.269 52.2171C777.792 53.1184 778.564 53.8332 779.538 54.3742L780.509 52.6258C779.803 52.2335 779.315 51.7582 778.999 51.2129C778.681 50.6665 778.504 49.9942 778.504 49.16H776.504ZM779.558 54.3849C781.521 55.4182 784.729 56.0816 789.037 56.4562L789.21 54.4638C784.932 54.0917 782.073 53.4484 780.49 52.6151L779.558 54.3849ZM789.007 56.4531L793.767 57.0131L794.001 55.0268L789.241 54.4668L789.007 56.4531ZM793.814 57.0175C802.341 57.6168 808.575 59.7064 812.664 63.1545C816.714 66.5693 818.784 71.4221 818.784 77.86H820.784C820.784 70.9512 818.537 65.4907 813.953 61.6255C809.409 57.7936 802.693 55.6365 793.954 55.0225L793.814 57.0175ZM818.784 77.86C818.784 83.8915 816.364 88.8861 811.451 92.906L812.717 94.454C818.07 90.0739 820.784 84.5218 820.784 77.86H818.784ZM811.459 92.8991C806.549 96.827 799.977 98.84 791.644 98.84V100.84C800.297 100.84 807.352 98.7463 812.708 94.4609L811.459 92.8991ZM791.644 98.84H790.944V100.84H791.644V98.84ZM790.944 98.84C784.157 98.84 777.797 97.6483 771.855 95.2715L771.112 97.1285C777.304 99.605 783.917 100.84 790.944 100.84V98.84ZM771.867 95.2765C765.917 92.8049 761.61 89.6365 758.855 85.8152L757.233 86.9848C760.264 91.1902 764.917 94.5551 771.1 97.1235L771.867 95.2765ZM758.73 87.127L768.81 77.607L767.437 76.153L757.357 85.673L758.73 87.127ZM767.36 77.5259C769.562 80.1282 772.952 82.2603 777.426 83.9739L778.141 82.1061C773.842 80.4597 770.792 78.4851 768.887 76.2341L767.36 77.5259ZM777.444 83.9804C781.93 85.6031 786.385 86.42 790.804 86.42V84.42C786.636 84.42 782.411 83.6503 778.124 82.0996L777.444 83.9804ZM790.804 86.42H791.504V84.42H790.804V86.42ZM791.504 86.42C795.081 86.42 797.937 85.8415 799.926 84.5422C801.988 83.1945 803.004 81.1467 803.004 78.56H801.004C801.004 80.5466 800.269 81.9288 798.832 82.8678C797.321 83.8551 794.927 84.42 791.504 84.42V86.42ZM803.004 78.56C803.004 75.6798 801.949 73.4688 799.686 72.2238L798.722 73.9762C800.192 74.7846 801.004 76.2135 801.004 78.56H803.004ZM799.686 72.2238C797.626 71.0911 794.369 70.3793 790.05 70.0038L789.877 71.9962C794.145 72.3673 797.048 73.0555 798.722 73.9762L799.686 72.2238ZM790.07 70.0057L786.15 69.5857L785.937 71.5743L789.857 71.9943L790.07 70.0057ZM786.129 69.5836C777.444 68.8444 771.084 66.809 766.914 63.5932C762.797 60.4173 760.724 56.0209 760.724 50.28H758.724C758.724 56.5791 761.037 61.586 765.693 65.1768C770.297 68.7277 777.097 70.8222 785.959 71.5764L786.129 69.5836ZM760.724 50.28C760.724 43.6813 763.287 38.5746 768.43 34.8499L767.257 33.2301C761.574 37.3454 758.724 43.0653 758.724 50.28H760.724ZM768.43 34.8499C773.643 31.0752 780.197 29.1114 788.155 29.0199L788.132 27.0201C779.851 27.1152 772.871 29.1647 767.257 33.2301L768.43 34.8499Z" fill="#E9F0FF"/>
</svg>
