<svg width="18" height="32" viewBox="0 0 18 32" fill="none" xmlns="http://www.w3.org/2000/svg">
<path d="M16.4356 0.583566L12.4107 0.577148C7.88894 0.577148 4.96677 3.55669 4.96677 8.16831V11.6683H0.919974C0.570283 11.6683 0.287109 11.9501 0.287109 12.2976V17.3688C0.287109 17.7163 0.570605 17.9977 0.919974 17.9977H4.96677V30.7939C4.96677 31.1414 5.24995 31.4228 5.59964 31.4228H10.8796C11.2293 31.4228 11.5124 31.1411 11.5124 30.7939V17.9977H16.2441C16.5938 17.9977 16.877 17.7163 16.877 17.3688L16.8789 12.2976C16.8789 12.1308 16.8121 11.971 16.6936 11.8529C16.5751 11.7348 16.4136 11.6683 16.2457 11.6683H11.5124V8.70133C11.5124 7.27525 11.8544 6.55131 13.7236 6.55131L16.4349 6.55034C16.7843 6.55034 17.0675 6.2686 17.0675 5.92138V1.21253C17.0675 0.865636 16.7846 0.584208 16.4356 0.583566Z" fill="url(#paint0_linear)"/>
<defs>
<linearGradient id="paint0_linear" x1="0.0393359" y1="20.5501" x2="17.3449" y2="20.4157" gradientUnits="userSpaceOnUse">
<stop stop-color="#5529CF"/>
<stop offset="1" stop-color="#9745FF"/>
</linearGradient>
</defs>
</svg>
