<svg width="121" height="84" viewBox="0 0 121 84" fill="none" xmlns="http://www.w3.org/2000/svg">
<path d="M21 3C12.7287 3 6 9.72865 6 18C6 20.8217 6.78404 23.561 8.27135 25.9396C7.67885 28.0154 6.60865 31.9419 6.59712 31.9829C6.54173 32.186 6.60115 32.4029 6.75288 32.5488C6.90462 32.6948 7.12385 32.7467 7.32346 32.6856L13.2692 30.8567C15.5983 32.2598 18.2654 33 21 33C29.2713 33 36 26.2713 36 18C36 9.72865 29.2713 3 21 3ZM21 31.8462C18.3929 31.8462 15.8533 31.1175 13.6552 29.7398C13.5623 29.6815 13.4556 29.6521 13.3488 29.6521C13.2917 29.6521 13.2346 29.6608 13.1792 29.6775L7.9875 31.2756C8.36885 29.8835 9.05423 27.3935 9.45173 26.0083C9.49788 25.8479 9.47192 25.6748 9.38135 25.5346C7.92404 23.2921 7.15385 20.6867 7.15385 18C7.15385 10.3656 13.3656 4.15385 21 4.15385C28.6344 4.15385 34.8462 10.3656 34.8462 18C34.8462 25.6344 28.6344 31.8462 21 31.8462Z" fill="#5529CF"/>
<path d="M30.7991 21.5342C29.7341 20.9429 28.8271 20.3498 28.1654 19.9171C27.66 19.5871 27.2948 19.3488 27.0271 19.2144C26.2789 18.8412 25.7117 19.1048 25.496 19.3229C25.4689 19.35 25.4446 19.3794 25.4239 19.4106C24.6467 20.5765 23.6319 21.6917 23.3348 21.7517C22.9916 21.6981 21.3848 20.7848 19.7879 19.455C18.1575 18.0963 17.1317 16.7954 16.9812 15.9092C18.0271 14.8327 18.4039 14.1554 18.4039 13.3846C18.4039 12.5902 16.5508 9.27346 16.2156 8.93827C15.8792 8.6025 15.1217 8.55 13.9639 8.78077C13.8525 8.80327 13.7498 8.85808 13.6691 8.93827C13.5289 9.07846 10.2485 12.4229 11.8073 16.4763C13.5185 20.925 17.9106 26.096 23.5102 26.936C24.1466 27.0312 24.7431 27.0785 25.3016 27.0785C28.5958 27.0785 30.54 25.421 31.0875 22.1331C31.1285 21.8925 31.0125 21.6525 30.7991 21.5342ZM23.6816 25.7948C17.76 24.9069 14.0302 19.0402 12.8844 16.0621C11.7479 13.1083 13.8439 10.4746 14.37 9.87923C14.7981 9.80654 15.2487 9.77596 15.4367 9.80539C15.8296 10.3517 17.19 12.9219 17.25 13.3846C17.25 13.6875 17.1514 14.1092 15.9767 15.2844C15.8683 15.3923 15.8077 15.5388 15.8077 15.6923C15.8077 18.7131 22.1792 22.9038 23.3077 22.9038C24.2891 22.9038 25.5687 21.2544 26.2973 20.1796C26.3394 20.1813 26.4104 20.1958 26.5114 20.2465C26.7191 20.351 27.0791 20.5858 27.5342 20.8835C28.1354 21.2763 28.9339 21.7979 29.8766 22.3385C29.4485 24.3981 28.2519 26.4813 23.6816 25.7948Z" fill="#5529CF"/>
<path d="M65.1256 3H58.8744C52.3269 3 47 8.32563 47 14.8719V20.5031C47 25.3781 49.9956 29.7594 54.5 31.5438V35.1944C54.5 35.4419 54.6456 35.6656 54.8719 35.7656C54.9531 35.8019 55.0394 35.8194 55.125 35.8194C55.2769 35.8194 55.4275 35.7638 55.5444 35.6575L59.1688 32.375H65.1256C71.6731 32.375 77 27.0494 77 20.5031V14.8719C77 8.32563 71.6731 3 65.1256 3ZM75.75 20.5031C75.75 26.36 70.9844 31.125 65.1256 31.125H58.9275C58.7725 31.125 58.6231 31.1825 58.5081 31.2869L55.75 33.785V31.1106C55.75 30.8456 55.5831 30.6094 55.3331 30.5219C51.0969 29.0238 48.25 24.9975 48.25 20.5031V14.8719C48.25 9.015 53.0163 4.25 58.8744 4.25H65.1256C70.9844 4.25 75.75 9.015 75.75 14.8719V20.5031V20.5031Z" fill="#5529CF"/>
<path d="M70.26 22.0581L66.4188 19.5631C65.9988 19.29 65.4988 19.1975 65.0094 19.2987C64.5194 19.4019 64.0981 19.6912 63.825 20.1131L63.6444 20.3906C61.9819 19.8412 60.1488 19.1394 59.0513 15.9625L59.5056 15.5675C60.2856 14.8894 60.3675 13.7031 59.6894 12.9219L56.6844 9.46498C56.4581 9.20436 56.0631 9.17748 55.8025 9.40311L53.9156 11.0431C52.2606 12.4819 53.0338 14.61 53.2881 15.3094C53.2994 15.3406 53.3131 15.3706 53.3294 15.4C53.395 15.5175 54.9619 18.3137 57.4925 20.8912C60.0331 23.4794 64.62 25.8694 64.7606 25.9387C65.2844 26.2787 65.8738 26.4419 66.4569 26.4419C67.4806 26.4419 68.4844 25.94 69.0831 25.02L70.4444 22.9237C70.6319 22.6331 70.5494 22.2462 70.26 22.0581ZM68.0344 24.3387C67.4713 25.2062 66.3075 25.4525 65.3888 24.86C65.3431 24.8362 60.7863 22.4631 58.3844 20.0162C56.1394 17.7294 54.6488 15.1887 54.4456 14.8344C53.9506 13.4462 54.0381 12.5931 54.7356 11.9869L56.1513 10.7569L58.7463 13.7419C58.9769 14.0069 58.95 14.3944 58.6863 14.6237L57.9194 15.29C57.7325 15.4525 57.6588 15.7094 57.7319 15.9456C59.0394 20.1944 61.5819 21.0287 63.4381 21.6381L63.7088 21.7275C63.9794 21.8187 64.2756 21.7144 64.4306 21.4756L64.8738 20.7931C64.965 20.6519 65.105 20.5562 65.2675 20.5219C65.4306 20.4869 65.5969 20.5194 65.7381 20.6112L69.0556 22.7656L68.0344 24.3387Z" fill="#5529CF"/>
<path d="M63.4269 13.1544C63.0944 13.0587 62.7487 13.2519 62.6544 13.5844C62.56 13.9162 62.7525 14.2619 63.0844 14.3562C64.0156 14.6212 64.7575 15.3644 65.02 16.2962C65.0975 16.5712 65.3481 16.7519 65.6212 16.7519C65.6775 16.7519 65.7344 16.7444 65.7912 16.7287C66.1231 16.635 66.3169 16.29 66.2231 15.9575C65.8437 14.6112 64.7719 13.5369 63.4269 13.1544Z" fill="#5529CF"/>
<path d="M68.1831 16.8868C68.2394 16.8868 68.2963 16.8793 68.3531 16.8637C68.6856 16.7699 68.8788 16.4243 68.785 16.0924C68.0475 13.4781 65.9669 11.3931 63.3544 10.6493C63.0225 10.5537 62.6769 10.7481 62.5825 11.0799C62.4881 11.4118 62.6806 11.7574 63.0125 11.8518C65.2106 12.4768 66.9613 14.2324 67.5819 16.4318C67.66 16.7068 67.91 16.8868 68.1831 16.8868Z" fill="#5529CF"/>
<path d="M63.085 7.73871C62.7525 7.64308 62.4069 7.83621 62.3125 8.16933C62.2181 8.50121 62.4106 8.84683 62.7425 8.94121C66.4669 10.0006 69.4338 12.9743 70.485 16.7012C70.5625 16.9762 70.8131 17.1568 71.0863 17.1568C71.1425 17.1568 71.1994 17.1493 71.2563 17.1337C71.5881 17.04 71.7819 16.6943 71.6881 16.3625C70.52 12.2206 67.2238 8.91683 63.085 7.73871Z" fill="#5529CF"/>
<path d="M114.992 3.58082C114.994 3.56882 114.998 3.55682 114.999 3.54481C115.002 3.5078 114.998 3.47029 114.994 3.43278C114.993 3.42328 114.994 3.41428 114.993 3.40478C114.984 3.35526 114.967 3.30675 114.943 3.26024C114.939 3.25223 114.933 3.24473 114.929 3.23673C114.928 3.23573 114.928 3.23423 114.927 3.23273C114.927 3.23173 114.925 3.23123 114.925 3.22973C114.921 3.22423 114.918 3.21823 114.915 3.21322C114.884 3.16771 114.846 3.1302 114.804 3.09819C114.795 3.09119 114.784 3.08719 114.774 3.08069C114.737 3.05618 114.698 3.03618 114.656 3.02267C114.638 3.01667 114.619 3.01367 114.6 3.01017C114.564 3.00267 114.527 2.99917 114.489 3.00017C114.469 3.00067 114.45 3.00167 114.43 3.00467C114.417 3.00667 114.405 3.00467 114.392 3.00767L85.3985 9.00727C85.1922 9.05028 85.0344 9.21783 85.0049 9.42688C84.9755 9.63594 85.0799 9.84099 85.2662 9.93952L93.5736 14.3272L95.0307 22.4228C95.0297 22.4288 95.0312 22.4354 95.0307 22.4414C95.0257 22.4814 95.0252 22.5204 95.0302 22.5599C95.0327 22.5799 95.0351 22.5989 95.0401 22.6184C95.0516 22.6659 95.0701 22.7104 95.0951 22.7524C95.1001 22.7604 95.1001 22.7699 95.1056 22.7779C95.1071 22.7804 95.1096 22.7824 95.1116 22.7844C95.1181 22.7939 95.1271 22.8014 95.1345 22.8109C95.158 22.84 95.1825 22.8665 95.2105 22.889C95.215 22.8925 95.218 22.898 95.223 22.9015C95.2304 22.907 95.2389 22.9085 95.2464 22.9135C95.2769 22.9335 95.3084 22.95 95.3418 22.963C95.3553 22.968 95.3678 22.974 95.3818 22.978C95.4267 22.991 95.4732 23 95.5202 23C95.5207 23 95.5212 23 95.5216 23C95.5236 23 95.5256 22.999 95.5276 22.999C95.5361 22.9995 95.5446 23 95.5531 23C95.6915 23 95.8163 22.938 95.9088 22.8425L101.443 19.1485L107.237 22.9195C107.319 22.9725 107.413 23 107.509 23C107.561 23 107.615 22.9915 107.666 22.9745C107.81 22.9265 107.925 22.8155 107.977 22.6724L114.968 3.67285C114.975 3.65584 114.98 3.63834 114.985 3.62033C114.987 3.61283 114.987 3.60533 114.989 3.59833C114.99 3.59283 114.991 3.58682 114.992 3.58082ZM109.207 6.77317L97.2229 15.596C97.2034 15.6105 97.1879 15.6285 97.171 15.6455C97.1645 15.6515 97.158 15.6565 97.1525 15.663C97.142 15.6745 97.1325 15.686 97.123 15.6986C97.114 15.7106 97.107 15.7231 97.099 15.7356C97.0805 15.7656 97.0651 15.7966 97.0531 15.8296C97.0506 15.8361 97.0466 15.8411 97.0446 15.8476C97.0441 15.8496 97.0421 15.8506 97.0416 15.8526L95.668 20.3223L94.5796 14.2752L109.207 6.77317ZM96.4422 21.2845L97.8038 16.7813L99.9236 18.1612L100.53 18.5558L98.4701 19.9307L96.4422 21.2845ZM110.995 4.73213L94.0262 13.4349L86.9634 9.70495L110.995 4.73213ZM107.257 21.7397L99.562 16.7323L98.3967 15.9736L113.458 4.88467L107.257 21.7397Z" fill="#5529CF"/>
<path d="M21 46C12.7287 46 6 52.7287 6 61C6 63.8217 6.78404 66.561 8.27135 68.9396C7.67885 71.0154 6.60865 74.9419 6.59712 74.9829C6.54173 75.186 6.60115 75.4029 6.75288 75.5488C6.90462 75.6948 7.12385 75.7467 7.32346 75.6856L13.2692 73.8567C15.5983 75.2598 18.2654 76 21 76C29.2713 76 36 69.2713 36 61C36 52.7287 29.2713 46 21 46ZM21 74.8462C18.3929 74.8462 15.8533 74.1175 13.6552 72.7398C13.5623 72.6815 13.4556 72.6521 13.3488 72.6521C13.2917 72.6521 13.2346 72.6608 13.1792 72.6775L7.9875 74.2756C8.36885 72.8835 9.05423 70.3935 9.45173 69.0083C9.49788 68.8479 9.47192 68.6748 9.38135 68.5346C7.92404 66.2921 7.15385 63.6867 7.15385 61C7.15385 53.3656 13.3656 47.1538 21 47.1538C28.6344 47.1538 34.8462 53.3656 34.8462 61C34.8462 68.6344 28.6344 74.8462 21 74.8462Z" fill="white"/>
<path d="M30.799 64.5342C29.734 63.9429 28.8271 63.3498 28.1654 62.9171C27.66 62.5871 27.2948 62.3488 27.0271 62.2144C26.2788 61.8412 25.7117 62.1048 25.4959 62.3229C25.4688 62.35 25.4446 62.3794 25.4238 62.4106C24.6467 63.5765 23.6319 64.6917 23.3348 64.7517C22.9915 64.6981 21.3848 63.7848 19.7879 62.455C18.1575 61.0963 17.1317 59.7954 16.9811 58.9092C18.0271 57.8327 18.4038 57.1554 18.4038 56.3846C18.4038 55.5902 16.5508 52.2735 16.2156 51.9383C15.8792 51.6025 15.1217 51.55 13.9638 51.7808C13.8525 51.8033 13.7498 51.8581 13.669 51.9383C13.5288 52.0785 10.2484 55.4229 11.8073 59.4763C13.5184 63.925 17.9106 69.096 23.5102 69.936C24.1465 70.0312 24.7431 70.0785 25.3015 70.0785C28.5958 70.0785 30.54 68.421 31.0875 65.1331C31.1284 64.8925 31.0125 64.6525 30.799 64.5342ZM23.6815 68.7948C17.76 67.9069 14.0302 62.0402 12.8844 59.0621C11.7479 56.1083 13.8438 53.4746 14.37 52.8792C14.7981 52.8065 15.2486 52.776 15.4367 52.8054C15.8296 53.3517 17.19 55.9219 17.25 56.3846C17.25 56.6875 17.1513 57.1092 15.9767 58.2844C15.8683 58.3923 15.8077 58.5388 15.8077 58.6923C15.8077 61.7131 22.1792 65.9038 23.3077 65.9038C24.289 65.9038 25.5686 64.2544 26.2973 63.1796C26.3394 63.1813 26.4104 63.1958 26.5113 63.2465C26.719 63.351 27.079 63.5858 27.5342 63.8835C28.1354 64.2763 28.9338 64.7979 29.8765 65.3385C29.4484 67.3981 28.2519 69.4813 23.6815 68.7948Z" fill="white"/>
<path d="M114.992 46.5801C114.994 46.5681 114.997 46.5561 114.998 46.5441C115.002 46.5071 114.998 46.4697 114.993 46.4322C114.992 46.4227 114.994 46.4137 114.992 46.4042C114.983 46.3548 114.967 46.3064 114.943 46.2599C114.939 46.2519 114.933 46.2444 114.929 46.2364C114.928 46.2354 114.928 46.2339 114.927 46.2324C114.927 46.2314 114.925 46.2309 114.925 46.2294C114.921 46.2239 114.918 46.2179 114.915 46.2129C114.884 46.1675 114.846 46.13 114.804 46.0981C114.795 46.0911 114.784 46.0871 114.774 46.0806C114.737 46.0561 114.698 46.0361 114.656 46.0226C114.637 46.0167 114.619 46.0137 114.6 46.0102C114.563 46.0027 114.527 45.9992 114.489 46.0002C114.469 46.0007 114.45 46.0017 114.43 46.0047C114.417 46.0067 114.405 46.0047 114.392 46.0077L85.3985 51.9995C85.1922 52.0424 85.0344 52.2098 85.0049 52.4185C84.9755 52.6273 85.0799 52.8321 85.2662 52.9305L93.5736 57.3125L95.0306 65.3976C95.0296 65.4036 95.0311 65.4101 95.0306 65.4161C95.0256 65.4561 95.0251 65.495 95.0301 65.5345C95.0326 65.5545 95.0351 65.5734 95.0401 65.5929C95.0516 65.6404 95.07 65.6848 95.095 65.7268C95.1 65.7348 95.1 65.7443 95.1055 65.7523C95.107 65.7548 95.1095 65.7568 95.1115 65.7587C95.118 65.7682 95.127 65.7757 95.1345 65.7852C95.1579 65.8142 95.1824 65.8407 95.2104 65.8631C95.2149 65.8666 95.2179 65.8721 95.2229 65.8756C95.2304 65.8811 95.2389 65.8826 95.2464 65.8876C95.2768 65.9076 95.3083 65.9241 95.3418 65.9371C95.3552 65.9421 95.3677 65.9481 95.3817 65.952C95.4267 65.965 95.4731 65.974 95.5201 65.974C95.5206 65.974 95.5211 65.974 95.5216 65.974C95.5236 65.974 95.5256 65.973 95.5276 65.973C95.5361 65.9735 95.5445 65.974 95.553 65.974C95.6914 65.974 95.8163 65.9121 95.9087 65.8167L101.442 62.1275L107.236 65.8936C107.318 65.9466 107.413 65.974 107.509 65.974C107.561 65.974 107.615 65.9655 107.666 65.9486C107.81 65.9006 107.925 65.7897 107.977 65.6469L114.968 46.672C114.974 46.655 114.98 46.6375 114.984 46.6195C114.986 46.612 114.987 46.6045 114.988 46.5975C114.99 46.5921 114.991 46.5861 114.992 46.5801ZM109.207 49.7683L97.2228 58.5797C97.2033 58.5942 97.1878 58.6121 97.1709 58.6291C97.1644 58.6351 97.1579 58.6401 97.1524 58.6466C97.1419 58.6581 97.1324 58.6696 97.1229 58.6821C97.1139 58.694 97.1069 58.7065 97.0989 58.719C97.0805 58.749 97.065 58.78 97.053 58.8129C97.0505 58.8194 97.0465 58.8244 97.0445 58.8309C97.044 58.8329 97.042 58.8339 97.0415 58.8359L95.6679 63.2998L94.5795 57.2605L109.207 49.7683ZM96.4421 64.2608L97.8037 59.7634L99.9235 61.1415L100.53 61.5356L98.47 62.9087L96.4421 64.2608ZM110.995 47.7299L94.0261 56.4214L86.9634 52.6962L110.995 47.7299ZM107.256 64.7153L99.5619 59.7145L98.3966 58.9568L113.458 47.8822L107.256 64.7153Z" fill="white"/>
<path d="M65.1256 46H58.8744C52.3269 46 47 51.3256 47 57.8719V63.5031C47 68.3781 49.9956 72.7594 54.5 74.5437V78.1944C54.5 78.4419 54.6456 78.6656 54.8719 78.7656C54.9531 78.8019 55.0394 78.8194 55.125 78.8194C55.2769 78.8194 55.4275 78.7637 55.5444 78.6575L59.1688 75.375H65.1256C71.6731 75.375 77 70.0494 77 63.5031V57.8719C77 51.3256 71.6731 46 65.1256 46ZM75.75 63.5031C75.75 69.36 70.9844 74.125 65.1256 74.125H58.9275C58.7725 74.125 58.6231 74.1825 58.5081 74.2869L55.75 76.785V74.1106C55.75 73.8456 55.5831 73.6094 55.3331 73.5219C51.0969 72.0237 48.25 67.9975 48.25 63.5031V57.8719C48.25 52.015 53.0163 47.25 58.8744 47.25H65.1256C70.9844 47.25 75.75 52.015 75.75 57.8719V63.5031V63.5031Z" fill="white"/>
<path d="M70.26 65.0582L66.4188 62.5632C65.9988 62.29 65.4988 62.1975 65.0094 62.2988C64.5194 62.4019 64.0981 62.6913 63.825 63.1132L63.6444 63.3907C61.9819 62.8413 60.1488 62.1394 59.0513 58.9625L59.5056 58.5675C60.2856 57.8894 60.3675 56.7032 59.6894 55.9219L56.6844 52.465C56.4581 52.2044 56.0631 52.1775 55.8025 52.4032L53.9156 54.0432C52.2606 55.4819 53.0338 57.61 53.2881 58.3094C53.2994 58.3407 53.3131 58.3707 53.3294 58.4C53.395 58.5175 54.9619 61.3138 57.4925 63.8913C60.0331 66.4794 64.62 68.8694 64.7606 68.9388C65.2844 69.2788 65.8738 69.4419 66.4569 69.4419C67.4806 69.4419 68.4844 68.94 69.0831 68.02L70.4444 65.9238C70.6319 65.6332 70.5494 65.2463 70.26 65.0582ZM68.0344 67.3388C67.4713 68.2063 66.3075 68.4525 65.3888 67.86C65.3431 67.8363 60.7863 65.4632 58.3844 63.0163C56.1394 60.7294 54.6488 58.1888 54.4456 57.8344C53.9506 56.4463 54.0381 55.5932 54.7356 54.9869L56.1513 53.7569L58.7463 56.7419C58.9769 57.0069 58.95 57.3944 58.6863 57.6238L57.9194 58.29C57.7325 58.4525 57.6588 58.7094 57.7319 58.9457C59.0394 63.1944 61.5819 64.0288 63.4381 64.6382L63.7088 64.7275C63.9794 64.8188 64.2756 64.7144 64.4306 64.4757L64.8738 63.7932C64.965 63.6519 65.105 63.5563 65.2675 63.5219C65.4306 63.4869 65.5969 63.5194 65.7381 63.6113L69.0556 65.7657L68.0344 67.3388Z" fill="white"/>
<path d="M63.4269 56.1544C63.0944 56.0587 62.7487 56.2519 62.6544 56.5844C62.56 56.9162 62.7525 57.2619 63.0844 57.3562C64.0156 57.6212 64.7575 58.3644 65.02 59.2962C65.0975 59.5712 65.3481 59.7519 65.6212 59.7519C65.6775 59.7519 65.7344 59.7444 65.7912 59.7287C66.1231 59.635 66.3169 59.29 66.2231 58.9575C65.8437 57.6112 64.7719 56.5369 63.4269 56.1544Z" fill="white"/>
<path d="M68.1831 59.8869C68.2394 59.8869 68.2963 59.8794 68.3531 59.8638C68.6856 59.77 68.8788 59.4244 68.785 59.0925C68.0475 56.4781 65.9669 54.3931 63.3544 53.6494C63.0225 53.5538 62.6769 53.7481 62.5825 54.08C62.4881 54.4119 62.6806 54.7575 63.0125 54.8519C65.2106 55.4769 66.9613 57.2325 67.5819 59.4319C67.66 59.7069 67.91 59.8869 68.1831 59.8869Z" fill="white"/>
<path d="M63.085 50.7388C62.7525 50.6431 62.4069 50.8363 62.3125 51.1694C62.2181 51.5013 62.4106 51.8469 62.7425 51.9413C66.4669 53.0006 69.4338 55.9744 70.485 59.7013C70.5625 59.9763 70.8131 60.1569 71.0863 60.1569C71.1425 60.1569 71.1994 60.1494 71.2563 60.1338C71.5881 60.04 71.7819 59.6944 71.6881 59.3625C70.52 55.2206 67.2238 51.9169 63.085 50.7388Z" fill="white"/>
</svg>
