<svg width="38" height="24" viewBox="0 0 38 24" fill="none" xmlns="http://www.w3.org/2000/svg">
<path d="M32.9939 9.34267V4.68589H30.6656V9.34267H26.0088V11.6711H30.6656V16.3278H32.9939V11.6711H37.6507V9.34267H32.9939Z" fill="url(#paint0_linear)"/>
<path d="M12.0384 9.34267V13.9995H18.6254C17.6638 16.7097 15.0747 18.6562 12.0384 18.6562C8.18728 18.6562 5.05326 15.5222 5.05326 11.6711C5.05326 7.81991 8.18728 4.68589 12.0384 4.68589C13.7079 4.68589 15.3145 5.28429 16.5625 6.37165L19.622 2.86044C17.5264 1.03498 14.8348 0.0291138 12.0384 0.0291138C5.61906 0.0291138 0.396484 5.25169 0.396484 11.6711C0.396484 18.0904 5.61906 23.313 12.0384 23.313C18.4578 23.313 23.6804 18.0904 23.6804 11.6711V9.34267H12.0384Z" fill="url(#paint1_linear)"/>
<defs>
<linearGradient id="paint0_linear" x1="-0.1536" y1="15.1057" x2="38.249" y2="14.2282" gradientUnits="userSpaceOnUse">
<stop stop-color="#5529CF"/>
<stop offset="1" stop-color="#9745FF"/>
</linearGradient>
<linearGradient id="paint1_linear" x1="-0.1536" y1="15.1057" x2="38.249" y2="14.2282" gradientUnits="userSpaceOnUse">
<stop stop-color="#5529CF"/>
<stop offset="1" stop-color="#9745FF"/>
</linearGradient>
</defs>
</svg>
