<svg width="35" height="33" viewBox="0 0 35 33" fill="none" xmlns="http://www.w3.org/2000/svg">
<path d="M34.477 20.3782V32.7976H27.2725V21.2042C27.2725 18.2894 26.2337 16.3084 23.6269 16.3084C21.6333 16.3084 20.4573 17.6496 19.9323 18.9404C19.7433 19.4052 19.6859 20.0562 19.6859 20.6988V32.7962H12.4886C12.4886 32.7962 12.5852 13.1682 12.4886 11.1354H19.6874V14.2055C19.6776 14.2308 19.6566 14.2517 19.6468 14.2797H19.6874V14.2055C20.6491 12.73 22.3529 10.6271 26.1791 10.6271C30.928 10.6272 34.477 13.7226 34.477 20.3782ZM4.95232 0.691406C2.48976 0.691406 0.876953 2.30702 0.876953 4.43785C0.876953 6.51126 2.44219 8.18148 4.85992 8.18148H4.90335C7.42051 8.18148 8.98012 6.51126 8.98012 4.43785C8.93114 2.30702 7.42058 0.691406 4.95232 0.691406ZM1.30679 32.7976H8.507V11.134H1.30679V32.7976Z" fill="white"/>
</svg>
