<svg width="35" height="35" viewBox="0 0 35 35" fill="none" xmlns="http://www.w3.org/2000/svg">
<g clip-path="url(#clip0)">
<path d="M34.477 21.3782V33.7976H27.2725V22.2042C27.2725 19.2894 26.2337 17.3084 23.6269 17.3084C21.6333 17.3084 20.4573 18.6496 19.9323 19.9404C19.7433 20.4052 19.6859 21.0562 19.6859 21.6988V33.7962H12.4886C12.4886 33.7962 12.5852 14.1682 12.4886 12.1354H19.6874V15.2055C19.6776 15.2308 19.6566 15.2517 19.6468 15.2797H19.6874V15.2055C20.6491 13.73 22.3529 11.6271 26.1791 11.6271C30.928 11.6272 34.477 14.7226 34.477 21.3782ZM4.95232 1.69141C2.48976 1.69141 0.876953 3.30702 0.876953 5.43785C0.876953 7.51126 2.44219 9.18148 4.85992 9.18148H4.90335C7.42051 9.18148 8.98012 7.51126 8.98012 5.43785C8.93114 3.30702 7.42058 1.69141 4.95232 1.69141ZM1.30679 33.7976H8.507V12.134H1.30679V33.7976Z" fill="url(#paint0_linear)"/>
</g>
<defs>
<linearGradient id="paint0_linear" x1="0.380826" y1="22.4806" x2="35.0269" y2="21.9628" gradientUnits="userSpaceOnUse">
<stop stop-color="#5529CF"/>
<stop offset="1" stop-color="#9745FF"/>
</linearGradient>
<clipPath id="clip0">
<rect width="33.6" height="33.6" fill="white" transform="translate(0.876953 0.944336)"/>
</clipPath>
</defs>
</svg>
