<svg width="33" height="32" viewBox="0 0 33 32" fill="none" xmlns="http://www.w3.org/2000/svg">
<path d="M29.3553 0.25H3.99781C2.25449 0.25 0.828125 1.66753 0.828125 3.40007V28.6006C0.828125 30.3331 2.25449 31.7507 3.99781 31.7507H29.3553C31.0986 31.7507 32.525 30.3331 32.525 28.6006V3.40007C32.525 1.66753 31.0986 0.25 29.3553 0.25ZM16.6766 9.7002C20.1632 9.7002 23.0159 12.5353 23.0159 16.0003C23.0159 19.4654 20.1632 22.3005 16.6766 22.3005C13.1899 22.3005 10.3372 19.4654 10.3372 16.0003C10.3372 12.5353 13.1899 9.7002 16.6766 9.7002ZM4.79023 28.6006C4.31478 28.6006 3.99781 28.2856 3.99781 27.8131V14.4253H7.32598C7.1675 14.8978 7.1675 15.5278 7.1675 16.0003C7.1675 21.1979 11.4466 25.4505 16.6766 25.4505C21.9065 25.4505 26.1856 21.1979 26.1856 16.0003C26.1856 15.5278 26.1856 14.8978 26.0271 14.4253H29.3553V27.8131C29.3553 28.2856 29.0383 28.6006 28.5629 28.6006H4.79023ZM29.3553 7.33765C29.3553 7.81016 29.0383 8.12517 28.5629 8.12517H25.3932C24.9178 8.12517 24.6008 7.81016 24.6008 7.33765V4.18758C24.6008 3.71507 24.9178 3.40007 25.3932 3.40007H28.5629C29.0383 3.40007 29.3553 3.71507 29.3553 4.18758V7.33765Z" fill="url(#paint0_linear)"/>
<defs>
<linearGradient id="paint0_linear" x1="0.360099" y1="20.6471" x2="33.0444" y2="20.1774" gradientUnits="userSpaceOnUse">
<stop stop-color="#5529CF"/>
<stop offset="1" stop-color="#9745FF"/>
</linearGradient>
</defs>
</svg>
