<svg xmlns="http://www.w3.org/2000/svg" width="35" height="31"><g fill="#FFF"><path d="M33.41 16.767c-.478 0-.796.318-.796.795v10.341c0 .477-.319.795-.796.795H3.182c-.477 0-.796-.318-.796-.795v-10.34c0-.478-.318-.796-.795-.796-.477 0-.796.318-.796.795v10.341c0 1.352 1.035 2.386 2.387 2.386h28.636c1.352 0 2.387-1.034 2.387-2.386v-10.34c0-.478-.319-.796-.796-.796z"/><path d="M32.614 5.63H2.386C1.034 5.63 0 6.664 0 8.017v5.09c0 1.114.795 2.069 1.83 2.307l12.488 2.784v2.546c0 .477.318.795.796.795h4.772c.478 0 .796-.318.796-.795v-2.546l12.488-2.784A2.388 2.388 0 0 0 35 13.108V8.017c0-1.353-1.034-2.387-2.386-2.387zM19.09 19.948h-3.182v-3.181h3.182v3.181zm14.318-6.84c0 .397-.239.715-.636.795l-12.091 2.705v-.637c0-.477-.318-.795-.796-.795h-4.772c-.478 0-.796.318-.796.795v.637l-12.09-2.705c-.398-.08-.637-.398-.637-.795V8.017c0-.478.318-.796.795-.796h30.228c.477 0 .795.318.795.796v5.09zM21.477.062h-7.954c-1.353 0-2.387 1.034-2.387 2.386v.796c0 .477.319.795.796.795.477 0 .795-.318.795-.795v-.796c0-.477.318-.795.796-.795h7.954c.478 0 .796.318.796.795v.796c0 .477.318.795.795.795.477 0 .796-.318.796-.795v-.796c0-1.352-1.034-2.386-2.387-2.386z"/></g></svg>