<svg xmlns="http://www.w3.org/2000/svg" width="38" height="36"><g fill="#FFF"><path d="M16.5 29c-1.93 0-3.5 1.57-3.5 3.5s1.57 3.5 3.5 3.5 3.5-1.57 3.5-3.5-1.57-3.5-3.5-3.5zm0 5.046a1.548 1.548 0 0 1-1.546-1.546c0-.853.694-1.546 1.546-1.546.852 0 1.546.694 1.546 1.546 0 .852-.694 1.546-1.546 1.546zM28.5 29c-1.93 0-3.5 1.57-3.5 3.5s1.57 3.5 3.5 3.5 3.5-1.57 3.5-3.5-1.57-3.5-3.5-3.5zm0 5.046a1.548 1.548 0 0 1-1.546-1.546c0-.853.694-1.546 1.546-1.546.852 0 1.546.694 1.546 1.546 0 .852-.694 1.546-1.546 1.546zM29.081 11H15.92c-.508 0-.919.448-.919 1s.411 1 .919 1h13.16c.508 0 .919-.448.919-1s-.411-1-.919-1zm-1.029 5H15.948c-.524 0-.948.448-.948 1s.424 1 .948 1h12.104c.524 0 .948-.448.948-1s-.424-1-.948-1z"/><path d="M37.58 6.734a1.858 1.858 0 0 0-1.446-.688H7.07l-.586-2.852A1.87 1.87 0 0 0 5.4 1.857L1.305.077A.934.934 0 0 0 .562 1.79l4.095 1.78L9.17 25.51A1.874 1.874 0 0 0 11 27h22.352a.934.934 0 0 0 0-1.868H11l-.55-2.669h23.075c.881 0 1.65-.627 1.827-1.49l2.61-12.682a1.862 1.862 0 0 0-.38-1.557zm-4.056 13.861H10.066l-2.61-12.68h28.678l-2.61 12.68z"/></g></svg>