<svg xmlns="http://www.w3.org/2000/svg" width="36" height="30"><g fill="#FFF" stroke="#FFF" stroke-width=".3"><path d="M20.079 22.299h-3.333a.556.556 0 0 0 0 1.111h3.333a.556.556 0 0 0 0-1.111z"/><path d="M35.812 25.021a.55.55 0 0 0-.01-.066l-.005-.014a.54.54 0 0 0-.015-.05l-.005-.016a.546.546 0 0 0-.025-.055l-.002-.004-3.083-5.804V3.881a.556.556 0 0 0-1.112 0v14.714H5.26V2.96c0-.919.748-1.666 1.667-1.666h22.042a.556.556 0 0 0 0-1.111H6.926A2.78 2.78 0 0 0 4.148 2.96v16.052l-3.08 5.799-.005.009a.547.547 0 0 0-.025.056l-.005.015a.543.543 0 0 0-.016.05c0 .005-.002.01-.003.014a.556.556 0 0 0-.014.122v1.11a2.78 2.78 0 0 0 2.778 2.779h29.259a2.78 2.78 0 0 0 2.778-2.778v-1.111a.552.552 0 0 0-.003-.056zM5.038 19.706h26.74l2.557 4.815H2.48l2.558-4.815zm27.999 8.148H3.777a1.669 1.669 0 0 1-1.666-1.666v-.556h32.593v.556c0 .919-.748 1.666-1.667 1.666z"/><path d="M32.296 1.123h1.622L20.658 12.34l-4.104-3.473a.63.63 0 0 0-.786 0l-9.235 7.814a.42.42 0 0 0 0 .664.61.61 0 0 0 .393.138.609.609 0 0 0 .393-.138l8.842-7.48 4.105 3.472a.63.63 0 0 0 .785 0l13.653-11.55v1.371c0 .26.248.47.555.47.307 0 .556-.21.556-.47V.653c0-.26-.249-.47-.556-.47h-2.963c-.307 0-.555.21-.555.47s.248.47.555.47z"/></g></svg>