<svg width="29" height="35" viewBox="0 0 29 35" fill="none" xmlns="http://www.w3.org/2000/svg">
<path d="M24.3616 25.5216H22.5177L22.5263 24.4505C22.5263 23.9745 22.9172 23.5851 23.3947 23.5851H23.5123C23.9909 23.5851 24.3829 23.9745 24.3829 24.4505L24.3616 25.5216ZM17.4453 23.2264C16.9775 23.2264 16.5948 23.5407 16.5948 23.9256V29.1347C16.5948 29.5189 16.9775 29.8325 17.4453 29.8325C17.9149 29.8325 18.2979 29.5189 18.2979 29.1347V23.9256C18.2979 23.5403 17.9149 23.2264 17.4453 23.2264ZM28.6777 20.3125V30.2223C28.6777 32.5993 26.6166 34.5443 24.0969 34.5443H5.25891C2.73853 34.5443 0.677734 32.5993 0.677734 30.2223V20.3125C0.677734 17.9355 2.73853 15.99 5.25891 15.99H24.0969C26.6166 15.99 28.6777 17.9355 28.6777 20.3125ZM6.51555 31.2982L6.51405 20.8594L8.84925 20.8602V19.3135L2.62429 19.3041V20.8247L4.56749 20.8303V31.2982H6.51555ZM13.5155 22.4144H11.5686V27.9886C11.5686 28.795 11.6175 29.1982 11.5656 29.3404C11.4073 29.7728 10.6958 30.232 10.4184 29.3871C10.3713 29.2393 10.4128 28.7931 10.412 28.0271L10.4042 22.4144H8.46808L8.47405 27.9389C8.47555 28.7857 8.45501 29.417 8.48077 29.7044C8.52819 30.2111 8.51139 30.8017 8.98141 31.1392C9.85725 31.7701 11.5361 31.0451 11.9561 30.1431L11.9524 31.2941L13.5159 31.296L13.5155 22.4144ZM19.7439 28.7976L19.7398 24.1582C19.7383 22.3901 18.4155 21.3313 16.6202 22.7619L16.628 19.3127L14.6833 19.3157L14.674 31.2213L16.2734 31.1981L16.419 30.4567C18.4622 32.3312 19.7469 31.0466 19.7439 28.7976ZM25.837 28.1827L24.3773 28.1906C24.3766 28.2484 24.3743 28.3153 24.3736 28.3881V29.2027C24.3736 29.6387 24.0133 29.9938 23.5758 29.9938H23.2898C22.8515 29.9938 22.4912 29.6387 22.4912 29.2027V27.0601H25.8341V25.802C25.8341 24.8825 25.8105 23.9633 25.7344 23.4377C25.4951 21.7748 23.161 21.5109 21.982 22.3621C21.612 22.6279 21.3294 22.9837 21.1651 23.4616C20.9994 23.9398 20.9169 24.5931 20.9169 25.4231V28.1895C20.9176 32.7882 26.5034 32.1382 25.837 28.1827ZM18.3487 13.1643C18.4491 13.4084 18.6052 13.6063 18.8169 13.7556C19.0259 13.9027 19.2933 13.9767 19.6136 13.9767C19.8943 13.9767 20.143 13.9009 20.3595 13.7444C20.5753 13.5888 20.7571 13.3562 20.9057 13.0459L20.8687 13.8098H23.0389V4.5806H21.3305V11.7635C21.3305 12.1525 21.0102 12.471 20.6186 12.471C20.2292 12.471 19.9078 12.1525 19.9078 11.7635V4.5806H18.1247V10.8056C18.1247 11.5985 18.1393 12.1272 18.1628 12.3952C18.1871 12.6614 18.2483 12.9168 18.3487 13.1643ZM11.7721 7.9518C11.7721 7.06588 11.846 6.3741 11.9927 5.87532C12.1406 5.37842 12.406 4.97895 12.7905 4.67767C13.1739 4.3749 13.6649 4.22332 14.2618 4.22332C14.764 4.22332 15.1941 4.32188 15.5532 4.5149C15.9142 4.70903 16.1927 4.96103 16.3857 5.27202C16.5825 5.58412 16.7161 5.90482 16.7874 6.23298C16.8602 6.56562 16.8961 7.06738 16.8961 7.74423V10.0783C16.8961 10.9344 16.8617 11.5642 16.7949 11.964C16.7288 12.365 16.587 12.7368 16.3671 13.0855C16.1505 13.4305 15.8709 13.6884 15.5319 13.8531C15.1892 14.0192 14.7972 14.1006 14.3544 14.1006C13.8598 14.1006 13.4431 14.0323 13.0997 13.8897C12.7551 13.7478 12.4889 13.5339 12.2992 13.2498C12.1077 12.9653 11.9729 12.6188 11.8915 12.2149C11.8098 11.8113 11.771 11.2043 11.771 10.3953L11.7721 7.9518ZM13.4719 11.6179C13.4719 12.1406 13.8609 12.5673 14.3346 12.5673C14.8088 12.5673 15.1963 12.1406 15.1963 11.6179V6.70487C15.1963 6.18295 14.8088 5.75623 14.3346 5.75623C13.8609 5.75623 13.4719 6.18295 13.4719 6.70487V11.6179ZM7.46568 14.0987H9.51304L9.51528 7.02034L11.9345 0.956656H9.69523L8.40909 5.46055L7.10467 0.944336H4.88856L7.46232 7.0237L7.46568 14.0987Z" fill="url(#paint0_linear)"/>
<defs>
<linearGradient id="paint0_linear" x1="0.264295" y1="22.7008" x2="29.1384" y2="22.3571" gradientUnits="userSpaceOnUse">
<stop stop-color="#5529CF"/>
<stop offset="1" stop-color="#9745FF"/>
</linearGradient>
</defs>
</svg>
