<svg width="31" height="26" viewBox="0 0 31 26" fill="none" xmlns="http://www.w3.org/2000/svg">
<path d="M11.846 25.2742C10.5408 25.2742 9.19743 25.1691 7.84595 24.9587C5.46569 24.5874 3.05605 23.3501 2.37419 22.9795L0.585938 22.0079L2.52207 21.3751C4.6384 20.6836 5.92598 20.2544 7.51959 19.5826C5.92377 18.8146 4.69398 17.4331 4.10198 15.6471L3.65148 14.2882L4.02094 14.3442C3.67058 13.9933 3.39416 13.6373 3.17969 13.3135C2.41728 12.1626 2.01356 10.7565 2.09949 9.5513L2.1842 8.36513L2.89862 8.64032C2.59724 8.07461 2.37933 7.47045 2.25129 6.83734C1.93937 5.293 2.20061 3.65255 2.98701 2.21771L3.60937 1.08215L4.4418 2.07586C7.07449 5.21879 10.4091 7.08333 14.3668 7.62909C14.2052 6.52176 14.3262 5.4531 14.7272 4.49516C15.1939 3.3798 16.0243 2.43402 17.1278 1.75979C18.3532 1.01134 19.8396 0.648555 21.3125 0.73834C22.8752 0.83372 24.2943 1.41574 25.4212 2.42234C25.9716 2.28024 26.3771 2.12841 26.9253 1.92354C27.255 1.80018 27.6289 1.66003 28.0968 1.49992L29.8211 0.909392L28.6966 4.10099C28.7708 4.09491 28.8472 4.08955 28.927 4.08615L30.7681 4.00342L29.6799 5.48157C29.6174 5.56625 29.6015 5.59034 29.5795 5.62343C29.4918 5.75482 29.3826 5.91808 27.8889 7.90039C27.5151 8.39676 27.3282 9.04326 27.363 9.72114C27.4955 12.2971 27.1774 14.6276 26.4172 16.6479C25.6984 18.5592 24.5842 20.1991 23.1064 21.522C21.2775 23.1588 18.9457 24.2793 16.1749 24.8523C14.8161 25.1334 13.3566 25.2742 11.846 25.2742Z" fill="url(#paint0_linear)"/>
<defs>
<linearGradient id="paint0_linear" x1="0.140276" y1="16.6209" x2="31.2595" y2="16.0745" gradientUnits="userSpaceOnUse">
<stop stop-color="#5529CF"/>
<stop offset="1" stop-color="#9745FF"/>
</linearGradient>
</defs>
</svg>
