<svg width="100" height="97" viewBox="0 0 100 97" fill="none" xmlns="http://www.w3.org/2000/svg">
<path d="M20.5855 49.5226L24.5973 45.5063L22.3654 43.2719C21.9515 42.8576 21.7854 42.2553 21.9284 41.6879C22.0713 41.1205 22.5017 40.6713 23.0619 40.5017L39.6812 35.5103C40.2679 35.3339 40.901 35.4953 41.3332 35.9279C41.7669 36.3606 41.9264 36.996 41.7504 37.5817L36.7645 54.2196C36.5966 54.7819 36.1464 55.2128 35.5796 55.3559C35.0146 55.4957 34.4113 55.3325 33.9974 54.9184L31.6474 52.564L27.6356 56.5821C27.3247 56.8948 26.9009 57.0695 26.4606 57.0695C26.0202 57.0695 25.5965 56.8948 25.2856 56.5821L20.5857 51.8752C19.9358 51.2248 19.9358 50.1732 20.5855 49.5226ZM26.4606 53.0532L30.1135 49.3945C30.5373 48.9702 31.0924 48.7589 31.6474 48.7589C32.2042 48.7589 32.7593 48.9718 33.1813 49.3928L34.3813 50.594L37.6803 39.5847L26.6832 42.8874L27.9696 44.1752C28.3237 44.5312 28.518 45.0039 28.518 45.5063C28.518 46.0105 28.3219 46.4863 27.9663 46.839L24.1106 50.6989L26.4606 53.0532Z" fill="url(#paint0_linear)"/>
<path d="M30.1984 13.8108H76.7328C77.6501 13.8108 78.3946 14.5562 78.3946 15.4746V23.7936C78.3946 24.7119 77.6501 25.4573 76.7328 25.4573H30.1984C29.281 25.4573 28.5365 24.7119 28.5365 23.7936V15.4746C28.5365 14.5562 29.281 13.8108 30.1984 13.8108ZM31.8602 22.1299H75.0709V17.1385H31.8602V22.1299Z" fill="url(#paint1_linear)"/>
<path d="M56.7892 32.1125H70.0848C71.0022 32.1125 71.7467 32.8579 71.7467 33.7762V40.4313C71.7467 41.3497 71.0022 42.0951 70.0848 42.0951H56.7892C55.8719 42.0951 55.1273 41.3497 55.1273 40.4313V33.7762C55.1273 32.8579 55.8719 32.1125 56.7892 32.1125ZM58.4513 38.7676H68.423V35.44H58.4513V38.7676Z" fill="url(#paint2_linear)"/>
<path d="M30.1984 13.8108H76.7328C77.6501 13.8108 78.3946 14.5562 78.3946 15.4746V47.0865C78.3946 48.0049 77.6501 48.7503 76.7328 48.7503H37.1684C36.6416 48.7503 36.1481 48.5025 35.8355 48.0797C35.5213 47.6572 35.4249 47.1115 35.5762 46.6073L37.6803 39.5847L30.6751 41.6892C30.1715 41.8407 29.6263 41.7442 29.206 41.4297C28.784 41.117 28.5363 40.6211 28.5363 40.0953L28.5365 15.4746C28.5365 14.5562 29.281 13.8108 30.1984 13.8108ZM31.8602 37.8593L39.6831 35.5101C40.2697 35.3336 40.9029 35.495 41.3351 35.9277C41.7688 36.3619 41.9283 36.9958 41.7522 37.5832L39.4023 45.423H75.0709V17.1385H31.8602L31.8602 37.8593Z" fill="url(#paint3_linear)"/>
<path d="M6.93267 0.500488H93.3505C97.0168 0.500488 99.9999 3.48712 99.9999 7.15735V62.0607C99.9999 62.9791 99.2554 63.7245 98.3381 63.7245H1.94528C1.02796 63.7245 0.283399 62.9791 0.283399 62.0607V7.15735C0.283205 3.48712 3.26633 0.500488 6.93267 0.500488ZM3.60716 60.397H96.676V7.15735C96.676 5.32048 95.1835 3.82814 93.3505 3.82814H6.93267C5.0996 3.82814 3.60716 5.32048 3.60716 7.15735V60.397Z" fill="#C6D9FF"/>
<path d="M1.94508 60.397H98.3381C99.2554 60.397 99.9999 61.1424 99.9999 62.0607V70.378C99.9999 74.0485 97.0168 77.0349 93.3505 77.0349H6.93267C3.26633 77.0349 0.283203 74.0485 0.283203 70.378L0.283399 62.0607C0.283399 61.1424 1.02777 60.397 1.94508 60.397ZM3.60716 70.3782C3.60716 72.2151 5.0996 73.7075 6.93267 73.7075H93.3505C95.1835 73.7075 96.676 72.2151 96.676 70.3782V63.7247H3.60697L3.60716 70.3782Z" fill="#C6D9FF"/>
<path d="M45.1557 67.0525H55.1274C56.0447 67.0525 56.7893 67.7979 56.7893 68.7162C56.7893 69.6346 56.0447 70.38 55.1274 70.38H45.1557C44.2384 70.38 43.4938 69.6346 43.4938 68.7162C43.4938 67.7979 44.2384 67.0525 45.1557 67.0525Z" fill="#C6D9FF"/>
<path d="M8.59307 7.15596H91.6902C92.6075 7.15596 93.3521 7.90135 93.3521 8.81968V62.0611C93.3521 62.9794 92.6075 63.7248 91.6902 63.7248H8.59287C7.67556 63.7248 6.93099 62.9794 6.93099 62.0611V8.81968C6.93099 7.90135 7.67556 7.15596 8.59307 7.15596ZM10.255 60.3972H90.0284V10.4834H10.255V60.3972Z" fill="#C6D9FF"/>
<path d="M28.5364 87.0176H71.7469C74.4957 87.0176 76.7327 89.2571 76.7327 92.009C76.7327 94.7609 74.4957 97.0004 71.7469 97.0004H28.5362C25.7874 97.0004 23.5504 94.7609 23.5504 92.009C23.5504 89.2571 25.7876 87.0176 28.5364 87.0176ZM28.5364 93.6727H71.7469C72.6642 93.6727 73.4087 92.9258 73.4087 92.009C73.4087 91.0922 72.6642 90.3453 71.7469 90.3453H28.5362C27.6189 90.3453 26.8743 91.0922 26.8743 92.009C26.8743 92.9258 27.6189 93.6727 28.5364 93.6727Z" fill="#C6D9FF"/>
<path d="M31.8603 87.0176C37.3747 87.0176 40.17 83.0994 40.17 75.3711C40.17 74.4528 40.9146 73.7074 41.8319 73.7074H58.4513C59.3686 73.7074 60.1132 74.4528 60.1132 75.3711C60.1132 83.0994 62.9086 87.0176 68.423 87.0176C69.3403 87.0176 70.0849 87.763 70.0849 88.6813C70.0849 89.5997 69.3403 90.345 68.423 90.345H31.8603C30.9429 90.345 30.1984 89.5997 30.1984 88.6813C30.1984 87.763 30.9429 87.0176 31.8603 87.0176ZM60.3278 87.0176C58.2819 84.7483 57.0771 81.369 56.8344 77.0348H43.4475C43.2065 81.369 42.0016 84.7483 39.9541 87.0176H60.3278Z" fill="#C6D9FF"/>
<defs>
<linearGradient id="paint0_linear" x1="-1.18918" y1="62.9854" x2="101.633" y2="61.4679" gradientUnits="userSpaceOnUse">
<stop stop-color="#5529CF"/>
<stop offset="1" stop-color="#9745FF"/>
</linearGradient>
<linearGradient id="paint1_linear" x1="-1.18918" y1="62.9854" x2="101.633" y2="61.4679" gradientUnits="userSpaceOnUse">
<stop stop-color="#5529CF"/>
<stop offset="1" stop-color="#9745FF"/>
</linearGradient>
<linearGradient id="paint2_linear" x1="-1.18918" y1="62.9854" x2="101.633" y2="61.4679" gradientUnits="userSpaceOnUse">
<stop stop-color="#5529CF"/>
<stop offset="1" stop-color="#9745FF"/>
</linearGradient>
<linearGradient id="paint3_linear" x1="-1.18918" y1="62.9854" x2="101.633" y2="61.4679" gradientUnits="userSpaceOnUse">
<stop stop-color="#5529CF"/>
<stop offset="1" stop-color="#9745FF"/>
</linearGradient>
</defs>
</svg>
