<svg width="93" height="93" viewBox="0 0 93 93" fill="none" xmlns="http://www.w3.org/2000/svg">
<path d="M54.7993 31.0992C55.2718 31.0992 55.7353 30.907 56.0693 30.5728C56.4035 30.2368 56.5959 29.7751 56.5959 29.3026C56.5959 28.8301 56.4037 28.3665 56.0693 28.0324C55.7353 27.6964 55.2718 27.506 54.7993 27.506C54.3248 27.506 53.8632 27.6964 53.5291 28.0324C53.1949 28.3665 53.0027 28.8283 53.0027 29.3026C53.0027 29.7751 53.1947 30.2386 53.5291 30.5728C53.8632 30.907 54.3268 31.0992 54.7993 31.0992Z" fill="white"/>
<path d="M11.6822 31.2197C12.0146 31.2197 12.3507 31.1275 12.6513 30.9346L17.9095 27.5584L17.9659 27.929C18.122 28.9506 18.7832 29.8014 19.7343 30.2053C20.6858 30.6096 21.7571 30.4939 22.6001 29.8968L24.6576 28.4401C24.8498 29.2096 25.341 29.8683 26.0331 30.2734C26.8011 30.7229 27.7203 30.8034 28.5554 30.4942L33.5428 28.6457C33.6307 29.1541 33.8517 29.636 34.1919 30.0418C34.7555 30.7136 35.5814 31.099 36.4584 31.099H47.6129C48.605 31.099 49.4095 30.2946 49.4095 29.3023C49.4095 28.3101 48.605 27.5057 47.6129 27.5057H37.119C37.0568 26.7217 36.6831 25.98 36.0651 25.4646C35.2532 24.7872 34.133 24.595 33.142 24.9622L28.0327 26.8557C27.8658 25.8476 27.2056 25.0102 26.2627 24.613C25.3135 24.2132 24.2453 24.3295 23.4044 24.9247L21.3626 26.3702L21.3137 26.0495C21.1617 25.0551 20.5237 24.2141 19.6069 23.8C18.6899 23.3857 17.6373 23.4628 16.7903 24.0066L10.7095 27.911C9.87459 28.4471 9.63241 29.5585 10.1683 30.3934C10.5117 30.9281 11.0907 31.2197 11.6822 31.2197Z" fill="white"/>
<path d="M11.6814 46.875C12.0138 46.875 12.3499 46.7828 12.6505 46.5901L17.9087 43.2138L17.9651 43.5843C18.1212 44.6059 18.7824 45.4567 19.7335 45.8606C20.685 46.2649 21.7563 46.1492 22.5993 45.5521L24.6568 44.0954C24.849 44.8649 25.3402 45.5236 26.0323 45.9287C26.8004 46.3782 27.7195 46.4587 28.5546 46.1495L33.542 44.301C33.6299 44.8094 33.8509 45.2913 34.1911 45.6971C34.7547 46.3689 35.5807 46.7541 36.4576 46.7541H54.7986C55.7907 46.7541 56.5952 45.9497 56.5952 44.9575C56.5952 43.9652 55.7907 43.1608 54.7986 43.1608H37.1184C37.056 42.3768 36.6823 41.6353 36.0645 41.1197C35.2524 40.4424 34.1324 40.2501 33.1412 40.6174L28.0321 42.511C27.8652 41.5029 27.205 40.6655 26.2619 40.2683C25.3129 39.8683 24.2441 39.9851 23.4038 40.58L21.362 42.0256L21.3131 41.7049C21.1611 40.7102 20.5231 39.8694 19.6061 39.4553C18.6891 39.0412 17.6365 39.1184 16.7897 39.6621L10.7089 43.5665C9.87399 44.1026 9.63181 45.214 10.1677 46.0489C10.5111 46.5834 11.0899 46.875 11.6814 46.875Z" fill="white"/>
<path d="M11.6822 62.5302C12.0146 62.5302 12.3507 62.4381 12.6513 62.2451L17.9095 58.8689L17.9661 59.2393C18.122 60.2609 18.7832 61.1118 19.7343 61.5155C20.6858 61.9197 21.7571 61.804 22.6001 61.207L24.6576 59.7505C24.8498 60.52 25.341 61.1788 26.0333 61.5838C26.8015 62.0331 27.7208 62.1132 28.5554 61.8044L33.5428 59.9558C33.6307 60.4643 33.8516 60.9461 34.1919 61.352C34.7555 62.0238 35.5814 62.4091 36.4584 62.4091H49.7688C50.7609 62.4091 51.5655 61.6048 51.5655 60.6125C51.5655 59.6202 50.7609 58.8159 49.7688 58.8159H37.119C37.0568 58.0318 36.6831 57.2902 36.0651 56.7747C35.2532 56.0974 34.133 55.905 33.142 56.2724L28.0327 58.1659C27.8658 57.1578 27.2056 56.3204 26.2625 55.9231C25.3135 55.5232 24.2447 55.6398 23.4044 56.2348L21.3626 57.6804L21.3137 57.3597C21.1617 56.3651 20.5237 55.5243 19.6067 55.1102C18.6897 54.6958 17.6367 54.7733 16.7903 55.3169L10.7095 59.2214C9.87459 59.7575 9.63241 60.8689 10.1683 61.7038C10.5117 62.2386 11.0907 62.5302 11.6822 62.5302Z" fill="white"/>
<path d="M37.6116 74.471H37.1192C37.0568 73.6869 36.6831 72.9453 36.0653 72.4298C35.253 71.7525 34.133 71.5601 33.142 71.9275L28.0327 73.821C27.8658 72.8129 27.2056 71.9755 26.2625 71.5782C25.3135 71.1785 24.2447 71.2949 23.4044 71.89L21.3626 73.3355L21.3137 73.0148C21.1617 72.0204 20.5237 71.1794 19.6069 70.7653C18.6899 70.351 17.6373 70.4282 16.7903 70.9719L10.7095 74.8763C9.87459 75.4124 9.63241 76.5238 10.1683 77.3587C10.5117 77.8934 11.0906 78.185 11.682 78.185C12.0144 78.185 12.3505 78.0928 12.6511 77.8998L17.9093 74.5236L17.9657 74.8941C18.1218 75.9156 18.783 76.7665 19.7341 77.1704C20.6856 77.5746 21.7569 77.459 22.5999 76.8619L24.6574 75.4052C24.8497 76.1747 25.3408 76.8335 26.0329 77.2385C26.801 77.688 27.7205 77.7685 28.555 77.4593L33.5426 75.6108C33.6305 76.1192 33.8515 76.6011 34.1917 77.0069C34.7553 77.6787 35.5813 78.0639 36.4582 78.0639H37.6114C38.6035 78.0639 39.4081 77.2595 39.4081 76.2673C39.4081 75.275 38.6037 74.471 37.6116 74.471Z" fill="white"/>
<path d="M90.1852 38.0213C87.5234 35.3596 83.192 35.3596 80.5302 38.0213L65.5788 52.9726V9.08176C65.5788 6.10978 63.1609 3.69188 60.1889 3.69188H56.5957V1.89526C56.5957 0.902982 55.7912 0.0986328 54.7991 0.0986328C53.807 0.0986328 53.0024 0.902982 53.0024 1.89526V3.69188H47.9719V1.89526C47.9719 0.902982 47.1674 0.0986328 46.1753 0.0986328C45.1832 0.0986328 44.3786 0.902982 44.3786 1.89526V3.69188H39.3481V1.89526C39.3481 0.902982 38.5436 0.0986328 37.5515 0.0986328C36.5594 0.0986328 35.7548 0.902982 35.7548 1.89526V3.69188H30.7243V1.89526C30.7243 0.902982 29.9198 0.0986328 28.9277 0.0986328C27.9356 0.0986328 27.131 0.902982 27.131 1.89526V3.69188H22.1005V1.89526C22.1005 0.902982 21.2959 0.0986328 20.3039 0.0986328C19.3118 0.0986328 18.5072 0.902982 18.5072 1.89526V3.69188H13.4767V1.89526C13.4767 0.902982 12.6721 0.0986328 11.68 0.0986328C10.688 0.0986328 9.88342 0.902982 9.88342 1.89526V3.69188H5.57152C2.59954 3.69188 0.181641 6.10978 0.181641 9.08176V90.2893C0.181641 91.2815 0.98617 92.0859 1.97827 92.0859H63.7822C64.7743 92.0859 65.5788 91.2815 65.5788 90.2893V72.2829L72.933 64.9288C73.6345 64.2272 73.6345 63.0896 72.933 62.3878C72.2312 61.6862 71.0939 61.6862 70.392 62.3878L59.3411 73.4387L54.7678 68.8652L79.355 44.278L83.9285 48.8513L80.5553 52.2245C79.8537 52.9261 79.8537 54.0637 80.5553 54.7653C81.2571 55.4669 82.3943 55.4669 83.0963 54.7653L90.1852 47.6762C92.8469 45.0145 92.8469 40.6833 90.1852 38.0213ZM61.9856 88.4926H3.77489V9.08176C3.77489 8.0911 4.58086 7.28514 5.57152 7.28514H9.88342V11.597C9.88342 12.5893 10.688 13.3937 11.68 13.3937C12.6721 13.3937 13.4767 12.5893 13.4767 11.597V7.28514H18.5072V11.597C18.5072 12.5893 19.3118 13.3937 20.3039 13.3937C21.2959 13.3937 22.1005 12.5893 22.1005 11.597V7.28514H27.131V11.597C27.131 12.5893 27.9356 13.3937 28.9277 13.3937C29.9198 13.3937 30.7243 12.5893 30.7243 11.597V7.28514H35.7548V11.597C35.7548 12.5893 36.5594 13.3937 37.5515 13.3937C38.5436 13.3937 39.3481 12.5893 39.3481 11.597V7.28514H44.3786V11.597C44.3786 12.5893 45.1832 13.3937 46.1753 13.3937C47.1674 13.3937 47.9719 12.5893 47.9719 11.597V7.28514H53.0024V11.597C53.0024 12.5893 53.807 13.3937 54.7991 13.3937C55.7912 13.3937 56.5957 12.5893 56.5957 11.597V7.28514H60.1889C61.1796 7.28514 61.9856 8.0911 61.9856 9.08176V56.5659L50.9564 67.595C50.8201 67.7315 50.7064 67.8889 50.6201 68.0616L43.497 82.2991C43.151 82.9908 43.2865 83.8264 43.8334 84.3733C44.1785 84.7183 44.6381 84.8996 45.1043 84.8996C45.3772 84.8996 45.6523 84.8374 45.9077 84.7096L60.1451 77.5866C60.3176 77.5001 60.4752 77.3866 60.6117 77.2502L61.9856 75.8764V88.4926ZM52.7188 71.8979L56.3086 75.4879L49.1242 79.0824L52.7188 71.8979ZM87.6443 45.1357L86.4693 46.3107L81.8958 41.7374L83.071 40.5622C84.3318 39.3012 86.3836 39.3012 87.6443 40.5622C88.9053 41.8231 88.9053 43.8747 87.6443 45.1357Z" fill="#A16EF4"/>
<path d="M76.7439 56.7798C76.2696 56.7798 75.8079 56.972 75.4719 57.3062C75.1379 57.6404 74.9473 58.1021 74.9473 58.5764C74.9473 59.0489 75.1379 59.5125 75.4719 59.8466C75.8079 60.1808 76.2696 60.373 76.7439 60.373C77.2166 60.373 77.6781 60.1808 78.0141 59.8466C78.3483 59.5107 78.5405 59.0489 78.5405 58.5764C78.5405 58.1039 78.3485 57.6404 78.0141 57.3062C77.6783 56.972 77.2166 56.7798 76.7439 56.7798Z" fill="#A16EF4"/>
</svg>
