<svg width="89" height="89" viewBox="0 0 89 89" fill="none" xmlns="http://www.w3.org/2000/svg">
<g clip-path="url(#clip0)">
<path d="M79.3391 70.484C76.9103 70.484 74.9415 68.5152 74.9415 66.0864C74.9415 65.2769 74.2852 64.6206 73.4757 64.6206C72.6662 64.6206 72.0099 65.2769 72.0099 66.0864C72.0099 68.5152 70.041 70.484 67.6123 70.484C66.8028 70.484 66.1465 71.1403 66.1465 71.9498C66.1465 72.7593 66.8028 73.4157 67.6123 73.4157C70.041 73.4157 72.0099 75.3845 72.0099 77.8132C72.0099 78.6227 72.6662 79.279 73.4757 79.279C74.2852 79.279 74.9415 78.6227 74.9415 77.8132C74.9415 75.3845 76.9103 73.4157 79.3391 73.4157C80.1486 73.4157 80.8049 72.7593 80.8049 71.9498C80.8049 71.1403 80.1486 70.484 79.3391 70.484ZM73.4757 73.4157C73.059 72.8601 72.5654 72.3665 72.0099 71.9498C72.5654 71.5331 73.059 71.0395 73.4757 70.484C73.8924 71.0395 74.386 71.5331 74.9415 71.9498C74.386 72.3665 73.8924 72.8601 73.4757 73.4157Z" fill="#C6D9FF"/>
<path d="M83.7365 52.8936C81.3078 52.8936 79.339 50.9248 79.339 48.4961C79.339 47.6866 78.6827 47.0303 77.8732 47.0303C77.0636 47.0303 76.4073 47.6866 76.4073 48.4961C76.4073 50.9248 74.4385 52.8936 72.0098 52.8936C71.2003 52.8936 70.5439 53.55 70.5439 54.3595C70.5439 55.169 71.2003 55.8253 72.0098 55.8253C74.4385 55.8253 76.4073 57.7941 76.4073 60.2229C76.4073 61.0324 77.0636 61.6887 77.8732 61.6887C78.6827 61.6887 79.339 61.0324 79.339 60.2229C79.339 57.7941 81.3078 55.8253 83.7365 55.8253C84.546 55.8253 85.2024 55.169 85.2024 54.3595C85.2024 53.55 84.546 52.8936 83.7365 52.8936ZM77.8732 55.8253C77.4565 55.2698 76.9629 54.7762 76.4073 54.3595C76.9629 53.9428 77.4565 53.4492 77.8732 52.8936C78.2898 53.4492 78.7834 53.9428 79.339 54.3595C78.7834 54.7762 78.2898 55.2698 77.8732 55.8253Z" fill="#C6D9FF"/>
<path d="M44.1584 30.9062C36.8724 30.9062 30.9658 36.8127 30.9658 44.0988C30.9658 51.3848 36.8724 57.2914 44.1584 57.2914C51.4446 57.2914 57.351 51.3848 57.351 44.0988C57.351 36.8127 51.4444 30.9062 44.1584 30.9062ZM44.1584 54.3597C38.4915 54.3597 33.8975 49.7658 33.8975 44.0988C33.8975 38.4319 38.4915 33.8379 44.1584 33.8379C49.8253 33.8379 54.4193 38.4319 54.4193 44.0988C54.4193 49.7658 49.8253 54.3597 44.1584 54.3597Z" fill="url(#paint0_linear)"/>
<path d="M48.8488 46.1509C46.9058 48.7414 43.2306 49.2665 40.6401 47.3235C40.1956 46.9903 39.8007 46.5954 39.4674 46.1509L37.1221 47.9099C40.0365 51.7958 45.5492 52.5834 49.4351 49.6689C50.1019 49.1689 50.6941 48.5767 51.1941 47.9099L48.8488 46.1509Z" fill="url(#paint1_linear)"/>
<path d="M39.7608 44.0987C41.3799 44.0987 42.6925 42.7862 42.6925 41.167C42.6925 39.5479 41.3799 38.2354 39.7608 38.2354C38.1417 38.2354 36.8291 39.5479 36.8291 41.167C36.8291 42.7862 38.1417 44.0987 39.7608 44.0987Z" fill="url(#paint2_linear)"/>
<path d="M48.5557 44.0987C50.1748 44.0987 51.4874 42.7862 51.4874 41.167C51.4874 39.5479 50.1748 38.2354 48.5557 38.2354C46.9366 38.2354 45.624 39.5479 45.624 41.167C45.624 42.7862 46.9366 44.0987 48.5557 44.0987Z" fill="url(#paint3_linear)"/>
<path d="M63.6393 60.6484L56.6179 67.6697C54.2233 60.7885 46.7035 57.1514 39.8223 59.546C36.0157 60.8708 33.0233 63.8629 31.6986 67.6697L24.6772 60.6484L22.5957 62.7298L30.9657 71.1291C30.9657 71.4076 30.9657 71.6715 30.9657 71.95V88.0742H57.3508V71.95C57.3508 71.6715 57.3508 71.4076 57.3508 71.1291L65.7647 62.7298L63.6393 60.6484ZM54.4191 85.1426H33.8973V71.95C33.8973 66.2831 38.4913 61.6891 44.1582 61.6891C49.8252 61.6891 54.4191 66.2831 54.4191 71.95V85.1426Z" fill="url(#paint4_linear)"/>
<path d="M55.8044 30.3943C55.7769 30.3331 55.7452 30.2739 55.7097 30.217L45.4488 11.161C45.0642 10.4486 44.175 10.1827 43.4626 10.5673C43.211 10.7031 43.0047 10.9094 42.8689 11.161L32.608 30.217C32.2296 30.9295 32.4982 31.814 33.209 32.1958C33.9216 32.5742 34.806 32.3056 35.1879 31.5948L44.1588 14.9429L53.1298 31.5948C53.4613 32.3334 54.3288 32.6634 55.0675 32.3318C55.8059 32.0003 56.1359 31.1327 55.8044 30.3943Z" fill="url(#paint5_linear)"/>
<path d="M21.5993 28.2822L8.40675 18.0213C8.02361 17.7252 7.51881 17.6375 7.05817 17.7868C6.59441 17.9396 6.23712 18.3134 6.10537 18.7836L0.242005 39.3054C0.0809457 39.869 0.271322 40.4744 0.725733 40.8445C0.987569 41.0545 1.31354 41.1684 1.64921 41.167C1.88979 41.1657 2.12635 41.1054 2.33816 40.9911L21.3941 30.7302C21.8359 30.4971 22.1287 30.0552 22.171 29.5575C22.2084 29.0632 21.9933 28.5833 21.5993 28.2822ZM4.00922 36.7694L8.3188 21.6713L18.0227 29.2204L4.00922 36.7694Z" fill="#C6D9FF"/>
<path d="M28.0344 4.521C19.9387 4.521 13.376 11.0838 13.376 19.1794C13.376 19.9889 14.0323 20.6453 14.8418 20.6453C15.6513 20.6453 16.3077 19.9889 16.3077 19.1794C16.3077 12.703 21.5579 7.45268 28.0344 7.45268C28.8439 7.45268 29.5002 6.79635 29.5002 5.98684C29.5002 5.17733 28.8439 4.521 28.0344 4.521Z" fill="#C6D9FF"/>
<path d="M1.64944 3.05518C0.839925 3.05518 0.183594 3.71151 0.183594 4.52102C0.183594 5.33053 0.839925 5.98686 1.64944 5.98686C5.69516 5.98686 8.97865 10.5896 8.97865 16.2478C8.97865 17.0573 9.63498 17.7136 10.4445 17.7136C11.254 17.7136 11.9103 17.0573 11.9103 16.2478C11.9103 8.91854 7.30759 3.05518 1.64944 3.05518Z" fill="#C6D9FF"/>
<path d="M31.6833 19.3844C29.5509 17.8905 26.8603 17.4332 24.3541 18.1384C22.1022 19.0394 20.3031 20.8017 19.3556 23.0343C19.065 23.783 19.4309 24.6262 20.1764 24.9253C20.3435 24.9967 20.5226 25.0365 20.7041 25.0425C21.3013 25.0455 21.8405 24.686 22.0674 24.1337C22.6821 22.6803 23.8388 21.5236 25.2922 20.9089C27.0003 20.4851 28.8084 20.8512 30.2175 21.9056C30.9552 22.2391 31.8235 21.9113 32.157 21.1736C32.443 20.5404 32.2453 19.7932 31.6833 19.3844Z" fill="#C6D9FF"/>
<path d="M33.1646 3.05518C31.9503 3.05518 30.9658 4.03967 30.9658 5.25394C30.9658 6.46821 31.9503 7.4527 33.1646 7.4527C34.3789 7.4527 35.3633 6.46821 35.3633 5.25394C35.3633 4.03967 34.3789 3.05518 33.1646 3.05518ZM33.1646 5.98686C32.7598 5.98686 32.4317 5.6587 32.4317 5.25394C32.4317 4.84918 32.7598 4.52102 33.1646 4.52102C33.5693 4.52102 33.8975 4.84918 33.8975 5.25394C33.8975 5.6587 33.5693 5.98686 33.1646 5.98686Z" fill="#C6D9FF"/>
<path d="M25.8355 10.3843C24.6212 10.3843 23.6367 11.3688 23.6367 12.583C23.6367 13.7973 24.6212 14.7818 25.8355 14.7818C27.0497 14.7818 28.0342 13.7973 28.0342 12.583C28.0342 11.3688 27.0497 10.3843 25.8355 10.3843ZM25.8355 13.316C25.4307 13.316 25.1026 12.9878 25.1026 12.583C25.1026 12.1783 25.4307 11.8501 25.8355 11.8501C26.2402 11.8501 26.5684 12.1783 26.5684 12.583C26.5684 12.9878 26.2402 13.316 25.8355 13.316Z" fill="#C6D9FF"/>
<path d="M15.5747 0.123535C14.3605 0.123535 13.376 1.10803 13.376 2.3223C13.376 3.53657 14.3605 4.52106 15.5747 4.52106C16.789 4.52106 17.7735 3.53657 17.7735 2.3223C17.7735 1.10803 16.789 0.123535 15.5747 0.123535ZM15.5747 3.05522C15.17 3.05522 14.8418 2.72705 14.8418 2.3223C14.8418 1.91754 15.17 1.58938 15.5747 1.58938C15.9795 1.58938 16.3077 1.91754 16.3077 2.3223C16.3077 2.72705 15.9795 3.05522 15.5747 3.05522Z" fill="#C6D9FF"/>
<path d="M88.1334 39.3054L82.27 18.7836C82.1383 18.3134 81.781 17.9396 81.3172 17.7868C80.8566 17.6375 80.3518 17.7252 79.9687 18.0213L66.7761 28.2822C66.3821 28.5833 66.167 29.0632 66.2044 29.5575C66.2467 30.0552 66.5395 30.4971 66.9813 30.7302L86.0372 40.9911C86.2315 41.0964 86.447 41.1565 86.6676 41.167C87.0032 41.1684 87.3292 41.0545 87.591 40.8445C88.0671 40.4888 88.2813 39.8809 88.1334 39.3054ZM70.2941 29.2204L79.998 21.6713L84.3076 36.7694L70.2941 29.2204Z" fill="#C6D9FF"/>
<path d="M60.2832 4.521C59.4737 4.521 58.8174 5.17733 58.8174 5.98684C58.8174 6.79635 59.4737 7.45268 60.2832 7.45268C66.7597 7.45268 72.01 12.703 72.01 19.1794C72.01 19.9889 72.6663 20.6453 73.4758 20.6453C74.2853 20.6453 74.9416 19.9889 74.9416 19.1794C74.9416 11.0838 68.3789 4.521 60.2832 4.521Z" fill="#C6D9FF"/>
<path d="M86.6681 3.05518C81.01 3.05518 76.4072 8.91854 76.4072 16.2478C76.4072 17.0573 77.0636 17.7136 77.8731 17.7136C78.6826 17.7136 79.3389 17.0573 79.3389 16.2478C79.3389 10.5896 82.6224 5.98686 86.6681 5.98686C87.4776 5.98686 88.134 5.33053 88.134 4.52102C88.134 3.71151 87.4776 3.05518 86.6681 3.05518Z" fill="#C6D9FF"/>
<path d="M68.9763 23.0367C68.9759 23.0358 68.9756 23.035 68.9754 23.0343C68.0279 20.8017 66.2287 19.0393 63.9768 18.1384C61.4706 17.4331 58.7801 17.8907 56.6476 19.3844C55.91 19.7178 55.5822 20.5862 55.9156 21.3239C56.2491 22.0615 57.1174 22.3893 57.8551 22.0559C57.9462 22.0146 58.0329 21.9644 58.1137 21.9056C59.5227 20.8511 61.3308 20.485 63.0389 20.9088C64.4904 21.5261 65.6464 22.6821 66.2637 24.1337C66.4886 24.681 67.0205 25.0396 67.6123 25.0425C67.7979 25.0429 67.9821 25.0081 68.1547 24.9399C68.907 24.6412 69.275 23.7892 68.9763 23.0367Z" fill="#C6D9FF"/>
<path d="M55.1529 3.05518C53.9386 3.05518 52.9541 4.03967 52.9541 5.25394C52.9541 6.46821 53.9386 7.4527 55.1529 7.4527C56.3671 7.4527 57.3516 6.46821 57.3516 5.25394C57.3516 4.03967 56.3671 3.05518 55.1529 3.05518ZM55.1529 5.98686C54.7481 5.98686 54.4199 5.6587 54.4199 5.25394C54.4199 4.84918 54.7481 4.52102 55.1529 4.52102C55.5576 4.52102 55.8858 4.84918 55.8858 5.25394C55.8858 5.6587 55.5576 5.98686 55.1529 5.98686Z" fill="#C6D9FF"/>
<path d="M62.482 10.3843C61.2677 10.3843 60.2832 11.3688 60.2832 12.583C60.2832 13.7973 61.2677 14.7818 62.482 14.7818C63.6962 14.7818 64.6807 13.7973 64.6807 12.583C64.6807 11.3688 63.6962 10.3843 62.482 10.3843ZM62.482 13.316C62.0772 13.316 61.749 12.9878 61.749 12.583C61.749 12.1783 62.0772 11.8501 62.482 11.8501C62.8867 11.8501 63.2149 12.1783 63.2149 12.583C63.2149 12.9878 62.8867 13.316 62.482 13.316Z" fill="#C6D9FF"/>
<path d="M72.7427 0.123535C71.5284 0.123535 70.5439 1.10803 70.5439 2.3223C70.5439 3.53657 71.5284 4.52106 72.7427 4.52106C73.957 4.52106 74.9415 3.53657 74.9415 2.3223C74.9415 1.10803 73.957 0.123535 72.7427 0.123535ZM72.7427 3.05522C72.338 3.05522 72.0098 2.72705 72.0098 2.3223C72.0098 1.91754 72.338 1.58938 72.7427 1.58938C73.1475 1.58938 73.4756 1.91754 73.4756 2.3223C73.4756 2.72705 73.1475 3.05522 72.7427 3.05522Z" fill="#C6D9FF"/>
<path d="M47.7496 67.7133C47.253 67.4614 46.6568 67.5125 46.2104 67.8453L44.1583 69.3111L42.1061 67.8453C41.6597 67.5125 41.0635 67.4614 40.567 67.7133C40.0741 67.9618 39.7624 68.4661 39.7607 69.0179V73.4155C39.7624 73.9674 40.0741 74.4716 40.567 74.7201C40.7692 74.8298 40.9964 74.8853 41.2266 74.8813C41.5438 74.8813 41.8523 74.7785 42.1061 74.5881L44.1583 73.1223L46.2104 74.5881C46.4642 74.7785 46.7728 74.8813 47.09 74.8813C47.3201 74.8853 47.5473 74.8298 47.7496 74.7201C48.2425 74.4716 48.5541 73.9674 48.5558 73.4155V69.0179C48.5541 68.4659 48.2425 67.9618 47.7496 67.7133Z" fill="url(#paint6_linear)"/>
<path d="M14.8414 63.1545C18.8891 63.1777 22.1893 59.9153 22.2127 55.8676C22.236 51.8198 18.9736 48.5197 14.9258 48.4962C11.1233 48.4744 7.93541 51.3643 7.58544 55.151L1.48754 55.8252C0.965514 55.88 0.512569 56.21 0.300205 56.6901C0.0905895 57.1747 0.157652 57.7347 0.476106 58.1559L9.05128 69.5895L10.1507 76.1565L5.53326 77.9008L6.55935 80.6566L18.2861 76.2591L17.26 73.5033L12.9504 75.1304L11.9097 69.1351L13.9619 63.1545C14.2545 63.1764 14.5486 63.1764 14.8414 63.1545ZM14.8414 51.4277C17.2701 51.4034 19.2585 53.3526 19.2829 55.7813C19.3072 58.21 17.358 60.1984 14.9293 60.2228L16.3072 56.2943C16.4965 55.7967 16.4012 55.2356 16.058 54.8285C15.7416 54.4417 15.2498 54.2427 14.7534 54.3008L10.6491 54.7552C11.1328 52.8254 12.852 51.4609 14.8414 51.4277ZM9.93079 65.8956L4.36059 58.4638L12.7305 57.5403L9.93079 65.8956Z" fill="#C6D9FF"/>
</g>
<defs>
<linearGradient id="paint0_linear" x1="30.5762" y1="47.991" x2="57.7834" y2="47.6024" gradientUnits="userSpaceOnUse">
<stop stop-color="#5529CF"/>
<stop offset="1" stop-color="#9745FF"/>
</linearGradient>
<linearGradient id="paint1_linear" x1="36.9143" y1="49.5682" x2="51.4067" y2="49.0163" gradientUnits="userSpaceOnUse">
<stop stop-color="#5529CF"/>
<stop offset="1" stop-color="#9745FF"/>
</linearGradient>
<linearGradient id="paint2_linear" x1="36.7425" y1="42.032" x2="42.7886" y2="41.9456" gradientUnits="userSpaceOnUse">
<stop stop-color="#5529CF"/>
<stop offset="1" stop-color="#9745FF"/>
</linearGradient>
<linearGradient id="paint3_linear" x1="45.5374" y1="42.032" x2="51.5835" y2="41.9456" gradientUnits="userSpaceOnUse">
<stop stop-color="#5529CF"/>
<stop offset="1" stop-color="#9745FF"/>
</linearGradient>
<linearGradient id="paint4_linear" x1="21.9583" y1="77.7588" x2="66.4615" y2="76.8212" gradientUnits="userSpaceOnUse">
<stop stop-color="#5529CF"/>
<stop offset="1" stop-color="#9745FF"/>
</linearGradient>
<linearGradient id="paint5_linear" x1="32.0896" y1="24.6815" x2="56.3177" y2="24.3131" gradientUnits="userSpaceOnUse">
<stop stop-color="#5529CF"/>
<stop offset="1" stop-color="#9745FF"/>
</linearGradient>
<linearGradient id="paint6_linear" x1="39.6309" y1="72.2989" x2="48.6991" y2="72.1434" gradientUnits="userSpaceOnUse">
<stop stop-color="#5529CF"/>
<stop offset="1" stop-color="#9745FF"/>
</linearGradient>
<clipPath id="clip0">
<rect width="88" height="88" fill="white" transform="translate(0.179688 0.0986328)"/>
</clipPath>
</defs>
</svg>
