<svg width="93" height="96" viewBox="0 0 93 96" fill="none" xmlns="http://www.w3.org/2000/svg">
<path d="M63.792 67.2121V64.653C63.7858 59.9643 65.6445 55.47 68.9526 52.1776C74.7951 46.4815 78.0831 38.6254 78.0552 30.4272C78.0722 16.5875 68.8195 4.48466 55.5507 0.988442C42.2818 -2.50778 28.3482 3.48586 21.6584 15.5676C14.9687 27.6486 17.2135 42.7658 27.1186 52.3377C30.3632 55.5918 32.1601 60.0361 32.0959 64.653V67.2121C29.0052 67.2043 26.3625 69.4533 25.8464 72.5286C25.331 75.6039 27.0938 78.6051 30.015 79.6242C28.7034 81.5851 28.5703 84.1161 29.6699 86.2058C30.7687 88.2948 32.9215 89.6013 35.2655 89.6029H37.0089C37.7673 93.3232 41.0104 95.9948 44.7743 96.0003H51.1135C54.8782 95.9948 58.1213 93.3232 58.8797 89.6029H60.6224C62.9671 89.6013 65.1191 88.2948 66.2187 86.2058C67.3183 84.1161 67.1852 81.5851 65.8736 79.6242C68.7948 78.6051 70.5576 75.6039 70.0422 72.5286C69.5261 69.4533 66.8834 67.2043 63.792 67.2121ZM29.3101 50.0316C23.4591 44.391 20.4389 36.3895 21.0881 28.2499C22.2117 15.3466 32.1214 4.99305 44.8602 3.41089C56.3067 2.07628 67.3253 8.24094 72.2693 18.7437C77.2133 29.2464 74.987 41.7608 66.7302 49.8715C62.8123 53.7723 60.6115 59.0982 60.6224 64.653V67.2121H35.2655V64.653C35.3266 59.1662 33.1777 53.8886 29.3101 50.0316ZM51.1135 92.8016H44.7743C42.767 92.793 40.981 91.513 40.3116 89.6029H55.577C54.9076 91.513 53.1216 92.793 51.1135 92.8016ZM60.6224 86.4042H35.2655C33.5151 86.4042 32.0959 84.972 32.0959 83.2055C32.0959 81.4383 33.5151 80.0068 35.2655 80.0068H60.6224C62.3735 80.0068 63.792 81.4383 63.792 83.2055C63.792 84.972 62.3735 86.4042 60.6224 86.4042ZM63.792 76.8081H32.0959C30.3455 76.8081 28.9262 75.3759 28.9262 73.6095C28.9262 71.8422 30.3455 70.4108 32.0959 70.4108H63.792C65.5431 70.4108 66.9616 71.8422 66.9616 73.6095C66.9616 75.3759 65.5431 76.8081 63.792 76.8081Z" fill="#C6D9FF"/>
<path d="M40.0213 46.4206C43.5229 46.4206 46.3605 43.5561 46.3605 40.0232V19.2317C46.3675 15.976 43.9477 13.2365 40.7425 12.871C37.5373 12.5048 34.572 14.6305 33.8585 17.805C30.6069 18.4375 28.4541 21.5769 29.012 24.8708C26.7191 26.1508 25.4493 28.7294 25.8223 31.3471C26.1952 33.9647 28.1337 36.0772 30.692 36.6527C31.0866 38.4075 32.2017 39.9107 33.7587 40.7877C34.1348 43.9927 36.823 46.4104 40.0213 46.4206ZM32.1406 30.9527C31.5316 31.6454 31.0804 32.4646 30.8189 33.3517C29.7843 32.8964 29.07 31.9164 28.947 30.784C28.8247 29.6509 29.3115 28.5388 30.2246 27.868C31.4124 29.4744 33.2804 30.4224 35.2669 30.4271V27.2284C33.5165 27.2284 32.0973 25.7962 32.0973 24.0298C32.0973 22.2625 33.5165 20.8311 35.2669 20.8311C37.018 20.8311 38.4365 22.2625 38.4365 24.0298H41.6061C41.5945 21.2325 39.7798 18.7694 37.1295 17.9518C37.7385 16.5797 39.2126 15.8214 40.6705 16.1291C42.1292 16.4368 43.1777 17.7276 43.1909 19.2317V40.0232C43.1917 41.471 42.2282 42.7385 40.8423 43.1133C39.4564 43.4882 37.9938 42.8767 37.2765 41.6225C36.5592 40.3692 36.7658 38.7854 37.781 37.7616L35.54 35.5001C35.0626 35.992 34.6687 36.559 34.3715 37.1791C33.4081 35.9756 33.46 34.242 34.4938 33.0995L32.1406 30.9527Z" fill="url(#paint0_linear)"/>
<path d="M55.8693 46.4206C59.0684 46.4104 61.7566 43.9927 62.1327 40.7877C63.6897 39.9107 64.8048 38.4075 65.1994 36.6527C67.7577 36.0772 69.6961 33.9647 70.0691 31.3471C70.4421 28.7294 69.1723 26.1508 66.8794 24.8708C67.4373 21.5769 65.2845 18.4375 62.0329 17.805C61.3194 14.6305 58.3541 12.5048 55.1489 12.871C51.9437 13.2365 49.5239 15.976 49.5301 19.2317V40.0232C49.5301 43.5561 52.3685 46.4206 55.8693 46.4206ZM52.6997 19.2317C52.7137 17.7276 53.7622 16.4368 55.2209 16.1291C56.6788 15.8214 58.1529 16.5797 58.7619 17.9518C56.1115 18.7694 54.2969 21.2325 54.2845 24.0298H57.4541C57.4541 22.2625 58.8733 20.8311 60.6238 20.8311C62.3749 20.8311 63.7934 22.2625 63.7934 24.0298C63.7934 25.7962 62.3749 27.2284 60.6238 27.2284V30.4271C62.611 30.4224 64.479 29.4744 65.6668 27.868C66.5799 28.5388 67.0667 29.6509 66.9444 30.784C66.8214 31.9164 66.1071 32.8964 65.0725 33.3517C64.8109 32.4646 64.3598 31.6454 63.7508 30.9527L61.3976 33.0995C62.4314 34.242 62.4833 35.9756 61.5198 37.1791C61.2227 36.559 60.8288 35.992 60.3514 35.5001L58.1103 37.7616C59.1256 38.7854 59.3322 40.3692 58.6149 41.6225C57.8975 42.8767 56.435 43.4882 55.0491 43.1133C53.6631 42.7385 52.6997 41.471 52.6997 40.0232V19.2317Z" fill="url(#paint1_linear)"/>
<path d="M46.3605 49.6193H49.5301V52.818H46.3605V49.6193Z" fill="url(#paint2_linear)"/>
<path d="M52.6997 49.6193H55.8693V52.818H52.6997V49.6193Z" fill="url(#paint3_linear)"/>
<path d="M40.0213 49.6193H43.1909V52.818H40.0213V49.6193Z" fill="url(#paint4_linear)"/>
<path d="M83.2767 15.5646C83.895 16.1886 84.8986 16.1886 85.5169 15.5646L91.1195 9.9107C92.9766 8.03725 92.9774 4.99866 91.121 3.12442C89.2646 1.25019 86.2544 1.24941 84.3964 3.12286C82.5354 1.27518 79.546 1.28846 77.7005 3.15098C75.8549 5.01427 75.8433 8.03101 77.6742 9.90914L83.2767 15.5646ZM79.9152 5.386C80.5335 4.76203 81.5371 4.76203 82.1562 5.386L83.2767 6.51678C83.895 7.14075 84.8986 7.14075 85.5169 6.51678L86.6374 5.38756C87.036 4.9721 87.6248 4.80498 88.1789 4.9518C88.733 5.09783 89.1655 5.53437 89.311 6.09352C89.4557 6.65267 89.2909 7.24773 88.8784 7.64913L84.3964 12.1723L79.9152 7.64913C79.6172 7.34925 79.4501 6.94239 79.4501 6.51756C79.4501 6.09274 79.6172 5.68587 79.9152 5.386Z" fill="#9042FA"/>
<path d="M15.0492 9.52163C13.1913 7.65131 10.1842 7.65053 8.32465 9.52007C7.12676 8.29167 5.36862 7.80593 3.71804 8.24794C2.06668 8.68916 0.777479 9.99097 0.340265 11.6567C-0.0969491 13.3232 0.384373 15.0975 1.60238 16.3064L7.20492 21.9595C7.82321 22.5842 8.82687 22.5842 9.44516 21.9595L15.0477 16.3064C16.9041 14.4329 16.9049 11.3959 15.0492 9.52163ZM12.8067 14.0463L8.32465 18.5695L3.8434 14.0463C3.22356 13.4216 3.22356 12.4087 3.84262 11.784C4.46091 11.1592 5.46457 11.1585 6.08441 11.7832L7.20492 12.914C7.82321 13.538 8.82687 13.538 9.44516 12.914L10.5657 11.7848C10.9642 11.3693 11.5531 11.2022 12.1071 11.349C12.6612 11.495 13.0938 11.9316 13.2392 12.4907C13.384 13.0499 13.2191 13.6449 12.8067 14.0463Z" fill="#9042FA"/>
<path d="M79.6425 57.5005C77.7815 55.6529 74.7921 55.6661 72.9466 57.5287C71.101 59.392 71.0894 62.4087 72.9202 64.2868L78.5228 69.94C79.1411 70.5647 80.1447 70.5647 80.763 69.94L86.3656 64.2868C87.5828 63.0779 88.0649 61.3037 87.6277 59.6372C87.1905 57.9714 85.9013 56.6696 84.2499 56.2284C82.5993 55.7864 80.8404 56.2721 79.6425 57.5005ZM84.1245 62.0268L79.6425 66.55L75.1613 62.0268C74.5414 61.4021 74.5414 60.3892 75.1605 59.7645C75.7788 59.1397 76.7824 59.1389 77.4023 59.7637L78.5228 60.8945C79.1411 61.5184 80.1447 61.5184 80.763 60.8945L81.8835 59.7652C82.2821 59.3498 82.8709 59.1827 83.425 59.3295C83.9791 59.4755 84.4116 59.9121 84.5571 60.4712C84.7018 61.0303 84.537 61.6254 84.1245 62.0268Z" fill="#9042FA"/>
<path d="M9.91016 28.8281H13.0798V35.2255H9.91016V28.8281Z" fill="#C6D9FF"/>
<path d="M9.91016 38.4238H13.0798V41.6225H9.91016V38.4238Z" fill="#C6D9FF"/>
<path d="M3.57031 33.6265H6.73992V43.2225H3.57031V33.6265Z" fill="#C6D9FF"/>
<path d="M3.57031 46.4204H6.73992V49.6191H3.57031V46.4204Z" fill="#C6D9FF"/>
<path d="M16.25 48.02H19.4196V57.6161H16.25V48.02Z" fill="#C6D9FF"/>
<path d="M16.25 60.8149H19.4196V64.0136H16.25V60.8149Z" fill="#C6D9FF"/>
<path d="M81.2246 76.8081H84.3942V86.4042H81.2246V76.8081Z" fill="#C6D9FF"/>
<path d="M81.2246 89.603H84.3942V92.8017H81.2246V89.603Z" fill="#C6D9FF"/>
<path d="M74.8867 73.6094H78.0563V80.0068H74.8867V73.6094Z" fill="#C6D9FF"/>
<path d="M74.8867 83.2056H78.0563V86.4043H74.8867V83.2056Z" fill="#C6D9FF"/>
<path d="M82.8105 22.4302H85.9802V28.8276H82.8105V22.4302Z" fill="#C6D9FF"/>
<path d="M82.8105 32.0264H85.9802V35.2251H82.8105V32.0264Z" fill="#C6D9FF"/>
<path d="M89.1504 27.2285H92.32V36.8246H89.1504V27.2285Z" fill="#C6D9FF"/>
<path d="M89.1504 40.0234H92.32V43.2221H89.1504V40.0234Z" fill="#C6D9FF"/>
<defs>
<linearGradient id="paint0_linear" x1="25.1026" y1="38.7228" x2="70.8586" y2="37.9975" gradientUnits="userSpaceOnUse">
<stop stop-color="#5529CF"/>
<stop offset="1" stop-color="#9745FF"/>
</linearGradient>
<linearGradient id="paint1_linear" x1="25.1026" y1="38.7228" x2="70.8586" y2="37.9975" gradientUnits="userSpaceOnUse">
<stop stop-color="#5529CF"/>
<stop offset="1" stop-color="#9745FF"/>
</linearGradient>
<linearGradient id="paint2_linear" x1="25.1026" y1="38.7228" x2="70.8586" y2="37.9975" gradientUnits="userSpaceOnUse">
<stop stop-color="#5529CF"/>
<stop offset="1" stop-color="#9745FF"/>
</linearGradient>
<linearGradient id="paint3_linear" x1="25.1026" y1="38.7228" x2="70.8586" y2="37.9975" gradientUnits="userSpaceOnUse">
<stop stop-color="#5529CF"/>
<stop offset="1" stop-color="#9745FF"/>
</linearGradient>
<linearGradient id="paint4_linear" x1="25.1026" y1="38.7228" x2="70.8586" y2="37.9975" gradientUnits="userSpaceOnUse">
<stop stop-color="#5529CF"/>
<stop offset="1" stop-color="#9745FF"/>
</linearGradient>
</defs>
</svg>
