<svg width="93" height="96" viewBox="0 0 93 96" fill="none" xmlns="http://www.w3.org/2000/svg">
<path d="M63.7939 67.2121V64.653C63.7877 59.9643 65.6465 55.47 68.9546 52.1776C74.797 46.4815 78.085 38.6254 78.0572 30.4272C78.0742 16.5875 68.8215 4.48466 55.5526 0.988442C42.2837 -2.50778 28.3501 3.48586 21.6604 15.5676C14.9706 27.6486 17.2155 42.7658 27.1205 52.3377C30.3652 55.5918 32.162 60.0361 32.0978 64.653V67.2121C29.0071 67.2043 26.3645 69.4533 25.8484 72.5286C25.333 75.6039 27.0958 78.6051 30.017 79.6242C28.7053 81.5851 28.5722 84.1161 29.6719 86.2058C30.7707 88.2948 32.9235 89.6013 35.2674 89.6029H37.0109C37.7692 93.3232 41.0123 95.9948 44.7763 96.0003H51.1155C54.8802 95.9948 58.1233 93.3232 58.8816 89.6029H60.6243C62.969 89.6013 65.121 88.2948 66.2206 86.2058C67.3203 84.1161 67.1872 81.5851 65.8755 79.6242C68.7967 78.6051 70.5595 75.6039 70.0442 72.5286C69.528 69.4533 66.8854 67.2043 63.7939 67.2121ZM29.312 50.0316C23.4611 44.391 20.4408 36.3895 21.0901 28.2499C22.2137 15.3466 32.1233 4.99305 44.8621 3.41089C56.3087 2.07628 67.3272 8.24094 72.2712 18.7437C77.2152 29.2464 74.9889 41.7608 66.7322 49.8715C62.8142 53.7723 60.6135 59.0982 60.6243 64.653V67.2121H35.2674V64.653C35.3286 59.1662 33.1796 53.8886 29.312 50.0316ZM51.1155 92.8016H44.7763C42.7689 92.793 40.9829 91.513 40.3136 89.6029H55.5789C54.9096 91.513 53.1236 92.793 51.1155 92.8016ZM60.6243 86.4042H35.2674C33.517 86.4042 32.0978 84.972 32.0978 83.2055C32.0978 81.4383 33.517 80.0068 35.2674 80.0068H60.6243C62.3755 80.0068 63.7939 81.4383 63.7939 83.2055C63.7939 84.972 62.3755 86.4042 60.6243 86.4042ZM63.7939 76.8081H32.0978C30.3474 76.8081 28.9282 75.3759 28.9282 73.6095C28.9282 71.8422 30.3474 70.4108 32.0978 70.4108H63.7939C65.5451 70.4108 66.9635 71.8422 66.9635 73.6095C66.9635 75.3759 65.5451 76.8081 63.7939 76.8081Z" fill="#A16EF4"/>
<path d="M40.0232 46.4206C43.5248 46.4206 46.3625 43.5561 46.3625 40.0232V19.2317C46.3694 15.976 43.9497 13.2365 40.7444 12.871C37.5392 12.5048 34.5739 14.6305 33.8604 17.805C30.6088 18.4375 28.456 21.5769 29.0139 24.8708C26.7211 26.1508 25.4512 28.7294 25.8242 31.3471C26.1972 33.9647 28.1356 36.0772 30.6939 36.6527C31.0886 38.4075 32.2037 39.9107 33.7606 40.7877C34.1367 43.9927 36.825 46.4104 40.0232 46.4206ZM32.1425 30.9527C31.5335 31.6454 31.0824 32.4646 30.8208 33.3517C29.7862 32.8964 29.072 31.9164 28.9489 30.784C28.8267 29.6509 29.3134 28.5388 30.2265 27.868C31.4144 29.4744 33.2824 30.4224 35.2688 30.4271V27.2284C33.5184 27.2284 32.0992 25.7962 32.0992 24.0298C32.0992 22.2625 33.5184 20.8311 35.2688 20.8311C37.02 20.8311 38.4384 22.2625 38.4384 24.0298H41.608C41.5964 21.2325 39.7818 18.7694 37.1314 17.9518C37.7404 16.5797 39.2146 15.8214 40.6725 16.1291C42.1311 16.4368 43.1797 17.7276 43.1928 19.2317V40.0232C43.1936 41.471 42.2302 42.7385 40.8443 43.1133C39.4583 43.4882 37.9958 42.8767 37.2785 41.6225C36.5611 40.3692 36.7677 38.7854 37.783 37.7616L35.542 35.5001C35.0645 35.992 34.6706 36.559 34.3735 37.1791C33.4101 35.9756 33.4619 34.242 34.4958 33.0995L32.1425 30.9527Z" fill="white"/>
<path d="M55.8713 46.4206C59.0703 46.4104 61.7586 43.9927 62.1347 40.7877C63.6916 39.9107 64.8067 38.4075 65.2014 36.6527C67.7597 36.0772 69.6981 33.9647 70.0711 31.3471C70.4441 28.7294 69.1742 26.1508 66.8814 24.8708C67.4393 21.5769 65.2865 18.4375 62.0349 17.805C61.3214 14.6305 58.3561 12.5048 55.1509 12.871C51.9456 13.2365 49.5259 15.976 49.5321 19.2317V40.0232C49.5321 43.5561 52.3705 46.4206 55.8713 46.4206ZM52.7017 19.2317C52.7156 17.7276 53.7641 16.4368 55.2228 16.1291C56.6807 15.8214 58.1549 16.5797 58.7639 17.9518C56.1135 18.7694 54.2989 21.2325 54.2865 24.0298H57.4561C57.4561 22.2625 58.8753 20.8311 60.6257 20.8311C62.3769 20.8311 63.7953 22.2625 63.7953 24.0298C63.7953 25.7962 62.3769 27.2284 60.6257 27.2284V30.4271C62.6129 30.4224 64.4809 29.4744 65.6688 27.868C66.5819 28.5388 67.0686 29.6509 66.9464 30.784C66.8233 31.9164 66.1091 32.8964 65.0745 33.3517C64.8129 32.4646 64.3618 31.6454 63.7528 30.9527L61.3995 33.0995C62.4334 34.242 62.4852 35.9756 61.5218 37.1791C61.2247 36.559 60.8308 35.992 60.3533 35.5001L58.1123 37.7616C59.1276 38.7854 59.3342 40.3692 58.6168 41.6225C57.8995 42.8767 56.437 43.4882 55.051 43.1133C53.6651 42.7385 52.7017 41.471 52.7017 40.0232V19.2317Z" fill="white"/>
<path d="M46.3625 49.6193H49.5321V52.818H46.3625V49.6193Z" fill="white"/>
<path d="M52.7017 49.6193H55.8713V52.818H52.7017V49.6193Z" fill="white"/>
<path d="M40.0232 49.6193H43.1928V52.818H40.0232V49.6193Z" fill="white"/>
<path d="M83.2786 15.5646C83.8969 16.1886 84.9006 16.1886 85.5189 15.5646L91.1214 9.9107C92.9786 8.03725 92.9794 4.99866 91.123 3.12442C89.2665 1.25019 86.2563 1.24941 84.3984 3.12286C82.5373 1.27518 79.548 1.28846 77.7024 3.15098C75.8568 5.01427 75.8452 8.03101 77.6761 9.90914L83.2786 15.5646ZM79.9171 5.386C80.5354 4.76203 81.5391 4.76203 82.1581 5.386L83.2786 6.51678C83.8969 7.14075 84.9006 7.14075 85.5189 6.51678L86.6394 5.38756C87.0379 4.9721 87.6268 4.80498 88.1809 4.9518C88.7349 5.09783 89.1675 5.53437 89.313 6.09352C89.4577 6.65267 89.2928 7.24773 88.8804 7.64913L84.3984 12.1723L79.9171 7.64913C79.6192 7.34925 79.452 6.94239 79.452 6.51756C79.452 6.09274 79.6192 5.68587 79.9171 5.386Z" fill="white"/>
<path d="M15.0512 9.52163C13.1932 7.65131 10.1861 7.65053 8.3266 9.52007C7.12871 8.29167 5.37057 7.80593 3.71999 8.24794C2.06863 8.68916 0.779432 9.99097 0.342218 11.6567C-0.0949959 13.3232 0.386327 15.0975 1.60434 16.3064L7.20687 21.9595C7.82516 22.5842 8.82882 22.5842 9.44711 21.9595L15.0496 16.3064C16.9061 14.4329 16.9068 11.3959 15.0512 9.52163ZM12.8086 14.0463L8.3266 18.5695L3.84535 14.0463C3.22551 13.4216 3.22551 12.4087 3.84458 11.784C4.46287 11.1592 5.46652 11.1585 6.08636 11.7832L7.20687 12.914C7.82516 13.538 8.82882 13.538 9.44711 12.914L10.5676 11.7848C10.9661 11.3693 11.555 11.2022 12.1091 11.349C12.6631 11.495 13.0957 11.9316 13.2412 12.4907C13.3859 13.0499 13.2211 13.6449 12.8086 14.0463Z" fill="white"/>
<path d="M79.6445 57.5005C77.7834 55.6529 74.7941 55.6661 72.9485 57.5287C71.1029 59.392 71.0913 62.4087 72.9222 64.2868L78.5247 69.94C79.143 70.5647 80.1467 70.5647 80.765 69.94L86.3675 64.2868C87.5847 63.0779 88.0668 61.3037 87.6296 59.6372C87.1924 57.9714 85.9032 56.6696 84.2519 56.2284C82.6013 55.7864 80.8424 56.2721 79.6445 57.5005ZM84.1265 62.0268L79.6445 66.55L75.1632 62.0268C74.5434 61.4021 74.5434 60.3892 75.1624 59.7645C75.7807 59.1397 76.7844 59.1389 77.4042 59.7637L78.5247 60.8945C79.143 61.5184 80.1467 61.5184 80.765 60.8945L81.8855 59.7652C82.284 59.3498 82.8729 59.1827 83.427 59.3295C83.981 59.4755 84.4136 59.9121 84.5591 60.4712C84.7038 61.0303 84.5389 61.6254 84.1265 62.0268Z" fill="#9042FA"/>
<path d="M9.91211 28.8281H13.0817V35.2255H9.91211V28.8281Z" fill="#A16EF4"/>
<path d="M9.91211 38.4238H13.0817V41.6225H9.91211V38.4238Z" fill="#A16EF4"/>
<path d="M3.57227 33.6265H6.74188V43.2225H3.57227V33.6265Z" fill="#A16EF4"/>
<path d="M3.57227 46.4204H6.74188V49.6191H3.57227V46.4204Z" fill="#A16EF4"/>
<path d="M16.252 48.02H19.4216V57.6161H16.252V48.02Z" fill="#A16EF4"/>
<path d="M16.252 60.8149H19.4216V64.0136H16.252V60.8149Z" fill="#A16EF4"/>
<path d="M81.2266 76.8081H84.3962V86.4042H81.2266V76.8081Z" fill="#A16EF4"/>
<path d="M81.2266 89.603H84.3962V92.8017H81.2266V89.603Z" fill="#A16EF4"/>
<path d="M74.8887 73.6094H78.0583V80.0068H74.8887V73.6094Z" fill="#A16EF4"/>
<path d="M74.8887 83.2056H78.0583V86.4043H74.8887V83.2056Z" fill="#A16EF4"/>
<path d="M82.8125 22.4302H85.9821V28.8276H82.8125V22.4302Z" fill="#A16EF4"/>
<path d="M82.8125 32.0264H85.9821V35.2251H82.8125V32.0264Z" fill="#A16EF4"/>
<path d="M89.1523 27.2285H92.322V36.8246H89.1523V27.2285Z" fill="#A16EF4"/>
<path d="M89.1523 40.0234H92.322V43.2221H89.1523V40.0234Z" fill="#A16EF4"/>
</svg>
