<svg width="78" height="102" viewBox="0 0 78 102" fill="none" xmlns="http://www.w3.org/2000/svg">
<path d="M10.9519 39.6432V22.7894H67.8991V39.6432H10.9519ZM69.572 19.4186H9.27693C8.35215 19.4186 7.60201 20.1734 7.60201 21.104V41.3285C7.60201 42.2591 8.35215 43.0139 9.27693 43.0139H69.574C70.4988 43.0139 71.249 42.2591 71.249 41.3285V21.104C71.247 20.1734 70.4988 19.4186 69.572 19.4186Z" fill="url(#paint0_linear)"/>
<path d="M10.9519 10.9917H32.7258V12.677H10.9519V10.9917ZM9.27693 16.0478H34.4007C35.3255 16.0478 36.0756 15.293 36.0756 14.3624V9.30627C36.0756 8.37572 35.3255 7.6209 34.4007 7.6209H9.27693C8.35215 7.6209 7.60201 8.37572 7.60201 9.30627V14.3624C7.60201 15.293 8.35215 16.0478 9.27693 16.0478Z" fill="url(#paint1_linear)"/>
<path d="M67.8972 90.2024H61.1975V66.6071H67.8972V90.2024ZM69.5721 63.2364H59.5245C58.5998 63.2364 57.8496 63.9912 57.8496 64.9218V91.8878C57.8496 92.8184 58.5998 93.5732 59.5245 93.5732H69.5741C70.4988 93.5732 71.249 92.8184 71.249 91.8878V64.9218C71.247 63.9912 70.4988 63.2364 69.5721 63.2364Z" fill="url(#paint2_linear)"/>
<path d="M4.25218 96.9439V5.93553C4.25218 5.00498 5.00232 4.25015 5.9271 4.25015H72.9219C73.8467 4.25015 74.5968 5.00498 74.5968 5.93553V96.9439C74.5968 97.8745 73.8467 98.6293 72.9219 98.6293H5.9271C5.00232 98.6293 4.25218 97.8745 4.25218 96.9439ZM77.9467 96.9439V5.93553C77.9467 3.14387 75.6982 0.879395 72.9219 0.879395H5.9271C3.15277 0.879395 0.902344 3.14387 0.902344 5.93553V96.9439C0.902344 99.7356 3.15277 102 5.9271 102H72.9219C75.6982 102 77.9467 99.7376 77.9467 96.9439Z" fill="#C6D9FF"/>
<path d="M17.6515 56.4969H10.9519V49.7554H17.6515V56.4969ZM19.3265 46.3846H9.27693C8.35215 46.3846 7.60201 47.1395 7.60201 48.07V58.1823C7.60201 59.1128 8.35215 59.8676 9.27693 59.8676H19.3265C20.2512 59.8676 21.0014 59.1128 21.0014 58.1823V48.07C21.0014 47.1395 20.2512 46.3846 19.3265 46.3846Z" fill="#C6D9FF"/>
<path d="M34.4007 56.4969H27.701V49.7554H34.4007V56.4969ZM36.0756 46.3846H26.0261C25.1013 46.3846 24.3512 47.1395 24.3512 48.07V58.1823C24.3512 59.1128 25.1013 59.8676 26.0261 59.8676H36.0756C37.0004 59.8676 37.7505 59.1128 37.7505 58.1823V48.07C37.7505 47.1395 37.0004 46.3846 36.0756 46.3846Z" fill="#C6D9FF"/>
<path d="M51.15 56.4969H44.4503V49.7554H51.15V56.4969ZM52.8249 46.3846H42.7754C41.8506 46.3846 41.1005 47.1395 41.1005 48.07V58.1823C41.1005 59.1128 41.8506 59.8676 42.7754 59.8676H52.8249C53.7497 59.8676 54.4998 59.1128 54.4998 58.1823V48.07C54.4998 47.1395 53.7497 46.3846 52.8249 46.3846Z" fill="#C6D9FF"/>
<path d="M67.8972 56.4969H61.1975V49.7554H67.8972V56.4969ZM69.5721 46.3846H59.5245C58.5998 46.3846 57.8496 47.1395 57.8496 48.07V58.1823C57.8496 59.1128 58.5998 59.8676 59.5245 59.8676H69.5741C70.4988 59.8676 71.249 59.1128 71.249 58.1823V48.07C71.247 47.1395 70.4988 46.3846 69.5721 46.3846Z" fill="#C6D9FF"/>
<path d="M17.6515 73.3487H10.9519V66.6071H17.6515V73.3487ZM19.3265 63.2364H9.27693C8.35215 63.2364 7.60201 63.9912 7.60201 64.9218V75.034C7.60201 75.9646 8.35215 76.7194 9.27693 76.7194H19.3265C20.2512 76.7194 21.0014 75.9646 21.0014 75.034V64.9218C21.0014 63.9912 20.2512 63.2364 19.3265 63.2364Z" fill="#C6D9FF"/>
<path d="M34.4007 73.3487H27.701V66.6071H34.4007V73.3487ZM36.0756 63.2364H26.0261C25.1013 63.2364 24.3512 63.9912 24.3512 64.9218V75.034C24.3512 75.9646 25.1013 76.7194 26.0261 76.7194H36.0756C37.0004 76.7194 37.7505 75.9646 37.7505 75.034V64.9218C37.7505 63.9912 37.0004 63.2364 36.0756 63.2364Z" fill="#C6D9FF"/>
<path d="M51.15 73.3487H44.4503V66.6071H51.15V73.3487ZM52.8249 63.2364H42.7754C41.8506 63.2364 41.1005 63.9912 41.1005 64.9218V75.034C41.1005 75.9646 41.8506 76.7194 42.7754 76.7194H52.8249C53.7497 76.7194 54.4998 75.9646 54.4998 75.034V64.9218C54.4998 63.9912 53.7497 63.2364 52.8249 63.2364Z" fill="#C6D9FF"/>
<path d="M17.6515 90.2024H10.9519V83.4609H17.6515V90.2024ZM19.3265 80.0901H9.27693C8.35215 80.0901 7.60201 80.845 7.60201 81.7755V91.8878C7.60201 92.8183 8.35215 93.5732 9.27693 93.5732H19.3265C20.2512 93.5732 21.0014 92.8183 21.0014 91.8878V81.7755C21.0014 80.845 20.2512 80.0901 19.3265 80.0901Z" fill="#C6D9FF"/>
<path d="M34.4007 90.2024H27.701V83.4609H34.4007V90.2024ZM36.0756 80.0901H26.0261C25.1013 80.0901 24.3512 80.845 24.3512 81.7755V91.8878C24.3512 92.8183 25.1013 93.5732 26.0261 93.5732H36.0756C37.0004 93.5732 37.7505 92.8183 37.7505 91.8878V81.7755C37.7505 80.845 37.0004 80.0901 36.0756 80.0901Z" fill="#C6D9FF"/>
<path d="M51.15 90.2024H44.4503V83.4609H51.15V90.2024ZM52.8249 80.0901H42.7754C41.8506 80.0901 41.1005 80.845 41.1005 81.7755V91.8878C41.1005 92.8183 41.8506 93.5732 42.7754 93.5732H52.8249C53.7497 93.5732 54.4998 92.8183 54.4998 91.8878V81.7755C54.4998 80.845 53.7497 80.0901 52.8249 80.0901Z" fill="#C6D9FF"/>
<defs>
<linearGradient id="paint0_linear" x1="-0.235269" y1="66.3564" x2="79.2161" y2="65.4918" gradientUnits="userSpaceOnUse">
<stop stop-color="#5529CF"/>
<stop offset="1" stop-color="#9745FF"/>
</linearGradient>
<linearGradient id="paint1_linear" x1="-0.235269" y1="66.3564" x2="79.2161" y2="65.4918" gradientUnits="userSpaceOnUse">
<stop stop-color="#5529CF"/>
<stop offset="1" stop-color="#9745FF"/>
</linearGradient>
<linearGradient id="paint2_linear" x1="-0.235269" y1="66.3564" x2="79.2161" y2="65.4918" gradientUnits="userSpaceOnUse">
<stop stop-color="#5529CF"/>
<stop offset="1" stop-color="#9745FF"/>
</linearGradient>
</defs>
</svg>
