<svg width="100" height="101" viewBox="0 0 100 101" fill="none" xmlns="http://www.w3.org/2000/svg">
<path d="M94.9917 6.73234H54.693C54.8906 6.19332 54.9945 5.62394 55.0001 5.04942C55.0001 2.26107 52.7619 0.000488281 50.0012 0.000488281C47.2404 0.000488281 45.0022 2.26087 45.0022 5.04942C45.0079 5.62413 45.1118 6.19352 45.3094 6.73234H5.01067C2.25109 6.73529 0.0146478 8.9941 0.0117188 11.7813V13.4642C0.0146478 16.2514 2.25109 18.5102 5.01067 18.5131V65.6366C5.01828 72.1399 10.2361 77.4099 16.6748 77.4174H48.3347V91.1914C46.0393 92.011 44.6625 94.3817 45.0741 96.8053C45.4857 99.229 47.5664 101 50.001 101C52.4356 101 54.5163 99.229 54.9279 96.8053C55.3395 94.3817 53.9627 92.011 51.6672 91.1914V77.4174H83.3272C89.7661 77.4099 94.9839 72.1399 94.9913 65.6366V18.5133C97.7509 18.5104 99.9873 16.2516 99.9903 13.4644V11.7815C99.9877 8.9941 97.7513 6.73549 94.9917 6.73234ZM50.0012 3.36651C50.9215 3.36651 51.6674 4.11991 51.6674 5.04942C51.6674 5.97894 50.9215 6.73234 50.0012 6.73234C49.0813 6.73135 48.3357 5.97835 48.3349 5.04942C48.3349 4.11991 49.0809 3.36651 50.0012 3.36651ZM50.0012 97.6132C49.0809 97.6132 48.3349 96.8598 48.3349 95.9303C48.3349 95.0007 49.0809 94.2473 50.0012 94.2473C50.9215 94.2473 51.6674 95.0007 51.6674 95.9303C51.6667 96.8594 50.9211 97.6124 50.0012 97.6132ZM91.6592 65.6366C91.6537 70.2819 87.9268 74.0461 83.3276 74.0516H16.6748C12.0756 74.0461 8.34863 70.2819 8.34317 65.6366V18.5133H91.659V65.6366H91.6592ZM96.6582 13.4644C96.6572 14.3935 95.9118 15.1465 94.9919 15.1473H5.01086C4.09094 15.1463 3.34539 14.3935 3.34461 13.4644V11.7815C3.34559 10.8523 4.09094 10.0993 5.01086 10.0986H94.9919C95.9118 10.0995 96.6574 10.8523 96.6582 11.7815V13.4644Z" fill="#C6D9FF"/>
<path d="M20.0072 69.0027C23.6867 68.9987 26.6685 65.9871 26.6724 62.2708C26.6677 60.8183 26.1934 59.407 25.3217 58.2514L31.4997 50.4546C31.8508 50.5173 32.2124 50.4634 32.5305 50.3009L40.0028 46.3902L47.4752 50.3009C47.784 50.4867 48.1534 50.54 48.5012 50.4484L54.6841 58.2512C53.8124 59.4068 53.3382 60.8181 53.3334 62.2706C53.3226 65.1466 55.1219 67.7119 57.8117 68.6554C60.5016 69.5989 63.4879 68.7124 65.2445 66.4488C67.001 64.1853 67.1398 61.0447 65.5902 58.6321L76.8608 46.3024C77.8214 46.8353 78.8985 47.1177 79.9945 47.1238C83.0761 47.1516 85.7822 45.0607 86.5617 42.0495C87.3412 39.0382 85.9948 35.8769 83.2942 34.3778C80.5936 32.8787 77.2297 33.425 75.1305 35.704C73.0314 37.9827 72.7344 41.4108 74.4094 44.0235L63.1292 56.364C61.3264 55.3491 59.1519 55.2656 57.2778 56.1391L49.5068 46.332L48.4613 40.2662L54.487 34.4185C54.9471 33.9731 55.1152 33.3016 54.9199 32.6888C54.7247 32.076 54.2002 31.6297 53.5693 31.539L45.2214 30.331L41.4933 22.8085C41.1799 22.2785 40.6138 21.9541 40.0028 21.9541C39.3918 21.9541 38.8257 22.2785 38.5123 22.8085L34.7842 30.331L26.4363 31.539C25.8054 31.6297 25.2809 32.076 25.0856 32.6888C24.8903 33.3016 25.0585 33.9731 25.5185 34.4185L31.5442 40.2662L30.4987 46.332L22.7277 56.1391C21.8734 55.7459 20.9459 55.5414 20.007 55.5388C16.3259 55.5388 13.3418 58.5528 13.3418 62.2706C13.3418 65.9885 16.3261 69.0027 20.0072 69.0027ZM79.9945 37.026C81.8352 37.026 83.3272 38.533 83.3272 40.392C83.3272 42.251 81.8352 43.758 79.9945 43.758C78.1596 43.7446 76.6751 42.2455 76.6618 40.392C76.664 38.5339 78.1549 37.0281 79.9945 37.026ZM59.9988 58.9048C61.8384 58.907 63.3293 60.4126 63.3315 62.2708C63.3315 64.1299 61.8394 65.6369 59.9988 65.6369C58.1581 65.6369 56.6661 64.1299 56.6661 62.2708C56.6661 60.4118 58.1583 58.9048 59.9988 58.9048ZM30.29 34.3816L36.1204 33.5377C36.6613 33.4596 37.1299 33.1188 37.375 32.6255L40.003 27.3218L42.6309 32.6255C42.876 33.1188 43.3447 33.4596 43.8856 33.5377L49.716 34.3816L45.5145 38.4592C45.1146 38.8467 44.9316 39.4098 45.0263 39.9614L46.0238 45.7508L40.7694 43.0003C40.2889 42.7482 39.7171 42.7482 39.2365 43.0003L33.9822 45.7508L34.9796 39.9614C35.0743 39.4098 34.8914 38.8469 34.4914 38.4592L30.29 34.3816ZM20.0072 58.9048C21.8478 58.9048 23.3399 60.4118 23.3399 62.2708C23.3399 64.1299 21.8478 65.6367 20.0072 65.6367C18.1666 65.6367 16.6745 64.1297 16.6745 62.2706C16.6766 60.4126 18.1675 58.9068 20.0072 58.9048Z" fill="url(#paint0_linear)"/>
<path d="M68.3303 25.2452H74.9955C75.9158 25.2452 76.6618 24.4918 76.6618 23.5623C76.6618 22.6328 75.9158 21.8794 74.9955 21.8794H68.3303C67.41 21.8794 66.6641 22.6328 66.6641 23.5623C66.6641 24.4918 67.41 25.2452 68.3303 25.2452Z" fill="#C6D9FF"/>
<path d="M81.6604 25.2452H86.6593C87.5796 25.2452 88.3256 24.4918 88.3256 23.5623C88.3256 22.6328 87.5796 21.8794 86.6593 21.8794H81.6604C80.7401 21.8794 79.9941 22.6328 79.9941 23.5623C79.9941 24.4918 80.7401 25.2452 81.6604 25.2452Z" fill="#C6D9FF"/>
<path d="M63.3303 31.9771H68.3293C69.2496 31.9771 69.9955 31.2236 69.9955 30.2942C69.9955 29.3647 69.2496 28.6113 68.3293 28.6113H63.3303C62.41 28.6113 61.6641 29.3649 61.6641 30.2942C61.6641 31.2238 62.41 31.9771 63.3303 31.9771Z" fill="#C6D9FF"/>
<path d="M73.8161 29.1038C73.5037 29.4194 73.3281 29.8475 73.3281 30.294C73.3279 30.7404 73.5035 31.1685 73.8161 31.4843C74.1285 31.7998 74.5525 31.9772 74.9946 31.9772H78.3273C79.2476 31.9772 79.9935 31.2236 79.9935 30.2942C79.9935 29.3647 79.2476 28.6113 78.3273 28.6113H74.9946C74.5525 28.6109 74.1285 28.7882 73.8161 29.1038Z" fill="#C6D9FF"/>
<path d="M86.6587 28.6113H84.9924C84.0721 28.6113 83.3262 29.3649 83.3262 30.2942C83.3262 31.2238 84.0721 31.9771 84.9924 31.9771H86.6587C87.579 31.9771 88.3249 31.2236 88.3249 30.2942C88.3249 29.3647 87.5788 28.6113 86.6587 28.6113Z" fill="#C6D9FF"/>
<defs>
<linearGradient id="paint0_linear" x1="12.2574" y1="52.4353" x2="87.9625" y2="50.7485" gradientUnits="userSpaceOnUse">
<stop stop-color="#5529CF"/>
<stop offset="1" stop-color="#9745FF"/>
</linearGradient>
</defs>
</svg>
