<svg width="101" height="101" viewBox="0 0 101 101" fill="none" xmlns="http://www.w3.org/2000/svg">
<g clip-path="url(#clip0)">
<path d="M94.9937 6.73234H54.6949C54.8925 6.19332 54.9964 5.62394 55.0021 5.04942C55.0021 2.26107 52.7639 0.000488281 50.0031 0.000488281C47.2424 0.000488281 45.0042 2.26087 45.0042 5.04942C45.0099 5.62413 45.1137 6.19352 45.3114 6.73234H5.01262C2.25304 6.73529 0.0166009 8.9941 0.0136719 11.7813V13.4642C0.0166009 16.2514 2.25304 18.5102 5.01262 18.5131V65.6366C5.02023 72.1399 10.2381 77.4099 16.6768 77.4174H48.3367V91.1914C46.0413 92.011 44.6644 94.3817 45.0761 96.8053C45.4877 99.229 47.5683 101 50.0029 101C52.4376 101 54.5182 99.229 54.9298 96.8053C55.3415 94.3817 53.9646 92.011 51.6692 91.1914V77.4174H83.3291C89.768 77.4099 94.9859 72.1399 94.9933 65.6366V18.5133C97.7529 18.5104 99.9893 16.2516 99.9922 13.4644V11.7815C99.9897 8.9941 97.7533 6.73549 94.9937 6.73234ZM50.0031 3.36651C50.9235 3.36651 51.6694 4.11991 51.6694 5.04942C51.6694 5.97894 50.9235 6.73234 50.0031 6.73234C49.0832 6.73135 48.3377 5.97835 48.3369 5.04942C48.3369 4.11991 49.0828 3.36651 50.0031 3.36651ZM50.0031 97.6132C49.0828 97.6132 48.3369 96.8598 48.3369 95.9303C48.3369 95.0007 49.0828 94.2473 50.0031 94.2473C50.9235 94.2473 51.6694 95.0007 51.6694 95.9303C51.6686 96.8594 50.9231 97.6124 50.0031 97.6132ZM91.6612 65.6366C91.6557 70.2819 87.9288 74.0461 83.3295 74.0516H16.6768C12.0775 74.0461 8.35059 70.2819 8.34512 65.6366V18.5133H91.661V65.6366H91.6612ZM96.6601 13.4644C96.6591 14.3935 95.9138 15.1465 94.9939 15.1473H5.01281C4.09289 15.1463 3.34734 14.3935 3.34656 13.4644V11.7815C3.34754 10.8523 4.09289 10.0993 5.01281 10.0986H94.9939C95.9138 10.0995 96.6593 10.8523 96.6601 11.7815V13.4644Z" fill="#A16EF4"/>
<path d="M20.0091 69.0027C23.6886 68.9987 26.6704 65.9871 26.6743 62.2708C26.6697 60.8183 26.1953 59.407 25.3236 58.2514L31.5016 50.4546C31.8527 50.5173 32.2144 50.4634 32.5325 50.3009L40.0047 46.3902L47.4772 50.3009C47.7859 50.4867 48.1554 50.54 48.5031 50.4484L54.686 58.2512C53.8143 59.4068 53.3402 60.8181 53.3353 62.2706C53.3246 65.1466 55.1238 67.7119 57.8137 68.6554C60.5035 69.5989 63.4898 68.7124 65.2465 66.4488C67.0029 64.1853 67.1418 61.0447 65.5921 58.6321L76.8628 46.3024C77.8233 46.8353 78.9004 47.1177 79.9965 47.1238C83.0781 47.1516 85.7841 45.0607 86.5637 42.0495C87.3432 39.0382 85.9968 35.8769 83.2962 34.3778C80.5956 32.8787 77.2316 33.425 75.1325 35.704C73.0333 37.9827 72.7363 41.4108 74.4113 44.0235L63.1311 56.364C61.3284 55.3491 59.1538 55.2656 57.2798 56.1391L49.5088 46.332L48.4633 40.2662L54.489 34.4185C54.949 33.9731 55.1172 33.3016 54.9219 32.6888C54.7266 32.076 54.2021 31.6297 53.5712 31.539L45.2234 30.331L41.4952 22.8085C41.1818 22.2785 40.6157 21.9541 40.0047 21.9541C39.3937 21.9541 38.8276 22.2785 38.5142 22.8085L34.7861 30.331L26.4383 31.539C25.8073 31.6297 25.2828 32.076 25.0876 32.6888C24.8923 33.3016 25.0604 33.9731 25.5205 34.4185L31.5462 40.2662L30.5007 46.332L22.7297 56.1391C21.8754 55.7459 20.9478 55.5414 20.0089 55.5388C16.3279 55.5388 13.3438 58.5528 13.3438 62.2706C13.3438 65.9885 16.3281 69.0027 20.0091 69.0027ZM79.9965 37.026C81.8371 37.026 83.3292 38.533 83.3292 40.392C83.3292 42.251 81.8371 43.758 79.9965 43.758C78.1615 43.7446 76.6771 42.2455 76.6638 40.392C76.666 38.5339 78.1568 37.0281 79.9965 37.026ZM60.0007 58.9048C61.8404 58.907 63.3313 60.4126 63.3334 62.2708C63.3334 64.1299 61.8413 65.6369 60.0007 65.6369C58.1601 65.6369 56.668 64.1299 56.668 62.2708C56.668 60.4118 58.1603 58.9048 60.0007 58.9048ZM30.2919 34.3816L36.1223 33.5377C36.6632 33.4596 37.1319 33.1188 37.377 32.6255L40.0049 27.3218L42.6329 32.6255C42.878 33.1188 43.3466 33.4596 43.8875 33.5377L49.7179 34.3816L45.5165 38.4592C45.1165 38.8467 44.9336 39.4098 45.0283 39.9614L46.0257 45.7508L40.7714 43.0003C40.2908 42.7482 39.7191 42.7482 39.2385 43.0003L33.9841 45.7508L34.9816 39.9614C35.0763 39.4098 34.8933 38.8469 34.4934 38.4592L30.2919 34.3816ZM20.0091 58.9048C21.8498 58.9048 23.3418 60.4118 23.3418 62.2708C23.3418 64.1299 21.8498 65.6367 20.0091 65.6367C18.1685 65.6367 16.6764 64.1297 16.6764 62.2706C16.6786 60.4126 18.1695 58.9068 20.0091 58.9048Z" fill="white"/>
<path d="M68.3313 25.2452H74.9965C75.9168 25.2452 76.6627 24.4918 76.6627 23.5623C76.6627 22.6328 75.9168 21.8794 74.9965 21.8794H68.3313C67.411 21.8794 66.665 22.6328 66.665 23.5623C66.665 24.4918 67.411 25.2452 68.3313 25.2452Z" fill="#A16EF4"/>
<path d="M81.6623 25.2452H86.6613C87.5816 25.2452 88.3275 24.4918 88.3275 23.5623C88.3275 22.6328 87.5816 21.8794 86.6613 21.8794H81.6623C80.742 21.8794 79.9961 22.6328 79.9961 23.5623C79.9961 24.4918 80.742 25.2452 81.6623 25.2452Z" fill="#A16EF4"/>
<path d="M63.3323 31.9771H68.3312C69.2515 31.9771 69.9975 31.2236 69.9975 30.2942C69.9975 29.3647 69.2515 28.6113 68.3312 28.6113H63.3323C62.412 28.6113 61.666 29.3649 61.666 30.2942C61.666 31.2238 62.412 31.9771 63.3323 31.9771Z" fill="#A16EF4"/>
<path d="M73.819 29.1038C73.5066 29.4194 73.3311 29.8475 73.3311 30.294C73.3309 30.7404 73.5064 31.1685 73.819 31.4843C74.1315 31.7998 74.5554 31.9772 74.9975 31.9772H78.3302C79.2505 31.9772 79.9964 31.2236 79.9964 30.2942C79.9964 29.3647 79.2505 28.6113 78.3302 28.6113H74.9975C74.5554 28.6109 74.1315 28.7882 73.819 29.1038Z" fill="#A16EF4"/>
<path d="M86.6616 28.6113H84.9954C84.075 28.6113 83.3291 29.3649 83.3291 30.2942C83.3291 31.2238 84.075 31.9771 84.9954 31.9771H86.6616C87.5819 31.9771 88.3279 31.2236 88.3279 30.2942C88.3279 29.3647 87.5817 28.6113 86.6616 28.6113Z" fill="#A16EF4"/>
</g>
<defs>
<clipPath id="clip0">
<rect width="100" height="101" fill="white" transform="translate(0.00195312 0.000488281)"/>
</clipPath>
</defs>
</svg>
