<svg width="78" height="102" viewBox="0 0 78 102" fill="none" xmlns="http://www.w3.org/2000/svg">
<path d="M10.9479 39.6432V22.7894H67.8952V39.6432H10.9479ZM69.5681 19.4186H9.27303C8.34825 19.4186 7.59811 20.1734 7.59811 21.104V41.3285C7.59811 42.2591 8.34825 43.0139 9.27303 43.0139H69.5701C70.4949 43.0139 71.2451 42.2591 71.2451 41.3285V21.104C71.2431 20.1734 70.4949 19.4186 69.5681 19.4186Z" fill="white"/>
<path d="M10.9479 10.9917H32.7219V12.677H10.9479V10.9917ZM9.27303 16.0478H34.3968C35.3216 16.0478 36.0717 15.293 36.0717 14.3624V9.30627C36.0717 8.37572 35.3216 7.6209 34.3968 7.6209H9.27303C8.34825 7.6209 7.59811 8.37572 7.59811 9.30627V14.3624C7.59811 15.293 8.34825 16.0478 9.27303 16.0478Z" fill="white"/>
<path d="M67.8932 90.2024H61.1936V66.6071H67.8932V90.2024ZM69.5682 63.2364H59.5206C58.5959 63.2364 57.8457 63.9912 57.8457 64.9218V91.8878C57.8457 92.8184 58.5959 93.5732 59.5206 93.5732H69.5702C70.4949 93.5732 71.2451 92.8184 71.2451 91.8878V64.9218C71.2431 63.9912 70.4949 63.2364 69.5682 63.2364Z" fill="white"/>
<path d="M4.24828 96.9439V5.93553C4.24828 5.00498 4.99842 4.25015 5.9232 4.25015H72.918C73.8428 4.25015 74.5929 5.00498 74.5929 5.93553V96.9439C74.5929 97.8745 73.8428 98.6293 72.918 98.6293H5.9232C4.99842 98.6293 4.24828 97.8745 4.24828 96.9439ZM77.9428 96.9439V5.93553C77.9428 3.14387 75.6943 0.879395 72.918 0.879395H5.9232C3.14886 0.879395 0.898438 3.14387 0.898438 5.93553V96.9439C0.898438 99.7356 3.14886 102 5.9232 102H72.918C75.6943 102 77.9428 99.7376 77.9428 96.9439Z" fill="#A16EF4"/>
<path d="M17.6476 56.4969H10.9479V49.7554H17.6476V56.4969ZM19.3225 46.3846H9.27303C8.34825 46.3846 7.59811 47.1395 7.59811 48.07V58.1823C7.59811 59.1128 8.34825 59.8676 9.27303 59.8676H19.3225C20.2473 59.8676 20.9975 59.1128 20.9975 58.1823V48.07C20.9975 47.1395 20.2473 46.3846 19.3225 46.3846Z" fill="#A16EF4"/>
<path d="M34.3968 56.4969H27.6971V49.7554H34.3968V56.4969ZM36.0717 46.3846H26.0222C25.0974 46.3846 24.3473 47.1395 24.3473 48.07V58.1823C24.3473 59.1128 25.0974 59.8676 26.0222 59.8676H36.0717C36.9965 59.8676 37.7466 59.1128 37.7466 58.1823V48.07C37.7466 47.1395 36.9965 46.3846 36.0717 46.3846Z" fill="#A16EF4"/>
<path d="M51.1461 56.4969H44.4464V49.7554H51.1461V56.4969ZM52.821 46.3846H42.7715C41.8467 46.3846 41.0965 47.1395 41.0965 48.07V58.1823C41.0965 59.1128 41.8467 59.8676 42.7715 59.8676H52.821C53.7458 59.8676 54.4959 59.1128 54.4959 58.1823V48.07C54.4959 47.1395 53.7458 46.3846 52.821 46.3846Z" fill="#A16EF4"/>
<path d="M67.8932 56.4969H61.1936V49.7554H67.8932V56.4969ZM69.5682 46.3846H59.5206C58.5959 46.3846 57.8457 47.1395 57.8457 48.07V58.1823C57.8457 59.1128 58.5959 59.8676 59.5206 59.8676H69.5702C70.4949 59.8676 71.2451 59.1128 71.2451 58.1823V48.07C71.2431 47.1395 70.4949 46.3846 69.5682 46.3846Z" fill="#A16EF4"/>
<path d="M17.6476 73.3487H10.9479V66.6071H17.6476V73.3487ZM19.3225 63.2364H9.27303C8.34825 63.2364 7.59811 63.9912 7.59811 64.9218V75.034C7.59811 75.9646 8.34825 76.7194 9.27303 76.7194H19.3225C20.2473 76.7194 20.9975 75.9646 20.9975 75.034V64.9218C20.9975 63.9912 20.2473 63.2364 19.3225 63.2364Z" fill="#A16EF4"/>
<path d="M34.3968 73.3487H27.6971V66.6071H34.3968V73.3487ZM36.0717 63.2364H26.0222C25.0974 63.2364 24.3473 63.9912 24.3473 64.9218V75.034C24.3473 75.9646 25.0974 76.7194 26.0222 76.7194H36.0717C36.9965 76.7194 37.7466 75.9646 37.7466 75.034V64.9218C37.7466 63.9912 36.9965 63.2364 36.0717 63.2364Z" fill="#A16EF4"/>
<path d="M51.1461 73.3487H44.4464V66.6071H51.1461V73.3487ZM52.821 63.2364H42.7715C41.8467 63.2364 41.0965 63.9912 41.0965 64.9218V75.034C41.0965 75.9646 41.8467 76.7194 42.7715 76.7194H52.821C53.7458 76.7194 54.4959 75.9646 54.4959 75.034V64.9218C54.4959 63.9912 53.7458 63.2364 52.821 63.2364Z" fill="#A16EF4"/>
<path d="M17.6476 90.2024H10.9479V83.4609H17.6476V90.2024ZM19.3225 80.0901H9.27303C8.34825 80.0901 7.59811 80.845 7.59811 81.7755V91.8878C7.59811 92.8183 8.34825 93.5732 9.27303 93.5732H19.3225C20.2473 93.5732 20.9975 92.8183 20.9975 91.8878V81.7755C20.9975 80.845 20.2473 80.0901 19.3225 80.0901Z" fill="#A16EF4"/>
<path d="M34.3968 90.2024H27.6971V83.4609H34.3968V90.2024ZM36.0717 80.0901H26.0222C25.0974 80.0901 24.3473 80.845 24.3473 81.7755V91.8878C24.3473 92.8183 25.0974 93.5732 26.0222 93.5732H36.0717C36.9965 93.5732 37.7466 92.8183 37.7466 91.8878V81.7755C37.7466 80.845 36.9965 80.0901 36.0717 80.0901Z" fill="#A16EF4"/>
<path d="M51.1461 90.2024H44.4464V83.4609H51.1461V90.2024ZM52.821 80.0901H42.7715C41.8467 80.0901 41.0965 80.845 41.0965 81.7755V91.8878C41.0965 92.8183 41.8467 93.5732 42.7715 93.5732H52.821C53.7458 93.5732 54.4959 92.8183 54.4959 91.8878V81.7755C54.4959 80.845 53.7458 80.0901 52.821 80.0901Z" fill="#A16EF4"/>
</svg>
