<svg width="101" height="97" viewBox="0 0 101 97" fill="none" xmlns="http://www.w3.org/2000/svg">
<path d="M20.5874 49.5226L24.5993 45.5063L22.3673 43.2719C21.9535 42.8576 21.7874 42.2553 21.9303 41.6879C22.0733 41.1205 22.5037 40.6713 23.0638 40.5017L39.6832 35.5103C40.2698 35.3339 40.903 35.4953 41.3351 35.9279C41.7689 36.3606 41.9284 36.996 41.7523 37.5817L36.7665 54.2196C36.5986 54.7819 36.1483 55.2128 35.5816 55.3559C35.0166 55.4957 34.4132 55.3325 33.9993 54.9184L31.6494 52.564L27.6375 56.5821C27.3267 56.8948 26.9029 57.0695 26.4626 57.0695C26.0222 57.0695 25.5984 56.8948 25.2876 56.5821L20.5876 51.8752C19.9377 51.2247 19.9377 50.1732 20.5874 49.5226ZM26.4626 53.0532L30.1155 49.3945C30.5392 48.9702 31.0943 48.7589 31.6494 48.7589C32.2062 48.7589 32.7613 48.9718 33.1833 49.3928L34.3832 50.594L37.6822 39.5847L26.6852 42.8874L27.9715 44.1752C28.3256 44.5312 28.52 45.0039 28.52 45.5063C28.52 46.0105 28.3239 46.4863 27.9682 46.839L24.1126 50.6989L26.4626 53.0532Z" fill="white"/>
<path d="M30.2003 13.8108H76.7347C77.652 13.8108 78.3966 14.5562 78.3966 15.4746V23.7936C78.3966 24.7119 77.652 25.4573 76.7347 25.4573H30.2003C29.283 25.4573 28.5384 24.7119 28.5384 23.7936V15.4746C28.5384 14.5562 29.283 13.8108 30.2003 13.8108ZM31.8622 22.1299H75.0728V17.1385H31.8622V22.1299Z" fill="white"/>
<path d="M56.7912 32.1125H70.0868C71.0041 32.1125 71.7487 32.8579 71.7487 33.7762V40.4313C71.7487 41.3497 71.0041 42.0951 70.0868 42.0951H56.7912C55.8738 42.0951 55.1293 41.3497 55.1293 40.4313V33.7762C55.1293 32.8579 55.8738 32.1125 56.7912 32.1125ZM58.4532 38.7676H68.4249V35.44H58.4532V38.7676Z" fill="white"/>
<path d="M30.2003 13.8108H76.7347C77.652 13.8108 78.3966 14.5562 78.3966 15.4746V47.0865C78.3966 48.0049 77.652 48.7503 76.7347 48.7503H37.1703C36.6435 48.7503 36.15 48.5025 35.8374 48.0797C35.5233 47.6572 35.4269 47.1115 35.5782 46.6073L37.6822 39.5847L30.6771 41.6892C30.1734 41.8407 29.6283 41.7442 29.208 41.4297C28.786 41.117 28.5382 40.6211 28.5382 40.0953L28.5384 15.4746C28.5384 14.5562 29.283 13.8108 30.2003 13.8108ZM31.8622 37.8593L39.6851 35.5101C40.2717 35.3336 40.9049 35.495 41.337 35.9277C41.7708 36.3619 41.9303 36.9958 41.7542 37.5832L39.4042 45.423H75.0728V17.1385H31.8622L31.8622 37.8593Z" fill="white"/>
<path d="M6.93463 0.500488H93.3524C97.0188 0.500488 100.002 3.48712 100.002 7.15735V62.0607C100.002 62.9791 99.2573 63.7245 98.34 63.7245H1.94723C1.02992 63.7245 0.285352 62.9791 0.285352 62.0607V7.15735C0.285158 3.48712 3.26828 0.500488 6.93463 0.500488ZM3.60911 60.397H96.6779V7.15735C96.6779 5.32048 95.1855 3.82814 93.3524 3.82814H6.93463C5.10155 3.82814 3.60911 5.32048 3.60911 7.15735V60.397Z" fill="#A16EF4"/>
<path d="M1.94704 60.397H98.34C99.2573 60.397 100.002 61.1424 100.002 62.0607V70.378C100.002 74.0485 97.0188 77.0349 93.3524 77.0349H6.93463C3.26828 77.0349 0.285156 74.0485 0.285156 70.378L0.285352 62.0607C0.285352 61.1424 1.02972 60.397 1.94704 60.397ZM3.60911 70.3782C3.60911 72.2151 5.10155 73.7075 6.93463 73.7075H93.3524C95.1855 73.7075 96.6779 72.2151 96.6779 70.3782V63.7247H3.60892L3.60911 70.3782Z" fill="#A16EF4"/>
<path d="M45.1577 67.0525H55.1293C56.0466 67.0525 56.7912 67.7979 56.7912 68.7162C56.7912 69.6346 56.0466 70.38 55.1293 70.38H45.1577C44.2403 70.38 43.4958 69.6346 43.4958 68.7162C43.4958 67.7979 44.2403 67.0525 45.1577 67.0525Z" fill="#A16EF4"/>
<path d="M8.59502 7.15596H91.6922C92.6095 7.15596 93.3541 7.90135 93.3541 8.81968V62.0611C93.3541 62.9794 92.6095 63.7248 91.6922 63.7248H8.59483C7.67751 63.7248 6.93295 62.9794 6.93295 62.0611V8.81968C6.93295 7.90135 7.67751 7.15596 8.59502 7.15596ZM10.2569 60.3972H90.0303V10.4834H10.2569V60.3972Z" fill="#A16EF4"/>
<path d="M28.5383 87.0176H71.7488C74.4976 87.0176 76.7346 89.2571 76.7346 92.009C76.7346 94.7609 74.4976 97.0004 71.7488 97.0004H28.5381C25.7893 97.0004 23.5523 94.7609 23.5523 92.009C23.5523 89.2571 25.7895 87.0176 28.5383 87.0176ZM28.5383 93.6727H71.7488C72.6661 93.6727 73.4107 92.9258 73.4107 92.009C73.4107 91.0922 72.6661 90.3453 71.7488 90.3453H28.5381C27.6208 90.3453 26.8763 91.0922 26.8763 92.009C26.8763 92.9258 27.6208 93.6727 28.5383 93.6727Z" fill="#A16EF4"/>
<path d="M31.8622 87.0176C37.3766 87.0176 40.172 83.0994 40.172 75.3711C40.172 74.4528 40.9166 73.7074 41.8339 73.7074H58.4533C59.3706 73.7074 60.1152 74.4528 60.1152 75.3711C60.1152 83.0994 62.9105 87.0176 68.4249 87.0176C69.3423 87.0176 70.0868 87.763 70.0868 88.6813C70.0868 89.5997 69.3423 90.345 68.4249 90.345H31.8622C30.9449 90.345 30.2003 89.5997 30.2003 88.6813C30.2003 87.763 30.9449 87.0176 31.8622 87.0176ZM60.3298 87.0176C58.2838 84.7483 57.0791 81.369 56.8364 77.0348H43.4494C43.2085 81.369 42.0035 84.7483 39.956 87.0176H60.3298Z" fill="#A16EF4"/>
</svg>
