<svg width="28" height="23" viewBox="0 0 28 23" fill="none" xmlns="http://www.w3.org/2000/svg">
<g clip-path="url(#clip0)">
<path d="M27.6777 19.0357C27.6777 19.6784 27.5108 20.2745 27.2441 20.7991L18.7195 10.4362L27.1514 2.42107C27.4795 2.98664 27.6771 3.65086 27.6771 4.36928V19.0357H27.6777ZM14.1777 12.3184L25.9108 1.16419C25.4299 0.877237 24.8876 0.702148 24.3024 0.702148H4.05241C3.46663 0.702148 2.92432 0.877237 2.44533 1.16419L14.1777 12.3184ZM17.4488 11.6431L14.7328 14.227C14.5736 14.3771 14.376 14.4522 14.1771 14.4522C13.9788 14.4522 13.7806 14.3771 13.6214 14.2263L10.9047 11.6431L2.27267 22.1387C2.79003 22.4916 3.39692 22.7028 4.05241 22.7028H24.3018C24.9579 22.7028 25.5642 22.4916 26.0815 22.1387L17.4488 11.6431ZM1.20341 2.42107C0.875342 2.98664 0.677734 3.65086 0.677734 4.36858V19.0357C0.677734 19.6784 0.843367 20.2745 1.11132 20.7991L9.63531 10.4341L1.20341 2.42107Z" fill="#EDF3FF"/>
</g>
<defs>
<clipPath id="clip0">
<rect width="27" height="22" fill="white" transform="translate(0.677734 0.702148)"/>
</clipPath>
</defs>
</svg>
