<svg width="62" height="63" viewBox="0 0 62 63" fill="none" xmlns="http://www.w3.org/2000/svg">
<path d="M34.6099 52.4774L37.5208 54.4206C38.1205 54.8157 38.4817 55.4854 38.4828 56.2036V61.9655H40.6207V56.2036C40.6212 54.7719 39.9056 53.4352 38.7135 52.6418L35.7952 50.6975C34.1923 49.6296 33.7278 47.4817 34.7456 45.8464C35.0916 45.2832 35.5896 44.8286 36.1825 44.5348L36.3449 44.4539V47H38.4828V33.1034C38.4828 32.5131 38.9614 32.0344 39.5517 32.0344C39.8399 32.0339 40.116 32.1519 40.3138 32.3617C40.5121 32.5574 40.6228 32.8247 40.6207 33.1034V42.7241H42.7586V30.9655C42.7586 30.3751 43.2373 29.8965 43.8276 29.8965C44.1157 29.896 44.3918 30.014 44.5897 30.2238C44.788 30.4195 44.8987 30.6868 44.8966 30.9655V40.5862H47.0345V33.1034C47.0345 32.5131 47.5131 32.0344 48.1035 32.0344C48.3916 32.0339 48.6677 32.1519 48.8655 32.3617C49.0639 32.5574 49.1745 32.8247 49.1724 33.1034V42.7241H51.3104V36.3103C51.3098 36.0222 51.4283 35.7471 51.6376 35.5493C51.8323 35.3499 52.1006 35.2387 52.3793 35.2413C52.9697 35.2413 53.4483 35.72 53.4483 36.3103V45.4284C53.4483 47.6613 53.0584 49.8775 52.2958 51.9758C52.0463 52.6668 51.7556 53.3422 51.4257 53.9983C51.35 54.1487 51.3104 54.3146 51.3104 54.4827V61.9655H53.4483V54.7338C54.8544 51.8354 55.5857 48.6556 55.5862 45.4341V36.3103C55.594 35.2669 55.0898 34.2862 54.237 33.6849C53.3836 33.0836 52.2906 32.939 51.3104 33.2971V33.1034C51.3015 31.3361 49.8708 29.9054 48.1035 29.8965C47.6953 29.8976 47.2908 29.9774 46.9129 30.1319C46.7756 29.5938 46.4948 29.1031 46.1002 28.7122C45.5036 28.0984 44.6831 27.7544 43.8276 27.7586C42.3834 27.7643 41.1213 28.7352 40.7449 30.1293C40.366 29.9759 39.961 29.8965 39.5517 29.8965C37.7807 29.8965 36.3449 31.3324 36.3449 33.1034V42.0633L35.2258 42.6223C33.4057 43.5321 32.2073 45.3417 32.0805 47.3726C31.9536 49.4036 32.9172 51.3484 34.6099 52.4774Z" fill="#C6D9FF"/>
<path d="M29.9368 50.2069V48.0689H29.9195C22.9029 48.0757 16.511 44.0352 13.5066 37.6935C10.5023 31.3522 11.4246 23.847 15.8747 18.4213L18.1729 20.7184V24.5517H16.035V26.6896H18.1729V28.8275H17.104C16.5136 28.8275 16.035 29.3062 16.035 29.8965V35.2413C16.035 35.8317 16.5136 36.3103 17.104 36.3103H21.3798C21.9701 36.3103 22.4488 35.8317 22.4488 35.2413V29.8965C22.4488 29.3062 21.9701 28.8275 21.3798 28.8275H20.3109V26.6896H22.4488V24.5517H20.3109V20.2758C20.3109 19.9924 20.1981 19.7205 19.9977 19.52L17.3253 16.8476C22.2958 12.02 29.5824 10.4453 36.1026 12.7899C42.6234 15.1346 47.2386 20.9888 47.997 27.876L50.1224 27.6411C48.8874 17.1055 39.7944 9.26777 29.1919 9.60026C24.177 9.78607 19.411 11.8316 15.821 15.3381L12.8281 12.3504V6.37927C12.8281 5.78894 12.3495 5.3103 11.7591 5.3103H5.34533C4.755 5.3103 4.27637 5.78894 4.27637 6.37927V12.7931C4.27637 13.3834 4.755 13.862 5.34533 13.862H11.3165L14.3611 16.9066C9.29706 22.9461 8.19208 31.3731 11.5279 38.514C14.8637 45.6549 22.0359 50.2152 29.9174 50.2069H29.9368ZM20.3109 34.1724H18.1729V30.9655H20.3109V34.1724ZM10.6902 11.7241H6.4143V7.44823H10.6902V11.7241Z" fill="url(#paint0_linear)"/>
<path d="M34.2073 29.8965C34.2073 27.5352 32.2928 25.6206 29.9314 25.6206C27.5701 25.6206 25.6556 27.5352 25.6556 29.8965C25.6556 32.2578 27.5701 34.1724 29.9314 34.1724C32.2928 34.1724 34.2073 32.2578 34.2073 29.8965ZM29.9314 32.0344C28.7508 32.0344 27.7935 31.0772 27.7935 29.8965C27.7935 28.7158 28.7508 27.7586 29.9314 27.7586C31.1121 27.7586 32.0694 28.7158 32.0694 29.8965C32.0694 31.0772 31.1121 32.0344 29.9314 32.0344Z" fill="url(#paint1_linear)"/>
<path d="M57.7241 1.03455H4.27586C1.91453 1.03455 0 2.94908 0 5.31041V54.4828C0 56.8441 1.91453 58.7587 4.27586 58.7587H36.3448V56.6208H4.27586C3.0952 56.6208 2.13793 55.6635 2.13793 54.4828V5.31041C2.13793 4.12974 3.0952 3.17248 4.27586 3.17248H57.7241C58.9048 3.17248 59.8621 4.12974 59.8621 5.31041V54.4828C59.8621 55.6635 58.9048 56.6208 57.7241 56.6208H55.5862V58.7587H57.7241C60.0855 58.7587 62 56.8441 62 54.4828V5.31041C62 2.94908 60.0855 1.03455 57.7241 1.03455Z" fill="#C6D9FF"/>
<path d="M52.3794 5.31033C49.8297 5.31033 47.6348 7.11159 47.1374 9.6128C46.64 12.1135 47.9783 14.6173 50.3344 15.5934C52.69 16.5689 55.4073 15.7447 56.8239 13.624C58.2399 11.5038 57.9617 8.67798 56.1584 6.87515C55.1583 5.86986 53.7976 5.30615 52.3794 5.31033ZM54.6468 12.9236C53.3774 14.1335 51.3814 14.1335 50.112 12.9236C49.1584 11.9621 48.9115 10.5048 49.4951 9.28241L50.8678 10.6551L52.3794 9.14357L51.0046 7.76874C52.4123 7.0928 54.1024 7.53177 55.0038 8.80743C55.9047 10.0826 55.7539 11.8222 54.6468 12.9236Z" fill="#C6D9FF"/>
<path d="M55.5859 17.069H57.7239V19.2069H55.5859V17.069Z" fill="#C6D9FF"/>
<path d="M55.5859 21.3448H57.7239V23.4828H55.5859V21.3448Z" fill="#C6D9FF"/>
<path d="M55.5859 25.6207H57.7239V27.7587H55.5859V25.6207Z" fill="#C6D9FF"/>
<path d="M8.55223 54.4827V50.2069H10.6902V48.069H8.55223V45.931H6.4143V48.069H4.27637V50.2069H6.4143V54.4827H8.55223Z" fill="#C6D9FF"/>
<path d="M11.7588 52.3448H13.8967V54.4828H11.7588V52.3448Z" fill="#C6D9FF"/>
<path d="M16.0342 52.3448H18.1721V54.4828H16.0342V52.3448Z" fill="#C6D9FF"/>
<defs>
<linearGradient id="paint0_linear" x1="3.59942" y1="34.3814" x2="50.8733" y2="33.692" gradientUnits="userSpaceOnUse">
<stop stop-color="#5529CF"/>
<stop offset="1" stop-color="#9745FF"/>
</linearGradient>
<linearGradient id="paint1_linear" x1="3.59942" y1="34.3814" x2="50.8733" y2="33.692" gradientUnits="userSpaceOnUse">
<stop stop-color="#5529CF"/>
<stop offset="1" stop-color="#9745FF"/>
</linearGradient>
</defs>
</svg>
