<svg width="62" height="61" viewBox="0 0 62 61" fill="none" xmlns="http://www.w3.org/2000/svg">
<g clip-path="url(#clip0)">
<path d="M9.04889 8.13333C11.8549 8.13664 14.1289 10.4107 14.1322 13.2167C14.1322 13.7781 14.5874 14.2333 15.1489 14.2333C15.7103 14.2333 16.1656 13.7781 16.1656 13.2167C16.1689 10.4107 18.4429 8.13664 21.2489 8.13333C21.8103 8.13333 22.2656 7.67812 22.2656 7.11667C22.2656 6.55521 21.8103 6.1 21.2489 6.1C18.4429 6.0967 16.1689 3.82267 16.1656 1.01667C16.1656 0.455212 15.7103 0 15.1489 0C14.5874 0 14.1322 0.455212 14.1322 1.01667C14.1289 3.82267 11.8549 6.0967 9.04889 6.1C8.48744 6.1 8.03223 6.55521 8.03223 7.11667C8.03223 7.67812 8.48744 8.13333 9.04889 8.13333ZM15.1489 4.67667C15.7519 5.67618 16.5894 6.51366 17.5889 7.11667C16.5894 7.71968 15.7519 8.55716 15.1489 9.55667C14.5459 8.55716 13.7084 7.71968 12.7089 7.11667C13.7084 6.51366 14.5459 5.67618 15.1489 4.67667Z" fill="#C6D9FF"/>
<path d="M49.7147 50.8334C46.9087 50.8301 44.6347 48.5561 44.6314 45.7501C44.6314 45.1886 44.1762 44.7334 43.6147 44.7334C43.0533 44.7334 42.598 45.1886 42.598 45.7501C42.5947 48.5561 40.3207 50.8301 37.5147 50.8334C36.9533 50.8334 36.498 51.2886 36.498 51.8501C36.498 52.4115 36.9533 52.8667 37.5147 52.8667C40.3207 52.87 42.5947 55.1441 42.598 57.9501C42.598 58.5115 43.0533 58.9667 43.6147 58.9667C44.1762 58.9667 44.6314 58.5115 44.6314 57.9501C44.6347 55.1441 46.9087 52.87 49.7147 52.8667C50.2762 52.8667 50.7314 52.4115 50.7314 51.8501C50.7314 51.2886 50.2762 50.8334 49.7147 50.8334ZM43.6147 54.2901C43.0117 53.2906 42.1742 52.4531 41.1747 51.8501C42.1742 51.2471 43.0117 50.4096 43.6147 49.4101C44.2177 50.4096 45.0552 51.2471 46.0547 51.8501C45.0552 52.4531 44.2177 53.2906 43.6147 54.2901Z" fill="#C6D9FF"/>
<path d="M47.682 12.2C51.051 12.2 53.782 9.46898 53.782 6.1C53.782 2.73102 51.051 0 47.682 0C44.3131 0 41.582 2.73102 41.582 6.1C41.5853 9.46758 44.3145 12.1967 47.682 12.2ZM47.682 2.03333C49.928 2.03333 51.7487 3.85406 51.7487 6.1C51.7487 8.34594 49.928 10.1667 47.682 10.1667C45.4361 10.1667 43.6154 8.34594 43.6154 6.1C43.6154 3.85406 45.4361 2.03333 47.682 2.03333Z" fill="#C6D9FF"/>
<path d="M58.865 10.1667H52.765V12.2H58.865C59.4264 12.2 59.8816 12.6553 59.8816 13.2167V19.3167C59.8816 19.8782 59.4264 20.3334 58.865 20.3334C58.3035 20.3334 57.8483 19.8782 57.8483 19.3167V15.25C57.8483 14.6886 57.3931 14.2334 56.8316 14.2334H52.765C52.2035 14.2334 51.7483 14.6886 51.7483 15.25V26.6072C51.7486 26.8772 51.6413 27.1362 51.4504 27.327L47.9795 30.7979C47.5826 31.1949 47.5826 31.8385 47.9795 32.2355L52.642 36.8979C53.0388 37.2949 53.0388 37.9385 52.642 38.3355L52.4671 38.5093C52.0701 38.9062 51.4265 38.9062 51.0295 38.5093L44.7547 32.2345C44.3578 31.8375 44.3578 31.1939 44.7547 30.7969L47.3838 28.1678C47.7806 27.7708 47.7806 27.1273 47.3838 26.7302L44.3338 23.6802C43.9367 23.2834 43.2932 23.2834 42.8962 23.6802L38.8295 27.7469C38.6386 27.9378 38.5314 28.1968 38.5316 28.4667V36.6C38.5316 37.1615 38.0764 37.6167 37.515 37.6167C36.9535 37.6167 36.4983 37.1615 36.4983 36.6V27.2762C36.4981 27.0063 36.6053 26.7473 36.7962 26.5564L42.3004 21.0522C42.491 20.8615 42.5983 20.6031 42.5983 20.3334V15.25C42.5983 14.6886 42.1431 14.2334 41.5816 14.2334H35.4816C34.9202 14.2334 34.465 13.7782 34.465 13.2167V6.10005C34.465 5.53859 34.9202 5.08338 35.4816 5.08338C36.0431 5.08338 36.4983 5.53859 36.4983 6.10005V11.1834C36.4983 11.7448 36.9535 12.2 37.515 12.2H41.5816V10.1667H38.5316V6.10005C38.5316 4.41556 37.1661 3.05005 35.4816 3.05005C33.7972 3.05005 32.4316 4.41556 32.4316 6.10005V13.2167C32.4316 14.9012 33.7972 16.2667 35.4816 16.2667H40.565V19.9125L35.3586 25.1188C34.7847 25.6898 34.4629 26.4667 34.465 27.2762V36.6C34.465 38.2845 35.8305 39.65 37.515 39.65C39.1995 39.65 40.565 38.2845 40.565 36.6V28.8876L43.615 25.8376L45.2274 27.45L43.3171 29.3593C42.1259 30.5504 42.1257 32.4815 43.3167 33.6727C43.3168 33.6728 43.317 33.6729 43.3171 33.6731L49.592 39.9479C50.783 41.1386 52.7136 41.1386 53.9047 39.9479L54.0795 39.7741C55.2707 38.5831 55.2709 36.6519 54.0799 35.4607C54.0798 35.4606 54.0796 35.4605 54.0795 35.4604L50.1359 31.5167L52.888 28.7646C53.4624 28.1939 53.7842 27.4169 53.7816 26.6072V16.2667H55.815V19.3167C55.815 21.0012 57.1805 22.3667 58.865 22.3667C60.5495 22.3667 61.915 21.0012 61.915 19.3167V13.2167C61.915 11.5322 60.5495 10.1667 58.865 10.1667Z" fill="#C6D9FF"/>
<path d="M48.6984 5.08337H46.665V8.13337H48.6984V5.08337Z" fill="#C6D9FF"/>
<path d="M11.0818 29.4833C14.4508 29.4833 17.1818 26.7523 17.1818 23.3833C17.1818 20.0143 14.4508 17.2833 11.0818 17.2833C7.7128 17.2833 4.98178 20.0143 4.98178 23.3833C4.98509 26.7509 7.7142 29.48 11.0818 29.4833ZM11.0818 19.3167C13.3277 19.3167 15.1485 21.1374 15.1485 23.3833C15.1485 25.6293 13.3277 27.45 11.0818 27.45C8.83584 27.45 7.01512 25.6293 7.01512 23.3833C7.01512 21.1374 8.83584 19.3167 11.0818 19.3167Z" fill="url(#paint0_linear)"/>
<path d="M25.315 20.3333C23.6305 20.3333 22.265 21.6988 22.265 23.3833V27.45H17.1817V29.4833H23.2817C23.8432 29.4833 24.2984 29.0281 24.2984 28.4667V23.3833C24.2984 22.8219 24.7536 22.3667 25.315 22.3667C25.8765 22.3667 26.3317 22.8219 26.3317 23.3833V30.5C26.3317 31.0614 25.8765 31.5167 25.315 31.5167H17.1817C16.6203 31.5167 16.165 31.9719 16.165 32.5333V37.6167C16.165 37.8863 16.2723 38.1448 16.4629 38.3354L21.9672 43.8397C22.158 44.0306 22.2653 44.2896 22.265 44.5595V53.8833C22.265 54.4448 21.8098 54.9 21.2484 54.9C20.6869 54.9 20.2317 54.4448 20.2317 53.8833V45.75C20.2317 45.4803 20.1244 45.2218 19.9338 45.0312L15.8672 40.9645C15.4701 40.5677 14.8266 40.5677 14.4296 40.9645L11.3796 44.0145C10.9827 44.4116 10.9827 45.0551 11.3796 45.4521L13.8338 47.9063C14.0247 48.0972 14.132 48.3562 14.1317 48.6261V57.95C14.1317 58.5114 13.6765 58.9667 13.115 58.9667C12.5536 58.9667 12.0984 58.5114 12.0984 57.95V49.8167C12.0984 49.547 11.9911 49.2885 11.8005 49.0979L7.31292 44.6103C7.12204 44.4194 7.01478 44.1604 7.01504 43.8905V40.6667H9.04837C10.7329 40.6667 12.0984 39.3012 12.0984 37.6167C12.0984 35.9322 10.7329 34.5667 9.04837 34.5667H7.01504V31.5167H4.98171V35.5833C4.98171 36.1448 5.43692 36.6 5.99837 36.6H9.04837C9.60983 36.6 10.065 37.0552 10.065 37.6167C10.065 38.1781 9.60983 38.6333 9.04837 38.6333H3.96504C3.40358 38.6333 2.94837 38.1781 2.94837 37.6167V30.5C2.94837 29.9385 3.40358 29.4833 3.96504 29.4833V27.45C2.28055 27.45 0.915039 28.8155 0.915039 30.5V37.6167C0.915039 39.3012 2.28055 40.6667 3.96504 40.6667H4.98171V43.8905C4.97967 44.7 5.30145 45.4769 5.87536 46.0479L10.065 50.2376V57.95C10.065 59.6345 11.4305 61 13.115 61C14.7995 61 16.165 59.6345 16.165 57.95V48.6261C16.1676 47.8165 15.8458 47.0395 15.2714 46.4688L13.5359 44.7333L15.1484 43.1209L18.1984 46.1709V53.8833C18.1984 55.5678 19.5639 56.9333 21.2484 56.9333C22.9329 56.9333 24.2984 55.5678 24.2984 53.8833V44.5595C24.3009 43.7498 23.9791 42.9728 23.4047 42.4021L18.1984 37.1958V33.55H25.315C26.9995 33.55 28.365 32.1845 28.365 30.5V23.3833C28.365 21.6988 26.9995 20.3333 25.315 20.3333Z" fill="url(#paint1_linear)"/>
<path d="M14.1317 24.4V21.35H12.0984V23.3833H10.065V25.4166H13.115C13.6765 25.4166 14.1317 24.9614 14.1317 24.4Z" fill="url(#paint2_linear)"/>
</g>
<defs>
<linearGradient id="paint0_linear" x1="0.509721" y1="45.5905" x2="28.8184" y2="45.3366" gradientUnits="userSpaceOnUse">
<stop stop-color="#5529CF"/>
<stop offset="1" stop-color="#9745FF"/>
</linearGradient>
<linearGradient id="paint1_linear" x1="0.509721" y1="45.5905" x2="28.8184" y2="45.3366" gradientUnits="userSpaceOnUse">
<stop stop-color="#5529CF"/>
<stop offset="1" stop-color="#9745FF"/>
</linearGradient>
<linearGradient id="paint2_linear" x1="0.509721" y1="45.5905" x2="28.8184" y2="45.3366" gradientUnits="userSpaceOnUse">
<stop stop-color="#5529CF"/>
<stop offset="1" stop-color="#9745FF"/>
</linearGradient>
<clipPath id="clip0">
<rect width="61" height="61" fill="white" transform="translate(0.915039)"/>
</clipPath>
</defs>
</svg>
