<?xml version="1.0" encoding="iso-8859-1"?>
<!-- Generator: Adobe Illustrator 19.0.0, SVG Export Plug-In . SVG Version: 6.00 Build 0)  -->
<svg version="1.1" id="Capa_1" xmlns="http://www.w3.org/2000/svg" xmlns:xlink="http://www.w3.org/1999/xlink" x="0px" y="0px"
	 viewBox="0 0 512 512" style="enable-background:new 0 0 512 512;" xml:space="preserve">
<path style="fill:#FFBB4A;" d="M222.631,499.5v-64.394c0-2.75,2.25-5,5-5h39.514l6.055-95.666H92.889l10.34,163.388
	c0.232,3.67,3.428,6.671,7.107,6.671h117.295C224.881,504.5,222.631,502.25,222.631,499.5z"/>
<path style="fill:#B1E8FF;" d="M268.048,312.317c0.493-1.794,0.767-3.679,0.767-5.63c0-11.843-9.604-21.444-21.443-21.444
	c-4.293,0-8.293,1.268-11.646,3.443c-0.129-14.44-11.867-26.11-26.338-26.11c-1.752,0-3.463,0.176-5.119,0.502
	c-3.51-7.532-11.143-12.755-20-12.755c-10.125,0-18.652,6.828-21.244,16.129c-2.861-1.304-6.037-2.037-9.389-2.037
	c-9.994,0-18.475,6.472-21.488,15.454c-17.727,1.438-32.014,15.038-34.492,32.45h170.392V312.317z"/>
<g>
	<circle style="fill:#D7F7FF;" cx="259.15" cy="236.89" r="14.469"/>
	<circle style="fill:#D7F7FF;" cx="213.91" cy="183.37" r="16.277"/>
</g>
<path style="fill:#EF5A50;" d="M222.631,499.5v-17.726H102.213l1.016,16.054c0.232,3.67,3.43,6.671,7.107,6.671h117.295
	C224.881,504.5,222.631,502.25,222.631,499.5z"/>
<path style="opacity:0.1;enable-background:new    ;" d="M125.014,497.829l-10.34-163.388H92.889l10.34,163.388
	c0.232,3.67,3.428,6.671,7.107,6.671h21.785C128.441,504.5,125.246,501.499,125.014,497.829z"/>
<path style="fill:#FCC96C;" d="M297.16,324.44c0,5.5-4.5,10-10,10H78.928c-5.5,0-10-4.5-10-10v-2.124c0-5.5,4.5-10,10-10H287.16
	c5.5,0,10,4.5,10,10V324.44z"/>
<g style="opacity:0.1;">
	<path d="M96,324.44v-2.124c0-5.5,4.5-10,10-10H78.928c-5.5,0-10,4.5-10,10v2.124c0,5.5,4.5,10,10,10H106
		C100.5,334.44,96,329.94,96,324.44z"/>
</g>
<rect x="317.35" y="57.1" style="fill:#E6E9ED;" width="30.996" height="304.82"/>
<g>
	<path style="fill:#3EAF91;" d="M438.072,430.106h-78.91c-2.75,0-5-2.25-5-5v-58.194c0-2.75-2.25-5-5-5h-32.621c-2.75,0-5,2.25-5,5
		v58.194c0,2.75-2.25,5-5,5h-78.91c-2.75,0-5,2.25-5,5v19.414c0-2.75,2.25-5,5-5h210.441c2.75,0,5,2.25,5,5v-19.414
		C443.072,432.356,440.822,430.106,438.072,430.106z"/>
	<path style="fill:#3EAF91;" d="M338.018,7.5h-10.332c-5.683,0-10.332,4.649-10.332,10.333v83.693h30.996V17.833
		C348.35,12.149,343.701,7.5,338.018,7.5z"/>
</g>
<path style="fill:#08375E;" d="M443.072,499.5c0,2.75-2.25,5-5,5H227.631c-2.75,0-5-2.25-5-5v-44.979c0-2.75,2.25-5,5-5h210.441
	c2.75,0,5,2.25,5,5V499.5z"/>
<g style="opacity:0.1;">
	<path d="M244.559,499.5v-44.979c0-2.75,2.25-5,5-5h-21.928c-2.75,0-5,2.25-5,5V499.5c0,2.75,2.25,5,5,5h21.928
		C246.809,504.5,244.559,502.25,244.559,499.5z"/>
</g>
<path style="fill:#EF5A50;" d="M223.857,409.774c0,5.5-4.5,10-10,10H152.23c-5.5,0-10-4.5-10-10v-3.765c0-5.5,4.5-10,10-10h61.627
	c5.5,0,10,4.5,10,10V409.774z"/>
<path d="M259.152,258.86c12.113,0,21.969-9.856,21.969-21.97s-9.855-21.969-21.969-21.969c-12.113,0-21.969,9.855-21.969,21.969
	C237.184,249.004,247.039,258.86,259.152,258.86z M259.152,229.92c3.843,0,6.969,3.126,6.969,6.969c0,3.843-3.126,6.97-6.969,6.97
	c-3.843,0-6.969-3.127-6.969-6.97C252.184,233.047,255.31,229.92,259.152,229.92z"/>
<path d="M213.906,207.154c13.111,0,23.777-10.667,23.777-23.779c0-13.111-10.666-23.778-23.777-23.778
	c-13.111,0-23.777,10.667-23.777,23.778C190.129,196.487,200.795,207.154,213.906,207.154z M213.906,174.597
	c4.84,0,8.777,3.938,8.777,8.778c0,4.841-3.938,8.779-8.777,8.779c-4.84,0-8.777-3.938-8.777-8.779
	C205.129,178.535,209.066,174.597,213.906,174.597z"/>
<path d="M438.072,422.606H418c-4.143,0-7.5,3.358-7.5,7.5s3.357,7.5,7.5,7.5h17.572v4.414H230.131v-4.414h76.41
	c6.893,0,12.5-5.607,12.5-12.5v-55.694h27.621v55.694c0,6.893,5.607,12.5,12.5,12.5H383c4.143,0,7.5-3.358,7.5-7.5
	s-3.357-7.5-7.5-7.5h-21.338v-55.694c0-4.432-2.325-8.322-5.813-10.543V242c0-4.142-3.357-7.5-7.5-7.5s-7.5,3.358-7.5,7.5v112.412
	h-15.996V109.025h15.996V208c0,4.142,3.357,7.5,7.5,7.5s7.5-3.358,7.5-7.5V101.525v-44.43V17.833C355.85,8,347.851,0,338.018,0
	h-10.332c-9.833,0-17.832,8-17.832,17.833v39.263v44.43V356.37c-3.487,2.22-5.813,6.111-5.813,10.543v55.694h-28.906l0.375-5.927
	c13.033-2.151,23.008-13.494,23.008-27.127v-51.825c3.752-3.212,6.143-7.973,6.143-13.288v-2.124c0-9.649-7.851-17.5-17.5-17.5
	h-10.912c-0.969-15.091-13.547-27.074-28.877-27.074c-1.979,0-3.936,0.201-5.85,0.595c-4.47-13.483-17.226-23.263-32.135-23.263
	c-0.383,0-0.767,0.007-1.15,0.02c-5.496-7.593-14.41-12.273-23.969-12.273c-10.595,0-20.22,5.713-25.448,14.536
	c-1.7-0.295-3.432-0.444-5.185-0.444c-11.332,0-21.531,6.301-26.685,16.09c-16.878,3.143-30.448,15.726-35.271,31.813H78.928
	c-9.649,0-17.5,7.851-17.5,17.5v2.124c0,5.376,2.441,10.19,6.269,13.402c-0.079,0.435-0.126,0.881-0.126,1.338v50.371
	c0,13.633,9.975,24.976,23.008,27.127l5.165,81.623C96.229,505.983,102.64,512,110.336,512h327.736c6.893,0,12.5-5.607,12.5-12.5
	v-19.414v-25.565v-19.414C450.572,428.214,444.965,422.606,438.072,422.606z M324.853,17.833c0-1.535,1.297-2.833,2.832-2.833
	h10.332c1.535,0,2.832,1.297,2.832,2.833v76.193h-15.996V17.833z M227.631,422.606c-0.728,0-1.436,0.076-2.13,0.195
	c1.785-1.597,3.238-3.548,4.251-5.749h30.704l-0.352,5.554H227.631z M215.131,435.106v19.414v19.754H109.253l-3.621-57.222h30.704
	c2.77,6.022,8.844,10.222,15.895,10.222h61.627c1.596,0,3.135-0.233,4.604-0.635C216.401,428.869,215.131,431.838,215.131,435.106z
	 M149.73,409.774v-3.765c0-1.355,1.145-2.5,2.5-2.5h61.627c1.355,0,2.5,1.145,2.5,2.5v3.765c0,1.355-1.145,2.5-2.5,2.5H152.23
	C150.875,412.274,149.73,411.129,149.73,409.774z M276.518,400.761l3.723-58.82h3.277v47.612
	C283.518,394.47,280.656,398.721,276.518,400.761z M132.753,287.343c2.991-0.243,5.55-2.245,6.504-5.09
	c2.075-6.184,7.854-10.339,14.378-10.339c2.183,0,4.296,0.458,6.279,1.362c1.993,0.909,4.286,0.899,6.275-0.025
	c1.987-0.926,3.47-2.674,4.059-4.786c1.746-6.266,7.511-10.642,14.02-10.642c5.636,0,10.817,3.306,13.202,8.423
	c1.456,3.126,4.852,4.857,8.245,4.191c1.217-0.239,2.452-0.36,3.672-0.36c10.296,0,18.746,8.378,18.838,18.677
	c0.024,2.737,1.538,5.243,3.948,6.539c2.411,1.296,5.334,1.177,7.632-0.312c2.256-1.463,4.872-2.236,7.566-2.236
	c7.053,0,12.885,5.269,13.803,12.074H107.696C112.234,295.223,121.629,288.245,132.753,287.343z M76.428,322.317
	c0-1.355,1.145-2.5,2.5-2.5H287.16c1.355,0,2.5,1.145,2.5,2.5v2.124c0,1.355-1.145,2.5-2.5,2.5H251c-4.143,0-7.5,3.358-7.5,7.5
	s3.357,7.5,7.5,7.5h14.21l-3.805,60.112h-30.517c-1.8-7.747-8.744-13.543-17.031-13.543H152.23c-8.287,0-15.232,5.796-17.031,13.543
	h-30.517l-3.805-60.112h115.121c4.143,0,7.5-3.358,7.5-7.5s-3.357-7.5-7.5-7.5H78.928c-1.355,0-2.5-1.145-2.5-2.5V322.317z
	 M82.57,389.553V341.94h3.277l3.723,58.82C85.432,398.721,82.57,394.47,82.57,389.553z M110.202,489.274h104.929V497h-104.44
	L110.202,489.274z M435.572,497H230.131v-39.979h205.441V497z"/>
<path d="M199.82,274.073c-8.373,0-16.222,4.482-20.483,11.698c-2.106,3.567-0.923,8.165,2.645,10.272
	c1.196,0.707,2.51,1.043,3.807,1.043c2.565,0,5.065-1.317,6.465-3.687c1.6-2.709,4.429-4.326,7.566-4.326
	c3.139,0,5.969,1.618,7.569,4.327c2.108,3.566,6.705,4.75,10.273,2.641c3.565-2.107,4.748-6.706,2.641-10.272
	C216.039,278.555,208.191,274.074,199.82,274.073z"/>
<path d="M155.049,280.459c-6.758,0-13.094,3.619-16.537,9.443c-2.107,3.566-0.925,8.165,2.641,10.272
	c1.198,0.708,2.512,1.044,3.81,1.044c2.564,0,5.064-1.317,6.464-3.685c0.768-1.299,2.122-2.075,3.622-2.075
	c1.503,0,2.858,0.776,3.627,2.075c2.108,3.567,6.71,4.748,10.272,2.64c3.565-2.108,4.748-6.707,2.64-10.273
	C168.145,284.078,161.809,280.46,155.049,280.459z"/>
<g>
</g>
<g>
</g>
<g>
</g>
<g>
</g>
<g>
</g>
<g>
</g>
<g>
</g>
<g>
</g>
<g>
</g>
<g>
</g>
<g>
</g>
<g>
</g>
<g>
</g>
<g>
</g>
<g>
</g>
</svg>
