<?xml version="1.0" encoding="iso-8859-1"?>
<!-- Generator: Adobe Illustrator 19.0.0, SVG Export Plug-In . SVG Version: 6.00 Build 0)  -->
<svg version="1.1" id="Capa_1" xmlns="http://www.w3.org/2000/svg" xmlns:xlink="http://www.w3.org/1999/xlink" x="0px" y="0px"
	 viewBox="0 0 512.002 512.002" style="enable-background:new 0 0 512.002 512.002;" xml:space="preserve">
<rect x="8.533" y="213.334" style="fill:#E97424;" width="307.2" height="34.133"/>
<polygon style="fill:#FFC117;" points="25.6,247.467 42.667,503.467 281.6,503.467 298.667,247.467 "/>
<path style="fill:#51ABD8;" d="M247.467,213.334c-0.017-21.743-13.764-41.097-34.278-48.282
	c15.753-23.484,9.481-55.287-14.003-71.04s-55.287-9.481-71.04,14.003c-5.658,8.431-8.678,18.364-8.678,28.518
	c0,0.674,0.077,1.331,0.102,1.997c-41.199-9.591-82.381,16.026-91.972,57.225c-1.34,5.76-2.014,11.665-1.997,17.579h42.667v119.467
	c0,9.429,7.637,17.067,17.067,17.067l0,0c9.429,0,17.067-7.637,17.067-17.067v-59.733c0-9.429,7.637-17.067,17.067-17.067l0,0
	c9.429,0,17.067,7.637,17.067,17.067v17.067c0,9.429,7.637,17.067,17.067,17.067l0,0c9.429,0,17.067-7.637,17.067-17.067v-76.8
	H247.467z"/>
<path style="opacity:0.3;fill:#E97424;enable-background:new    ;" d="M264.311,247.467c0.111,2.833,0.222,5.675,0.222,8.533
	c0,117.82-99.337,213.333-221.867,213.333c-0.768,0-1.519-0.051-2.278-0.051l2.278,34.185H281.6l17.067-256H264.311z"/>
<rect x="247.467" y="418.134" style="fill:#E6E6E6;" width="256" height="85.333"/>
<path style="fill:#51ABD8;" d="M247.467,418.134v-17.067c0-9.429,7.637-17.067,17.067-17.067h187.733
	c9.429,0,17.067-7.637,17.067-17.067l0,0c0-9.429-7.637-17.067-17.067-17.067h-102.4c-9.429,0-17.067-7.637-17.067-17.067l0,0
	c0-9.429,7.637-17.067,17.067-17.067H486.4c9.429,0,17.067,7.637,17.067,17.067v85.333H247.467z"/>
<rect x="366.933" y="170.667" style="fill:#754C24;" width="34.133" height="145.067"/>
<polygon style="fill:#E6E6E6;" points="264.533,8.534 503.467,8.534 486.4,128.001 281.6,128.001 "/>
<rect x="281.6" y="128.001" style="fill:#A67C52;" width="204.8" height="42.667"/>
<rect x="366.933" y="349.867" style="fill:#754C24;" width="34.133" height="34.133"/>
<g>
	
		<ellipse transform="matrix(-0.7071 -0.7071 0.7071 -0.7071 183.7593 297.9752)" style="fill:#E7F4FD;" cx="153.592" cy="110.93" rx="8.533" ry="12.8"/>
	
		<ellipse transform="matrix(-0.7071 -0.7071 0.7071 -0.7071 -4.1457 339.621)" style="fill:#E7F4FD;" cx="68.265" cy="170.669" rx="8.533" ry="12.8"/>
</g>
<path d="M486.4,307.201h-76.8v-128h76.8c4.71,0,8.533-3.823,8.533-8.533v-42.069L511.915,9.746c0.666-4.668-2.569-8.986-7.236-9.66
	c-0.401-0.051-0.802-0.085-1.212-0.085H264.533c-4.71,0-8.533,3.823-8.533,8.533c0,0.41,0.026,0.811,0.085,1.212l16.981,118.852
	v42.069c0,4.71,3.823,8.533,8.533,8.533h76.8v128h-8.533c-14.14,0-25.6,11.46-25.6,25.6s11.46,25.6,25.6,25.6h8.533v17.067h-59.733
	l7.962-119.467h9.105c4.71,0,8.533-3.823,8.533-8.533v-34.133c0-4.71-3.823-8.533-8.533-8.533H255.36
	c-2.697-18.492-13.875-34.662-30.225-43.716c13.525-30.089,0.102-65.451-29.978-78.976s-65.451-0.102-78.976,29.978
	c-2.347,5.222-3.934,10.752-4.71,16.427c-46.78-5.06-88.806,28.757-93.867,75.537c-0.026,0.256-0.051,0.503-0.077,0.751H8.533
	c-4.71,0-8.533,3.823-8.533,8.533v34.133c0,4.71,3.823,8.533,8.533,8.533h9.088l16.512,248.03c0.299,4.489,4.028,7.979,8.533,7.97
	h460.8c4.71,0,8.533-3.823,8.533-8.533V332.801C512,318.661,500.54,307.201,486.4,307.201z M307.2,17.067v51.2h17.067v-51.2h17.067
	v17.067H358.4V17.067h51.2v25.6h17.067v-25.6h17.067v51.2H460.8v-51.2h32.828l-14.626,102.4H288.998l-14.626-102.4H307.2z
	 M290.133,136.534h187.733v25.6H290.133V136.534z M375.467,179.201h17.067v128h-17.067V179.201z M341.333,332.801
	c0-4.71,3.823-8.533,8.533-8.533H486.4c4.71,0,8.533,3.823,8.533,8.533v76.8H256v-8.533c0-4.71,3.823-8.533,8.533-8.533h187.733
	c14.14,0,25.6-11.46,25.6-25.6s-11.46-25.6-25.6-25.6l0,0h-102.4C345.156,341.334,341.333,337.511,341.333,332.801z
	 M452.267,358.401c4.71,0,8.533,3.823,8.533,8.533s-3.823,8.533-8.533,8.533H409.6v-17.067H452.267z M375.467,358.401h17.067v17.067
	h-17.067V358.401z M307.2,238.934h-128v-17.067h128V238.934z M117.658,146.842c0.094,0,0.188,0,0.282,0
	c10.01,2.355,19.362,6.929,27.366,13.389l10.735-13.269c-8.209-6.588-17.57-11.597-27.597-14.797
	c2.449-23.373,23.381-40.337,46.763-37.888c23.373,2.449,40.337,23.381,37.888,46.763c-0.725,6.903-3.123,13.525-6.997,19.285
	c-2.62,3.917-1.57,9.216,2.347,11.836c0.597,0.401,1.246,0.725,1.92,0.964c14.123,4.983,24.593,17.007,27.597,31.676h-67.294
	c-4.71,0-8.533,3.823-8.533,8.533v76.8c0,4.71-3.823,8.533-8.533,8.533s-8.533-3.823-8.533-8.533v-17.067
	c0-14.14-11.46-25.6-25.6-25.6s-25.6,11.46-25.6,25.6v59.733c0,4.71-3.823,8.533-8.533,8.533c-4.71,0-8.533-3.823-8.533-8.533
	V213.334c0-4.71-3.823-8.533-8.533-8.533H34.705c4.634-37.325,38.647-63.829,75.972-59.196
	C113.024,145.895,115.354,146.313,117.658,146.842z M17.067,221.867h42.667v17.067H17.067V221.867z M34.722,256.001h25.011v76.8
	c0,14.14,11.46,25.6,25.6,25.6s25.6-11.46,25.6-25.6v-59.733c0-4.71,3.823-8.533,8.533-8.533c4.71,0,8.533,3.823,8.533,8.533v17.067
	c0,14.14,11.46,25.6,25.6,25.6c14.14,0,25.6-11.46,25.6-25.6v-34.133h110.345L281.6,375.467h-17.067c-14.14,0-25.6,11.46-25.6,25.6
	v93.867H50.654L34.722,256.001z M494.933,494.934h-25.6v-42.667h-17.067v42.667h-25.6v-42.667H409.6v42.667H384v-42.667h-17.067
	v42.667h-25.6v-42.667h-17.067v42.667h-25.6v-42.667H281.6v42.667H256v-68.267h238.933V494.934z"/>
<polygon points="17.067,119.467 34.133,119.467 34.133,102.401 51.2,102.401 51.2,85.334 34.133,85.334 34.133,68.267 
	17.067,68.267 17.067,85.334 0,85.334 0,102.401 17.067,102.401 "/>
<polygon points="486.4,273.067 486.4,256.001 503.467,256.001 503.467,238.934 486.4,238.934 486.4,221.867 469.333,221.867 
	469.333,238.934 452.267,238.934 452.267,256.001 469.333,256.001 469.333,273.067 "/>
<polygon points="145.067,51.201 162.133,51.201 162.133,34.134 179.2,34.134 179.2,17.067 162.133,17.067 162.133,0.001 
	145.067,0.001 145.067,17.067 128,17.067 128,34.134 145.067,34.134 "/>
<rect x="307.2" y="85.334" width="17.067" height="17.067"/>
<g>
</g>
<g>
</g>
<g>
</g>
<g>
</g>
<g>
</g>
<g>
</g>
<g>
</g>
<g>
</g>
<g>
</g>
<g>
</g>
<g>
</g>
<g>
</g>
<g>
</g>
<g>
</g>
<g>
</g>
</svg>
