<?xml version="1.0" encoding="iso-8859-1"?>
<!-- Generator: Adobe Illustrator 19.0.0, SVG Export Plug-In . SVG Version: 6.00 Build 0)  -->
<svg version="1.1" id="Capa_1" xmlns="http://www.w3.org/2000/svg" xmlns:xlink="http://www.w3.org/1999/xlink" x="0px" y="0px"
	 viewBox="0 0 512 512" style="enable-background:new 0 0 512 512;" xml:space="preserve">
<g>
	<path style="fill:#DFD7D5;" d="M287,512c-8.291,0-15-6.709-15-15v-30c0-8.291,6.709-15,15-15s15,6.709,15,15v30
		C302,505.291,295.291,512,287,512z"/>
	<path style="fill:#DFD7D5;" d="M347,512c-8.291,0-15-6.709-15-15v-30c0-8.291,6.709-15,15-15s15,6.709,15,15v30
		C362,505.291,355.291,512,347,512z"/>
</g>
<g>
	<path style="fill:#D2C5C2;" d="M407,512c-8.291,0-15-6.709-15-15v-30c0-8.291,6.709-15,15-15s15,6.709,15,15v30
		C422,505.291,415.291,512,407,512z"/>
	<path style="fill:#D2C5C2;" d="M467,512c-8.291,0-15-6.709-15-15v-30c0-8.291,6.709-15,15-15s15,6.709,15,15v30
		C482,505.291,475.291,512,467,512z"/>
</g>
<path style="fill:#68544F;" d="M150,15v213.5c0,8.399-6.599,15-15,15s-15-6.601-15-15V15c0-8.401,6.599-15,15-15S150,6.599,150,15z"
	/>
<g>
	<circle style="fill:#EDE9E8;" cx="75.73" cy="77" r="15"/>
	<path style="fill:#EDE9E8;" d="M45,212c-24.814,0-45-20.186-45-45s20.186-45,45-45s45,20.186,45,45S69.814,212,45,212z"/>
</g>
<path style="fill:#53433F;" d="M150,15v213.5c0,8.399-6.599,15-15,15V0C143.401,0,150,6.599,150,15z"/>
<path style="fill:#68544F;" d="M392,15v392c0,8.399-6.599,15-15,15s-15-6.601-15-15V15c0-8.401,6.599-15,15-15S392,6.599,392,15z"/>
<path style="fill:#53433F;" d="M392,15v392c0,8.399-6.599,15-15,15V0C385.401,0,392,6.599,392,15z"/>
<path style="fill:#25D9F8;" d="M437,392H317c-41.4,0-75,33.6-75,75c0,8.399,6.599,15,15,15h240c8.401,0,15-6.601,15-15
	C512,425.6,478.4,392,437,392z"/>
<path style="fill:#00C0F1;" d="M512,467c0,8.399-6.599,15-15,15H377v-90h60C478.4,392,512,425.6,512,467z"/>
<path style="fill:#EDE9E8;" d="M240,302c0,6.299-0.601,12.299-1.8,17.999c-1.5,8.101-9.6,13.5-17.701,11.7l-85.499-0.3l-112.5-0.3
	C21,331.7,19.2,332,17.701,332C11.4,332,5.7,328.1,3.3,322.099C1.199,315.5,0,308.899,0,302c0-33.001,27.001-60,60-60
	c6.899,0,13.5,1.199,20.099,3.3C93.9,228.5,113.4,217.1,135,213.5c4.799-1.199,9.901-1.5,15-1.5C199.501,212,240,252.499,240,302z"
	/>
<path style="fill:#DFD7D5;" d="M240,302c0,6.299-0.601,12.299-1.8,17.999c-1.5,8.101-9.6,13.5-17.701,11.7l-85.499-0.3V213.5
	c4.799-1.199,9.901-1.5,15-1.5C199.501,212,240,252.499,240,302z"/>
<path style="fill:#FDBF00;" d="M239.7,319.399l-30,180C208.5,506.6,202.2,512,195,512H45c-7.2,0-13.5-5.4-14.7-12.601l-30-180H239.7
	z"/>
<path style="fill:#FF9F00;" d="M239.7,319.399l-30,180C208.5,506.6,202.2,512,195,512h-60V319.399H239.7z"/>
<path style="fill:#68544F;" d="M180,362c0,27.9-19.2,51.299-45,57.9c-4.799,1.5-9.901,2.1-15,2.1c-32.999,0-60-27.001-60-60
	c0-8.401,6.599-15,15-15s15,6.599,15,15c0,16.5,13.5,30,30,30c5.4,0,10.499-1.5,15-4.2c9-5.099,15-14.7,15-25.8
	c0-8.401,6.599-15,15-15S180,353.599,180,362z"/>
<path style="fill:#53433F;" d="M180,362c0,27.9-19.2,51.299-45,57.9v-32.1c9-5.099,15-14.7,15-25.8c0-8.401,6.599-15,15-15
	S180,353.599,180,362z"/>
<g>
</g>
<g>
</g>
<g>
</g>
<g>
</g>
<g>
</g>
<g>
</g>
<g>
</g>
<g>
</g>
<g>
</g>
<g>
</g>
<g>
</g>
<g>
</g>
<g>
</g>
<g>
</g>
<g>
</g>
</svg>
