<?xml version="1.0" encoding="iso-8859-1"?>
<!-- Generator: Adobe Illustrator 19.0.0, SVG Export Plug-In . SVG Version: 6.00 Build 0)  -->
<svg version="1.1" id="Capa_1" xmlns="http://www.w3.org/2000/svg" xmlns:xlink="http://www.w3.org/1999/xlink" x="0px" y="0px"
	 viewBox="0 0 512 512" style="enable-background:new 0 0 512 512;" xml:space="preserve">
<path style="fill:#303C42;" d="M501.333,0H10.667C4.771,0,0,4.771,0,10.667v42.667C0,59.229,4.771,64,10.667,64h10.667v437.333
	C21.333,507.229,26.104,512,32,512c14.177,0,21.417-8.271,26.708-14.302c4.656-5.313,6.51-7.031,10.677-7.031
	c4.156,0,6.01,1.719,10.667,7.031C85.344,503.729,92.583,512,106.771,512c14.177,0,21.708-8.615,26.698-14.313
	c4.635-5.302,6.49-7.021,10.625-7.021c4.115,0,5.958,1.719,10.594,7.021c4.969,5.698,12.49,14.313,26.646,14.313
	c3.698,0,7.125-1.917,9.073-5.063c1.948-3.146,2.125-7.073,0.469-10.375l-81.229-162.458
	c38.927-28.875,65.917-72.063,74.604-119.875L211.564,64h88.872l27.314,150.229c8.688,47.813,35.677,91,74.594,119.865
	l-81.26,162.083c-0.969,1.927-1.281,4.49-0.979,6.625c0.729,5.271,5.24,9.198,10.563,9.198c14.177,0,21.417-8.271,26.708-14.302
	c4.656-5.313,6.51-7.031,10.677-7.031c4.156,0,6.01,1.719,10.667,7.031C384.01,503.729,391.25,512,405.438,512
	c14.177,0,21.708-8.615,26.698-14.313c4.635-5.302,6.49-7.021,10.625-7.021c4.115,0,5.958,1.719,10.594,7.021
	C458.323,503.385,465.844,512,480,512c5.896,0,10.667-4.771,10.667-10.667V64h10.667C507.229,64,512,59.229,512,53.333V10.667
	C512,4.771,507.229,0,501.333,0z"/>
<path style="fill:#B72025;" d="M154.25,471.01c-2.948-1.042-6.313-1.677-10.156-1.677c-14.167,0-21.698,8.615-26.688,14.313
	c-4.635,5.302-6.49,7.021-10.635,7.021c-4.167,0-6.021-1.719-10.677-7.031c-5.292-6.031-12.531-14.302-26.708-14.302
	c-14.188,0-21.427,8.271-26.719,14.302V333.621c14.495,5.611,33.294,7.25,46.689,7.609L154.25,471.01z"/>
<path id="SVGCleanerId_0" style="fill:#B72025;" d="M163.271,210.417c-8.04,44.211-33.775,83.872-70.652,109.49
	c-25.342-0.493-47.768-6.077-49.952-10.573V64h147.224L163.271,210.417z"/>
<g>
	<path id="SVGCleanerId_0_1_" style="fill:#B72025;" d="M163.271,210.417c-8.04,44.211-33.775,83.872-70.652,109.49
		c-25.342-0.493-47.768-6.077-49.952-10.573V64h147.224L163.271,210.417z"/>
</g>
<g>
	<path style="fill:#B72025;" d="M442.76,469.333c-14.167,0-21.698,8.615-26.688,14.313c-4.635,5.302-6.49,7.021-10.635,7.021
		c-4.167,0-6.021-1.719-10.677-7.031c-5.292-6.031-12.531-14.302-26.708-14.302c-4.031,0-7.51,0.667-10.531,1.76l65.111-129.863
		c13.393-0.358,32.202-1.997,46.702-7.609v149.931C464.354,477.854,456.844,469.333,442.76,469.333z"/>
	<path style="fill:#B72025;" d="M469.333,309.167c-2.371,4.697-24.702,10.247-49.952,10.74
		c-36.878-25.617-62.612-65.279-70.652-109.49L322.109,64h147.224V309.167z"/>
</g>
<rect x="21.333" y="21.333" style="fill:#616261;" width="469.333" height="21.333"/>
<linearGradient id="SVGID_1_" gradientUnits="userSpaceOnUse" x1="-42.9784" y1="645.2094" x2="-37.1384" y2="639.3704" gradientTransform="matrix(21.3333 0 0 -21.3333 996.3334 13791.667)">
	<stop  offset="0" style="stop-color:#010101;stop-opacity:0.1"/>
	<stop  offset="1" style="stop-color:#010101;stop-opacity:0"/>
</linearGradient>
<polygon style="fill:url(#SVGID_1_);" points="189.891,64 42.667,64 167.242,188.576 "/>
<g>
	<path style="opacity:0.1;fill:#010101;enable-background:new    ;" d="M66.29,339.37c-4.086-0.581-8.201-1.324-12.201-2.275
		l15.561,132.277c13.979,0.116,21.189,8.275,26.443,14.263c4.367,4.983,6.332,6.737,9.988,6.944L66.29,339.37z"/>
	<path style="opacity:0.1;fill:#010101;enable-background:new    ;" d="M66.639,317.585c0,0,14.532-85.221,17.361-116.696
		C87.719,159.497,94.815,64,94.815,64H64l-9.651,250.936C57.882,315.91,61.979,316.822,66.639,317.585z"/>
	<path style="opacity:0.1;fill:#010101;enable-background:new    ;" d="M85.862,341.053c-2.471-0.102-4.911-0.19-7.612-0.396
		c8.734,30.117,31.079,106.984,41.365,140.596c4.251-4.658,10.345-9.704,19.685-11.193L85.862,341.053z"/>
	<path style="opacity:0.1;fill:#010101;enable-background:new    ;" d="M128.427,64c-12.148,89.333-49.496,255.145-49.496,255.145
		c2.508,0.264,2.571,0.218,5.215,0.387c10.353-19.486,27.986-62.926,32.133-82.644C120.111,218.667,154.509,95.456,161.29,64
		H128.427z"/>
	<path style="opacity:0.1;fill:#010101;enable-background:new    ;" d="M445.71,339.37c4.086-0.581,8.201-1.324,12.201-2.275
		l-15.561,132.277c-13.979,0.116-21.189,8.275-26.443,14.263c-4.367,4.983-6.332,6.737-9.988,6.944L445.71,339.37z"/>
	<path style="opacity:0.1;fill:#010101;enable-background:new    ;" d="M445.361,317.585c0,0-14.532-85.221-17.361-116.696
		C424.281,159.497,417.185,64,417.185,64H448l9.651,250.936C454.118,315.91,450.021,316.822,445.361,317.585z"/>
	<path style="opacity:0.1;fill:#010101;enable-background:new    ;" d="M426.138,341.053c2.471-0.102,4.911-0.19,7.612-0.396
		c-8.734,30.117-31.079,106.984-41.365,140.596c-4.251-4.658-10.345-9.704-19.685-11.193L426.138,341.053z"/>
	<path style="opacity:0.1;fill:#010101;enable-background:new    ;" d="M383.573,64c12.148,89.333,49.496,255.145,49.496,255.145
		c-2.508,0.264-2.571,0.218-5.215,0.387c-10.353-19.486-27.986-62.926-32.133-82.644C391.889,218.667,357.491,95.456,350.71,64
		H383.573z"/>
</g>
<linearGradient id="SVGID_2_" gradientUnits="userSpaceOnUse" x1="-29.877" y1="645.2116" x2="-22.9681" y2="638.3027" gradientTransform="matrix(21.3333 0 0 -21.3333 996.3334 13791.667)">
	<stop  offset="0" style="stop-color:#010101;stop-opacity:0.1"/>
	<stop  offset="1" style="stop-color:#010101;stop-opacity:0"/>
</linearGradient>
<polygon style="fill:url(#SVGID_2_);" points="322.109,64 469.499,211.39 469.499,64 "/>
<linearGradient id="SVGID_3_" gradientUnits="userSpaceOnUse" x1="-48.9177" y1="641.3484" x2="-21.1312" y2="628.3866" gradientTransform="matrix(21.3333 0 0 -21.3333 996.3334 13791.667)">
	<stop  offset="0" style="stop-color:#FFFFFF;stop-opacity:0.2"/>
	<stop  offset="1" style="stop-color:#FFFFFF;stop-opacity:0"/>
</linearGradient>
<path style="fill:url(#SVGID_3_);" d="M501.333,0H10.667C4.771,0,0,4.771,0,10.667v42.667C0,59.229,4.771,64,10.667,64h10.667
	v437.333C21.333,507.229,26.104,512,32,512c14.177,0,21.417-8.271,26.708-14.302c4.656-5.313,6.51-7.031,10.677-7.031
	c4.156,0,6.01,1.719,10.667,7.031C85.344,503.729,92.583,512,106.771,512c14.177,0,21.708-8.615,26.698-14.313
	c4.635-5.302,6.49-7.021,10.625-7.021c4.115,0,5.958,1.719,10.594,7.021c4.969,5.698,12.49,14.313,26.646,14.313
	c3.698,0,7.125-1.917,9.073-5.063c1.948-3.146,2.125-7.073,0.469-10.375l-81.229-162.458
	c38.927-28.875,65.917-72.063,74.604-119.875L211.564,64h88.872l27.314,150.229c8.688,47.813,35.677,91,74.594,119.865
	l-81.26,162.083c-0.969,1.927-1.281,4.49-0.979,6.625c0.729,5.271,5.24,9.198,10.563,9.198c14.177,0,21.417-8.271,26.708-14.302
	c4.656-5.313,6.51-7.031,10.677-7.031c4.156,0,6.01,1.719,10.667,7.031C384.01,503.729,391.25,512,405.438,512
	c14.177,0,21.708-8.615,26.698-14.313c4.635-5.302,6.49-7.021,10.625-7.021c4.115,0,5.958,1.719,10.594,7.021
	C458.323,503.385,465.844,512,480,512c5.896,0,10.667-4.771,10.667-10.667V64h10.667C507.229,64,512,59.229,512,53.333V10.667
	C512,4.771,507.229,0,501.333,0z"/>
<g>
</g>
<g>
</g>
<g>
</g>
<g>
</g>
<g>
</g>
<g>
</g>
<g>
</g>
<g>
</g>
<g>
</g>
<g>
</g>
<g>
</g>
<g>
</g>
<g>
</g>
<g>
</g>
<g>
</g>
</svg>
