<?xml version="1.0" encoding="iso-8859-1"?>
<!-- Generator: Adobe Illustrator 19.0.0, SVG Export Plug-In . SVG Version: 6.00 Build 0)  -->
<svg version="1.1" id="Capa_1" xmlns="http://www.w3.org/2000/svg" xmlns:xlink="http://www.w3.org/1999/xlink" x="0px" y="0px"
	 viewBox="0 0 512 512" style="enable-background:new 0 0 512 512;" xml:space="preserve">
<path style="fill:#FEF0FF;" d="M504.5,26.914v456.23c0,10.722-8.692,19.414-19.414,19.414H356.953
	c-8.611,0-15.902-5.612-18.443-13.373c-2.541,7.762-9.832,13.373-18.443,13.373H191.934c-8.611,0-15.902-5.612-18.443-13.373
	c-2.541,7.762-9.832,13.373-18.443,13.373H26.914c-10.722,0-19.414-8.692-19.414-19.414V26.914C7.5,16.192,16.192,7.5,26.914,7.5
	h128.133c4.664,0,8.941,1.646,12.286,4.389c3.613,2.963,8.701,2.963,12.315,0c3.345-2.743,7.622-4.389,12.286-4.389h128.133
	c4.664,0,8.941,1.646,12.286,4.389c3.613,2.963,8.701,2.963,12.315,0c3.345-2.743,7.622-4.389,12.286-4.389h128.133
	C495.808,7.5,504.5,16.192,504.5,26.914z"/>
<path style="fill:#FAEDE0;" d="M504.5,26.914v456.23c0,10.722-8.692,19.414-19.414,19.414h-31.063
	c10.722,0,19.414-8.692,19.414-19.414V26.914c0-10.722-8.692-19.414-19.414-19.414h31.063C495.808,7.5,504.5,16.192,504.5,26.914z"
	/>
<path style="fill:#F8DBB8;" d="M504.5,465.995v19.091c0,10.722-8.692,19.414-19.414,19.414H356.953
	c-4.664,0-8.941-1.646-12.286-4.389c-3.613-2.963-8.701-2.963-12.315,0c-3.345,2.743-7.622,4.389-12.286,4.389H191.934
	c-4.664,0-8.941-1.646-12.286-4.389c-3.613-2.963-8.701-2.963-12.315,0c-3.345,2.743-7.622,4.389-12.286,4.389H26.914
	c-10.722,0-19.414-8.692-19.414-19.414v-19.091c0-10.722,8.692-19.414,19.414-19.414h128.133c4.664,0,8.941,1.646,12.286,4.389
	c3.613,2.963,8.701,2.963,12.315,0c3.345-2.743,7.622-4.389,12.286-4.389h128.133c4.664,0,8.941,1.646,12.286,4.389
	c3.613,2.963,8.701,2.963,12.315,0c3.345-2.743,7.622-4.389,12.286-4.389h128.133C495.808,446.581,504.5,455.273,504.5,465.995z"/>
<path style="fill:#EBC9A0;" d="M504.5,465.995v19.091c0,10.722-8.692,19.414-19.414,19.414h-31.063
	c10.722,0,19.414-8.692,19.414-19.414v-19.091c0-0.382-0.035-0.756-0.057-1.133c0.022-0.377,0.057-0.75,0.057-1.132v-17.149h11.648
	C495.808,446.581,504.5,455.273,504.5,465.995z"/>
<path d="M512,26.914v439.082v9.378v9.712c0,14.84-12.073,26.914-26.914,26.914H356.953c-6.2,0-12.253-2.163-17.042-6.09
	c-0.853-0.699-1.951-0.697-2.803,0c-4.789,3.927-10.842,6.09-17.042,6.09H191.934c-6.2,0-12.253-2.163-17.042-6.09
	c-0.853-0.699-1.952-0.697-2.803,0c-4.789,3.927-10.842,6.09-17.042,6.09H26.914C12.073,512,0,499.926,0,485.086v-9.712v-9.378
	V114.763c0-4.142,3.357-7.5,7.5-7.5s7.5,3.358,7.5,7.5v327.108c3.594-1.782,7.638-2.789,11.914-2.789h128.133
	c6.2,0,12.253,2.163,17.042,6.09c0.853,0.699,1.952,0.697,2.803,0c4.789-3.927,10.842-6.09,17.042-6.09h128.133
	c6.2,0,12.253,2.163,17.042,6.09c0.853,0.699,1.952,0.697,2.803,0c4.789-3.927,10.842-6.09,17.042-6.09h29.121
	c4.143,0,7.5,3.358,7.5,7.5s-3.357,7.5-7.5,7.5h-29.121c-2.781,0-5.386,0.93-7.53,2.688c-6.426,5.27-15.4,5.27-21.826,0
	c-2.145-1.759-4.749-2.688-7.53-2.688H191.934c-2.781,0-5.386,0.93-7.53,2.688c-6.427,5.27-15.401,5.27-21.826,0
	c-2.145-1.759-4.749-2.688-7.53-2.688H26.914c-6.569,0-11.914,5.345-11.914,11.914v9.378v9.712C15,491.655,20.345,497,26.914,497
	h128.133c2.781,0,5.386-0.93,7.53-2.688c6.427-5.27,15.401-5.27,21.826,0c2.145,1.759,4.749,2.688,7.53,2.688h128.133
	c2.781,0,5.386-0.93,7.53-2.688c6.426-5.27,15.4-5.27,21.826,0c2.145,1.759,4.749,2.688,7.53,2.688h128.133
	c6.569,0,11.914-5.345,11.914-11.914v-9.712v-9.378c0-6.569-5.345-11.914-11.914-11.914H415.68c-4.143,0-7.5-3.358-7.5-7.5
	s3.357-7.5,7.5-7.5h69.405c4.276,0,8.32,1.007,11.914,2.789V26.914C497,20.345,491.655,15,485.086,15H356.953
	c-2.781,0-5.386,0.93-7.53,2.688c-6.426,5.27-15.4,5.27-21.826,0c-2.145-1.759-4.749-2.688-7.53-2.688H191.934
	c-2.781,0-5.386,0.93-7.53,2.688c-6.427,5.27-15.401,5.27-21.826,0c-2.145-1.759-4.749-2.688-7.53-2.688H26.914
	C20.345,15,15,20.345,15,26.914v59.213c0,4.142-3.357,7.5-7.5,7.5S0,90.269,0,86.127V26.914C0,12.074,12.073,0,26.914,0h128.133
	c6.2,0,12.253,2.163,17.042,6.09c0.853,0.699,1.952,0.697,2.803,0C179.681,2.163,185.733,0,191.934,0h128.133
	c6.2,0,12.253,2.163,17.042,6.09c0.853,0.699,1.952,0.697,2.803,0C344.7,2.163,350.753,0,356.953,0h128.133
	C499.927,0,512,12.074,512,26.914z M240.342,246.247c1.465,1.465,3.384,2.197,5.304,2.197c1.919,0,3.839-0.732,5.304-2.197
	l5.051-5.051l5.051,5.051c1.465,1.464,3.385,2.197,5.304,2.197s3.839-0.732,5.304-2.197c2.929-2.929,2.929-7.678,0-10.606
	l-5.051-5.051l5.051-5.051c2.929-2.929,2.929-7.677,0-10.606s-7.677-2.93-10.607,0L256,219.982l-5.051-5.051
	c-2.93-2.929-7.678-2.929-10.607,0s-2.929,7.678,0,10.606l5.051,5.051l-5.051,5.051
	C237.413,238.569,237.413,243.318,240.342,246.247z M95.384,246.247c1.465,1.464,3.385,2.197,5.304,2.197s3.839-0.732,5.304-2.197
	l5.05-5.05l5.05,5.05c1.465,1.465,3.384,2.197,5.304,2.197c1.919,0,3.839-0.732,5.304-2.197c2.929-2.929,2.929-7.677,0-10.606
	l-5.051-5.051l5.051-5.051c2.929-2.929,2.929-7.678,0-10.606c-2.93-2.929-7.678-2.929-10.607,0l-5.05,5.05l-5.05-5.05
	c-2.929-2.929-7.677-2.93-10.607,0c-2.929,2.929-2.929,7.678,0,10.606l5.051,5.051l-5.051,5.051
	C92.455,238.569,92.455,243.318,95.384,246.247z M385.301,246.247c1.465,1.464,3.385,2.197,5.304,2.197s3.839-0.732,5.304-2.197
	l5.05-5.05l5.05,5.05c1.465,1.465,3.384,2.197,5.304,2.197c1.919,0,3.839-0.732,5.304-2.197c2.929-2.929,2.929-7.677,0-10.606
	l-5.051-5.051l5.051-5.051c2.929-2.929,2.929-7.678,0-10.606c-2.93-2.929-7.678-2.929-10.607,0l-5.05,5.05l-5.05-5.05
	c-2.93-2.929-7.678-2.93-10.607,0c-2.929,2.929-2.929,7.678,0,10.606l5.051,5.051l-5.051,5.051
	C382.372,238.569,382.372,243.318,385.301,246.247z M240.342,122.169c1.465,1.465,3.384,2.197,5.304,2.197
	c1.919,0,3.839-0.732,5.303-2.197l5.052-5.052l5.052,5.052c1.464,1.465,3.384,2.197,5.303,2.197s3.839-0.732,5.304-2.197
	c2.929-2.929,2.929-7.678-0.001-10.606l-5.051-5.051l5.051-5.051c2.93-2.929,2.93-7.677,0.001-10.606s-7.678-2.929-10.606,0
	L256,95.906l-5.052-5.052c-2.928-2.93-7.677-2.929-10.606,0s-2.929,7.678,0.001,10.606l5.051,5.051l-5.051,5.051
	C237.413,114.491,237.413,119.24,240.342,122.169z M95.384,122.169c1.465,1.464,3.385,2.197,5.304,2.197s3.839-0.732,5.304-2.197
	l5.05-5.05l5.05,5.05c1.465,1.464,3.385,2.197,5.304,2.197s3.839-0.732,5.304-2.197c2.929-2.929,2.929-7.678,0-10.606l-5.051-5.051
	l5.051-5.051c2.929-2.929,2.929-7.678,0-10.606c-2.93-2.929-7.678-2.929-10.607,0l-5.05,5.05l-5.05-5.05
	c-2.93-2.929-7.678-2.929-10.607,0s-2.929,7.678,0,10.606l5.051,5.051l-5.051,5.051C92.455,114.491,92.455,119.24,95.384,122.169z
	 M385.301,122.169c1.465,1.464,3.385,2.197,5.304,2.197s3.839-0.732,5.304-2.197l5.05-5.05l5.05,5.05
	c1.465,1.464,3.385,2.197,5.304,2.197s3.839-0.732,5.304-2.197c2.929-2.929,2.929-7.678,0-10.606l-5.051-5.051l5.051-5.051
	c2.929-2.929,2.929-7.678,0-10.606c-2.93-2.929-7.678-2.929-10.607,0l-5.05,5.05l-5.05-5.05c-2.93-2.929-7.678-2.929-10.607,0
	s-2.929,7.678,0,10.606l5.051,5.051l-5.051,5.051C382.372,114.491,382.372,119.24,385.301,122.169z M271.658,339.354
	c-2.929-2.929-7.678-2.93-10.606,0L256,344.406l-5.052-5.052c-2.928-2.93-7.677-2.929-10.606,0s-2.929,7.678,0.001,10.606
	l5.051,5.051l-5.051,5.051c-2.93,2.929-2.93,7.677-0.001,10.606c1.465,1.465,3.384,2.197,5.304,2.197
	c1.919,0,3.839-0.732,5.303-2.197l5.052-5.052l5.052,5.052c1.464,1.465,3.384,2.197,5.303,2.197s3.839-0.732,5.304-2.197
	c2.929-2.929,2.929-7.678-0.001-10.606l-5.051-5.051l5.051-5.051C274.587,347.032,274.587,342.284,271.658,339.354z M95.384,370.669
	c1.465,1.464,3.385,2.197,5.304,2.197s3.839-0.732,5.304-2.197l5.05-5.05l5.05,5.05c1.465,1.464,3.385,2.197,5.304,2.197
	s3.839-0.732,5.304-2.197c2.929-2.929,2.929-7.678,0-10.606l-5.051-5.051l5.051-5.051c2.929-2.929,2.929-7.678,0-10.606
	c-2.93-2.929-7.678-2.929-10.607,0l-5.05,5.05l-5.05-5.05c-2.93-2.929-7.678-2.929-10.607,0s-2.929,7.678,0,10.606l5.051,5.051
	l-5.051,5.051C92.455,362.991,92.455,367.74,95.384,370.669z M385.301,370.669c1.465,1.464,3.385,2.197,5.304,2.197
	s3.839-0.732,5.304-2.197l5.05-5.05l5.05,5.05c1.465,1.464,3.385,2.197,5.304,2.197s3.839-0.732,5.304-2.197
	c2.929-2.929,2.929-7.678,0-10.606l-5.051-5.051l5.051-5.051c2.929-2.929,2.929-7.678,0-10.606c-2.93-2.929-7.678-2.929-10.607,0
	l-5.05,5.05l-5.05-5.05c-2.93-2.929-7.678-2.929-10.607,0s-2.929,7.678,0,10.606l5.051,5.051l-5.051,5.051
	C382.372,362.991,382.372,367.74,385.301,370.669z"/>
<g>
</g>
<g>
</g>
<g>
</g>
<g>
</g>
<g>
</g>
<g>
</g>
<g>
</g>
<g>
</g>
<g>
</g>
<g>
</g>
<g>
</g>
<g>
</g>
<g>
</g>
<g>
</g>
<g>
</g>
</svg>
