<?xml version="1.0" encoding="iso-8859-1"?>
<!-- Generator: Adobe Illustrator 19.0.0, SVG Export Plug-In . SVG Version: 6.00 Build 0)  -->
<svg xmlns="http://www.w3.org/2000/svg" xmlns:xlink="http://www.w3.org/1999/xlink" version="1.1" id="Capa_1" x="0px" y="0px" viewBox="0 0 512 512" style="enable-background:new 0 0 512 512;" xml:space="preserve" width="512px" height="512px">
<g>
	<g>
		<path d="M501.936,451.481h-13.478c1.264-4.418,1.912-9.028,1.912-13.737c0-27.055-21.698-49.121-48.605-49.748V87.79h8.903    c5.523,0,10-4.478,10-10V10c0-5.523-4.477-10-10-10H61.334c-5.522,0-10,4.477-10,10v67.79c0,5.522,4.478,10,10,10h8.903v300.206    c-26.907,0.627-48.605,22.694-48.605,49.749c0,4.71,0.648,9.319,1.912,13.737H10.065c-5.523,0-10,4.478-10,10V502    c0,5.522,4.477,10,10,10h491.871c5.523,0,10-4.478,10-10v-40.519C511.936,455.959,507.459,451.481,501.936,451.481z     M470.37,437.744c0,4.852-1.146,9.524-3.347,13.737h-52.862c-0.002-0.004-0.004-0.007-0.006-0.011    c-0.01-0.019-0.018-0.038-0.028-0.057c-0.318-0.613-0.608-1.239-0.882-1.871c-0.084-0.195-0.162-0.392-0.242-0.589    c-0.198-0.485-0.382-0.975-0.553-1.469c-0.069-0.198-0.14-0.396-0.204-0.596c-0.217-0.674-0.418-1.353-0.586-2.042    c-0.003-0.012-0.005-0.023-0.008-0.035c-0.165-0.678-0.298-1.366-0.415-2.057c-0.035-0.209-0.064-0.42-0.094-0.63    c-0.077-0.523-0.139-1.048-0.188-1.577c-0.02-0.212-0.042-0.424-0.057-0.637c-0.051-0.718-0.085-1.439-0.085-2.166    c0-0.467,0.014-0.931,0.035-1.393c0.011-0.227,0.029-0.452,0.045-0.678c0.015-0.215,0.03-0.431,0.049-0.645    c0.03-0.319,0.065-0.636,0.105-0.953c0.011-0.089,0.022-0.178,0.034-0.267c1.24-9.135,6.728-17.2,14.549-21.796    c0.106-0.062,0.213-0.123,0.32-0.184c0.239-0.136,0.479-0.269,0.722-0.399c0.226-0.12,0.455-0.237,0.685-0.351    c0.147-0.074,0.293-0.149,0.442-0.22c1.7-0.812,3.487-1.47,5.345-1.95c0.014-0.004,0.027-0.007,0.041-0.01    c2.369-0.609,4.85-0.933,7.407-0.933C457.012,407.966,470.37,421.324,470.37,437.744z M398.856,370.455h-60.262    c-5.522,0-10,4.477-10,10v71.026h-32.462v-71.026c0-5.523-4.478-10-10-10H225.87c-5.522,0-10,4.477-10,10v71.026h-32.462v-71.026    c0-5.523-4.477-10-10-10h-60.262c-5.522,0-10,4.477-10,10v18.849c-3.832-3.152-8.168-5.754-12.909-7.671v-51.116h331.528v51.115    c-4.742,1.917-9.077,4.519-12.909,7.671v-18.848C408.856,374.932,404.379,370.455,398.856,370.455z M388.855,390.455v61.026    h-40.262v-61.026H388.855z M276.132,390.455v61.026H235.87v-61.026H276.132z M163.408,390.455v61.026h-40.262v-61.026H163.408z     M398.856,240.255h-60.262c-5.522,0-10,4.478-10,10v70.262h-32.462v-70.262c0-5.522-4.478-10-10-10H225.87    c-5.522,0-10,4.478-10,10v70.262h-32.462v-70.262c0-5.522-4.477-10-10-10h-60.262c-5.522,0-10,4.478-10,10v70.262H90.237V87.79    h331.528v232.727h-12.909v-70.262C408.856,244.733,404.379,240.255,398.856,240.255z M388.855,260.255v60.262h-40.262v-60.262    H388.855z M276.132,260.255v60.262H235.87v-60.262H276.132z M163.408,260.255v60.262h-40.262v-60.262H163.408z M71.334,53.439    h303.031c5.522,0,10-4.478,10-10c0-5.522-4.478-10-10-10H71.334V20h369.334v47.79H71.334V53.439z M71.41,407.966    c2.537,0,5.001,0.321,7.354,0.921c0.041,0.01,0.081,0.02,0.122,0.03c1.84,0.478,3.612,1.129,5.297,1.933    c0.176,0.084,0.349,0.173,0.523,0.26c0.202,0.101,0.403,0.203,0.602,0.309c0.263,0.14,0.523,0.284,0.781,0.431    c0.086,0.049,0.172,0.098,0.257,0.148c7.834,4.593,13.332,12.665,14.574,21.81c0.012,0.089,0.023,0.177,0.034,0.266    c0.04,0.316,0.075,0.634,0.105,0.953c0.019,0.214,0.034,0.429,0.049,0.645c0.016,0.226,0.034,0.451,0.045,0.678    c0.021,0.462,0.035,0.926,0.035,1.393c0,0.727-0.034,1.448-0.085,2.166c-0.015,0.213-0.037,0.425-0.057,0.637    c-0.049,0.529-0.112,1.054-0.188,1.577c-0.031,0.21-0.059,0.421-0.094,0.63c-0.117,0.691-0.25,1.379-0.415,2.057    c-0.003,0.012-0.005,0.023-0.008,0.035c-0.168,0.689-0.368,1.368-0.586,2.042c-0.064,0.2-0.135,0.397-0.204,0.596    c-0.171,0.494-0.355,0.984-0.553,1.469c-0.08,0.197-0.158,0.394-0.242,0.589c-0.273,0.632-0.563,1.257-0.882,1.871    c-0.01,0.019-0.018,0.038-0.028,0.057c-0.002,0.004-0.004,0.007-0.006,0.011H44.979c-2.201-4.211-3.347-8.884-3.347-13.736    C41.631,421.324,54.99,407.966,71.41,407.966z M491.936,492H20.066v-20.519h471.87V492z" fill="#44aa3d"/>
	</g>
</g>
<g>
	<g>
		<path d="M398.855,110.053h-60.262c-5.522,0-10,4.478-10,10v80.262c0,5.523,4.477,10,10,10h60.262c5.523,0,10-4.477,10-10v-80.262    C408.855,114.531,404.379,110.053,398.855,110.053z M388.855,190.316h-40.262v-60.262h40.262V190.316z" fill="#44aa3d"/>
	</g>
</g>
<g>
	<g>
		<path d="M286.132,110.053H225.87c-5.522,0-10,4.478-10,10v80.262c0,5.523,4.478,10,10,10h60.262c5.522,0,10-4.477,10-10v-80.262    C296.132,114.531,291.654,110.053,286.132,110.053z M276.132,190.316H235.87v-60.262h40.262V190.316z" fill="#44aa3d"/>
	</g>
</g>
<g>
	<g>
		<path d="M173.409,110.053h-60.262c-5.522,0-10,4.478-10,10v80.262c0,5.523,4.477,10,10,10h60.262c5.523,0,10-4.477,10-10v-80.262    C183.409,114.531,178.932,110.053,173.409,110.053z M163.409,190.316h-40.262v-60.262h40.262V190.316z" fill="#44aa3d"/>
	</g>
</g>
<g>
	<g>
		<path d="M417.171,41.48c-0.13-0.63-0.32-1.26-0.57-1.87c-0.25-0.6-0.56-1.18-0.92-1.72c-0.37-0.55-0.78-1.059-1.25-1.52    c-0.46-0.46-0.97-0.88-1.52-1.25c-0.54-0.36-1.12-0.67-1.721-0.92c-0.6-0.25-1.23-0.44-1.87-0.57c-1.289-0.26-2.619-0.26-3.909,0    c-0.641,0.13-1.271,0.32-1.87,0.57c-0.6,0.25-1.181,0.56-1.73,0.92c-0.54,0.37-1.06,0.79-1.52,1.25    c-0.46,0.46-0.88,0.97-1.24,1.52c-0.36,0.54-0.67,1.12-0.92,1.72c-0.25,0.61-0.44,1.24-0.57,1.87c-0.13,0.65-0.2,1.311-0.2,1.96    c0,0.65,0.07,1.311,0.2,1.95c0.13,0.64,0.32,1.27,0.57,1.87c0.25,0.61,0.56,1.19,0.92,1.73c0.36,0.55,0.78,1.06,1.24,1.52    c0.46,0.46,0.979,0.88,1.52,1.24c0.55,0.359,1.13,0.67,1.73,0.92c0.6,0.25,1.229,0.45,1.87,0.57c0.649,0.13,1.3,0.199,1.949,0.199    c0.66,0,1.31-0.069,1.96-0.199c0.641-0.12,1.271-0.32,1.87-0.57c0.6-0.25,1.181-0.56,1.721-0.92c0.55-0.36,1.06-0.78,1.52-1.24    c0.47-0.46,0.88-0.97,1.25-1.52c0.36-0.54,0.67-1.12,0.92-1.73c0.25-0.6,0.44-1.229,0.57-1.87c0.13-0.64,0.19-1.3,0.19-1.95    C417.361,42.791,417.301,42.13,417.171,41.48z" fill="#44aa3d"/>
	</g>
</g>
<g>
</g>
<g>
</g>
<g>
</g>
<g>
</g>
<g>
</g>
<g>
</g>
<g>
</g>
<g>
</g>
<g>
</g>
<g>
</g>
<g>
</g>
<g>
</g>
<g>
</g>
<g>
</g>
<g>
</g>
</svg>
