<?xml version="1.0" encoding="iso-8859-1"?>
<!-- Generator: Adobe Illustrator 19.0.0, SVG Export Plug-In . SVG Version: 6.00 Build 0)  -->
<svg xmlns="http://www.w3.org/2000/svg" xmlns:xlink="http://www.w3.org/1999/xlink" version="1.1" id="Capa_1" x="0px" y="0px" viewBox="0 0 480 480" style="enable-background:new 0 0 480 480;" xml:space="preserve" width="512px" height="512px">
<g>
	<g>
		<path d="M472,272h-8v-10.824c0.02-7.427-1.911-14.73-5.6-21.176c3.689-6.446,5.62-13.749,5.6-21.176v-0.944    c0.479-22.595-17.407-41.321-40-41.88v-40c0-13.255-10.745-24-24-24h-16c-13.255,0-24,10.745-24,24v40    c-22.593,0.559-40.478,19.285-40,41.88v0.944c-0.02,7.427,1.911,14.73,5.6,21.176c-3.689,6.446-5.62,13.749-5.6,21.176V272h-16V80    h104c4.418,0,8-3.582,8-8V8c0-4.418-3.582-8-8-8H136c-4.418,0-8,3.582-8,8v64c0,4.418,3.582,8,8,8h104v192h-16v-56    c0-17.673-14.327-32-32-32v-32h8c13.255,0,24-10.745,24-24v-8c0-13.255-10.745-24-24-24h-96c-0.373,0.046-0.742,0.121-1.104,0.224    c-0.28-0.016-0.56-0.016-0.84,0l-32,8c-3.565,0.893-6.063,4.101-6.056,7.776v24c0,3.669,2.497,6.868,6.056,7.76l32,8    c0.636,0.159,1.289,0.24,1.944,0.24h8v12.688l-13.656,13.656c-3.178,3.069-3.266,8.134-0.197,11.312    c3.069,3.178,8.134,3.266,11.312,0.197c0.067-0.064,0.132-0.13,0.197-0.197l16-16c1.5-1.5,2.344-3.534,2.344-5.656v-16h16v32    c-17.673,0-32,14.327-32,32v24H8c-4.418,0-8,3.582-8,8v192c0,4.418,3.582,8,8,8h72v24c0,4.418,3.582,8,8,8h384    c4.418,0,8-3.582,8-8V280C480,275.582,476.418,272,472,272z M96,133.752l-16-4v-11.504l16-4V133.752z M376,136    c0-4.418,3.582-8,8-8h16c4.418,0,8,3.582,8,8v8h-32V136z M376,160h32v16h-32V160z M360,192h64c13.758,0.555,24.482,12.12,24,25.88    v0.944c-0.012,5.912-1.981,11.653-5.6,16.328c-2.182,2.864-2.182,6.832,0,9.696c3.619,4.675,5.588,10.416,5.6,16.328V272h-24v-24    c0-17.673-14.327-32-32-32c-17.673,0-32,14.327-32,32v24h-24v-10.824c0.015-5.911,1.984-11.652,5.6-16.328    c2.182-2.864,2.182-6.832,0-9.696c-3.616-4.676-5.585-10.417-5.6-16.328v-0.944C335.518,204.12,346.242,192.555,360,192z M408,248    v24h-32v-24c0-8.837,7.163-16,16-16S408,239.163,408,248z M144,16h256v16H144V16z M144,64V48h256v16H144z M256,112V80h32v32H256z     M288,128v144h-32V128H288z M240,288h64v84c0,6.627-5.373,12-12,12c-6.627,0-12-5.373-12-12v-60c0-4.418-3.582-8-8-8s-8,3.582-8,8    v60c0.014,6.627-5.348,12.011-11.975,12.025c-0.971,0.002-1.938-0.114-2.881-0.345c-5.587-1.661-9.346-6.887-9.144-12.712V288z     M112,136v-24h88c4.418,0,8,3.582,8,8v8c0,4.418-3.582,8-8,8H112z M176,152v32h-16v-32H176z M128,216c0-8.837,7.163-16,16-16h48    c8.837,0,16,7.163,16,16v56h-16v-24c0-4.418-3.582-8-8-8h-56V216z M48,432H16v-16h8c4.418,0,8-3.582,8-8s-3.582-8-8-8h-8v-16h8    c4.418,0,8-3.582,8-8s-3.582-8-8-8h-8v-16h8c4.418,0,8-3.582,8-8s-3.582-8-8-8h-8v-16h8c4.418,0,8-3.582,8-8s-3.582-8-8-8h-8v-16    h8c4.418,0,8-3.582,8-8s-3.582-8-8-8h-8v-16h32V432z M64,432V256h112v136h-16V280c0-4.418-3.582-8-8-8h-32c-4.418,0-8,3.582-8,8    v152H64z M464,464H96v-16h24c4.418,0,8-3.582,8-8V288h16v112c0,4.418,3.582,8,8,8h32c4.418,0,8-3.582,8-8V288h32v82.968    c-0.228,13.329,8.748,25.061,21.672,28.328c9.417,2.163,19.283-0.669,26.12-7.496l0.208-0.216    c8.362,8.623,21.325,10.884,32.112,5.6c0.607,15.412,13.593,27.415,29.005,26.808c7.03-0.277,13.697-3.197,18.667-8.176    l0.216-0.232c10.785,11.046,28.482,11.257,39.527,0.473c0.159-0.156,0.317-0.313,0.473-0.473    c10.785,11.046,28.482,11.257,39.527,0.473c0.159-0.156,0.317-0.313,0.473-0.473c8.327,8.602,21.247,10.863,32,5.6V464z M464,396    c0,6.627-5.373,12-12,12c-6.627,0-12-5.373-12-12v-60c0-4.418-3.582-8-8-8s-8,3.582-8,8v60c0,6.627-5.373,12-12,12    c-6.627,0-12-5.373-12-12v-60c0-4.418-3.582-8-8-8s-8,3.582-8,8v60c0,6.627-5.373,12-12,12c-6.627,0-12-5.373-12-12v-60    c0-4.418-3.582-8-8-8s-8,3.582-8,8v60c0,6.627-5.373,12-12,12c-6.627,0-12-5.373-12-12V288h144V396z" fill="#44aa3d"/>
	</g>
</g>
<g>
</g>
<g>
</g>
<g>
</g>
<g>
</g>
<g>
</g>
<g>
</g>
<g>
</g>
<g>
</g>
<g>
</g>
<g>
</g>
<g>
</g>
<g>
</g>
<g>
</g>
<g>
</g>
<g>
</g>
</svg>
