<?xml version="1.0" encoding="iso-8859-1"?>
<!-- Generator: Adobe Illustrator 19.0.0, SVG Export Plug-In . SVG Version: 6.00 Build 0)  -->
<svg xmlns="http://www.w3.org/2000/svg" xmlns:xlink="http://www.w3.org/1999/xlink" version="1.1" id="Layer_1" x="0px" y="0px" viewBox="0 0 512 512" style="enable-background:new 0 0 512 512;" xml:space="preserve" width="512px" height="512px">
<g>
	<g>
		<path d="M425.777,386.692h-20.442v-20.415c0-7.223-5.88-13.1-13.106-13.1h-22.3c-7.227,0-13.106,5.877-13.106,13.1v20.415H336.38    c-7.225,0-13.104,5.878-13.104,13.101v22.277c0,7.223,5.879,13.1,13.104,13.1h20.441v20.415c0,7.222,5.88,13.099,13.106,13.099    h22.3c7.227,0,13.106-5.877,13.106-13.099V435.17h20.442c7.224,0,13.102-5.876,13.102-13.1v-22.277    C438.879,392.569,433.001,386.692,425.777,386.692z M423.206,419.496h-20.441c-7.225,0-13.104,5.877-13.104,13.099v20.415h-17.166    v-20.415c0-7.222-5.878-13.099-13.102-13.099h-20.442v-17.132h20.442c7.224,0,13.102-5.875,13.102-13.098v-20.417h17.166v20.417    c0,7.222,5.879,13.098,13.104,13.098h20.441V419.496z" fill="#44aa3d"/>
	</g>
</g>
<g>
	<g>
		<path d="M381.079,309.861c-35.777,0-67.275,18.654-85.266,46.735h-26.175v-13.087c14.912-5.794,28.728-14.277,40.742-25.193    c3.204-2.91,3.441-7.866,0.531-11.07c-2.911-3.205-7.867-3.443-11.071-0.531c-21.399,19.442-49.314,30.149-78.599,30.149    c-63.55,0-115.252-50.346-115.252-112.23v-15.261l34.021-70.123h162.46l34.021,70.121v15.263c0,22.364-6.734,43.958-19.475,62.446    c-2.456,3.564-1.558,8.444,2.006,10.9c3.564,2.457,8.445,1.557,10.9-2.006c6.66-9.665,11.865-20.081,15.57-30.978h9.641    c12.964,0,23.51-10.547,23.51-23.51v-43.232c0-12.963-10.546-23.51-23.51-23.51h-2.97v-46.84C352.162,57.377,293.431,0,221.24,0    S90.316,57.377,90.316,127.904v46.84h-2.968c-12.964,0-23.51,10.547-23.51,23.51v43.232c0,12.963,10.546,23.51,23.51,23.51h9.652    c12.209,35.773,40.193,64.549,75.841,78.458v13.142h-26.556c-4.328,0-7.837,3.508-7.837,7.837c0,4.329,3.509,7.837,7.837,7.837    h29.653c0.874,1.485,1.882,2.848,3.016,3.952l33.077,32.202c2.467,2.402,5.738,3.725,9.21,3.725c3.473,0,6.745-1.324,9.211-3.726    l33.075-32.202c1.134-1.104,2.141-2.467,3.015-3.951h21.077c-4.956,11.916-7.699,24.973-7.699,38.66    c0,18.911,5.23,36.62,14.313,51.773H45.436v-69.426c0-11.583,9.63-21.007,21.467-21.007h49.08c4.328,0,7.837-3.508,7.837-7.837    c0-4.329-3.509-7.837-7.837-7.837H66.904c-20.48,0-37.141,16.454-37.141,36.68v77.263c0,4.329,3.509,7.837,7.837,7.837h268.206    C324.341,499.001,351.218,512,381.08,512c27.237,0,52.786-10.659,71.938-30.015c3.045-3.076,3.019-8.038-0.059-11.082    c-3.077-3.046-8.038-3.019-11.083,0.058c-16.187,16.357-37.777,25.365-60.797,25.365c-47.138,0-85.488-38.309-85.488-85.397    c0-47.086,38.35-85.395,85.488-85.395c47.135,0,85.483,38.308,85.483,85.395c0,12.988-2.841,25.456-8.444,37.058    c-1.883,3.897-0.249,8.583,3.649,10.466c3.897,1.884,8.583,0.249,10.465-3.649c6.639-13.746,10.005-28.507,10.005-43.874    C482.237,355.201,436.857,309.861,381.079,309.861z M352.162,224.634v-17.063v-17.154h2.97c4.322,0,7.837,3.515,7.837,7.837    v43.232c0,4.322-3.515,7.837-7.837,7.837h-5.423C351.324,241.249,352.162,232.991,352.162,224.634z M87.348,249.322    c-4.322,0-7.837-3.515-7.837-7.837v-43.232c0-4.322,3.515-7.837,7.837-7.837h2.967l-0.001,34.217    c0,8.444,0.851,16.696,2.457,24.688H87.348z M105.989,127.904h0.001c0-61.883,51.701-112.23,115.25-112.23    c63.549,0,115.249,50.347,115.249,112.23v45.562l-22.062-45.473c-1.31-2.701-4.049-4.417-7.051-4.417h-57.292l18.77-18.77    c3.06-3.062,3.06-8.023,0-11.083c-3.061-3.06-8.023-3.06-11.082,0l-29.853,29.853h-33.213l28.174-28.174    c3.06-3.062,3.06-8.023,0-11.083c-3.061-3.059-8.023-3.059-11.082,0l-39.257,39.257h-37.439c-3.002,0-5.741,1.716-7.051,4.417    l-22.062,45.473V127.904z M253.965,361.731c-0.02,0.819-0.806,2.68-1.373,3.26l-31.351,30.524l-31.348-30.518    c-0.573-0.585-1.359-2.446-1.378-3.259v-13.264c10.466,2.642,21.428,4.066,32.726,4.066c11.156,0,22.137-1.379,32.724-4.041    V361.731z" fill="#44aa3d"/>
	</g>
</g>
<g>
	<g>
		<path d="M159.659,212.448c-4.328,0-7.837,3.509-7.837,7.837v22.003c0,4.329,3.509,7.837,7.837,7.837s7.837-3.508,7.837-7.837    v-22.003C167.496,215.955,163.987,212.448,159.659,212.448z" fill="#44aa3d"/>
	</g>
</g>
<g>
	<g>
		<path d="M282.82,212.448c-4.328,0-7.837,3.509-7.837,7.837v22.003c0,4.329,3.509,7.837,7.837,7.837    c4.328,0,7.837-3.508,7.837-7.837v-22.003C290.657,215.955,287.148,212.448,282.82,212.448z" fill="#44aa3d"/>
	</g>
</g>
<g>
	<g>
		<path d="M248.899,270.133c-4.328,0-7.837,3.508-7.837,7.837c0,7.259-6.073,13.165-13.537,13.165h-12.571    c-7.465,0-13.537-5.905-13.537-13.165c0-4.329-3.509-7.837-7.837-7.837c-4.328,0-7.837,3.508-7.837,7.837    c0,15.901,13.103,28.838,29.21,28.838h12.571c16.107,0,29.21-12.937,29.21-28.838    C256.736,273.641,253.227,270.133,248.899,270.133z" fill="#44aa3d"/>
	</g>
</g>
<g>
	<g>
		<path d="M230.918,240.642h-3.992v-16.871c0-4.328-3.509-7.837-7.837-7.837s-7.837,3.508-7.837,7.837v24.708    c0,4.329,3.509,7.837,7.837,7.837h11.828c4.328,0,7.837-3.508,7.837-7.837C238.754,244.15,235.246,240.642,230.918,240.642z" fill="#44aa3d"/>
	</g>
</g>
<g>
</g>
<g>
</g>
<g>
</g>
<g>
</g>
<g>
</g>
<g>
</g>
<g>
</g>
<g>
</g>
<g>
</g>
<g>
</g>
<g>
</g>
<g>
</g>
<g>
</g>
<g>
</g>
<g>
</g>
</svg>
