<?xml version="1.0" encoding="iso-8859-1"?>
<!-- Generator: Adobe Illustrator 18.1.1, SVG Export Plug-In . SVG Version: 6.00 Build 0)  -->
<svg xmlns="http://www.w3.org/2000/svg" xmlns:xlink="http://www.w3.org/1999/xlink" version="1.1" id="Capa_1" x="0px" y="0px" viewBox="0 0 611.997 611.997" style="enable-background:new 0 0 611.997 611.997;" xml:space="preserve" width="512px" height="512px">
<g>
	<g>
		<circle cx="318.641" cy="177.541" r="13.255" fill="#44aa3d"/>
		<circle cx="392.649" cy="177.541" r="13.255" fill="#44aa3d"/>
		<path d="M538.639,374.745l-58.169-58.176l9.594-9.225l-7.777-8.091l-9.754,9.379c0,0-41.917-42.212-42.713-43.118    c19.08-1.452,34.163-17.43,34.163-36.873v-47.219c2.679-4.197,4.236-9.188,4.236-14.561c0-5.37-1.556-10.357-4.236-14.553v-27.057    c0-35.45-17.316-68.558-46.377-88.861c-3.075-5.46-6.856-10.544-11.325-15.107C392.837,7.56,374.784,0,355.449,0    s-37.388,7.56-50.834,21.285c-4.594,4.69-8.459,9.929-11.577,15.561c-28.657,20.321-45.732,53.261-45.732,88.405v27.042    c-2.681,4.197-4.238,9.188-4.238,14.565c0,5.378,1.556,10.374,4.238,14.574v47.206c0,19.451,15.094,35.434,34.184,36.874    c-1.578,1.805-3.109,3.647-4.545,5.554L239.111,308.9l-8.62-8.288l-7.781,8.089l8.463,8.138l-55.052,55.052l-25.904-25.904    l-18.642-79.649l-10.926,2.556l8.473,36.202l-2.839,2.839l-18.885-29.303l-9.434,6.08l20.198,31.343l-5.373,5.373L81.445,301.23    l-6.08,9.434l29.303,18.883l-2.936,2.936l-36.202-8.474l-2.557,10.927l78.757,18.434l26.975,26.975    c-9.026,13.738-7.506,32.43,4.562,44.514c6.691,6.693,15.588,10.377,25.051,10.377c7.024,0,13.732-2.034,19.461-5.815    l11.993,11.993l7.936-7.934l-11.478-11.478l30.867-30.866v22.901L232.172,530.73h53.388v81.268h64.473h11.222h64.473V530.73    h53.387l-24.924-116.686v-23.528l34.344,34.342c6.691,6.693,15.588,10.377,25.051,10.377c9.465,0,18.361-3.685,25.051-10.377    c6.698-6.697,10.386-15.598,10.386-25.063C549.026,390.332,545.336,381.433,538.639,374.745z M114.595,335.495l17.537-17.537    l5.359,22.895L114.595,335.495z M442.971,330.372v78.679h-81.279v-99.583c24.84-2.319,45.962-18.786,54.258-42.248    c0.49,0.467,0.989,0.936,1.451,1.396C433.89,285.107,442.971,307.039,442.971,330.372z M355.646,298.538    c-14.09,0-27.346-5.488-37.323-15.452c-3.469-3.469-6.414-7.377-8.775-11.601c13.564,7.894,29.305,12.44,46.098,12.44    c16.804,0,32.556-4.552,46.127-12.457C392.655,287.897,375.232,298.538,355.646,298.538z M417.173,420.274v15.376    c0,34.669-28.003,62.873-62.425,62.873s-62.425-28.204-62.425-62.873v-15.376H417.173z M452.762,228.638    c0,14.209-11.561,25.77-25.77,25.77h-3.921c14.971-16.155,24.215-37.672,24.501-61.315c1.812-0.431,3.544-1.051,5.189-1.822    V228.638z M447.601,181.285v-28.838c5.562,2.43,9.396,7.954,9.396,14.412C456.999,173.324,453.165,178.853,447.601,181.285z     M452.762,125.251v17.21c-1.648-0.773-3.384-1.394-5.2-1.825c-0.355-21.341-8.002-40.933-20.569-56.385V72.528    c0-4.994-0.495-9.904-1.445-14.68C442.839,75.781,452.762,99.846,452.762,125.251z M295.128,72.53    c0-34.379,26.496-61.307,60.321-61.307S415.77,38.151,415.77,72.53v0.166c-16.135-13.98-37.151-22.467-60.124-22.467    c-23.16,0-44.332,8.624-60.517,22.807V72.53z M377.461,100.138c3.724,3.019,7.878,5.269,12.31,6.694    c-13.898,11.757-34.679,12.356-49.31,0.462c-12.14-9.886-17.048-26.05-12.666-40.891c8.685-3.203,18.065-4.953,27.849-4.953    c2.978,0,5.916,0.174,8.811,0.49C361.178,75.881,366.018,90.818,377.461,100.138z M315.25,72.328    c-1.647,16.397,4.92,32.918,18.129,43.672c9.235,7.506,20.362,11.155,31.422,11.155c14.494,0,28.87-6.272,38.691-18.353    c0.655-0.794,1.265-1.62,1.873-2.448l6.421-8.738l-10.842-0.195c-6.031-0.109-11.708-2.184-16.407-5.993    c-8.222-6.697-11.626-17.514-9.04-27.501c34.948,8.87,60.882,40.589,60.882,78.257v49.784c0,44.517-36.216,80.735-80.735,80.735    s-80.735-36.216-80.735-80.735v-49.784C274.911,112.378,291.158,86.312,315.25,72.328z M258.529,125.251    c0-25.127,9.738-48.997,26.714-66.878c-0.882,4.61-1.337,9.346-1.337,14.156v12.221c-12.332,15.372-19.826,34.769-20.178,55.881    c-1.817,0.429-3.551,1.049-5.199,1.821V125.251z M254.292,166.859c0-6.468,3.834-11.994,9.396-14.419v28.852    C258.126,178.864,254.292,173.333,254.292,166.859z M258.529,228.638v-37.36c1.644,0.77,3.375,1.389,5.188,1.818    c0.288,23.642,9.531,45.158,24.501,61.311h-3.919C270.09,254.408,258.529,242.848,258.529,228.638z M268.321,330.372    c0-23.933,9.808-46.712,27.042-63.174c3.165,8.911,8.263,17.064,15.027,23.827c10.868,10.854,24.945,17.308,40.08,18.513v99.513    h-82.149V330.372z M261.048,302.836c-2.205,7.579-3.508,15.451-3.839,23.468l-10.006-9.622L261.048,302.836z M215.436,416.927    c-4.572,4.572-10.65,7.09-17.117,7.09c-6.466,0-12.544-2.518-17.114-7.088c-9.438-9.448-9.438-24.813-0.001-34.248l58.061-58.061    l17.834,17.148v33.499L215.436,416.927z M297.409,600.778c2.612-12.297,13.269-20.719,26-20.719s23.388,8.422,26,20.719H297.409z     M350.034,579.751c-6.843-6.76-16.253-10.915-26.625-10.915s-19.782,4.154-26.625,10.915v-49.018h53.251V579.751L350.034,579.751z     M361.881,600.778c2.612-12.297,13.271-20.719,26-20.719c12.729,0,23.388,8.422,26,20.719H361.881z M414.508,579.752    c-6.844-6.762-16.253-10.917-26.627-10.917c-10.372,0-19.781,4.154-26.624,10.914v-49.017h53.251V579.752z M465.244,519.51    H246.047l21.195-99.236H281.1v15.376c0,40.857,33.038,74.095,73.648,74.095s73.648-33.238,73.648-74.095v-15.376h15.653    L465.244,519.51z M454.096,326.361c-0.331-8.341-1.686-16.497-4.02-24.322l14.369,14.37L454.096,326.361z M530.704,416.927    c-4.572,4.572-10.65,7.09-17.116,7.09c-6.466,0-12.544-2.518-17.116-7.09l-42.279-42.278v-32.812l18.187-17.487l58.326,58.334    c4.577,4.572,7.097,10.65,7.097,17.116C537.803,406.265,535.282,412.348,530.704,416.927z" fill="#44aa3d"/>
		<circle cx="335.835" cy="322.543" r="9.752" fill="#44aa3d"/>
		<path d="M433.239,342.587h-47.696v-30.27h47.696V342.587z M396.766,331.365h25.251v-7.825h-25.251V331.365z" fill="#44aa3d"/>
	</g>
</g>
<g>
</g>
<g>
</g>
<g>
</g>
<g>
</g>
<g>
</g>
<g>
</g>
<g>
</g>
<g>
</g>
<g>
</g>
<g>
</g>
<g>
</g>
<g>
</g>
<g>
</g>
<g>
</g>
<g>
</g>
</svg>
