<?xml version="1.0"?>
<svg xmlns="http://www.w3.org/2000/svg" xmlns:xlink="http://www.w3.org/1999/xlink" version="1.1" id="Capa_1" x="0px" y="0px" viewBox="0 0 512 512" style="enable-background:new 0 0 512 512;" xml:space="preserve" width="512px" height="512px" class=""><g><g>
	<g>
		<g>
			<path d="M210.692,306.713c-4.143,0-7.5,3.358-7.5,7.5v6.98c0,4.142,3.357,7.5,7.5,7.5s7.5-3.358,7.5-7.5v-6.98     C218.192,310.071,214.834,306.713,210.692,306.713z" data-original="#000000" class="active-path" data-old_color="#44aa3d" fill="#44aa3d"/>
			<path d="M446.032,178.958c-13.061-7.2-23.77-17.909-30.969-30.97c-2.593-4.702-7.51-7.623-12.833-7.623     c-5.322,0.001-10.238,2.921-12.829,7.623c-5.886,10.677-14.118,19.779-24.061,26.68c-16.916-12.75-35.484-22.378-55.175-28.696     c0.012-0.466,0.026-0.932,0.026-1.396c0-27.52-20.33-50.349-46.69-54.147V7.5c0-4.142-3.357-7.5-7.5-7.5s-7.5,3.358-7.5,7.5     v82.863c-26.509,3.556-47.044,26.336-47.204,53.893c-34.668,9.907-65.252,29.574-88.601,55.816     c-0.641,0.516-1.186,1.139-1.626,1.833c-18.289,21.099-31.941,46.315-39.389,74.045c-0.153,0.417-0.273,0.849-0.351,1.294     c-3.943,15.114-6.048,30.963-6.048,47.296c0,15.977,2.049,31.857,6.036,47.212c0.091,0.557,0.237,1.097,0.445,1.609     c3.59,13.336,8.643,26.261,15.092,38.499c-5.542,8.123-12.906,14.844-21.575,19.622c-4.276,2.357-6.934,6.831-6.935,11.676     c0,4.846,2.657,9.32,6.935,11.678c10.423,5.745,18.97,14.292,24.717,24.716c2.356,4.276,6.83,6.933,11.675,6.934     c0.001,0,0.001,0,0.002,0c4.844,0,9.318-2.656,11.677-6.933c3.437-6.235,7.882-11.792,13.125-16.486     C161.088,494.665,205.661,512,252.745,512c30.143,0,58.931-6.939,85.563-20.623c20.751-10.663,39.533-25.326,55.032-42.86     c0.278-0.272,0.528-0.57,0.76-0.882c3.192-3.656,6.253-7.425,9.148-11.317c2.473-3.323,1.782-8.022-1.541-10.494     c-3.321-2.472-8.021-1.782-10.494,1.541c-2.18,2.931-4.465,5.785-6.829,8.572c-18.386,1.514-37.557,2.816-56.3,3.827     c9.02-17.82,15.906-36.185,20.54-54.802c23.675-1.569,47.152-3.557,67.729-5.727c-2.256,6.732-4.925,13.351-8.036,19.832     c-1.792,3.734-0.218,8.214,3.517,10.007c1.047,0.502,2.151,0.74,3.24,0.74c2.794,0,5.476-1.569,6.767-4.257     c12.187-25.391,18.365-52.65,18.365-81.018c0-15.959-2.056-31.771-6.016-47.067c-0.078-0.548-0.213-1.079-0.405-1.585     c-3.986-14.86-9.804-29.205-17.344-42.695c7.157-11.975,17.338-21.817,29.59-28.571c4.703-2.592,7.624-7.508,7.624-12.831     C453.655,186.467,450.734,181.55,446.032,178.958z M301.071,159.025c0.211,0.031,0.418,0.033,0.626,0.046     c18.248,5.375,35.499,13.804,51.265,25.113c-1.382,2.257-2.154,4.876-2.154,7.605c0,1.331,0.183,2.637,0.53,3.887     c-10.617-0.69-21.2-1.297-31.677-1.812c-7.305-12.463-15.765-24.765-25.263-36.767c1.4,0.345,2.796,0.707,4.186,1.087     C299.338,158.596,300.171,158.892,301.071,159.025z M252.744,207.017c16.924,0,36.4,0.482,57.94,1.434     c9.709,17.728,17.145,36.064,22.186,54.683c-29.741-1.74-57.269-2.656-80.126-2.656s-50.386,0.917-80.126,2.657     c5.04-18.615,12.476-36.953,22.187-54.683C216.347,207.499,235.821,207.017,252.744,207.017z M203.891,193.063     c8.625-13.613,18.69-27,30.049-39.956c6.178-0.673,12.451-1.029,18.805-1.029c6.325,0,12.588,0.337,18.777,0.998     c11.369,12.965,21.444,26.363,30.076,39.987c-17.923-0.694-34.31-1.046-48.854-1.046     C238.201,192.017,221.815,192.369,203.891,193.063z M255.74,104.865c20.837,0,37.94,16.348,39.346,36.969     c-13.716-3.147-27.884-4.756-42.342-4.756c-12.402,0-24.522,1.223-36.258,3.532C218.472,120.568,235.317,104.865,255.74,104.865z      M211.015,157.193c-9.467,11.971-17.9,24.239-25.184,36.666c-16.088,0.791-32.646,1.808-48.906,3.003     C157.664,178.032,182.996,164.182,211.015,157.193z M84.792,363.681c-2.973-12.785-4.51-25.925-4.51-39.142     c0-13.458,1.552-26.561,4.482-39.139c4.657-0.514,9.509-1.022,14.499-1.517c4.121-0.409,7.131-4.082,6.722-8.204     c-0.408-4.121-4.063-7.131-8.204-6.723c-2.92,0.29-5.784,0.585-8.603,0.882c7.036-20.984,18.009-40.176,32.031-56.706     c18.354-1.51,37.487-2.809,56.194-3.818c-9.019,17.82-15.906,36.186-20.54,54.804c-8.038,0.532-16.11,1.114-24.072,1.74     c-4.129,0.325-7.214,3.936-6.889,8.065c0.324,4.128,3.902,7.213,8.064,6.889c6.49-0.51,13.056-0.99,19.616-1.439     c-2.718,14.807-4.116,29.952-4.116,45.164c0,15.216,1.399,30.363,4.117,45.168C129.254,368.039,105.32,365.945,84.792,363.681z      M101.675,469.775c-6.569-10.928-15.69-20.05-26.618-26.617c10.928-6.568,20.05-15.689,26.618-26.618     c6.567,10.929,15.688,20.05,26.617,26.618C117.365,449.725,108.243,458.847,101.675,469.775z M113.351,406.763     c-2.357-4.276-6.832-6.932-11.678-6.932c-1.311,0-2.592,0.201-3.814,0.569c-3.359-6.857-6.261-13.926-8.675-21.16     c20.567,2.168,44.027,4.154,67.681,5.722c4.636,18.625,11.522,36.991,20.541,54.807c-11.119-0.599-22.363-1.31-33.606-2.104     c-1.174-2.574-3.157-4.764-5.732-6.184C127.645,425.736,119.098,417.189,113.351,406.763z M139.072,454.215     c0.748-0.502,1.437-1.072,2.06-1.701c14.988,1.071,29.975,1.976,44.697,2.699c7.298,12.45,15.748,24.74,25.234,36.729     C184.547,485.379,159.937,472.547,139.072,454.215z M252.745,497c-6.323,0-12.594-0.352-18.798-1.022     c-11.36-12.957-21.428-26.346-30.055-39.963c17.922,0.694,34.309,1.046,48.852,1.046c14.543,0,30.929-0.352,48.853-1.046     c-8.628,13.619-18.699,27.012-30.063,39.973C265.34,496.651,259.077,497,252.745,497z M368.645,452.209     c-11.223,10.188-23.757,18.922-37.193,25.826c-11.902,6.115-24.277,10.753-37.034,13.918     c9.489-11.992,17.941-24.284,25.24-36.736C335.772,454.425,352.359,453.407,368.645,452.209z M310.682,440.626     c-21.542,0.952-41.016,1.434-57.939,1.434c-16.923,0-36.398-0.482-57.938-1.434c-9.708-17.726-17.144-36.062-22.187-54.683     c29.737,1.739,57.265,2.656,80.125,2.656c22.861,0,50.39-0.917,80.126-2.656C327.829,404.557,320.393,422.894,310.682,440.626z      M336.453,370.704c-31.159,1.895-59.997,2.895-83.709,2.895c-23.711,0-52.548-0.999-83.708-2.895     c-3.026-15.087-4.569-30.588-4.569-46.167c0-15.575,1.542-31.073,4.568-46.165c31.163-1.896,60.002-2.895,83.709-2.895     c23.707,0,52.545,0.999,83.709,2.895c3.026,15.087,4.568,30.587,4.568,46.165C341.021,340.113,339.479,355.612,336.453,370.704z      M348.623,264.115c-4.635-18.622-11.521-36.987-20.54-54.805c13.704,0.738,27.557,1.631,41.366,2.661     c8.111,6.45,14.898,14.451,19.952,23.618c2.591,4.702,7.507,7.623,12.829,7.624c0.001,0,0.001,0,0.002,0     c0.84,0,1.669-0.081,2.481-0.222c4.631,8.618,8.499,17.602,11.587,26.846C395.734,267.669,372.276,265.683,348.623,264.115z      M420.706,285.397c2.969,12.77,4.5,25.901,4.5,39.141c0,13.346-1.495,26.42-4.444,39.135c-20.541,2.267-44.5,4.364-68.857,6.031     c2.718-14.808,4.116-29.954,4.116-45.168c0-15.215-1.398-30.362-4.116-45.166C376.239,281.038,400.176,283.133,420.706,285.397z      M402.232,227.798c-8.464-15.114-20.895-27.545-36.009-36.008c15.106-8.46,27.534-20.884,36.009-36.009     c8.459,15.107,20.884,27.534,36.008,36.009C423.131,200.251,410.705,212.674,402.232,227.798z" data-original="#000000" class="active-path" data-old_color="#44aa3d" fill="#44aa3d"/>
			<path d="M294.796,306.713c-4.143,0-7.5,3.358-7.5,7.5v6.98c0,4.142,3.357,7.5,7.5,7.5s7.5-3.358,7.5-7.5v-6.98     C302.296,310.071,298.939,306.713,294.796,306.713z" data-original="#000000" class="active-path" data-old_color="#44aa3d" fill="#44aa3d"/>
			<path d="M268.757,315.848c-3.123-2.721-7.861-2.396-10.581,0.728c-1.372,1.575-3.352,2.478-5.433,2.478     c-2.08,0-4.06-0.903-5.432-2.478c-2.721-3.123-7.46-3.447-10.581-0.728c-3.123,2.721-3.449,7.459-0.727,10.582     c4.222,4.845,10.323,7.624,16.74,7.624c6.418,0,12.52-2.779,16.741-7.624C272.207,323.307,271.88,318.569,268.757,315.848z" data-original="#000000" class="active-path" data-old_color="#44aa3d" fill="#44aa3d"/>
		</g>
	</g>
</g></g> </svg>
