<?xml version="1.0" encoding="iso-8859-1"?>
<!-- Generator: Adobe Illustrator 19.0.0, SVG Export Plug-In . SVG Version: 6.00 Build 0)  -->
<svg xmlns="http://www.w3.org/2000/svg" xmlns:xlink="http://www.w3.org/1999/xlink" version="1.1" id="Capa_1" x="0px" y="0px" viewBox="0 0 480 480" style="enable-background:new 0 0 480 480;" xml:space="preserve" width="512px" height="512px">
<g>
	<g>
		<path d="M231.708,368h-7.36v-11.08L184.756,312h-32.408V0h-48v312H72.052l-39.704,45.048V368h-7.36l-9.336,112h225.392    L231.708,368z M120.348,16h16v8h-16V16z M120.348,40h16v272h-16V40z M48.348,363.096L79.268,328h98.264l30.816,34.968V368h-160    V363.096z M208.348,464v-56h-16v56h-8v-56h-16v56h-8v-56h-16v56h-8v-56h-16v56h-8v-56h-16v56h-8v-56h-16v56h-8v-56h-16v56H33.044    l6.664-80h177.28l6.664,80H208.348z" fill="#44aa3d"/>
	</g>
</g>
<g>
	<g>
		<path d="M456.348,272v-56c-0.057-48.577-39.423-87.943-88-88h-16c-48.577,0.057-87.943,39.423-88,88v56h-8v16h16.32l8,192H440.02    l8-192h16.328v-16H456.348z M424.676,464H296.02l-7.328-176h143.312L424.676,464z M440.348,272h-160v-56    c0.044-39.746,32.254-71.956,72-72h16c39.746,0.044,71.956,32.254,72,72V272z" fill="#44aa3d"/>
	</g>
</g>
<g>
	<g>
		<rect x="400.348" y="304" width="16" height="16" fill="#44aa3d"/>
	</g>
</g>
<g>
	<g>
		<rect x="400.348" y="328" width="16" height="16" fill="#44aa3d"/>
	</g>
</g>
<g>
	<g>
		<rect x="376.348" y="304" width="16" height="16" fill="#44aa3d"/>
	</g>
</g>
<g>
</g>
<g>
</g>
<g>
</g>
<g>
</g>
<g>
</g>
<g>
</g>
<g>
</g>
<g>
</g>
<g>
</g>
<g>
</g>
<g>
</g>
<g>
</g>
<g>
</g>
<g>
</g>
<g>
</g>
</svg>
