<?xml version="1.0" encoding="iso-8859-1"?>
<!-- Generator: Adobe Illustrator 19.0.0, SVG Export Plug-In . SVG Version: 6.00 Build 0)  -->
<svg xmlns="http://www.w3.org/2000/svg" xmlns:xlink="http://www.w3.org/1999/xlink" version="1.1" id="Capa_1" x="0px" y="0px" viewBox="0 0 512 512" style="enable-background:new 0 0 512 512;" xml:space="preserve" width="512px" height="512px">
<g>
	<g>
		<path d="M497,0h-30c-24.813,0-45,20.187-45,45v106h-45c-74.439,0-135,61.009-135,136v75h-17c-8.271,0-15-6.729-15-15V151    c0-33.084-26.916-60-60-60s-60,26.916-60,60v213.58c-17.459,6.192-30,22.865-30,42.42v16.509C25.808,430.478,0,460.781,0,497    c0,8.284,6.716,15,15,15h180c8.284,0,15-6.716,15-15c0-36.219-25.808-66.522-60-73.491V407c0-19.555-12.541-36.228-30-42.42V151    c0-16.542,13.458-30,30-30s30,13.458,30,30v196c0,24.813,20.187,45,45,45h17v75c0,24.813,20.187,45,45,45h105    c33.084,0,60-26.916,60-60c0-22.541,0-397.139,0-407c0-8.271,6.729-15,15-15h30c8.284,0,15-6.716,15-15S505.284,0,497,0z M90,407    c0-8.271,6.729-15,15-15s15,6.729,15,15v15H90V407z M135,452c19.556,0,36.239,12.539,42.43,30H32.57    c6.191-17.461,22.874-30,42.43-30H135z M272,287c0-53.308,39.183-97.543,90-104.914V287c0,8.271-6.729,15-15,15h-73.636    c-0.46,0-0.914,0.028-1.364,0.069V287z M392,482c-16.542,0-30-13.458-30-30s13.458-30,30-30s30,13.458,30,30S408.542,482,392,482z     M422,400.072c-8.833-5.123-19.075-8.072-30-8.072c-33.084,0-60,26.916-60,60c0,10.925,2.949,21.167,8.072,30H287    c-8.271,0-15-6.729-15-15V331.931c0.45,0.041,0.903,0.069,1.364,0.069H347c24.813,0,45-20.187,45-45V181h30V400.072z" fill="#44aa3d"/>
	</g>
</g>
<g>
</g>
<g>
</g>
<g>
</g>
<g>
</g>
<g>
</g>
<g>
</g>
<g>
</g>
<g>
</g>
<g>
</g>
<g>
</g>
<g>
</g>
<g>
</g>
<g>
</g>
<g>
</g>
<g>
</g>
</svg>
