<?xml version="1.0" encoding="iso-8859-1"?>
<!-- Generator: Adobe Illustrator 19.0.0, SVG Export Plug-In . SVG Version: 6.00 Build 0)  -->
<svg xmlns="http://www.w3.org/2000/svg" xmlns:xlink="http://www.w3.org/1999/xlink" version="1.1" id="Capa_1" x="0px" y="0px" viewBox="0 0 511.998 511.998" style="enable-background:new 0 0 511.998 511.998;" xml:space="preserve" width="512px" height="512px">
<g>
	<g>
		<path d="M451.671,0H60.328C37.405,0,18.755,18.649,18.755,41.571v428.856c0,22.922,18.649,41.571,41.572,41.571h391.344    c22.923,0,41.572-18.649,41.572-41.571V41.571C493.244,18.649,474.594,0,451.671,0z M295.77,387.984    c-1.881,1.921-2.91,4.518-2.853,7.206l2.026,96.808h-36.682v0.001l-2.059-97.229c-0.115-5.439-4.557-9.788-9.997-9.788    l-74.053,0.001c-2.23,0-4.114-1.884-4.114-4.115l-0.001-20.246c0-2.253,1.863-4.096,4.156-4.113h214.966    c2.223,0.006,4.101,1.89,4.101,4.113v20.246c0,2.229-1.884,4.113-4.113,4.113h-84.232    C300.226,384.981,297.651,386.063,295.77,387.984z M199.26,171.616c-3.069-4.59-9.279-5.823-13.872-2.753l-102.31,68.42v-39.066    l51.416-34.385c4.591-3.07,5.824-9.281,2.753-13.872c-3.07-4.59-9.279-5.824-13.871-2.753l-40.298,26.949v-96.18    c0-7.461,6.07-13.53,13.53-13.53h318.783c7.46,0,13.53,6.07,13.53,13.53v193.608h-304.91c-11.5,0-20.855,9.355-20.855,20.854    v43.215c0,11.5,9.355,20.855,20.855,20.855h24.386c-0.232,1.338-0.361,2.711-0.361,4.114l0.001,20.246    c0,13.295,10.816,24.112,24.112,24.114l64.264-0.001l0.901,42.572H96.608c-7.461,0-13.53-6.07-13.53-13.53v-172.68l113.428-75.855    C201.097,182.418,202.33,176.207,199.26,171.616z M123.156,335.654v-43.215c0-0.447,0.408-0.854,0.855-0.854h304.91v44.925    h-304.91v-0.001C123.563,336.509,123.156,336.101,123.156,335.654z M313.125,404.982h74.021c13.296,0,24.113-10.817,24.113-24.113    v-20.246c0-1.402-0.128-2.775-0.359-4.113h18.021v77.515c0,7.46-6.07,13.53-13.53,13.53H314.016L313.125,404.982z     M473.244,470.428c0,11.895-9.677,21.571-21.572,21.571H314.946l-0.512-24.445h100.957c18.489,0,33.53-15.042,33.53-33.53V77.976    c0-18.489-15.041-33.53-33.53-33.53H96.608c-18.489,0-33.53,15.042-33.53,33.53v114.84c0,0.015,0,0.029,0,0.044v63.083    c0,0.015,0,0.029,0,0.044v178.038c0,18.489,15.042,33.53,33.53,33.53h141.131L238.257,492H60.328    c-11.895,0-21.572-9.677-21.572-21.571V41.571C38.755,29.677,48.433,20,60.328,20h391.344c11.895,0,21.572,9.677,21.572,21.571    V470.428z" fill="#44aa3d"/>
	</g>
</g>
<g>
	<g>
		<path d="M161.645,128.081c-3.549-4.231-9.856-4.786-14.088-1.235l-0.618,0.518c-4.231,3.55-4.784,9.857-1.235,14.088    c1.978,2.358,4.813,3.574,7.667,3.574c2.268,0,4.548-0.768,6.421-2.339l0.618-0.518    C164.642,138.619,165.194,132.312,161.645,128.081z" fill="#44aa3d"/>
	</g>
</g>
<g>
	<g>
		<path d="M223.954,149.479c-3.551-4.23-9.858-4.78-14.089-1.23l-0.316,0.266c-4.23,3.551-4.78,9.859-1.23,14.089    c1.98,2.356,4.813,3.571,7.666,3.571c2.269,0,4.55-0.768,6.424-2.341l0.316-0.266    C226.955,160.017,227.505,153.709,223.954,149.479z" fill="#44aa3d"/>
	</g>
</g>
<g>
</g>
<g>
</g>
<g>
</g>
<g>
</g>
<g>
</g>
<g>
</g>
<g>
</g>
<g>
</g>
<g>
</g>
<g>
</g>
<g>
</g>
<g>
</g>
<g>
</g>
<g>
</g>
<g>
</g>
</svg>
