<?xml version="1.0" encoding="iso-8859-1"?>
<!-- Generator: Adobe Illustrator 17.1.0, SVG Export Plug-In . SVG Version: 6.00 Build 0)  -->
<!DOCTYPE svg PUBLIC "-//W3C//DTD SVG 1.1//EN" "http://www.w3.org/Graphics/SVG/1.1/DTD/svg11.dtd">
<svg xmlns="http://www.w3.org/2000/svg" xmlns:xlink="http://www.w3.org/1999/xlink" version="1.1" id="Capa_1" x="0px" y="0px" viewBox="0 0 439.5 439.5" style="enable-background:new 0 0 439.5 439.5;" xml:space="preserve" width="512px" height="512px">
<g>
	<path d="M387.917,423.53V15.955c4.022-0.421,7.158-3.821,7.158-7.955c0-4.418-3.582-8-8-8H52.425c-4.418,0-8,3.582-8,8   c0,4.331,3.444,7.849,7.741,7.987V423.5c-4.418,0-8,3.582-8,8s3.582,8,8,8h335.167c4.418,0,8-3.582,8-8   C395.333,427.278,392.061,423.829,387.917,423.53z M68.167,16h303.75v407.5H164v-95.917c0-4.418-3.582-8-8-8H92.375   c-4.418,0-8,3.582-8,8V423.5H68.167V16z M100.375,383.351c1.976-0.095,3.881-0.92,5.282-2.321c1.489-1.49,2.34-3.55,2.34-5.65   c0-2.11-0.851-4.17-2.34-5.66c-1.401-1.4-3.307-2.226-5.282-2.321v-31.815H148V423.5h-47.625V383.351z" fill="#44aa3d"/>
	<path d="M188.5,391.25h64c4.418,0,8-3.582,8-8v-55.667c0-4.418-3.582-8-8-8h-64c-4.418,0-8,3.582-8,8v55.667   C180.5,387.668,184.082,391.25,188.5,391.25z M244.5,375.25h-16v-39.667h16V375.25z M196.5,335.583h16v39.667h-16V335.583z" fill="#44aa3d"/>
	<path d="M284.75,391.25h64c4.418,0,8-3.582,8-8v-55.667c0-4.418-3.582-8-8-8h-64c-4.418,0-8,3.582-8,8v55.667   C276.75,387.668,280.332,391.25,284.75,391.25z M340.75,375.25h-16v-39.667h16V375.25z M292.75,335.583h16v39.667h-16V335.583z" fill="#44aa3d"/>
	<path d="M188.5,295.25h64c4.418,0,8-3.582,8-8v-55.667c0-4.418-3.582-8-8-8h-64c-4.418,0-8,3.582-8,8v55.667   C180.5,291.668,184.082,295.25,188.5,295.25z M244.5,279.25h-16v-39.667h16V279.25z M196.5,239.583h16v39.667h-16V239.583z" fill="#44aa3d"/>
	<path d="M92.187,295.25h64c4.418,0,8-3.582,8-8v-55.667c0-4.418-3.582-8-8-8h-64c-4.418,0-8,3.582-8,8v55.667   C84.187,291.668,87.769,295.25,92.187,295.25z M148.187,279.25h-16v-39.667h16V279.25z M100.187,239.583h16v39.667h-16V239.583z" fill="#44aa3d"/>
	<path d="M284.75,295.25h64c4.418,0,8-3.582,8-8v-55.667c0-4.418-3.582-8-8-8h-64c-4.418,0-8,3.582-8,8v55.667   C276.75,291.668,280.332,295.25,284.75,295.25z M340.75,279.25h-16v-39.667h16V279.25z M292.75,239.583h16v39.667h-16V239.583z" fill="#44aa3d"/>
	<path d="M188.5,199.583h64c4.418,0,8-3.582,8-8v-55.667c0-4.418-3.582-8-8-8h-64c-4.418,0-8,3.582-8,8v55.667   C180.5,196.002,184.082,199.583,188.5,199.583z M244.5,183.583h-16v-39.667h16V183.583z M196.5,143.917h16v39.667h-16V143.917z" fill="#44aa3d"/>
	<path d="M92.187,199.583h64c4.418,0,8-3.582,8-8v-55.667c0-4.418-3.582-8-8-8h-64c-4.418,0-8,3.582-8,8v55.667   C84.187,196.002,87.769,199.583,92.187,199.583z M148.187,183.583h-16v-39.667h16V183.583z M100.187,143.917h16v39.667h-16V143.917   z" fill="#44aa3d"/>
	<path d="M284.75,199.583h64c4.418,0,8-3.582,8-8v-55.667c0-4.418-3.582-8-8-8h-64c-4.418,0-8,3.582-8,8v55.667   C276.75,196.002,280.332,199.583,284.75,199.583z M340.75,183.583h-16v-39.667h16V183.583z M292.75,143.917h16v39.667h-16V143.917z   " fill="#44aa3d"/>
	<path d="M188.5,103.583h64c4.418,0,8-3.582,8-8V39.917c0-4.418-3.582-8-8-8h-64c-4.418,0-8,3.582-8,8v55.667   C180.5,100.001,184.082,103.583,188.5,103.583z M244.5,87.583h-16V47.917h16V87.583z M196.5,47.917h16v39.667h-16V47.917z" fill="#44aa3d"/>
	<path d="M92.187,103.583h64c4.418,0,8-3.582,8-8V39.917c0-4.418-3.582-8-8-8h-64c-4.418,0-8,3.582-8,8v55.667   C84.187,100.001,87.769,103.583,92.187,103.583z M148.187,87.583h-16V47.917h16V87.583z M100.187,47.917h16v39.667h-16V47.917z" fill="#44aa3d"/>
	<path d="M284.75,103.583h64c4.418,0,8-3.582,8-8V39.917c0-4.418-3.582-8-8-8h-64c-4.418,0-8,3.582-8,8v55.667   C276.75,100.001,280.332,103.583,284.75,103.583z M340.75,87.583h-16V47.917h16V87.583z M292.75,47.917h16v39.667h-16V47.917z" fill="#44aa3d"/>
</g>
<g>
</g>
<g>
</g>
<g>
</g>
<g>
</g>
<g>
</g>
<g>
</g>
<g>
</g>
<g>
</g>
<g>
</g>
<g>
</g>
<g>
</g>
<g>
</g>
<g>
</g>
<g>
</g>
<g>
</g>
</svg>
