<?xml version="1.0" encoding="iso-8859-1"?>
<!-- Generator: Adobe Illustrator 19.0.0, SVG Export Plug-In . SVG Version: 6.00 Build 0)  -->
<svg xmlns="http://www.w3.org/2000/svg" xmlns:xlink="http://www.w3.org/1999/xlink" version="1.1" id="Capa_1" x="0px" y="0px" viewBox="0 0 511.999 511.999" style="enable-background:new 0 0 511.999 511.999;" xml:space="preserve" width="512px" height="512px">
<g>
	<g>
		<path d="M145.419,74.5c-2.764-4.781-8.881-6.417-13.662-3.653c-46.878,27.096-79.199,73.234-88.675,126.585    c-0.966,5.438,2.659,10.629,8.097,11.595c0.592,0.105,1.18,0.156,1.761,0.156c4.756,0,8.974-3.407,9.834-8.253    c8.442-47.529,37.234-88.631,78.992-112.768C146.547,85.398,148.183,79.283,145.419,74.5z" fill="#44aa3d"/>
	</g>
</g>
<g>
	<g>
		<path d="M50.303,218.903h-0.049c-5.5,0-9.973,4.446-9.999,9.952l-0.001,0.657c0,5.523,4.477,10,10,10c5.523,0,10-4.477,10-10    l0.001-0.562C60.281,223.429,55.826,218.929,50.303,218.903z" fill="#44aa3d"/>
	</g>
</g>
<g>
	<g>
		<path d="M511.048,313.435l0.949-80.462c0.089-7.542-2.816-14.684-8.18-20.11c-5.461-5.526-12.738-8.57-20.489-8.57    c-3.063,0-6.014,0.481-8.783,1.371c-1.028-11.473-8.897-21.01-19.502-24.535c-4.184-34.552-10.892-77.814-36.411-92.691    c-7.765-4.527-16.464-6.018-25.976-4.473C350.254,34.335,288.878,5.999,223.269,5.999c-59.639,0-115.708,23.251-157.879,65.47    C23.223,113.684,0,169.812,0,229.512s23.223,115.828,65.39,158.043c42.17,42.218,98.24,65.469,157.879,65.469    c29.64,0,58.37-5.722,85.483-16.995c4.788,2.053,10.039,3.094,15.281,3.094c5.312,0,10.611-1.062,15.398-3.201l1.963-0.877V496    c0,5.523,4.477,10,10,10h142.207c5.523,0,10-4.477,10-10v-66.203c0-5.523-4.477-10-10-10h-4.41l-0.023-30.117    c0.464-1.349,2.089-4.32,3.418-6.749C499.33,370.604,510.617,349.974,511.048,313.435z M223.269,433.023    C111.186,433.024,20,341.729,20,229.512c0-112.218,91.186-203.513,203.269-203.513c57.01,0,110.496,23.516,148.808,64.943    l-75.051,31.536c-21.732-15.061-47.105-22.998-73.757-22.998c-71.624,0-129.894,58.332-129.894,130.032    c0,71.699,58.27,130.031,129.894,130.031c17.496,0,34.86-3.557,50.855-10.358c6.217,20.487,11.633,42.185,16.264,65.191    c0.458,2.279,1.183,4.453,2.144,6.505C270.397,428.935,247.162,433.023,223.269,433.023z M190.767,225.148    c-3.419-5.107-5.225-11.069-5.225-17.244c0-8.664,3.469-16.694,9.768-22.611c0.731-0.687,1.491-1.329,2.271-1.936    c-1.334,7.884,0.44,15.439,5.131,21.533c13.519,17.562,25.669,36.692,36.525,57.503c-4.988-0.878-9.391-3.811-12.147-8.224    c-2.298-3.679-6.706-5.454-10.914-4.402c-4.208,1.055-7.255,4.703-7.545,9.032c-0.632,9.438-8.536,16.831-17.993,16.831    c-9.945,0-18.035-8.105-18.035-18.067c0-8.011,5.132-14.958,12.771-17.288c3.028-0.923,5.439-3.226,6.503-6.207    C192.939,231.086,192.528,227.778,190.767,225.148z M181.617,170.715c-10.367,9.738-16.076,22.945-16.076,37.188    c0,6.335,1.159,12.537,3.399,18.348c-10.08,6.952-16.337,18.486-16.337,31.311c0,20.99,17.063,38.067,38.035,38.067    c13.615,0,25.702-7.263,32.428-18.204c5.747,3.393,12.38,5.249,19.33,5.249c2.204,0,4.376-0.191,6.508-0.559    c6.961,15.132,13.311,31.089,19.061,47.927c-13.984,6.227-29.273,9.501-44.696,9.501c-60.596,0-109.894-49.36-109.894-110.031    c0-60.672,49.298-110.032,109.894-110.032c18.046,0,35.398,4.302,51.03,12.548l-53.165,22.341    c-1.693,0.711-3.332,1.572-4.917,2.535C203.428,156.999,190.979,161.921,181.617,170.715z M331.275,417.661    c-4.716,2.107-11.009,1.913-15.656-0.484c-0.173-0.089-0.355-0.196-0.535-0.298c-0.36-0.261-0.735-0.497-1.125-0.707    c-1.732-1.223-3.425-3.063-3.964-5.742c-5.592-27.785-12.305-53.766-20.182-78.073c-0.023-0.08-0.05-0.159-0.076-0.238    c-7.676-23.657-16.465-45.716-26.401-66.299c-0.004-0.008-0.007-0.018-0.011-0.026c-0.006-0.014-0.015-0.026-0.021-0.039    c-12.932-26.779-27.806-51.062-44.744-73.066c-0.535-0.695-2.163-2.811-1.02-7.133c1.038-3.924,3.874-7.819,7.424-10.476    c0.045-0.032,0.086-0.067,0.131-0.1c1.197-0.881,2.473-1.621,3.787-2.173l158.105-66.434c1.602-0.673,3.143-1.228,4.629-1.672    c0.047-0.013,0.094-0.031,0.142-0.045c6.683-1.97,12.211-1.615,16.802,1.062c14.782,8.618,21.312,39.31,25.018,65.512    c-4.937-8.635-14.259-14.474-24.928-14.474c-14.37,0-26.304,10.588-28.357,24.345c-2.827-0.931-5.846-1.436-8.982-1.436    c-15.808,0-28.67,12.813-28.67,28.563v70.159c-6.54-4.397-13.768-6.818-21.078-6.822h-0.02c-12.357,0-22.528,6.044-26.546,15.777    c-4.261,10.32-0.819,22.091,9.443,32.294c11.073,11.011,14.726,24.234,18.955,39.546c2.093,7.578,4.258,15.414,7.476,23.321    c4.784,11.751,10.46,17.021,15.021,21.255c1.834,1.703,3.452,3.206,4.831,5.217L331.275,417.661z M483.602,485.998H361.395    v-46.203h122.207V485.998z M491.05,313.2c-0.373,31.552-9.782,48.751-16.009,60.131c-2.932,5.359-5.247,9.591-5.799,14.108    c-0.049,0.405-0.074,0.811-0.074,1.219l0.023,31.137h-94.33v0.001c-2.4-17.325-7.998-23.859-15.362-30.695    c-3.751-3.482-6.991-6.49-10.104-14.138c-2.776-6.82-4.692-13.759-6.722-21.106c-4.57-16.543-9.295-33.65-24.131-48.403    c-4.911-4.883-5.794-8.697-5.059-10.48c0.701-1.697,3.464-3.409,8.06-3.409h0.009c7.97,0.004,16.659,7.118,22.136,18.122    c2.068,4.155,6.723,6.343,11.241,5.279c4.518-1.062,7.711-5.093,7.711-9.734v-97.004c0-4.721,3.889-8.563,8.67-8.563    s8.67,3.841,8.67,8.563v97.005c0,5.523,4.477,10,10,10s10-4.477,10-10V185.32c0-4.722,3.889-8.563,8.669-8.563    c4.781,0,8.671,3.841,8.671,8.563v119.913c0,5.523,4.477,10,10,10s10-4.477,10-10v-97.005c0-4.721,3.888-8.563,8.668-8.563    c4.781,0,8.671,3.841,8.671,8.563v97.005c0,5.523,4.477,10,10,10s10-4.477,10-10v-72.376c0-4.722,3.889-8.563,8.669-8.563    c2.365,0,4.589,0.933,6.265,2.628c1.577,1.596,2.432,3.662,2.406,5.816L491.05,313.2z" fill="#44aa3d"/>
	</g>
</g>
<g>
</g>
<g>
</g>
<g>
</g>
<g>
</g>
<g>
</g>
<g>
</g>
<g>
</g>
<g>
</g>
<g>
</g>
<g>
</g>
<g>
</g>
<g>
</g>
<g>
</g>
<g>
</g>
<g>
</g>
</svg>
