<?xml version="1.0" encoding="iso-8859-1"?>
<!-- Generator: Adobe Illustrator 19.0.0, SVG Export Plug-In . SVG Version: 6.00 Build 0)  -->
<svg xmlns="http://www.w3.org/2000/svg" xmlns:xlink="http://www.w3.org/1999/xlink" version="1.1" id="Capa_1" x="0px" y="0px" viewBox="0 0 480 480" style="enable-background:new 0 0 480 480;" xml:space="preserve" width="512px" height="512px">
<g>
	<g>
		<path d="M432,216V8c0-4.418-3.582-8-8-8H24c-4.418,0-8,3.582-8,8v464c0,4.418,3.582,8,8,8h400c4.418,0,8-3.582,8-8V328h-16v136H32    V16h384v200H432z" fill="#44aa3d"/>
	</g>
</g>
<g>
	<g>
		<path d="M400,208V40c0-4.418-3.582-8-8-8H56c-4.418,0-8,3.582-8,8v400c0,4.418,3.582,8,8,8h336c4.418,0,8-3.582,8-8v-96h-16v88H64    V48h320v160H400z" fill="#44aa3d"/>
	</g>
</g>
<g>
	<g>
		<rect x="84.4" y="99.999" transform="matrix(0.7071 -0.7071 0.7071 0.7071 -40.0495 119.3106)" width="79.192" height="16" fill="#44aa3d"/>
	</g>
</g>
<g>
	<g>
		<rect x="74.467" y="123.994" transform="matrix(0.7071 -0.7071 0.7071 0.7071 -49.9834 143.3168)" width="147.081" height="16" fill="#44aa3d"/>
	</g>
</g>
<g>
	<g>
		<path d="M176,368v24c0,4.418-3.582,8-8,8s-8-3.582-8-8v-32c0-13.255-10.745-24-24-24s-24,10.745-24,24v8c0,4.418-3.582,8-8,8    s-8-3.582-8-8v-40H80v40c0,13.255,10.745,24,24,24s24-10.745,24-24v-8c0-4.418,3.582-8,8-8s8,3.582,8,8v32    c0,13.255,10.745,24,24,24s24-10.745,24-24v-24H176z" fill="#44aa3d"/>
	</g>
</g>
<g>
	<g>
		<path d="M464,248v-16h-64c0-2.238-0.937-4.373-2.584-5.888c-1.634-1.535-3.849-2.292-6.08-2.08l-90.6,7.544l-13.6-27.152    c-1.352-2.705-4.112-4.416-7.136-4.424h-24c-1.291,0.026-2.556,0.372-3.68,1.008l-13.328-13.328l-5.84-17.52l52.504-52.504    c3.123-3.124,3.123-8.188,0-11.312l-24-24c-3.124-3.123-8.188-3.123-11.312,0l-152,151.768c-3.112,3.122-3.112,8.174,0,11.296    l24,24.232c1.497,1.506,3.532,2.355,5.656,2.36c2.122,0,4.156-0.844,5.656-2.344l52.504-52.504l17.52,5.84l9.6,9.6    c-3.129,1.131-5.232,4.081-5.28,7.408v64c-0.017,4.152,3.145,7.626,7.28,8l85.112,7.736l29.952,29.952    c3.124,3.123,8.188,3.123,11.312,0l24-24l25.6,2.328c0.24,0,0.48,0,0.72,0c4.418,0,8-3.582,8-8V312h64v-16H400v-48H464z     M128,252.656L115.264,239.8L256,99.312L268.688,112L128,252.656z M213.656,210.344c-0.881-0.874-1.951-1.534-3.128-1.928    l-11.744-3.912l10.848-10.848l10.848-10.84l3.904,11.712c0.394,1.179,1.056,2.25,1.936,3.128L248,219.312V232h-12.688    L213.656,210.344z M336,332.688l-10.72-10.72l19.656,1.784L336,332.688z M384,311.24l-160-14.544V248h32c4.418,0,8-3.582,8-8v-24    h11.056l13.744,27.576c1.452,2.938,4.56,4.682,7.824,4.392L384,240.696V311.24z" fill="#44aa3d"/>
	</g>
</g>
<g>
	<g>
		<rect x="320.003" y="114.716" transform="matrix(0.7071 -0.7071 0.7071 0.7071 -17.0473 278.7878)" width="16" height="90.512" fill="#44aa3d"/>
	</g>
</g>
<g>
	<g>
		<rect x="167.986" y="266.724" transform="matrix(0.7071 -0.7071 0.7071 0.7071 -169.058 215.8168)" width="16" height="90.512" fill="#44aa3d"/>
	</g>
</g>
<g>
</g>
<g>
</g>
<g>
</g>
<g>
</g>
<g>
</g>
<g>
</g>
<g>
</g>
<g>
</g>
<g>
</g>
<g>
</g>
<g>
</g>
<g>
</g>
<g>
</g>
<g>
</g>
<g>
</g>
</svg>
