<svg width="60" height="61" viewBox="0 0 60 61" fill="none" xmlns="http://www.w3.org/2000/svg">
<path d="M30.0049 15.2524C30.5569 15.2524 31.0049 14.8054 31.0049 14.2524V12.2524C31.0049 11.6994 30.5569 11.2524 30.0049 11.2524C29.4529 11.2524 29.0049 11.6994 29.0049 12.2524V14.2524C29.0049 14.8054 29.4529 15.2524 30.0049 15.2524Z" fill="url(#paint0_linear)"/>
<path d="M30.0049 45.2524C29.4529 45.2524 29.0049 45.6994 29.0049 46.2524V48.2524C29.0049 48.8054 29.4529 49.2524 30.0049 49.2524C30.5569 49.2524 31.0049 48.8054 31.0049 48.2524V46.2524C31.0049 45.6994 30.5569 45.2524 30.0049 45.2524Z" fill="url(#paint1_linear)"/>
<path d="M46.0049 31.2524H48.0049C48.5569 31.2524 49.0049 30.8054 49.0049 30.2524C49.0049 29.6994 48.5569 29.2524 48.0049 29.2524H46.0049C45.4529 29.2524 45.0049 29.6994 45.0049 30.2524C45.0049 30.8054 45.4529 31.2524 46.0049 31.2524Z" fill="url(#paint2_linear)"/>
<path d="M14.0049 29.2524H12.0049C11.4529 29.2524 11.0049 29.6994 11.0049 30.2524C11.0049 30.8054 11.4529 31.2524 12.0049 31.2524H14.0049C14.5569 31.2524 15.0049 30.8054 15.0049 30.2524C15.0049 29.6994 14.5569 29.2524 14.0049 29.2524Z" fill="url(#paint3_linear)"/>
<path d="M31.0049 25.3944V20.2524C31.0049 19.6994 30.5569 19.2524 30.0049 19.2524C29.4529 19.2524 29.0049 19.6994 29.0049 20.2524V25.3944C27.2849 25.8414 26.0049 27.3934 26.0049 29.2524C26.0049 29.9924 26.2199 30.6764 26.5719 31.2714L18.2979 39.5454C17.9069 39.9364 17.9069 40.5684 18.2979 40.9594C18.4929 41.1544 18.7489 41.2524 19.0049 41.2524C19.2609 41.2524 19.5169 41.1544 19.7119 40.9594L27.9859 32.6854C28.5809 33.0374 29.2649 33.2524 30.0049 33.2524C32.2109 33.2524 34.0049 31.4584 34.0049 29.2524C34.0049 27.3934 32.7249 25.8414 31.0049 25.3944ZM30.0049 31.2524C28.9019 31.2524 28.0049 30.3554 28.0049 29.2524C28.0049 28.1494 28.9019 27.2524 30.0049 27.2524C31.1079 27.2524 32.0049 28.1494 32.0049 29.2524C32.0049 30.3554 31.1079 31.2524 30.0049 31.2524Z" fill="url(#paint4_linear)"/>
<path d="M1.00488 31.2524C1.55688 31.2524 2.00488 30.8054 2.00488 30.2524C2.00488 14.8134 14.5659 2.25244 30.0049 2.25244C36.3319 2.25244 42.3829 4.36744 47.3069 8.25244H42.0049C41.4529 8.25244 41.0049 8.69944 41.0049 9.25244C41.0049 9.80544 41.4529 10.2524 42.0049 10.2524H49.9199C49.9859 10.2584 50.0479 10.2594 50.1129 10.2524H51.0039V1.25244C51.0039 0.699441 50.5559 0.252441 50.0039 0.252441C49.4519 0.252441 49.0039 0.699441 49.0039 1.25244V7.06244C43.6479 2.66044 36.9859 0.252441 30.0049 0.252441C13.4629 0.252441 0.00488281 13.7104 0.00488281 30.2524C0.00488281 30.8054 0.452883 31.2524 1.00488 31.2524Z" fill="#C6D9FF"/>
<path d="M30.0049 8.25244C17.8739 8.25244 8.00488 18.1214 8.00488 30.2524C8.00488 42.3834 17.8739 52.2524 30.0049 52.2524C42.1359 52.2524 52.0049 42.3834 52.0049 30.2524C52.0049 18.1214 42.1359 8.25244 30.0049 8.25244ZM30.0049 50.2524C18.9769 50.2524 10.0049 41.2804 10.0049 30.2524C10.0049 19.2244 18.9769 10.2524 30.0049 10.2524C41.0329 10.2524 50.0049 19.2244 50.0049 30.2524C50.0049 41.2804 41.0329 50.2524 30.0049 50.2524Z" fill="#C6D9FF"/>
<path d="M11.8939 52.9124C11.5639 53.3514 11.6539 53.9814 12.1039 54.3114C12.2739 54.4414 12.4839 54.5014 12.6939 54.5014C13.0039 54.5014 13.3039 54.3714 13.5039 54.1014C13.8239 53.6624 13.7339 53.0324 13.2939 52.7024C12.8539 52.3724 12.2249 52.4624 11.8939 52.9124Z" fill="#C6D9FF"/>
<path d="M7.23488 46.5224C6.91488 46.0834 6.28488 45.9724 5.83488 46.2934C5.38488 46.6234 5.28488 47.2434 5.60488 47.6924C5.80488 47.9634 6.10488 48.1124 6.42488 48.1124C6.62488 48.1124 6.82488 48.0524 7.00488 47.9234C7.45388 47.6024 7.55488 46.9724 7.23488 46.5224Z" fill="#C6D9FF"/>
<path d="M7.62388 48.7024C7.21388 49.0714 7.17388 49.7024 7.54388 50.1114C7.73388 50.3414 8.01388 50.4524 8.29388 50.4524C8.52388 50.4524 8.76388 50.3724 8.95388 50.2024C9.36388 49.8324 9.40388 49.2024 9.03388 48.7924C8.67488 48.3724 8.04488 48.3424 7.62388 48.7024Z" fill="#C6D9FF"/>
<path d="M11.0649 50.8524C10.6649 50.4824 10.0249 50.5124 9.65488 50.9134C9.27488 51.3224 9.30488 51.9534 9.71488 52.3334C9.90488 52.5034 10.1449 52.5934 10.3849 52.5934C10.6549 52.5934 10.9249 52.4834 11.1249 52.2734C11.4949 51.8634 11.4749 51.2334 11.0649 50.8634C11.0649 50.8524 11.0649 50.8524 11.0649 50.8524Z" fill="#C6D9FF"/>
<path d="M5.67488 44.0924C5.66488 44.0924 5.66488 44.0924 5.66488 44.0924C5.39488 43.6124 4.78488 43.4424 4.30488 43.7224C3.82488 43.9934 3.65488 44.6024 3.93488 45.0824C4.11488 45.4014 4.45488 45.5824 4.80488 45.5824C4.96488 45.5824 5.14488 45.5424 5.29488 45.4524C5.77488 45.1824 5.94488 44.5714 5.67488 44.0924Z" fill="#C6D9FF"/>
<path d="M58.9449 32.3724C58.9649 32.3724 58.9749 32.3724 58.9849 32.3724C59.5249 32.3724 59.9649 31.9414 59.9849 31.4124C60.0049 30.8514 59.5749 30.3914 59.0249 30.3724C58.4749 30.3514 58.0049 30.7824 57.9849 31.3324C57.9649 31.8824 58.3939 32.3524 58.9449 32.3724Z" fill="#C6D9FF"/>
<path d="M1.26488 34.2424C1.81488 34.1814 2.21488 33.6914 2.15488 33.1414C2.09488 32.5914 1.60488 32.1914 1.05488 32.2514C0.504883 32.3014 0.104883 32.8014 0.164883 33.3414C0.214883 33.8614 0.654883 34.2414 1.15488 34.2414C1.19488 34.2424 1.22488 34.2424 1.26488 34.2424Z" fill="#C6D9FF"/>
<path d="M1.82488 37.1824C2.36488 37.0724 2.71488 36.5424 2.59488 36.0024C2.48488 35.4624 1.95488 35.1114 1.41488 35.2314C0.874883 35.3414 0.524883 35.8724 0.644883 36.4124C0.734883 36.8824 1.15488 37.2024 1.61488 37.2024C1.68388 37.2024 1.75488 37.2024 1.82488 37.1824Z" fill="#C6D9FF"/>
<path d="M4.36488 41.5024C4.14488 41.0024 3.55488 40.7724 3.04488 40.9924C2.54488 41.2124 2.31488 41.8024 2.53488 42.3114C2.70488 42.6814 3.06488 42.9124 3.45488 42.9124C3.58488 42.9124 3.72488 42.8824 3.85488 42.8214C4.35388 42.6024 4.58388 42.0124 4.36488 41.5024Z" fill="#C6D9FF"/>
<path d="M3.33388 38.8024C3.17388 38.2724 2.60388 37.9824 2.08388 38.1524C1.55388 38.3224 1.26388 38.8824 1.43388 39.4134C1.57388 39.8334 1.96388 40.1024 2.38388 40.1024C2.48388 40.1024 2.59388 40.0924 2.69388 40.0624C3.21488 39.8924 3.50488 39.3214 3.33388 38.8024Z" fill="#C6D9FF"/>
<path d="M29.4649 58.2424C28.9149 58.2314 28.4549 58.6724 28.4449 59.2214C28.4349 59.7824 28.8749 60.2314 29.4249 60.2424C29.4349 60.2424 29.4449 60.2424 29.4449 60.2424C29.9949 60.2424 30.4349 59.8114 30.4449 59.2624C30.4539 58.7124 30.0149 58.2524 29.4649 58.2424Z" fill="#C6D9FF"/>
<path d="M52.1349 47.3924C51.7949 47.8224 51.8749 48.4534 52.3049 48.7924C52.4949 48.9324 52.7049 49.0024 52.9249 49.0024C53.2149 49.0024 53.5149 48.8724 53.7149 48.6114C54.0549 48.1814 53.9749 47.5514 53.5349 47.2124C53.0949 46.8734 52.4749 46.9524 52.1349 47.3924Z" fill="#C6D9FF"/>
<path d="M45.8339 53.3324C45.3839 53.6424 45.2639 54.2714 45.5839 54.7224C45.7739 55.0024 46.0839 55.1524 46.4039 55.1524C46.6039 55.1524 46.7939 55.1024 46.9739 54.9824C47.4239 54.6724 47.5439 54.0434 47.2239 53.5924C46.9139 53.1324 46.2949 53.0224 45.8339 53.3324Z" fill="#C6D9FF"/>
<path d="M48.1349 51.5714C47.7149 51.9314 47.6649 52.5614 48.0249 52.9814C48.2249 53.2114 48.5049 53.3324 48.7849 53.3324C49.0149 53.3324 49.2449 53.2524 49.4349 53.0924C49.8549 52.7324 49.9049 52.1024 49.5449 51.6824C49.1839 51.2624 48.5549 51.2124 48.1349 51.5714Z" fill="#C6D9FF"/>
<path d="M55.1639 44.6914C54.6939 44.4014 54.0739 44.5514 53.7839 45.0114C53.4939 45.4814 53.6339 46.1014 54.1039 46.3914C54.2739 46.4924 54.4539 46.5414 54.6339 46.5414C54.9639 46.5414 55.2939 46.3814 55.4839 46.0704C55.7749 45.6024 55.6349 44.9814 55.1639 44.6914Z" fill="#C6D9FF"/>
<path d="M50.2449 49.5824C49.8549 49.9814 49.8749 50.6114 50.2749 50.9924C50.4649 51.1814 50.7149 51.2714 50.9649 51.2714C51.2249 51.2714 51.4949 51.1714 51.6849 50.9614C52.0649 50.5614 52.0549 49.9314 51.6549 49.5514C51.2549 49.1714 50.6239 49.1824 50.2449 49.5824Z" fill="#C6D9FF"/>
<path d="M58.8539 33.3614C58.3139 33.2824 57.8039 33.6724 57.7239 34.2124C57.6439 34.7624 58.0239 35.2624 58.5739 35.3424C58.6239 35.3524 58.6739 35.3524 58.7139 35.3524C59.2039 35.3524 59.6339 34.9934 59.7039 34.4934C59.7849 33.9524 59.4049 33.4414 58.8539 33.3614Z" fill="#C6D9FF"/>
<path d="M58.3849 36.3214C57.8449 36.1914 57.3049 36.5214 57.1649 37.0514C57.0349 37.5914 57.3649 38.1314 57.8949 38.2714C57.9749 38.2924 58.0549 38.3014 58.1349 38.3014C58.5849 38.3014 58.9949 37.9914 59.1049 37.5414C59.2449 37.0024 58.9139 36.4624 58.3849 36.3214Z" fill="#C6D9FF"/>
<path d="M15.7039 54.3124C15.2239 54.0334 14.6139 54.1824 14.3339 54.6634C14.0439 55.1334 14.2039 55.7534 14.6739 56.0334C14.8339 56.1334 15.0139 56.1734 15.1839 56.1734C15.5239 56.1734 15.8539 56.0034 16.0439 55.6834C16.3339 55.2124 16.1749 54.6024 15.7039 54.3124Z" fill="#C6D9FF"/>
<path d="M57.6039 39.2224C57.0839 39.0334 56.5039 39.3024 56.3239 39.8224C56.1339 40.3434 56.3939 40.9134 56.9139 41.1024C57.0239 41.1424 57.1439 41.1634 57.2539 41.1634C57.6639 41.1634 58.0539 40.9134 58.1939 40.5034C58.3849 39.9814 58.1239 39.4124 57.6039 39.2224Z" fill="#C6D9FF"/>
<path d="M56.5249 42.0224C56.0349 41.7834 55.4249 41.9824 55.1849 42.4824C54.9449 42.9824 55.1549 43.5834 55.6449 43.8224C55.7849 43.8924 55.9349 43.9234 56.0849 43.9234C56.4549 43.9234 56.8149 43.7134 56.9849 43.3624C57.2249 42.8614 57.0249 42.2624 56.5249 42.0224Z" fill="#C6D9FF"/>
<path d="M26.5749 58.0424C26.0249 57.9724 25.5349 58.3614 25.4649 58.9124C25.3949 59.4624 25.7849 59.9624 26.3349 60.0214V60.0324C26.3749 60.0324 26.4149 60.0324 26.4549 60.0324C26.9549 60.0324 27.3849 59.6624 27.4449 59.1514C27.5149 58.6024 27.1239 58.1114 26.5749 58.0424Z" fill="#C6D9FF"/>
<path d="M20.9449 56.7524C20.4249 56.5714 19.8549 56.8424 19.6749 57.3724C19.4949 57.8924 19.7749 58.4624 20.2949 58.6424C20.4049 58.6724 20.5149 58.6924 20.6249 58.6924C21.0349 58.6924 21.4249 58.4324 21.5649 58.0224C21.7449 57.4924 21.4649 56.9224 20.9449 56.7524Z" fill="#C6D9FF"/>
<path d="M23.7249 57.5424C23.1849 57.4224 22.6549 57.7524 22.5249 58.2924C22.4049 58.8324 22.7449 59.3724 23.2749 59.4924C23.3549 59.5124 23.4249 59.5124 23.5049 59.5124C23.9549 59.5124 24.3749 59.2024 24.4749 58.7424C24.6039 58.2024 24.2649 57.6624 23.7249 57.5424Z" fill="#C6D9FF"/>
<path d="M18.2649 55.6724C17.7549 55.4324 17.1649 55.6514 16.9349 56.1514C16.7049 56.6514 16.9149 57.2524 17.4149 57.4814C17.5549 57.5424 17.6949 57.5714 17.8349 57.5714C18.2149 57.5714 18.5749 57.3614 18.7449 56.9924C18.9749 56.4924 18.7649 55.9014 18.2649 55.6724Z" fill="#C6D9FF"/>
<path d="M35.2249 57.7624C34.6849 57.8624 34.3249 58.3924 34.4249 58.9324C34.5149 59.4124 34.9449 59.7434 35.4149 59.7434C35.4749 59.7434 35.5349 59.7434 35.5949 59.7324C36.1349 59.6234 36.4949 59.1024 36.3949 58.5624C36.2949 58.0124 35.7649 57.6624 35.2249 57.7624Z" fill="#C6D9FF"/>
<path d="M38.0349 57.0824C37.5049 57.2314 37.2049 57.7924 37.3649 58.3214C37.4949 58.7524 37.8949 59.0324 38.3249 59.0324C38.4149 59.0324 38.5149 59.0214 38.6149 58.9924C39.1449 58.8324 39.4449 58.2714 39.2849 57.7424C39.1239 57.2224 38.5649 56.9224 38.0349 57.0824Z" fill="#C6D9FF"/>
<path d="M40.7649 56.1024C40.2549 56.3124 40.0149 56.9024 40.2249 57.4134C40.3849 57.7934 40.7549 58.0224 41.1449 58.0224C41.2749 58.0224 41.4049 58.0024 41.5349 57.9534C42.0449 57.7324 42.2849 57.1524 42.0749 56.6424C41.8539 56.1324 41.2749 55.8924 40.7649 56.1024Z" fill="#C6D9FF"/>
<path d="M32.3539 58.1514C31.8039 58.2024 31.3939 58.6814 31.4439 59.2314C31.4839 59.7524 31.9239 60.1514 32.4439 60.1514C32.4639 60.1514 32.4939 60.1514 32.5239 60.1514V60.1414C33.0739 60.1014 33.4839 59.6214 33.4339 59.0714C33.3939 58.5224 32.9049 58.1114 32.3539 58.1514Z" fill="#C6D9FF"/>
<path d="M43.3739 54.8524C42.8839 55.1124 42.7039 55.7224 42.9739 56.2034C43.1539 56.5434 43.4939 56.7324 43.8539 56.7324C44.0139 56.7324 44.1739 56.6924 44.3239 56.6024C44.8139 56.3424 44.9939 55.7324 44.7239 55.2524C44.4649 54.7624 43.8539 54.5824 43.3739 54.8524Z" fill="#C6D9FF"/>
<defs>
<linearGradient id="paint0_linear" x1="10.4438" y1="35.8579" x2="49.6276" y2="35.2983" gradientUnits="userSpaceOnUse">
<stop stop-color="#5529CF"/>
<stop offset="1" stop-color="#9745FF"/>
</linearGradient>
<linearGradient id="paint1_linear" x1="10.4438" y1="35.8579" x2="49.6276" y2="35.2983" gradientUnits="userSpaceOnUse">
<stop stop-color="#5529CF"/>
<stop offset="1" stop-color="#9745FF"/>
</linearGradient>
<linearGradient id="paint2_linear" x1="10.4438" y1="35.8579" x2="49.6276" y2="35.2983" gradientUnits="userSpaceOnUse">
<stop stop-color="#5529CF"/>
<stop offset="1" stop-color="#9745FF"/>
</linearGradient>
<linearGradient id="paint3_linear" x1="10.4438" y1="35.8579" x2="49.6276" y2="35.2983" gradientUnits="userSpaceOnUse">
<stop stop-color="#5529CF"/>
<stop offset="1" stop-color="#9745FF"/>
</linearGradient>
<linearGradient id="paint4_linear" x1="10.4438" y1="35.8579" x2="49.6276" y2="35.2983" gradientUnits="userSpaceOnUse">
<stop stop-color="#5529CF"/>
<stop offset="1" stop-color="#9745FF"/>
</linearGradient>
</defs>
</svg>
