<?xml version="1.0" encoding="iso-8859-1"?>
<!-- Generator: Adobe Illustrator 19.0.0, SVG Export Plug-In . SVG Version: 6.00 Build 0)  -->
<svg version="1.1" id="Layer_1" xmlns="http://www.w3.org/2000/svg" xmlns:xlink="http://www.w3.org/1999/xlink" x="0px" y="0px"
	 viewBox="0 0 512 512" style="enable-background:new 0 0 512 512;" xml:space="preserve">
<rect x="31.411" y="16.696" style="fill:#9FD3DC;" width="449.18" height="449.18"/>
<rect x="256.001" y="16.696" style="fill:#70C9D8;" width="224.59" height="449.18"/>
<rect x="128.101" y="446.464" style="fill:#8B8B8B;" width="255.789" height="33.391"/>
<rect x="256.001" y="446.464" style="fill:#6F6F6F;" width="127.9" height="33.391"/>
<path style="fill:#F0C838;" d="M145.56,512H21.866V16.696h33.391h161.594c0,3.266,0.019,11.349,0.039,14.846
	c0.355,63.443,0.933,168.43-106.417,292.421c14.038,20.786,35.086,69.019,35.086,171.342L145.56,512L145.56,512z"/>
<rect x="239.305" y="16.696" style="fill:#8B8B8B;" width="33.391" height="446.464"/>
<rect x="256.001" y="16.696" style="fill:#6F6F6F;" width="16.696" height="446.464"/>
<g>
	<path style="fill:#E79C25;" d="M21.866,306.913v33.391h97.82c-3.203-6.736-6.353-12.109-9.213-16.342
		c4.956-5.724,9.679-11.408,14.186-17.05H21.866z"/>
	<path style="fill:#E79C25;" d="M366.441,512h123.694V16.696h-33.391H295.15c0,3.266-0.019,11.349-0.039,14.846
		c-0.355,63.443-0.933,168.43,106.417,292.421c-14.038,20.786-35.086,69.019-35.086,171.342V512z"/>
</g>
<path style="fill:#E0711B;" d="M490.135,306.913v33.391h-97.82c3.203-6.736,6.353-12.109,9.213-16.342
	c-4.956-5.724-9.679-11.408-14.186-17.05H490.135z"/>
<rect x="2.916" style="fill:#8B8B8B;" width="506.168" height="33.391"/>
<rect x="256.001" style="fill:#6F6F6F;" width="253.084" height="33.391"/>
<g>
</g>
<g>
</g>
<g>
</g>
<g>
</g>
<g>
</g>
<g>
</g>
<g>
</g>
<g>
</g>
<g>
</g>
<g>
</g>
<g>
</g>
<g>
</g>
<g>
</g>
<g>
</g>
<g>
</g>
</svg>
