<?xml version="1.0" encoding="iso-8859-1"?>
<!-- Generator: Adobe Illustrator 19.0.0, SVG Export Plug-In . SVG Version: 6.00 Build 0)  -->
<svg version="1.1" id="Layer_1" xmlns="http://www.w3.org/2000/svg" xmlns:xlink="http://www.w3.org/1999/xlink" x="0px" y="0px"
	 viewBox="0 0 512 512" style="enable-background:new 0 0 512 512;" xml:space="preserve">
<polygon style="fill:#74C8EE;" points="482.043,29.957 433.021,29.957 411.234,256 433.021,482.043 482.043,482.043 "/>
<polygon style="fill:#AEE6FF;" points="438.468,29.957 256,29.957 234.213,256 256,482.043 438.468,482.043 "/>
<polygon style="fill:#74C8EE;" points="256,29.957 206.979,29.957 185.191,256 206.979,482.043 256,482.043 "/>
<rect x="29.957" y="29.957" style="fill:#AEE6FF;" width="177.021" height="452.085"/>
<g>
	<polygon style="fill:#FFF296;" points="29.957,29.957 31.649,73.532 256,95.319 480.351,73.532 482.043,29.957 	"/>
	<path style="fill:#FFF296;" d="M480.351,73.532h-41.883l-21.787,113.014l21.787,113.014c9.104,6.843,20.415,10.909,32.681,10.909
		L480.351,73.532z"/>
</g>
<path style="fill:#FFF9CF;" d="M256,73.532L234.213,192L256,310.468c27.157,0,49.666-19.876,53.787-45.874
	c4.121,25.998,26.631,45.874,53.787,45.874s49.666-19.876,53.787-45.874c2.259,14.255,10.055,26.66,21.106,34.966V73.532H256z"/>
<path style="fill:#FFF296;" d="M206.979,73.532L174.298,176.63l32.681,103.098c8.819,18.189,27.448,30.74,49.021,30.74V73.532
	H206.979z"/>
<path style="fill:#FFF9CF;" d="M31.649,73.532l9.202,236.936c27.157,0,49.666-19.876,53.787-45.874
	c4.121,25.998,26.631,45.874,53.787,45.874s49.666-19.876,53.787-45.874c0.848,5.346,2.484,10.425,4.766,15.135V73.532H31.649z"/>
<g>
	<rect x="239.66" y="29.957" style="fill:#F7A676;" width="32.681" height="452.085"/>
	<path style="fill:#F7A676;" d="M8.17,8.17v495.66h495.66V8.17H8.17z M471.149,471.149H40.851V40.851h430.298V471.149z"/>
</g>
<path d="M264.17,308.027v97.76c0,4.513,3.657,8.17,8.17,8.17c4.513,0,8.17-3.657,8.17-8.17v-92.153
	c12.235-5.23,22.444-14.275,29.203-25.505c10.969,18.509,31.07,30.51,53.861,30.51c22.742,0,42.802-11.946,53.787-30.384
	c9.648,16.194,26.299,27.378,45.617,29.859v144.865H280.511v-24.511c0-4.513-3.657-8.17-8.17-8.17c-4.513,0-8.17,3.657-8.17,8.17
	v32.681c0,4.513,3.657,8.17,8.17,8.17h198.809c4.513,0,8.17-3.657,8.17-8.17V40.851c0-4.513-3.657-8.17-8.17-8.17H272.34
	c-4.513,0-8.17,3.657-8.17,8.17v267.086C264.17,307.967,264.17,307.996,264.17,308.027z M462.979,49.021v252.564
	c-19.183-3.37-34.402-18.429-37.548-38.27c-0.629-3.97-4.051-6.891-8.069-6.891s-7.44,2.923-8.069,6.891
	c-3.581,22.588-22.809,38.983-45.718,38.983s-42.138-16.395-45.718-38.983c-0.629-3.97-4.051-6.891-8.069-6.891
	c-4.018,0-7.44,2.923-8.069,6.89c-2.102,13.262-10.049,24.89-21.208,31.911V49.021H462.979z"/>
<path d="M503.83,0H8.17C3.658,0,0,3.657,0,8.17v495.66c0,4.513,3.658,8.17,8.17,8.17h495.66c4.513,0,8.17-3.657,8.17-8.17V8.17
	C512,3.657,508.343,0,503.83,0z M495.66,495.66H16.34V16.34H495.66V495.66z"/>
<path d="M40.851,479.319H239.66c4.512,0,8.17-3.657,8.17-8.17V308.024c0-0.027,0-0.056,0-0.083V40.851c0-4.513-3.658-8.17-8.17-8.17
	H40.851c-4.512,0-8.17,3.657-8.17,8.17v430.298C32.681,475.662,36.339,479.319,40.851,479.319z M49.021,462.979V318.114
	c19.318-2.482,35.969-13.665,45.617-29.859c10.985,18.439,31.046,30.384,53.787,30.384c22.793,0,42.893-12,53.861-30.51
	c6.758,11.23,16.968,20.274,29.203,25.505v149.344H49.021z M231.489,49.021v246.203c-11.158-7.021-19.105-18.65-21.207-31.91
	c-0.63-3.97-4.051-6.891-8.07-6.891c-4.019,0-7.44,2.923-8.07,6.891c-3.581,22.588-22.807,38.983-45.717,38.983
	s-42.137-16.395-45.717-38.983c-0.63-3.97-4.051-6.891-8.07-6.891c-4.019,0-7.44,2.923-8.07,6.891
	c-3.145,19.842-18.364,34.9-37.547,38.27V49.021H231.489z"/>
<g>
</g>
<g>
</g>
<g>
</g>
<g>
</g>
<g>
</g>
<g>
</g>
<g>
</g>
<g>
</g>
<g>
</g>
<g>
</g>
<g>
</g>
<g>
</g>
<g>
</g>
<g>
</g>
<g>
</g>
</svg>
