<?xml version="1.0" encoding="iso-8859-1"?>
<!-- Generator: Adobe Illustrator 19.0.0, SVG Export Plug-In . SVG Version: 6.00 Build 0)  -->
<svg version="1.1" id="Capa_1" xmlns="http://www.w3.org/2000/svg" xmlns:xlink="http://www.w3.org/1999/xlink" x="0px" y="0px"
	 viewBox="0 0 464 464" style="enable-background:new 0 0 464 464;" xml:space="preserve">
<path style="fill:#BB9373;" d="M384,72l-56-32L272,0h-80l-56,40L80,72L0,240l104,104v120h256V344l104-104L384,72z M104,256l-30-30
	l30-66V256z M360,160l30,66l-30,30V160z"/>
<g>
	<path style="fill:#99745B;" d="M128,408h16v16h-16V408z"/>
	<path style="fill:#99745B;" d="M144,424h16v16h-16V424z"/>
</g>
<path style="fill:#FCD797;" d="M288,464l40-72v72H288z"/>
<g>
	<path style="fill:#9A615B;" d="M268,336c-6.627,0-12-5.373-12-12s5.373-12,12-12s12,5.373,12,12S274.627,336,268,336z"/>
	<path style="fill:#9A615B;" d="M268,408c-6.627,0-12-5.373-12-12s5.373-12,12-12s12,5.373,12,12S274.627,408,268,408z"/>
	<path style="fill:#9A615B;" d="M196,336c-6.627,0-12-5.373-12-12s5.373-12,12-12s12,5.373,12,12S202.627,336,196,336z"/>
	<path style="fill:#9A615B;" d="M196,408c-6.627,0-12-5.373-12-12s5.373-12,12-12s12,5.373,12,12S202.627,408,196,408z"/>
</g>
<path style="fill:#F6F6E7;" d="M360.744,145.96L304,112l56-16l-32-56L272,0h-80l-56,40l-32,56l56,16l-56,32l192,144v16h32v-24
	l-61.224-79.2L360.744,145.96z M192,32h80v72l-39.048,53L192,104L192,32z"/>
<path style="fill:#99745B;" d="M192,32v72l40.376,52.248L272,104V32H192z"/>
<g>
</g>
<g>
</g>
<g>
</g>
<g>
</g>
<g>
</g>
<g>
</g>
<g>
</g>
<g>
</g>
<g>
</g>
<g>
</g>
<g>
</g>
<g>
</g>
<g>
</g>
<g>
</g>
<g>
</g>
</svg>
