<svg xmlns="http://www.w3.org/2000/svg" viewBox="0 0 137.502 115.099">
  <defs>
    <style>
      .cls-1 {
        fill: #201600;
      }
    </style>
  </defs>
  <g id="Group_230" data-name="Group 230" transform="translate(-0.272 0.056)">
    <g id="Group_220" data-name="Group 220" transform="translate(69.232 -0.056)">
      <g id="Group_215" data-name="Group 215" transform="translate(5.622 0)">
        <g id="Group_214" data-name="Group 214">
          <g id="Group_213" data-name="Group 213">
            <g id="Group_212" data-name="Group 212">
              <path id="Path_156" data-name="Path 156" class="cls-1" d="M286.953,28.225,273.665,17.713l-6.644-5.256c-1.884-1.487-3.934-2.876-5.057-5.057a7.376,7.376,0,0,1-.826-2.909c-.1-.992.231-2.016.1-3.008-.2-1.521-1.686-1.752-2.942-1.388A10.6,10.6,0,0,0,253.4,3c-1.421,1.487-1.983,3.6-3.7,4.859s-3.6,1.124-5.586,1.19a11.444,11.444,0,0,0-5.19,1.454c-3.5,1.983-6.049,5.818-7.7,9.355-4.429,9.454-5.19,20.494-5.256,30.775-.033,5.553-.066,11.074-.066,16.627,0,.562.628.826,1.091.826h48.691a1.011,1.011,0,0,0,.959-.992V60.057a12.694,12.694,0,0,0-.033-2.215,8.408,8.408,0,0,0-2.578-5.091c-2.644-2.644-5.785-4.925-8.1-7.867-1.487-1.917-2.975-3.867-4.462-5.785-1.454-1.884-2.909-3.8-4.4-5.686-.5.43-1.025.826-1.521,1.256,2.942,2.38,6.016,4.363,9.95,3.967,1.091-.1,2.116-.463,3.206-.5a7.051,7.051,0,0,1,3.868,1.223,13.727,13.727,0,0,0,5.124,2.281c4.033.562,6.281-2.116,8.627-4.925,1.091-1.322,2.314-2.512,2.479-4.3a4.978,4.978,0,0,0-1.851-4.2c-.892-.793-2.347.529-1.355,1.421,3.074,2.711-1.025,6.281-2.909,8.363a5.234,5.234,0,0,1-4.033,1.851c-1.818-.033-3.471-1.19-4.991-2.082a9.187,9.187,0,0,0-3.768-1.421,16.839,16.839,0,0,0-4.264.43c-3.5.5-6.148-1.421-8.727-3.5-.793-.628-2.248.3-1.521,1.256l8.429,10.908a40.082,40.082,0,0,0,5.52,5.586c1.884,1.719,4.33,3.471,5.057,6.016a9.481,9.481,0,0,1,.231,2.677c-.033,2.545,0,5.091,0,7.6.331-.331.628-.661.959-.992H226.892c.364.264.727.562,1.091.826,0-13.784-.727-27.9,3.206-41.253a28.294,28.294,0,0,1,6.446-11.9,10.035,10.035,0,0,1,4.628-2.81c1.785-.463,3.636-.1,5.421-.463a8.2,8.2,0,0,0,4.033-2.016c1.521-1.388,2.082-3.438,3.57-4.826a9.556,9.556,0,0,1,2.777-1.719,6.034,6.034,0,0,1,.926-.331c.264.165.066.959.066,1.19a9.947,9.947,0,0,0,1.157,5.421,15.861,15.861,0,0,0,4.4,4.628l6.644,5.256c4.793,3.768,9.553,7.537,14.346,11.3C286.524,30.373,287.978,29.051,286.953,28.225Z" transform="translate(-225.9 0.056)"/>
            </g>
          </g>
        </g>
      </g>
      <g id="Group_219" data-name="Group 219" transform="translate(0 72.114)">
        <g id="Group_218" data-name="Group 218">
          <g id="Group_217" data-name="Group 217">
            <g id="Group_216" data-name="Group 216">
              <path id="Path_157" data-name="Path 157" class="cls-1" d="M271.7,231.458c-1.058-2.083-2.083-4.165-3.14-6.247-.892-1.818-1.752-4.661-3.4-5.983-1.355-1.091-2.876-1.091-4.5-1.091H219.9a9.936,9.936,0,0,0-3.57.264c-1.983.793-2.909,4.033-3.768,5.752-1.124,2.248-2.413,4.462-3.372,6.776-1.223,2.909,1.521,5.024,4.2,5.124,3.4.132,6.809,0,10.214,0h37.088c2.777,0,5.818.364,8.594-.033a3.13,3.13,0,0,0,2.479-4.363c-.3-.727-2.611-1.157-2.347-.5,1.851,4.628-5.091,3.57-7.437,3.57H214.647a10.221,10.221,0,0,1-2.248,0c-2.711-.727.231-5.19.893-6.479,1.19-2.347,2.281-4.76,3.537-7.074a2.94,2.94,0,0,1,3.008-1.719H258.38c1.388,0,2.843-.132,4.2,0s1.719,1.454,2.281,2.578c1.256,2.545,2.545,5.057,3.8,7.6.264.562.562,1.124.826,1.686C269.817,231.954,272.164,232.417,271.7,231.458Z" transform="translate(-208.893 -218.105)"/>
            </g>
          </g>
        </g>
      </g>
    </g>
    <g id="Group_229" data-name="Group 229" transform="translate(0.272 24.921)">
      <g id="Group_224" data-name="Group 224">
        <g id="Group_223" data-name="Group 223">
          <g id="Group_222" data-name="Group 222">
            <g id="Group_221" data-name="Group 221">
              <path id="Path_158" data-name="Path 158" class="cls-1" d="M3.322,105.319q6.4-5.008,12.792-10.082c2.049-1.62,4.066-3.239,6.115-4.859a38.588,38.588,0,0,0,5.19-4.363,10.2,10.2,0,0,0,2.215-4.066,8.965,8.965,0,0,0,.331-2.479,7.151,7.151,0,0,0-.066-1.454c-.2-.992.1-.562.926-.264a8.781,8.781,0,0,1,4.628,4.165,9.1,9.1,0,0,0,3.471,3.6c3.239,1.752,7.008.364,10.247,2.314,3.669,2.248,6.115,6.644,7.6,10.545,3.735,9.718,4.132,20.23,4.231,30.51.033,4.694.066,9.355.066,14.049.331-.331.628-.661.959-.992H13.338c.364.264.727.562,1.091.826v-6.842c0-.661-.066-1.355,0-2.016.2-2.578,1.917-4.165,3.7-5.851a63.051,63.051,0,0,0,6.71-6.578c1.521-1.95,3.041-3.934,4.562-5.884,1.388-1.818,2.777-3.6,4.2-5.421a.971.971,0,0,0-1.355-1.355c-2.578,2.082-5.19,4-8.694,3.537a16.99,16.99,0,0,0-4.264-.43,9.561,9.561,0,0,0-4.066,1.554c-2.876,1.752-6.115,3.14-8.76.2C4.479,111.5.38,107.964,3.587,105.154c.992-.859-.661-1.95-1.554-1.19a4.919,4.919,0,0,0-1.752,4c.132,1.884,1.454,3.14,2.611,4.529,2.314,2.777,4.595,5.388,8.594,4.76a15.052,15.052,0,0,0,4.925-2.215,7.376,7.376,0,0,1,3.57-1.256,25.075,25.075,0,0,1,3.471.5c3.967.43,7.041-1.487,9.983-3.9l-1.355-1.355c-2.876,3.735-5.752,7.437-8.627,11.173a58.877,58.877,0,0,1-6.611,6.545c-1.785,1.653-3.537,3.206-4.165,5.652a10.337,10.337,0,0,0-.231,2.843c.033,2.578,0,5.157,0,7.7,0,.562.628.826,1.091.826H62.227a1.011,1.011,0,0,0,.959-.992c0-14.577.892-29.684-3.9-43.666a27.4,27.4,0,0,0-6.842-11.239,12.111,12.111,0,0,0-4.529-2.677c-1.95-.595-3.834-.264-5.785-.595A6.581,6.581,0,0,1,37.4,81.156a10.832,10.832,0,0,0-3.867-4.231C32.345,76.2,30.3,75.04,28.841,75.7c-1.62.76-.793,2.843-.892,4.231a8.792,8.792,0,0,1-3.206,6.016c-2.38,2.082-4.991,3.967-7.471,5.917-5.024,3.967-10.049,7.966-15.073,11.9A.959.959,0,1,0,3.322,105.319Z" transform="translate(-0.272 -75.505)"/>
            </g>
          </g>
        </g>
      </g>
      <g id="Group_228" data-name="Group 228" transform="translate(5.319 72.074)">
        <g id="Group_227" data-name="Group 227">
          <g id="Group_226" data-name="Group 226">
            <g id="Group_225" data-name="Group 225">
              <path id="Path_159" data-name="Path 159" class="cls-1" d="M18.987,307.314c1.818-3.669,3.438-7.57,5.52-11.074.892-1.487,2.182-1.256,3.6-1.256H67.116a18.032,18.032,0,0,1,3.272,0c1.355.264,2.182,3.107,2.744,4.165,1.19,2.38,2.413,4.727,3.57,7.14.892,1.884.033,3.867-2.116,3.934-9.355.3-18.742,0-28.064,0h-23.3a16.608,16.608,0,0,1-3.14,0c-1.388-.264-1.587-1.719-1.091-2.909.3-.727-2.049-1.554-2.347-.793-1.19,2.975,1.686,4.991,4.4,5.057,1.256.033,2.479,0,3.735,0H74.388a7.823,7.823,0,0,0,3.5-.4c3.008-1.554,1.124-4.595.066-6.677-1.289-2.611-2.611-5.223-3.9-7.834a5.046,5.046,0,0,0-4.628-3.008c-10.512-.264-21.089,0-31.634,0-4.033,0-8.1-.066-12.131,0-2.149.033-3.107,1.124-3.967,2.876-1.355,2.711-2.711,5.388-4.033,8.1-.331.628-.628,1.256-.959,1.884C16.31,307.182,18.591,308.074,18.987,307.314Z" transform="translate(-16.364 -293.544)"/>
            </g>
          </g>
        </g>
      </g>
    </g>
  </g>
</svg>
