<?xml version="1.0" encoding="iso-8859-1"?>
<!-- Generator: Adobe Illustrator 19.0.0, SVG Export Plug-In . SVG Version: 6.00 Build 0)  -->
<svg version="1.1" id="Capa_1" xmlns="http://www.w3.org/2000/svg" xmlns:xlink="http://www.w3.org/1999/xlink" x="0px" y="0px"
	 viewBox="0 0 512 512" style="enable-background:new 0 0 512 512;" xml:space="preserve">
<g>
	<rect x="8.533" y="8.533" style="fill:#FFFFFF;" width="238.933" height="494.933"/>
	<rect x="264.533" y="8.533" style="fill:#A4C2F7;" width="238.933" height="494.933"/>
	<rect x="34.133" y="8.533" style="fill:#E3E7F2;" width="443.733" height="494.933"/>
	<g>
		<path style="fill:#428DFF;" d="M503.467,512H8.533c-2.264,0.001-4.435-0.897-6.035-2.498c-1.601-1.601-2.499-3.772-2.498-6.035
			V8.533C-0.001,6.27,0.897,4.099,2.498,2.498S6.27-0.001,8.533,0h494.933c2.264-0.001,4.435,0.897,6.035,2.498
			c1.601,1.601,2.499,3.772,2.498,6.035v494.933c0.001,2.264-0.897,4.435-2.498,6.035C507.901,511.103,505.73,512.001,503.467,512z
			 M17.067,494.933h477.867V17.067H17.067V494.933z"/>
		<path style="fill:#428DFF;" d="M130.575,389.958c-3.451-0.001-6.562-2.08-7.882-5.268c-1.32-3.188-0.591-6.858,1.849-9.298
			l253.425-253.425c2.149-2.188,5.307-3.055,8.271-2.27c2.965,0.785,5.28,3.1,6.065,6.065c0.785,2.965-0.082,6.122-2.27,8.271
			L136.608,387.458C135.01,389.061,132.839,389.961,130.575,389.958z"/>
		<path style="fill:#428DFF;" d="M384,389.958c-2.264,0.003-4.435-0.897-6.033-2.5L124.542,134.033
			c-3.296-3.338-3.279-8.711,0.038-12.029c3.317-3.317,8.691-3.334,12.029-0.038l253.425,253.425c2.44,2.44,3.169,6.11,1.849,9.298
			C390.562,387.878,387.451,389.957,384,389.958L384,389.958z"/>
	</g>
</g>
<g>
</g>
<g>
</g>
<g>
</g>
<g>
</g>
<g>
</g>
<g>
</g>
<g>
</g>
<g>
</g>
<g>
</g>
<g>
</g>
<g>
</g>
<g>
</g>
<g>
</g>
<g>
</g>
<g>
</g>
</svg>
