<?xml version="1.0" encoding="iso-8859-1"?>
<!-- Generator: Adobe Illustrator 19.0.0, SVG Export Plug-In . SVG Version: 6.00 Build 0)  -->
<svg version="1.1" id="Capa_1" xmlns="http://www.w3.org/2000/svg" xmlns:xlink="http://www.w3.org/1999/xlink" x="0px" y="0px"
	 viewBox="0 0 480 480" style="enable-background:new 0 0 480 480;" xml:space="preserve">
<path style="fill:#E7E7E8;" d="M32,88c0,17.673,14.327,32,32,32h320c17.673,0,32-14.327,32-32V40c0-17.673-14.327-32-32-32H64
	C46.327,8,32,22.327,32,40V88z"/>
<g>
	<path style="fill:#96949C;" d="M24,80h8V48h-8c-8.837,0-16,7.163-16,16S15.163,80,24,80z"/>
	<path style="fill:#96949C;" d="M448,80V64V48h-32v32H448z"/>
</g>
<path style="fill:#C49A6C;" d="M200,456c0,8.837,7.163,16,16,16h16c8.837,0,16-7.163,16-16V296h-48V456z"/>
<path style="fill:#231F20;" d="M456,56v-8c0-4.418-3.582-8-8-8h-24c-0.026-22.08-17.92-39.974-40-40H64
	C41.92,0.026,24.026,17.92,24,40C10.745,40,0,50.745,0,64s10.745,24,24,24c0.026,22.08,17.92,39.974,40,40h320
	c22.08-0.026,39.974-17.92,40-40h24c4.418,0,8-3.582,8-8v-8c4.418,0,8,3.582,8,8v67.608c-0.001,3.647-2.469,6.832-6,7.744
	L234,213.16c-10.583,2.732-17.983,12.27-18,23.2V288h-16c-4.418,0-8,3.582-8,8v160c0,13.255,10.745,24,24,24h16
	c13.255,0,24-10.745,24-24V296c0-4.418-3.582-8-8-8h-16v-51.608c0.001-3.647,2.469-6.832,6-7.744l224-57.808
	c10.583-2.732,17.983-12.27,18-23.2V80C480,66.745,469.255,56,456,56z M16,64c0-4.418,3.582-8,8-8v16C19.582,72,16,68.418,16,64z
	 M408,88c0,13.255-10.745,24-24,24H64c-13.255,0-24-10.745-24-24V40c0-13.255,10.745-24,24-24h320c13.255,0,24,10.745,24,24V88z
	 M440,72h-16V56h16V72z M240,456c0,4.418-3.582,8-8,8h-16c-4.418,0-8-3.582-8-8V304h32V456z"/>
<g>
</g>
<g>
</g>
<g>
</g>
<g>
</g>
<g>
</g>
<g>
</g>
<g>
</g>
<g>
</g>
<g>
</g>
<g>
</g>
<g>
</g>
<g>
</g>
<g>
</g>
<g>
</g>
<g>
</g>
</svg>
