<?xml version="1.0" encoding="iso-8859-1"?>
<!-- Generator: Adobe Illustrator 19.0.0, SVG Export Plug-In . SVG Version: 6.00 Build 0)  -->
<svg version="1.1" id="Capa_1" xmlns="http://www.w3.org/2000/svg" xmlns:xlink="http://www.w3.org/1999/xlink" x="0px" y="0px"
	 viewBox="0 0 480 480" style="enable-background:new 0 0 480 480;" xml:space="preserve">
<g>
	<path style="fill:#C2B59B;" d="M240,184v208h160V184H240z"/>
	<path style="fill:#C2B59B;" d="M240,184H80v208h160V184z"/>
</g>
<path style="fill:#806749;" d="M96,392v80h24l5.768-34.632c1.287-7.715,7.962-13.369,15.784-13.368h196.896
	c7.822-0.001,14.497,5.653,15.784,13.368L360,472h24v-80H96z"/>
<g>
	<path style="fill:#BDDBFF;" d="M317.12,184c5.332-3.513,10.291-7.56,14.8-12.08c18.027-18,28.134-42.445,28.08-67.92H120
		c-0.056,32.197,16.089,62.263,42.96,80H317.12z"/>
	<path style="fill:#BDDBFF;" d="M184,80h32v24h-32V80z"/>
	<path style="fill:#BDDBFF;" d="M264,80h32v24h-32V80z"/>
</g>
<g>
	<path style="fill:#231F20;" d="M400,176h-60.992c18.66-19.316,29.059-45.143,28.992-72c0-4.418-3.582-8-8-8h-56V80
		c0-4.418-3.582-8-8-8h-32c-4.418,0-8,3.582-8,8v16h-8V40c0-13.255,10.745-24,24-24s24,10.745,24,24c0,4.418,3.582,8,8,8
		s8-3.582,8-8c0-22.091-17.909-40-40-40s-40,17.909-40,40v56h-8V80c0-4.418-3.582-8-8-8h-32c-4.418,0-8,3.582-8,8v16h-56
		c-4.418,0-8,3.582-8,8c-0.01,26.867,10.427,52.686,29.104,72H80c-4.418,0-8,3.582-8,8v208c0,4.418,3.582,8,8,8h8v72
		c0,4.418,3.582,8,8,8h24c3.911-0.002,7.247-2.83,7.888-6.688l5.776-34.632c0.645-3.854,3.98-6.679,7.888-6.68h196.896
		c3.908,0.001,7.243,2.826,7.888,6.68l5.776,34.632c0.641,3.858,3.977,6.686,7.888,6.688h24c4.418,0,8-3.582,8-8v-72h8
		c4.418,0,8-3.582,8-8V184C408,179.582,404.418,176,400,176z M272,88h16v8h-16V88z M192,88h16v8h-16V88z M128.36,112h223.288
		c-2.297,25.74-15.829,49.157-36.984,64h-149.24C144.217,161.193,130.648,137.763,128.36,112z M88,192h144v192H88V192z M376,464
		h-9.224l-4.656-27.944c-1.9-11.588-11.929-20.085-23.672-20.056H141.552c-11.743-0.029-21.772,8.468-23.672,20.056L113.224,464H104
		v-64h272V464z M392,384H248V192h144V384z"/>
	<path style="fill:#231F20;" d="M264,264c-4.418,0-8,3.582-8,8v32c0,4.418,3.582,8,8,8s8-3.582,8-8v-32
		C272,267.582,268.418,264,264,264z"/>
	<path style="fill:#231F20;" d="M216,312c4.418,0,8-3.582,8-8v-32c0-4.418-3.582-8-8-8s-8,3.582-8,8v32
		C208,308.418,211.582,312,216,312z"/>
</g>
<g>
</g>
<g>
</g>
<g>
</g>
<g>
</g>
<g>
</g>
<g>
</g>
<g>
</g>
<g>
</g>
<g>
</g>
<g>
</g>
<g>
</g>
<g>
</g>
<g>
</g>
<g>
</g>
<g>
</g>
</svg>
