<?xml version="1.0" encoding="iso-8859-1"?>
<!-- Generator: Adobe Illustrator 19.0.0, SVG Export Plug-In . SVG Version: 6.00 Build 0)  -->
<svg version="1.1" id="Layer_1" xmlns="http://www.w3.org/2000/svg" xmlns:xlink="http://www.w3.org/1999/xlink" x="0px" y="0px"
	 viewBox="0 0 511.999 511.999" style="enable-background:new 0 0 511.999 511.999;" xml:space="preserve">
<polygon style="fill:#B3B3B3;" points="401.983,138.237 393.847,160.914 383.454,189.847 357.623,180.577 332.588,171.582 
	306.768,162.312 317.161,133.378 325.299,110.702 351.119,119.973 376.163,128.967 "/>
<g>
	<polygon style="fill:#92949B;" points="401.983,138.237 393.847,160.914 380.594,156.155 343.993,143.016 317.161,133.378 
		325.299,110.702 351.119,119.973 376.163,128.967 	"/>
	<path style="fill:#92949B;" d="M372.101,96.683l-0.068,0.189l-29.578,3.932l-17.64-21.407l0.076-0.198
		c7.523-40.697,40.385-73.255,82.737-79.2L372.101,96.683z"/>
</g>
<path style="fill:#484B54;" d="M332.589,171.585l25.036,8.988l25.825,9.276l18.53-51.613l-25.818-9.269l-25.043-8.996l-25.818-9.269
	l-18.538,51.606L332.589,171.585z M443.459,190.526l-0.076,0.03l-92.401,38.868c-7.424,3.112-14.166,7.652-19.859,13.346
	l-79.505,79.505l-73.324-73.324l83.756-83.756c9.626-9.626,16.101-21.946,18.576-35.337L292.18,67.32l25.135,9.299l7.501,2.779
	l47.218,17.476l79.777,29.538l34.913-94.063c34.055,38.519,32.658,97.381-4.191,134.229c-5.504,5.504-11.364,10.453-17.863,14.143
	C459.925,183.398,443.459,190.526,443.459,190.526z"/>
<path style="fill:#E8B33F;" d="M178.29,248.952L15.926,411.325c-20.246,20.246-20.246,53.07,0,73.316
	c10.128,10.128,23.391,15.193,36.663,15.193s26.534-5.064,36.663-15.193l162.364-162.364L178.29,248.952z M62.329,461.323
	c-5.758,5.758-15.09,5.758-20.848,0c-5.758-5.758-5.758-15.101-0.01-20.848c5.769-5.769,15.101-5.769,20.868,0
	C68.087,446.222,68.087,455.565,62.329,461.323z"/>
<g>
	<polygon style="fill:#484B54;" points="339.728,174.904 324.995,169.512 325.222,168.89 343.517,117.937 358.281,123.237 	"/>
	<polygon style="fill:#484B54;" points="365.227,182.61 350.463,177.307 368.998,125.709 383.767,130.997 383.547,131.612 	"/>
</g>
<path style="fill:#D39F37;" d="M15.926,484.641c-20.246-20.246-20.246-53.07,0-73.316L178.29,248.952l12.977,12.977
	C191.267,261.928,3.653,435.033,15.926,484.641z"/>
<path style="fill:#66686D;" d="M383.45,197.694c-0.895,0-1.793-0.153-2.651-0.461l-76.688-27.541
	c-1.958-0.703-3.556-2.155-4.444-4.037c-0.888-1.881-0.99-4.039-0.288-5.997l18.538-51.606c1.464-4.076,5.954-6.194,10.033-4.73
	l76.679,27.533c1.958,0.703,3.557,2.155,4.444,4.037c0.888,1.881,0.991,4.038,0.289,5.996l-18.53,51.613
	c-0.703,1.959-2.155,3.557-4.037,4.445C385.74,197.442,384.597,197.694,383.45,197.694z M316.796,157.579l61.922,22.237
	l13.229-36.847l-18.436-6.619h-0.001l-43.479-15.614L316.796,157.579z"/>
<polygon style="fill:#B5B6BA;" points="52.761,30.197 109.014,58.247 113.937,93.147 327.545,306.756 301.116,333.185 
	87.508,119.577 52.607,114.654 24.557,58.401 "/>
<polyline style="fill:#92949B;" points="301.116,333.185 87.508,119.577 96.081,111.004 314.218,329.141 "/>
<polygon style="fill:#484B54;" points="337.143,297.159 365.726,325.741 320.102,371.365 291.519,342.783 301.116,333.185 
	327.545,306.756 "/>
<path style="fill:#EA3D3D;" d="M506.358,470.131c0,10.711-4.091,21.433-12.261,29.604c-16.352,16.352-42.866,16.352-59.218,0
	l-82.808-82.796c7.698-7.698,7.698-20.169,0-27.867c-7.698-7.698-20.169-7.698-27.855,0l-16.705-16.705l6.796-6.796l19.75-19.74
	l25.876-25.887l6.796-6.796l16.705,16.705c-7.698,7.687-7.698,20.169,0,27.855c7.698,7.698,20.169,7.698,27.867,0l82.796,82.808
	C502.268,448.687,506.358,459.409,506.358,470.131z"/>
<path style="fill:#D33333;" d="M494.097,499.735c-16.352,16.352-42.866,16.352-59.218,0l-82.808-82.796
	c7.698-7.698,7.698-20.169,0-27.867c-7.698-7.698-20.169-7.698-27.855,0l-16.705-16.705l6.796-6.796l19.75-19.74
	C335.366,347.503,430.545,468.822,494.097,499.735z"/>
<polyline style="fill:#92949B;" points="96.081,111.004 58.689,107.079 32.274,50.683 24.557,58.401 52.607,114.654 87.508,119.577 
	103.311,118.235 "/>
<g>
</g>
<g>
</g>
<g>
</g>
<g>
</g>
<g>
</g>
<g>
</g>
<g>
</g>
<g>
</g>
<g>
</g>
<g>
</g>
<g>
</g>
<g>
</g>
<g>
</g>
<g>
</g>
<g>
</g>
</svg>
