<?xml version="1.0" encoding="iso-8859-1"?>
<!-- Generator: Adobe Illustrator 19.0.0, SVG Export Plug-In . SVG Version: 6.00 Build 0)  -->
<svg version="1.1" id="Capa_1" xmlns="http://www.w3.org/2000/svg" xmlns:xlink="http://www.w3.org/1999/xlink" x="0px" y="0px"
	 viewBox="0 0 480 480" style="enable-background:new 0 0 480 480;" xml:space="preserve">
<path style="fill:#C0AB91;" d="M440,8H40C22.327,8,8,22.327,8,40v400c0,17.673,14.327,32,32,32h400c17.673,0,32-14.327,32-32V40
	C472,22.327,457.673,8,440,8z M240,416c-97.202,0-176-78.798-176-176S142.798,64,240,64s176,78.798,176,176S337.202,416,240,416z"/>
<path style="fill:#EBE5DD;" d="M240,64c-97.202,0-176,78.798-176,176s78.798,176,176,176s176-78.798,176-176S337.202,64,240,64z
	 M168,264c-13.255,0-24-10.745-24-24c0-13.255,10.745-24,24-24s24,10.745,24,24C192,253.255,181.255,264,168,264z M168,115.288
	c47.562-27.406,106.56-25.424,152.176,5.112C274.56,89.864,215.562,87.882,168,115.288z M312,264c-13.255,0-24-10.745-24-24
	c0-13.255,10.745-24,24-24s24,10.745,24,24C336,253.255,325.255,264,312,264z M344.688,141.096
	c7.697,8.158,14.415,17.187,20.016,26.904C359.103,158.283,352.385,149.254,344.688,141.096z"/>
<g>
	<circle style="fill:#A78966;" cx="168" cy="240" r="24"/>
	<circle style="fill:#A78966;" cx="312" cy="240" r="24"/>
</g>
<g>
	<path style="fill:#231F20;" d="M440,480H40c-22.08-0.026-39.974-17.92-40-40V40C0.026,17.92,17.92,0.026,40,0h400
		c22.08,0.026,39.974,17.92,40,40v400C479.974,462.08,462.08,479.974,440,480z M40,16c-13.255,0-24,10.745-24,24v400
		c0,13.255,10.745,24,24,24h400c13.255,0,24-10.745,24-24V40c0-13.255-10.745-24-24-24H40z"/>
	<path style="fill:#231F20;" d="M240,424c-101.62,0-184-82.38-184-184S138.38,56,240,56s184,82.38,184,184
		C423.885,341.573,341.573,423.885,240,424z M240,72c-92.784,0-168,75.216-168,168s75.216,168,168,168s168-75.216,168-168
		C407.899,147.258,332.742,72.101,240,72z"/>
	<path style="fill:#231F20;" d="M364.712,176c-2.861,0.003-5.506-1.522-6.936-4c-5.289-9.178-11.633-17.705-18.904-25.408
		c-3.077-3.17-3.002-8.235,0.168-11.312c3.17-3.077,8.235-3.002,11.312,0.168c0.051,0.053,0.102,0.106,0.152,0.16
		c8.124,8.611,15.217,18.139,21.136,28.392c2.209,3.826,0.898,8.719-2.928,10.928C367.496,175.63,366.116,176,364.712,176
		L364.712,176z"/>
	<path style="fill:#231F20;" d="M320.168,128.4c-1.581-0.002-3.126-0.472-4.44-1.352c-43.025-29.028-98.862-30.892-143.728-4.8
		c-3.828,2.209-8.723,0.896-10.932-2.932c-2.209-3.828-0.896-8.723,2.932-10.932c50.145-29.151,112.544-27.06,160.624,5.384
		c3.676,2.451,4.669,7.418,2.218,11.094c-1.487,2.231-3.993,3.568-6.674,3.562V128.4z"/>
	<path style="fill:#231F20;" d="M168,272c-17.673,0-32-14.327-32-32s14.327-32,32-32s32,14.327,32,32S185.673,272,168,272z M168,224
		c-8.837,0-16,7.163-16,16c0,8.837,7.163,16,16,16s16-7.163,16-16C184,231.163,176.837,224,168,224z"/>
	<path style="fill:#231F20;" d="M312,272c-17.673,0-32-14.327-32-32s14.327-32,32-32s32,14.327,32,32S329.673,272,312,272z M312,224
		c-8.837,0-16,7.163-16,16c0,8.837,7.163,16,16,16s16-7.163,16-16C328,231.163,320.837,224,312,224z"/>
</g>
<g>
</g>
<g>
</g>
<g>
</g>
<g>
</g>
<g>
</g>
<g>
</g>
<g>
</g>
<g>
</g>
<g>
</g>
<g>
</g>
<g>
</g>
<g>
</g>
<g>
</g>
<g>
</g>
<g>
</g>
</svg>
