<?xml version="1.0" encoding="iso-8859-1"?>
<!-- Generator: Adobe Illustrator 19.0.0, SVG Export Plug-In . SVG Version: 6.00 Build 0)  -->
<svg version="1.1" id="Capa_1" xmlns="http://www.w3.org/2000/svg" xmlns:xlink="http://www.w3.org/1999/xlink" x="0px" y="0px"
	 viewBox="0 0 512 512" style="enable-background:new 0 0 512 512;" xml:space="preserve">
<rect x="68.267" y="8.533" style="fill:#4398D1;" width="375.467" height="460.8"/>
<polygon style="fill:#4193C9;" points="443.733,145.067 72.303,469.333 443.733,469.333 "/>
<circle style="fill:#EBEBEB;" cx="256" cy="290.133" r="145.067"/>
<circle style="fill:#97D3E6;" cx="256" cy="290.133" r="102.4"/>
<path style="fill:#86C8DC;" d="M321.186,211.166L166.4,339.627c27.29,49.536,89.574,67.558,139.102,40.269
	c49.527-27.29,67.558-89.574,40.269-139.102C339.524,229.453,331.179,219.401,321.186,211.166z"/>
<path style="fill:#EBEBEB;" d="M379.29,213.965l-54.451,28.698c-5.606,2.953-9.105,8.772-9.105,15.104v64.794
	c0,6.323,3.499,12.134,9.088,15.087l54.426,28.774c29.073-46.643,29.09-105.754,0.043-152.414L379.29,213.965z"/>
<g>
	<rect x="68.267" y="102.4" style="fill:#337AB5;" width="375.467" height="17.067"/>
	<path style="fill:#337AB5;" d="M256,85.333c-14.14,0-25.6-11.46-25.6-25.6s11.46-25.6,25.6-25.6c14.14,0,25.6,11.46,25.6,25.6
		S270.14,85.333,256,85.333z M256,51.2c-4.71,0-8.533,3.823-8.533,8.533s3.823,8.533,8.533,8.533c4.71,0,8.533-3.823,8.533-8.533
		S260.71,51.2,256,51.2z"/>
	<path style="fill:#337AB5;" d="M409.6,85.333h-68.267c-4.71,0-8.533-3.823-8.533-8.533V42.667c0-4.71,3.823-8.533,8.533-8.533
		H409.6c4.71,0,8.533,3.823,8.533,8.533V76.8C418.133,81.51,414.31,85.333,409.6,85.333z M349.867,68.267h51.2V51.2h-51.2V68.267z"
		/>
	<rect x="196.267" y="34.133" style="fill:#337AB5;" width="17.067" height="17.067"/>
	<rect x="196.267" y="68.267" style="fill:#337AB5;" width="17.067" height="17.067"/>
	<rect x="298.667" y="34.133" style="fill:#337AB5;" width="17.067" height="17.067"/>
	<rect x="298.667" y="68.267" style="fill:#337AB5;" width="17.067" height="17.067"/>
	<path style="fill:#337AB5;" d="M179.2,85.333h-17.067V51.2h-51.2v34.133H93.867V42.667c0-4.71,3.823-8.533,8.533-8.533h68.267
		c4.71,0,8.533,3.823,8.533,8.533V85.333z"/>
	<rect x="93.867" y="469.333" style="fill:#337AB5;" width="34.133" height="34.133"/>
	<rect x="384" y="469.333" style="fill:#337AB5;" width="34.133" height="34.133"/>
</g>
<g>
	<path style="fill:#FFFFFF;" d="M241.067,232.277l-4.267-16.521c6.272-1.613,12.723-2.432,19.2-2.423V230.4
		C250.965,230.4,245.948,231.023,241.067,232.277z"/>
	<path style="fill:#FFFFFF;" d="M196.267,290.133H179.2c0.043-27.443,14.66-52.787,38.4-66.56l8.533,14.771
		C207.667,249.062,196.292,268.783,196.267,290.133z"/>
</g>
<path d="M68.267,477.867h17.067v25.6c0,4.71,3.823,8.533,8.533,8.533H128c4.71,0,8.533-3.823,8.533-8.533v-25.6h238.933v25.6
	c0,4.71,3.823,8.533,8.533,8.533h34.133c4.71,0,8.533-3.823,8.533-8.533v-25.6h17.067c4.71,0,8.533-3.823,8.533-8.533V8.533
	c0-4.71-3.823-8.533-8.533-8.533H68.267c-4.71,0-8.533,3.823-8.533,8.533v460.8C59.733,474.044,63.556,477.867,68.267,477.867z
	 M119.467,494.933H102.4v-17.067h17.067V494.933z M409.6,494.933h-17.067v-17.067H409.6V494.933z M418.133,460.8H76.8V119.467h358.4
	V460.8H418.133z M435.2,17.067V102.4H76.8V17.067H435.2z"/>
<path d="M401.203,339.797c0.751-2.202,1.493-4.403,2.15-6.647c0.93-3.14,1.707-6.315,2.449-9.506
	c0.427-1.903,0.802-3.823,1.152-5.76c0.606-3.234,1.109-6.494,1.502-9.771c0.162-1.434,0.324-2.867,0.452-4.309
	c0.41-4.54,0.691-9.097,0.691-13.653c0-4.557-0.282-9.131-0.691-13.653c-0.128-1.442-0.29-2.876-0.452-4.309
	c-0.393-3.277-0.896-6.537-1.502-9.771c-0.358-1.98-0.742-3.951-1.186-5.905c-0.708-3.132-1.493-6.238-2.406-9.318
	c-0.657-2.261-1.399-4.48-2.159-6.69c-0.589-1.707-1.212-3.413-1.852-5.052c-3.157-8.26-7.023-16.23-11.554-23.825
	c-0.435-0.717-0.811-1.468-1.254-2.185c-0.06-0.094-0.162-0.145-0.222-0.247c-44.689-72.107-139.366-94.336-211.473-49.655
	s-94.336,139.366-49.655,211.473s139.366,94.336,211.473,49.655c20.087-12.45,37.035-29.363,49.519-49.434
	c0.111-0.119,0.222-0.256,0.316-0.393c0.478-0.759,0.853-1.553,1.34-2.33c4.506-7.518,8.363-15.411,11.52-23.595
	C399.974,343.219,400.606,341.513,401.203,339.797z M391.919,302.327c-0.094,1.015-0.179,2.031-0.29,3.046
	c-0.41,3.635-0.956,7.228-1.647,10.778c-0.29,1.451-0.632,2.893-0.964,4.335c-0.512,2.227-1.092,4.429-1.707,6.613
	c-0.777,2.714-1.63,5.402-2.56,8.064c-0.606,1.707-1.22,3.465-1.894,5.12c-0.836,2.091-1.724,4.164-2.662,6.221
	c-0.469,1.024-0.973,2.031-1.468,3.038c-0.853,1.818-1.758,3.635-2.722,5.419l-22.545-11.947c17.963-33.007,17.963-72.858,0-105.865
	l22.545-11.887c0.981,1.792,1.86,3.627,2.748,5.461c0.478,0.973,0.964,1.937,1.408,2.918c0.956,2.082,1.86,4.181,2.705,6.306
	c0.623,1.579,1.186,3.2,1.758,4.804c0.99,2.782,1.886,5.589,2.688,8.422c0.606,2.142,1.178,4.267,1.707,6.485
	c0.341,1.476,0.691,2.944,0.981,4.429c0.683,3.533,1.229,7.108,1.647,10.735c0.111,1.015,0.196,2.039,0.29,3.055
	c0.358,4.019,0.614,8.073,0.614,12.186C392.55,294.178,392.277,298.3,391.919,302.327z M320.853,345.148l7.919,4.19
	c-32.691,40.235-91.81,46.345-132.045,13.653s-46.345-91.81-13.653-132.045s91.81-46.345,132.045-13.653
	c5.009,4.07,9.583,8.644,13.653,13.653l-7.902,4.173c-8.422,4.412-13.687,13.141-13.67,22.647v64.794
	C307.209,332.041,312.465,340.736,320.853,345.148z M328.832,330.061c-2.79-1.468-4.548-4.352-4.565-7.501v-64.794
	c0-3.166,1.758-6.076,4.557-7.552l9.549-5.035c15.334,28.015,15.334,61.909,0,89.924L328.832,330.061z M256,426.667
	c-75.409,0.119-136.627-60.919-136.747-136.32c-0.111-75.409,60.919-136.627,136.329-136.747
	c44.194-0.068,85.683,21.257,111.351,57.233l-22.886,12.066c-37.146-48.725-106.752-58.112-155.477-20.975
	s-58.112,106.752-20.975,155.477s106.752,58.112,155.477,20.975c7.902-6.025,14.95-13.073,20.975-20.975l22.835,12.092
	C341.316,405.333,300.023,426.624,256,426.667z"/>
<path d="M256,85.333c14.14,0,25.6-11.46,25.6-25.6s-11.46-25.6-25.6-25.6c-14.14,0-25.6,11.46-25.6,25.6S241.86,85.333,256,85.333z
	 M256,51.2c4.71,0,8.533,3.823,8.533,8.533s-3.823,8.533-8.533,8.533c-4.71,0-8.533-3.823-8.533-8.533S251.29,51.2,256,51.2z"/>
<path d="M341.333,85.333H409.6c4.71,0,8.533-3.823,8.533-8.533V42.667c0-4.71-3.823-8.533-8.533-8.533h-68.267
	c-4.71,0-8.533,3.823-8.533,8.533V76.8C332.8,81.51,336.623,85.333,341.333,85.333z M349.867,51.2h51.2v17.067h-51.2V51.2z"/>
<rect x="196.267" y="34.133" width="17.067" height="17.067"/>
<rect x="196.267" y="68.267" width="17.067" height="17.067"/>
<rect x="298.667" y="34.133" width="17.067" height="17.067"/>
<rect x="298.667" y="68.267" width="17.067" height="17.067"/>
<path d="M110.933,51.2h51.2v34.133H179.2V42.667c0-4.71-3.823-8.533-8.533-8.533H102.4c-4.71,0-8.533,3.823-8.533,8.533v42.667
	h17.067V51.2z"/>
<path d="M241.067,232.277c4.881-1.254,9.899-1.877,14.933-1.877v-17.067c-6.477-0.009-12.928,0.811-19.2,2.423L241.067,232.277z"/>
<path d="M179.2,290.133h17.067c0.043-21.333,11.418-41.037,29.867-51.746l-8.533-14.771
	C193.877,237.38,179.251,262.707,179.2,290.133z"/>
<g>
</g>
<g>
</g>
<g>
</g>
<g>
</g>
<g>
</g>
<g>
</g>
<g>
</g>
<g>
</g>
<g>
</g>
<g>
</g>
<g>
</g>
<g>
</g>
<g>
</g>
<g>
</g>
<g>
</g>
</svg>
