<?xml version="1.0"?>
<svg xmlns="http://www.w3.org/2000/svg" xmlns:xlink="http://www.w3.org/1999/xlink" version="1.1" id="Capa_1" x="0px" y="0px" viewBox="0 0 480.014 480.014" style="enable-background:new 0 0 480.014 480.014;" xml:space="preserve" width="512px" height="512px" class=""><g><g>
	<g>
		<path d="M479.931,199.726c-0.021-0.84-0.175-1.672-0.456-2.464c-0.072-0.176-0.112-0.36-0.192-0.528    c-0.08-0.168-0.048-0.2-0.096-0.296l-55.16-110.312V45.734c12.303-4.154,18.909-17.495,14.755-29.798    c-1.545-4.576-4.462-8.566-8.355-11.426c-5.928-4.404-13.619-5.673-20.648-3.408l-144.08,45.6    c-8.045-7.536-18.648-11.742-29.672-11.768c-20.649,0.107-38.466,14.511-42.896,34.68l-136.8,43.256    c-12.367,3.989-19.159,17.248-15.17,29.614c1.516,4.7,4.472,8.803,8.45,11.73c1.95,1.431,4.109,2.554,6.4,3.328v40.576    L0.867,308.438c-0.048,0.096-0.056,0.2-0.104,0.296c-0.048,0.096-0.112,0.352-0.184,0.528c-0.295,0.79-0.462,1.622-0.496,2.464    c0,0.096-0.056,0.184-0.056,0.288v8c0.04,30.911,25.089,55.96,56,56h16c30.911-0.04,55.96-25.089,56-56v-8    c0-0.104-0.056-0.184-0.056-0.288c-0.034-0.842-0.201-1.674-0.496-2.464c-0.072-0.176-0.112-0.36-0.192-0.528    c-0.08-0.168-0.048-0.2-0.096-0.296l-55.16-110.312v-41.048l136.416-43.144c2.351,1.909,4.893,3.571,7.584,4.96v248h-32    c-4.418,0-8,3.582-8,8v24.32h-24c-4.418,0-8,3.582-8,8v24.384h-24c-4.418,0-8,3.582-8,8v32.416c0,4.418,3.582,8,8,8h240    c4.418,0,8-3.582,8-8V439.63c0-4.418-3.582-8-8-8h-24v-24.416c0-4.418-3.582-8-8-8h-24v-24.352c0-4.418-3.582-8-8-8h-32V115.806    c-0.047-0.681-0.181-1.353-0.4-2c6.362-5.138,11.175-11.939,13.904-19.648c0.264-0.736,0.368-1.512,0.584-2.256l129.912-41.08    v35.304l-55.2,110.312c-0.048,0.096-0.056,0.2-0.104,0.296c-0.048,0.096-0.112,0.352-0.184,0.528    c-0.295,0.79-0.462,1.622-0.496,2.464c0,0.096-0.056,0.184-0.056,0.288v8c0.04,30.911,25.089,55.96,56,56h16    c30.911-0.04,55.96-25.089,56-56v-8C479.987,199.91,479.931,199.83,479.931,199.726z M72.027,360.014h-16    c-22.08-0.026-39.974-17.92-40-40h96C112.001,342.095,94.108,359.988,72.027,360.014z M107.083,304.014H20.971l43.056-86.112    L107.083,304.014z M65.443,142.414c-2.18,0.707-4.566,0.31-6.4-1.064c-3.34-2.476-4.04-7.191-1.564-10.531    c0.917-1.237,2.192-2.163,3.652-2.653l0.032-0.032l131.496-41.6c0.778,4.934,2.387,9.7,4.76,14.096L65.443,142.414z     M352.027,447.63v16.384h-224V447.63H352.027z M320.027,415.214v16.416h-160v-16.416H320.027z M288.027,382.862v16.352h-96    v-16.352H288.027z M232.027,366.862V123.806l16-0.032v243.088H232.027z M262.427,88.87v-0.032    c-5.202,14.867-21.471,22.703-36.339,17.501s-22.703-21.471-17.501-36.339s21.471-22.703,36.339-17.501    c11.411,3.992,19.065,14.745,19.101,26.835C264.039,82.581,263.498,85.806,262.427,88.87z M279.795,74.606    c-0.538-4.968-1.912-9.81-4.064-14.32l138.88-43.936c2.18-0.696,4.562-0.3,6.4,1.064c3.343,2.472,4.049,7.186,1.577,10.529    c-0.919,1.243-2.199,2.173-3.665,2.663L279.795,74.606z M416.027,105.902l43.056,86.112h-86.112L416.027,105.902z     M424.027,248.014h-16c-22.08-0.026-39.974-17.92-40-40h96C464.001,230.095,446.108,247.988,424.027,248.014z" data-original="#000000" class="active-path" data-old_color="#ffffff" fill="#ffffff"/>
	</g>
</g></g> </svg>
