<svg width="60" height="61" viewBox="0 0 60 61" fill="none" xmlns="http://www.w3.org/2000/svg">
<g clip-path="url(#clip0)">
<path d="M30.0049 15.5049C30.5569 15.5049 31.0049 15.0579 31.0049 14.5049V12.5049C31.0049 11.9519 30.5569 11.5049 30.0049 11.5049C29.4529 11.5049 29.0049 11.9519 29.0049 12.5049V14.5049C29.0049 15.0579 29.4529 15.5049 30.0049 15.5049Z" fill="url(#paint0_linear)"/>
<path d="M30.0049 45.5049C29.4529 45.5049 29.0049 45.9519 29.0049 46.5049V48.5049C29.0049 49.0579 29.4529 49.5049 30.0049 49.5049C30.5569 49.5049 31.0049 49.0579 31.0049 48.5049V46.5049C31.0049 45.9519 30.5569 45.5049 30.0049 45.5049Z" fill="url(#paint1_linear)"/>
<path d="M46.0049 31.5049H48.0049C48.5569 31.5049 49.0049 31.0579 49.0049 30.5049C49.0049 29.9519 48.5569 29.5049 48.0049 29.5049H46.0049C45.4529 29.5049 45.0049 29.9519 45.0049 30.5049C45.0049 31.0579 45.4529 31.5049 46.0049 31.5049Z" fill="url(#paint2_linear)"/>
<path d="M14.0049 29.5049H12.0049C11.4529 29.5049 11.0049 29.9519 11.0049 30.5049C11.0049 31.0579 11.4529 31.5049 12.0049 31.5049H14.0049C14.5569 31.5049 15.0049 31.0579 15.0049 30.5049C15.0049 29.9519 14.5569 29.5049 14.0049 29.5049Z" fill="url(#paint3_linear)"/>
<path d="M31.0049 25.6469V20.5049C31.0049 19.9519 30.5569 19.5049 30.0049 19.5049C29.4529 19.5049 29.0049 19.9519 29.0049 20.5049V25.6469C27.2849 26.0939 26.0049 27.6459 26.0049 29.5049C26.0049 30.2449 26.2199 30.9289 26.5719 31.5239L18.2979 39.7979C17.9069 40.1889 17.9069 40.8209 18.2979 41.2119C18.4929 41.4069 18.7489 41.5049 19.0049 41.5049C19.2609 41.5049 19.5169 41.4069 19.7119 41.2119L27.9859 32.9379C28.5809 33.2899 29.2649 33.5049 30.0049 33.5049C32.2109 33.5049 34.0049 31.7109 34.0049 29.5049C34.0049 27.6459 32.7249 26.0939 31.0049 25.6469ZM30.0049 31.5049C28.9019 31.5049 28.0049 30.6079 28.0049 29.5049C28.0049 28.4019 28.9019 27.5049 30.0049 27.5049C31.1079 27.5049 32.0049 28.4019 32.0049 29.5049C32.0049 30.6079 31.1079 31.5049 30.0049 31.5049Z" fill="url(#paint4_linear)"/>
<path d="M1.00488 31.5049C1.55688 31.5049 2.00488 31.0579 2.00488 30.5049C2.00488 15.0659 14.5659 2.50488 30.0049 2.50488C36.3319 2.50488 42.3829 4.61988 47.3069 8.50488H42.0049C41.4529 8.50488 41.0049 8.95188 41.0049 9.50488C41.0049 10.0579 41.4529 10.5049 42.0049 10.5049H49.9199C49.9859 10.5109 50.0479 10.5119 50.1129 10.5049H51.0039V1.50488C51.0039 0.951883 50.5559 0.504883 50.0039 0.504883C49.4519 0.504883 49.0039 0.951883 49.0039 1.50488V7.31488C43.6479 2.91288 36.9859 0.504883 30.0049 0.504883C13.4629 0.504883 0.00488281 13.9629 0.00488281 30.5049C0.00488281 31.0579 0.452883 31.5049 1.00488 31.5049Z" fill="#C6D9FF"/>
<path d="M30.0049 8.50488C17.8739 8.50488 8.00488 18.3739 8.00488 30.5049C8.00488 42.6359 17.8739 52.5049 30.0049 52.5049C42.1359 52.5049 52.0049 42.6359 52.0049 30.5049C52.0049 18.3739 42.1359 8.50488 30.0049 8.50488ZM30.0049 50.5049C18.9769 50.5049 10.0049 41.5329 10.0049 30.5049C10.0049 19.4769 18.9769 10.5049 30.0049 10.5049C41.0329 10.5049 50.0049 19.4769 50.0049 30.5049C50.0049 41.5329 41.0329 50.5049 30.0049 50.5049Z" fill="#C6D9FF"/>
<path d="M11.8939 53.1649C11.5639 53.6039 11.6539 54.2339 12.1039 54.5639C12.2739 54.6939 12.4839 54.7539 12.6939 54.7539C13.0039 54.7539 13.3039 54.6239 13.5039 54.3539C13.8239 53.9149 13.7339 53.2849 13.2939 52.9549C12.8539 52.6249 12.2249 52.7149 11.8939 53.1649Z" fill="#C6D9FF"/>
<path d="M7.23488 46.7749C6.91488 46.3359 6.28488 46.2249 5.83488 46.5459C5.38488 46.8759 5.28488 47.4959 5.60488 47.9449C5.80488 48.2159 6.10488 48.3649 6.42488 48.3649C6.62488 48.3649 6.82488 48.3049 7.00488 48.1759C7.45388 47.8549 7.55488 47.2249 7.23488 46.7749Z" fill="#C6D9FF"/>
<path d="M7.62388 48.9549C7.21388 49.3239 7.17388 49.9549 7.54388 50.3639C7.73388 50.5939 8.01388 50.7049 8.29388 50.7049C8.52388 50.7049 8.76388 50.6249 8.95388 50.4549C9.36388 50.0849 9.40388 49.4549 9.03388 49.0449C8.67488 48.6249 8.04488 48.5949 7.62388 48.9549Z" fill="#C6D9FF"/>
<path d="M11.0649 51.1049C10.6649 50.7349 10.0249 50.7649 9.65488 51.1659C9.27488 51.5749 9.30488 52.2059 9.71488 52.5859C9.90488 52.7559 10.1449 52.8459 10.3849 52.8459C10.6549 52.8459 10.9249 52.7359 11.1249 52.5259C11.4949 52.1159 11.4749 51.4859 11.0649 51.1159C11.0649 51.1049 11.0649 51.1049 11.0649 51.1049Z" fill="#C6D9FF"/>
<path d="M5.67488 44.3449C5.66488 44.3449 5.66488 44.3449 5.66488 44.3449C5.39488 43.8649 4.78488 43.6949 4.30488 43.9749C3.82488 44.2459 3.65488 44.8549 3.93488 45.3349C4.11488 45.6539 4.45488 45.8349 4.80488 45.8349C4.96488 45.8349 5.14488 45.7949 5.29488 45.7049C5.77488 45.4349 5.94488 44.8239 5.67488 44.3449Z" fill="#C6D9FF"/>
<path d="M58.9449 32.6249C58.9649 32.6249 58.9749 32.6249 58.9849 32.6249C59.5249 32.6249 59.9649 32.1939 59.9849 31.6649C60.0049 31.1039 59.5749 30.6439 59.0249 30.6249C58.4749 30.6039 58.0049 31.0349 57.9849 31.5849C57.9649 32.1349 58.3939 32.6049 58.9449 32.6249Z" fill="#C6D9FF"/>
<path d="M1.26488 34.4949C1.81488 34.4339 2.21488 33.9439 2.15488 33.3939C2.09488 32.8439 1.60488 32.4439 1.05488 32.5039C0.504883 32.5539 0.104883 33.0539 0.164883 33.5939C0.214883 34.1139 0.654883 34.4939 1.15488 34.4939C1.19488 34.4949 1.22488 34.4949 1.26488 34.4949Z" fill="#C6D9FF"/>
<path d="M1.82488 37.4349C2.36488 37.3249 2.71488 36.7949 2.59488 36.2549C2.48488 35.7149 1.95488 35.3639 1.41488 35.4839C0.874883 35.5939 0.524883 36.1249 0.644883 36.6649C0.734883 37.1349 1.15488 37.4549 1.61488 37.4549C1.68388 37.4549 1.75488 37.4549 1.82488 37.4349Z" fill="#C6D9FF"/>
<path d="M4.36488 41.7549C4.14488 41.2549 3.55488 41.0249 3.04488 41.2449C2.54488 41.4649 2.31488 42.0549 2.53488 42.5639C2.70488 42.9339 3.06488 43.1649 3.45488 43.1649C3.58488 43.1649 3.72488 43.1349 3.85488 43.0739C4.35388 42.8549 4.58388 42.2649 4.36488 41.7549Z" fill="#C6D9FF"/>
<path d="M3.33388 39.0549C3.17388 38.5249 2.60388 38.2349 2.08388 38.4049C1.55388 38.5749 1.26388 39.1349 1.43388 39.6659C1.57388 40.0859 1.96388 40.3549 2.38388 40.3549C2.48388 40.3549 2.59388 40.3449 2.69388 40.3149C3.21488 40.1449 3.50488 39.5739 3.33388 39.0549Z" fill="#C6D9FF"/>
<path d="M29.4649 58.4949C28.9149 58.4839 28.4549 58.9249 28.4449 59.4739C28.4349 60.0349 28.8749 60.4839 29.4249 60.4949C29.4349 60.4949 29.4449 60.4949 29.4449 60.4949C29.9949 60.4949 30.4349 60.0639 30.4449 59.5149C30.4539 58.9649 30.0149 58.5049 29.4649 58.4949Z" fill="#C6D9FF"/>
<path d="M52.1349 47.6449C51.7949 48.0749 51.8749 48.7059 52.3049 49.0449C52.4949 49.1849 52.7049 49.2549 52.9249 49.2549C53.2149 49.2549 53.5149 49.1249 53.7149 48.8639C54.0549 48.4339 53.9749 47.8039 53.5349 47.4649C53.0949 47.1259 52.4749 47.2049 52.1349 47.6449Z" fill="#C6D9FF"/>
<path d="M45.8339 53.5849C45.3839 53.8949 45.2639 54.5239 45.5839 54.9749C45.7739 55.2549 46.0839 55.4049 46.4039 55.4049C46.6039 55.4049 46.7939 55.3549 46.9739 55.2349C47.4239 54.9249 47.5439 54.2959 47.2239 53.8449C46.9139 53.3849 46.2949 53.2749 45.8339 53.5849Z" fill="#C6D9FF"/>
<path d="M48.1349 51.8239C47.7149 52.1839 47.6649 52.8139 48.0249 53.2339C48.2249 53.4639 48.5049 53.5849 48.7849 53.5849C49.0149 53.5849 49.2449 53.5049 49.4349 53.3449C49.8549 52.9849 49.9049 52.3549 49.5449 51.9349C49.1839 51.5149 48.5549 51.4649 48.1349 51.8239Z" fill="#C6D9FF"/>
<path d="M55.1639 44.9439C54.6939 44.6539 54.0739 44.8039 53.7839 45.2639C53.4939 45.7339 53.6339 46.3539 54.1039 46.6439C54.2739 46.7449 54.4539 46.7939 54.6339 46.7939C54.9639 46.7939 55.2939 46.6339 55.4839 46.3229C55.7749 45.8549 55.6349 45.2339 55.1639 44.9439Z" fill="#C6D9FF"/>
<path d="M50.2449 49.8349C49.8549 50.2339 49.8749 50.8639 50.2749 51.2449C50.4649 51.4339 50.7149 51.5239 50.9649 51.5239C51.2249 51.5239 51.4949 51.4239 51.6849 51.2139C52.0649 50.8139 52.0549 50.1839 51.6549 49.8039C51.2549 49.4239 50.6239 49.4349 50.2449 49.8349Z" fill="#C6D9FF"/>
<path d="M58.8539 33.6139C58.3139 33.5349 57.8039 33.9249 57.7239 34.4649C57.6439 35.0149 58.0239 35.5149 58.5739 35.5949C58.6239 35.6049 58.6739 35.6049 58.7139 35.6049C59.2039 35.6049 59.6339 35.2459 59.7039 34.7459C59.7849 34.2049 59.4049 33.6939 58.8539 33.6139Z" fill="#C6D9FF"/>
<path d="M58.3849 36.5739C57.8449 36.4439 57.3049 36.7739 57.1649 37.3039C57.0349 37.8439 57.3649 38.3839 57.8949 38.5239C57.9749 38.5449 58.0549 38.5539 58.1349 38.5539C58.5849 38.5539 58.9949 38.2439 59.1049 37.7939C59.2449 37.2549 58.9139 36.7149 58.3849 36.5739Z" fill="#C6D9FF"/>
<path d="M15.7039 54.5649C15.2239 54.2859 14.6139 54.4349 14.3339 54.9159C14.0439 55.3859 14.2039 56.0059 14.6739 56.2859C14.8339 56.3859 15.0139 56.4259 15.1839 56.4259C15.5239 56.4259 15.8539 56.2559 16.0439 55.9359C16.3339 55.4649 16.1749 54.8549 15.7039 54.5649Z" fill="#C6D9FF"/>
<path d="M57.6039 39.4749C57.0839 39.2859 56.5039 39.5549 56.3239 40.0749C56.1339 40.5959 56.3939 41.1659 56.9139 41.3549C57.0239 41.3949 57.1439 41.4159 57.2539 41.4159C57.6639 41.4159 58.0539 41.1659 58.1939 40.7559C58.3849 40.2339 58.1239 39.6649 57.6039 39.4749Z" fill="#C6D9FF"/>
<path d="M56.5249 42.2749C56.0349 42.0359 55.4249 42.2349 55.1849 42.7349C54.9449 43.2349 55.1549 43.8359 55.6449 44.0749C55.7849 44.1449 55.9349 44.1759 56.0849 44.1759C56.4549 44.1759 56.8149 43.9659 56.9849 43.6149C57.2249 43.1139 57.0249 42.5149 56.5249 42.2749Z" fill="#C6D9FF"/>
<path d="M26.5749 58.2949C26.0249 58.2249 25.5349 58.6139 25.4649 59.1649C25.3949 59.7149 25.7849 60.2149 26.3349 60.2739V60.2849C26.3749 60.2849 26.4149 60.2849 26.4549 60.2849C26.9549 60.2849 27.3849 59.9149 27.4449 59.4039C27.5149 58.8549 27.1239 58.3639 26.5749 58.2949Z" fill="#C6D9FF"/>
<path d="M20.9449 57.0049C20.4249 56.8239 19.8549 57.0949 19.6749 57.6249C19.4949 58.1449 19.7749 58.7149 20.2949 58.8949C20.4049 58.9249 20.5149 58.9449 20.6249 58.9449C21.0349 58.9449 21.4249 58.6849 21.5649 58.2749C21.7449 57.7449 21.4649 57.1749 20.9449 57.0049Z" fill="#C6D9FF"/>
<path d="M23.7249 57.7949C23.1849 57.6749 22.6549 58.0049 22.5249 58.5449C22.4049 59.0849 22.7449 59.6249 23.2749 59.7449C23.3549 59.7649 23.4249 59.7649 23.5049 59.7649C23.9549 59.7649 24.3749 59.4549 24.4749 58.9949C24.6039 58.4549 24.2649 57.9149 23.7249 57.7949Z" fill="#C6D9FF"/>
<path d="M18.2649 55.9249C17.7549 55.6849 17.1649 55.9039 16.9349 56.4039C16.7049 56.9039 16.9149 57.5049 17.4149 57.7339C17.5549 57.7949 17.6949 57.8239 17.8349 57.8239C18.2149 57.8239 18.5749 57.6139 18.7449 57.2449C18.9749 56.7449 18.7649 56.1539 18.2649 55.9249Z" fill="#C6D9FF"/>
<path d="M35.2249 58.0149C34.6849 58.1149 34.3249 58.6449 34.4249 59.1849C34.5149 59.6649 34.9449 59.9959 35.4149 59.9959C35.4749 59.9959 35.5349 59.9959 35.5949 59.9849C36.1349 59.8759 36.4949 59.3549 36.3949 58.8149C36.2949 58.2649 35.7649 57.9149 35.2249 58.0149Z" fill="#C6D9FF"/>
<path d="M38.0349 57.3349C37.5049 57.4839 37.2049 58.0449 37.3649 58.5739C37.4949 59.0049 37.8949 59.2849 38.3249 59.2849C38.4149 59.2849 38.5149 59.2739 38.6149 59.2449C39.1449 59.0849 39.4449 58.5239 39.2849 57.9949C39.1239 57.4749 38.5649 57.1749 38.0349 57.3349Z" fill="#C6D9FF"/>
<path d="M40.7649 56.3549C40.2549 56.5649 40.0149 57.1549 40.2249 57.6659C40.3849 58.0459 40.7549 58.2749 41.1449 58.2749C41.2749 58.2749 41.4049 58.2549 41.5349 58.2059C42.0449 57.9849 42.2849 57.4049 42.0749 56.8949C41.8539 56.3849 41.2749 56.1449 40.7649 56.3549Z" fill="#C6D9FF"/>
<path d="M32.3539 58.4039C31.8039 58.4549 31.3939 58.9339 31.4439 59.4839C31.4839 60.0049 31.9239 60.4039 32.4439 60.4039C32.4639 60.4039 32.4939 60.4039 32.5239 60.4039V60.3939C33.0739 60.3539 33.4839 59.8739 33.4339 59.3239C33.3939 58.7749 32.9049 58.3639 32.3539 58.4039Z" fill="#C6D9FF"/>
<path d="M43.3739 55.1049C42.8839 55.3649 42.7039 55.9749 42.9739 56.4559C43.1539 56.7959 43.4939 56.9849 43.8539 56.9849C44.0139 56.9849 44.1739 56.9449 44.3239 56.8549C44.8139 56.5949 44.9939 55.9849 44.7239 55.5049C44.4649 55.0149 43.8539 54.8349 43.3739 55.1049Z" fill="#C6D9FF"/>
</g>
<defs>
<linearGradient id="paint0_linear" x1="10.4438" y1="36.1104" x2="49.6276" y2="35.5507" gradientUnits="userSpaceOnUse">
<stop stop-color="#5529CF"/>
<stop offset="1" stop-color="#9745FF"/>
</linearGradient>
<linearGradient id="paint1_linear" x1="10.4438" y1="36.1104" x2="49.6276" y2="35.5507" gradientUnits="userSpaceOnUse">
<stop stop-color="#5529CF"/>
<stop offset="1" stop-color="#9745FF"/>
</linearGradient>
<linearGradient id="paint2_linear" x1="10.4438" y1="36.1104" x2="49.6276" y2="35.5507" gradientUnits="userSpaceOnUse">
<stop stop-color="#5529CF"/>
<stop offset="1" stop-color="#9745FF"/>
</linearGradient>
<linearGradient id="paint3_linear" x1="10.4438" y1="36.1104" x2="49.6276" y2="35.5507" gradientUnits="userSpaceOnUse">
<stop stop-color="#5529CF"/>
<stop offset="1" stop-color="#9745FF"/>
</linearGradient>
<linearGradient id="paint4_linear" x1="10.4438" y1="36.1104" x2="49.6276" y2="35.5507" gradientUnits="userSpaceOnUse">
<stop stop-color="#5529CF"/>
<stop offset="1" stop-color="#9745FF"/>
</linearGradient>
<clipPath id="clip0">
<rect width="59.99" height="59.99" fill="white" transform="translate(0 0.504883)"/>
</clipPath>
</defs>
</svg>
