<svg width="59" height="58" viewBox="0 0 59 58" fill="none" xmlns="http://www.w3.org/2000/svg">
<path d="M49.1142 48.0012H44.2068V29.6868C44.2068 29.0589 43.6975 28.5495 43.0696 28.5495C42.4417 28.5495 41.9323 29.0589 41.9323 29.6868V48.0012H18.688C18.0601 48.0012 17.5508 48.5105 17.5508 49.1384C17.5508 52.7696 14.5966 55.7242 10.9663 55.7255C7.33508 55.7242 4.38092 52.7696 4.38092 49.1384V12.1521H5.66551V13.7287C5.66551 14.3566 6.17484 14.866 6.80275 14.866H13.1691C13.797 14.866 14.3063 14.3566 14.3063 13.7287V12.1521H32.0069V13.7287C32.0069 14.3566 32.5163 14.866 33.1446 14.866H39.5105C40.1384 14.866 40.6477 14.3566 40.6477 13.7287V12.1521H41.9323V20.5889C41.9323 21.2168 42.4417 21.7261 43.0696 21.7261C43.6975 21.7261 44.2068 21.2168 44.2068 20.5889V11.0148C44.2068 10.3869 43.6975 9.87759 43.0696 9.87759H40.6477V8.30095C40.6477 7.67303 40.1384 7.16371 39.5105 7.16371H37.4648V1.13724C37.4648 0.509323 36.9555 0 36.3276 0C35.6996 0 35.1903 0.509323 35.1903 1.13724V7.16371H33.1446C32.5167 7.16371 32.0074 7.67303 32.0074 8.30095V9.87759H14.3063V8.30095C14.3063 7.67303 13.797 7.16371 13.1691 7.16371H11.1234V1.13724C11.1234 0.509323 10.614 0 9.98613 0C9.35777 0 8.84845 0.509323 8.84845 1.13724V7.16371H6.80275C6.17484 7.16371 5.66551 7.67303 5.66551 8.30095V9.87759H3.24368C2.61577 9.87759 2.10645 10.3869 2.10645 11.0148V49.1384C2.10645 54.0197 6.07527 57.9942 10.9565 57.9996C10.9588 57.9996 10.961 58 10.9636 58H41.3894C46.276 58 50.2514 54.0245 50.2514 49.1384C50.2514 48.5105 49.7421 48.0012 49.1142 48.0012ZM34.2814 9.43819H38.3733V12.5915H34.2814V9.43819ZM7.93999 9.43819H12.0318V12.5915H7.93999V9.43819ZM41.3894 55.7255H16.8896C18.4274 54.3418 19.4801 52.428 19.7571 50.2756H47.8783C47.338 53.3679 44.6338 55.7255 41.3894 55.7255Z" fill="#C6D9FF"/>
<path d="M38.5168 37.4282C38.5168 36.8002 38.0074 36.2909 37.3795 36.2909H14.5193C13.8914 36.2909 13.3821 36.8002 13.3821 37.4282C13.3821 38.0561 13.8914 38.5654 14.5193 38.5654H37.3795C38.0074 38.5654 38.5168 38.0561 38.5168 37.4282Z" fill="url(#paint0_linear)"/>
<path d="M14.5193 34.291H37.3795C37.7897 34.291 38.1685 34.0702 38.3698 33.7126C38.5716 33.3551 38.565 32.917 38.353 32.5657L28.6675 16.5333C28.4613 16.1926 28.0922 15.9841 27.694 15.9841C27.2957 15.9841 26.9262 16.1926 26.7204 16.5333L22.8605 22.9226L22.0892 21.6464C21.8834 21.3057 21.5139 21.0973 21.1157 21.0973C20.7174 21.0973 20.3484 21.3057 20.1422 21.6464L13.5457 32.5657C13.3333 32.917 13.3271 33.3551 13.5285 33.7126C13.7303 34.0702 14.1091 34.291 14.5193 34.291ZM27.694 19.3211L35.3634 32.017H28.3542L24.1889 25.1223L27.694 19.3211ZM21.1161 24.4338L25.6969 32.017H16.5349L21.1161 24.4338Z" fill="url(#paint1_linear)"/>
<path d="M18.2608 40.5655C17.6324 40.5655 17.1235 41.0748 17.1235 41.7027C17.1235 42.3306 17.6324 42.84 18.2608 42.84H29.0809C29.7088 42.84 30.2181 42.3306 30.2181 41.7027C30.2181 41.0748 29.7088 40.5655 29.0809 40.5655H18.2608Z" fill="url(#paint2_linear)"/>
<path d="M34.5842 41.0715C34.3138 40.667 33.7947 40.4714 33.3257 40.6095C32.8748 40.7422 32.5455 41.1401 32.5048 41.6095C32.4641 42.0817 32.7376 42.5441 33.169 42.7375C33.5974 42.9295 34.1085 42.8388 34.4417 42.5065C34.8213 42.1282 34.8815 41.5162 34.5842 41.0715Z" fill="url(#paint3_linear)"/>
<path d="M44.1243 24.7029C43.9424 24.2626 43.4889 23.9768 43.0132 24.0025C42.5401 24.0281 42.1246 24.3547 41.9866 24.8078C41.8503 25.2547 42.0104 25.7557 42.3822 26.0397C42.7645 26.3327 43.3048 26.3508 43.7061 26.0836C44.1513 25.7871 44.3287 25.1972 44.1243 24.7029Z" fill="#C6D9FF"/>
<defs>
<linearGradient id="paint0_linear" x1="13.0107" y1="33.3736" x2="38.9293" y2="33.0272" gradientUnits="userSpaceOnUse">
<stop stop-color="#5529CF"/>
<stop offset="1" stop-color="#9745FF"/>
</linearGradient>
<linearGradient id="paint1_linear" x1="13.0107" y1="33.3736" x2="38.9293" y2="33.0272" gradientUnits="userSpaceOnUse">
<stop stop-color="#5529CF"/>
<stop offset="1" stop-color="#9745FF"/>
</linearGradient>
<linearGradient id="paint2_linear" x1="13.0107" y1="33.3736" x2="38.9293" y2="33.0272" gradientUnits="userSpaceOnUse">
<stop stop-color="#5529CF"/>
<stop offset="1" stop-color="#9745FF"/>
</linearGradient>
<linearGradient id="paint3_linear" x1="13.0107" y1="33.3736" x2="38.9293" y2="33.0272" gradientUnits="userSpaceOnUse">
<stop stop-color="#5529CF"/>
<stop offset="1" stop-color="#9745FF"/>
</linearGradient>
</defs>
</svg>
